<svg version="1.2" xmlns="http://www.w3.org/2000/svg" viewBox="0 0 24 24" width="24" height="24">
	<style>
		.s0 { fill: #ffffff } 
	</style>
	<path class="s0" d="m20.33 4.56q-2.34-1.1-4.95-1.56c-0.21 0.39-0.46 0.9-0.64 1.32q-2.76-0.42-5.48 0c-0.17-0.42-0.43-0.93-0.64-1.32q-2.62 0.46-4.96 1.56c-3.13 4.74-3.98 9.35-3.56 13.9 2.08 1.56 4.09 2.5 6.07 3.12q0.74-1.01 1.31-2.15-1.08-0.41-2.05-0.99 0.26-0.19 0.5-0.4c3.95 1.85 8.24 1.85 12.14 0q0.25 0.21 0.5 0.4-0.97 0.59-2.05 1 0.57 1.13 1.3 2.14c1.98-0.62 4-1.56 6.08-3.12 0.5-5.27-0.85-9.85-3.57-13.9zm-12.32 11.11c-1.18 0-2.15-1.11-2.15-2.46 0-1.35 0.95-2.46 2.15-2.46 1.21 0 2.18 1.11 2.16 2.46 0 1.35-0.95 2.46-2.16 2.46zm7.98 0c-1.19 0-2.16-1.11-2.16-2.46 0-1.35 0.95-2.46 2.16-2.46 1.2 0 2.18 1.11 2.15 2.46 0 1.35-0.95 2.46-2.15 2.46z"/>
</svg>