<svg version="1.2" xmlns="http://www.w3.org/2000/svg" viewBox="0 0 24 24" width="24" height="24">
	<style>
		.s0 { fill: #000000 } 
	</style>
	<g id="geni">
		<g>
			<path class="s0" d="m24 9.59q-0.02-0.91-0.18-1.81-0.59-3.39-2.81-6.01-0.23-0.27-0.48-0.52-0.17-0.16-0.34-0.05-0.15 0.1-0.08 0.32 0.01 0.05 0.03 0.1 0.85 2.27 0.87 4.69-0.02 0.44-0.04 0.88-0.07 1.21-0.37 2.38-0.97 3.76-3.8 6.4-3.71 3.42-8.76 3.56-1.27 0.03-2.52-0.19-1.28-0.22-2.49-0.68-0.27-0.1-0.38 0.08-0.11 0.17 0.1 0.36 0.17 0.17 0.35 0.33 3.48 2.99 8.06 3.12 1.11 0.03 2.21-0.16c2.63-0.42 4.93-1.55 6.82-3.42q3.91-3.86 3.81-9.38z"/>
			<path class="s0" d="m3.75 13.04q0.15-0.11 0.06-0.36-0.01-0.02-0.01-0.05-0.66-1.86-0.38-3.81 0.38-2.57 2.16-4.45 0.14-0.15 0.14-0.35 0-0.67 0-1.33 0-0.66 0-1.31c0-0.29-0.09-0.38-0.37-0.38q-1.31 0-2.63 0-0.21 0-0.36 0.14-2.17 2.13-2.35 5.16-0.06 1.16 0.24 2.28 0.75 2.8 3.14 4.42c0.16 0.11 0.25 0.12 0.36 0.04z"/>
			<path class="s0" d="m8.6 7.48c0.21 1.62 1.74 2.76 3.35 2.5 1.43-0.23 2.47-1.45 2.47-2.9q0-0.43 0-0.87 0-0.56 0-1.13c0-0.24 0.06-0.3 0.3-0.31q0.34 0 0.68 0 0.31-0.02 0.26-0.33-0.01-0.05-0.02-0.1-0.4-1.71-1.47-3.1-0.18-0.24-0.48-0.23-0.89 0.01-1.79 0-0.1 0-0.19 0.02-0.22 0.03-0.24 0.24-0.01 0.09 0 0.18 0 1.39 0 2.78 0 0.58-0.23 1.11-0.71 1.51-2.36 1.72c-0.23 0.04-0.3 0.11-0.29 0.34q0 0.03 0.01 0.08z"/>
		</g>
	</g>
</svg>