<svg version="1.2" xmlns="http://www.w3.org/2000/svg" viewBox="0 0 24 24" width="24" height="24">
	<style>
		.s0 { fill: #000000 } 
	</style>
	<g id="geni">
		<g>
			<path class="s0" d="m24 10.46q-0.02-0.85-0.17-1.69-0.55-3.17-2.62-5.61-0.21-0.25-0.45-0.49-0.16-0.15-0.32-0.04-0.14 0.09-0.07 0.3 0.01 0.04 0.03 0.09 0.79 2.12 0.81 4.38-0.02 0.41-0.04 0.82-0.06 1.13-0.34 2.22-0.91 3.51-3.55 5.97-3.46 3.19-8.17 3.32-1.19 0.03-2.35-0.18-1.2-0.2-2.33-0.63-0.25-0.09-0.35 0.07-0.11 0.16 0.09 0.34 0.16 0.16 0.33 0.31 3.24 2.79 7.52 2.91 1.03 0.03 2.06-0.15c2.45-0.39 4.6-1.45 6.36-3.19q3.65-3.6 3.56-8.75z"/>
			<path class="s0" d="m5.1 13.68q0.14-0.11 0.06-0.34-0.01-0.02-0.01-0.05-0.62-1.73-0.35-3.55 0.35-2.4 2.01-4.15 0.13-0.14 0.13-0.33 0-0.63 0-1.24 0-0.62 0-1.22c0-0.28-0.08-0.36-0.34-0.36q-1.23 0-2.46 0-0.19 0-0.33 0.13-2.03 1.99-2.2 4.82-0.05 1.08 0.23 2.12 0.7 2.62 2.93 4.13c0.15 0.1 0.23 0.11 0.33 0.04z"/>
			<path class="s0" d="m9.63 8.49c0.2 1.51 1.62 2.57 3.13 2.33 1.33-0.21 2.3-1.35 2.3-2.71q0-0.4 0-0.81 0-0.52 0-1.05c0-0.23 0.06-0.28 0.28-0.29q0.32 0 0.63 0 0.29-0.02 0.25-0.31-0.01-0.05-0.02-0.09-0.37-1.6-1.37-2.9-0.17-0.22-0.45-0.21-0.83 0.01-1.67 0-0.09 0-0.18 0.02-0.2 0.03-0.22 0.22-0.01 0.09 0 0.17 0 1.3 0 2.59 0 0.55-0.22 1.04-0.66 1.41-2.2 1.61c-0.21 0.03-0.28 0.1-0.27 0.31q0 0.03 0.01 0.08z"/>
		</g>
	</g>
</svg>