<svg version="1.2" xmlns="http://www.w3.org/2000/svg" viewBox="0 0 24 24" width="24" height="24">
	<style>
		.s0 { fill: #ffffff } 
	</style>
	<path fill-rule="evenodd" class="s0" d="m12 0c-6.63 0-12 5.37-12 12 0 5.31 3.44 9.79 8.21 11.38 0.6 0.11 0.82-0.25 0.82-0.56 0-0.29-0.01-1.24-0.01-2.24-3.02 0.55-3.8-0.74-4.04-1.41-0.14-0.34-0.72-1.41-1.23-1.69-0.42-0.23-1.02-0.78-0.01-0.8 0.94-0.02 1.62 0.87 1.84 1.23 1.08 1.82 2.81 1.3 3.5 0.99 0.1-0.78 0.42-1.31 0.76-1.61-2.67-0.29-5.46-1.33-5.46-5.92 0-1.31 0.46-2.39 1.23-3.23-0.12-0.3-0.54-1.53 0.12-3.18 0 0 1.01-0.31 3.3 1.23q1.46-0.4 3-0.4 1.55 0 3 0.4c2.3-1.56 3.3-1.23 3.3-1.23 0.66 1.65 0.24 2.88 0.12 3.18 0.77 0.84 1.23 1.91 1.23 3.23 0 4.61-2.8 5.63-5.47 5.92 0.43 0.38 0.81 1.1 0.81 2.22 0 1.61-0.02 2.9-0.02 3.31 0 0.31 0.23 0.68 0.83 0.56 4.74-1.59 8.17-6.09 8.17-11.38 0-6.63-5.37-12-12-12z"/>
</svg>