<svg version="1.2" xmlns="http://www.w3.org/2000/svg" viewBox="0 0 24 24" width="24" height="24"><style>.a{fill:#fff}</style><path class="a" d="m21.8 0h-19.6c-1.2 0-2.2 1-2.2 2.2v19.6c0 1.2 1 2.2 2.2 2.2h19.6c1.2 0 2.2-1 2.2-2.2v-19.6c0-1.2-1-2.2-2.2-2.2zm-14.4 20.7c0 0.4-0.3 0.7-0.6 0.7h-2.7c-0.3 0-0.6-0.3-0.6-0.7v-11.3c0-0.3 0.3-0.6 0.6-0.6h2.7c0.3 0 0.6 0.3 0.6 0.6zm-1.9-12.9c-1.5 0-2.6-1.2-2.6-2.6 0-1.4 1.1-2.5 2.6-2.5 1.4 0 2.5 1.1 2.5 2.5 0 1.4-1.1 2.6-2.5 2.6zm16 13c0 0.3-0.3 0.6-0.6 0.6h-2.9c-0.3 0-0.6-0.3-0.6-0.6v-5.3c0-0.8 0.3-3.4-2-3.4-1.8 0-2.2 1.8-2.2 2.6v6.1c0 0.3-0.3 0.6-0.6 0.6h-2.8c-0.3 0-0.6-0.3-0.6-0.6v-11.4c0-0.3 0.3-0.6 0.6-0.6h2.8c0.3 0 0.6 0.3 0.6 0.6v1c0.6-1 1.6-1.7 3.7-1.7 4.6 0 4.6 4.3 4.6 6.6z"/></svg>