<svg version="1.2" xmlns="http://www.w3.org/2000/svg" viewBox="0 0 24 24" width="24" height="24">
	<style>
		.s0 { fill: #ffffff } 
	</style>
	<path fill-rule="evenodd" class="s0" d="m10.58 17.61l-0.88-2.39c0 0-1.43 1.59-3.57 1.59-1.9 0-3.25-1.65-3.25-4.29 0-3.38 1.71-4.58 3.38-4.58 2.42 0 3.19 1.56 3.85 3.57l0.89 2.74c0.88 2.67 2.53 4.81 7.28 4.81 3.41 0 5.72-1.04 5.72-3.79 0-2.23-1.27-3.38-3.63-3.93l-1.76-0.39c-1.21-0.27-1.56-0.77-1.56-1.59 0-0.93 0.74-1.49 1.95-1.49 1.32 0 2.03 0.5 2.14 1.68l2.75-0.33c-0.22-2.47-1.93-3.49-4.73-3.49-2.48 0-4.9 0.93-4.9 3.93 0 1.87 0.91 3.05 3.19 3.6l1.87 0.44c1.4 0.33 1.87 0.91 1.87 1.71 0 1.02-0.99 1.43-2.86 1.43-2.77 0-3.93-1.46-4.59-3.46l-0.91-2.75c-1.14-3.58-2.99-4.9-6.64-4.9-4.04 0-6.19 2.56-6.19 6.91 0 4.17 2.14 6.43 6 6.43 3.1 0 4.58-1.46 4.58-1.46z"/>
</svg>