<svg version="1.2" xmlns="http://www.w3.org/2000/svg" viewBox="0 0 24 24" width="24" height="24">
	<style>
		.s0 { fill: #ffffff } 
	</style>
	<path class="s0" d="m24 11.88c0-1.46-1.18-2.62-2.62-2.62-0.71 0-1.36 0.28-1.83 0.73-1.81-1.29-4.28-2.13-7.03-2.24l1.2-5.63 3.91 0.84c0.05 0.99 0.86 1.78 1.88 1.78 1.03 0 1.87-0.84 1.87-1.87 0-1.03-0.84-1.87-1.87-1.87-0.74 0-1.38 0.43-1.68 1.05l-4.37-0.92q-0.2-0.03-0.34 0.06-0.16 0.11-0.2 0.3l-1.33 6.28c-2.79 0.09-5.31 0.93-7.14 2.24q-0.18-0.17-0.39-0.31-0.22-0.14-0.45-0.23-0.24-0.1-0.48-0.14-0.25-0.05-0.51-0.05c-1.46 0-2.62 1.18-2.62 2.62 0 1.08 0.64 1.98 1.55 2.39q-0.07 0.38-0.07 0.8c0 4.04 4.71 7.33 10.52 7.33 5.81 0 10.52-3.27 10.52-7.33q0-0.4-0.07-0.8c0.91-0.41 1.55-1.33 1.55-2.41zm-18.02 1.87c0-1.03 0.84-1.87 1.87-1.87 1.03 0 1.87 0.84 1.87 1.87 0 1.03-0.84 1.87-1.87 1.87-1.03 0.03-1.87-0.84-1.87-1.87zm10.47 4.97c-1.29 1.29-3.74 1.38-4.45 1.38-0.73 0-3.18-0.11-4.45-1.38-0.19-0.19-0.19-0.49 0-0.69 0.19-0.19 0.49-0.19 0.69 0 0.81 0.82 2.53 1.1 3.76 1.1 1.23 0 2.97-0.28 3.76-1.1 0.2-0.19 0.5-0.19 0.69 0 0.17 0.2 0.17 0.5 0 0.69zm-0.34-3.07c-1.03 0-1.87-0.84-1.87-1.88 0-1.03 0.84-1.87 1.87-1.87 1.03 0 1.87 0.84 1.87 1.87 0 1.01-0.84 1.88-1.87 1.88z"/>
</svg>