<svg version="1.2" xmlns="http://www.w3.org/2000/svg" viewBox="0 0 800 800" width="800" height="800"><style></style><path fill-rule="evenodd" d="m755.4 473.2c0.9 6.9 1.3 13.9 1.3 20.9 0 65.7-38.5 126.7-108.4 172-67.1 43.4-155.8 67.2-249.9 67.2-94.1 0-182.8-23.8-249.9-67.2-70-45.3-108.5-106.3-108.5-172 0-7.7 0.6-15.3 1.6-22.9-25.1-17.2-41.6-45.9-41.6-78.4 0-52.5 43.1-95.2 96.1-95.2 22.3 0 42.9 7.5 59.2 20.2 62.9-38.6 143.7-60.7 229.6-62.8l51.6-161.8c3.5-10.8 14.8-17.1 25.9-14.5l132.8 31c13.4-25.5 40.4-43 71.4-43 44.3 0 80.4 35.7 80.4 79.6 0 44-36.1 79.7-80.4 79.7-42.4 0-77.2-32.6-80.2-73.9l-114.3-26.6-41.6 130.3c79.8 4.6 154.1 26.6 212.8 63.1 16.5-13.3 37.6-21.3 60.6-21.3 53 0 96.1 42.7 96.1 95.2 0 33.8-17.8 63.5-44.6 80.4zm-223.7 105.8c-8.5-8.5-22.3-8.5-30.9 0-19.2 19-52.1 28.2-100.4 28.2q-0.2 0.1-0.4 0.1-0.2 0-0.5-0.1c-48.3 0-81.1-9.2-100.3-28.2-8.6-8.5-22.4-8.5-30.9 0-8.5 8.4-8.5 22.1 0 30.6 27.8 27.5 70.7 40.9 131.2 40.9q0.3 0 0.5 0 0.2 0 0.4 0c60.5 0 103.5-13.4 131.3-40.9 8.5-8.5 8.5-22.2 0-30.6zm-249.9-73.6c29.9 0 54.2-24 54.2-53.6 0-29.6-24.3-54.5-54.2-54.5-29.9 0-54.9 24.9-54.9 54.5 0 29.6 25 53.6 54.9 53.6zm348.1-359.1c0 20.1 16.5 36.4 36.7 36.4 20.3 0 36.7-16.3 36.7-36.4 0-20-16.4-36.3-36.7-36.3-20.2 0-36.7 16.3-36.7 36.3zm-56.7 305.5c0-29.7-24.3-54.5-54.2-54.5-29.9 0-55 24.8-55 54.5 0 29.6 25.1 53.6 55 53.6 29.9 0 54.2-24 54.2-53.6z"/></svg>