<svg version="1.2" xmlns="http://www.w3.org/2000/svg" viewBox="0 0 24 24" width="24" height="24"><style>.a{fill:#fff}</style><path class="a" d="m12 0c-6.3 0-11.5 4.9-12 11.1l6.4 2.6c0.6-0.4 1.2-0.6 2-0.6q0.1 0 0.1 0l2.9-4.1v-0.1c0-2.5 2-4.5 4.5-4.5 2.5 0 4.6 2 4.6 4.5 0 2.5-2.1 4.6-4.6 4.6h-0.1l-4 2.9q0 0.1 0 0.1c0 1.9-1.6 3.4-3.4 3.4-1.7 0-3.1-1.1-3.4-2.7l-4.6-1.9c1.4 5 6.1 8.7 11.6 8.7 6.6 0 12-5.3 12-12 0-6.6-5.4-12-12-12zm-5.9 17.6c0.2 0.6 0.7 1 1.3 1.3 1.3 0.5 2.8-0.1 3.3-1.4 0.3-0.6 0.3-1.3 0-1.9-0.2-0.7-0.7-1.2-1.4-1.4-0.6-0.3-1.3-0.3-1.8-0.1l1.5 0.7c0.9 0.4 1.4 1.5 1 2.4-0.4 1-1.5 1.4-2.5 1zm12.9-8.7c0-1.6-1.3-3-3-3-1.6 0-3 1.4-3 3 0 1.7 1.4 3.1 3 3.1 1.7 0 3-1.4 3-3.1zm-3-2.2c1.3 0 2.3 1 2.3 2.2 0 1.3-1 2.3-2.3 2.3-1.2 0-2.2-1-2.2-2.3 0-1.2 1-2.2 2.2-2.2z"/></svg>