<svg version="1.2" xmlns="http://www.w3.org/2000/svg" viewBox="0 0 24 24" width="24" height="24">
	<style>
		.s0 { fill: #000000 } 
	</style>
	<path fill-rule="evenodd" class="s0" d="m24 4.66q0 0.13-0.08 0.23-0.08 0.11-0.18 0.11-0.79 0.07-1.29 0.51-0.5 0.43-1.04 1.65l-5.44 12.27q-0.05 0.17-0.3 0.17-0.19 0-0.3-0.17l-3.06-6.39-3.51 6.39q-0.11 0.17-0.3 0.17-0.23 0-0.31-0.17l-5.35-12.27q-0.5-1.15-1.06-1.6-0.55-0.45-1.54-0.56-0.09 0-0.16-0.09-0.08-0.09-0.08-0.21 0-0.3 0.17-0.3 0.72 0 1.5 0.06 0.72 0.07 1.36 0.07 0.66 0 1.54-0.07 0.93-0.06 1.65-0.06 0.17 0 0.17 0.3 0 0.3-0.11 0.3-0.71 0.05-1.13 0.36-0.41 0.31-0.41 0.81 0 0.26 0.17 0.64l4.43 9.99 2.51-4.74-2.34-4.9q-0.63-1.32-1.04-1.7-0.4-0.38-1.23-0.46-0.07 0-0.14-0.09-0.07-0.09-0.07-0.21 0-0.3 0.15-0.3 0.71 0 1.31 0.06 0.58 0.07 1.23 0.07 0.64 0 1.36-0.07 0.73-0.06 1.45-0.06 0.17 0 0.17 0.3 0 0.3-0.11 0.3-1.43 0.1-1.43 0.81 0 0.32 0.33 0.99l1.55 3.14 1.54-2.87q0.32-0.61 0.32-1.02 0-0.99-1.43-1.05-0.13 0-0.13-0.3 0-0.11 0.06-0.2 0.07-0.1 0.13-0.1 0.52 0 1.26 0.06 0.72 0.07 1.18 0.07 0.33 0 0.97-0.06 0.81-0.07 1.36-0.07 0.12 0 0.12 0.26 0 0.34-0.23 0.34-0.83 0.08-1.34 0.46-0.51 0.37-1.27 1.7l-2.05 3.79 2.78 5.66 4.1-9.54q0.21-0.52 0.21-0.96 0-1.05-1.43-1.11-0.13 0-0.13-0.3 0-0.3 0.2-0.3 0.52 0 1.24 0.06 0.66 0.07 1.11 0.07 0.47 0 1.09-0.07 0.64-0.06 1.15-0.06 0.15 0 0.15 0.26z"/>
</svg>