<svg version="1.2" xmlns="http://www.w3.org/2000/svg" viewBox="0 0 500 100" width="500" height="100">
	<style>
		.s0 { fill: #ffffff } 
	</style>
	<path id="Gemdation.com" class="s0" aria-label="Gemdation.com"  d="m41.9 48.2v20.4q-2.7 1.1-7.3 2.2-4.6 1.1-9.2 1.1-10.6 0-16.5-5.8-6-5.7-6-15.9 0-9.6 6-15.5 6-5.9 16.8-5.9 4.1 0 7.8 0.7 3.7 0.7 8.3 2.9v9.7h-1.2q-0.8-0.5-2.3-1.6-1.5-1.1-2.9-1.8-1.6-0.9-3.8-1.6-2.1-0.6-4.5-0.6-2.9 0-5.2 0.8-2.3 0.9-4.1 2.6-1.8 1.7-2.8 4.2-1 2.6-1 6 0 6.8 3.6 10.5 3.7 3.6 10.8 3.6 0.6 0 1.3 0 0.8 0 1.4-0.1v-8.1h-8.3v-7.8zm40.6 5.5v3.5h-22.9q0.2 3.7 2.7 5.6 2.6 2 7.6 2 3.2 0 6.2-1.1 3-1.2 4.7-2.5h1.1v8q-3.4 1.4-6.4 2-3 0.6-6.6 0.6-9.5 0-14.5-4.2-5-4.2-5-12 0-7.8 4.8-12.3 4.7-4.5 13-4.5 7.6 0 11.5 3.8 3.8 3.9 3.8 11.1zm-23-2.3h13q-0.1-3.2-1.5-4.8-1.5-1.6-4.6-1.6-2.9 0-4.8 1.5-1.8 1.5-2.1 4.9zm60.8-2.6v22.2h-10.1v-15.6q0-2.3-0.1-3.9-0.1-1.6-0.6-2.6-0.5-1-1.6-1.4-1-0.5-2.8-0.5-1.5 0-2.9 0.6-1.4 0.6-2.5 1.2v22.2h-10v-31.3h10v3.5q2.6-2 5-3.2 2.4-1.1 5.2-1.1 3.1 0 5.5 1.4 2.3 1.3 3.7 4 3-2.5 5.8-4 2.9-1.4 5.6-1.4 5.1 0 7.7 3 2.6 3 2.6 8.8v20.3h-10.1v-15.6q0-2.3-0.1-3.9-0.1-1.6-0.6-2.6-0.4-1-1.5-1.4-1-0.5-2.9-0.5-1.2 0-2.4 0.4-1.2 0.4-2.9 1.4zm59.8-21.1v43.3h-10v-3.3q-2.6 2.2-4.9 3.2-2.2 1-5.2 1-5.7 0-9.1-4.4-3.4-4.4-3.4-11.9 0-4 1.1-7 1.2-3.1 3.2-5.3 1.9-2.1 4.6-3.2 2.7-1.2 5.4-1.2 2.8 0 4.6 0.6 1.8 0.6 3.7 1.5v-13.3zm-10 34.7v-15.4q-1.1-0.4-2.3-0.6-1.1-0.2-2.1-0.2-4 0-5.9 2.5-2 2.4-2 6.8 0 4.6 1.6 6.7 1.6 2 5.1 2 1.3 0 2.9-0.5 1.5-0.5 2.7-1.3zm38.5 0.4v-6.5q-2 0.2-4.4 0.5-2.3 0.3-3.6 0.7-1.5 0.4-2.3 1.4-0.8 0.9-0.8 2.3 0 1 0.2 1.6 0.2 0.6 0.8 1.2 0.7 0.5 1.6 0.8 0.9 0.3 2.8 0.3 1.5 0 3-0.6 1.5-0.7 2.7-1.7zm0 8.2v-3.3q-0.8 0.6-2 1.5-1.2 0.8-2.2 1.3-1.5 0.7-3.1 1-1.6 0.3-3.5 0.3-4.4 0-7.4-2.7-3-2.8-3-7.1 0-3.4 1.5-5.6 1.5-2.1 4.3-3.4 2.8-1.2 6.9-1.8 4.1-0.5 8.6-0.7v-0.2q0-2.6-2.1-3.6-2.2-1-6.3-1-2.5 0-5.3 0.9-2.8 0.9-4 1.4h-0.9v-7.6q1.6-0.4 5.1-1 3.6-0.5 7.2-0.5 8.6 0 12.3 2.6 3.9 2.6 3.9 8.2v21.3zm39-7.2v6.9q-1.6 0.4-3.4 0.7-1.8 0.2-4.4 0.2-5.9 0-8.7-2.4-2.9-2.3-2.9-8.1v-14.6h-4.1v-6.8h4.1v-8.9h10v8.9h9.4v6.8h-9.4v11.1q0 1.7 0.1 2.9 0 1.2 0.4 2.2 0.4 1 1.4 1.5 1 0.6 2.9 0.6 0.7 0 2-0.3 1.3-0.4 1.8-0.7zm16-24.1v31.3h-10v-31.3zm0.3-12v7.6h-10.6v-7.6zm40.6 27.7q0 7.7-4.5 12.1-4.4 4.5-12.6 4.5-8.1 0-12.6-4.5-4.5-4.4-4.5-12.1 0-7.8 4.5-12.2 4.6-4.4 12.6-4.4 8.2 0 12.7 4.4 4.4 4.5 4.4 12.2zm-12.3 7.6q1-1.2 1.5-2.9 0.5-1.7 0.5-4.7 0-2.7-0.5-4.6-0.5-1.8-1.4-3-0.9-1.1-2.2-1.6-1.2-0.4-2.7-0.4-1.4 0-2.6 0.3-1.1 0.4-2.1 1.6-0.9 1.1-1.5 3-0.5 1.9-0.5 4.7 0 2.6 0.5 4.5 0.4 1.9 1.4 3 0.9 1.1 2.1 1.6 1.2 0.5 2.8 0.5 1.4 0 2.6-0.5 1.3-0.4 2.1-1.5zm50.8-12.3v20.3h-10.1v-15.5q0-1.9-0.2-3.8-0.2-1.9-0.6-2.7-0.6-1.1-1.7-1.5-1-0.5-3-0.5-1.3 0-2.8 0.4-1.3 0.5-3 1.4v22.2h-10v-31.3h10v3.5q2.7-2.1 5.1-3.2 2.5-1.1 5.5-1.1 5.1 0 7.9 2.9 2.9 3 2.9 8.9zm20.4 9.4v10.9h-10.4v-10.9zm26.5 11.7q-4.1 0-7.5-0.9-3.4-1-5.9-3-2.5-2.1-3.8-5.2-1.4-3.1-1.4-7.2 0-4.4 1.5-7.5 1.4-3.2 4-5.3 2.6-2 5.9-2.9 3.3-0.9 6.9-0.9 3.2 0 5.9 0.7 2.7 0.7 5 1.8v8.5h-1.4q-0.6-0.5-1.4-1.1-0.8-0.7-2-1.3-1.2-0.7-2.5-1-1.4-0.5-3.2-0.5-4 0-6.2 2.6-2.1 2.5-2.1 6.9 0 4.5 2.2 6.8 2.2 2.4 6.2 2.4 1.9 0 3.4-0.4 1.6-0.5 2.6-1.1 0.9-0.5 1.6-1.1 0.8-0.6 1.4-1.2h1.4v8.5q-2.4 1.1-5 1.8-2.5 0.6-5.6 0.6zm48.6-16.4q0 7.7-4.5 12.1-4.5 4.5-12.6 4.5-8.1 0-12.6-4.5-4.5-4.4-4.5-12.1 0-7.8 4.5-12.2 4.6-4.4 12.6-4.4 8.2 0 12.7 4.4 4.4 4.5 4.4 12.2zm-12.3 7.6q1-1.2 1.5-2.9 0.5-1.7 0.5-4.7 0-2.7-0.5-4.6-0.5-1.8-1.4-3-0.9-1.1-2.2-1.6-1.2-0.4-2.7-0.4-1.4 0-2.6 0.3-1.1 0.4-2.1 1.6-0.9 1.1-1.5 3-0.5 1.9-0.5 4.7 0 2.6 0.5 4.5 0.4 1.9 1.4 3 0.8 1.1 2.1 1.6 1.2 0.5 2.8 0.5 1.4 0 2.6-0.5 1.2-0.4 2.1-1.5zm49.9-14.2v22.2h-10v-15.6q0-2.3-0.1-3.9-0.2-1.6-0.7-2.6-0.5-1-1.5-1.4-1-0.5-2.8-0.5-1.5 0-2.9 0.6-1.4 0.6-2.5 1.2v22.2h-10v-31.3h10v3.5q2.6-2 5-3.2 2.3-1.1 5.2-1.1 3.1 0 5.4 1.4 2.4 1.3 3.8 4 3-2.5 5.8-4 2.8-1.4 5.6-1.4 5 0 7.6 3 2.7 3 2.7 8.8v20.3h-10.1v-15.6q0-2.3-0.1-3.9-0.1-1.6-0.6-2.6-0.5-1-1.5-1.4-1-0.5-2.9-0.5-1.2 0-2.4 0.4-1.2 0.4-3 1.4z"/>
</svg>