<svg version="1.2" xmlns="http://www.w3.org/2000/svg" viewBox="0 0 500 100" width="500" height="100">
	<style>
		.s0 { fill: #ffffff } 
	</style>
	<path id="Gemdation.com" class="s0" aria-label="Gemdation.com"  d="m40.1 63.7q-1.4 1.7-3.9 1.7-1.3 0-3.8-0.7-2.5-0.6-3.5-0.6-3 0-3.1 4.4-2-0.9-3.8-0.9-1.1 0-3 0.5-1.9 0.5-3 0.5-1.8 0-3.8-0.9-0.3-0.8-3.5-3.7-2.8-2.6-2.8-4.5 0-1.4 1.6-2.9 0-0.2 0-0.3 0-0.3-0.8-1.3h-1.6v-4q-0.3 0 2.2 0 1.3 0 1.8-0.8l-2.4-2.4q-0.9 1-0.9 1.3 0 0.1 0.1 0.3-0.2 0.1-0.3 0.1-0.3 0-1.3-0.9 0.6-2.1 1.2-4.3 0.9-3 2.2-4.6 1.8-2.2 4.5-2.2l2.4 2.4 1.6-2.4-3.1-2.4q4.7-1.8 9.5-1.8 4.8 0 9.5 1.8 0 1.1 1.5 2 1.6 0.9 1.7 1.2h-5.6q0.1-0.2 0.1-0.3 0-0.3-0.9-1.3-0.5 0.3-0.7 1 0 0.2 0 1.4 1 0.8 1.2 0.8 0.2 0 0.3 0 0.1 0.1 0.1 0.3 0 0.2-0.9 1.3l1.7 1.5q1.1-2.4 5-2.4 0.7 0 1.3 0.1 1.4 0.4 1.5 2.2 0.2 2 0.9 2.5l-11.1 0.8q0.2-1.6-0.9-2.5-1.2-0.8-2.3-1.4-1.1 0-1.4-0.1-0.7-0.1-1-0.7l-0.8 0.8q-0.5-0.9-1.7-0.9-2.5 0-2.3 0.1l-0.8 0.8q0.8 0.3 0.8 0.9 0 0.3-0.4 1-0.4 0.8-0.4 1.2-0.9 0.6-0.9 3 0 0.7 0.1 2.5 0.1 1.7 0.1 2.5 0 0.9-0.1 1.6-1.6 0.4-1.6 1.1 0 0.5 1.2 1.8 1.3 1.3 1.3 2.1 0 0.3-0.1 0.5-0.3 0 2.7 0 1.5 0 2.1 0.8 0.1 0.2 0.1 0.4 0 0.2-0.9 1.2 0.3 0.9 1.4 0.9 2 0 1.8-0.1l0.8-0.8q-1.1-0.8-1.3-0.8-0.2 0-0.3 0.1 1.5-0.7 4.1-3.3 1.9-2 3.9-3.9-0.1 0-1.2-0.9-0.8-0.5-1.2-0.5-0.5 0-0.8 0.6v0.8h-1.6v-1.6q1.1 0 1.3-0.1 0.8-0.1 1-0.7-0.6-0.8-2.1-0.8-2.9 0-2.6 0v-2.4q1.1-0.2 2.2-0.2 1.5 0 3.9 0.4 2.6 0.4 3.8 0.4 1.9 0 3.6-0.6 0 0.2 0 0.3 0 0.3 0.8 1.3 1-0.9 1.3-0.9 0.2 0 0.3 0.1-0.9 0.6-0.9 1.2 0 0.4 0.6 1.3 0.6 0.9 0.6 1.4 0 0.5-0.3 0.9-0.1-0.1-0.3-0.1-0.3 0-1.3 0.9 1.7 1.5 1.7 3.5 0 0.4-0.1 1.4-0.1 1-0.1 1.6 0 0.7 0.1 1.4zm-0.8 4q-1.4 0.9-4.2 0.9-3.1 0-3.7-1.7 1.2 0.9 3.6 0.9 4.9 0 4.3-0.1zm-7.2-23zm-3.9-2.4l-0.8-0.8q-0.1-0.2-0.1-0.4 0-0.2 0.9-1.2l-0.8 0.8q0.2 0-1.8 0-1.1 0-1.4-0.8 0.2 0.5 2 1 1.8 0.5 2 1.4zm-14.3 6.3l-6.4-0.8q0.5 1.7 2.8 1.7 1.7 0 3.6-0.9zm65.5-14.3v0.8l-3.1-0.8zm-5.6 6.4v0.8l-3.2-0.8zm-0.8 19.9l7.9 5.5-0.7 0.8-1.7-1.5q-0.8 1.6-1.2 2-0.6 0.7-1.9 1.1l-1.6-1.6q-0.3 0.9-1.4 0.9-2 0-1.8-0.1l-0.8-0.8q-0.8 1.1-0.8 1.3 0 0.2 0 0.3h-1.6q0-0.1 0-0.3 0-0.2 0.8-1.3-0.2 0-0.5 0-0.7 0-2.9 0.9-2.1 1-3.6 1-0.9 0-1.7-0.3-1 0.4-1.7 0.4-1.7 0-2.3-2.7-0.8-3.4-1.6-4 0.2 0 0.3 0 0.3 0 1.3-0.9l-1.6-1.5q-1 0.8-1.3 0.8-0.2 0-0.3 0l1.6-1.6q-1.7-1.1-1.7-3.1 0-0.4 0.1-0.9 0.5-0.4 2.1-0.7 1.4-0.2 1.9-0.9-0.5-0.8-1.7-0.8-2.6 0-2.3 0 0.6-0.6 0.6-1.5 0-0.5-0.4-1.8-0.3-1.3-0.3-2 0-0.5 0.1-1.1-0.3 0.1 2.3 0.1 1.2 0 1.7-0.8-1.1-1.7-3.1-1.7-0.4 0-0.9 0 0-2 0-4.1 0.1-2.7 1-4 1.1-1.7 3.8-1.4 4.3 3.3 9.5 3.2 0.9-1 0.9-1.3 0-0.1-0.1-0.3 1 0.9 2 0.9 1.1 0 2.8-1.3 1.6-1.3 2.2-1.3 1.1 0 1.8 2.5h1.6q-0.1 0.2-0.1 0.3 0 0.3 0.8 1.3h1.7q0.1 0.6 0.1 1 0 0.9-0.9 1.3-0.8 0.5-1.6 0.9l1.6-1.6-3.2-2.4q-0.9 1-0.9 1.3 0 0.1 0.1 0.3h-1.6q0-0.2 0-0.3 0-0.3-0.8-1.3-1.8 0.8-3.5 1.6-1.9 1.1-2.1 3.2 0.3-0.1-2.3-0.1-1.2 0-1.7 0.9v3.1l14.4 1.7v1.5q0.3 0-2.3 0-1.2 0-1.7 0.8 0.6 0.8 1.9 1 1.5 0.2 2.1 0.6-0.2 0.7-2.2 0.9-2 0.1-2 1.4 0 0.4 0.2 0.9-1.1-0.7-4.3-0.2-3 0.5-4.5-0.6-0.1 0.4-1 1.9-0.7 1.1-0.7 2 0 0.4 0.1 0.9l0.8 0.8q-0.6 0.3-0.7 1-0.1 0.2-0.1 1.4 1.1 0.8 1.3 0.8 0.2 0 0.3 0 0.7-0.3 0.8-1.1 0-0.1 0-1.3 1.3 0 1.4 0 0.7 0.1 1 0.8 0.5-0.9 1.2-0.9 0.4 0 1.2 0.5 0.8 0.4 1.2 0.4 0.7 0 1.2-0.8zm53.4-20.3v2.3h-1.6q0.4-2.4 1.6-2.3zm-37.5-6.3h4.6q-0.3 0.9-2.3 0.9-2.1 0-2.3-0.9zm37.5 31.3q-1.3 0-1.3 0-0.8 0.1-1.1 0.8 1 0.8 1.3 0.8 0.1 0 0.3-0.1v0.9l-1.6-1.6q-0.7 1.7-2.9 1.7-1.8 0-3.3-1-1.6-1.5-1.6-5.7 0-0.6 0-1.7 0-1.2 0-1.8 0-3.1-0.8-4.8-1.8 3-2.6 6.3-0.6 3.5-1.3 7-0.5-0.3-1-0.3-0.8 0-2.2 0.9-1.3 1-1.8 1-0.8 0-1.2-1.6-0.9 0.3-1.6 0.3-1.3 0-1.9-1.4-0.2-0.7-0.5-3.2-0.2-2-0.7-2.7l-2.4-6.3-0.8 10.9q0.4 0-2.6 0-1.4 0-2 0.8 0.3 0.8 2.3 0.8-0.8 0.2-2.6 1-1.2 0.5-2.2 0.5-1.2 0-3-0.7l2.3-1.6q-0.3-0.6-1-0.8-0.1 0-1.3 0v-3.9q0.1 0.1 0.3 0.1 0.3 0 1.3-0.8-1-0.9-1.3-0.9-0.2 0-0.3 0-0.1-0.1-0.1-0.2 0-0.3 0.8-1.3-0.8-0.3-0.8-1.3 0-2.1 0.1-1.8-0.2 0 1.8 0 1 0 1.3-0.8-3.2 0.1-3.2-4.1 0-0.7 0.1-1.4-0.3 0.1 2.2 0.1 1.2 0 1.7-0.9-0.5-0.8-1.7-0.8-2.5 0-2.2 0v-1.5q1.2 0 1.3 0 0.7 0.1 1 0.8 0.8-0.6 0.8-1.4 0-0.5-0.3-1.3-0.2-0.7-0.5-1.2l2.4-0.8q-0.1 0.1-0.1 0.3 0 0.2 0.9 1.2 0.4-0.3 1-1.6 0.5-1.1 1.3-1.5-1-0.8-1.3-0.8-0.1 0-0.3 0v-0.8q0.2 0 0.3 0 0.3 0 1.3 0.8 0.7 0.1 2.1-0.3 1.4-0.5 2-0.5 1.2 0 2.2 0.8l1.5 1.6-3.1 1.6q5.5 1.4 6.2 10.9l0.8 0.8q0.6-1.1 1.2-2.2 0.6-1.3 0.4-2.5 1.2-1.3 2-5.2 0.7-4.2 1.9-5.8 0.1 0 5.2-1 3.4-0.7 5.8-0.7 1.2 0 2.3 0.2v2.3q-0.7-0.2-1.2-0.2-1.1 0-2.4 1.3-1.2 1.3-2.7 1.3 0.9 2.2 3.4 3.8 2.8 1.8 3.7 3.2-1.2 1-0.8 3.1 0.4 1.8 0.8 3.7 0.2 2.1-1.6 3.4 1.7 0.5 1.7 3 0 0.6-0.2 1.8-0.1 1.2-0.1 1.8 0 0.7 0.2 1.2zm-6.3-7.1zm-27.3-11.7h2.3q0.1-1.1-1.1-1.6-2-0.7-2-0.7l1.5 1.5zm-2.3 3.9l4.7 2.4-1.6-1.6zm5.4 10.2v-1.5q-0.5 0.5-1.2 0.5-0.8 0-2.1-0.9-1.6-1-2.1-1.2 0.8 1.6 2.4 2.1 2.6 0.8 3 1zm38.8-27.7h8q-0.3 0-1.7 0.8-1.4 0.8-2.2 0.8-1 0-1.7-0.8l-0.7 0.8zm33.4 14.3q-0.1 0.6 0 2.5 0.1 1.6-0.2 2.3-0.5 1-2.2 0.8-1.3 0-1.3 0-0.8 0.1-1.1 0.8 0.3 0.8 1.4 0.8 2 0 1.8 0-1.7 0.7-1.7 1.5 0 0.4 0.9 1.5 0.9 1 0.9 1.6 0 0.9-1.7 1.7-1.7 0.9-4.9 1.1-4.7 0.4-5.5 0.5 0.8 1.9 2.4 1.9 0.4 0 1.6-0.2 1.2-0.2 1.9-0.2 0.7 0 1.3 0.1-2.9 3.3-11.2 3.3-1.2 0-3.1-0.1 0-0.1 0-0.3 0-0.3-0.8-1.3-0.5 0.1-1.5 0.9-1 0.7-1.4 0.7-0.8 0-1.1-1.6-0.8 1-0.8 1.3 0 0.2 0 0.3-0.9 0.3-1.6 0.3-1.6 0-3.1-1.7-1.9-2.3-2.4-2.6v-1.5q1.1 0 1.3-0.1 0.7-0.1 1-0.8 0-1.2 0-1.3-0.1-0.7-0.7-1-0.9 1-0.9 1.3 0 0.1 0.1 0.2-1-0.5-1-2.6 0-2 1-2.9l0.8-0.8q-1.1-0.9-1.3-0.9-0.2 0-0.3 0.1v-1.6q0.3 0.1 0.6 0.1 0.7 0 1.3-0.5 0.7-0.6 1.3-1.2-1.5-1.2-2.1-2.2-0.1-0.2-1.1-2.6 0.1 0 0.3 0 0.2 0 1.3 0.8 0.8-0.8 1.9-0.8 0.7 0 2 0.5 1.4 0.4 2.1 0.4 1 0 1.9-0.9-0.9-1.6-3.6-1.6-0.5 0-1.6 0.1-1 0.1-1.4 0.1-3 0-3-2.5 0-0.4 0.1-0.9 0.5-0.7 2.5-0.9 1.8-0.1 2.2-1.4-0.3-0.7-1-0.8 0 0-1.4 0 1 0 3.7-0.8 2.7-0.8 4.1-0.8 2.3 0 3.4 1.6h1.6q-0.1 0.1-0.1 0.3 0 0.2 0.9 1.3l2.4-0.8q-0.1 0.1-0.1 0.3 0 0.2 0.8 1.3 0.2 0 0.4 0 0.2 0 1.3-0.8l-2.4-5.6q1.6-0.2 4 1 2.7 1.3 3.9 1.4l-2.3 1.6q0.9 1.3 3.4 1.6 3.3 0.2 3.7 0.5 1.7 0.7 1.6 3.4-0.2 1.6-1.8 1.6-0.6 0-1.7-0.2-1.1-0.2-1.4-0.2-0.7 0-0.7 0.5 0 0.7 0.8 2.3 0.5-0.6 1-0.6 0.5 0 1.5 0.9 1 0.9 1.9 0.9 0.6 0 1.2-0.4zm-9.5 2.4l-3.2-2.4 1.5-1.6q-1.6-0.1-2.1-1.9-0.7-2.5-1.1-2.8-0.5 1.7-1.8 1.5-1.3-0.3-2.7-0.7-1.6-0.4-2.6 0.7l0.8 0.8q0.4 1.1 0.4 1.8 0 1.7-1.6 2.4-0.9 0.3-3.3 0.7-2.1 0.3-2.7 0.7-0.5 0 3.9 0 2.2 0 3.3 0.8 0-0.3 0 2.3 0 1.2-0.8 1.7-0.1 0-0.3 0-0.3 0-1.3-0.8-0.8 0.7-0.8 1 0 0.2 0.8 0.7 0.9 0.4 0.9 1.1 0 0.1-0.1 0.4-0.5 0.8-1.7 0.8-2.6 0-2.3 0l0.8 0.7q0.5-0.8 1.7-0.8 2.6 0 2.3 0.1 0.8 1 0.8 1.2 0 0.2 0 0.4 1 0.1 1.8 0.1 1.6 0 3.5-0.9 2.4-1.3 3.5-1.6l-0.8-0.8q-0.2-1 0.8-1.4 1.3-0.4 1.5-1h-0.8q-0.8-1-0.8-1.3 0-0.2 0.1-0.3 1.3-0.9 2.6-1.8-0.1 0.1-0.2 0.2zm-8.8 12q-2.3-0.5-4-0.5-1.7 0-4 0.5-0.8-1.1-0.8-1.4 0-0.1 0-0.3h-1.6v1.7q1.2 0 3.6 0.8 2.4 0.7 3.5 0.7 2 0 3.3-1.5zm57.1 3.4h-1.6q0.2-0.5 0.2-0.9 0-0.8-1-1.3-1.5-0.8-1.6-1-1.3 1.6-3.5 1.6-1.3 0-4.2-0.8-2.9-0.8-4.3-0.8-0.3 1.4-2.2 1.6-1.6 0.1-3.3 0.1-1.7 0.4-1.7 2.3 0 0.3 0.1 0.7h-1.6q0-1.2 0-1.3-0.1-0.7-0.8-1-0.4-0.3-0.8-0.3-0.4 0-1.1 0.6-0.8 0.5-1.1 0.5-0.5 0-1-0.8-0.5 0.9-1.1 0.9-0.7 0-1.7-1.3-0.9-1.2-1.2-1.2 7.5-1.2 9.6-4.8-0.3-0.7-1.1-0.8 0 0-1.3 0v-0.8h1.6q0 0.2 0 0.3 0 0.3 0.8 1.3 0.2 0.1 0.3 0.1 0.3 0 1.3-0.9-0.5-1.1-1-2.2-0.8-1.2-1.8-1.2-0.5 0-1.2 0.2l-1.6-4.8q1.1 0 1.4 0 0.7-0.1 1-0.7 0-1.3 0-1.4-0.1-0.7-0.8-1h-0.8q-0.2-0.5-0.2-1 0-1.3 2-1.8 2-0.6 2-1.3 0-0.6-0.6-1.5-1 0.9-1.3 0.9-0.1 0-0.3-0.1 0-0.2 0-0.3 0-0.3 0.8-1.3 0.1 0 0.3 0 0.3 0 1.3 0.8 0.8-0.4 0.8-1 0-0.5-0.8-1.3-0.8-0.8-0.8-0.9 0.7-1 2.6-0.6 2.6 0.7 2.7 0.7 1.2-0.2 1.1-2.5-0.5 0 3.8 0 2.2 0 3.3 0.8v3.2q-0.1-0.1-0.3-0.1-0.3 0-1.3 0.9 2 0.1 3.1 1.2 1.1 1.1 1.1 2.9 0 0.7-0.2 1.5 0.4-0.1-2.7-0.1-1.4 0-2.1 0.9 0.8 1.7 3 1.7 0.5 0 1.6-0.1 1-0.1 1.5-0.1 0.6 0 1.1 0.1l1.6 7.1q0.3 0-2.6 0-1.5 0-2.2 0.8-0.2 1.7 0.9 2.6 1.2 0.7 2.3 1.4h4l-2.4 1.6q2.7 1.1 2.8 1.2 1.2 0.8 1.2 2.8zm-10.4 0.8l8 0.7q-0.4 0.9-1.7 1.4-1.3 0.5-2.8 0.5-3.6 0-3.5-2.6zm-19.1 0.7v0.9l-2.3-0.9zm15.1-11.1q-1-3.3-1-4.3 0-0.7 0.2-2.1l-1.6-1.5q0.2 0.6 0.2 1 0 1.4-1.9 2.7-1.8 1.2-1.8 2.1 0 0.9 1.1 2.1 1.1 0.9 2.6 0.9 1.5 0 2.2-0.9zm-6.4 5.6l3.2 0.8v-0.8zm61.3-26.9v1.7q-0.2 0-0.6 0-0.2 0-0.8 0-0.6-0.1-0.9-0.1-1.2 0-1.7 0.9l3.2 4q-1.2 0.6-4.2 0.8-2.9 0.3-4.1 0.8-2 0.9-2.2 3.3-1.7-0.2-2.5 0.9-0.9 1.2-1.6 2.3-0.2 0.7-0.2 1.1 0 1.4 1.8 1.4 0.3 0 0.9 0 0.5-0.1 0.8-0.1 1.7 0 1.7 1.5 0 0.4-0.1 1-0.4 0-0.8 0-0.4 0-1.2 0-0.8-0.1-1.1-0.1-1.8 0-2.6 0.9 0 1.2 0.1 1.4 0.1 0.8 0.7 1.1h0.8l-2.4 2.4 0.8 0.8q-0.9-0.1-2 1.4-1.2 1.4-2.3 1.4-0.6 0-1.3-0.4v-3.2q-0.3 0 1.8 0 1.4 0 1.4-1.2 0-0.2-0.8-1.2h-2.4q0-0.3 0-0.7 0-0.4-0.1-1 0-0.7 0-1 0-1.6 0.9-2.2-0.7-0.3-0.8-1.1 0-0.2 0-1.4 1.1 0 1.3 0 0.8-0.1 1.1-0.8-0.3-0.6-1.1-0.8 0 0-1.3 0-0.1-0.6 0.1-1.8 0.2-1.2 0.2-1.7 0-2.2-2.8-2.2-1.6 0.9-4.1 0.9-2.4 0-4-0.9v-8.1q1.1-0.1 2.3-0.1 1.5 0 4.5 0.2 2.9 0.3 4.3 0.3 2 0 3.5-0.4l1.6 1.7q1.4-0.8 4.9-0.8 3.4-0.1 4.8-0.9 0 1.2 0.1 1.4 0.1 0.8 0.7 1.1 0.7-0.3 0.9-1.1 0 0 0-1.4zm-9.8 30.1q-0.1 1.6-1.9 1.6-0.3 0-0.8 0-0.6 0-0.9 0-1.5 0-2 0.8 0.6 0.8 2.4 0.8 1.8 0 2.4 0.8v0.8q-1.9-0.8-5.6-0.8-0.8 0-2.4 0-1.5 0.1-2.1 0.1-0.7 0-1.2-0.1 0.6-0.4 0.8-2.5 0.1-1.5 1.6-1.5 0.6-0.1 1.4 0.4 0.8 0.5 1.2 0.5 0.3 0 0.7-0.1 0.7-0.3 0.7-0.7 0-0.1-0.5-0.6-0.4-0.5-0.4-0.8 0-0.2 0.2-0.4 0.4 0.1 0.9 0.1 0.5 0 1.4-0.1 1-0.1 1.5-0.1 2 0 2.6 1.8zm31.7-29.2q-0.2 1.2-0.8 1.7-0.4 0.3-1.5 0.7-1.1 0.3-1.7 0.7 0.1-0.1 0.1-0.3 0-0.2-0.9-1.3-0.6 0.3-0.8 1.1 0 0.2 0 1.3-2.3-0.3-4.1-1.5-2.1-1.4-2.3-3.3 0.8-0.2 1.5-0.2 1 0 2.6 0.6 1.7 0.5 2.5 0.5 1.1 0 2.2-0.9 0.5 0 1.3 0.5 0.8 0.4 1.3 0.4 0.3 0 0.6 0zm-0.8 7.1q-1.2-0.1-1.7 1.1-0.7 2.1-0.7 2.1-1.3-0.5-1.3-1.3 0-0.4 0.3-1.5 0.4-1 0.4-1.7 0-0.6-0.2-1.1 0.5-0.2 0.8-0.2 0.8 0 1.3 1.3 0.6 1.3 1.1 1.3zm-11.2-2.4l6.4 0.8q-0.6 1.5-2.4 4.8-0.5 0.1-1.3-0.4-0.8-0.5-1.3-0.5-0.3 0-0.6 0.1 0-1.1 0-1.4 0.2-0.7 0.8-1-0.3-0.6-1.1-0.9-0.6-0.3-0.6-0.8 0-0.3 0.1-0.7zm12 28.6l-1.7-1.5q-0.8 1.6-3.7 1.6-0.8 0-2.2-0.1-1.4 0-2.1 0-0.9 0-1.5 0l-0.8-0.8q0.7-0.2 0.8-1 0 0 0-1.3 0.3-0.2 0.6-0.2 0.5 0 1.4 0.5 0.9 0.4 1.2 0.4 0.7 0 0.8-1.5-1.7 0.1-2.9-1-1.1-1-1.1-2.4 0-1.2 0.8-2.2 0.6 0.1 1.2 0.1 1.1 0 2.6-0.6 2-0.9 2.6-1.1l-1.6-1.6q-0.6 0.7-1.4 0.7-0.4 0-1.5-0.4-1-0.5-1.7-0.5-0.5 0-1 0.2l3.2-1.6q-1.2-0.1-1.8-0.8-0.3-0.4-0.6-1.5-0.3-1-0.8-1.6 1-0.1 3-1.3 1.9-1.2 2.9-1.2 1.1 0 2.1 0.9 0.3-0.9 1.3-0.9 2.1 0 1.9 0 0 1.4 0 1.4-0.2 0.8-0.8 1.1 0.9 1.1 0.9 1.8 0 0.8-2.2 1.3-2.3 0.6-2.7 1.6 0.6 1.3 2.1 1.5 1.3 0.1 2.7 0.1-0.8 0.9-3.1 1.5-2.8 0.8-3.6 1.3-1.8 1-2.1 2.8 0.6 2.4 2.4 2.4 0.9 0 3.2-0.9 2.2-0.8 3.2-0.7l-3.2 2.4q1.6 0.9 2 1.2 0.7 0.6 1.2 1.9zm40.9-13.3h1.5q-0.7 4.4-3.9 7.8 0.5 0-3.8 0-2.1 0-3.2 0.8 0.4 0.8 2.3 0.8 0 0.1 0 0.3 0 0.2 0.8 1.2h1.6v0.8q-2 0-2.4-0.8-0.2 1.1-1.3 1.5-1.3 0.3-1.8 0.9-1.7-0.5-3.4-1-2.1-0.6-3.6-0.6-1.8 0-3.2 0.8-1.4 1.7-3.2 1.7-0.4 0-0.7-0.1l-2.3-3.2q-0.2 0.1 1.8 0.1 1.4 0 1.4-1.2 0-0.2-0.9-1.2-0.9 0-2.4-1.6-1.4-1.6-2.1-1.6-0.9 0-1.7 1.6l-3.2-3.9 0.8-0.8q-0.8-0.7-0.8-1.6 0-0.5 0.3-1.5 0.4-1 0.4-1.5 0-0.9-0.7-1.6l2.4-1.6q-0.3-0.6-1-0.8-0.1 0-1.4 0v-2.3q2 0 2.4-0.8-0.8-0.7-0.8-1.7 0-0.8 0.6-2 0.5-0.9 1-1.8 6-5.4 11.7-5.5 0 0.2 0 0.4 0 0.2 0.8 1.2l1.6-2.3q-0.1 0.1-0.1 0.3 0 0.3 0.8 1.3l0.8-0.9q-0.1 1.7 1.4 2.2 1.5 0.3 3 0.6 1.7 0.5 1.9 2l3.1-2.4q0 0.2 0 0.3 0 0.3-0.8 1.3 0.5 0.8 1.7 0.8 2.5 0 2.2 0 0 0.6-1.2 0.9-1.6 0.4-1.9 0.6-0.6-1.5-1.6-1.5-0.7 0-2 0.7-1.3 0.8-1.9 0.8-0.1 0-0.3 0-0.2 0-1.2 0.8 2 0.8 5.8 0.8 6.5 0 5.9 0l1.5 3.9q-0.2 0.1-0.5 0.1-0.5 0-1.4-0.4-0.9-0.4-1.2-0.4-0.7 0-0.8 1.5 0.7 0.6 2 0.8 1.5 0.1 1.9 0.3 0.8 0.5 0.8 2v1.6q0.5-0.1-3.4-0.1-1.9 0-2.8 0.8 0.5 0.9 1.7 0.9 2.5 0 2.2-0.1-0.1 0.2-0.1 0.3 0 0.3 0.9 1.3zm-9.4-11h-2.4q-0.8-0.9-0.8-1.2 0-0.1 0.1-0.3-1.3 0.8-3.7 0.7-1.9-0.1-3.8-0.4-1.8-0.1-1.9 0.5 0.8 0.3 0.8 0.8 0 0.8-1.1 1.7 0 0 0.3-0.2 0-0.4 0 4.7 0 3.1-0.8 4.7 0.2 0-1.8 0-1 0-1.4-0.8 0.1 0.2 0.1 0.3 0 0.3-0.8 1.3-2 0-2.4-0.8-0.9 0.8-1.2 0.8-0.2 0-0.3 0 1.2 0.8 3.7 0.8 0.3 0 0.9 0 0.6-0.1 1-0.1 3.2 0 4.5 1.6 0 1.3 0 1.3-0.1 0.8-0.7 1.1 0.5 0.8 1.1 0.8 0.4 0 1.2-0.4 0.8-0.5 1.2-0.5 0.6 0 1.2 0.8l0.7-0.7q1.3 0 1.3 0 0.8 0.1 1.1 0.7 0.1-0.1 0.9-1 0.6-0.6 1.1-0.6 0.2 0 0.3 0.1-1-0.8-1-1.2 0-0.4 1-0.8 1-0.4 1-0.7 0-0.5-1-1.2 0.8-1.4 0.8-3.1 0-1.4-0.7-3.9-0.8-2.7-0.9-4 0.4-0.6 1.1-0.8 0 0 1.3 0zm50.5-8.9v1.6q-0.7-0.8-2.6-0.8-0.1 0-0.5 0-0.2 0-0.4 0-2.4 0-2.7-1.6-0.5 0 3.4 0 1.9 0 2.8 0.8zm2.4 31.3q-1.3 1.7-4.6 1.7-2.1 0-6.3-0.9l-7.9-10.2q0.7-0.8 0.7-1.3 0-0.4-1.2-1.3-1.2-1-1.1-2.1-0.1 0-0.2 0-0.3 0-1.3-0.8-0.8 0.3-0.8 1.4 0 1.9 0 1.7 0.2 0-1.8 0-1 0-1.3 0.8 0.3 0.4 2 1.5 1.4 0.8 1.4 1.9 0 0.6-0.3 1.3-1.3 0-1.3 0-0.7 0.1-1 0.8-0.1 0.2-0.1 0.3 0 0.3 0.9 1.3l0.7-0.8q0.9 0.2 0.9 1.8 0 3.2-0.1 2.9-0.1 0-0.3 0-0.2 0-1.2-0.8-0.9 1-0.9 1.3 0 0.1 0.1 0.3l-3.1-2.4q-0.6 0.1-0.7 0.9-0.1 0.8-0.5 0.8-0.1 0-0.4-0.1-0.6 0.1-1.1 0.1-2 0-2.8-2.5v-2.3q1.9 0 2.3-0.8 0.1-0.2 0.1-0.3 0-0.3-0.9-1.3h-1.5v-2.3q-0.3 0.1 2.2 0.1 1.2 0 1.7-0.9-1.1-1.6-3.1-1.6-0.4 0-0.8 0v-2.3q-0.3 0 2.2 0 1.2 0 1.7-0.8 0-0.1 0-0.3 0-0.3-0.8-1.3-0.8 0.4-1.4 0.4-1 0-1.2-1.7-0.3-2.2-0.5-2.6l1.5-1.5q-1.6-0.2-1.6-2.3 0-0.4 0.1-1.5 0.1-1 0.1-1.5 0-0.6-0.1-1 2.1-4 8.6-4 1.1 0 2.3 0.1 1.5 3 5 7.8 3 3.9 6 7.8 0.2-0.5 0.2-1.4 0-0.8-0.3-2.7-0.1-2-0.1-3 0-4.2 3.3-4.6-0.3-0.6-1-0.8-0.1 0-1.3 0v-0.7q0.7 0.3 4.4 0.6 2.8 0.1 3.4 1.7 0.3-0.7 1-0.8 0.1 0 1.3 0 0.5 0.8 0.5 1.7 0 0.4-0.2 1.1-0.1 0.8-0.1 1.1 0 0.9 0.6 1.6-1.6 0.7-1.6 2.6 0 1.3 0.8 2.1l0.8 0.8q-2.4 0.5-2.4 2.5 0 0.4 0.1 1.3 0.1 0.7 0.1 1.1 0 2-2.5 2.1l-0.8 0.8-1.5-1.6-1.6 2.4q1.4 0.9 3.5 0.9 2.1 0 3.5-0.9v-0.8q0.2-0.1 0.3-0.1 0.3 0 1.3 0.9-1.3 0-1.3 0-0.7 0.1-1.1 0.7 0.3 0.6 1.5 1.1 1.1 0.3 0.9 1.3l-1.6 1.6 0.8 0.8-8.6 1.5q1.2 0.8 3.7 0.8 0.3 0 1 0 0.7 0 1 0 2.5 0 3.7 0.8zm17-9.6v1.6q-0.1 0-0.3 0-0.2 0-1.3 0.9 0.1 0.8 0.7 1.5 0.7 0.8 0.7 1.1 0 0.6-1.4 1.5-0.4 0.2-0.8 0.2-0.5 0-1.2-0.5-0.8-0.6-1.1-0.6-0.5 0-1 0.9v1.6h-1.6q0.1-0.2 0.1-0.3 0-0.3-0.9-1.3-1.1 0.9-1.3 0.9-0.2 0-0.4-0.1 0.7-0.9 0.7-1.8 0-1.4-1.5-2.3 0.4-1.3 2.7-1.9 2.6-0.8 3-1.4 0 0.2 0 0.3 0 0.3 0.9 1.3zm0 8.2v1.7q-1.4 0-2.7 0-1.5-0.1-1.4-1.7zm-6.6-6.5q0.1 0.2 0.1 0.4 0 0.6-0.9 1.1-0.9 0.4-0.9 0.7 0 0.4 0.9 1.1-0.1-0.4-0.1-0.7 0-0.5 0.5-1.3 0.5-0.8 0.4-1.3zm44.7-15.5l-4 2.4q0.9 1 0.9 1.3 0 0.1-0.1 0.3l-1.6-1.6q-0.6 0.1-0.7 0.9 0 0.8-0.4 0.8-0.2 0-0.5-0.1-0.6 0-1.1 0-1.1 0-1.8-0.5-0.6-0.5-1-1.9l0.8-0.8q-1.7-0.8-3.3-1.6-2-0.8-3.5-0.8-1.5 0-2.8 0.8-0.8 1-0.8 1.3 0 0.1 0 0.3-0.5 0-1.3-0.5-0.8-0.4-1.3-0.4-0.2 0-0.5 0.1-0.9 0.6-0.9 1.2 0 0.5 0.5 1.4 0.4 0.9 0.4 1.5 0 0.3 0 0.7l-2.4-2.4q-0.9 0.6-0.9 1.3 0 0.6 0.8 1.8 0.8 1.1 0.8 1.6 1-0.4 1.6-0.4 0.9 0 0.9 1.5 0 0.2 0 0.5 0 0.3 0 0.5 0 1.5 0.7 1.9l-3.9 1.6q0.1 0.1 0.9 1 0.6 0.6 1.1 0.6 0.2 0 0.4 0 0.1 1.6-1.6 1.6-0.2 0-0.4 0-0.2 0-0.3 0-1.3 0-1.8 0.8 1.3-0.1 1.6 0.8 0.1 0.8 0.2 1.7 0.2 0.9 1.4 0.7l0.9-0.8-0.9-0.8q0-0.7 0.9-0.8 0.9-0.1 1.7-0.1 0.8-0.4 0.6-1.5 0.7 0.2 2.2 1.8 1.3 1.4 2.1 1.4 1 0 2.1-1.6 0.7 0.3 1.4 0.3 1.4 0 2.3-1.5 0.3-0.6 1.1-2.8v-0.8q0.9 0.7 1.9 0.7 0.8 0 2.2-0.4 1.6-0.5 2.5-0.5 0.6 0 1.3 0.2l-0.8 5.6q-0.1 0-0.3 0-0.2 0-1.3-0.8-0.1 1.7-1.9 1.7-0.3 0-0.8-0.1-0.6 0-0.8 0-1.5 0-2 0.8 1.1 0.8 3.2 0.8 4.4 0 3.9 0-0.7 0.1-1.5 1.8-0.8 1.7-2 1.7-0.5 0-1.3-0.3-3-1.4-7.8-0.9-7 0.8-7.5 0.8-3.9-0.1-6.1-3.1 1.3 0.2 1.5-1.2 0.2-1.7 0.9-2-1.1-0.9-1.3-0.9-0.2 0-0.3 0.1-0.6 0.3-0.8 1.1 0 0.1 0 1.3-0.6 0.1-1 0.1-0.9 0-1.4-0.8-0.4-0.8-0.8-1.7l0.8-0.8q-1.2 0-1.5-0.7-0.1-0.3-0.1-1.6 0-1.3-0.8-1.7l2.4-1.6q-0.3-0.6-1-0.7-0.1-0.1-1.4-0.1 0-0.1 0-0.2 0-0.3 0.8-1.3-0.8-0.4-0.8-1.4 0-2.1 0-1.8 0.1 0 0.3 0 0.3 0 1.3-0.8-0.3-1.5-0.3-2.6 0-2.3 1.9-4.6 0.8-1.2 1.6-1.2 0.4 0 1.2 0.3 0.9 0.3 1.6 0.3 0.5 0 1.1-0.2 1.2-0.6 2.8-2.9 1.2-1.8 2.6-1.8 1.1 0 2.6 0.7 0-0.2 0 1.9 0 1 0.8 1.3l1.6-1.6q-0.6-0.3-0.8-1 0-0.2 0-1.3 0.8-0.9 2.5-0.9 3.5 0 3.1 0 0 0.2 0 0.4 0 0.2-0.8 1.2 3.3 1.3 6.6 2.5 3.7 1.8 3.7 5.5zm-12.7 24.6v1.7h-6.4q0.6-0.8 2.9-0.9 2.6-0.1 3.5-0.8zm53-12.6h1.5q-0.7 4.4-3.9 7.8 0.5 0-3.8 0-2.1 0-3.2 0.8 0.4 0.8 2.3 0.8 0 0.1 0 0.3 0 0.2 0.8 1.2h1.6v0.8q-2 0-2.4-0.8-0.2 1.2-1.3 1.5-1.3 0.3-1.8 0.9-1.7-0.5-3.4-1-2.1-0.6-3.6-0.6-1.8 0-3.2 0.8-1.4 1.7-3.2 1.7-0.4 0-0.7-0.1l-2.3-3.2q-0.2 0.1 1.8 0.1 1.4 0 1.4-1.1 0-0.3-0.9-1.3-0.9 0-2.4-1.6-1.4-1.6-2.1-1.6-0.9 0-1.7 1.7l-3.2-3.9 0.8-0.9q-0.8-0.7-0.8-1.6 0-0.5 0.3-1.5 0.4-1 0.4-1.5 0-0.8-0.7-1.6l2.4-1.5q-0.3-0.7-1-0.9-0.1 0-1.4 0v-2.3q2 0 2.4-0.8-0.8-0.7-0.8-1.7 0-0.8 0.6-1.9 0.5-0.9 1-1.8 6.1-5.4 11.7-5.5 0 0.1 0 0.3 0 0.2 0.8 1.2l1.6-2.3q-0.1 0.1-0.1 0.3 0 0.3 0.8 1.3l0.8-0.8q-0.1 1.6 1.4 2.1 1.5 0.3 3 0.6 1.7 0.5 1.9 2l3.1-2.4q0 0.2 0 0.3 0 0.3-0.8 1.3 0.5 0.8 1.7 0.8 2.5 0 2.2 0 0 0.7-1.2 0.9-1.6 0.4-1.9 0.6-0.6-1.5-1.6-1.5-0.7 0-2 0.8-1.3 0.7-1.9 0.7-0.1 0-0.3 0-0.2 0-1.2 0.8 2 0.8 5.8 0.8 6.5 0 5.9 0l1.6 3.9q-0.3 0.1-0.6 0.1-0.5 0-1.4-0.4-0.9-0.4-1.2-0.4-0.7 0-0.8 1.5 0.7 0.6 2 0.8 1.5 0.2 1.9 0.3 0.8 0.5 0.8 2v1.6q0.5 0-3.4 0-1.9 0-2.8 0.8 0.5 0.8 1.7 0.8 2.5 0 2.2-0.1-0.1 0.2-0.1 0.3 0 0.3 0.9 1.3zm-9.4-10.9h-2.4q-0.8-1-0.8-1.3 0-0.1 0.1-0.3-1.3 0.8-3.7 0.8-1.9-0.2-3.8-0.4-1.8-0.2-1.9 0.4 0.8 0.3 0.8 0.9 0 0.7-1.1 1.6 0 0 0.3-0.2 0-0.4 0 4.7 0 3.1-0.8 4.7 0.2 0-1.8 0-1 0-1.3-0.8 0 0.2 0 0.3 0 0.3-0.8 1.3-2 0-2.3-0.8-1 0.9-1.3 0.9-0.2 0-0.3-0.1 1.2 0.8 3.7 0.8 0.3 0 0.9 0 0.6-0.1 1-0.1 3.2 0 4.5 1.7 0 1.2 0 1.3-0.1 0.7-0.7 1 0.5 0.8 1.1 0.8 0.4 0 1.2-0.4 0.8-0.5 1.2-0.5 0.6 0 1.2 0.9l0.7-0.8q1.3 0 1.3 0 0.8 0.1 1.1 0.8 0.1-0.1 0.9-1 0.6-0.7 1.1-0.7 0.2 0 0.3 0.1-1-0.7-1-1.2 0-0.3 1-0.8 1-0.4 1-0.7 0-0.5-1-1.2 0.8-1.4 0.8-3.1 0-1.4-0.7-3.9-0.8-2.7-0.9-4 0.4-0.6 1.1-0.7 0 0 1.3 0zm58.4-3.8v2.4h-1.5q0.4-2.5 1.5-2.4zm-37.5-6.2h4.7q-0.3 0.8-2.4 0.8-2 0-2.3-0.8zm37.5 31.3q-1.2 0-1.3 0-0.7 0-1 0.7 1 0.9 1.2 0.9 0.2 0 0.3-0.1v0.8l-1.5-1.6q-0.7 1.7-2.9 1.7-1.8 0-3.4-0.9-1.6-1.6-1.6-5.7 0-0.6 0-1.8 0.1-1.2 0.1-1.7 0-3.2-0.8-4.9-1.8 3.1-2.6 6.4-0.6 3.5-1.3 6.9-0.5-0.3-1.1-0.3-0.8 0-2.1 1-1.4 0.9-1.8 0.9-0.8 0-1.3-1.6-0.9 0.3-1.6 0.3-1.3 0-1.8-1.4-0.3-0.7-0.5-3.1-0.3-2-0.8-2.8l-2.3-6.3-0.8 11q0.3-0.1-2.6-0.1-1.5 0-2.1 0.8 0.4 0.9 2.4 0.9-0.9 0.2-2.7 0.9-1.2 0.6-2.1 0.6-1.2 0-3.1-0.8l2.4-1.6q-0.4-0.6-1.1-0.7 0 0-1.3 0v-3.9q0.2 0 0.3 0 0.3 0 1.3-0.8-1-0.9-1.3-0.9-0.1 0-0.3 0.1 0-0.1 0-0.3 0-0.3 0.8-1.3-0.8-0.3-0.8-1.3 0-2 0-1.8-0.2 0.1 1.8 0.1 1 0 1.4-0.9-3.3 0.2-3.3-4.1 0-0.6 0.1-1.3-0.2 0 2.3 0 1.2 0 1.6-0.8-0.4-0.9-1.6-0.9-2.5 0-2.3 0.1v-1.6q1.3 0 1.3 0 0.7 0.1 1.1 0.8 0.8-0.5 0.8-1.4 0-0.5-0.3-1.3-0.3-0.6-0.5-1.2l2.3-0.8q0 0.2 0 0.3 0 0.3 0.8 1.3 0.4-0.4 1-1.7 0.6-1 1.4-1.4-1-0.9-1.3-0.9-0.2 0-0.3 0v-0.7q0.1-0.1 0.3-0.1 0.3 0 1.3 0.8 0.7 0.1 2-0.3 1.4-0.4 2.1-0.4 1.1 0 2.1 0.7l1.6 1.6-3.2 1.6q5.5 1.5 6.3 10.9l0.8 0.8q0.5-1.1 1.1-2.2 0.6-1.3 0.4-2.5 1.3-1.2 2-5.2 0.7-4.2 1.9-5.7 0.1 0 5.2-1.1 3.4-0.6 5.9-0.6 1.1 0 2.2 0.1v2.3q-0.6-0.1-1.1-0.1-1.1 0-2.4 1.3-1.3 1.3-2.7 1.2 0.9 2.2 3.3 3.8 2.8 1.9 3.7 3.3-1.2 1-0.8 3.1 0.4 1.8 0.8 3.6 0.2 2.2-1.5 3.4 1.6 0.6 1.6 3 0 0.6-0.1 1.8-0.1 1.3-0.1 1.8 0 0.7 0.1 1.3zm-6.2-7.1zm-27.4-11.7h2.4q0-1.2-1.2-1.6-2-0.8-2-0.8l1.6 1.6zm-2.4 3.8l4.7 2.4-1.6-1.5zm5.5 10.1v-1.5q-0.6 0.6-1.3 0.6-0.8 0-2.1-1-1.5-1-2.1-1.2 0.9 1.7 2.5 2.1 2.6 0.8 3 1z"/>
</svg>