<svg version="1.2" xmlns="http://www.w3.org/2000/svg" viewBox="0 0 500 100" width="500" height="100">
	<style>
		.s0 { fill: #ffffff } 
	</style>
	<path id="Gemdation.com" class="s0" aria-label="Gemdation.com"  d="m40.9 74q0 0.5 0.4 0.7 0.4 0.1 0.8 0.1 0.7 0 1-0.3 0.2-0.3 0.2-1 0-0.5-0.1-0.9-0.1-0.4-0.7-0.4-0.5 0-1.1 0.7-0.5 0.6-0.5 1.1zm-22.9-1.1q0 0.7 0.4 1.1 0.3 0.5 1.1 0.5 1.1 0 1.1-1.3 0-0.7-0.4-0.8-0.4-0.2-1-0.2-0.5 0-0.8 0-0.4 0.1-0.4 0.7zm0.6-7v0.3 0.2q0 0.2 0.2 0.7 0.3 0.5 0.3 0.6 0 0.2 0 0.5 0 0.4 0 0.8 0 0.5 0 0.9 0 0.4 0 0.4 0 0.4 0.2 0.6 0.2 0.2 0.6 0.2 0.3 0 0.4-0.2 0.2-0.2 0.3-0.6v-1.8q0-1.9-0.1-3.7-0.1-1.8-0.1-3.7v-3.8q0.2-0.8 0.6-1.2 0.4-0.4 0.9-0.5 0.6-0.2 1.2-0.2 0.7 0 1.4-0.1 0.2 0 0.6-0.2 0.5-0.1 1.1-0.2 0.6-0.2 1.1-0.3 0.5-0.1 0.6-0.1h0.7q0.3 0 0.9 0.1 0.6 0.1 0.6 0.7v4.4 0.8l0.2 6.7q-0.1 0.2-0.3 0.5-0.2 0.4-0.3 0.6v0.1q0 0.7 0.4 1.1 0.4 0.3 0.9 0.3 0.7 0 1-0.4 0.3-0.4 0.3-1 0-0.5-0.1-0.9-0.1-0.4-0.1-0.9v-0.4q0-0.2 0.1-0.7 0.1-0.5 0.1-0.6 0-0.2-0.2-0.9-0.2-0.7-0.3-0.9v-7.8q0-0.1 0.2-0.3 0.2-0.2 0.3-0.3 0.1 0 0.4-0.1 0.4-0.1 0.8-0.3 0.4-0.1 0.7-0.1 0.4-0.2 0.5-0.2 0.3-0.2 0.8-0.6 0.4-0.5 0.9-0.5 1.1 0 1.8 0.5 0.8 0.4 1.4 1.1 0.6 0.6 1.1 1.3 0.5 0.8 1.3 1.3v0.2q0 1.9-0.4 3.7-0.4 1.7-0.4 3.5 0 1.2 1.1 1.2 0.4 0 0.6-0.2 0.4-0.2 0.4-0.6v-8.3q-0.1-0.2-0.2-0.7 0-0.5-0.1-0.6v-0.2-0.1q0.6-0.7 1.4-1.7 0.7-1 1.2-1.9 0.3 0.1 0.3 0.4 0.1 0.2 0.1 0.5 0.1 0.3 0.2 0.6 0.1 0.2 0.4 0.3 0.4 0.1 0.6-0.5 0.2-0.8 0.3-1.7 0.1-0.9 0.1-1.8 0.1-1 0.1-1.3 0-1.3-0.5-2.7-0.4-1.4-0.6-2.7v-3.4q0-0.1-0.1-0.7-0.1-0.6-0.1-0.8-0.3-0.9-0.7-1.8-0.4-0.9-0.6-1.9-0.8 0.2-1.8-0.1-1-0.4-2-0.9-1-0.6-2-1-1.1-0.6-2-0.6-0.9 0-1.5 0.4-0.6 0.2-1.1 0.6-0.5 0.3-1.3 0.6-0.7 0.3-2 0.3-0.5 0-1-0.6-0.3-0.5-1.1-0.5-0.5 0-1.1 0.3-0.5 0.4-1.1 0.8-0.4 0.5-0.8 1.1-0.3 0.5-0.3 0.9v5.8q-0.1 0-0.2 0.2-0.2 0.2-0.2 0.3v0.1q0 0.5 0.3 0.9 0.4 0.3 0.8 0.3 0.2 0 0.4 0 0.3 0 0.3-0.3v-5.1q0.8 0 1.2 0.2 0.5 0.2 0.8 0.6 0.3 0.3 0.6 0.8 0.3 0.5 0.8 1.2 0.6 0.9 1.1 1.3 0.4 0.4 0.4 1.4 0 0.5-0.5 1.2-0.5 0.8-1.3 1.4-0.7 0.6-1.5 1-0.8 0.4-1.3 0.4l-0.6-0.2q-0.1-0.1-0.7-0.5-0.7-0.5-0.8-0.6-0.5-0.2-1.4-0.2-0.8 0-1.4 0-0.7 0-1.2 0.4-0.4 0.4-1.1 0.4-0.8 0-1.2-0.5-0.4-0.5-0.6-1.2-0.1-0.7-0.3-1.5-0.1-0.7-0.4-1.3-0.1-0.1-0.3-0.5-0.2-0.4-0.2-0.5 0-0.1-0.1-0.4-0.1-0.3-0.1-0.6-0.1-0.4-0.2-0.7-0.1-0.3-0.1-0.4-0.1-0.3-0.5-0.4-0.2-0.1-0.5-0.2-0.3 0-0.6-0.2-0.2-0.1-0.2-0.5l-0.3-3.6q0-0.1 0.3-0.5 0.4-0.6 0.9-1.2 0.4-0.7 0.8-1.5 0.4-0.8 0.4-1.5 0-0.3-0.2-0.6-0.1-0.2-0.1-0.6 0-0.4 0.4-1 0.4-0.7 1-1.2 0.6-0.7 1.2-1.2 0.6-0.4 1-0.6 0.4-0.1 0.8-0.3 0.5-0.2 0.5-0.2l0.3 0.2v12.3q-0.2 0.5-0.3 0.8 0 0.3 0 0.7 0 1.2 1.1 1.6 0.7-0.3 0.8-0.7 0.2-0.3 0.2-0.8 0-0.4-0.1-0.7 0-0.3-0.1-0.7v-13.2q-0.2-0.4-0.3-0.6 0-0.3 0-0.6 0-0.5 0.1-0.5 0.2-0.2 0.7-0.2 0.9 0 1.7 0.4 0.7 0.4 1.5 0.9 0.7 0.6 1.4 1 0.8 0.5 1.6 0.6 0.1 0 0.5 0 0.4 0 0.9 0 0.5 0 0.9 0 0.4 0 0.6 0 0 0 0.4 0.1 0.4 0.1 0.6 0.2 0.1 0 0.4 0.1 0.4 0.1 0.8 0.2 0.4 0.2 0.7 0.3 0.3 0.1 0.5 0.1 0.1 0 0.4 0 0.3 0 0.7 0 0.3 0 0.5 0.1 0.3 0.1 0.4 0.5-0.2 0.9-0.4 1.5-0.1 0.5-0.1 1.3 0 0.5 0.3 1.1 0.2 0.5 0.9 0.5 0.6 0 0.6-0.5 0-0.4-0.1-0.6-0.1-0.2-0.1-0.5v-0.2q0-0.2 0.4-0.6 0.3-0.4 0.4-0.5 0-0.1 0-0.6-0.1-0.6 0-0.7 0.1-0.6 0.6-0.8 0.5-0.3 0.8-0.5 0.5-0.2 0.8-0.7 0.4-0.4 0.4-1.4 0-0.7-0.3-1.5-0.3-0.3-0.8-0.8-0.4-0.5-1-1-0.4-0.6-0.7-1.1-0.4-0.7-0.4-1.3 0-0.4 0.2-0.6 0.1-0.4 0.1-0.7 0-0.4-0.5-0.8-0.7 0.1-1.8 0.1-1.2 0-1.9-0.3-0.9-0.4-1.6-1.1-0.6-0.6-1.7-0.7-0.4 0-1.2-0.1-0.7-0.1-1.6-0.1-0.8 0-1.6 0-0.8-0.1-1.1-0.1-0.5-0.3-1-0.4-0.6-0.1-1.1-0.4h-2.8q-0.6 0.3-1.3 0.8-0.7 0.4-1.5 0.8-0.8 0.4-1.5 0.8-0.8 0.2-1.4 0.2-0.5 0-0.7-0.5-0.2-0.5-1-0.5-0.8 0-1.8 0.2-1 0.3-1.5 1.1 0.1 1.3-0.1 1.9-0.2 0.7-1.2 1.5-0.3 0.2-1.2 0.7-0.9 0.6-1.4 0.6-0.3 0-0.5-0.2-0.2-0.1-0.4-0.1-0.9 0-1.3 0.9-0.4 0.9-0.4 1.6 0 0.5 0.3 0.9 0.2 0.5 0.2 1 0 0.6-0.5 1.6-0.5 1-1.1 1.9-0.6 1-1.3 1.9-0.6 0.9-1 1.4-0.1 0.1-0.2 0.3-0.1 0.1-0.1 0.2v3.4q1 1 1.3 1.9 0.3 0.8 0.3 2.1v0.9q-0.1 0.4-0.3 0.7-0.3 0.2-0.6 0.4-0.3 0.2-0.5 0.4-0.2 0.1-0.2 0.3 0 0.1 0.2 0.4 0.2 0.3 0.4 0.4 0.1 0.2 0.4 0.5 0.3 0.4 0.6 0.8 0.3 0.3 0.6 0.6 0.3 0.3 0.4 0.5 0.2 0.7 0.4 1.3 0.2 0.6 0.2 1.4 0 0.6-0.2 1.1-0.1 0.5-0.1 1.1 0 1 0.9 1 0.5 0 0.6-0.3 0.1-0.4 0-0.8 0-0.5 0-0.8 0-0.4 0.3-0.4 0.1 0 0.3 0.1 0.2 0.1 0.3 0.2 1.4 1.3 2.4 2.9 0.9 1.7 0.9 3.8 0 0.9-0.1 1.6-0.1 0.8-0.1 1.7 0 0.5 0.1 1.3 0.1 0.9 0.9 0.9 0.3 0 0.6-0.1 0.3-0.1 0.3-0.4v-5.5q0 0 0.3-0.3 0.2-0.4 0.4-0.5l0.2-0.2h0.2 0.1q0.9 0.5 1.9 1.2 1 0.6 1.9 1.4 0.8 0.7 1.3 1.7 0.6 0.9 0.6 2.2 0 0.2-0.1 1.2 0 1 0 2.1-0.1 1.2-0.1 2.2 0 1 0 1.2zm-13-25.5q0-0.2 0-0.9 0-0.7 0-1.4 0-0.7 0-1.4 0-0.7 0-0.9 0-0.2-0.2-0.6-0.2-0.5-0.4-1-0.2-0.5-0.4-1-0.1-0.4-0.1-0.6 0 0-0.1-0.3 0-0.3 0-0.4 0-0.8 0.4-1.6 0.3-0.8 0.8-1.5 0.5-0.8 0.9-1.5 0.5-0.7 0.9-1.4 0.2-0.5 0.2-1.1 0.1-0.5 0.2-1.1 0-0.5 0.2-1.1 0.1-0.5 0.4-0.9 0.7-0.9 1.6-1.1 1-0.2 1.8-1 1-0.8 1.6-1.8 0.5-1 1.5-1.8 0.3 0 0.9 0.1 0.5 0 1.2 0 0.6 0 1.2-0.1 0.7-0.1 1.1-0.3 0.2 0 0.6-0.2 0.5-0.3 1.1-0.5 0.6-0.4 1.1-0.6 0.5-0.2 0.6-0.2 0.1 0 0.5 0 0.4-0.1 0.7-0.1 0.2 0 0.8 0.1 0.5 0 0.6 0 3.2 0.3 6.3 0.9 3.1 0.5 5.9 2.2 0.2 0.1 0.6 0.8 0.5 0.6 0.9 1.3 0.4 0.8 0.7 1.5 0.4 0.7 0.4 0.9 0 1-1 1-0.7 0-1.8-0.2-1-0.3-2.2-0.6-1.1-0.3-2.2-0.6-1.2-0.3-1.9-0.5-0.7-0.2-1.5-0.5-0.7-0.3-1.4-0.6-0.7-0.4-1.5-0.7-0.7-0.2-1.5-0.2-0.8 0-1.3 0.2-0.4 0.1-0.8 0.5-0.4 0.2-0.8 0.6-0.4 0.3-1 0.7-0.2 0.1-0.6 0.4-0.5 0.2-1 0.4-0.5 0.3-1 0.5-0.5 0.2-0.6 0.3-1.1 0.8-1.7 1.6-0.5 0.8-0.9 1.7-0.3 0.9-0.6 1.9-0.2 1-0.7 2.1 0 0.1-0.2 0.6-0.2 0.4-0.4 0.9-0.2 0.6-0.4 1-0.2 0.5-0.3 0.6-0.1 0.4-0.2 0.6 0 0.2 0 0.4 0 0.2 0 0.6 0 0.2 0 0.7 0 1.1 0.2 1.9 0.3 0.7 0.7 1.5 0.4 0.7 0.8 1.5 0.5 0.7 0.9 1.6 0.3 0.9 0.6 2 0.3 1 0.8 2 0.5 1 1.3 1.7 0.8 0.7 2 0.8 2.2-0.2 4 0.2 1.7 0.4 3.8 0.4 1.3 0 2.5-0.5 1.2-0.5 2.2-1.2 1-0.8 1.6-1.9 0.7-1.1 0.7-2.4 0-0.7-0.3-1.6-0.2-1-0.8-1.5l-3.9-3.9v-0.2-0.1q0-0.3 0.3-0.3 1 0.1 1.9 0 1-0.2 1.9-0.3 0.9-0.2 1.8-0.3 1-0.2 1.9-0.2 0.6 0 0.8 0 0.3 0 0.5 0.1 0.3 0 0.6 0.2 0.2 0 0.7 0.3 1.7 0.8 2.4 1.4 0.8 0.6 1.1 1.4 0.2 0.8 0.2 1.8 0 1 0.2 2.7 0 0.2 0.2 0.9 0.1 0.6 0.2 1.4 0.2 0.8 0.3 1.5 0.1 0.6 0.1 0.8v1q0 0.6-0.2 1.4-0.3 0.7-0.8 1.3-0.5 0.7-1.1 1.2-0.6 0.3-1.4 0.3-1.2 0-2.3-0.6-1.1-0.7-2.4-0.7-1.4 0-2.6 0.6-1.1 0.4-2.4 1-0.4 0-1.2 0-0.8-0.1-1.7-0.1-0.9 0-1.8 0.1-0.7 0-1.1 0-1.6 0.1-3.2 0.7-1.4 0.6-3 0.6-0.9 0-1.6-0.5-0.6-0.6-1.3-1.1-0.9-0.5-2-0.7-1.2-0.2-2.1-0.8-0.7-0.5-1.2-1.4-0.5-0.9-0.9-1.5-0.4-0.4-0.7-0.6-0.2-0.3-0.4-0.4-0.2-0.2-0.5-0.3-0.3-0.2-0.7-0.5-0.6-0.4-1.1-1-0.4-0.8-0.7-1.5-0.3-0.8-0.5-1.6-0.2-0.8-0.3-1.4zm44.6 30.4q0 0.5 0.4 0.8 0.4 0.4 0.9 0.4 1.1 0 1.1-0.9 0-5.2-0.4-10.3-0.2-5.1-0.9-10.2 0-0.1 0-0.3 0-0.2 0-0.2h0.5q0.9 1.1 2.1 1.9 1.3 0.9 2.8 0.4 0.1 0.1 0.1 0.3 0.2 0.2 0.2 0.2v0.2q0 0.9-0.2 1.7-0.1 0.9-0.1 1.8v2q0.1 0.4 0.4 0.8 0.3 0.3 0.7 0.3 0.3 0 0.6-0.3 0.3-0.4 0.4-0.8-0.3-0.7-0.5-1.2 0-0.5 0-1.2 0-0.2 0-0.6 0.2-0.5 0.3-1.1 0.2-0.5 0.3-0.9 0.2-0.4 0.3-0.4h0.1q0.1 0 0.3 0.1 0.2 0.1 0.2 0.1 0.3 0.1 0.7 0.3 0.6 0.1 1.1 0.3 0.6 0.2 1 0.3 0.5 0.1 0.6 0.2 0.7 0.2 1.1 0.6 0.3 0.5 0.5 1.1 0.2 0.6 0.2 1.3 0 0.7 0 1.4 0 1.4-0.1 2.8-0.1 1.4-0.1 2.8 0 0.4 0.3 0.8 0.3 0.4 0.7 0.4 0.3 0 0.7-0.2 0.3-0.2 0.3-0.6v-6.5q0-0.5 0.4-0.9 0.3-0.5 0.8-0.9 0.5-0.4 1-0.6 0.6-0.2 1-0.2h0.2q0.2 0 0.7 0.5 0.5 0.5 0.6 0.5h0.2q0.4 0 0.4-0.4 0-0.3 0-0.7 0-0.5 0.1-0.9 0.3-0.4 1.2-0.6 0 0 0.3 0 0.4 0 0.8 0 0.5-0.1 0.9-0.2 0.5 0 0.8 0h0.1q0.6 0 0.8 0.4 0.2 0.4 0.3 0.9 0.1 0.5 0.2 0.9 0.2 0.4 0.6 0.4 0.4 0 0.5-0.4 0.2-0.3 0.3-0.7 0.1-0.4 0.2-0.8 0.1-0.3 0.1-0.5 0.2-0.4 0.7-0.6 0.5-0.4 1-0.6 0.6-0.3 1-0.7 0.5-0.3 0.5-0.8 0-1.4-0.6-2.6-0.5-1.2-1.8-2h-0.4q-0.8 0-1.6 0.4-0.8 0.4-1.7 0.4-0.7 0-1.2-0.1-0.5-0.1-1.3-0.1-1.5 0-3 0.6-1.3 0.7-2.9 0.7-1.3 0-2.3-0.7-1-0.6-2-0.6-0.3 0-0.6 0.1-0.2 0.1-0.5 0.1-0.6 0-0.9-0.8-0.4-0.7-0.4-1.1 0-0.4 0.7-1.1 0.8-0.8 1.7-1.5 0.9-0.8 1.8-1.4 1-0.6 1.5-0.6 1 0 1.6 0.5 0.7 0.5 1.6 0.8 1.4 0.4 2.9 0.4 1.5-0.1 2.9-0.1 0.1 0.1 0.2 0.3 0.1 0.1 0.1 0.3 0.1 0.2 0.2 0.4 0 0.1 0.4 0.1 0.4 0 0.5-0.3 0.2-0.3 0.2-0.7 0-0.4 0-0.8-0.1-0.4-0.1-0.6 0.1-0.2 0.7-0.4 0.5-0.3 1.2-0.5 0.7-0.2 1.3-0.3 0.6-0.1 0.8-0.1 0.4 0 0.6 0.8 0.3 0.7 0.4 1.8 0.2 1.1 0.3 2.5 0.1 1.3 0.1 2.6 0.1 1.2 0.1 2.2 0 0.9 0 1.3v2q-0.4 0.4-0.4 0.9 0.1 0.5 0.1 0.8v1.2q0.1 0.4 0.3 0.5 0.3 0 0.6 0 0.5 0 0.9-0.2 0.3-0.2 0.3-0.8v-0.3q-0.2-1.4-0.5-2.9-0.3-1.5-0.3-2.9v-0.2q0-0.1 0.1-0.9 0.2-0.7 0.2-0.9v-6.5q0.3-0.4 0.4-1 0.2-0.7 0.2-1.5 0-0.7-0.1-1.4 0-0.8 0-1.1v-2.5q-0.1-0.9-0.5-1.3-0.2-0.5-0.7-0.7-0.4-0.3-0.9-0.5-0.4-0.2-1-0.6-0.7-0.6-1.2-1.3-0.5-0.8-0.9-1.5-0.4-0.8-0.9-1.5-0.5-0.7-1.2-1.2-0.2 0-0.7 0.1-0.5 0-1 0-0.5 0-1 0-0.5-0.1-0.7-0.1-0.9-0.2-1.7-0.6-0.7-0.5-1.5-1-0.7-0.5-1.4-0.9-0.8-0.4-1.7-0.4-1.1 0-2.1 0.5-0.9 0.5-1.8 1-0.8 0.6-1.7 1.1-0.9 0.5-1.8 0.6-0.4 0-1 0-0.6-0.1-1.3-0.1-0.6 0-1.3 0.1-0.6 0-1.1 0.2-0.6 0.3-0.9 0.7-0.2 0.4-0.4 0.8-0.2 0.4-0.5 0.8-0.2 0.4-0.8 0.6-0.2 0-0.6 0.1-0.4 0.1-0.5 0.1-0.9 0.6-1.5 1.7-0.5 1.1-1.1 2v0.1 0.1q0.2 0.2 0.6 0.7 0.3 0.5 0.5 0.6l-1.8 4.2q0 0.1-0.1 0.5 0 0.3 0 0.5 0 0.5 0.4 1.6 0.5 1 1 2.2 0.5 1.1 0.9 2.1 0.4 0.9 0.4 1.2-0.1 0.1-0.4 0.4-0.4 0.2-0.4 0.3-0.1 0.2-0.2 0.7-0.1 0.5-0.1 0.6v3.6q0 3.5 0.1 7 0.2 3.5 0.2 7v3.8q-0.2 0.3-0.3 0.6 0 0.3 0 0.6zm32.5-8.8q0 0.5 0.2 1.2 0.3 0.6 1 0.6 0.4 0 0.7-0.3 0.3-0.4 0.3-0.8 0.1-0.5 0.1-1.1 0-0.4 0-0.6 0-0.4-0.3-0.9-0.2-0.4-0.7-0.4-0.7 0-1 0.9-0.3 0.8-0.3 1.4zm-28.8-13q-0.4-0.3-0.6-0.8 0-1.1-0.1-2.5 0-1.4-0.4-2.7 0 0-0.2-0.4-0.1-0.5-0.3-0.9-0.2-0.5-0.4-0.9-0.1-0.5-0.1-0.6 0-0.1-0.1-0.5 0-0.5 0-0.8 0-0.2 0-0.7 0.1-0.6 0.1-0.6 0-0.1 0.2-0.9 0.2-0.8 0.3-0.9 0-0.2 0.1-0.6 0.1-0.5 0.2-1.1 0-0.6 0.1-1.1 0.1-0.5 0.1-0.6 0-0.1 0.1-0.3 0.1-0.2 0.2-0.2 0.7-0.8 1.7-1.8 1.1-1 1.9-1.6 0.5-0.4 1.2-0.5 0.8-0.2 1.5-0.3 0.7-0.1 1.4-0.2 0.8-0.1 1.4-0.3 0.1-0.1 0.6-0.3 0.5-0.2 1.1-0.5 0.5-0.3 1-0.5 0.5-0.2 0.7-0.3 0.6-0.3 0.9-0.2 0.3 0 1.1 0 0.4 0 1.9 0.4 1.4 0.3 2.9 0.9 1.7 0.5 3 1 1.4 0.5 1.6 0.8 0.1 0.1 0.3 0.5 0.3 0.3 0.6 0.8 0.3 0.4 0.6 0.8 0.2 0.4 0.3 0.5 0.6 0.7 1.2 1.2 0.6 0.5 1 1 0.5 0.4 0.9 1.1 0.3 0.6 0.3 1.6 0 0.5 0 1.1 0 0.7-0.5 1-0.2 0-0.6 0.1-0.5 0-1 0-0.5 0.1-1 0.2-0.5 0.1-0.8 0.2l-2.6 1.3q-0.7 0.3-1 0.3-0.4 0-1.2 0h-1.4q-0.2-0.1-0.6-0.2-0.2-0.2-0.2-0.5 0-0.2 0.6-0.7 0.6-0.4 1.3-1.2 0.7-0.7 1.3-1.8 0.7-1 0.7-2.5 0-1.7-0.9-2.6-0.8-0.9-2-1.4-1.2-0.4-2.7-0.5-1.4-0.1-2.7-0.1-1.2 0-2.3 0.4-1.1 0.4-2 1.1-0.9 0.6-1.5 1.6-0.5 1-0.5 2.3 0 0.4 0.1 1 0.1 0.6 0.4 0.9l2.9 2.9v0.5l-3.9 3.9q-0.5 0.5-0.6 1.2 0 0.6 0 1.3 0 0.1 0 0.7 0.1 0.6 0.1 0.7 0.2 1 1.2 1.8 1.1 0.6 2.5 1.1 1.3 0.4 2.7 0.5 1.4 0.2 2.3 0.2 2.1 0 4-0.3 2-0.4 4-0.4h2.8q0.2 0 0.2 0.3 0 0.2 0 0.3 0 0.5-0.3 0.8-0.3 0.3-0.7 0.4-0.3 0-1 0-0.8 0-1.6 0-0.9 0-1.6 0.1-0.7 0.1-1 0.1-0.9 0.2-1.6 0.6-0.7 0.4-1.3 0.7-0.7 0.3-1.4 0.6-0.7 0.2-1.5 0.2-1.1 0-2.1-0.8-1-0.8-2-1.3-0.9-0.3-1.9-0.4-1-0.1-2-0.3-0.1-0.1-0.8-0.2-0.6-0.2-0.7-0.4-0.2 0-0.8-0.3-0.5-0.2-1.2-0.5-0.6-0.3-1.2-0.6-0.6-0.2-0.7-0.4zm8.8-14.9q0-0.7 0.4-1.4 0.5-0.6 1.2-1.1 0.7-0.5 1.4-0.8 0.9-0.2 1.5-0.2 1 0 1.1 0.9 0.2 1 0.2 2.2 0 1.2 0 2.1 0 1 0.8 1h0.2q0.2 0 0.2-0.3-0.1-0.8-0.2-1.7-0.1-1 0-1.8 0.1-0.8 0.5-1.3 0.4-0.6 1.5-0.6 1.1 0 1.6 0.8 0 0.1 0 0.5 0.1 0.4 0.1 0.5 0 0.2-0.1 0.6 0 0.4 0 0.4-0.1 0.2-0.3 0.6-0.2 0.4-0.4 0.8-0.3 0.5-0.5 0.9-0.2 0.4-0.4 0.6-0.6 0.9-1.7 1-1.1 0-2 0h-1.5q-0.5-0.3-0.5-0.5 0-0.2-0.3-0.8-0.2-0.3-0.7-0.5-0.4-0.2-0.9-0.5-0.5-0.3-0.9-0.5-0.3-0.3-0.3-0.9zm25 50.8q0 1 1.2 1 0.3 0 0.5-0.2 0.4-0.1 0.4-0.5 0-0.8-0.4-0.9-0.3-0.2-0.8-0.2-0.6 0-0.8 0.2-0.1 0-0.1 0.6zm-1-7.3q0 0.3 0 0.7 0 0.4 0.1 0.8 0.2 0.3 0.4 0.6 0.2 0.3 0.6 0.3 0.7 0 1.1-0.4 0.4-0.4 0.4-1 0-1.8-0.2-3.6-0.2-1.8-0.4-3.6 0-0.6-0.1-2.6-0.1-2-0.1-4.4-0.1-2.5-0.2-4.8-0.1-2.4-0.1-3.6v-1.1-1.2q0-0.3 0.3-0.3 0.1 0 0.6-0.1 0.5-0.1 0.7-0.1 1.9 1.7 4.4 1.8l0.5 0.5v0.2q0 0.3-0.1 0.7-0.1 0.4-0.1 0.9 0 0.5 0 0.8 0.1 0.3 0.5 0.8 0 0.5 0.2 1.8 0.1 1.1 0.3 2.5 0.2 1.4 0.3 2.6 0.1 1.2 0.2 1.7v0.1q0 0.3-0.2 0.5-0.2 0.2-0.4 0.3-0.3 0.1-0.5 0.3-0.2 0.1-0.2 0.5 0 0.5 0.5 0.9 0.6 0.4 1.1 0.5 0.2 0.1 0.5-0.2 0.3-0.3 0.5-0.6 0.3-0.3 0.4-0.6 0.1-0.4 0.1-0.5 0-1.2-0.2-2.2-0.3-1.1-0.3-2.2v-0.7q0-0.4 0-1.4 0.1-1.1 0.1-2.3 0.1-1.1 0.1-2.2 0.1-1 0.1-1.4 0-0.6 0.5-1.3 0.6-0.6 1.2-1.4 0.7-0.8 1.3-1.8 0.6-1 0.6-2.3 0-0.2-0.2-0.3-0.2-0.1-0.5-0.3-0.3-0.2-0.5-0.4-0.3-0.3-0.3-0.5 0.1-1.7 0.1-2.9 0.1-1.3 0.1-2.8 0-1.2-0.4-2.2-0.4-1.2-0.4-2.4 0-0.1 0-0.6 0-0.4 0-0.6 0.4-0.3 0.9-0.8 0.7-0.6 1.2-0.5 0.1 0 0.3 0.2 0.2 0.2 0.2 0.4v4.4q0 0.3 0.3 0.4 0.3 0.1 0.5 0.1 0.5 0 0.8-0.5v-0.9q0-1.4-0.1-2.7-0.2-1.4-0.2-2.7 0-0.5 0.4-0.7 0.3-0.4 0.7-0.6 0.5-0.2 0.9-0.2 0.6-0.1 0.9-0.1 0.3 0 0.9 0 0.6 0 0.9 0.3 0.4 0.4 1.1 1.3 0.7 1 1.3 2 0.6 1 1.1 2 0.5 1 0.5 1.5 0 0.9-0.8 1.2-0.8 0.2-1.5 0.2 0 1.5-0.5 3-0.4 1.5-0.4 2.9 0 0.4 0.1 0.5 0.2 0.1 0.5 0.1 0.6 0 0.7-0.4 0.2-0.5 0.6-0.5 0.6 0 0.8 0.5 0.2 0.4 0.2 0.8 0 0.9-0.4 1.7-0.4 0.8-0.4 1.7 0 0.3 0 0.6 0 0.2 0.2 0.4l3.9 3.9q0 0.2 0 0.8 0.1 0.5 0.1 1.2 0.1 0.6 0.1 1.2 0.1 0.5 0.1 0.7 0 0.1 0.1 0.4 0.2 0.4 0.2 0.4 0 0.2 0.1 0.5 0.1 0.4 0.1 0.6v0.1q0 0.6-0.1 1.1-0.1 0.5-0.1 1.1v1q0.3 0.9 1.1 0.9 0.3 0 0.5-0.1 0.3-0.1 0.2-0.5v-2.9q0-1.5-0.2-2.8-0.1-1.4-0.1-2.9 0-0.4 0.5-1.1 0.6-0.8 1.3-1.4 0.8-0.7 1.5-1.2 0.8-0.4 1.1-0.4 0.2 0 0.3 0.2 0.1 0.3 0.2 0.6 0.1 0.3 0.2 0.5 0.2 0.2 0.6 0.2 0.4 0 0.6-0.2 0.2-0.4 0.2-0.7 0-1.3-0.2-2.4-0.3-1.2-0.3-2.4 0-1.5 0.5-2.9 0.5-1.4 0.5-2.9 0-1.5-0.3-2.1-0.3-0.7-0.7-1-0.4-0.4-0.7-0.7-0.3-0.3-0.3-1.1 0-0.7 0.3-1.6 0.4-1 1.1-1.9 0.6-0.8 1.4-1.3 0.9-0.6 1.7-0.6 0.7 0 0.9 0.5 0.2 0.5 0.2 1.2 0 0.6 0.1 1.1 0.1 0.6 0.6 0.6h0.2q0.1-0.2 0.3-0.3 0.3-0.2 0.3-0.3v-1.9q0 0 0.8-0.1 0.9-0.1 1.4 0 0.7 0 1.2 0.9 0.6 0.8 0.6 1.4 0 0.3-0.2 0.5-0.2 0-0.4 0.1-0.2 0.1-0.4 0.1-0.2 0.1-0.3 0.3-0.2 1-0.2 1.7 0 0.6 0 1.5v1.3q1 0.9 1.3 1.8 0.2 0.8 0.2 2.1 0 1.3 0 2.3 0 0.9-0.2 2.3h-1q0 0.8 0.1 1.3 0.2 0.5 0.4 1 0.2 0.4 0.5 0.9 0.2 0.4 0.5 1v2.3q0 1.9-0.1 3.8-0.2 1.9-0.2 3.8v3.1q0.2 0.3 0.3 0.6 0.2 0.2 0.5 0.2 0.4 0 0.7-0.3 0.2-0.2 0.4-0.6 0.1-0.4 0.1-0.8 0.1-0.4 0.1-0.7 0-0.1-0.1-0.5-0.1-0.4-0.1-0.5v-2.9-2.8q0-0.3-0.1-1 0-0.7 0.1-1.4 0.1-0.6 0.3-1.1 0.4-0.5 1-0.5 0.3 0 0.5 0.1 0.4 0 0.5 0.5v2.3q0.1 0.4 0.1 0.9 0.2 0.4 0.7 0.4 0.4 0 0.5-0.2 0-0.3 0.1-1.2 0.1-0.9 0.2-1.2 0-0.3 0.4-0.9 0.4-0.6 0.7-0.6 0.4 0 0.7 0.8 0.2 0.7 0.5 1 0 0.4 0.1 1.5 0 1 0 2.3 0.1 1.2 0.1 2.3 0.1 1.1 0.1 1.4v1q0 0.5-0.3 1.1-0.3 0.4-0.3 0.9 0 0.7 0.2 1.2 0.1 0.5 0.1 1.2 0 0.9-0.3 1.6-0.2 0.6-0.2 1.5 0 1.4 1.4 1.4 0.3 0 0.6-0.2 0.3-0.2 0.3-0.6v-13.2q0-0.9-0.2-1.7-0.3-0.9-0.3-1.8v-0.4l1.6-1.6q0 0 0.2-0.5 0.2-0.5 0.4-1 0.2-0.6 0.4-1.2 0.2-0.6 0.3-0.9v-0.9q0-2.2-0.6-4.2-0.5-2.1-0.5-4.2 0-0.9 0.2-1.4 0.3-0.6 0.5-1.2 0.4-0.7 0.6-1.4 0.3-0.7 0.3-1.8 0-0.6-0.2-1.2-0.2-0.7-0.5-1.4-0.3-0.7-0.6-1.3-0.4-0.6-0.5-1-0.1-0.2-0.4-0.6-0.4-0.3-0.4-0.5-0.2-0.8-0.3-1.5 0-0.9-0.2-1.5-0.1-0.7-0.6-1.2-0.5-0.5-1.7-0.5-0.6 0-1.1 0.2-0.4 0.1-0.9 0.1h-0.2q-0.2-0.1-0.6-0.2-0.3-0.1-0.7-0.3-0.4-0.1-0.7-0.1-0.2-0.2-0.3-0.2-0.4-0.2-0.6-0.6-0.1-0.4-0.3-0.7 0-0.4-0.2-0.7-0.1-0.3-0.5-0.3-0.4 0-0.7 0-0.4 0-0.6 0.2l-2.8 2.4q-0.9 0.1-1.7 0.3-0.6 0.2-1.5 0.2-0.7 0-1.2-0.3-0.4-0.2-1-0.2-0.9 0-1.6 0.4-0.8 0.4-1.5 0.4-2.3 0-4.3-0.8 0 0-0.4-0.1-0.3-0.2-0.6-0.4-0.3-0.2-0.7-0.4-0.3-0.2-0.3-0.2-0.1 0-0.8 0-0.5-0.1-1.5-0.2-0.9 0-1.4 0h-0.1q-1.1 0-2.4 0.2-1.2 0.2-2.2 0.8-0.9 0.6-1.4 1-0.5 0.3-1.4 0.3-0.8 0-1.3-0.2-0.5-0.2-1.1-0.5-0.5-0.3-1.1-0.6-0.7-0.2-1.7-0.2-0.2 0-0.4 0.2 0 0.2-0.1 0.4-0.2 0.3-0.4 0.5-0.1 0.3-0.4 0.4-0.3-0.1-1.1-0.4-0.7-0.2-1-0.4-0.1 0-0.6-0.1-0.4-0.1-0.4-0.1-0.3-0.1-0.5-0.5-0.2-0.4-0.4-0.7-0.2-0.4-0.4-0.6-0.2-0.3-0.4-0.3h-0.2l-1.5 0.8q-1.2 0.4-2 0.8-0.8 0.5-1.3 1.1-0.4 0.6-0.7 1.5-0.2 0.9-0.2 2.2 0 0.9 0.3 1.3 0.4 0.5 0.5 1.4v3.9q0.6 0.8 0.6 1.8 0.2 1.1 0.2 2 0 1.1-0.2 1.9 0 0.8-0.3 2.1-0.2 0.5-0.5 0.5-0.2 0.1-0.4 0.2-0.2 0-0.3 0.1-0.1 0.2-0.1 0.8 0 0.6 0.2 0.9 0.3 0.3 0.7 0.6 0.3 0.2 0.5 0.5 0.4 0.4 0.4 0.9 0 0.9-0.2 1.5-0.1 0.5-0.3 0.9-0.2 0.4-0.4 0.8-0.2 0.3-0.4 0.9-0.1 0-0.1 0.5 0.1 0.4 0.1 0.5-0.1 0.2-0.3 0.7-0.1 0.5-0.2 0.6 0 0.3 0 1.1 0 0.9-0.1 1.8 0 1 0 1.8 0 0.8 0 1.2 0 0.6 0 1.5 0 0.9 0 1.9 0.1 0.9 0.1 1.6 0 0.8 0 0.8 0 2.2 0.3 4.8 0.4 2.6 0.4 4.8 0 0.7-0.4 1.1-0.3 0.4-0.3 1zm28.6-7.2q0 0.7 0.1 1.1 0.2 0.4 0.9 0.4 0.4 0 1-0.2 0.6-0.3 0.6-0.8 0-0.6-0.8-1.1-0.7-0.5-1.2-0.5-0.5 0-0.6 0.4 0 0.4 0 0.7zm6.7-8.9q0 0.5 0.2 0.9 0.2 0.4 0.7 0.4 0.7 0 0.8-0.4 0.2-0.4 0.2-0.9 0-0.5-0.2-0.9-0.1-0.4-0.8-0.4-0.5 0-0.7 0.4-0.2 0.4-0.2 0.9zm-31.2-10.7q-0.1-1.5-0.3-3-0.2-1.6-0.2-3.1 0-1.3 0.4-2.6 0.4-1.3 0.4-2.6 0-2.8-0.7-5.6-0.6-2.7-0.6-5.4 0-0.9 0.3-1.6 0.4-0.8 1.5-0.8 1 0 1.8 0.5 0.9 0.5 1.8 0.8 2.6 0 4.6 0.2 2 0.1 4.3 0.1 1.1 0 2-0.2 1-0.3 1.9-0.5 0.9-0.3 1.9-0.6 0.9-0.3 2-0.3 1.1 0 2.2 0.3 1.1 0.3 2.1 0.6 1.1 0.2 2.1 0.5 1.1 0.2 2.2 0.2 2 0 4-0.1 2.1 0 4-0.2 0.7 0 1.2-0.2 0.6-0.3 1.2-0.5 0.6-0.4 1.2-0.6 0.6-0.2 1.2-0.2h0.4q0.1 0 0.4 0.2 0.4 0.1 0.8 0.3 0.4 0.2 0.7 0.4 0.3 0.1 0.5 0.1 0.7 0.3 1.5 0.4 0.9 0 1.6 0.1 0.4 0.2 1.1 1.3 0.6 1 1.1 2.4 0.6 1.3 1 2.6 0.4 1.3 0.4 1.8 0 1.7-0.6 3.3-0.7 1.6-0.7 3.3 0 1.9 0.4 3.7 0.4 1.7 0.4 3.5 0 1-0.3 2.2-0.2 1.1-1.3 1.4h-1.4q-0.7 0-1.5 0-0.7 0-1.4-0.2-0.6-0.2-1-0.7-0.4-0.5-0.4-1.4 0-1.3 0.3-2.5 0.2-1.2 0.2-2.5 0-1.8-0.6-3.3-0.7-1.6-0.7-3.3 0-1 0.3-2 0.3-1 0.3-2.1 0-1.6-0.9-2.5-0.8-0.9-2.1-1.3-1.3-0.4-2.8-0.5-1.5 0-2.7 0-3.1 0-4.9 2-1.8 2.1-1.8 5 0 0.8 0.2 1.4 0.3 0.7 0.5 1.3 0.2 0.7 0.4 1.3 0.3 0.6 0.3 1.3v0.7q0 0.1-0.2 0.5 0 0.3-0.1 0.8-0.1 0.4-0.2 0.8 0 0.4 0 0.5-0.2 1.3-0.2 2 0 0.8-0.1 1.4-0.1 0.6-0.5 1.1-0.5 0.5-1.6 1.2-0.1 0-0.3 0.2-0.2 0.1-0.5 0.3-0.2 0.2-0.5 0.4-0.2 0.1-0.2 0.1 0 0-0.2 0.1-0.2 0-0.4 0-1.1 0-1.6-0.7-0.4-0.7-0.6-1.6-0.2-0.9-0.3-1.9 0-1-0.1-1.6 0-0.5-0.2-0.8-0.2-0.4-0.5-0.8-0.2-0.4-0.4-0.8-0.2-0.4-0.2-0.9 0-0.7 0.3-1.3 0.3-0.6 0.5-1.1 0.3-0.6 0.6-1.2 0.3-0.6 0.3-1.3 0-1.5-0.7-3-0.6-1.5-1.6-2.8-1.1-1.3-2.5-2.1-1.4-0.8-2.9-0.8-0.7 0-1.6 0-0.9 0-1.5 0.5-0.1 0.1-0.5 0.5-0.3 0.3-0.8 0.7-0.4 0.4-0.8 0.8-0.4 0.3-0.5 0.4-0.7 0.7-1.5 1-0.6 0.3-1.1 0.7-0.5 0.3-0.7 1-0.3 0.6-0.3 2.1v0.9q0 0.1 0.1 0.8 0.1 0.5 0.2 1.3 0.1 0.7 0.1 1.3 0.1 0.6 0.1 0.7 0 0.2 0 0.9 0 0.6 0 1.4 0 0.7 0 1.3 0 0.7 0 0.9 0 0 0.1 0.4 0 0.3 0.1 0.6 0.1 0.3 0.2 0.7 0.1 0.3 0.1 0.3v1q0 0.8-0.5 1.9-0.4 1-1.6 1-0.3 0-1.1-0.3-0.7-0.4-1.6-0.8-0.8-0.5-1.5-0.9-0.6-0.4-0.7-0.6zm68.6 37q0 0.4 0.3 0.8 0.3 0.5 0.7 0.5 0.8 0 0.9-0.6 0.2-0.5 0.2-1.1 0-0.5-0.1-1 0-0.5-0.6-0.5-0.8 0-1.1 0.6-0.3 0.5-0.3 1.3zm-0.5-8.6q0 0.6 0.4 1.3 0.5 0.8 1.3 0.8 0.5 0 0.8-0.4 0.3-0.5 0.3-0.9v-0.3q0-0.1-0.2-0.5-0.2-0.4-0.3-0.5-0.1-0.5-0.1-1.7-0.1-1.2-0.2-2.5-0.1-1.3-0.1-2.5-0.1-1.2-0.1-1.7v-1.8q0-2.9 0.2-5.7 0.2-2.9 0.3-5.7 0.1-0.9 0.6-1.4 0.5-0.6 1.3-1 0.8-0.3 1.6-0.5 0.8-0.3 1.5-0.5h0.1q0.6 0 0.8 0.5 0.3 0.4 0.4 1 0 0.6 0 1.2 0 0.6 0 0.8v2q-0.2 0.1-0.4 0.6-0.2 0.5-0.2 0.7 0 0.4 0.5 0.9 0.6 0.4 0.9 0.4 0.6 0 1.2-0.4 0.6-0.4 0.6-1.1 0-0.7-0.8-1.4v-5.7q0-0.5 0.5-0.5 0.5 0 0.7 0 0.4 0 1.2 0.4 1 0.3 1.8 0.9 0.9 0.5 1.6 1.1 0.7 0.6 0.9 0.9 0.3 0.6 0.3 1.5 0 0.9 0 1.4 0 2.3-0.3 4.6-0.2 2.2-0.2 4.5-0.2 0.1-0.4 0.5-0.1 0.4-0.1 0.5v0.3q0 0.5 0.3 0.8 0.4 0.4 1 0.5 0 0 0.1-0.1 0.2-0.1 0.4-0.2 0.1-0.1 0.5-0.5 0.4-0.4 0.5-0.5v-0.1q0-1.2-0.2-2.4-0.3-1.2-0.3-2.4 0-2.4 0.3-4.7 0.3-2.2 0.2-4.7 0.2-0.3 0.7-0.5 0.4-0.3 0.9-0.5 0.6-0.3 1.1-0.4 0.5-0.2 0.7-0.2 0.4 0 0.4 0.3 0.1 0.3 0.4 0.5 0.1 0.2 0.7 0.9 0.6 0.6 0.8 0.7h0.2q0.4 0 0.5-0.3 0.1-0.4 0.1-0.7 0-1-0.2-1.5-0.1-0.6-0.3-0.9-0.2-0.4-0.5-0.7-0.2-0.3-0.3-0.9-0.1-0.5-0.2-1.6 0-1.1 0-1.8 0-0.4 0-0.7 0-0.3 0.5-0.3h0.2q0.2 0.2 0.6 0.5 0.3 0.4 0.5 0.6 0.4-0.2 0.4-0.4 0.1-0.2 0.1-0.5 0-0.8-0.4-1.2-0.4-0.5-0.6-1.1-0.6-1.5-1-2.9-0.3-1.5-0.3-3.4 0-0.2 0-0.3 0-0.1 0.2-0.4 0.8 0.2 1.2 0.1 0.4-0.1 0.4-0.8 0-1.2-0.1-2.6 0-1.4-0.7-2.4-0.1-0.1-0.5-0.5-0.5-0.4-0.5-0.5v-0.5q0-1.5 0.3-2.8 0.4-1.4 0.4-2.8 0-1.2-0.2-2-0.2-0.8-0.5-1.8v-0.3q0-0.5 0.1-0.9 0.3-0.4 0.6-0.7 0.3-0.3 0.6-0.5 0.2-0.3 0.2-0.5 0-0.4-0.2-1-0.2-0.5-0.6-0.9-0.2-0.5-0.6-0.9-0.3-0.4-0.4-0.6-0.1-0.2-0.6-0.5-0.4-0.4-0.8-0.9-0.5-0.4-0.9-0.8-0.4-0.5-0.6-0.6-0.4-0.3-1.1-0.3-0.6 0-1.1 0-0.3 0-1 0.1-0.5 0-1.2 0.1-0.6 0.1-1.2 0.3-0.5 0.2-0.6 0.6-0.1 0.1-0.1 0.6 0.1 0.5 0.1 0.7-0.1 0.1-0.3 0.6-0.1 0.5-0.2 0.7-0.5 0.9-1.1 1.5-0.5 0.7-0.5 1.8 0 1 0.4 1.9 0.4 1 0.4 1.9 0 0.5-0.5 1.1-0.4 0.6-0.9 0.6-0.6 0-1-0.1-0.3-0.2-0.8-0.2-0.8 0-1.4 0.5-0.4 0.5-1.1 0.6 0 0-0.4 0-0.3 0-0.7 0.1-0.4 0-0.9 0.1-0.4 0-0.6 0h-0.4q-1 0-1.1-0.3 0-0.4-0.1-0.8 0-0.5-0.4-0.8-0.5-0.4-2.3-0.4-0.5 0-1.3 0.2-0.7 0.2-1.6 0.5-0.8 0.3-1.4 0.8-0.7 0.4-0.8 0.8-0.1 0.2-0.1 0.6 0.1 0.4 0.1 0.5l-0.3 0.2q-0.3 0.4-1.1 1-0.6 0.5-0.7 0.6-0.7 0.5-1.5 0.8-0.7 0.2-1.4 0.6-0.6 0.4-1.1 1.1-0.4 0.6-0.4 1.7 0 0.5 0.1 0.9 0.2 0.5 0.2 1 0 1.1-0.3 1.8-0.3 0.7-0.6 1.3-0.2 0.6-0.5 1.2-0.3 0.6-0.3 1.4 0 0.5 0.2 0.9 0.2 0.4 0.4 0.8 0.2 0.3 0.4 0.7 0.1 0.4 0.1 1 0 0.3 0 0.9 0.1 0.5-0.2 0.8-0.4 3.9-0.7 7.3-0.3 3.4-0.3 7.1v2q0.2 0.8 0.9 0.8 0.6 0 0.7-0.4 0.2-0.4 0.2-0.9v-0.8q0-0.1-0.2-0.5-0.1-0.4-0.1-0.6 0 0 0.1-0.3 0.2-0.4 0.2-0.4v-3.2l0.6-0.7v-3.4q0-0.3 0.3-0.5 0.4-0.3 0.6-0.3 0.7 0 1 0.7 0.3 0.7 0.6 1.1 0.1 0.2 0.7 0.9 0.7 0.6 0.8 0.7 0.4 0.3 1.4 0.7 1.1 0.3 2.1 0.6 1.1 0.4 1.9 0.7 0.9 0.3 0.9 0.6l-0.1 6.5v1q-0.1 0.4-0.2 1.3 0 0.9-0.1 2-0.1 1-0.1 1.9 0 0.9 0 1.3 0 0.2 0 1.1 0.1 0.9 0.2 1.9 0.1 1.1 0.2 2 0.1 0.8 0.1 1v1q0 0.7-0.3 1.2-0.2 0.5-0.2 1.2zm8.3-7.9q0 0.5 0.3 1.1 0.3 0.5 1 0.5 0.6 0 0.8-0.4 0.3-0.5 0.3-1 0-0.6-0.4-1-0.3-0.4-1-0.4-0.5 0-0.7 0.4-0.3 0.3-0.3 0.8zm-16.9-23.6v-6.5q-0.2-0.5-0.3-0.9 0-0.4 0-1 0-0.2 0.2-1.4 0.2-1.2 0.4-2.6 0.3-1.4 0.5-2.5 0.2-1.2 0.2-1.2 0.7-0.9 1.7-1.4 1.1-0.5 2-1.2 0.6-0.5 1-1.1 0.5-0.7 1-1.2 0.5-0.6 1.1-0.9 0.6-0.4 1.5-0.4 0.7 0 1.3 0.3 0.6 0.2 1.2 0.6 0.6 0.3 1.3 0.6 0.7 0.3 1.4 0.3 0.2 0 0.8-0.1 0.7-0.1 1.1-0.2 0.3 0 1.1-0.2 0.8-0.2 1.7-0.4 0.9-0.2 1.7-0.4 0.9-0.2 1.2-0.3 0.9-0.2 1.4-1.1 0.6-0.9 0.7-1.7v-4.5q0-0.5 0.2-1.3 0.3-0.7 0.7-1.4 0.4-0.7 0.9-1.2 0.6-0.5 1.3-0.5 0.4 0 1 0.3 0.6 0.2 1.1 0.6 0.6 0.4 0.9 0.8 0.4 0.5 0.4 0.9v9.1q-0.3 1-0.3 1.8 0 0.8 0 1.8 0 1.4 0.5 2.7 0.6 1.1 0.6 2.6 0 1.3-0.6 2.6-0.6 1.1-0.6 2.5 0 1.4 0.4 2.6 0.5 1.2 0.5 2.5 0 1-0.2 1.7-0.1 0.7-0.3 1.4-0.2 0.6-0.4 1.4 0 0.7 0.1 1.6-0.2 0.4-0.8 0.8-0.4 0.3-1 0.6-0.6 0.3-1.2 0.4-0.6 0.1-1 0.1-0.8 0-1.4-0.2-0.7-0.4-1.3-0.7-0.7-0.4-1.5-0.6-0.7-0.4-1.7-0.4h-1.3q-0.1 0-0.5 0.2-0.3 0.1-0.8 0.2-0.4 0.2-0.8 0.3-0.4 0.1-0.5 0.1-0.1 0-0.5 0.1-0.3 0-0.8 0.1-0.4 0-0.8 0.1-0.4 0-0.5 0-1 0.1-1.9 0.6-0.9 0.5-2 0.5-1.1 0-2.8-0.6-1.6-0.6-2.6-1.3-0.1-0.1-0.9-0.7-0.8-0.7-1.2-1.1-0.1-0.1-0.6-0.2-0.4-0.2-0.8-0.4-0.5-0.2-0.9-0.5-0.3-0.2-0.3-0.5zm6-9.7q0 2.3 0.3 4.3 0.3 1.8 1.2 3.2 1 1.3 2.6 2 1.7 0.7 4.3 0.7 1.6 0 3.4-0.2 1.8-0.1 3.2-0.8 1.4-0.6 2.3-1.8 0.9-1.3 0.9-3.3 0-0.3 0-0.8 0-0.5 0-0.6 0-0.1-0.2-0.5-0.2-0.5-0.3-0.9-0.2-0.5-0.4-0.9-0.2-0.4-0.2-0.6-0.2-1.6-0.2-2.9 0-1.4-0.3-2.5-0.3-1-1.4-1.6-0.9-0.6-3.3-0.6-0.2 0-0.7 0.1-0.5 0-0.6 0-0.1 0-0.6 0.1-0.4 0.2-0.9 0.3-0.6 0.1-1 0.3-0.5 0.1-0.6 0.1-0.1 0-0.6 0-0.4 0-0.9 0.1-0.6 0.1-1 0.1-0.5 0-0.6 0-2.4 0.6-3.5 2.6-0.9 1.9-0.9 4.1zm5.4 6.9q0 0-0.4 0.1-0.3 0.1-0.3 0.1h-0.2q-0.3 0-0.6-0.3-0.4-0.4-0.7-0.8-0.2-0.6-0.4-1-0.2-0.5-0.2-0.7 0-0.1 0.2-0.4 0.3-0.4 0.3-0.4 0 0 0-0.3 0.1-0.2 0.1-0.4 0-0.8-0.6-1.4-0.5-0.6-0.5-1.4v-0.2q0.3-0.8 0.4-1.3 0.2-0.6 0.4-1 0.3-0.5 0.6-0.8 0.5-0.5 1.4-1 0.4-0.3 0.7-0.4 0.2-0.1 0.6-0.1 0.9 0 1.1 0.7 0.1 0.8 0.2 1.6 0.1 0.8 0.1 1.4 0.1 0.6 0.7 0.4 0.1 0 0.4-0.3 0.3-0.3 0.4-0.5-0.1-0.8-0.1-1.6 0-0.8 0.2-1.3 0.3-0.6 0.8-1 0.6-0.3 1.7-0.3 0.4 0 0.9 0.2 0.7 0.1 1.3 0.4 0.6 0.3 1 0.7 0.5 0.4 0.5 0.9 0 0.4-0.4 0.5-0.3 0.2-0.7 0.2v1.7q0 1.3 0.2 2 0.4 0.7 0.7 1.2 0.3 0.5 0.6 1.1 0.3 0.4 0.3 1.2 0 1.2-0.9 1.9-0.9 0.6-2.1 1-1.2 0.3-2.5 0.5-1.3 0.1-2.1 0.1-1 0-1.6-0.5-0.6-0.4-1.5-0.5zm60.2 28.3q0 1.1 1.2 1.1 1.1 0 1.1-1.1 0-1.1-1.1-1.1-1.2 0-1.2 1.1zm-24.8-0.7q0 1 1.2 1 0.5 0 0.8-0.4 0.3-0.3 0.3-0.8 0-0.5-0.3-0.8-0.2-0.3-0.2-0.8 0-0.7 0.1-1.3 0.1-0.7 0.1-1.4v-0.5q0-0.1-0.1-0.4-0.1-0.3-0.1-0.4 0-0.1 0-0.5 0-0.3 0.1-0.8 0.1-0.5 0.1-0.8 0-0.4 0-0.5v-5.2q0-0.5 0.2-1.2 0.3-0.8 0.9-1.1 0-0.1 0.5-0.2 0.4 0 0.5-0.1 0.9-0.5 1.4-1.2 0.6-0.6 1.8-0.6 0.3 0 0.6 0 0.4 0 0.6 0.2 0.1 0.3 0.3 1.2 0.2 0.9 0.3 1.2v0.1 0.1q0 0.4-0.1 1.9 0 1.4-0.1 3.1 0 1.7-0.1 3.1 0 1.4 0 1.8v0.8q0 0.5 0.2 0.9 0.2 0.4 0.8 0.4 0.2 0 0.5-0.1 0.3-0.1 0.3-0.4v-15.4q0-0.4 0.5-0.7 0.6-0.3 0.8-0.3h3.1q0.9 0 0.9 0.7 0 0.7 0.2 1.1 0.2 0.7 0.5 1.2 0.3 0.4 0.5 0.8 0.2 0.5 0.3 1.1 0.1 0.5 0 1.3 0 0.4 0.3 0.4 0.3-0.1 0.5-0.1 0.5 0 0.6-0.1 0.1-0.2 0.1-0.7v-0.5q0-0.1-0.1-0.5-0.1-0.4-0.1-0.5 0-0.4 0.5-0.9 0.5-0.4 0.9-0.4 0.7 0 1.2 0.2 0.5 0.3 1 0.3 0.9 0 1.5-0.6 0.7-0.7 1.4-0.7v9.1l-0.3 0.8q-0.1 0.1-0.3 0.6-0.2 0.5-0.2 0.7-0.1 0.4 0.4 0.8 0.6 0.5 0.9 0.5 0.8 0 1-1 0.3-1 0.3-1.6 0-2.3-0.1-4.7-0.2-2.4-0.2-4.7 0-1.1 0.2-2 0.1-1 0.1-2v-0.4q-0.1-0.1-0.4-0.2-0.3-0.1-0.4-0.1v-4.4l-0.8-1.6v-4.1q0.4-0.3 1.1-0.9 0.8-0.7 0.8-1.5v-4.6q0-0.1-0.2-0.3-0.2-0.2-0.4-0.3-0.6-0.3-0.8-0.6-0.2-0.3-0.3-0.7-0.2-0.3-0.3-0.6-0.1-0.4-0.4-0.9-0.7-1.2-1.9-2.4-1.1-1.3-1.7-2-0.4-0.8-0.8-1.3-0.4-0.6-1.2-0.6-0.4 0-0.8 0.2-0.3 0.2-0.6 0.5-0.3 0.2-0.6 0.4-0.3 0.2-0.7 0.2-0.7 0-1.4-0.5-0.7-0.5-1.2-0.8-0.9-0.3-1.8-0.5-0.9-0.2-1.8-0.2-0.8 0-1.7 0-1 0.1-1.7 0.2-0.5 0.1-0.7 0.5-0.2 0.4-0.8 0.4-0.3 0-0.5-0.2-0.2-0.2-0.4-0.4-0.1-0.2-0.3-0.4-0.2-0.2-0.4-0.2-0.1 0-0.2 0.1-0.1 0-0.1 0-0.1 0-0.5 0.5-0.4 0.4-0.5 0.5-1 0.7-2.1 0.9-1.2 0.2-2.1 0.9-0.1 0.1-0.5 0.5-0.4 0.3-0.8 0.7-0.5 0.4-0.9 0.8-0.3 0.3-0.4 0.4-0.8 0.5-1.4 0.5-0.5 0-1.5 0.2-0.3 0.2-0.3 0.5 0.1 0.3 0.1 0.5 0 0.3 0 0.6 0 0.3 0.2 0.5 0.3 0 1.1 0.2 0.7 0 1 0.1 0.1 0 0.4 0.2 0.3 0.2 0.4 0.3 0.1 0.1 0.3 0.2 0.1 0.1 0.2 0.1 1.3 0.4 2.2 0.7 0.9 0.2 1.3 0.6 0.5 0.4 0.7 1.3 0.2 0.9 0.2 2.6v1q-0.2 0.1-0.7 0.3-0.6 0.2-0.8 0.2-0.2 0-0.5 0.2-0.3 0-0.7 0.1-0.4 0-0.8 0.2-0.3 0-0.4 0-0.1 0.1-0.7 0.6-0.7 0.4-0.8 0.5-0.2 0-0.8 0-0.7 0-0.8 0-0.4 0-0.9 0.4-0.5 0.4-1 0.9-0.6 0.5-1 1.1-0.5 0.6-0.7 1 0 0.2-0.1 0.6 0 0.4-0.1 0.9 0 0.5-0.1 1 0 0.4 0 0.6v0.2q0 0.3 0 0.4 0.1 0.2 0.3 0.4 0 0.2 0 0.7 0.1 0.6 0.1 1.1 0.1 0.6 0.1 1.1 0 0.6 0 0.8v0.4q0 1.8 0 3.8-0.1 1.9-0.5 3.8 0 0.1-0.1 0.4-0.1 0.3-0.1 0.4 0 0.4 0.3 0.8 0.4 0.3 0.8 0.3 0.9 0 1-0.7 0.2-0.8 0.2-1.4v-1.1q0-0.3-0.1-1.6-0.2-1.3-0.3-2.8-0.1-1.5-0.3-2.8-0.1-1.3-0.1-1.6v-0.1-0.2q0-0.2 0.3-0.2h0.1 0.1q0.3 1.7 1.3 3 1.1 1.1 2.4 2.1 1.3 0.9 2.6 1.8 1.3 0.9 2.3 2.2-0.1 1.5 0.1 2.2 0.2 0.8 0.2 2.1 0 1.5-0.3 3.1-0.2 1.5-0.2 3.1v0.1q0 0.2 0.1 0.5 0.1 0.4 0.1 0.6v0.2q0 0.7-0.1 1.4-0.1 0.6-0.1 1.3zm-7.3-26.5q0-1.3 0.8-2.2 0.9-0.9 2.2-1.4 1.2-0.6 2.5-0.9 1.4-0.4 2.3-0.8 1.5-0.6 2.6-1.3 1.1-0.8 2.8-0.8h1.3q0.3 0 0.3 0.3v0.1 0.1q-0.7 1-1.8 1.7-1.1 0.7-2.2 1.6-1 0.8-1.8 1.9-0.7 1-0.7 2.4 0 1.3 0.6 2.3 0.6 0.8 1.6 1.4 1 0.6 2.1 1 1.2 0.4 2.2 0.7-0.4 0.3-1.1 0.6-0.7 0.3-1.6 0.6-0.8 0.3-1.5 0.7-0.8 0.2-1.3 0.5h-0.7q-0.8 0-1.2-0.1-0.4-0.2-0.9-0.7-0.9-0.7-2-1.5-1.1-0.8-2.2-1.7-1-0.9-1.7-2-0.6-1.1-0.6-2.5zm20.7 3.4q0-0.4 0.3-1 0.4-0.5 0.7-1 0.5-0.6 0.8-1.2 0.4-0.6 0.4-1.3 0-1.2-0.6-2.2-0.6-1-1.3-1.8-0.7-0.8-1.3-1.2-0.5-0.6-0.5-0.7 0-0.3 0.7-0.7 0.7-0.5 1.6-1.1 0.9-0.7 1.6-1.7 0.8-1 0.8-2.5 0-1.8-1.2-2.7-1.1-1-2.8-1.4-1.7-0.5-3.4-0.5-1.8-0.2-2.9-0.2-1.8 0-3 0.5-1.1 0.4-2.8 1.3h-0.8q-0.5 0-0.9 0-0.5 0-0.5-0.6 0-0.1 0-0.2 0.1-0.1 0.1-0.2 0.8-1.2 2.2-1.9 1.4-0.7 2.9-1 1.5-0.3 3.1-0.4 1.6-0.1 2.9-0.1 1.2 0 2.3 0.2 1.2 0.2 2.4 0.5 1.2 0.2 2.3 0.4 1.2 0.2 2.4 0.2 0.6 0.2 1.6 1.4 1 1.1 1.9 2.5 1 1.4 1.6 2.8 0.7 1.4 0.7 2.2 0 1.2-0.7 2.4-0.6 1.1-0.9 2.2 0 0.3-0.1 1.1 0 0.8 0 1 0 2.2 0.4 4.3 0.5 2.1 0.5 4.3v1.3q-0.2 0.1-0.4 0.3-0.3 0.2-0.4 0.2h-4.2q-0.7-0.6-1.2-1-0.5-0.5-1-0.8-0.5-0.3-1.1-0.6-0.6-0.2-1.3-0.4-0.6-0.2-0.8-0.2-0.1 0-0.1-0.5zm-4.3 0.4l-3.9-0.8q-0.9-0.6-1.7-1.2-0.8-0.6-0.8-1.8 1 0 1.4-0.5 0.5-0.5 0.7-1.1 0.2-0.6 0.4-1.2 0.3-0.5 1.1-0.5v3.2l0.4 0.3q0.6-0.3 0.7-0.6 0.1-0.2 0.1-0.7 0-0.7-0.1-1.4-0.2-0.8-0.2-1.5 0-0.4 0.4-0.6 0.4-0.2 0.9-0.2 0.6-0.2 1.1-0.2 0.5 0 0.8 0h1q0.1 0 0.3 0.4 0.1 0.2 0.3 0.7 0.2 0.4 0.3 0.8 0.2 0.4 0.4 0.7 0.1 0.2 0.4 0.6 0.4 0.5 0.4 0.8v0.1q-0.3 0.8-0.9 1.3-0.7 0.4-1.2 1.1-0.2 0.2-0.4 0.6-0.2 0.5-0.5 0.9-0.2 0.3-0.6 0.7-0.3 0.2-0.8 0.1zm-7.1-17.9q0.6-0.9 1.9-1.3h1.5q0.5 0 2 0 1.6 0.1 3.2 0.3 1.6 0.2 2.9 0.6 1.3 0.4 1.3 1 0 0.7-0.3 1.2-0.2 0.4-0.8 1-1 1.3-2.4 1.5-1.5 0.2-3 0.3-0.5-0.4-1.1-0.5-0.6-0.2-1.1-0.2-1.1 0-2.3 0.4-1.2 0.3-1.8 1.4h-0.3q0-1.4 0.1-2.9 0.1-1.5 0.2-2.8zm51.3 42.6v0.1q0 0.5 0.3 0.7 0.4 0.2 0.8 0.2 0.4 0 1.1-0.3 0.6-0.3 0.6-0.8v-0.2q-0.1-0.1-0.2-0.6-0.2-0.5-0.3-0.7 0-0.4-0.1-1.5 0-1.1-0.1-2.4 0-1.2-0.1-2.3 0-1.1 0-1.6v-4.3-4q0-0.2 0-0.6 0.1-0.4 0.1-0.8 0.1-0.5 0.1-0.8 0.1-0.3 0.1-0.4 0 0 0.2-0.4 0.2-0.3 0.4-0.6 0.3-0.3 0.5-0.6 0.2-0.3 0.2-0.5 0 0 0-0.4 0.1-0.4 0.1-0.6 0-0.1-0.1-0.5 0-0.4 0-0.5-0.3-0.5-1.2-0.8-0.8-0.2-1.8-0.4-0.9-0.3-1.7-0.5-0.7-0.3-0.8-0.7 0 0 0.2-0.4 0.1-0.3 0.1-0.4v-0.4q0-0.6-0.8-1.1-0.8-0.5-1.3-0.5-0.4 0-0.7 0.1-0.3 0.1-0.7 0.1 0-0.3-0.1-1-0.1-0.8 0-1.1 0-0.3 0.3-0.7 0.2-0.3 0.5-0.6 0.3-0.3 0.5-0.7 0.2-0.3 0.2-0.7 0-0.2-0.2-0.6-0.3-0.4-0.6-0.8-0.3-0.5-0.6-0.9-0.1-0.5-0.1-1.1 0-0.8 0.6-1.2 0.7-0.4 1.2-1-0.4-1.2 0.1-2.4 0.5-1.3 1.2-2.3 0.7-0.5 1-0.6 0.4-0.1 1-0.1 0.1 0 0.6 0 0.5 0 0.5 0.2v9.1q-0.1 0.2-0.3 0.8-0.2 0.6-0.2 0.8v0.1q0 0.4 0.4 0.8 0.4 0.4 0.7 0.4 0.6 0 0.9-0.5 0.3-0.5 0.3-1 0-1.9-0.1-3.8-0.1-1.9-0.1-3.8 0-1.1 0.5-1.9 0.5-0.9 0.5-1.9 0-0.8-0.4-1.2-0.3-0.5-0.6-1.3-0.4-0.9-0.8-1.6-0.2-0.7-1.5-0.7-0.7 0-1.4 0.1-0.7 0.2-1.5 0.2-0.5 0-0.9-0.3-0.4-0.3-0.7-0.8 0.3-1 0.5-1.9 0.3-1 0.3-2.1 0-0.7 0-1.6 0.1-1.1-0.5-1.4-1.9-0.9-3.5-2.2-1.6-1.4-3.6-2 0 0-0.4 0-0.2 0-0.3 0-0.2 0-0.4 0-0.3 0-0.4 0l-1.8 1.9q-0.2 0.1-0.4 0.4-0.2 0.3-0.2 0.3 0 0.2 0.1 0.5 0.1 0.3 0.2 0.3l-1.3 2.6h-1.8v3.1q-0.7 1-1 1.9-0.3 0.8-0.1 2-1.1 0.8-2.1 1-1.1 0.3-2 1.4h-0.2-0.1q-0.1 0-0.3-0.1-0.1-0.2-0.2-0.2h-0.1-0.2q0 0.8-0.4 1.3-0.3 0.4-0.3 1.1 0 0.5 0.2 0.9 0.3 0.4 0.3 1 0 4.6-0.2 9.2-0.1 4.6-0.1 9.3 0 0.9 1 0.9 1.1 0 1.1-1.1v-0.5q0-0.8-0.1-3 0-2.3 0-4.8-0.1-2.4-0.2-4.7 0-2.2 0-3.1 0-0.2-0.2-1 0-0.8 0-1.1v-0.2q0-0.3 0-0.7 0.2-0.5 0.5-0.6 0.5 0.3 1.4 0.6 1 0.2 1.8 0.6 1 0.4 1.6 1 0.7 0.6 0.7 1.4 0 0.9-0.4 1.8-0.2 0.8-0.2 1.7 0 0.2 0 0.6 0 0.3 0 0.3l1.3 1.3q0.1 0.1 0.1 0.6 0.1 0.4 0.1 0.6 0 0.8-0.3 1.3-0.3 0.5-0.6 0.8-0.2 0.3-0.6 0.7-0.2 0.4-0.2 1v4.7q0 0.5-0.1 2 0 1.5-0.1 3.2 0 1.7 0 3.1-0.1 1.5-0.1 2.1 0.1 0.1 0.1 0.5 0.2 0.4 0.2 0.5v0.1 0.2q-0.1 0.1-0.3 0.7-0.2 0.7-0.2 0.8v0.2q0 0.5 0.3 0.8 0.5 0.3 1 0.3 0.5 0 0.7-0.5 0.3-0.5 0.3-1 0-2.7-0.3-5.3-0.2-2.7-0.5-5.4v-0.8q0-0.4 0-0.8 0.1-0.3 0.6-0.3 0.1 0 0.1 0.1 0.1 0 0.1 0l1.6 3.1q0.3 0.8 1.3 1 0.9 0.1 1.5 0.6 0.1 0.1 0.8 0.7 0.6 0.7 0.8 0.8 0.6 0.5 1.1 0.9 0.6 0.3 0.9 0.6 0.4 0.3 0.6 0.9 0.3 0.4 0.5 1.3-0.1 1.5-0.3 2.9-0.2 1.4-0.2 2.8 0 0.4 0.2 0.9 0.3 0.4 0.8 0.4 0.7 0 0.9-0.7 0.2-0.7 0.2-1.1 0-1.9-0.2-3.6-0.1-1.8-0.1-3.7 0-0.2 0-0.4 0-0.1 0.3-0.4 0.5-0.6 0.9-0.9 0.5-0.4 0.9-0.6 0.4-0.2 0.8-0.3 0.5 0 1.3 0 1.2 0 1.6 0.2 0.4 0.2 0.4 1.6 0 2-0.2 4-0.3 2-0.3 4 0 0.5 0 0.7 0 0.3 0.3 0.7v7.5q-0.1 0.1-0.3 0.7-0.2 0.5-0.2 0.6zm-18.5-0.5q0 0.5 0.3 1 0.3 0.3 0.9 0.3 0.5 0 0.7-0.3 0.2-0.4 0.2-0.9 0-0.4-0.2-0.9-0.1-0.5-0.7-0.5-0.6 0-0.9 0.4-0.3 0.4-0.3 0.9zm10.7-4.6q0 0.6 0.4 0.9 0.5 0.4 1 0.4 0.7 0 0.9-0.6 0.3-0.6 0.3-1.2 0-0.4-0.3-0.9-0.3-0.5-0.8-0.5-0.7 0-1.2 0.6-0.3 0.6-0.3 1.3zm-10.4-2q0 1.1 1 1.1 1 0 1-0.9 0-1.2-1-1.2-1 0-1 1zm10.4-13.7q-3.8-2.2-6.8-5.7-0.3-0.4-0.5-0.9 0-0.6 0-1.1 0-1.5 0.6-2.8 0.7-1.5 0.7-3v-0.8q0-0.1-0.2-0.5-0.1-0.4-0.2-0.9-0.1-0.5-0.3-0.9-0.1-0.4-0.1-0.6-0.1-0.9-0.1-1.8 0-1-0.2-1.9 0-0.8-0.4-1.5-0.4-0.8-1.4-1.5-0.6-0.4-1.4-0.7-0.7-0.2-1.2-0.9v-0.1-0.1q1-0.9 1.5-1.5 0.6-0.5 1.1-1.4 0.3-0.5 0.9-2.1 0.7-1.7 1.5-3.5 0.7-1.8 1.6-3.2 0.8-1.4 1.6-1.4 0.7 0 1.4 0.3 0.7 0.3 1.3 0.9 0.7 0.5 1.2 1.1 0.6 0.6 0.9 1.1-0.1 1-0.1 2.6-0.1 1.7 0.4 2.9 0.4 1 1.2 1.5 0.9 0.5 1.8 0.8 1 0.2 1.7 0.4 0.7 0.2 0.7 0.6 0 0.3-0.6 0.4-0.5 0.1-0.7 0.2-1 0.5-2 1.1-0.9 0.7-1.3 1.8-0.3 0.5-0.7 1.5-0.3 0.9-0.7 1.8-0.3 0.8-0.5 1.5-0.2 0.6-0.2 0.6v9.1q0 0.5 1.1 1.6 1.2 1 2.6 2 1.5 1 2.6 1.9 1.2 0.9 1.2 1.2v0.1q0 0.2-0.2 0.2-0.2 0-0.6 0.1-0.4 0-0.9 0.1-0.4 0-0.8 0-0.4 0.1-0.6 0.1-0.5 0.1-1 0.3-0.6 0.3-1.1 0.5-0.4 0.3-1 0.6-0.4 0.2-0.9 0.2h-0.2q-0.1 0-0.4-0.1-0.2-0.1-0.3-0.2zm27.3 15.5q0 0.4 0.3 0.9 0.3 0.5 0.8 0.5 0.4 0 0.8-0.5 0.5-0.5 0.5-0.9 0-4.4-0.5-8.5-0.4-4.3-0.5-8.6-0.3-0.3-1.1-0.6-0.8-0.3-0.8-0.7v-4.6q0-0.1 0.1-0.2 0.1-0.2 0.2-0.4 0.1-0.2 0.6-0.9 0.6-0.7 0.7-0.9v-5.4q-0.1-0.1-0.3-0.4-0.1-0.3-0.3-0.6-0.1-0.4-0.3-0.7-0.2-0.3-0.2-0.4v-0.9q0-0.8 0.2-1.6 0.1-0.8 0.1-1.5 0-1.3-0.6-2.6-0.7-1.3-0.7-2.6 0-0.4 0.1-0.7 0.2-0.3 0.2-0.6v-0.4q-0.4-0.4-1-0.9-0.6-0.7-1.1-1-0.5-0.2-0.9-0.3-0.3 0-0.5-0.1-0.2-0.1-0.4-0.3 0-0.2 0-0.8 0-1.5 0.4-2.2 0.5-0.8 1.1-1.3 0.6-0.5 1.1-0.9 0.5-0.4 0.5-1.3 0-3-2.1-4.7-2-1.6-4.8-1.6-0.2 0-0.8 0-0.7 0-0.9 0-1.1 0.7-1.6 1.5-0.5 0.6-0.5 1.9 0 1.7 0.8 2.6 0.9 0.9 1.9 1.4 1 0.6 1.9 0.9 1 0.3 1.1 0.8 0.2 0.7 0.2 1.3 0.1 0.6 0.1 1.3v1.1q-0.1 0.4-0.6 0.4-0.4 0.1-0.8 0.1-0.5 0-0.9 0.2-0.4 0.1-0.6 0.6 0 0 0.2 0.2 0.1 0.2 0.1 0.3v0.2 0.3q-0.3 0.2-1.1 1-0.8 0.8-1 1.1 0 0-0.4 0.9-0.2 0.8-0.3 1.2-0.2 0.3-0.4 0.8-0.3 0.5-0.6 1-0.2 0.6-0.4 1-0.2 0.5-0.2 0.7v0.6q0 0.7 0.1 1.8 0 1.2 0.1 2 0 0.8 0 0.9l1.9 1.8q0 0 0 0.3 0 0.3 0 0.4 0 0.6 0 0.9 0 0.3-0.3 0.8-0.1 0-0.3 0.4-0.2 0.3-0.5 0.6-0.2 0.3-0.5 0.7-0.2 0.3-0.3 0.3-0.2 0.4-0.4 1.5-0.2 1.1-0.3 2.3-0.2 1.2-0.2 2.4-0.1 1.1-0.1 1.6v1.6q0.1 0.3 0.4 0.7 0.3 0.3 0.6 0.3 0.2 0 0.4 0 0.3 0 0.3-0.2v-3.6q0.7 0 1.3 0.5 0.6 0.5 1.2 1.2 0.6 0.6 1.2 1.3 0.7 0.6 1.6 0.8 0.1 0.3 0.2 1.2 0.1 0.9 0.1 1.2v6q0.4 0.5 0.9 0.5h0.1l0.8-0.8v-6.2q0-0.1 0-0.5 0-0.3 0.1-0.6 0.1-0.4 0.3-0.7 0.2-0.3 0.5-0.3 0.5 0 0.8 0.2 0.3 0.3 0.8 0.3 0.6 0 1-0.5 0.5-0.5 1.1-0.5h0.1q0.1 0.7 0.1 2.7 0.1 1.9 0.3 4 0.1 2.2 0.2 4.1 0.1 1.9 0.2 2.7v0.1q0 0.5-0.3 0.8-0.3 0.3-0.3 0.8zm-14.2-9q0 0.5 0.3 1 0.3 0.4 0.8 0.4 0.5 0 0.7-0.4 0.3-0.3 0.3-0.7 0-0.6-0.3-0.9-0.3-0.5-0.8-0.5-0.4 0-0.7 0.3-0.3 0.3-0.3 0.8zm3.3-12.3q0-1 0.4-1.8 0.3-0.8 0.7-1.6 0.4-0.9 0.7-1.7 0.3-0.9 0.3-1.8 0-0.9-0.3-1.6-0.2-0.8-0.5-1.5-0.3-0.7-0.6-1.4-0.1-0.8-0.1-1.6 0-1 0.3-2.5 0.4-1.6 1.1-3.1 0.7-1.5 1.6-2.6 0.9-1.1 2-1.1 0.9 0 1.4 0.7 0.5 0.6 0.7 1.4 0.3 0.8 0.3 1.7 0 0.8 0.1 1.4 0.2 1.9 0.2 3.1 0 1.3 0.3 2.9 0 0.1 0.1 0.7 0.2 0.4 0.3 1 0.1 0.6 0.3 1.1 0.1 0.5 0.1 0.6v0.7q0 0.9-0.2 1.8-0.2 0.9-0.5 1.7-0.2 0.8-0.4 1.7-0.2 0.8-0.2 1.8 0 0.9 0.1 1.8 0.1 0.8 0.1 1.7 0 0.9-0.8 1.1-0.8 0.2-1.6 0.2-0.7 0-1.7-0.5-1-0.5-1.9-1.2-0.9-0.7-1.6-1.6-0.7-0.8-0.7-1.5zm1.6-34.2q0-0.8 0.4-0.9 0.4-0.2 1-0.2 1.3 0 2.3 0.7 1 0.6 1 2 0 0.6-0.2 0.9-0.2 0.3-0.8 0.3-0.5 0-1.2-0.2-0.6-0.3-1.1-0.7-0.6-0.4-1-0.9-0.4-0.5-0.4-1zm29.7 63.8q0 0.5 0.3 0.9 0.3 0.3 0.9 0.3 0.5 0 0.9-0.5 0.5-0.5 0.5-1 0-4.8-0.3-9.5-0.2-4.6-0.2-9.4 0-1.2 0.5-2 0.5-0.8 1.4-1.3 0.8-0.5 1.8-0.6 1.1-0.2 2.1-0.2h0.2q0 0.1 0.1 0.3 0.1 0.2 0.1 0.2v3.7q0 0.4 0.2 1 0.2 0.5 0.7 0.5 0.8 0 0.9-1v-2.9q0 0 0.1-0.2 0.1-0.2 0.2-0.3 0.1-0.1 0.8-0.8 0.6-0.6 0.8-0.7 0.2-0.4 0.4-0.9 0.3-0.6 0.6-1 0.3-0.5 0.7-0.9 0.5-0.4 1.1-0.4 0.4 0 0.6 0.4 0.3 0.4 0.3 1 0.2 0.5 0.2 1.1 0 0.5 0 0.8v0.9q0 0.5-0.1 2.2 0 1.8-0.1 3.8 0 2-0.1 3.8 0 1.7 0 2.2v0.2q-0.1 0.9-0.3 1.8-0.2 0.8-0.2 1.7 0 0.4 0.2 0.8 0.2 0.4 0.7 0.4 0.3 0 0.6-0.3 0.4-0.2 0.6-0.5-0.1-1.1-0.1-2.3 0.1-1.3 0.3-2.4v-13.2q0-0.1 0-0.5 0.1-0.5 0.1-0.9 0-0.5 0.1-0.9 0.1-0.4 0.1-0.6 0.1-0.6 0.6-1.2 0.6-0.7 0.9-1.1 1.1-1.7 1.9-3.6 0.7-1.9 0.7-4 0-0.6-0.2-1.1-0.3-0.5-0.6-1.1-0.3-0.5-0.5-1.1-0.2-0.6-0.2-1.2 0-0.5 0.1-1 0.1-0.4 0.1-1 0-2.1-0.9-3.5-1-1.4-2.4-2.7h-0.3q-0.3 0-0.6 0.1-0.3 0.2-0.6 0.2-0.3 0-0.5 0-0.1-0.1-0.4-0.3-0.8-0.8-1.7-1.6-0.9-0.9-1.9-1.6-0.9-0.8-2-1.2-1.1-0.5-2.3-0.5-1.2 0-2.3 0.2-1.1 0.3-2.3 0.6-1.1 0.3-2.2 0.5-1.1 0.2-2.3 0.2-0.5 0-1.1-0.1-0.4-0.1-0.9-0.1-0.6 0-1.1 0.3-0.4 0.3-0.9 0.8-0.4 0.4-0.8 0.7-0.5 0.4-1.1 0.5-0.2 0-0.6 0.1-0.3 0-0.8 0.1-0.5 0-0.8 0.1-0.4 0-0.6 0-0.2 0.1-0.7 0.6-0.5 0.5-0.6 0.7 0 0 0 0.4 0 0.3 0 0.6 0 0.3 0 0.7 0 0.3 0 0.3-0.2 0.8-0.7 1.9-0.6 1.2-0.9 1.8-0.3 1-0.4 1.7-0.2 0.8-0.4 1.9-0.2 0.8-0.9 0.8-0.3 0-0.6-0.1-0.3-0.2-0.6-0.2 0 5.2 0.2 10.3 0.4 5.1 0.4 10.3 0 1.1-0.3 2.2-0.3 1-0.3 2.1 0 0.6 0.4 1.1 0.4 0.6 1.1 0.6 0.5 0 0.8-0.4 0.4-0.4 0.4-0.9 0-0.6-0.3-1.1-0.3-0.4-0.3-1.1 0-0.6 0.2-1.2 0.1-0.5 0.1-1.2v-0.1q0-0.5-0.1-2.3-0.2-1.9-0.3-4-0.1-2-0.3-3.9-0.1-1.8-0.1-2.3v-0.4q0.6 0 1.4 0.7 0.8 0.6 1.5 1.5 0.8 0.9 1.3 1.8 0.5 0.8 0.5 1.3 0 0.6-0.4 1.1-0.4 0.4-0.4 1v0.3q0 0 0.1 0.4 0.2 0.3 0.2 0.4 0 1-0.3 2-0.2 0.9-0.2 1.9 0 0.4 0 1 0.1 0.5 0.7 0.5 0.4 0 0.6-0.4 0.3-0.4 0.3-0.9 0.2-0.5 0.2-1 0-0.4 0-0.5 0-0.2 0-0.7 0-0.4-0.1-0.8 0-0.6 0-0.9 0-0.5 0-0.7 1.6 0 3.5 0.4 1.8 0.4 3.3 0.8 0.9 0.3 1.3 1 0.5 0.7 1.3 0.9 0.1 1.5 0.4 2.8 0.4 1.4 0.4 2.9v13.8q-0.5 0.7-0.5 1.4zm-15.6-5.1q-0.3 0-0.5 0.2-0.3 0-0.3 0.3v3.7q0 0.5 0.4 0.7 0.5 0.1 0.8 0.1 0.9 0 0.9-0.9 0-0.4-0.1-1 0-0.7-0.1-1.4-0.1-0.7-0.4-1.2-0.3-0.5-0.7-0.5zm23.9-7.9q0 0.3 0 0.4 0.1 0.2 0.3 0.5h0.6q0.6 0 0.7-0.1 0.2-0.1 0.2-0.7 0-1.1-0.9-1.1-0.9 0-0.9 1zm-22.3-22.8q0-1.3 0.6-2.1 0.7-0.8 1.2-2 0-0.3 0.4-1.3 0.4-1.1 0.7-2.2 0.4-1.2 0.8-2.2 0.3-1.1 0.4-1.3 0.3-0.9 1.4-1.6 1.1-0.7 2.7-1.2 1.6-0.6 3.4-1 1.8-0.4 3.4-0.7 1.7-0.2 3.1-0.3 1.4-0.2 2.1-0.2 1 0 1.7 0.2 0.7 0.2 1.3 0.6 0.7 0.3 1.3 0.9 0.6 0.5 1.5 1.2 0.7 0.6 1.6 1 1 0.3 1.8 0.8 0.8 0.5 1.4 1.1 0.7 0.6 0.9 1.8 0 0.1 0 0.6 0 0.5 0.1 1.2 0.1 0.6 0.1 1.2 0 0.5 0 0.6 0.2 1.1 0.5 2.1 0.3 1.1 0.3 2.3 0 0.7-0.2 1.8-0.2 1.1-0.7 2.2-0.4 1-1 1.9-0.6 0.9-1.2 1.4-0.4 0.3-0.9 0.4-0.4 0.1-0.9 0.3-0.4 0-0.9 0.2-0.4 0.1-0.7 0.4-1 0.8-1.4 1.4-0.5 0.6-1.4 1.2h-4.2q-0.6 0-1.1 0.3-0.5 0.2-1.1 0.5-0.4 0.3-0.9 0.6-0.5 0.2-1.1 0.2 0 0-0.2 0-0.2 0-0.3 0-0.2-0.1-0.6-0.4-0.4-0.2-0.9-0.4-0.6-0.3-1-0.5-0.4-0.2-0.6-0.3-1.2-0.5-2.5-0.5-1.4 0-2.4-0.8-1-0.8-1.4-2.1-0.4-1.3-1-2.3-0.4-0.8-1.2-1.3-0.7-0.5-1.3-0.9-0.7-0.5-1.2-1.1-0.4-0.7-0.4-1.7zm8.5-6.3q0 2.1 0.2 4.8 0.2 2.6 0.9 4.9 0.7 2.3 2.2 3.9 1.6 1.6 4.4 1.6 1.6 0 3.2-0.9 1.6-1 2.8-2.4 1.3-1.5 2.1-3.2 0.9-1.8 0.9-3.3 0-0.7-0.1-1.1 0-0.4-0.4-1.1v-4.4q-0.1-1.4-0.9-2.3-0.7-1-1.7-1.9-0.2-0.1-0.9-0.4-0.7-0.3-1-0.3h-7.5q-0.9 0-1.7 0.7-0.7 0.7-1.3 1.7-0.5 0.9-0.8 2-0.4 1-0.4 1.7zm2.9 5.8q0-0.4-0.1-0.9 0-0.6 0.4-0.9v-2.9q0-0.2-0.2-0.2-0.2 0-0.5 0-0.3 0-0.5 0-0.1 0-0.1-0.3 0 0 0-0.3 0.1-0.3 0.2-0.5 0.3-0.6 0.6-1.4 0.4-0.8 0.8-1.4 0.5-0.7 1.1-1.1 0.7-0.5 1.6-0.5 0.5 0 0.7 0.6 0.2 0.5 0.3 1.2 0.1 0.8 0.1 1.5 0 0.6 0 0.9 0 2.3-0.2 4.5-0.3 2.2-0.3 4.5 0 0.5 0.1 0.8 0.2 0.3 0.7 0.3 0.3 0 0.6-0.3 0.3-0.4 0.4-0.7 0.3-2.9 0.3-5.9 0.1-3 0-5.8l0.8-1.6q0 0 0 0 0.1 0 0.1 0 0.6 0 1.3 0.3 0.8 0.4 1.5 1.1 0.6 0.6 1 1.3 0.5 0.6 0.5 1.2 0 0.7-0.5 1.3-0.6 0.5-0.8 1.1-0.4 0.9-0.3 2.2 0.1 1.3 0.1 2.1 0.8 0 1-0.8 0.1-0.7 0.2-1.5h0.1q0.6 0 0.8 0.5 0.2 0.4 0.2 0.8 0 0.1-0.4 0.9-0.4 0.8-0.9 1.7-0.6 1-1 1.8-0.5 0.8-0.6 0.8-0.5 0.4-1.4 0.8-1 0.3-1.2 0.8-0.1 0.4-0.1 1 0.2 0.6-0.6 0.6-0.9 0-1.8-0.3-1-0.3-1.7-0.5-0.4-0.1-0.8-1.1-0.4-0.9-0.7-2.1-0.4-1.2-0.6-2.2-0.2-1.1-0.2-1.4zm36.4 34.5q0 1.1 1 1.1 0.8 0 1-0.9 0.3-0.9 0.3-1.5 0-0.3-0.1-0.7 0-0.6-0.1-1-0.1-0.4-0.3-0.7-0.2-0.4-0.7-0.4-0.4 0-0.7 0.6-0.2 0.4-0.3 1.1-0.1 0.7-0.1 1.4 0 0.6 0 1zm-8-8.7q-0.3 0-0.6 0.2-0.3 0.2-0.3 0.5v2.9q0 0.4 0.3 0.5 0.4 0.1 0.6 0.1 0.5 0 0.9-0.4 0.3-0.5 0.3-1 0-0.2-0.1-0.7 0-0.5-0.1-1-0.1-0.5-0.3-0.8-0.3-0.3-0.7-0.3zm28 3.2q0 1 0.9 1 0.3 0 0.5-0.1 0.3-0.1 0.4-0.5-0.1-3.4 0.1-6.8 0.1-3.3 0.4-6.7 0-0.2 0.1-0.6 0.1-0.4 0.2-0.5 0 0 0.4-0.2 0.3-0.2 0.7-0.5 0.4-0.2 0.6-0.5 0.4-0.3 0.4-0.6 0-0.4-0.2-0.7-0.1-0.3-0.1-0.7 0-0.9 0.8-1.4l0.2 0.2q0 0.1 0 0.9 0.1 0.9 0.1 1.3 0 1.1 0 1.8 0 0.8-0.1 1.4 0 0.7 0 1.4-0.1 0.7-0.2 1.8-0.1 0.4-0.4 1.4-0.1 1.1-0.1 1.6 0 0.3 0.3 0.8 0.4 0.4 0.7 0.4 0.1 0 0.2-0.1 0.2-0.1 0.3-0.2l0.3-0.3 0.2-2.6v-14q0-0.2 0.1-0.6 0.1-0.4 0.1-0.8 0-0.5 0-0.9 0.1-0.4 0.1-0.6 0-0.3-0.1-1.4 0-1 0-2.2 0-1.2-0.1-2.2-0.1-1-0.1-1.4-0.7-0.2-1.3-0.6-0.5-0.3-0.5-1.1 0-1.2 0.5-2.4 0.6-1.2 0.6-2.3 0-1.1-1-1.8-0.9-0.8-1.9-0.7-0.3-0.2-1.1-0.9-0.7-0.7-1-0.9-0.6-0.6-0.8-0.7-0.2-0.1-0.2-0.7 0-0.4 0.1-0.6 0.1-0.3 0.1-0.6v-0.3q-0.7-0.3-1.2-0.4-0.5-0.1-1.2-0.1-0.8 0-1.3 0.2-0.6 0.1-1.3 0.1h-1.2q-0.5-0.9-1.2-0.9 0 0-0.2 0.1-0.1 0-0.2 0-0.9 0.8-2.2 1.6-1.2 0.7-2.6 1.2-1.5 0.5-3 0.8-1.4 0.3-2.6 0.3-0.2 0-0.7-0.1-0.4 0-0.8-0.2-0.4-0.2-0.7-0.3-0.4-0.3-0.4-0.7 0-0.1 0.2-0.4 0.1-0.3 0.1-0.4 0-0.6-0.4-0.9-0.3-0.4-0.9-0.6-0.5-0.2-1.1-0.2-0.5-0.1-0.9-0.1-0.8 0-1.2 0.1-0.3 0.1-0.5 0.4-0.2 0.2-0.4 0.6-0.1 0.4-0.6 1-0.4 0.6-1.1 1.1-0.7 0.4-1.4 1-0.7 0.5-1.2 1.1-0.5 0.6-0.5 1.3 0 0.9 0.7 1.7 0.7 0.7 0.9 1.6 0.3 1.3 0.3 3 0 1.6 0 3v1.3q-0.2 0.1-0.5 0.3-0.2 0.2-0.6 0.4-0.2 0.2-0.5 0.4-0.3 0.2-0.3 0.4v5q0.1 0 0.4 0.2 0.3 0.1 0.6 0.3 0.3 0.2 0.6 0.5 0.3 0.3 0.3 0.5v2.6q0 0.1 0.1 0.4 0.1 0.3 0.1 0.4 0 0.1-0.4 0.5-0.4 0.4-0.4 0.5v1q0 0.9 0.2 1.8 0.1 0.8 0.1 1.7 0 1.5-0.1 3-0.2 1.4-0.2 2.9 0 1.1 1.1 1.1 0.5 0 0.9-0.4 0.4-0.4 0.4-0.9v-0.3q-0.1-0.2-0.3-0.8-0.2-0.5-0.2-0.7v-5.8q0-0.3 0.3-0.2 0.3 0 0.5 0 0.7 0 1.2 0.1 0.6 0.1 1.3 0.1 0.6 0 1 0 0.4-0.2 0.7-0.3 0.4-0.1 0.8-0.2 0.4-0.2 0.9-0.2 0.2 0 0.3 0.1 0.2 0.1 0.3 0.1 0.1 0.2 0.3 0.9 0.2 0.6 0.2 0.7v12.7q-0.1 0.2-0.2 0.5-0.1 0.4-0.1 0.6v0.2q0 0.7 0.3 0.9 0.4 0.2 1 0.2 0.1 0 0.3 0 0.2 0 0.2 0l0.3-0.6v-1.7q0-3.1-0.1-6.1-0.2-2.9-0.2-6.1v-1.9l0.5-1.1h0.2q0.4 0 0.4 0.5 0.1 0.4 0.6 0.4 0.4 0 0.5-0.3 0.2-0.4 0.2-0.8 0-0.3 0-0.7 0-0.4 0-0.6v-1.6q0 0-0.2-0.2 0-0.2-0.1-0.3-0.1-0.1-0.5-0.6-0.5-0.6-0.5-0.7-0.5-0.9-0.6-1.8 0-0.8 0-1.7 0-0.1 0-0.7 0-0.6 0-0.7 0.6-0.8 1-1.3 0.3-0.6 0.3-1.5 0-1.5-0.1-3-0.1-1.5-0.1-2.9 0-0.7 0.7-1.3 0.8-0.6 1.8-1 1-0.5 2-0.7 1.1-0.3 1.6-0.3 0.5 0 0.7 0.4 0.2 0.4 0.2 0.7 0 0.9-0.3 1.8-0.2 0.7-0.2 1.7 0 0.2 0 0.5 0 0.4 0.4 0.4h0.1q0.3-0.2 0.4-0.6 0.1-0.4 0.1-0.8 0.1-0.4 0.2-0.7 0.2-0.3 0.5-0.3 0.3 0 0.5 0.4 0.3 0.4 0.4 0.7 0.1 0.3 0.3 1 0.2 0.7 0.2 0.8v2.1q0 2-0.3 4-0.2 2-0.5 4-0.3 2-0.6 4.1-0.2 2-0.2 4 0 0.5 0.2 1 0.2 0.5 0.9 0.5 0.3 0 0.4-0.2 0.2-0.2 0.4-0.5v-4.7q0-0.1 0-0.5 0.2-0.4 0.2-0.6 0.1 0 0.2 0 0 0 0.1 0 0.6 0 1 0.8 0.5 0.7 0.8 1.1 0.3 0.3 0.9 0.7 0.7 0.5 1.3 1 0.7 0.4 1.2 0.8 0.5 0.3 0.5 0.3 0.1 0.2 0.1 0.7 0.1 0.5 0.2 1 0.1 0.5 0.2 1.1 0 0.4 0 0.6v0.7q0 2.7-0.1 5.3-0.1 2.6-0.1 5.3zm-5-22.2q0-2 0.4-4 0.4-1.9 0.4-3.9 0-1.4-0.1-2.3 0-0.8-0.3-1.5-0.2-0.7-0.7-1.3-0.5-0.7-1.2-1.8-0.6-0.8-0.9-1.3-0.4-0.7-1-1.1-0.4-0.5-1.1-0.8-0.6-0.2-1.6-0.2-1.2 0-2.5 0.3-1.2 0.3-2.3 0.9-1 0.5-1.8 1.5-0.8 0.9-1.1 2.2 0 0.3 0 1.2 0 0.8 0 1.8-0.1 1-0.1 1.8 0 0.9-0.1 1.2 0 0.1-0.2 0.7-0.1 0.4-0.3 1-0.2 0.6-0.4 1.1-0.1 0.5-0.1 0.6v0.8q0 0.9 0.1 1.8 0.3 0.8 0.6 1.5 0.3 0.8 0.5 1.5 0.3 0.8 0.3 1.4 0 0.3-0.4 0.7-0.3 0.3-0.6 0.3h-6q-0.2 0-0.5-0.4-0.2-0.5-0.3-0.6 0-0.2 0-0.6 0.1-0.4 0.1-1 0-0.5-0.1-0.9 0-0.4 0-0.6-0.1-0.6-0.3-1.1-0.3-0.6-0.5-1.1-0.3-0.5-0.6-1.1-0.1-0.6-0.1-1.1 0-0.8 0.2-1.5 0.3-0.8 0.7-1.5 0.3-0.8 0.5-1.6 0.4-0.8 0.4-1.6 0-1.1-0.1-2.2-0.1-1.3-0.2-2 0-0.2-0.1-0.6-0.1-0.5-0.3-1-0.1-0.5-0.2-1-0.2-0.4-0.2-0.6v-0.5q0-0.5 0.4-1.1 0.4-0.8 1-1.3 0.6-0.6 1.2-1 0.6-0.5 1.1-0.5 0.6 0 0.9 0.5 0.5 0.4 1.1 1 0.6 0.5 1.4 0.9 0.9 0.5 2.4 0.5 1.6 0 3.2-0.4 1.6-0.5 3.1-0.9 1.5-0.5 3-0.9 1.6-0.5 3.2-0.5 0.3 0 1 0.1 0.8 0 0.9 0 0.2 0 1.2 0.9 1 0.8 2 1.7 1.1 1 2 1.9 0.8 0.9 0.8 1.2v4.7q0 0.9 0.7 2.1 0.6 1.3 0.6 2.7 0 2.1 0 4.1-0.1 2-0.2 4.1-0.2 0.4-0.4 1.2-0.1 0.7-0.4 1.4-0.3 0.6-0.8 1.2-0.4 0.4-1.2 0.4-0.4 0-1.5-0.6-0.9-0.7-2-1.6-1-0.9-1.8-1.8-0.8-1-0.8-1.5zm10.2-3.4l0.5 0.5q-0.1 0.3-0.5 0.3-0.2 0-0.4 0 0-0.1 0-0.3 0.1-0.4 0.4-0.5zm10.9 18.5q0 1 0.9 1 0.6 0 0.8-0.3 0.2-0.3 0.2-0.8 0-0.6-0.2-0.8 0-0.2-0.6-0.2-1.1 0-1.1 1.1zm-1.3-9.7h0.2q0.9 0 1.2 0.8 0.3 0.8 0.3 1.7 0.1 0.9 0.2 1.7 0.1 0.8 0.7 0.8 0.7 0 0.9-0.5 0.2-0.6 0.2-1.2 0.1-0.7 0.1-1.4 0.1-0.7 0.4-1.1 0.8-0.9 1.7-1.7 0.9-0.9 0.9-2.3v-0.1q-0.5-0.7-1.4-1.9-0.8-1.3-1.9-2.6-0.9-1.2-2-2.1-1.1-1-1.9-1-1.3 0-1.9 0.9-0.7 0.7-1.6 1.7-0.9 0.5-1.3 0.5-0.4 0-0.6 0-0.2 0-0.4 0.5-0.2 0.5-0.8 1.9v4.1q0 0.2-0.1 0.6-0.2 0.4-0.2 0.5 0 0.3 0.2 0.6 0.3 0.2 0.6 0.2 0.5 0 0.6-0.2 0.2-0.3 0.2-0.6 0-0.4-0.1-0.7-0.1-0.4-0.1-0.6h0.5q0.3 0.2 0.8 0.5 0.6 0.3 1.3 0.7 0.6 0.2 1.2 0.4 0.7 0.2 1.2 0.2h0.1q0.1 0 0.4-0.1 0.4-0.2 0.4-0.2zm-4.1-4.2q0-1.3 1-2 1-0.6 2.1-1.3h0.5q0.7 0 1.4 0.5 0.7 0.5 1.3 1.2 0.6 0.6 0.9 1.5 0.4 0.8 0.4 1.4 0 0.5-0.3 0.9-0.2 0.5-0.8 0.5h-0.3l-5.7-1.6q-0.5-0.1-0.5-0.4 0-0.4 0-0.7zm32.1 23.5q0 0.7 0.5 1 0.5 0.3 1.2 0.3 1 0 1-1.2 0-0.5-0.1-0.8 0-0.4-0.1-0.9v-6.5q-0.2-0.5-0.3-0.8 0-0.3 0-0.9 0-0.5 0.1-0.9 0.2-0.5 0.2-1 0-1-0.2-2-0.1-0.9-0.1-2 0-0.8 0.1-1.2 0.1-0.4 0.3-0.5 0.3-0.2 0.8-0.2 0.4 0 1.1-0.1 0.5-0.1 0.9-0.3 0.6-0.2 1-0.5 0.5-0.3 1-0.5 0.5-0.3 1-0.3h0.3q0.4 0.8 0.4 1.1 0.1 0.4 0.1 1.1 0 1.5-0.1 3.2-0.1 1.5-0.1 3.2 0 0.3 0.1 0.7 0.3 0.4 0.8 0.4 0.7 0 0.9-0.6 0.2-0.5 0.2-1.1 0-1.9-0.2-3.8-0.3-1.9-0.3-3.9 0-0.6 0.1-1.1 0.2-0.5 0.4-1 0.2-0.5 0.4-1 0.1-0.5 0.1-1.1 0-0.7-0.1-1.3-0.2-0.5-0.5-1.1-0.3-0.6-0.5-1.2-0.1-0.6-0.1-1.4 0-1.9 0-3.9 0.1-1.9 0.2-3.8 0-0.3 0.1-1.3 0.1-1 0.2-1.3 0-0.5 0.4-1 0.3-0.4 0.7-0.9 0.4-0.4 0.6-0.9 0.4-0.5 0.4-1.1 0-0.9-0.8-1.9-0.7-1-1.7-1-0.3 0-0.5 0.2-0.2 0.1-0.4 0.1-0.9 0-1.3-0.7-0.2-0.8-0.5-1.4-0.4-0.6-1.2-0.9-0.7-0.3-1.6-0.5-0.8-0.2-1.7-0.3-0.8 0-1.3-0.1-0.6-0.1-1-0.4-0.4-0.3-0.9-0.6-0.4-0.3-0.9-0.6-0.5-0.2-1.3-0.2-1.9 0-3.2 0.8-1.1 0.7-2.6 1.8 0 0-0.2 0.2-0.2 0-0.3 0-0.7 0.2-1.6 0.4-0.9 0-1.9 0.2-0.9 0.2-1.8 0.5-0.8 0.3-1.4 0.8-0.6 0.4-0.7 1.1-0.2 0.7-0.4 1.4-0.2 0.6-0.6 1.2-0.3 0.4-1 0.4-0.4 0-0.7-0.1-0.3-0.1-0.7-0.1-0.4 0-0.7 0.4-0.2 0.4-0.4 0.9-0.2 0.5-0.2 1.1-0.1 0.6-0.1 0.9 0 0.8 0.4 1.2 0.4 0.4 0.4 1.1v0.6q0 0.1-0.1 0.3-0.2 0.2-0.2 0.2 0 0.2 0 0.9 0.1 0.8 0 0.9 0 0.1-0.2 0.4-0.2 0.2-0.6 0.4-0.2 0.3-0.5 0.5-0.2 0.2-0.2 0.3-0.3 0.3-0.3 1.2 0 0.8 0 1.1 0 0.6 0 1.1 0 0.5 0.5 1-0.1 1.8 0.1 3.6 0.2 1.7 0.2 3.4 0 0.9-0.5 1.3-0.6 0.4-0.6 1.1 0 0.4 0.3 0.8 0.3 0.5 0.8 0.5 0.7 0 1.4-0.7 0.7-0.7 0.7-1.4v-0.3q0 0-0.2-0.3 0-0.4-0.1-0.7-0.1-0.3-0.2-0.6 0-0.4 0-0.4-0.1-0.3-0.2-1.1-0.1-0.9-0.2-1.8-0.2-1-0.3-1.8-0.1-0.9-0.1-1.3v-0.7q0-0.2 0-0.6 0-0.3 0.4-0.3 0.4 0 0.9 1.2 0.6 1.2 1.4 2.7 0.8 1.4 1.9 2.8 1.1 1.3 2.4 1.6-0.1 0.2-0.1 1 0 0.7 0.1 0.9 0.1 0.1 0.5 0.5 0.5 0.4 0.5 0.5 0.1 0.1 0.3 0.4 0.2 0.3 0.3 0.4 0 0.3 0 1.2 0 0.7 0 1.6 0.1 1 0.1 1.8 0.1 0.8 0.1 1.1 0 0.1 0.1 0.7 0.2 0.5 0.2 0.6 0 0.8-0.5 1.6-0.6 0.7-0.6 1.5 0 0.5 0.5 1.1 0.4 0.5 1 0.5 0.5 0 0.9-0.5-0.2-1.3 0-2.1 0.2-0.9 0.2-2 0-1.5-0.1-2.8-0.1-1.5-0.1-2.9v-1.7q0.5-0.5 1.5-0.6 1-0.2 1.7-0.2h0.2q0 0 0.3 0.2 0.4 0.1 0.4 0.1 0.2 0.1 0.9 0.1 0.8 0.1 0.9 0.2 0.4 0.1 0.5 0.5 0.1 0.5 0.6 0.5 0.3 0 0.5-0.2 0.2-0.3 0.5-0.5 0.2-0.3 0.6-0.6 0.3-0.3 0.9-0.3 0.3 0 0.6 0.3 0.3 0.3 0.5 0.5v10.9q0 0.2 0 0.5 0.1 0.3 0.2 0.7 0 0.4 0 0.8 0.1 0.3 0.1 0.4v0.1 0.1q-0.1 0.6-0.2 1.5-0.1 0.8-0.1 0.9 0 0-0.2 0.4-0.3 0.3-0.3 0.4 0 0-0.1 0.2 0 0.2 0 0.3zm9-2.9q0 1.1 1 1.1 0.7 0 0.8-0.5 0.2-0.5 0.2-1.2 0-0.4-0.1-0.7-0.1-0.5-0.6-0.5-0.8 0-1.1 0.7-0.2 0.5-0.2 1.1zm-30.5-8.9q0 0.9 0.9 0.9 1 0 1-0.9 0-1-1-1-0.9 0-0.9 1zm11.2-8.2q-0.1-0.2-0.5-0.6-0.4-0.3-0.5-0.5-0.1 0-0.4-0.5-0.3-0.5-0.4-0.5-0.1-0.1-0.6-0.6-0.4-0.5-0.9-1-0.5-0.5-0.9-1-0.4-0.4-0.5-0.5 0-0.1-0.3-0.6-0.3-0.5-0.6-1-0.3-0.5-0.6-1-0.2-0.4-0.3-0.6-0.2-0.2-0.9-0.9-0.6-0.7-0.9-0.9v-0.8q0-0.8 0.3-1.4 0.3-0.6 0.5-1.4 0.3-1.4 0.3-2.4 0.1-1.1-0.1-2.8 0.6-0.7 1.3-1.2 0.7-0.4 1.3-1.2 0.5-0.6 0.8-1.3 0.3-0.7 1.1-1.3 1-0.7 2.4-0.9 1.4-0.1 2.5-0.6 1.3-0.6 2.7-1.4 1.3-1 2.8-1 0.9 0 1.6 0.3 0.7 0.3 1.5 0.5 0.1 0.1 0.7 0.3 0.6 0.2 1.4 0.4 0.7 0.2 1.3 0.4 0.6 0.2 0.7 0.2 0.4 0.2 1.3 0.7 0.8 0.4 1.7 1.1 0.9 0.6 1.5 1.2 0.7 0.6 0.7 0.9 0 0.5-0.4 0.8-0.4 0.3-0.8 0.3-1 0-1.9-0.4-0.9-0.4-1.8-0.9-0.9-0.5-1.8-0.9-0.9-0.4-1.9-0.4-1.3 0-2.9 0.2-1.5 0.2-2.5 0.3-2.2 0.2-3.6 1.2-1.4 0.9-2.2 2.3-0.8 1.4-1.2 3.2-0.3 1.8-0.3 3.8 0 4.6 2.8 6.8 2.8 2.2 7.3 2.2 2.3 0 4.3-0.6 2.2-0.7 4.5-0.7 0.9 0 1.1 0.4 0.3 0.3 0.3 1.1 0 0.8-0.3 1.1-0.2 0.4-0.6 0.7-0.3 0.2-0.9 0.3-0.5 0.2-1.1 0.3-1 0.2-2.2 0.6-1.3 0.4-2.4 0.4-2.9 0-5.8-0.1-2.8-0.2-5.7-0.1zm1.3-9.7v-4.6q0.3-0.4 0.5-1.4 0.2-1 0.5-2 0.2-0.9 0.6-1.7 0.4-0.8 1-0.9 0.3 0 0.7-0.1 0.5-0.1 1-0.2 0.5-0.1 1-0.2 0.4 0 0.6 0 0.7 0 1.1 0.8 0.6 0.9 0.6 1.4 0 0.8-0.3 1.6-0.3 0.8-0.3 1.6 0 0.3 0.3 0.9 0.3 0.4 0.6 0.4 0.6 0 0.8-0.6 0.2-0.6 0.2-0.9v-5.5q0-0.5 0.1-0.5 0.2 0 0.6 0 0.9 0 1.3 0.4 0.6 0.3 0.8 0.8 0.3 0.4 0.5 0.9 0.2 0.4 0.6 0.5 0.5-0.5 1-0.5h0.3l3.1 1.3q0.5 0.2 0.6 0.9 0.2 0.8 0.2 1.3v0.9q0 0.4-0.1 1.3 0 1-0.1 2.1 0 1.1 0 2-0.1 1-0.1 1.3 0 0.3-0.5 0.6-0.5 0.3-1.3 0.6-0.6 0.3-1.3 0.5-0.6 0.2-0.8 0.2-0.5 0-0.9-0.3-0.3-0.3-0.9-0.3-0.5 0-1 0.4-0.5 0.2-0.9 0.6-0.5 0.3-0.9 0.7-0.3 0.2-0.6 0.2-0.1 0-0.5-0.3-0.4-0.3-0.5-0.3-1.1-0.2-1.8-0.2-0.7-0.1-1.4-0.2-0.6-0.1-1.2-0.4-0.6-0.3-1.4-1l-1.5-1.5q-0.1-0.1-0.2-0.3-0.1-0.2-0.1-0.3zm38.4 34.5q0 0.5 0.3 0.9 0.3 0.3 0.9 0.3 0.5 0 0.9-0.5 0.5-0.5 0.5-1 0-4.8-0.3-9.5-0.2-4.6-0.2-9.4 0-1.2 0.5-2 0.5-0.8 1.4-1.3 0.8-0.5 1.8-0.6 1.1-0.2 2.1-0.2h0.2q0 0.1 0.1 0.3 0.1 0.2 0.1 0.2v3.7q0 0.4 0.2 1 0.2 0.5 0.7 0.5 0.8 0 0.9-1v-2.9q0 0 0.1-0.2 0.1-0.2 0.2-0.3 0.1-0.1 0.8-0.8 0.6-0.6 0.8-0.7 0.2-0.4 0.4-0.9 0.3-0.6 0.6-1 0.3-0.5 0.7-0.9 0.5-0.4 1.1-0.4 0.4 0 0.6 0.4 0.3 0.4 0.3 1 0.2 0.5 0.2 1.1 0 0.5 0 0.8v0.9q0 0.5-0.1 2.2 0 1.8-0.1 3.8 0 2-0.1 3.8 0 1.7 0 2.2v0.2q-0.1 0.9-0.3 1.8-0.2 0.8-0.2 1.7 0 0.4 0.2 0.8 0.2 0.4 0.7 0.4 0.3 0 0.6-0.3 0.4-0.2 0.6-0.5-0.1-1.1-0.1-2.3 0.1-1.3 0.3-2.4v-13.2q0-0.1 0-0.5 0.1-0.5 0.1-0.9 0-0.5 0.1-0.9 0.1-0.4 0.1-0.6 0.1-0.6 0.6-1.2 0.6-0.7 0.9-1.1 1.1-1.7 1.9-3.6 0.7-1.9 0.7-4 0-0.6-0.2-1.1-0.3-0.5-0.6-1.1-0.3-0.5-0.5-1.1-0.2-0.6-0.2-1.2 0-0.5 0.1-1 0.1-0.4 0.1-1 0-2.1-0.9-3.5-1-1.4-2.4-2.7h-0.3q-0.3 0-0.6 0.1-0.3 0.2-0.6 0.2-0.3 0-0.5 0-0.1-0.1-0.4-0.3-0.8-0.8-1.7-1.6-0.9-0.9-1.9-1.6-0.9-0.8-2-1.2-1.1-0.5-2.3-0.5-1.2 0-2.3 0.2-1.1 0.3-2.3 0.6-1.1 0.3-2.2 0.5-1.1 0.2-2.3 0.2-0.5 0-1.1-0.1-0.4-0.1-0.9-0.1-0.6 0-1.1 0.3-0.4 0.3-0.9 0.8-0.4 0.4-0.8 0.7-0.5 0.4-1.1 0.5-0.2 0-0.6 0.1-0.3 0-0.8 0.1-0.5 0-0.8 0.1-0.4 0-0.6 0-0.2 0.1-0.7 0.6-0.5 0.5-0.6 0.7 0 0 0 0.4 0 0.3 0 0.6 0 0.3 0 0.7 0 0.3 0 0.3-0.2 0.8-0.7 1.9-0.6 1.2-0.9 1.8-0.3 1-0.4 1.7-0.2 0.8-0.4 1.9-0.2 0.8-0.9 0.8-0.3 0-0.6-0.1-0.3-0.2-0.6-0.2 0 5.2 0.2 10.3 0.4 5.1 0.4 10.3 0 1.1-0.3 2.2-0.3 1-0.3 2.1 0 0.6 0.4 1.1 0.4 0.6 1.1 0.6 0.5 0 0.8-0.4 0.4-0.4 0.4-0.9 0-0.6-0.3-1.1-0.3-0.4-0.3-1.1 0-0.6 0.2-1.2 0.1-0.5 0.1-1.2v-0.1q0-0.5-0.1-2.3-0.2-1.9-0.3-4-0.1-2-0.3-3.9-0.1-1.8-0.1-2.3v-0.4q0.6 0 1.4 0.7 0.8 0.6 1.5 1.5 0.7 0.9 1.3 1.8 0.5 0.8 0.5 1.3 0 0.6-0.4 1.1-0.4 0.4-0.4 1v0.3q0 0 0.1 0.4 0.2 0.3 0.2 0.4 0 1-0.3 2-0.3 0.9-0.3 1.9 0 0.4 0.1 1 0.1 0.5 0.7 0.5 0.4 0 0.6-0.4 0.3-0.4 0.3-0.9 0.2-0.5 0.2-1 0-0.4 0-0.5 0-0.2 0-0.7 0-0.4-0.1-0.8 0-0.6 0-0.9 0-0.5 0-0.7 1.6 0 3.5 0.4 1.8 0.4 3.3 0.8 0.9 0.3 1.3 1 0.5 0.7 1.3 0.9 0.1 1.5 0.4 2.8 0.4 1.4 0.4 2.9v13.8q-0.5 0.7-0.5 1.4zm-15.6-5.1q-0.3 0-0.5 0.2-0.3 0-0.3 0.3v3.7q0 0.5 0.4 0.7 0.5 0.1 0.8 0.1 0.9 0 0.9-0.9 0-0.4-0.1-1 0-0.7-0.1-1.4-0.1-0.7-0.4-1.2-0.3-0.5-0.7-0.5zm23.9-7.9q0 0.3 0 0.4 0.1 0.2 0.3 0.5h0.6q0.6 0 0.7-0.1 0.2-0.1 0.2-0.7 0-1.1-0.9-1.1-0.9 0-0.9 1zm-22.3-22.8q0-1.3 0.6-2.1 0.7-0.8 1.2-2 0-0.3 0.4-1.3 0.3-1.1 0.7-2.2 0.4-1.2 0.8-2.2 0.3-1.1 0.4-1.3 0.3-0.9 1.4-1.6 1.1-0.7 2.7-1.2 1.6-0.6 3.4-1 1.8-0.4 3.4-0.7 1.7-0.2 3.1-0.3 1.4-0.2 2.1-0.2 1 0 1.7 0.2 0.7 0.2 1.3 0.6 0.7 0.3 1.3 0.9 0.6 0.5 1.5 1.2 0.7 0.6 1.6 1 1 0.3 1.8 0.8 0.8 0.5 1.4 1.1 0.7 0.6 0.9 1.8 0 0.1 0 0.6 0 0.5 0.1 1.2 0.1 0.6 0.1 1.2 0 0.5 0 0.6 0.2 1.1 0.5 2.1 0.3 1.1 0.3 2.3 0 0.7-0.2 1.8-0.2 1.1-0.7 2.2-0.4 1-1 1.9-0.6 0.9-1.2 1.4-0.4 0.3-0.9 0.4-0.4 0.1-0.9 0.3-0.4 0-0.9 0.2-0.4 0.1-0.7 0.4-1 0.8-1.4 1.4-0.5 0.6-1.4 1.2h-4.2q-0.6 0-1.1 0.3-0.5 0.2-1.1 0.5-0.4 0.3-0.9 0.6-0.5 0.2-1.1 0.2 0 0-0.2 0-0.2 0-0.3 0-0.2-0.1-0.6-0.4-0.4-0.2-0.9-0.4-0.6-0.3-1-0.5-0.4-0.2-0.6-0.3-1.2-0.5-2.5-0.5-1.4 0-2.4-0.8-1-0.8-1.4-2.1-0.4-1.3-1-2.3-0.4-0.8-1.2-1.3-0.7-0.5-1.3-0.9-0.7-0.5-1.2-1.1-0.4-0.7-0.4-1.7zm8.5-6.3q0 2.1 0.2 4.8 0.2 2.6 0.9 4.9 0.7 2.3 2.2 3.9 1.6 1.6 4.4 1.6 1.6 0 3.2-0.9 1.6-1 2.8-2.4 1.3-1.5 2.1-3.2 0.9-1.8 0.9-3.3 0-0.7-0.1-1.1 0-0.4-0.4-1.1v-4.4q-0.1-1.4-0.9-2.3-0.7-1-1.7-1.9-0.2-0.1-0.9-0.4-0.7-0.3-1-0.3h-7.5q-0.9 0-1.7 0.7-0.7 0.7-1.3 1.7-0.5 0.9-0.8 2-0.4 1-0.4 1.7zm2.9 5.8q0-0.4-0.1-0.9 0-0.6 0.3-0.9v-2.9q0-0.2-0.1-0.2-0.2 0-0.5 0-0.3 0-0.5 0-0.2 0-0.2-0.3 0 0 0.1-0.3 0.1-0.3 0.2-0.5 0.3-0.6 0.6-1.4 0.4-0.8 0.8-1.4 0.5-0.7 1.1-1.1 0.7-0.5 1.6-0.5 0.5 0 0.7 0.6 0.2 0.5 0.3 1.2 0.1 0.8 0.1 1.5 0 0.6 0 0.9 0 2.3-0.3 4.5-0.2 2.2-0.2 4.5 0 0.5 0.1 0.8 0.1 0.3 0.7 0.3 0.3 0 0.6-0.3 0.3-0.4 0.4-0.7 0.3-2.9 0.3-5.9 0.1-3 0-5.8l0.7-1.6q0 0 0.1 0 0.1 0 0.1 0 0.6 0 1.3 0.3 0.8 0.4 1.5 1.1 0.6 0.6 1 1.3 0.5 0.6 0.5 1.2 0 0.7-0.5 1.3-0.6 0.5-0.8 1.1-0.4 0.9-0.3 2.2 0.1 1.3 0.1 2.1 0.8 0 1-0.8 0.1-0.7 0.2-1.5h0.1q0.6 0 0.8 0.5 0.2 0.4 0.2 0.8 0 0.1-0.4 0.9-0.4 0.8-0.9 1.7-0.6 1-1 1.8-0.5 0.8-0.6 0.8-0.5 0.4-1.4 0.8-1 0.3-1.2 0.8-0.1 0.4-0.1 1 0.2 0.6-0.6 0.6-0.9 0-1.8-0.3-1-0.3-1.7-0.5-0.4-0.1-0.8-1.1-0.4-0.9-0.7-2.1-0.4-1.2-0.6-2.2-0.2-1.1-0.2-1.4zm27 43.7q0 1 1.2 1 0.3 0 0.5-0.2 0.4-0.1 0.4-0.5 0-0.8-0.4-0.9-0.3-0.2-0.8-0.2-0.6 0-0.8 0.2-0.1 0-0.1 0.6zm-1.1-7.3q0 0.3 0 0.7 0.1 0.4 0.2 0.8 0.2 0.3 0.4 0.6 0.2 0.3 0.6 0.3 0.7 0 1.1-0.4 0.4-0.4 0.4-1 0-1.8-0.2-3.6-0.2-1.8-0.4-3.6 0-0.6-0.1-2.6-0.1-2-0.1-4.4-0.1-2.5-0.2-4.8-0.1-2.4-0.1-3.6v-1.1-1.2q0-0.3 0.3-0.3 0.1 0 0.6-0.1 0.5-0.1 0.7-0.1 1.9 1.7 4.4 1.8l0.5 0.5v0.2q0 0.3-0.1 0.7-0.2 0.4-0.2 0.9 0 0.5 0.1 0.8 0.1 0.3 0.5 0.8 0 0.5 0.2 1.8 0.1 1.1 0.3 2.5 0.2 1.4 0.3 2.6 0.1 1.2 0.2 1.7v0.1q0 0.3-0.2 0.5-0.2 0.2-0.4 0.3-0.3 0.1-0.5 0.3-0.2 0.1-0.2 0.5 0 0.5 0.5 0.9 0.6 0.4 1.1 0.5 0.2 0.1 0.5-0.2 0.3-0.3 0.5-0.6 0.3-0.3 0.4-0.6 0.1-0.4 0.1-0.5 0-1.2-0.2-2.2-0.3-1.1-0.3-2.2v-0.7q0-0.4 0-1.4 0.1-1.1 0.1-2.3 0.1-1.1 0.1-2.2 0.1-1 0.1-1.4 0-0.6 0.5-1.3 0.6-0.6 1.2-1.4 0.7-0.8 1.3-1.8 0.6-1 0.6-2.3 0-0.2-0.3-0.3-0.1-0.1-0.4-0.3-0.3-0.2-0.5-0.4-0.3-0.3-0.4-0.5 0.2-1.7 0.2-2.9 0.1-1.3 0.1-2.8 0-1.2-0.4-2.2-0.4-1.2-0.4-2.4 0-0.1 0-0.6 0-0.4 0-0.6 0.4-0.3 0.9-0.8 0.7-0.6 1.2-0.5 0.1 0 0.3 0.2 0.2 0.2 0.2 0.4v4.4q0 0.3 0.3 0.4 0.3 0.1 0.5 0.1 0.5 0 0.8-0.5v-0.9q0-1.4-0.1-2.7-0.2-1.4-0.2-2.7 0-0.5 0.4-0.7 0.3-0.4 0.7-0.6 0.5-0.2 0.9-0.2 0.6-0.1 0.9-0.1 0.3 0 0.9 0 0.6 0 0.9 0.3 0.4 0.4 1.1 1.3 0.7 1 1.3 2 0.6 1 1.1 2 0.5 1 0.5 1.5 0 0.9-0.8 1.2-0.8 0.2-1.5 0.2 0 1.5-0.5 3-0.4 1.5-0.4 2.9 0 0.4 0.1 0.5 0.2 0.1 0.5 0.1 0.6 0 0.7-0.4 0.2-0.5 0.6-0.5 0.6 0 0.8 0.5 0.2 0.4 0.2 0.8 0 0.9-0.4 1.7-0.4 0.8-0.4 1.7 0 0.3 0 0.6 0 0.2 0.2 0.4l3.9 3.9q0 0.2 0 0.8 0.1 0.5 0.1 1.2 0.1 0.6 0.1 1.2 0.1 0.5 0.1 0.7 0 0.1 0.1 0.4 0.2 0.4 0.2 0.4 0 0.2 0.1 0.5 0.1 0.4 0.1 0.6v0.1q0 0.6-0.1 1.1-0.1 0.5-0.1 1.1v1q0.3 0.9 1.1 0.9 0.3 0 0.5-0.1 0.3-0.1 0.2-0.5v-2.9q0-1.5-0.2-2.8-0.1-1.4-0.1-2.9 0-0.4 0.5-1.1 0.6-0.8 1.3-1.4 0.8-0.7 1.5-1.2 0.8-0.4 1.1-0.4 0.2 0 0.3 0.2 0.1 0.3 0.2 0.6 0.1 0.3 0.2 0.5 0.2 0.2 0.6 0.2 0.4 0 0.6-0.2 0.2-0.4 0.2-0.7 0-1.3-0.2-2.4-0.3-1.2-0.3-2.4 0-1.5 0.5-2.9 0.5-1.4 0.5-2.9 0-1.5-0.3-2.1-0.3-0.7-0.7-1-0.4-0.4-0.7-0.7-0.3-0.3-0.3-1.1 0-0.7 0.3-1.6 0.4-1 1.1-1.9 0.6-0.8 1.4-1.3 0.9-0.6 1.7-0.6 0.7 0 0.9 0.5 0.2 0.5 0.2 1.2 0 0.6 0.1 1.1 0.1 0.6 0.6 0.6h0.2q0.1-0.2 0.3-0.3 0.3-0.2 0.3-0.3v-1.9q0 0 0.8-0.1 0.9-0.1 1.4 0 0.7 0 1.2 0.9 0.6 0.8 0.6 1.4 0 0.3-0.2 0.5-0.2 0-0.4 0.1-0.2 0.1-0.4 0.1-0.2 0.1-0.3 0.3-0.2 1-0.2 1.7 0 0.6 0 1.5v1.3q1 0.9 1.3 1.8 0.2 0.8 0.2 2.1 0 1.3 0 2.3 0 0.9-0.2 2.3h-1q0 0.8 0.1 1.3 0.2 0.5 0.3 1 0.3 0.4 0.6 0.9 0.2 0.4 0.5 1v2.3q0 1.9-0.1 3.8-0.2 1.9-0.2 3.8v3.1q0.2 0.3 0.3 0.6 0.2 0.2 0.5 0.2 0.4 0 0.7-0.3 0.2-0.2 0.4-0.6 0.1-0.4 0.1-0.8 0.1-0.4 0.1-0.7 0-0.1-0.1-0.5-0.1-0.4-0.1-0.5v-2.9-2.8q0-0.3-0.1-1 0-0.7 0.1-1.4 0.1-0.6 0.3-1.1 0.4-0.5 1-0.5 0.3 0 0.5 0.1 0.4 0 0.5 0.5v2.3q0.1 0.4 0.1 0.9 0.1 0.4 0.7 0.4 0.4 0 0.5-0.2 0-0.3 0.1-1.2 0.1-0.9 0.1-1.2 0.1-0.3 0.5-0.9 0.4-0.6 0.7-0.6 0.4 0 0.7 0.8 0.2 0.7 0.5 1 0 0.4 0.1 1.5 0 1 0 2.3 0.1 1.2 0.1 2.3 0.1 1.1 0.1 1.4v1q0 0.5-0.3 1.1-0.3 0.4-0.3 0.9 0 0.7 0.2 1.2 0.1 0.5 0.1 1.2 0 0.9-0.3 1.6-0.2 0.6-0.2 1.5 0 1.4 1.4 1.4 0.3 0 0.6-0.2 0.3-0.2 0.3-0.6v-13.2q0-0.9-0.2-1.7-0.3-0.9-0.3-1.8v-0.4l1.6-1.6q0 0 0.2-0.5 0.2-0.5 0.4-1 0.2-0.6 0.4-1.2 0.2-0.6 0.3-0.9v-0.9q0-2.2-0.6-4.2-0.5-2.1-0.5-4.2 0-0.9 0.2-1.4 0.3-0.6 0.5-1.2 0.4-0.7 0.6-1.4 0.3-0.7 0.3-1.8 0-0.6-0.2-1.2-0.2-0.7-0.5-1.4-0.3-0.7-0.6-1.3-0.4-0.6-0.5-1-0.1-0.2-0.4-0.6-0.4-0.3-0.4-0.5-0.2-0.8-0.3-1.5 0-0.9-0.2-1.5-0.1-0.7-0.6-1.2-0.5-0.5-1.7-0.5-0.6 0-1.1 0.2-0.4 0.1-0.9 0.1h-0.2q-0.2-0.1-0.6-0.2-0.3-0.1-0.7-0.3-0.4-0.1-0.7-0.1-0.2-0.2-0.3-0.2-0.4-0.2-0.6-0.6-0.1-0.4-0.3-0.7 0-0.4-0.2-0.7-0.1-0.3-0.5-0.3-0.4 0-0.8 0-0.3 0-0.5 0.2l-2.8 2.4q-0.9 0.1-1.7 0.3-0.6 0.2-1.5 0.2-0.7 0-1.2-0.3-0.4-0.2-1-0.2-0.9 0-1.6 0.4-0.8 0.4-1.5 0.4-2.3 0-4.3-0.8 0 0-0.4-0.1-0.3-0.2-0.6-0.4-0.3-0.2-0.7-0.4-0.3-0.2-0.3-0.2-0.1 0-0.8 0-0.5-0.1-1.5-0.2-0.9 0-1.4 0h-0.1q-1.1 0-2.4 0.2-1.2 0.2-2.2 0.8-0.9 0.6-1.4 1-0.5 0.3-1.4 0.3-0.8 0-1.3-0.2-0.5-0.2-1.1-0.5-0.5-0.3-1.1-0.6-0.7-0.2-1.7-0.2-0.2 0-0.4 0.2 0 0.2-0.2 0.4-0.1 0.3-0.3 0.5-0.1 0.3-0.4 0.4-0.3-0.1-1.1-0.4-0.7-0.2-1-0.4-0.1 0-0.6-0.1-0.4-0.1-0.5-0.1-0.2-0.1-0.4-0.5-0.2-0.4-0.4-0.7-0.2-0.4-0.4-0.6-0.2-0.3-0.4-0.3h-0.2l-1.5 0.8q-1.2 0.4-2 0.8-0.8 0.5-1.3 1.1-0.4 0.6-0.7 1.5-0.2 0.9-0.2 2.2 0 0.9 0.3 1.3 0.4 0.5 0.5 1.4v3.9q0.6 0.8 0.6 1.8 0.2 1.1 0.2 2 0 1.1-0.2 1.9 0 0.8-0.4 2.1-0.1 0.5-0.4 0.5-0.2 0.1-0.4 0.2-0.2 0-0.3 0.1-0.2 0.2-0.2 0.8 0 0.6 0.3 0.9 0.3 0.3 0.7 0.6 0.3 0.2 0.5 0.5 0.4 0.4 0.4 0.9 0 0.9-0.2 1.5-0.1 0.5-0.3 0.9-0.2 0.4-0.4 0.8-0.2 0.3-0.4 0.9-0.1 0-0.1 0.5 0.1 0.4 0.1 0.5-0.1 0.2-0.3 0.7-0.1 0.5-0.3 0.6 0 0.3 0 1.1 0 0.9 0 1.8 0 1 0 1.8 0 0.8 0 1.2 0 0.6 0 1.5 0 0.9 0 1.9 0 0.9 0 1.6 0 0.8 0 0.8 0.1 2.2 0.4 4.8 0.4 2.6 0.4 4.8 0 0.7-0.4 1.1-0.4 0.4-0.4 1zm28.7-7.2q0 0.7 0.1 1.1 0.2 0.4 0.9 0.4 0.4 0 1-0.2 0.6-0.3 0.6-0.8 0-0.6-0.8-1.1-0.7-0.5-1.2-0.5-0.5 0-0.6 0.4 0 0.4 0 0.7zm6.7-8.9q0 0.5 0.2 0.9 0.2 0.4 0.7 0.4 0.7 0 0.8-0.4 0.2-0.4 0.2-0.9 0-0.5-0.2-0.9-0.1-0.4-0.8-0.4-0.5 0-0.7 0.4-0.2 0.4-0.2 0.9zm-31.2-10.7q-0.1-1.5-0.3-3-0.2-1.6-0.2-3.1 0-1.3 0.4-2.6 0.4-1.3 0.4-2.6 0-2.8-0.7-5.6-0.6-2.7-0.6-5.4 0-0.9 0.3-1.6 0.4-0.8 1.5-0.8 1 0 1.8 0.5 0.9 0.5 1.8 0.8 2.6 0 4.6 0.2 2 0.1 4.3 0.1 1.1 0 2-0.2 1-0.3 1.9-0.5 0.9-0.3 1.9-0.6 0.9-0.3 2-0.3 1.1 0 2.2 0.3 1.1 0.3 2.1 0.6 1.1 0.2 2.1 0.5 1.1 0.2 2.2 0.2 2 0 4-0.1 2.1 0 4-0.2 0.7 0 1.2-0.2 0.6-0.3 1.2-0.5 0.6-0.4 1.2-0.6 0.6-0.2 1.2-0.2h0.4q0.1 0 0.4 0.2 0.4 0.1 0.8 0.3 0.4 0.2 0.7 0.4 0.3 0.1 0.5 0.1 0.7 0.3 1.5 0.4 0.9 0 1.6 0.1 0.4 0.2 1.1 1.3 0.6 1 1.1 2.4 0.6 1.3 1 2.6 0.4 1.3 0.4 1.8 0 1.7-0.6 3.3-0.7 1.6-0.7 3.3 0 1.9 0.4 3.7 0.4 1.7 0.4 3.5 0 1-0.3 2.2-0.2 1.1-1.3 1.4h-1.4q-0.7 0-1.5 0-0.7 0-1.4-0.2-0.6-0.2-1-0.7-0.4-0.5-0.4-1.4 0-1.3 0.3-2.5 0.2-1.2 0.2-2.5 0-1.8-0.6-3.3-0.7-1.6-0.7-3.3 0-1 0.3-2 0.3-1 0.3-2.1 0-1.6-0.9-2.5-0.8-0.9-2.1-1.3-1.3-0.4-2.8-0.5-1.5 0-2.7 0-3.1 0-4.9 2-1.8 2.1-1.8 5 0 0.8 0.2 1.4 0.3 0.7 0.5 1.3 0.2 0.7 0.4 1.3 0.3 0.6 0.3 1.3v0.7q0 0.1-0.2 0.5 0 0.3-0.1 0.8-0.1 0.4-0.2 0.8-0.1 0.4-0.1 0.5-0.1 1.3-0.1 2 0 0.8-0.1 1.4-0.1 0.6-0.5 1.1-0.5 0.5-1.6 1.2-0.1 0-0.3 0.2-0.2 0.1-0.5 0.3-0.2 0.2-0.5 0.4-0.2 0.1-0.2 0.1 0 0-0.2 0.1-0.2 0-0.4 0-1.1 0-1.6-0.7-0.4-0.7-0.6-1.6-0.2-0.9-0.3-1.9 0-1-0.1-1.6 0-0.5-0.2-0.8-0.2-0.4-0.5-0.8-0.2-0.4-0.4-0.8-0.2-0.4-0.2-0.9 0-0.7 0.3-1.3 0.3-0.6 0.5-1.1 0.3-0.6 0.6-1.2 0.3-0.6 0.3-1.3 0-1.5-0.7-3-0.6-1.5-1.6-2.8-1.1-1.3-2.5-2.1-1.4-0.8-2.9-0.8-0.7 0-1.6 0-0.9 0-1.5 0.5-0.1 0.1-0.5 0.5-0.3 0.3-0.8 0.7-0.4 0.4-0.8 0.8-0.4 0.3-0.5 0.4-0.8 0.7-1.5 1-0.6 0.3-1.1 0.7-0.5 0.3-0.7 1-0.3 0.6-0.3 2.1v0.9q0 0.1 0.1 0.8 0.1 0.5 0.2 1.3 0.1 0.7 0.1 1.3 0.1 0.6 0.1 0.7 0 0.2 0 0.9 0 0.6 0 1.4 0 0.7 0 1.3 0 0.7 0 0.9 0 0 0.1 0.4 0 0.3 0.1 0.6 0.1 0.3 0.2 0.7 0.1 0.3 0.1 0.3v1q0 0.8-0.5 1.9-0.4 1-1.5 1-0.4 0-1.2-0.3-0.7-0.4-1.6-0.8-0.8-0.5-1.5-0.9-0.6-0.4-0.7-0.6z"/>
</svg>