<svg version="1.2" xmlns="http://www.w3.org/2000/svg" viewBox="0 0 500 100" width="500" height="100">
	<style>
		.s0 { fill: #ffffff } 
	</style>
	<path id="Gemdation.com" class="s0" aria-label="Gemdation.com"  d="m20.5 51.3h17.8v21.5q-1 1.3-2.9 3.2-1.9 1.9-5.3 3.3-3.5 1.5-9.1 1.5-4.4 0-8.2-1.5-3.6-1.5-6.3-4.5-2.7-3.1-4.1-7.6-1.5-4.5-1.5-10.6v-10.8q0-6.1 1.2-10.6 1.3-4.6 3.7-7.6 2.4-3 6-4.5 3.7-1.5 8.5-1.5 5.6 0 9.5 2.1 3.9 2.1 6 6.1 2.2 3.9 2.5 9.5h-7.3q-0.3-3.6-1.5-6.1-1.2-2.6-3.5-3.9-2.2-1.4-5.7-1.4-3.3 0-5.6 1.1-2.3 1.1-3.8 3.3-1.4 2.2-2.1 5.6-0.6 3.3-0.6 7.8v10.9q0 4.6 0.9 8 0.9 3.4 2.6 5.6 1.7 2.2 4 3.3 2.4 1.1 5.4 1.1 3.3 0 5.3-0.7 1.9-0.7 2.9-1.7 1.1-0.9 1.7-1.4v-13.3h-10.5zm44.1 29.5q-3.9 0-7-1.2-3-1.1-5.2-3.5-2.2-2.3-3.3-5.9-1.2-3.6-1.2-8.5v-4.9q0-5.6 1.3-9.5 1.4-4 3.6-6.3 2.3-2.4 5.1-3.5 2.9-1.1 5.9-1.1 4 0 6.9 1.3 2.8 1.3 4.6 3.9 1.8 2.5 2.6 6.3 0.9 3.8 0.9 8.7v4h-26.8v-5.9h19.8v-1q-0.2-3.4-0.9-5.9-0.8-2.5-2.4-3.9-1.7-1.5-4.7-1.5-2 0-3.6 0.7-1.6 0.6-2.8 2.2-1.2 1.6-1.9 4.4-0.6 2.8-0.6 7.1v4.9q0 3.4 0.6 5.9 0.7 2.4 2 4.1 1.3 1.5 3.2 2.3 1.8 0.8 4.3 0.8 3.5 0 5.8-1.4 2.3-1.3 4-3.5l3.6 4.4q-1.1 1.6-3 3.1-1.8 1.5-4.5 2.5-2.6 0.9-6.3 0.9zm29.3-43.6l0.4 8.5v34.3h-7v-42.8zm-1 19.8l-3.3-0.2q0-4.4 0.9-8.1 0.9-3.7 2.7-6.5 1.9-2.8 4.7-4.3 2.8-1.5 6.5-1.5 2.4 0 4.5 0.9 2.2 0.8 3.7 2.6 1.6 1.8 2.5 4.7 0.9 2.8 0.9 6.9v28.5h-7v-28.2q0-3.4-0.9-5.4-0.9-2-2.5-2.9-1.6-0.9-3.9-0.9-2.5 0-4.3 1.1-1.7 1.1-2.7 3.2-1 2-1.4 4.6-0.4 2.6-0.4 5.5zm23-4.1l-4.6 1.5q-0.1-3.5 0.8-6.7 0.9-3.3 2.7-5.8 1.8-2.5 4.5-4 2.7-1.5 6.3-1.5 2.9 0 5.2 0.9 2.2 0.9 3.8 2.8 1.5 1.9 2.3 4.8 0.8 2.9 0.8 6.9v28.2h-7v-28.2q0-3.6-0.9-5.6-0.9-2-2.5-2.8-1.6-0.8-3.9-0.8-1.8 0-3.2 0.8-1.4 0.8-2.3 2.3-1 1.4-1.5 3.3-0.5 1.8-0.5 3.9zm55.4 27.1l-0.6-8.3v-52.5h7v60.8zm-24.5-19.4v-4q0-5.3 1-9.1 1-3.8 2.9-6.3 1.9-2.4 4.6-3.6 2.6-1.2 5.8-1.2 3.3 0 5.7 1.3 2.4 1.4 4 3.9 1.7 2.6 2.6 6.2 0.9 3.6 1.2 8.2v5.3q-0.3 4.5-1.3 8.1-0.9 3.6-2.5 6.1-1.6 2.6-4 3.9-2.4 1.4-5.8 1.4-3.1 0-5.7-1.3-2.6-1.2-4.6-3.7-1.9-2.6-2.9-6.3-1-3.8-1-8.9zm7-4v4q0 3.6 0.5 6.2 0.5 2.6 1.6 4.4 1.1 1.7 2.8 2.5 1.7 0.9 4.2 0.9 2.9 0 4.7-1.5 1.9-1.4 3-3.7 1.2-2.4 1.8-5.1v-11.3q-0.4-2-1.1-3.8-0.8-1.9-1.9-3.4-1.1-1.5-2.7-2.4-1.6-0.8-3.8-0.8-2.4 0-4.2 0.8-1.7 0.9-2.8 2.6-1.1 1.8-1.6 4.4-0.5 2.7-0.5 6.2zm55.4 16.1v-23.3q0-2.5-0.8-4-0.7-1.6-2.3-2.3-1.5-0.7-3.8-0.7-2.2 0-3.8 0.9-1.6 0.9-2.4 2.4-0.9 1.5-0.9 3.3h-7q0-2.3 1-4.5 1-2.3 2.9-4.1 1.9-1.8 4.6-2.9 2.7-1.1 6-1.1 4 0 7 1.3 3 1.3 4.8 4.1 1.7 2.9 1.7 7.7v21.1q0 2.2 0.3 4.6 0.4 2.4 1 4.1v0.7h-7.2q-0.5-1.3-0.8-3.4-0.3-2.1-0.3-3.9zm-4.8-18.7h5.9l0.1 5.2h-4.9q-2.4 0-4.5 0.5-2 0.6-3.5 1.6-1.4 1.1-2.2 2.6-0.8 1.6-0.8 3.5 0 2.6 0.7 4.1 0.7 1.5 2.2 2.2 1.4 0.7 3.6 0.7 2.6 0 4.6-1.2 2-1.3 3.1-3 1.2-1.7 1.1-3.2l1.6 3.2q-0.2 1.6-1.1 3.4-0.8 1.8-2.3 3.4-1.5 1.7-3.6 2.7-2 1.1-4.5 1.1-3.7 0-6.5-1.5-2.8-1.4-4.3-4.2-1.6-2.7-1.6-6.8 0-3.1 1.1-5.7 1-2.6 3.1-4.5 2.1-1.9 5.3-3 3.2-1.1 7.4-1.1zm18.5-16.8h20v5.6h-20zm6.5 32.1v-42.5h7v42.6q0 2.2 0.6 3.3 0.5 1.1 1.3 1.4 0.9 0.4 1.8 0.4 0.7 0 1.6-0.2 0.9-0.2 1.2-0.3l-0.1 6q-0.7 0.3-1.9 0.5-1.1 0.3-3 0.3-2.2 0-4.2-1.1-1.9-1.1-3.1-3.6-1.2-2.5-1.2-6.8zm22.4-32.1h7v42.8h-7zm-0.4-11.4q0-1.7 1-3 1-1.2 3-1.2 2 0 2.9 1.2 1.1 1.3 1.1 3 0 1.7-1.1 3-0.9 1.1-2.9 1.1-2 0-3-1.1-1-1.3-1-3zm16.4 34.8v-4q0-5 1.3-8.8 1.2-3.8 3.5-6.3 2.2-2.5 5.2-3.8 3.1-1.3 6.5-1.3 3.5 0 6.5 1.3 3 1.3 5.3 3.8 2.3 2.5 3.5 6.3 1.3 3.8 1.3 8.8v4q0 5-1.3 8.8-1.2 3.8-3.5 6.3-2.2 2.5-5.2 3.8-3 1.3-6.5 1.3-3.5 0-6.5-1.3-3-1.3-5.3-3.8-2.3-2.5-3.5-6.3-1.3-3.8-1.3-8.8zm7-4v4q0 3.6 0.7 6.2 0.7 2.7 2 4.4 1.3 1.8 3.1 2.7 1.7 0.9 3.8 0.9 2.3 0 4.1-0.9 1.8-0.9 3-2.7 1.2-1.7 1.8-4.4 0.6-2.6 0.6-6.2v-4q0-3.6-0.7-6.2-0.7-2.6-2-4.4-1.3-1.8-3.1-2.7-1.8-0.9-3.8-0.9-2 0-3.8 0.9-1.7 0.9-3 2.7-1.3 1.8-2 4.4-0.7 2.6-0.7 6.2zm42.1-19.4l0.4 9.1v33.7h-7v-42.8zm-1.3 19.8l-2.9-0.2q0-4.3 1-8.1 1.1-3.7 3-6.5 2-2.8 4.7-4.3 2.7-1.5 6.1-1.5 2.6 0 4.7 0.9 2.1 0.8 3.6 2.7 1.5 1.8 2.3 4.8 0.9 2.9 0.9 7.1v28.1h-7v-28.1q0-3.4-0.8-5.4-0.7-2.1-2.2-3-1.5-0.9-3.7-0.9-2.1 0-3.8 1.1-1.8 1.2-3.2 3.2-1.3 2-2 4.6-0.7 2.6-0.7 5.5zm34.1 19.1q0-1.9 1.1-3.1 1.2-1.3 3.4-1.3 2.3 0 3.4 1.3 1.2 1.2 1.2 3.1 0 1.8-1.2 3.1-1.1 1.3-3.4 1.3-2.2 0-3.4-1.3-1.1-1.3-1.1-3.1zm36.4-1.3q2.1 0 3.8-0.8 1.7-0.9 2.8-2.7 1.1-1.9 1.3-4.8h6.6q-0.2 4.2-2.2 7.5-2 3.2-5.2 5-3.2 1.8-7.1 1.8-4.2 0-7.2-1.4-3.1-1.3-5.1-3.8-2-2.6-3-6.3-1-3.6-1-8.3v-4.8q0-4.7 1-8.3 1-3.7 3-6.2 2-2.6 5.1-4 3-1.3 7.2-1.3 4.3 0 7.5 1.9 3.2 1.8 5 5.3 1.8 3.4 2 8.3h-6.6q-0.2-3.2-1.1-5.3-1-2.1-2.7-3.1-1.7-1.1-4.1-1.1-2.8 0-4.6 1-1.8 0.9-2.8 2.8-1 1.8-1.5 4.3-0.4 2.5-0.4 5.7v4.8q0 3.1 0.4 5.7 0.5 2.5 1.5 4.3 1 1.9 2.8 2.8 1.8 1 4.6 1zm20.7-14.2v-4q0-5 1.3-8.8 1.2-3.8 3.5-6.3 2.2-2.5 5.2-3.8 3-1.3 6.5-1.3 3.5 0 6.5 1.3 3 1.3 5.3 3.8 2.3 2.5 3.5 6.3 1.3 3.8 1.3 8.8v4q0 5-1.3 8.8-1.2 3.8-3.5 6.3-2.2 2.5-5.2 3.8-3.1 1.3-6.5 1.3-3.5 0-6.5-1.3-3-1.3-5.3-3.8-2.3-2.5-3.5-6.3-1.3-3.8-1.3-8.8zm7-4v4q0 3.6 0.7 6.2 0.7 2.7 2 4.4 1.3 1.8 3.1 2.7 1.7 0.9 3.8 0.9 2.3 0 4.1-0.9 1.8-0.9 3-2.7 1.2-1.7 1.8-4.4 0.6-2.6 0.6-6.2v-4q0-3.6-0.7-6.2-0.7-2.6-2-4.4-1.3-1.8-3.1-2.7-1.8-0.9-3.8-0.9-2 0-3.8 0.9-1.7 0.9-3 2.7-1.3 1.8-2 4.4-0.7 2.6-0.7 6.2zm42.1-19.4l0.4 8.5v34.3h-7v-42.8zm-1 19.8l-3.3-0.2q0-4.3 0.9-8.1 0.9-3.7 2.7-6.5 1.9-2.8 4.7-4.3 2.8-1.5 6.5-1.5 2.4 0 4.5 0.9 2.2 0.8 3.7 2.6 1.6 1.8 2.5 4.7 0.9 2.8 0.9 6.9v28.5h-7v-28.2q0-3.3-0.9-5.4-0.9-2-2.5-2.9-1.6-0.9-3.9-0.9-2.5 0-4.3 1.1-1.7 1.2-2.7 3.2-1 2-1.4 4.6-0.4 2.6-0.4 5.5zm23-4.1l-4.6 1.5q-0.1-3.5 0.8-6.7 0.9-3.3 2.7-5.8 1.8-2.5 4.5-4 2.7-1.5 6.3-1.5 2.9 0 5.2 0.9 2.2 0.9 3.8 2.8 1.5 1.9 2.3 4.8 0.8 2.9 0.8 7v28.1h-7v-28.2q0-3.6-0.9-5.6-0.9-2-2.5-2.8-1.6-0.8-3.9-0.8-1.8 0-3.2 0.8-1.4 0.8-2.3 2.3-1 1.4-1.5 3.3-0.5 1.8-0.5 3.9z"/>
</svg>