<svg version="1.2" xmlns="http://www.w3.org/2000/svg" viewBox="0 0 500 100" width="500" height="100">
	<style>
		.s0 { fill: #ffffff } 
	</style>
	<path id="Gemdation.com" class="s0" aria-label="Gemdation.com"  d="m44.7 50.9v22.4q-8.1 4.6-16.7 4.6-10.8 0-17.4-7.3-6.6-7.3-6.6-19.1 0-11.9 7.1-19.9 7.2-8 19.1-8 6.9 0 13.5 2.8v3.9q-7.2-3.4-14-3.4-9.9 0-16 6.8-6 6.8-6 17.3 0 11 5.7 17.3 5.6 6.3 15.2 6.3 7.1 0 12.5-3.1v-17.3h-12.4v-3.3zm39.9 7.5h-27.8q0 7.7 3.6 12.1 3.5 4.3 9.8 4.3 6.3 0 12.3-4.6v3.6q-5.8 4.1-13 4.1-7.3 0-11.7-5.2-4.5-5.2-4.5-14.7 0-8.2 4.6-13.8 4.7-5.6 12.2-5.6 7 0 10.7 4.9 3.8 4.9 3.8 13.4zm-27.6-3.1h24.1q-0.3-6.5-3.2-10.1-2.9-3.5-7.9-3.5-5.3 0-8.8 3.5-3.4 3.5-4.2 10.1zm87.4 21.7h-3.4v-22.6q0-7-2.2-9.9-2.2-2.8-7-2.8-4.4 0-7.7 3.8-3.2 3.8-3.2 9.5v22h-3.4v-22.8q0-12.5-9.5-12.5-4.5 0-7.6 3.8-3 3.8-3 9.9v21.6h-3.4v-37.5h3.4v6.2h0.1q3.9-7.1 11.5-7.1 4.1 0 7 2.4 2.9 2.3 3.9 6.2 1.8-4.1 5-6.3 3.3-2.3 7.2-2.3 12.3 0 12.3 15.2zm41.6 0h-3.4v-6.8h-0.1q-1.9 3.6-5.4 5.6-3.6 2.1-8.1 2.1-7 0-11.3-5-4.4-5.1-4.4-14 0-9.1 4.8-14.7 4.8-5.6 12.4-5.6 8.4 0 12 6.9h0.1v-24h3.4zm-3.4-15.8v-7q0-5.3-3.3-8.9-3.3-3.6-8.9-3.6-5.9 0-9.7 4.5-3.9 4.5-3.9 12.4 0 7.8 3.5 12 3.4 4.2 8.9 4.2 6.4 0 9.9-3.9 3.5-4 3.5-9.7zm41.2 15.8h-3.4v-7.5h-0.1q-1.8 3.8-5.3 6.1-3.4 2.3-7.5 2.3-5.4 0-8.5-3-3.1-3-3.1-7.6 0-9.8 13-11.8l11.5-1.8q0-12-9.1-12-6.2 0-12 4.9v-4q2.1-1.7 5.6-2.8 3.6-1.2 6.8-1.2 5.7 0 8.9 3.6 3.2 3.6 3.2 10.4zm-3.4-20.2l-10.3 1.5q-5.9 0.9-8.3 2.8-2.4 1.8-2.4 6.1 0 3.3 2.2 5.5 2.3 2.1 6.2 2.1 5.4 0 9-3.9 3.6-4.1 3.6-10.4zm29.4 16.5v3.2q-2.6 1.2-4.9 1.2-8.3 0-8.3-10v-25.2h-6.8v-3h6.8v-9.8q0.8-0.3 1.7-0.6 0.8-0.2 1.6-0.5v10.9h9.9v3h-9.9v24.8q0 3.9 1.3 5.6 1.2 1.8 4.1 1.8 2.1 0 4.5-1.4zm8.9-43.3q-1.1 0-2-0.8-0.8-0.8-0.8-2 0-1.2 0.8-2 0.9-0.7 2-0.7 1.1 0 1.9 0.7 0.9 0.7 0.9 2 0 1.1-0.8 2-0.9 0.8-2 0.8zm1.7 47h-3.4v-37.5h3.4zm26.7 0.9q-8.2 0-13-5.4-4.8-5.4-4.8-14.1 0-9.3 5-14.6 5-5.2 13.2-5.2 8 0 12.6 5.2 4.7 5.2 4.7 14.5 0 8.7-4.8 14.2-4.7 5.4-12.9 5.4zm0.2-36.3q-6.6 0-10.6 4.5-3.9 4.5-3.9 12.4 0 7.4 3.9 11.8 3.8 4.5 10.5 4.5 6.7 0 10.4-4.4 3.7-4.4 3.7-12.2 0-8-3.7-12.3-3.6-4.3-10.3-4.3zm55.6 35.4h-3.4v-21.9q0-13.5-9.8-13.5-5.4 0-8.8 4-3.5 4-3.5 9.8v21.6h-3.4v-37.5h3.4v6.8h0.1q4.1-7.7 12.8-7.7 6.1 0 9.3 4 3.3 4.1 3.3 11.6zm13.4 0.6q-1.2 0-2.1-0.8-0.8-0.9-0.8-2.1 0-1.3 0.8-2.1 0.9-0.9 2.1-0.9 1.3 0 2.1 0.9 0.9 0.8 0.9 2.1 0 1.2-0.9 2.1-0.8 0.8-2.1 0.8zm39-5.8v3.5q-4.2 2.6-10 2.6-7.6 0-12.3-5.3-4.7-5.2-4.7-13.7 0-9 5.3-14.6 5.2-5.8 13.5-5.8 4.3 0 8.3 1.8v3.8q-4-2.5-8.8-2.5-6.6 0-10.7 4.8-4.1 4.7-4.1 12.2 0 7.3 3.7 11.8 3.8 4.4 10 4.4 5.6 0 9.8-3zm23.8 6.1q-8.2 0-13-5.4-4.8-5.4-4.8-14.1 0-9.3 5-14.6 5-5.3 13.2-5.3 8 0 12.6 5.3 4.7 5.2 4.7 14.5 0 8.7-4.8 14.2-4.7 5.4-12.9 5.4zm0.2-36.3q-6.6 0-10.6 4.5-3.9 4.5-3.9 12.4 0 7.4 3.9 11.8 3.8 4.5 10.5 4.5 6.7 0 10.4-4.4 3.7-4.4 3.7-12.2 0-8-3.7-12.3-3.6-4.3-10.3-4.3zm77.1 35.4h-3.4v-22.6q0-7.1-2.2-9.9-2.2-2.9-7-2.9-4.4 0-7.7 3.8-3.2 3.8-3.2 9.6v22h-3.4v-22.9q0-12.5-9.5-12.5-4.5 0-7.6 3.9-3 3.8-3 9.9v21.6h-3.4v-37.5h3.4v6.2h0.1q3.9-7.2 11.5-7.2 4.1 0 7 2.4 2.9 2.4 3.9 6.2 1.8-4.1 5-6.3 3.3-2.3 7.2-2.3 12.3 0 12.3 15.3z"/>
</svg>