<svg version="1.2" xmlns="http://www.w3.org/2000/svg" viewBox="0 0 500 100" width="500" height="100">
	<style>
		.s0 { fill: #ffffff } 
	</style>
	<path id="Gemdation.com" class="s0" aria-label="Gemdation.com"  d="m45.5 45.5v19.4q-1.8 4.4-6 7.3-4.1 3-10.1 3.5-0.6 0.1-1.1 0.1-0.6 0-1.1 0-4.7 0-8.9-1.6-4.1-1.6-7.4-4.9-3.2-3.3-5.1-8.3-1.8-5-1.8-11.9 0-5.2 1.3-9.8 1.3-4.7 3.8-8.3 2.5-3.6 6.1-5.7 3.6-2.2 8.1-2.6 0.4-0.1 0.8-0.1 0.3 0 0.7 0 4.5 0 8.8 2.1 4.4 2 7.6 5.6 3.3 3.5 4.6 8l-7.3 4.1h0.8zm-6.7-2.5l-18.5 1.6v8.8l9.5-0.8v5.3q-0.8 1.6-2.6 2.8-1.7 1.1-3.6 1.3-0.3 0-0.6 0-0.2 0-0.5 0-4.1 0-6.1-3.2-2.1-3.2-2.1-10.5 0-6.6 2.1-10.5 2.2-3.9 6.8-4.2h0.7q2.5 0 4.3 1.4 1.9 1.5 2.7 4.4l8-4.5q-1.1-3-2.9-5.6-1.8-2.7-4.5-4.4-2.8-1.6-6.7-1.6-0.3 0-0.7 0-0.3 0-0.7 0-5.9 0.5-10.1 4.1-4.2 3.6-6.5 9.3-2.2 5.6-2.2 12.4 0 7.1 2.1 12.2 2 5.2 5.8 8 3.8 2.8 9 2.8 0.4 0 0.8 0 0.4 0 0.8-0.1 5.9-0.5 9.8-3.3 4.1-2.8 5.9-7zm-3.3-0.3l-5-2.4q-0.2-0.9-0.5-1.6-0.3-0.8-0.7-1.5-2.8 0.3-4.6 2-1.7 1.7-2.6 4.6zm-6.3 14.2l-3 0.4-4.8-2.5q0.1 2.5 0.4 3.9 0.5 1.4 1.3 2.7 0.2-0.1 0.4-0.1 1.6-0.1 3.2-1 1.7-0.9 2.5-2.1zm49.5 3.7l6.3 3q-1.7 5.2-5 8.4-3.2 3.3-8.8 3.8-0.7 0-1.4 0.1-0.6 0-1.3 0-5.4 0-9.7-2.2-4.3-2.2-6.8-6.6-2.6-4.4-2.6-10.9 0-5.7 2-9.9 1.9-4.1 5.3-6.5 3.4-2.4 7.7-2.8 0.5 0 0.9 0 0.5 0 0.9 0 3.5 0 6.9 1.2 3.4 1.2 6.1 3.7 2.8 2.6 4.4 6.6 1.7 4 1.7 9.5 0 0.5 0 1.1 0 0.5-0.1 1zm-0.8 0.3l-7.6-2.1q-0.5 2.1-2 3.5-1.5 1.3-3.9 1.6h-0.4q-2.2 0-3.5-1.6-1.4-1.5-1.4-4.3l19.3-1.6q0.1-0.7 0.1-1.2 0-0.6 0-1.2 0-7.8-3.4-12.1-3.3-4.4-9.2-4.4-0.3 0-0.7 0-0.3 0-0.7 0.1-4.1 0.3-7.4 2.6-3.3 2.3-5.2 6.4-1.8 4-1.8 9.5 0 8 3.6 12 3.6 3.9 9.5 3.9 0.4 0 0.9 0 0.4 0 0.8 0 5.4-0.4 8.5-3.5 3.1-3 4.5-7.6zm-8.6-10.7l-9.9 0.9q0-2.1 1.5-3.5 1.4-1.5 3.6-1.7h0.6q1.8 0 3 1.1 1.2 1.1 1.2 3.2zm-1.2 11.3l-3.7 0.4q0 0.3 0.3 0.6 0.3 0.3 0.6 0.6 1.1-0.3 1.8-0.7 0.6-0.5 1-0.9zm59.8 13.1l-5.8-3v2.9l-10 0.9-5.9-3.1v3l-10.1 0.8-6.2-3.1v-34l9.5-0.8 1.7 1.5q1-0.9 2.4-1.6 1.4-0.6 2.9-0.8 0.3 0 0.5 0 0.2 0 0.5 0 2.5 0 4.7 1.1 2.2 1.2 3.4 2.7 0.8-1.6 2.6-3 1.7-1.4 4.2-1.6 0.3 0 0.6 0 0.4 0 0.8 0 3.7 0 7 1.4 3.3 1.4 5.3 4.1 2 2.7 2 6.5v25.3zm3.3-4.5v-24.7q0-4.2-2.2-6.3-2.2-2-5.6-2-0.2 0-0.5 0-0.2 0-0.5 0-2 0.2-3.6 1.3-1.5 1-2.4 2.5-0.9 1.5-1.3 3.1l-0.2-0.1q-0.5-2.2-2.3-4.1-1.8-1.9-5.2-1.9-0.2 0-0.5 0-0.2 0-0.4 0-3 0.3-5 2.4-2 2.1-2.5 4.8h-0.2v-6.2l-8.2 0.7v32.8l8.8-0.7v-20.3q0.3-1.6 1.3-2.8 1-1.2 2.6-1.4h0.5q1.3 0 2 1 0.8 0.8 0.8 2.9v20.6l8.7-0.8v-20.3q0.3-1.5 1.2-2.7 1-1.3 2.6-1.4h0.5q1.3 0 2 0.9 0.8 0.8 0.8 2.9v20.6zm37 3.7l-1.4-0.7q-1 0.8-2.3 1.4-1.3 0.6-3.1 0.8-0.5 0-1.1 0-0.6 0-1.1 0-4.9 0-8.8-2-3.7-2.1-5.9-6.5-2.1-4.4-2.1-11.4 0-8.8 3.3-13.6 3.4-4.8 9.6-5.3 0.2 0 0.4 0 0.3-0.1 0.5-0.1 1.7 0 3 0.4 1.2 0.3 2.2 0.6v-13.7l10.1-0.9 6.2 3.1v47.2zm2.7-50.3l-8.9 0.7v15.5l-0.2 0.1q-0.4-1.3-1.9-2-1.5-0.8-3.7-0.8-0.2 0-0.4 0-0.2 0-0.5 0-5.9 0.6-9.1 5.2-3.2 4.6-3.2 13.1 0 8.2 3 12.3 3 4 8.1 4 0.3 0 0.5 0 0.4 0 0.6 0 2.9-0.3 4.7-1.8 1.8-1.6 2.6-3.5l0.1 0.1v3.7l8.3-0.7zm-13.7 39.9h-0.4q-2 0-3.4-2-1.4-2.1-1.4-6.8 0-4.8 1.3-6.9 1.3-2.1 4-2.3h0.6q1.6 0 2.7 0.8 1.1 0.8 1.4 2.1v8.6q0 2.7-1.3 4.5-1.3 1.8-3.5 2zm4.2-6.5v-7.1q-1.4 0.2-2 2-0.5 1.8-0.5 5.9 0 1.3 0 2.4 0.1 1.2 0.4 1.9 2.1-1.7 2.1-5.1zm55.2 6.8l-0.9 9.2q-2 0.8-4.1 0.8-2 0-3.6-0.5-1.6-0.5-2.4-1-2.8 3.3-8 3.8-0.5 0-1 0-0.5 0-1 0-3.9 0-7.1-1.3-3.2-1.4-5.2-4-1.9-2.7-1.9-6.7 0-4.3 2.3-6.8 2.4-2.6 7.2-4.9l-3.1-1-6.2-3.1q1.5-5.4 5-8.1 3.5-2.8 8-3.2 0.5-0.1 1.1-0.1 0.6 0 1 0 4.5 0 8.2 1.6 3.6 1.7 5.8 4.7 2.2 3 2.2 7v11.8zm-7.8 5.7l0.8-7.8q-1.5 0.7-2.2 0.7-1.4 0-1.4-1.8v-13.6q0-9.5-9.6-9.5-0.5 0-0.9 0-0.4 0-0.9 0.1-4.3 0.4-7.7 2.9-3.3 2.6-4.7 7.4l7 2.3q0.6-2.1 1.8-3.4 1.3-1.3 2.8-1.4 0.2 0 0.4 0 0.2-0.1 0.3-0.1 1.4 0 2.2 0.7 0.7 0.7 0.7 1.8 0 1.3-0.8 2.2-0.8 0.7-2.2 1.4l-2.8 1.3q-4.8 2.2-7.3 4.7-2.4 2.4-2.4 6.6 0 8.3 7.8 8.3 0.4 0 0.8 0 0.3 0 0.7 0 3-0.3 5.2-1.5 2.1-1.1 3.2-3.3 0.5 1.3 1.9 2 1.4 0.8 3.3 0.8 2.1 0 4-0.8zm-15.4-4.4h-0.5q-1 0-1.7-0.6-0.7-0.6-0.7-1.7 0-2.7 2.8-4l1.2-0.6q0.9-0.4 1.7-0.8 0.8-0.4 1.3-0.9v4.2q-0.3 2-1.5 3.1-1.2 1.2-2.6 1.3zm53.5-0.5l-1.9 10.2q-1.5 0-2.8 0.1-1.3 0.1-2.6 0.1-8.8 0-13-3.2-4.2-3.2-4.2-10.6v-11.9l-4-2v-9.3l4-0.3v-10.1l10-1 6.2 3.1v7.2l5.2 2.5v9.4l-5.2 0.4v12.5l2.1-0.2zm-8.7 6.5l1.7-8.9q-1.3 0.2-2.4 0.3-1 0-1.8 0-2.6 0-3.3-0.9-0.6-0.9-0.6-3.2v-12.9l5.2-0.4v-8.1l-5.2 0.4v-10.1l-8.8 0.8v10.1l-4 0.3v8.2l4-0.3v14.8q0 3.7 0.9 5.9 1 2.3 3.2 3.2 2.3 1 6.3 1 1.1 0 2.3 0 1.1-0.1 2.5-0.2zm18.1 3.6l-6.2-3v-34.1l4.2-0.4-4.3-2.1v-10.6l10.3-0.8 6.2 3.1v10.5l-4.4 0.4 4.2 2.1v34zm3.4-50.3l-9.1 0.7v9.3l9.1-0.7zm-0.1 13l-8.9 0.7v32.9l8.9-0.7zm33.2 38.2q-0.6 0.1-1.3 0.1-0.6 0-1.3 0-5.5 0-9.8-2.3-4.3-2.3-6.7-6.7-2.4-4.4-2.4-10.7 0-4.9 1.6-9 1.7-4.2 5.1-7 3.4-2.7 8.5-3.1 0.5-0.1 1-0.1 0.5 0 1 0 4 0 7.4 1.4 3.6 1.5 6.2 4.1 2.8 2.6 4.3 6.2 1.6 3.6 1.6 8 0 4.9-1.7 9.1-1.6 4.2-5 6.8-3.3 2.7-8.5 3.2zm-6.2-3.7q4.9-0.4 8.2-3 3.2-2.7 4.7-6.7 1.7-4.1 1.7-8.8 0-4.5-1.5-8.1-1.3-3.6-4.3-5.7-2.8-2.2-7.3-2.2-0.3 0-0.7 0-0.4 0-0.8 0.1-5 0.4-8.3 3.1-3.2 2.6-4.8 6.6-1.5 4-1.5 8.8 0 4.5 1.4 8.1 1.4 3.6 4.3 5.7 2.9 2.2 7.3 2.2 0.4 0 0.8 0 0.3 0 0.8-0.1zm0-8.6h-0.6q-2.3 0-3.6-1.9-1.2-2-1.2-6.2 0-4.3 1.4-6.5 1.4-2.2 4-2.5h0.5q2.3 0 3.6 2 1.2 1.9 1.2 6 0 4.4-1.4 6.7-1.4 2.2-3.9 2.4zm1.8-1.1q2.9-1.7 2.9-8 0-2.1-0.4-3.7-1.6 0.2-2.3 2.2-0.6 2-0.6 5.6 0 2.2 0.4 3.9zm47.1 12.4l-6.2-3v-19.4q-0.7 0.7-0.9 1.7v20.6l-9.4 0.9-6.2-3.1v-34l9.5-0.9 2 1.6q1-0.8 2.3-1.5 1.2-0.8 3-0.9 0.3 0 0.5 0 0.3 0 0.5 0 2.8 0 5.5 0.9 2.7 1 4.8 2.8 2.2 1.8 3.4 4.1 1.3 2.4 1.3 5.1v24.3zm3.3-4.6v-24.7q0-4.2-2.4-6.2-2.2-2-5.7-2-0.2 0-0.5 0-0.3 0-0.6 0.1-3 0.2-5.1 2.3-2.1 2.1-2.6 4.8h-0.2v-6.3l-8.3 0.8v32.8l8.9-0.8v-20.1q0.3-1.5 1.4-2.7 1.1-1.3 2.8-1.5h0.3q1.3 0 2.2 1 0.9 0.8 0.9 2.9v20.4zm16.5 5.8l-6.2-3.1v-12.2l11.2-0.9 6.2 3.1v12.2zm4.3-15.6l-9.9 0.9v10.9l9.9-0.8zm38.4-1.3l6.2 3.1q-1 6.1-4.4 9.6-3.2 3.5-9 4-0.6 0-1.2 0.1-0.6 0-1.2 0-3.9 0-7.3-1.1-3.5-1.1-6.1-3.4-2.6-2.4-4.2-6.2-1.5-3.8-1.5-9.1 0-5.3 1.8-9.5 1.9-4.2 5.3-6.7 3.4-2.5 8.1-2.9 0.3-0.1 0.7-0.1 0.4 0 0.7 0 3 0 6 0.9 3 0.9 5.7 2.6 2.7 1.6 4.5 4.1 1.8 2.4 2.1 5.6l-8.6 4-6.2-3.1q0-0.1 0-0.2 0-0.1 0-0.2-1.8 0.5-2.5 2.1-0.8 1.5-0.8 5.7 0 1.2 0.2 2 0.2 0.9 0.5 1.7 1.1-0.5 1.7-1.7 0.6-1.1 1-3.2zm-0.8 0.5l-7.3-1.5q-0.4 2.5-1.8 3.9-1.3 1.3-3.1 1.5-0.2 0-0.4 0.1-0.2 0-0.3 0-2.7 0-3.8-2.1-1.1-2.1-1.1-6.2 0-4.2 1.4-6.4 1.5-2.2 4-2.4 0.2 0 0.3 0 0.2-0.1 0.4-0.1 3.6 0 4.3 3.8l7.4-3.5q-0.8-4-3.8-6.6-3-2.5-7.6-2.5-0.3 0-0.7 0-0.3 0-0.6 0.1-4.6 0.3-7.8 2.8-3.3 2.4-5.1 6.5-1.7 4-1.7 9.1 0 5.7 1.7 9.2 1.6 3.6 4.6 5.2 2.9 1.6 6.6 1.6 0.4 0 0.9 0 0.4 0 0.8 0 5.5-0.5 8.6-3.7 3.2-3.4 4.1-8.8zm30.6 16.1q-0.6 0.1-1.3 0.2-0.6 0-1.3 0-5.6 0-9.9-2.3-4.3-2.3-6.7-6.7-2.3-4.5-2.3-10.8 0-4.9 1.6-9 1.7-4.2 5-7 3.4-2.7 8.6-3.1 0.5-0.1 1-0.1 0.5 0 0.9 0 4 0 7.5 1.4 3.5 1.5 6.2 4.1 2.7 2.6 4.3 6.2 1.5 3.6 1.5 8 0 4.9-1.7 9.2-1.6 4.1-4.9 6.8-3.4 2.6-8.5 3.1zm-6.3-3.7q5-0.4 8.2-3 3.2-2.6 4.8-6.7 1.6-4.1 1.6-8.8 0-4.5-1.4-8.1-1.4-3.6-4.3-5.7-2.9-2.2-7.3-2.2-0.4 0-0.8 0-0.3 0-0.8 0.1-4.9 0.4-8.2 3.1-3.2 2.6-4.9 6.6-1.5 4.1-1.5 8.8 0 4.5 1.4 8.2 1.4 3.6 4.4 5.7 2.9 2.1 7.3 2.1 0.3 0 0.7 0 0.4 0 0.8-0.1zm0-8.5h-0.5q-2.3 0-3.6-2-1.3-2-1.3-6.2 0-4.3 1.5-6.5 1.4-2.2 3.9-2.5h0.6q2.3 0 3.5 2 1.3 2 1.3 6 0 4.4-1.5 6.7-1.3 2.2-3.9 2.5zm1.8-1.2q2.9-1.6 2.9-8 0-2.1-0.3-3.7-1.6 0.3-2.3 2.3-0.6 1.9-0.6 5.5 0 2.3 0.3 3.9zm61.5 12.4l-5.9-3.1v3l-9.9 0.9-5.9-3.1v3l-10.1 0.8-6.2-3.1v-34l9.4-0.8 1.7 1.5q1-1 2.4-1.6 1.5-0.7 3-0.8 0.2 0 0.4 0 0.2 0 0.5 0 2.5 0 4.7 1.1 2.2 1.2 3.4 2.7 0.9-1.6 2.6-3 1.7-1.4 4.2-1.6 0.3 0 0.6 0 0.4-0.1 0.8-0.1 3.8 0 7.1 1.5 3.2 1.4 5.2 4.1 2.1 2.7 2.1 6.5v25.3zm3.3-4.5v-24.7q0-4.2-2.3-6.3-2.2-2-5.6-2-0.2 0-0.4 0-0.3 0-0.6 0-2 0.2-3.5 1.3-1.5 1-2.5 2.5-0.9 1.5-1.3 3h-0.1q-0.5-2.2-2.4-4.1-1.8-1.9-5.1-1.9-0.3 0-0.5 0-0.2 0-0.5 0-3 0.3-5 2.4-2 2.1-2.5 4.8h-0.2v-6.2l-8.2 0.6v32.8l8.9-0.6v-20.3q0.3-1.6 1.2-2.8 1-1.2 2.7-1.4h0.4q1.3 0 2 1 0.8 0.8 0.8 2.9v20.6l8.7-0.8v-20.3q0.3-1.5 1.3-2.7 1-1.3 2.6-1.4h0.4q1.4 0 2.1 0.9 0.7 0.8 0.7 2.9v20.6z"/>
</svg>