<svg version="1.2" xmlns="http://www.w3.org/2000/svg" viewBox="0 0 500 100" width="500" height="100">
	<style>
		.s0 { fill: #ffffff } 
	</style>
	<path id="Gemdation.com" class="s0" aria-label="Gemdation.com"  d="m26.5 74q-5 0-9.5-1.8-4.4-1.8-7.9-5.1-3.3-3.2-5.3-7.6-1.9-4.5-1.9-9.8 0-5.2 1.9-9.7 2-4.4 5.3-7.7 3.4-3.2 7.8-5.1 4.5-1.8 9.6-1.8 5.6 0 10.1 2 4.5 1.9 7.6 5.4l-6 5.9q-1.5-1.6-3.3-2.7-1.7-1.1-3.8-1.7-2.1-0.6-4.7-0.6-3.2 0-6 1.2-2.8 1.1-5 3.3-2.2 2-3.4 5-1.2 2.9-1.2 6.5 0 3.7 1.2 6.6 1.2 2.9 3.4 5.1 2.2 2 5.1 3.2 2.8 1.1 6.1 1.1 3.2 0 5.7-0.9 2.6-0.9 4.3-2.5 1.9-1.5 2.9-3.4 1.1-2 1.4-4h-14.6v-7.4h22.8q0.2 0.6 0.3 1.9 0.2 1.3 0.2 2.2 0 5.1-1.8 9.2-1.7 4.2-4.8 7.2-3 2.9-7.3 4.5-4.2 1.5-9.2 1.5zm46.1 0q-5 0-8.9-2.2-3.9-2.3-6.2-6.3-2.2-3.9-2.2-9 0-4.8 2.2-8.8 2.2-4 6-6.4 3.9-2.5 8.8-2.5 5.3 0 9 2.3 3.6 2.3 5.5 6.1 1.9 3.8 1.9 8.4 0 1-0.1 1.8 0 0.7-0.1 1h-28.5v-6h20.5q-0.1-1.1-0.7-2.3-0.5-1.1-1.6-2.1-1-1-2.5-1.6-1.4-0.6-3.3-0.6-2.5 0-4.6 1.3-2 1.3-3.2 3.6-1.1 2.3-1.1 5.5 0 3.3 1.2 5.6 1.2 2.3 3.3 3.5 2.2 1.2 4.8 1.2 3 0 5.1-1.3 2.1-1.4 3.2-3.4l6.9 3.4q-2.3 4.1-6.1 6.5-3.7 2.3-9.3 2.3zm31-1h-8.5v-33.1h8v4.1h0.5q1.1-1.5 2.5-2.7 1.5-1.2 3.4-1.8 2-0.7 4.2-0.7 3.6 0 6.2 1.7 2.6 1.7 3.6 4.2 1.5-2.4 4.2-4.1 2.8-1.8 6.9-1.8 5.8 0 8.7 3.5 2.9 3.5 2.9 9.4v21.3h-8.5v-19.8q0-3.1-1.5-4.8-1.5-1.7-4-1.7-2.2 0-3.9 1.3-1.6 1.1-2.5 3.3-0.9 2.1-0.9 5v16.7h-8.5v-19.8q0-3.1-1.5-4.8-1.5-1.7-4.3-1.7-2.1 0-3.7 1.3-1.6 1.1-2.4 3.3-0.9 2.1-0.9 5zm64.7 1q-4.5 0-8.2-2.2-3.6-2.2-5.7-6.2-2.1-4-2.1-9.2 0-5.2 2.1-9.1 2.1-4 5.7-6.2 3.7-2.3 8.2-2.3 2.4 0 4.4 0.7 1.9 0.7 3.4 1.9 1.4 1.2 2.2 2.5h0.5l-0.5-4.7v-12.7h8.4v46.5h-7.9v-4h-0.5q-0.8 1.3-2.2 2.5-1.5 1.1-3.4 1.8-2 0.7-4.4 0.7zm1.5-7.8q2.4 0 4.4-1.3 2.1-1.2 3.3-3.3 1.3-2.3 1.3-5.2 0-2.9-1.3-5-1.2-2.3-3.3-3.4-2-1.3-4.4-1.3-2.4 0-4.5 1.3-2 1.1-3.3 3.3-1.2 2.1-1.2 5.1 0 2.9 1.2 5.2 1.3 2.2 3.3 3.4 2.1 1.2 4.5 1.2zm35.5 7.8q-3.5 0-6.2-1.3-2.7-1.5-4.3-4-1.5-2.5-1.5-5.8 0-3.5 1.7-6 1.8-2.4 4.8-3.8 3.1-1.4 6.8-1.4 2 0 3.6 0.3 1.7 0.2 3 0.5 1.3 0.3 2.2 0.7v-1.4q0-2.7-2-4.3-2.1-1.8-5.6-1.8-2.3 0-4.5 1.1-2.2 1-3.6 2.8l-5.5-4.3q1.7-2.1 3.8-3.5 2.2-1.5 4.8-2.2 2.6-0.8 5.4-0.8 7.6 0 11.6 3.5 4 3.5 4 10.3v20.4h-8.4v-3.4h-0.5q-1 1.2-2.3 2.2-1.4 1-3.2 1.7-1.8 0.5-4.1 0.5zm2-6.6q2.6 0 4.4-1.1 1.8-1.2 2.7-3 1-1.8 1-3.8-1.5-0.7-3.3-1.1-1.8-0.5-3.7-0.5-3.8 0-5.2 1.4-1.4 1.5-1.4 3.6 0 1.9 1.4 3.2 1.4 1.3 4.1 1.3zm26.4-20.3h-6.1v-7.3h6.1zm10.7 26.4q-5.1 0-8.1-2.9-2.9-3-2.9-8.2v-31.9h8.5v30.4q0 2.4 1 3.5 1 1.1 3.2 1.1 1 0 1.9-0.2 0.9-0.3 2.3-1.2v8.3q-1.4 0.6-2.9 0.9-1.4 0.2-3 0.2zm5.7-26.4h-8.5v-7.2h8.5zm15.5 25.8h-8.5v-33.1h8.5zm-4.2-36.8q-2.3 0-3.9-1.6-1.6-1.7-1.6-3.9 0-2.3 1.6-3.9 1.6-1.6 3.9-1.6 2.3 0 3.8 1.6 1.6 1.6 1.6 3.9 0 2.2-1.6 3.9-1.5 1.6-3.8 1.6zm28.5 37.8q-5.1 0-9.2-2.2-3.9-2.4-6.2-6.4-2.2-4-2.2-9 0-5 2.2-9 2.3-4 6.2-6.3 4-2.3 9.2-2.3 5.3 0 9.2 2.4 4 2.3 6.2 6.3 2.3 3.9 2.3 8.9 0 5-2.3 9-2.2 4-6.2 6.4-4 2.2-9.2 2.2zm0.1-7.9q2.4 0 4.4-1.1 2.1-1.2 3.4-3.3 1.3-2.2 1.3-5.3 0-3-1.3-5.2-1.3-2.1-3.4-3.3-2-1.2-4.4-1.2-2.4 0-4.6 1.2-2.1 1.2-3.4 3.4-1.2 2.1-1.2 5.1 0 3.1 1.2 5.3 1.3 2.1 3.4 3.3 2.2 1.1 4.6 1.1zm32.6 6.9h-8.5v-33.2h8v4.2h0.5q1.5-2.4 4.2-3.8 2.8-1.4 5.9-1.4 6.2 0 9.2 3.7 3.1 3.7 3.1 9.9v20.6h-8.5v-19.6q0-3.2-1.7-4.9-1.7-1.8-4.5-1.8-2.4 0-4.1 1.3-1.7 1.3-2.7 3.4-0.9 2.1-0.9 4.7zm34.6 0.4q-2.3 0-4-1.6-1.6-1.7-1.6-4.1 0-2.3 1.6-3.9 1.7-1.7 4-1.7 2.4 0 4 1.7 1.7 1.6 1.7 3.9 0 2.4-1.7 4.1-1.6 1.6-4 1.6zm28.5 0.6q-5.1 0-9-2.2-3.9-2.3-6.2-6.2-2.2-4.1-2.2-9.2 0-5.1 2.2-9.1 2.3-4 6.2-6.2 3.9-2.3 9-2.3 5.5 0 9.5 2.3 4 2.4 5.7 6.8l-7.8 3.2q-1-2.2-2.9-3.3-1.9-1.1-4.5-1.1-2.5 0-4.6 1.3-2 1.1-3.1 3.3-1.2 2.1-1.2 5.1 0 3 1.2 5.2 1.1 2.2 3.1 3.4 2.1 1.2 4.6 1.2 2.9 0 4.7-1.3 1.9-1.3 3.1-3.5l7.6 3.4q-1.9 4.2-5.9 6.7-4 2.5-9.5 2.5zm36.2 0q-5.1 0-9.2-2.2-3.9-2.4-6.2-6.4-2.2-4-2.2-9 0-5 2.2-9 2.3-4 6.2-6.3 4-2.3 9.2-2.3 5.3 0 9.2 2.4 4 2.3 6.2 6.3 2.3 3.9 2.3 8.9 0 5-2.3 9-2.2 4-6.2 6.4-4 2.2-9.2 2.2zm0.1-7.9q2.4 0 4.4-1.1 2.1-1.2 3.4-3.3 1.3-2.2 1.3-5.3 0-3-1.3-5.2-1.3-2.1-3.4-3.3-2-1.2-4.4-1.2-2.5 0-4.6 1.2-2.1 1.2-3.4 3.4-1.2 2.1-1.2 5.1 0 3.1 1.2 5.3 1.3 2.1 3.4 3.3 2.2 1.1 4.6 1.1zm32.6 6.9h-8.5v-33.2h8v4.2h0.5q1-1.6 2.5-2.7 1.5-1.2 3.4-1.9 2-0.6 4.2-0.6 3.6 0 6.2 1.7 2.6 1.7 3.6 4.1 1.5-2.4 4.2-4 2.8-1.8 6.9-1.8 5.8 0 8.7 3.5 2.9 3.5 2.9 9.4v21.3h-8.5v-19.8q0-3.2-1.5-4.8-1.5-1.7-4-1.7-2.2 0-3.9 1.3-1.6 1.1-2.5 3.3-0.9 2.1-0.9 5v16.7h-8.5v-19.8q0-3.2-1.5-4.8-1.5-1.7-4.3-1.7-2.1 0-3.7 1.3-1.6 1.1-2.4 3.3-0.9 2.1-0.9 5z"/>
</svg>