<svg version="1.2" xmlns="http://www.w3.org/2000/svg" viewBox="0 0 500 100" width="500" height="100">
	<style>
		.s0 { fill: #ffffff } 
	</style>
	<path id="Gemdation.com" class="s0" aria-label="Gemdation.com"  d="m15.8 55.7q-0.4 0-0.7 0-1.4-0.4-2-1.1-0.6-0.8-0.7-1.3-0.7-1.9 0.4-4 1.1-2.1 2.8-4.4 0.5-0.7 0.9-1.5 0.6-0.9 0.9-1.5 0.1-0.1 0.3-0.4-0.5 0.2-1.3 0.5-0.7 0.4-1.7 1.1-1.6 1-3.4 2.6-1.8 1.5-3.7 3.2-0.4 0.4-0.9 0.8-0.5 0.4-0.9 0.9-0.8 0.7-2 0.7-1-0.1-1.8-1-0.8-0.8-0.7-1.8 0.1-1.2 0.9-1.9 0.5-0.5 0.9-0.9 0.5-0.5 1-0.8 2.8-2.6 5.6-4.7 2.8-2.3 5.4-3.4 2.7-1.2 5.2-0.5 1.5 0.4 2.1 1.3 0.7 0.8 0.8 1.4 0.8 2-0.3 4.2-1.2 2.1-3 4.7-0.1 0.2-0.4 0.6-0.2 0.4-0.5 0.8 1.4-0.6 3.5-1.4 2.1-0.8 5.2-1.9 1.1-0.4 2.1 0.1 1 0.5 1.3 1.6 0.5 0.9 0 2-0.5 1-1.5 1.4-2.8 1-5.1 1.8-2.3 0.8-3.9 1.4-0.9 0.4-1.6 0.6-0.7 0.2-1.2 0.4-0.6 0.2-1.1 0.4-0.4 0-0.9 0zm19.3 7.8q-0.6 0-1.2-0.1-0.6-0.2-1.3-0.3-1.6-0.4-2.2-1.8-0.8-1.8 0-4.3 0.9-2.6 2.9-6.6 0.3-0.7 0.7-1.6 0.4-0.9 0.8-1.7-1.2 0.5-2.5 1.5-1.3 1-2.6 2.1-0.9 0.6-2.1 0.5-1-0.2-1.7-1-0.7-0.9-0.6-1.9 0.2-1.1 1-1.9 1.3-0.9 2.6-2 1.4-1 2.8-1.7 3.7-1.9 6.7-1 1.4 0.3 2.1 1.8 0.8 1.4 0 3.5-0.8 2.2-2.5 5.8-0.5 1.1-1 2.1-0.5 1.1-0.9 2.1-0.1 0.4-0.3 0.6-0.1 0.3-0.1 0.6 1.8-0.3 5.4-1.9 3.6-1.7 9.8-6.6 3.3-2.6 5.9-5 2.7-2.5 4.3-4.1 1.6-1.6 1.6-1.6 1.1-1.2 2.6-0.8 0.7 0.1 1.1 0.6 0.5 0.5 0.8 0.9 0.6 1.3 0 3-0.4 1.6-1.9 5.2-0.5 1.2-1.1 2.3-0.4 1.2-0.9 2.2-0.1 0.3-0.1 0.6 0 0.2-0.1 0.3 1.7-0.2 3.5-1.4 2-1.2 3.8-2.7 1.8-1.5 3.1-2.6 0.9-0.8 1.9-0.7 1.1 0.1 1.9 0.9 0.7 0.9 0.6 1.9 0 1.1-0.9 1.9-2.7 2.4-5.7 4.5-2.8 2.2-5.7 3.2-2.9 1-5.8 0.3-1.5-0.6-2.1-1.8-0.5-1.2-0.3-2.7 0.2-1.6 1-3.8-0.9 0.9-2 1.7-1 0.8-2.1 1.8-12.3 9.7-19.2 9.7zm61.2-5.1q-1.1 0-1.8-0.6-1.4-1.2-0.8-2.9 0-0.1 0.6-2.2 0.7-2 1.6-4.6 0.5-1.5 0.8-2.6 0.4-1.1 0.7-2-2.4 0.9-5.9 2.2-3.5 1.2-7.3 2.7-3.8 1.4-7.3 2.7-1 0.4-2.1-0.1-0.9-0.5-1.4-1.6-0.3-0.9 0.1-1.9 0.5-1.1 1.6-1.5 4-1.5 8.3-3 4.3-1.6 7.9-2.9 3.7-1.4 6-2.3 2.3-0.9 2.3-0.9 0.4-0.1 0.9-0.1 0.4-0.1 0.8 0.1 1.2 0.2 1.8 1.4 0.4 0.7 0.3 1.9 0 1-0.4 3.1-0.3 1.1-0.7 2.6-0.4 1.3-1 3.1-0.1 0.3-0.2 0.6-0.1 0.3-0.2 0.6 3.6-1.9 8.7-4.1 1-0.4 2 0 1.1 0.4 1.4 1.4 0.6 1 0.1 2-0.4 1.1-1.4 1.5-4 1.8-7.2 3.4-3.1 1.6-5 2.6-1.9 1-1.9 1-0.5 0.4-1.3 0.4zm20.8 5.1q-0.6 0-1.2-0.1-0.6-0.2-1.3-0.3-1.6-0.4-2.2-1.8-0.8-1.8 0-4.3 0.9-2.6 2.9-6.6 0.3-0.7 0.7-1.6 0.4-0.9 0.8-1.7-1.2 0.5-2.5 1.5-1.3 1-2.6 2.1-0.9 0.6-2.1 0.5-1-0.2-1.7-1-0.7-0.9-0.6-1.9 0.2-1.1 1-1.9 1.3-0.9 2.6-2 1.4-1 2.8-1.7 3.7-1.9 6.7-1 1.4 0.3 2.1 1.8 0.8 1.4 0 3.5-0.8 2.2-2.5 5.8-0.5 1.1-1 2.1-0.5 1.1-0.9 2.1-0.1 0.4-0.3 0.6-0.1 0.3-0.1 0.6 1.8-0.3 5.4-1.9 3.6-1.7 9.8-6.6 3.3-2.6 5.9-5 2.7-2.5 4.3-4.1 1.6-1.6 1.6-1.6 1.1-1.2 2.6-0.8 0.7 0.1 1.1 0.6 0.5 0.5 0.8 0.9 0.6 1.3 0 3-0.4 1.6-1.9 5.2-0.5 1.2-1.1 2.3-0.4 1.2-0.9 2.2-0.1 0.3-0.1 0.6 0 0.2-0.1 0.3 1.7-0.2 3.5-1.4 2-1.2 3.8-2.7 1.8-1.5 3.1-2.6 0.9-0.8 1.9-0.7 1.1 0.1 1.9 0.9 0.7 0.9 0.6 1.9 0 1.1-0.9 1.9-2.7 2.4-5.7 4.5-2.8 2.2-5.7 3.2-2.9 1-5.8 0.3-1.5-0.6-2.1-1.8-0.5-1.2-0.3-2.7 0.2-1.6 1-3.8-0.9 0.9-2 1.7-1 0.8-2.1 1.8-12.3 9.7-19.2 9.7zm48 0q-0.6 0-1.2-0.1-0.6-0.2-1.3-0.3-1.6-0.4-2.2-1.8-0.8-1.8 0-4.3 0.9-2.6 2.9-6.6 0.3-0.7 0.7-1.6 0.4-0.9 0.8-1.7-1.2 0.5-2.5 1.5-1.3 1-2.6 2.1-0.9 0.6-2.1 0.5-1-0.2-1.7-1-0.7-0.9-0.6-1.9 0.2-1.1 1-1.9 1.3-0.9 2.6-2 1.4-1 2.8-1.7 3.7-1.9 6.7-1 1.4 0.3 2.1 1.8 0.8 1.4 0 3.5-0.8 2.2-2.5 5.8-0.5 1.1-1 2.1-0.5 1.1-0.9 2.1-0.1 0.4-0.3 0.6-0.1 0.3-0.1 0.6 1.8-0.3 5.4-1.9 3.6-1.7 9.8-6.6 3.3-2.6 5.9-5 2.7-2.5 4.3-4.1 1.6-1.6 1.6-1.6 1.1-1.2 2.6-0.8 0.7 0.1 1.1 0.6 0.5 0.5 0.8 0.9 0.6 1.3 0 3-0.4 1.6-1.9 5.2-0.5 1.2-1.1 2.3-0.4 1.2-0.9 2.2-0.1 0.3-0.1 0.6 0 0.2-0.1 0.3 1.7-0.2 3.5-1.4 2-1.2 3.8-2.7 1.8-1.5 3.1-2.6 0.9-0.8 1.9-0.7 1.1 0.1 1.9 0.9 0.7 0.9 0.6 1.9 0 1.1-0.9 1.9-2.7 2.4-5.7 4.5-2.8 2.2-5.7 3.2-2.9 1-5.8 0.3-1.5-0.6-2.1-1.8-0.5-1.2-0.3-2.7 0.2-1.6 1-3.8-0.9 0.9-2 1.7-1 0.8-2.1 1.8-12.3 9.7-19.2 9.7zm71.1-6q-0.6 0-1.1-0.1-1.7-0.4-2.4-2.1-0.6-1.5 0.2-3.4 0.9-1.8 2.4-4.2 0.5-0.8 0.9-1.6 0.6-0.9 0.9-1.6 0.2-0.2 0.3-0.4 0.1-0.3 0.2-0.5-2.7-0.4-6.3-0.1-3.4 0.1-7.8 1.3-3.8 1-8.3 2.6-4.3 1.5-9.2 3.6-1 0.4-2 0-1-0.3-1.4-1.3-0.5-1-0.1-2 0.5-1.2 1.4-1.6 5-2.2 9.6-3.8 4.6-1.7 8.7-2.7 10.9-2.7 17.9-0.8 2 0.5 2.8 2.4 0.8 2-0.3 4.4-1.2 2.4-2.8 5-0.1 0.2-0.3 0.4-0.1 0.3-0.3 0.7 2-0.5 6-1.8 4-1.4 11.1-3.9 0.9-0.4 1.9 0.1 1.1 0.5 1.4 1.6 0.5 0.9 0 2-0.4 1-1.6 1.4-4 1.4-7.4 2.6-3.4 1.2-6.1 2-3.5 1-5.4 1.5-1.9 0.3-2.9 0.3zm32.6-1.8q-0.4 0-0.7 0-1.4-0.4-2-1.1-0.6-0.8-0.7-1.3-0.7-1.9 0.4-4 1.1-2.1 2.8-4.4 0.5-0.7 0.9-1.5 0.6-0.9 0.9-1.5 0.1-0.1 0.3-0.4-0.5 0.2-1.3 0.5-0.7 0.4-1.7 1.1-1.6 1-3.4 2.6-1.8 1.5-3.7 3.2-0.4 0.4-0.9 0.8-0.5 0.4-0.9 0.9-0.8 0.7-2 0.7-1-0.1-1.8-1-0.8-0.8-0.7-1.8 0.1-1.2 0.9-1.9 0.5-0.5 0.9-0.9 0.5-0.5 1-0.8 2.8-2.6 5.6-4.7 2.8-2.3 5.4-3.4 2.7-1.2 5.2-0.5 1.5 0.4 2.1 1.3 0.7 0.8 0.8 1.4 0.8 2-0.3 4.2-1.2 2.1-3 4.7-0.1 0.2-0.4 0.6-0.2 0.4-0.5 0.8 1.4-0.6 3.5-1.4 2.1-0.8 5.2-1.9 1.1-0.4 2.1 0.1 1 0.5 1.3 1.6 0.5 0.9 0 2-0.5 1-1.5 1.4-2.8 1-5.1 1.8-2.3 0.8-3.9 1.4-0.9 0.4-1.6 0.6-0.7 0.2-1.2 0.4-0.6 0.2-1.1 0.4-0.4 0-0.9 0zm33.5 2.7q-1.1 0-1.8-0.6-1.4-1.2-0.8-2.9 0-0.1 0.6-2.2 0.7-2 1.6-4.6 0.5-1.5 0.8-2.6 0.4-1.1 0.7-2-2.4 0.9-5.9 2.2-3.5 1.2-7.3 2.7-3.8 1.4-7.3 2.7-1 0.4-2.1-0.1-0.9-0.5-1.4-1.6-0.3-0.9 0.1-1.9 0.5-1.1 1.6-1.5 4-1.5 8.3-3 4.3-1.6 7.9-2.9 3.7-1.4 6-2.3 2.3-0.9 2.3-0.9 0.4-0.1 0.9-0.1 0.4-0.1 0.8 0.1 1.2 0.2 1.8 1.4 0.4 0.7 0.3 1.9 0 1-0.4 3.1-0.3 1.1-0.7 2.6-0.4 1.3-1 3.1-0.1 0.3-0.2 0.6-0.1 0.3-0.2 0.6 3.6-1.9 8.7-4.1 1-0.4 2 0 1.1 0.4 1.4 1.4 0.6 1 0.1 2-0.4 1.1-1.4 1.5-4 1.8-7.2 3.4-3.1 1.6-5 2.6-1.9 1-1.9 1-0.5 0.4-1.3 0.4zm35 0q-1.1 0-1.8-0.6-1.4-1.2-0.8-2.9 0-0.1 0.6-2.2 0.7-2 1.6-4.6 0.5-1.5 0.8-2.6 0.4-1.1 0.7-2-2.4 0.9-5.9 2.2-3.5 1.2-7.3 2.7-3.8 1.4-7.3 2.7-1 0.4-2.1-0.1-0.9-0.5-1.4-1.6-0.3-0.9 0.1-1.9 0.5-1.1 1.6-1.5 4-1.5 8.3-3 4.3-1.6 7.9-2.9 3.7-1.4 6-2.3 2.3-0.9 2.3-0.9 0.4-0.1 0.9-0.1 0.4-0.1 0.8 0.1 1.2 0.2 1.8 1.4 0.4 0.7 0.3 1.9 0 1-0.4 3.1-0.3 1.1-0.7 2.6-0.4 1.3-1 3.1-0.1 0.3-0.2 0.6-0.1 0.3-0.2 0.6 3.6-1.9 8.7-4.1 1-0.4 2 0 1.1 0.4 1.4 1.4 0.6 1 0.1 2-0.4 1.1-1.4 1.5-4 1.8-7.2 3.4-3.1 1.6-5 2.6-1.9 1-1.9 1-0.5 0.4-1.3 0.4zm23.2 2.6v-11h9.2v11zm25.6 2.5q-0.6 0-1.3-0.1-0.6-0.2-1.2-0.3-1.6-0.4-2.2-1.8-0.8-1.8 0-4.3 0.9-2.6 2.8-6.6 0.4-0.7 0.7-1.6 0.5-0.9 0.8-1.7-1.1 0.5-2.5 1.5-1.2 1-2.5 2.1-0.9 0.6-2.1 0.5-1.1-0.2-1.8-1-0.6-0.9-0.5-1.9 0.2-1.1 1-1.9 1.2-0.9 2.6-2 1.4-1 2.8-1.7 3.7-1.9 6.7-1 1.4 0.3 2.1 1.8 0.7 1.4-0.1 3.5-0.7 2.2-2.5 5.8-0.4 1.1-0.9 2.1-0.5 1.1-0.9 2.1-0.1 0.4-0.3 0.6-0.1 0.3-0.2 0.6 1.9-0.3 5.5-1.9 3.6-1.7 9.7-6.6 3.3-2.6 6-5 2.7-2.5 4.3-4.1 1.6-1.6 1.6-1.6 1-1.2 2.6-0.8 0.7 0.1 1.1 0.6 0.5 0.5 0.7 0.9 0.7 1.3 0.1 3-0.4 1.6-1.9 5.2-0.6 1.2-1.1 2.3-0.5 1.2-0.9 2.2-0.1 0.3-0.2 0.6 0 0.2-0.1 0.3 1.7-0.2 3.6-1.4 2-1.2 3.7-2.7 1.9-1.5 3.1-2.6 0.9-0.8 2-0.7 1.1 0.1 1.9 0.9 0.7 0.9 0.6 1.9 0 1.1-0.9 1.9-2.8 2.4-5.7 4.5-2.8 2.2-5.8 3.2-2.8 1-5.8 0.3-1.4-0.6-2-1.8-0.5-1.2-0.4-2.7 0.3-1.6 1.1-3.8-1 0.9-2 1.7-1 0.8-2.2 1.8-12.3 9.7-19.1 9.7zm61.2-5.1q-1.1 0-1.8-0.6-1.4-1.2-0.8-2.9 0-0.1 0.6-2.2 0.7-2 1.6-4.6 0.5-1.5 0.8-2.6 0.4-1.1 0.6-2-2.4 0.9-5.8 2.2-3.5 1.2-7.3 2.7-3.8 1.4-7.3 2.7-1 0.4-2.1-0.1-1-0.5-1.4-1.6-0.4-0.9 0.1-1.9 0.5-1.1 1.6-1.5 4-1.5 8.3-3 4.2-1.6 7.9-2.9 3.6-1.4 5.9-2.3 2.4-0.9 2.4-0.9 0.4-0.1 0.8-0.1 0.5-0.1 0.8 0.1 1.3 0.2 1.8 1.4 0.5 0.7 0.4 1.9 0 1-0.5 3.1-0.2 1.1-0.7 2.6-0.3 1.3-1 3.1 0 0.3-0.1 0.6-0.1 0.3-0.2 0.6 3.5-1.9 8.7-4.1 1-0.4 2 0 1 0.4 1.4 1.4 0.5 1 0.1 2-0.5 1.1-1.4 1.5-4 1.8-7.3 3.4-3.1 1.6-4.9 2.6-1.9 1-1.9 1-0.5 0.4-1.3 0.4zm34 0q-1.1 0-1.8-0.6-1.4-1.2-0.8-2.9 0-0.1 0.6-2.2 0.7-2 1.6-4.6 0.5-1.5 0.8-2.6 0.4-1.1 0.6-2-2.4 0.9-5.8 2.2-3.5 1.2-7.3 2.7-3.8 1.4-7.3 2.7-1 0.4-2.1-0.1-1-0.5-1.4-1.6-0.4-0.9 0.1-1.9 0.5-1.1 1.6-1.5 4-1.5 8.3-3 4.2-1.6 7.9-2.9 3.6-1.4 5.9-2.3 2.4-0.9 2.4-0.9 0.4-0.1 0.8-0.1 0.5-0.1 0.8 0.1 1.3 0.2 1.8 1.4 0.5 0.7 0.4 1.9 0 1-0.5 3.1-0.2 1.1-0.7 2.6-0.3 1.3-1 3.1 0 0.3-0.1 0.6-0.1 0.3-0.2 0.6 3.5-1.9 8.7-4.1 1-0.4 2 0 1 0.4 1.4 1.4 0.5 1 0.1 2-0.5 1.1-1.4 1.5-4 1.8-7.3 3.4-3.1 1.6-4.9 2.6-1.9 1-1.9 1-0.5 0.4-1.3 0.4z"/>
</svg>