<svg version="1.2" xmlns="http://www.w3.org/2000/svg" viewBox="0 0 500 100" width="500" height="100">
	<style>
		.s0 { fill: #ffffff } 
	</style>
	<path id="⠠⠛⠑⠍⠙⠁⠞⠊⠕⠝⠲⠉⠕⠍" class="s0" aria-label="⠠⠛⠑⠍⠙⠁⠞⠊⠕⠝⠲⠉⠕⠍"  d="m21.5 58v-7.2h7.2v7.2zm21.7-27.1v-7.2h7.1v7.2zm0 13.6v-7.2h7.2v7.2zm14.4-13.6v-7.2h7.1v7.2zm0 13.6v-7.2h7.2v7.2zm21.7-13.6v-7.2h7.1v7.2zm14.4 13.6v-7.2h7.2v7.2zm21.6-13.6v-7.2h7.2v7.2zm0 27.1v-7.2h7.2v7.2zm14.3-27.1v-7.2h7.2v7.2zm21.7 0v-7.2h7.1v7.2zm14.4 0v-7.2h7.2v7.2zm0 13.6v-7.2h7.1v7.2zm20.7-13.6v-7.2h7.2v7.2zm36 13.6v-7.2h7.1v7.2zm0 13.5v-7.2h7.2v7.2zm14.4-27.1v-7.2h7.2v7.2zm0 13.6v-7.2h7.1v7.2zm21.7 0v-7.2h7.2v7.2zm14.3-13.6v-7.2h7.2v7.2zm21.6 0v-7.2h7.2v7.2zm0 27.1v-7.2h7.2v7.2zm14.3-13.5v-7.2h7.2v7.2zm21.7-13.6v-7.2h7.1v7.2zm0 27.1v-7.2h7.2v7.2zm14.4-27.1v-7.2h7.2v7.2zm0 13.6v-7.2h7.1v7.2zm21.7 0v-7.2h7.2v7.2zm14.3 0v-7.2h7.2v7.2zm0 13.5v-7.2h7.2v7.2zm21.6-27.1v-7.2h7.2v7.2zm14.3 0v-7.2h7.2v7.2zm21.7 0v-7.2h7.1v7.2zm0 27.1v-7.2h7.2v7.2zm14.4-13.5v-7.2h7.2v7.2zm21.6-13.6v-7.2h7.2v7.2zm0 27.1v-7.2h7.2v7.2zm14.3-27.1v-7.2h7.2v7.2z"/>
</svg>