<svg version="1.2" xmlns="http://www.w3.org/2000/svg" viewBox="0 0 500 100" width="500" height="100">
	<style>
		.s0 { fill: #ffffff } 
	</style>
	<path id="Gemdation.com" class="s0" aria-label="Gemdation.com"  d="m31.3 30.1v2.7q-2.1-1-4.6-1-2.5 0-4.8 0.8-2.3 0.8-4.3 2.5-1.9 1.6-2.9 3.9-4.8 4.1-6.6 8.3-1.8 4.1 0.3 8.3 1 2.2 2.2 4 1.2 1.7 2.4 3.1 1.1 1.3 2.2 2.4 1.1 1.1 2.1 2.3 2.1 0.7 3.7 0.4 1.7-0.4 3-1.4 1.3-1 2.4-2.5 1-1.5 1.8-3.1 0.9-1.6 1.6-3 0.8-1.4 1.5-2.2-1.4-1.4-3-1.7-1.6-0.3-3.3 0-1.7 0.3-3.5 0.9-1.8 0.6-3.6 1.1-1.7 0.4-3.4 0.5-1.7 0-3.2-0.8 1.3-1 3.3-2 2-1 4.1-1.7 2.2-0.8 4.1-1.3 1.9-0.5 2.9-0.5 2.1-1 4.1-0.7 2 0.4 3.5 1.5 1.6 1 2.5 2.4 1 1.3 1 2.3 0 2.2 0.5 4.9 0.5 2.7 0.8 5.4 0.3 2.6 0.2 5.2-0.2 2.5-1.5 4.5-1.4-0.7-2-1.8-0.5-1.1-0.6-2.4-0.1-1.3 0.2-2.7 0.2-1.5 0.3-2.8 0.2-1.3 0.1-2.4-0.1-1.1-0.8-1.8-1.4 0-2.4 0.7-1 0.6-1.8 1.6-0.8 0.8-1.4 2-0.6 1.1-1.4 2-0.8 0.9-1.8 1.6-0.9 0.6-2.3 0.6-3 1-5.3 0.6-2.3-0.4-4-1.7-1.6-1.3-2.9-3.3-1.3-2-2.3-4.1-2.2-3.2-3.2-6.4-1-3.2-1-6.1 0-3 1-5.6 1-2.6 3.2-4.6 2.3-2.3 5-4.8 2.8-2.4 5.7-4.1 2.9-1.6 6-1.8 3-0.3 6.2 1.8zm30.3 17.3q-1.4 0-3.4 0.6-2 0.7-3.8 1.8-1.8 1-3.1 2.4-1.2 1.4-1.2 2.8 2.9 0 5.7-0.1 2.8-0.1 5.4-0.8 2.5-0.7 4.6-2.3 2-1.6 3.5-4.4 0-1.5-0.7-1.6-0.6-0.2-1.7 0.2-1.1 0.3-2.5 0.9-1.3 0.5-2.8 0.5zm12.1-0.1q-0.8 2.2-1.9 3.7-1.2 1.5-2.7 2.5-1.4 1-3.1 1.8-1.6 0.6-3.4 1.2-1.7 0.6-3.3 1.1-1.6 0.5-3.1 1.3-1.4 0.7-2.8 0.8-1.4 0.1-2.7-0.1-1.3-0.1-2.4-0.4-1.1-0.2-1.9-0.1-0.8 0.1-1.2 0.7-0.5 0.6-0.5 2 0 1.1 1 2.2 0.9 1 2.3 1.8 1.3 0.8 2.8 1.3 1.5 0.5 2.5 0.5 2.2 0 4.8-0.4 2.7-0.4 5.4-0.7 2.7-0.3 5.3-0.1 2.7 0.1 4.9 1.2-3.3 1.1-7 2-3.7 1-7.5 1.2-3.9 0.3-7.6-0.4-3.6-0.6-6.9-2.8-2.2-1.1-2.9-2.6-0.7-1.6-0.4-3.2 0.3-1.7 1.2-3.2 1-1.5 2.1-2.7 1.1-3.2 3.1-5.4 2-2.3 4.4-3.9 2.5-1.6 5-2.8 2.6-1.2 4.8-2.3 2.2 0 3.8 0.1 1.7 0.1 3 0.6 1.4 0.6 2.6 1.8 1.1 1.1 2.3 3.3zm23.6 14.9q1.2-3.4 1.9-6.7 0.8-3.3 2-6.1 1.1-2.9 2.9-5 1.9-2.2 5.3-3.4 1.2 0 1.8 0.6 0.7 0.5 1.3 1.4 0.5 0.8 1.2 1.9 0.7 1.1 1.8 2.2 1.1 3.4 1.3 6.7 0.1 3.4 0.1 6.5 0 3.1 0.2 5.9 0.2 2.7 1.4 5-0.1 0.9-0.4 1.5-0.3 0.7-0.9 1.1-0.6 0.5-1.7 0.5-1.5-2.3-2.1-4.7-0.7-2.6-0.9-5.1-0.1-2.5-0.1-5 0.1-2.4-0.1-4.7-0.2-2.3-0.8-4.2-0.6-2-2.1-3.5-2.3 0.7-3.6 2.2-1.3 1.4-2.1 3.3-0.7 1.8-1 4-0.4 2-0.7 4.2-0.2 2-0.5 4-0.3 2-1.1 3.5-2.3-0.8-3.9-2.3-1.6-1.4-2.9-3.3-1.2-2-2.3-4.3-1.1-2.3-2.4-4.7-1.2-2.5-2.8-4.9-1.6-2.4-3.9-4.7-0.8 2.3-1.1 4.7-0.3 2.5-0.4 5-0.2 2.5-0.4 5-0.1 2.5-0.5 4.7-0.4 2.2-1.3 4.2-0.8 2-2.3 3.5v-2.9q1.2-3.5 1.4-7.3 0.2-3.8 0.5-7.5 0.3-3.7 1-7 0.9-3.2 3.1-5.5 2.3 0 3.9 1.2 1.6 1.1 2.8 2.9 1.2 1.9 2.1 4.2 0.9 2.3 1.8 4.7 0.9 2.3 2 4.5 1 2.2 2.5 3.7zm32.8-6.5q-1.1 1.1-2 2.1-1 1.1-1.5 2.5-0.5 1.2-0.4 2.8 0 1.6 1 3.7 2.2 0 4.2 0.3 2 0.4 3.8 0.7 1.8 0.3 3.3 0.2 1.5-0.2 2.6-1.2 0.7-0.7 1.7-1.4 1.1-0.8 2.2-1.5 1-0.8 1.9-1.6 1-0.9 1.4-1.9 0.4-1 0-2.1-0.2-1.2-1.6-2.6 0-3.1-1.9-4.7-1.8-1.6-4.4-1.6-2.6 0-5.4 1.6-2.8 1.6-4.9 4.7zm22.1-19.4l-1.2-1.6q-0.6 0.1-1 1.2-0.3 0.9-0.5 3.2-0.3 2.2 0 6.3 0.3 4.2 0.8 6.2 0.5 1.9 0.9 2.7 0.6 0.8 1.2 0.5 1-2.1 1.1-4.5 0.1-2.3-0.2-4.7-0.3-2.4-0.7-4.8-0.4-2.3-0.4-4.5zm2.7 2.8q1.1 2.1 1.5 5.1 0.5 2.9 0.2 6-0.2 3.1-1.3 6.1-1 2.9-3.1 5 1 1 2 2.4 1.1 1.4 2.1 2.8 1.1 1.3 2.1 2.2 1 0.9 2.1 0.9 1 0 1.9 0.1 1.1 0 1.8 0.2 0.8 0.3 1.3 0.8 0.5 0.5 0.5 1.5 0 1.1-0.9 1.7-0.9 0.5-2.2 0.5-1.3 0-2.7-0.5-1.4-0.6-2.5-1.7l-8.2-5.4q-1.1 1-2.6 1.6-1.5 0.6-3.4 1.2-1.8 0.5-3.8 1.1-2.1 0.5-4.1 1.5-2.1-1-4.1-1.6-2-0.6-3.8-1.4-1.8-0.8-3.3-1.9-1.5-1.2-2.6-3.3 0-3.1 1.3-5.7 1.4-2.6 3.5-4.7 2.1-2 4.5-3.6 2.4-1.6 4.5-2.6 1-1 2-1.6 1-0.6 2.1-0.8 1-0.3 2-0.3 1.1-0.1 2.1-0.1l2.9 2.8q0-2-0.4-4.5-0.4-2.5-0.4-5.1 0-2.6 0.7-5.1 0.7-2.5 2.9-4.6 1 0 1.9 0.9 1 1 1.8 2.5 0.7 1.6 1.2 3.6 0.5 2 0.5 4zm31.3 16v-10q-2.6 0-4.9 0.9-2.3 1-4.4 2.6-2.1 1.6-4 3.8-1.9 2-3.6 4.3-1.6 2.2-3.1 4.5-1.4 2.2-2.6 4.2 3.7 0.8 6.9 0.1 3.3-0.8 6.1-2.4 2.8-1.7 5.2-3.9 2.4-2.1 4.4-4.1zm7.3-10q0 0.9-0.3 2.3-0.4 1.3-0.8 2.8-0.4 1.4-0.8 2.7-0.3 1.3-0.3 2.2 1.7 2 3.2 3.4 1.5 1.4 2.9 2.4 1.4 0.9 2.9 1.4 1.6 0.5 3.6 0.5-1.3 1.2-2.6 1.5-1.3 0.3-2.6-0.1-1.3-0.4-2.6-1.1-1.3-0.9-2.5-1.8-1.2-1-2.5-2-1.2-1-2.4-1.7-2.9 2.9-5.8 5.6-2.9 2.7-6 4.6-3 1.9-6.3 2.6-3.3 0.8-7-0.2-1-1-1.6-2.3-0.5-1.3-0.8-2.7-0.2-1.4-0.2-2.6 0-1.3 0-2.3 1.8-1.9 4-4.4 2.3-2.6 4.9-5.1 2.6-2.5 5.4-4.7 2.9-2.1 5.8-3.2 3-1.1 6.1-0.7 3.2 0.4 6.3 2.9zm32.2-20.3l0.7-0.3v0.7q0 1.6-0.5 3.1-0.4 1.6-0.9 3.1-0.6 1.5-1 3-0.4 1.5-0.4 3 0 1.4 0.5 2.7 0.5 1.3 1.8 2.7 1.3-1.2 2.9-2.1 1.6-1 3.4-1.5 2.4-0.6 4.6-0.4 2.3 0.1 4.4 1.2l0.9 0.4-0.8 0.4q-2.3 1.1-4.6 1.8-2.3 0.7-4.7 1.3-2.1 0.6-4.4 1.2-2.2 0.6-4.4 1.7 0.1 3.7 1.2 7.3 1.1 3.6 2.3 6.9 1 2.7 1.8 5.2 0.8 2.5 0.8 4.6v0.5h-3.7l-0.1-0.2q-1.3-2.6-2.1-5.7-0.7-3.2-1.3-6.8-0.5-2.8-1.1-5.7-0.6-2.9-1.6-5.9-1.4 0-2.9 0.5-1.5 0.4-2.9 0.9-1.4 0.5-2.8 0.9-1.2 0.4-2.4 0.4-2.8 0-4.2-2.9l-0.2-0.4 0.2-0.2q1.3-1.2 3.1-1.4 1.7-0.2 3.8-0.2 1.9 0 3.9-0.2 2.2-0.2 4.3-1.2 0-2.3 0.1-5.1 0.1-2.7 0.7-5.3 0.7-2.6 1.9-4.7 1.3-2.1 3.7-3.3zm21.9 4.8q1.1 1.1 1.1 2.2 0.1 1-0.4 2.1-0.5 1.1-1.5 2.2-1 1-2.1 2.1v-2.9q0-1 0.1-2 0-1.1 0.3-1.9 0.3-0.8 0.8-1.3 0.6-0.5 1.7-0.5zm0 14.4l2.8 2.8q0 2.1 0.1 4.8 0.1 2.6 0.3 5.2 0.3 2.7 0.8 5.4 0.6 2.5 1.8 4.7 1 0 1.1 0.5 0.2 0.4-0.1 1-0.3 0.6-1 1.4v2.8q-2.2-2.1-3.8-5.6-1.6-3.6-2.4-7.6-0.8-4.1-0.7-8.2 0-4 1.1-7.2zm17.4 8.5q-1.3 1.3-2 3.2-0.6 1.8-0.6 3.8 0 1.9 0.6 3.8 0.7 1.9 2 3.2h17.6q0.8-0.9 2.2-2 1.4-1.2 2.9-2.5 1.5-1.4 2.8-2.9 1.4-1.6 2.2-3.3 0.9-1.6 1.1-3.4 0.2-1.7-0.7-3.5-3.9-1.3-7.9-1.9-3.8-0.6-7.5-0.2-3.5 0.3-6.8 1.7-3.2 1.3-5.9 4zm35.2 0q0 2.6-1.2 5.2-1.2 2.6-3.2 4.9-2 2.2-4.5 4.2-2.5 1.9-5.1 3.2-2.7 0-5.9 0.5-3.2 0.5-6.5 0.8-3.3 0.4-6.5 0.2-3.2-0.2-5.8-1.5-1.3-1.3-2.6-2.6-1.2-1.4-1.8-3.1-0.7-1.6-0.6-3.7 0.1-2 1.5-4.6 1.7-0.9 2.7-2.2 1-1.4 1.7-2.9 0.7-1.5 1.3-2.8 0.6-1.4 1.5-2.3 1.1-0.9 2.6-1.1 1.6-0.2 4.3 0.7v-3.5q3.9 0 7.8 0.2 3.9 0.1 7.5 1.1 3.7 1 6.9 3.2 3.3 2.1 5.9 6.1zm6.2-14.6q1.2 2.4 1.4 5.4 0.2 3 0.2 6 0 3.1 0.2 6.1 0.2 3 1.4 5.4 2.5-2.4 3.9-5.4 1.4-2.9 2.7-5.6 1.2-2.8 2.6-5.1 1.5-2.3 3.9-3.5 3.7 2.4 6.2 6 2.6 3.6 4.1 7.9 1.5 4.3 2.2 9.1 0.6 4.8 0.6 9.7h-3.2q-1.3-3.7-2-7.3-0.7-3.6-1.3-7-0.6-3.4-1.4-6.4-0.6-3-1.9-5.5-2.4 2.5-4.3 5-1.9 2.5-3.5 5.3-1.5 2.7-2.8 5.8-1.3 3.1-2.5 6.8-2.5-1.2-3.8-3.5-1.4-2.3-2.3-5.1-0.9-2.8-1.7-5.7-0.8-2.9-2-5.3 0.8-0.8 1.1-1.9 0.4-1.1 0.4-2.2 0.1-1.2 0.1-2.4 0-1.3 0-2.5 0.2-1.2 0.5-2.2 0.3-1.1 1.2-1.9zm48.6 28.3q0 0.8-0.4 1.7-0.4 0.8-1 1.4-0.7 0.7-1.5 1.1-0.8 0.4-1.6 0.4-0.9 0.8-1.4 0.6-0.5-0.3-1-1-0.4-0.6-0.9-1.3-0.5-0.7-1.3-0.7 0-0.8 0.4-1.3 0.4-0.5 1-0.9 0.7-0.4 1.4-0.9 0.9-0.5 1.8-1.3 0.8 0 1.6 0 0.8 0 1.5 0.2 0.6 0.3 1 0.7 0.4 0.5 0.4 1.3zm29.4-25.9q1.4-0.3 2.9-0.4 1.4-0.2 2.4 0.6 1.2 0.8 1.4 3.1v0.4q-0.1 0-0.2 0l-0.2-0.2q-1.8-0.5-3.5-0.4-1.7 0.1-3.3 0.6-1.5 0.5-2.9 1.2-1.3 0.8-2.4 1.6-1.5 1.1-2.7 2.3-1.2 1.2-2.1 2.5-1 1.2-1.7 2.3-0.7 1.1-1.1 2 0.1 3.3 1.4 5.6 1.2 1.9 3.4 3.4 2 1.2 3.8 1.7 1.9 0.5 4.2 1l1.1 0.2q0.8 0.2 1.6 0.2 0.8 0 1.6 0 0.6 0 1.1 0 0.6 0 1.2 0 0.7 0.2 1.5 0.2 0.8 0 1.7-0.3h0.2q1-0.3 1.9-0.5 0.9-0.2 1.7-0.2 0.7 0 1.5 0.3 0.8 0.4 1.5 1.1 0 0.1 0.2 0.2 0.1 0 0.2 0.1h-0.2l-0.2 0.1q-4.6 1.3-9 1.5-4.4 0.2-9.4-0.7-5.7-1-9.8-2.8-4-1.9-7.2-4.9l-0.1-0.1v-0.1q-0.1-4.3 1.7-7.7 1.5-3.3 4.6-6 2.6-2.6 5.5-4.4 2.9-1.8 5-3h0.1 0.2q0.5 0 1-0.1 0.6-0.1 1.4-0.4zm31.6 12.2q-1.4 1.3-2 3.2-0.7 1.8-0.7 3.8 0 1.9 0.7 3.8 0.6 1.9 2 3.2h17.5q0.9-0.9 2.3-2 1.4-1.2 2.8-2.5 1.5-1.4 2.8-2.9 1.4-1.6 2.3-3.3 0.9-1.6 1.1-3.4 0.2-1.7-0.7-3.5-4-1.3-7.9-1.9-3.9-0.6-7.5-0.2-3.6 0.3-6.9 1.7-3.2 1.3-5.8 4zm35.1 0q0 2.6-1.2 5.2-1.2 2.6-3.2 4.9-1.9 2.2-4.5 4.2-2.5 1.9-5.1 3.2-2.7 0-5.9 0.5-3.2 0.5-6.5 0.8-3.3 0.4-6.5 0.2-3.1-0.2-5.8-1.5-1.3-1.3-2.5-2.6-1.2-1.4-1.9-3.1-0.7-1.6-0.5-3.7 0.1-2 1.4-4.6 1.7-0.9 2.8-2.2 1-1.4 1.6-2.9 0.8-1.5 1.3-2.8 0.6-1.4 1.6-2.3 1-0.9 2.6-1.1 1.6-0.2 4.2 0.7v-3.5q3.9 0 7.8 0.2 3.9 0.1 7.6 1.1 3.6 1 6.9 3.2 3.2 2.1 5.8 6.1zm23.2 9.7q1.2-3.4 1.9-6.7 0.8-3.3 1.9-6.1 1.1-2.9 3-5 1.9-2.2 5.2-3.4 1.2 0 1.9 0.6 0.6 0.5 1.2 1.4 0.6 0.8 1.2 1.9 0.7 1.1 1.8 2.2 1.2 3.4 1.3 6.7 0.2 3.4 0.2 6.5 0 3.1 0.2 5.9 0.2 2.7 1.3 5-0.1 0.9-0.4 1.5-0.3 0.7-0.9 1.1-0.5 0.5-1.7 0.5-1.5-2.3-2.1-4.7-0.6-2.6-0.8-5.1-0.2-2.5-0.1-5 0.1-2.4-0.2-4.7-0.1-2.3-0.7-4.2-0.7-2-2.2-3.5-2.2 0.7-3.6 2.2-1.2 1.4-2 3.3-0.8 1.8-1.1 4-0.3 2-0.6 4.2-0.2 2-0.6 4-0.3 2-1 3.5-2.3-0.8-4-2.3-1.5-1.4-2.8-3.3-1.2-2-2.4-4.3-1-2.3-2.3-4.7-1.2-2.5-2.9-4.9-1.5-2.4-3.8-4.7-0.8 2.3-1.2 4.7-0.2 2.5-0.4 5-0.2 2.5-0.3 5-0.1 2.5-0.6 4.7-0.4 2.2-1.2 4.2-0.8 2-2.3 3.5v-2.9q1.1-3.5 1.3-7.3 0.2-3.8 0.5-7.5 0.3-3.7 1.1-7 0.8-3.2 3.1-5.5 2.3 0 3.8 1.2 1.7 1.1 2.8 2.9 1.2 1.9 2.1 4.2 0.9 2.3 1.8 4.7 0.9 2.3 2 4.5 1.1 2.2 2.6 3.7z"/>
</svg>