<svg version="1.2" xmlns="http://www.w3.org/2000/svg" viewBox="0 0 500 100" width="500" height="100">
	<style>
		.s0 { fill: #ffffff } 
	</style>
	<path id="Gemdation.com" class="s0" aria-label="Gemdation.com"  d="m12.3 75v-7.3h22v7.3zm22-7.3v-22h-7.3v-7.4h14.7v29.4zm-29.4 0v-36.7h7.4v36.7zm7.3-36.7v-7.3h29.3v7.3zm44 44v-7.3h29.4v7.3zm-7.4-7.3v-22h7.4v7.3h22v-7.3h7.3v14.6h-29.3v7.4zm7.3-22v-7.4h22v7.4zm51.3 14.6v-14.6h7.4v14.6zm14.7 14.7v-29.3h7.3v29.3zm-29.3 0v-36.7h14.6v7.4h-7.3v29.3zm22-29.3v-7.4h7.3v7.4zm22 22v-22h7.3v22zm7.4-22v-7.4h14.6v7.4zm0 29.3v-7.3h22.1v-14.7h-7.4v-7.3h7.4v-22h7.3v51.3zm36.7-7.3v-7.4h7.3v7.4zm7.3 7.3v-7.3h22v-7.4h-22v-7.3h22v-7.3h7.3v29.3zm0-29.3v-7.4h22.1v7.4zm51.3 29.3v-7.3h7.3v7.3zm-7.3-7.3v-22h-7.3v-7.4h7.3v-14.6h7.3v14.6h7.4v7.4h-7.4v22zm21.7 7.3v-36.7h7.3v36.7zm0-44v-7.3h7.4v7.3zm22.3 44v-7.3h22v7.3zm-7.3-7.3v-22h7.3v22zm29.3 0v-22h7.4v22zm-22-22v-7.4h22v7.4zm66 29.3v-29.3h7.3v29.3zm-29.3 0v-36.7h29.3v7.4h-22v29.3zm44 0v-7.3h7.3v7.3zm21.3 0v-7.3h22.1v7.3zm22-7.3v-7.4h7.3v7.4zm-29.3 0v-22h7.3v22zm29.3-14.7v-7.3h7.3v7.3zm-22-7.3v-7.4h22v7.4zm44 29.3v-7.3h22.1v7.3zm-7.4-7.3v-22h7.4v22zm29.3 0v-22h7.3v22zm-22-22v-7.4h22v7.4zm51.3 14.6v-14.6h7.4v14.6zm14.7 14.7v-29.3h7.3v29.3zm-29.3 0v-36.7h14.6v7.4h-7.3v29.3zm22-29.3v-7.4h7.3v7.4z"/>
</svg>