<svg version="1.2" xmlns="http://www.w3.org/2000/svg" viewBox="0 0 500 100" width="500" height="100">
	<style>
		.s0 { fill: #ffffff } 
	</style>
	<path id="Gemdation.com" class="s0" aria-label="Gemdation.com"  d="m41.5 67.4q-0.7 0-0.7-0.7 0-0.7 0.7-0.7 0.7 0 0.7 0.7 0 0.7-0.7 0.7zm-1.8 2q-0.7 0-0.7-0.7 0-0.7 0.7-0.7 0.7 0 0.7 0.7 0 0.7-0.7 0.7zm-2.2 2q-0.6 0-0.6-0.7 0-0.7 0.6-0.7 0.8 0 0.8 0.7 0 0.7-0.8 0.7zm-2.4 1.5q-0.7 0-0.7-0.7 0-0.7 0.7-0.7 0.7 0 0.7 0.7 0 0.7-0.7 0.7zm-2.7 1.2q-0.7 0-0.7-0.7 0-0.7 0.7-0.7 0.7 0 0.7 0.7 0 0.7-0.7 0.7zm-2.9 0.8q-0.7 0-0.7-0.7 0-0.7 0.7-0.7 0.7 0 0.7 0.7 0 0.7-0.7 0.7zm-2.9 0.4q-0.7 0-0.7-0.7 0-0.7 0.7-0.7 0.7 0 0.7 0.7 0 0.7-0.7 0.7zm-3 0.1q-0.7 0-0.7-0.7 0-0.7 0.7-0.7 0.7 0 0.7 0.7 0 0.7-0.7 0.7zm-2.9-0.4q-0.7 0-0.7-0.7 0-0.7 0.7-0.7 0.7 0 0.7 0.7 0 0.7-0.7 0.7zm-2.8-0.9q-0.7 0-0.7-0.7 0-0.7 0.7-0.7 0.7 0 0.7 0.7 0 0.7-0.7 0.7zm-2.8-1.3q-0.6 0-0.6-0.7 0-0.7 0.7-0.7 0.6 0 0.6 0.7 0 0.7-0.6 0.7zm-12.9-21.5q-0.7 0-0.7-0.7 0-0.7 0.7-0.7 0.7 0 0.7 0.7 0 0.7-0.7 0.7zm0.2 2.9q-0.7 0-0.7-0.7 0-0.7 0.7-0.7 0.7 0 0.7 0.7 0 0.7-0.7 0.7zm0.6 2.9q-0.7 0-0.7-0.7 0-0.7 0.7-0.7 0.7 0 0.7 0.7 0 0.7-0.7 0.7zm0.9 2.9q-0.7 0-0.7-0.7 0-0.7 0.7-0.7 0.7 0 0.7 0.7 0 0.7-0.7 0.7zm1.3 2.6q-0.7 0-0.7-0.7 0-0.7 0.7-0.7 0.7 0 0.7 0.7 0 0.7-0.7 0.7zm1.2 2.4q-0.7 0-0.7-0.7 0-0.7 0.7-0.7 0.7 0 0.7 0.7 0 0.7-0.7 0.7zm1.9 2.3q-0.7 0-0.7-0.7 0-0.7 0.7-0.7 0.7 0 0.7 0.7 0 0.7-0.7 0.7zm2.1 2q-0.7 0-0.7-0.7 0-0.7 0.7-0.7 0.7 0 0.7 0.7 0 0.7-0.7 0.7zm2.3 1.9q-0.7 0-0.7-0.8 0-0.7 0.7-0.7 0.7 0 0.7 0.7 0 0.8-0.7 0.8zm29.4-35.7q0.7 0 0.7 0.7 0 0.7-0.7 0.7-0.7 0-0.7-0.7 0-0.7 0.7-0.7zm-1.5-2.4q0.7 0 0.7 0.7 0 0.7-0.7 0.7-0.7 0-0.7-0.7 0-0.7 0.7-0.7zm-1.9-2.2q0.7 0 0.7 0.7 0 0.7-0.7 0.7-0.7 0-0.7-0.7 0-0.7 0.7-0.7zm-2.2-2q0.7 0 0.7 0.7 0 0.7-0.7 0.7-0.7 0-0.7-0.7 0-0.7 0.7-0.7zm-2.5-1.4q0.7 0 0.7 0.7 0 0.7-0.7 0.7-0.8 0-0.8-0.7 0-0.7 0.8-0.7zm-2.7-1.2q0.7 0 0.7 0.8 0 0.7-0.7 0.7-0.7 0-0.7-0.7 0-0.8 0.7-0.8zm-2.7-0.8q0.7 0 0.7 0.7 0 0.7-0.7 0.7-0.7 0-0.7-0.7 0-0.7 0.7-0.7zm-2.8-0.3q0.7 0 0.7 0.7 0 0.7-0.7 0.7-0.7 0-0.7-0.7 0-0.7 0.7-0.7zm-2.9 0q0.7 0 0.7 0.7 0 0.7-0.7 0.7-0.7 0-0.7-0.7 0-0.7 0.7-0.7zm-2.8 0.4q0.7 0 0.7 0.7 0 0.7-0.7 0.7-0.7 0-0.7-0.7 0-0.7 0.7-0.7zm-2.9 0.8q0.7 0 0.7 0.7 0 0.7-0.7 0.7-0.7 0-0.7-0.7 0-0.7 0.7-0.7zm-2.6 1.1q0.7 0 0.7 0.7 0 0.7-0.7 0.7-0.7 0-0.7-0.7 0-0.7 0.7-0.7zm-12.4 19.4q0.7 0 0.7 0.7 0 0.7-0.7 0.7-0.7 0-0.7-0.7 0-0.7 0.7-0.7zm0.5-2.9q0.7 0 0.7 0.7 0 0.7-0.7 0.7-0.7 0-0.7-0.7 0-0.7 0.7-0.7zm0.7-2.8q0.7 0 0.7 0.7 0 0.7-0.7 0.7-0.7 0-0.7-0.7 0-0.7 0.7-0.7zm1.1-2.8q0.7 0 0.7 0.7 0 0.7-0.7 0.7-0.7 0-0.7-0.7 0-0.7 0.7-0.7zm1.4-2.5q0.7 0 0.7 0.7 0 0.7-0.7 0.7-0.7 0-0.7-0.7 0-0.7 0.7-0.7zm1.7-2.4q0.7 0 0.7 0.7 0 0.7-0.7 0.7-0.7 0-0.7-0.7 0-0.7 0.7-0.7zm2.1-2.4q0.7 0 0.7 0.7 0 0.7-0.7 0.7-0.7 0-0.7-0.7 0-0.7 0.7-0.7zm2.3-1.9q0.7 0 0.7 0.6 0 0.8-0.7 0.8-0.7 0-0.7-0.8 0-0.6 0.7-0.6zm31.3 32.2q-0.7 0-0.7-0.7 0-0.7 0.7-0.7 0.7 0 0.7 0.7 0 0.7-0.7 0.7zm0 2.9q-0.7 0-0.7-0.7 0-0.7 0.7-0.7 0.7 0 0.7 0.7 0 0.7-0.7 0.7zm0 2.6q-0.7 0-0.7-0.7 0-0.6 0.7-0.6 0.7 0 0.7 0.6 0 0.7-0.7 0.7zm0 2.7q-0.7 0-0.7-0.7 0-0.7 0.7-0.7 0.7 0 0.7 0.7 0 0.7-0.7 0.7zm0-16.5q-0.7 0-0.7-0.7 0-0.7 0.7-0.7 0.7 0 0.7 0.7 0 0.7-0.7 0.7zm0 2.8q-0.7 0-0.7-0.7 0-0.7 0.7-0.7 0.7 0 0.7 0.7 0 0.7-0.7 0.7zm0 2.8q-0.7 0-0.7-0.7 0-0.7 0.7-0.7 0.7 0 0.7 0.7 0 0.7-0.7 0.7zm0 13.7q-0.7 0-0.7-0.7 0-0.7 0.7-0.7 0.7 0 0.7 0.7 0 0.7-0.7 0.7zm0 2.8q-0.7 0-0.7-0.7 0-0.7 0.7-0.7 0.7 0 0.7 0.7 0 0.7-0.7 0.7zm-12.4-22.2q-0.7 0-0.7-0.7 0-0.7 0.7-0.7 0.7 0 0.7 0.7 0 0.7-0.7 0.7zm2.5 0q-0.7 0-0.7-0.7 0-0.7 0.7-0.7 0.7 0 0.7 0.7 0 0.7-0.7 0.7zm2.4 0q-0.7 0-0.7-0.7 0-0.7 0.7-0.7 0.7 0 0.7 0.7 0 0.7-0.7 0.7zm2.5 0q-0.7 0-0.7-0.7 0-0.7 0.7-0.7 0.7 0 0.7 0.7 0 0.7-0.7 0.7zm2.4 0q-0.7 0-0.7-0.7 0-0.7 0.7-0.7 0.7 0 0.7 0.7 0 0.7-0.7 0.7zm28.9-13.3q-0.7 0-0.7-0.7 0-0.7 0.7-0.7 0.7 0 0.7 0.7 0 0.7-0.7 0.7zm3.2 0.5q-0.7 0-0.7-0.7 0-0.7 0.7-0.7 0.7 0 0.7 0.7 0 0.7-0.7 0.7zm2.8 0.9q-0.7 0-0.7-0.7 0-0.7 0.7-0.7 0.7 0 0.7 0.7 0 0.7-0.7 0.7zm2.8 1.6q-0.7 0-0.7-0.7 0-0.7 0.7-0.7 0.7 0 0.7 0.7 0 0.7-0.7 0.7zm2.2 2q-0.7 0-0.7-0.7 0-0.7 0.7-0.7 0.7 0 0.7 0.7 0 0.7-0.7 0.7zm3.4 4.8q-0.7 0-0.7-0.7 0-0.7 0.7-0.7 0.7 0 0.7 0.7 0 0.7-0.7 0.7zm1.1 2.6q-0.7 0-0.7-0.7 0-0.7 0.7-0.7 0.7 0 0.7 0.7 0 0.7-0.7 0.7zm0.8 5.4q-0.7 0-0.7-0.7 0-0.7 0.7-0.7 0.7 0 0.7 0.7 0 0.7-0.7 0.7zm-3.3-10.4q-0.7 0-0.7-0.7 0-0.7 0.7-0.7 0.7 0 0.7 0.7 0 0.7-0.7 0.7zm3 7.7q-0.7 0-0.7-0.7 0-0.7 0.7-0.7 0.7 0 0.7 0.7 0 0.7-0.7 0.7zm-19.3-14.6q-0.7 0-0.7-0.7 0-0.7 0.7-0.7 0.7 0 0.7 0.7 0 0.7-0.7 0.7zm-2.8 0.9q-0.7 0-0.7-0.7 0-0.7 0.7-0.7 0.7 0 0.7 0.7 0 0.7-0.7 0.7zm-2.7 1.6q-0.7 0-0.7-0.7 0-0.7 0.7-0.7 0.7 0 0.7 0.7 0 0.7-0.7 0.7zm-2.2 2q-0.7 0-0.7-0.7 0-0.7 0.7-0.7 0.7 0 0.7 0.7 0 0.7-0.7 0.7zm-3.5 4.8q-0.7 0-0.7-0.7 0-0.7 0.7-0.7 0.7 0 0.7 0.7 0 0.7-0.7 0.7zm-1 2.6q-0.7 0-0.7-0.7 0-0.7 0.7-0.7 0.7 0 0.7 0.7 0 0.7-0.7 0.7zm-0.9 5.4q-0.7 0-0.7-0.7 0-0.7 0.7-0.7 0.7 0 0.7 0.7 0 0.7-0.7 0.7zm3.4-10.4q-0.7 0-0.7-0.7 0-0.7 0.7-0.7 0.7 0 0.7 0.7 0 0.7-0.7 0.7zm-3.1 7.6q-0.7 0-0.7-0.7 0-0.7 0.7-0.7 0.7 0 0.7 0.7 0 0.7-0.7 0.7zm16.1 19.3q0.7 0 0.7 0.7 0 0.6-0.7 0.6-0.7 0-0.7-0.6 0-0.7 0.7-0.7zm3.3-0.4q0.7 0 0.7 0.7 0 0.7-0.7 0.7-0.7 0-0.7-0.7 0-0.7 0.7-0.7zm3.1-1q0.7 0 0.7 0.7 0 0.7-0.7 0.7-0.7 0-0.7-0.7 0-0.7 0.7-0.7zm2.6-1.4q0.8 0 0.8 0.7 0 0.7-0.8 0.7-0.7 0-0.7-0.7 0-0.7 0.7-0.7zm2.3-2q0.7 0 0.7 0.7 0 0.7-0.7 0.7-0.7 0-0.7-0.7 0-0.7 0.7-0.7zm1.9-2.4q0.7 0 0.7 0.7 0 0.7-0.7 0.7-0.7 0-0.7-0.7 0-0.7 0.7-0.7zm-16.5 6.7q0.7 0 0.7 0.7 0 0.7-0.7 0.7-0.7 0-0.7-0.7 0-0.7 0.7-0.7zm-2.8-1.1q0.7 0 0.7 0.7 0 0.7-0.7 0.7-0.7 0-0.7-0.7 0-0.7 0.7-0.7zm-2.7-1.6q0.7 0 0.7 0.7 0 0.7-0.7 0.7-0.7 0-0.7-0.7 0-0.7 0.7-0.7zm-2.2-2q0.7 0 0.7 0.7 0 0.7-0.7 0.7-0.7 0-0.7-0.7 0-0.7 0.7-0.7zm-3.5-4.8q0.7 0 0.7 0.7 0 0.7-0.7 0.7-0.7 0-0.7-0.7 0-0.7 0.7-0.7zm-1-2.6q0.7 0 0.7 0.7 0 0.7-0.7 0.7-0.7 0-0.7-0.7 0-0.7 0.7-0.7zm2.5 5.1q0.7 0 0.7 0.7 0 0.7-0.7 0.7-0.7 0-0.7-0.7 0-0.7 0.7-0.7zm-3.1-7.7q0.7 0 0.7 0.7 0 0.7-0.7 0.7-0.7 0-0.7-0.7 0-0.7 0.7-0.7zm29.7-1.3q-0.7 0-0.7-0.7 0-0.7 0.7-0.7 0.7 0 0.7 0.7 0 0.7-0.7 0.7zm-3.2 0q-0.6 0-0.6-0.7 0-0.7 0.6-0.7 0.7 0 0.7 0.7 0 0.7-0.7 0.7zm-2.8 0q-0.7 0-0.7-0.7 0-0.7 0.7-0.7 0.7 0 0.7 0.7 0 0.7-0.7 0.7zm-2.8 0q-0.7 0-0.7-0.7 0-0.7 0.7-0.7 0.7 0 0.7 0.7 0 0.7-0.7 0.7zm-3 0q-0.7 0-0.7-0.7 0-0.7 0.7-0.7 0.7 0 0.7 0.7 0 0.7-0.7 0.7zm-3 0q-0.7 0-0.7-0.7 0-0.7 0.7-0.7 0.7 0 0.7 0.7 0 0.7-0.7 0.7zm-3.2 0q-0.7 0-0.7-0.7 0-0.7 0.7-0.7 0.7 0 0.7 0.7 0 0.7-0.7 0.7zm-3.1 0q-0.7 0-0.7-0.7 0-0.7 0.7-0.7 0.7 0 0.7 0.7 0 0.7-0.7 0.7zm-3.1 0q-0.7 0-0.7-0.7 0-0.7 0.7-0.7 0.7 0 0.7 0.7 0 0.7-0.7 0.7zm-2.9 0q-0.7 0-0.7-0.7 0-0.7 0.7-0.7 0.7 0 0.7 0.7 0 0.7-0.7 0.7zm40.5 1.3q-0.7 0-0.7-0.7 0-0.7 0.7-0.7 0.7 0 0.7 0.7 0 0.7-0.7 0.7zm0 2.8q-0.7 0-0.7-0.7 0-0.7 0.7-0.7 0.7 0 0.7 0.7 0 0.7-0.7 0.7zm0 2.8q-0.7 0-0.7-0.7 0-0.7 0.7-0.7 0.7 0 0.7 0.7 0 0.7-0.7 0.7zm0 2.7q-0.7 0-0.7-0.7 0-0.7 0.7-0.7 0.7 0 0.7 0.7 0 0.7-0.7 0.7zm0 2.9q-0.7 0-0.7-0.7 0-0.7 0.7-0.7 0.7 0 0.7 0.7 0 0.7-0.7 0.7zm0 2.6q-0.7 0-0.7-0.7 0-0.7 0.7-0.7 0.7 0 0.7 0.7 0 0.7-0.7 0.7zm0 2.4q-0.7 0-0.7-0.7 0-0.7 0.7-0.7 0.7 0 0.7 0.7 0 0.7-0.7 0.7zm0-35q-0.7 0-0.7-0.7 0-0.7 0.7-0.7 0.7 0 0.7 0.7 0 0.7-0.7 0.7zm0 7.9q-0.7 0-0.7-0.7 0-0.7 0.7-0.7 0.7 0 0.7 0.7 0 0.7-0.7 0.7zm0 2.6q-0.7 0-0.7-0.7 0-0.7 0.7-0.7 0.7 0 0.7 0.7 0 0.7-0.7 0.7zm0 2.7q-0.7 0-0.7-0.7 0-0.7 0.7-0.7 0.7 0 0.7 0.7 0 0.7-0.7 0.7zm0 2.8q-0.7 0-0.7-0.7 0-0.7 0.7-0.7 0.7 0 0.7 0.7 0 0.7-0.7 0.7zm0-10.6q-0.7 0-0.7-0.7 0-0.7 0.7-0.7 0.7 0 0.7 0.7 0 0.7-0.7 0.7zm0-2.8q-0.7 0-0.7-0.7 0-0.7 0.7-0.7 0.7 0 0.7 0.7 0 0.7-0.7 0.7zm25.4 16.2q-0.7 0-0.7-0.7 0-0.7 0.7-0.7 0.7 0 0.7 0.7 0 0.7-0.7 0.7zm0 3q-0.7 0-0.7-0.7 0-0.7 0.7-0.7 0.7 0 0.7 0.7 0 0.7-0.7 0.7zm0 2.6q-0.7 0-0.7-0.7 0-0.7 0.7-0.7 0.7 0 0.7 0.7 0 0.7-0.7 0.7zm0 2.9q-0.7 0-0.7-0.7 0-0.7 0.7-0.7 0.7 0 0.7 0.7 0 0.7-0.7 0.7zm0 2.6q-0.7 0-0.7-0.7 0-0.7 0.7-0.7 0.7 0 0.7 0.7 0 0.7-0.7 0.7zm0 2.7q-0.7 0-0.7-0.7 0-0.7 0.7-0.7 0.7 0 0.7 0.7 0 0.7-0.7 0.7zm0 2.4q-0.7 0-0.7-0.7 0-0.7 0.7-0.7 0.7 0 0.7 0.7 0 0.7-0.7 0.7zm-12.3-35.1q-0.7 0-0.7-0.7 0-0.7 0.7-0.7 0.7 0 0.7 0.7 0 0.7-0.7 0.7zm2.7-0.1q-0.7 0-0.7-0.7 0-0.7 0.7-0.7 0.7 0 0.7 0.7 0 0.7-0.7 0.7zm2.8 0.6q-0.7 0-0.7-0.7 0-0.7 0.7-0.7 0.7 0 0.7 0.7 0 0.7-0.7 0.7zm2.8 1.5q-0.7 0-0.7-0.7 0-0.7 0.7-0.7 0.7 0 0.7 0.7 0 0.7-0.7 0.7zm1.7 2.1q-0.7 0-0.7-0.7 0-0.7 0.7-0.7 0.7 0 0.7 0.7 0 0.7-0.7 0.7zm1.6 4.8q-0.7 0-0.7-0.7 0-0.7 0.7-0.7 0.7 0 0.7 0.7 0 0.7-0.7 0.7zm1 2.3q-0.7 0-0.7-0.7 0-0.7 0.7-0.7 0.7 0 0.7 0.7 0 0.7-0.7 0.7zm-1.6-4.7q-0.7 0-0.7-0.7 0-0.7 0.7-0.7 0.7 0 0.7 0.7 0 0.7-0.7 0.7zm1.3 7.4q-0.7 0-0.7-0.7 0-0.7 0.7-0.7 0.7 0 0.7 0.7 0 0.7-0.7 0.7zm-15.1-13.1q-0.7 0-0.7-0.7 0-0.7 0.7-0.7 0.7 0 0.7 0.7 0 0.7-0.7 0.7zm15.1 15.5q-0.7 0-0.7-0.7 0-0.7 0.7-0.7 0.7 0 0.7 0.7 0 0.7-0.7 0.7zm-17.6-14.2q-0.7 0-0.7-0.7 0-0.7 0.7-0.7 0.7 0 0.7 0.7 0 0.7-0.7 0.7zm-2 1.6q-0.7 0-0.7-0.7 0-0.7 0.7-0.7 0.7 0 0.7 0.7 0 0.7-0.7 0.7zm-2.1 2.6q-0.7 0-0.7-0.7 0-0.7 0.7-0.7 0.7 0 0.7 0.7 0 0.7-0.7 0.7zm-1.5 2.7q-0.7 0-0.7-0.7 0-0.7 0.7-0.7 0.7 0 0.7 0.7 0 0.7-0.7 0.7zm48.4 9.9q-0.7 0-0.7-0.7 0-0.7 0.7-0.7 0.7 0 0.7 0.7 0 0.7-0.7 0.7zm0 2.8q-0.7 0-0.7-0.7 0-0.7 0.7-0.7 0.7 0 0.7 0.7 0 0.7-0.7 0.7zm0 2.8q-0.7 0-0.7-0.7 0-0.7 0.7-0.7 0.7 0 0.7 0.7 0 0.7-0.7 0.7zm0 2.7q-0.7 0-0.7-0.7 0-0.7 0.7-0.7 0.7 0 0.7 0.7 0 0.7-0.7 0.7zm0 2.9q-0.7 0-0.7-0.7 0-0.7 0.7-0.7 0.7 0 0.7 0.7 0 0.7-0.7 0.7zm0 2.6q-0.7 0-0.7-0.7 0-0.7 0.7-0.7 0.7 0 0.7 0.7 0 0.7-0.7 0.7zm0 2.4q-0.7 0-0.7-0.7 0-0.7 0.7-0.7 0.7 0 0.7 0.7 0 0.7-0.7 0.7zm-12.3-35.1q-0.7 0-0.7-0.7 0-0.7 0.7-0.7 0.7 0 0.7 0.7 0 0.7-0.7 0.7zm2.7-0.1q-0.7 0-0.7-0.7 0-0.7 0.7-0.7 0.7 0 0.7 0.7 0 0.7-0.7 0.7zm2.8 0.6q-0.7 0-0.7-0.7 0-0.7 0.7-0.7 0.7 0 0.7 0.7 0 0.7-0.7 0.7zm2.8 1.5q-0.7 0-0.7-0.7 0-0.7 0.7-0.7 0.7 0 0.7 0.7 0 0.7-0.7 0.7zm1.7 2.1q-0.7 0-0.7-0.7 0-0.7 0.7-0.7 0.7 0 0.7 0.7 0 0.7-0.7 0.7zm1.6 4.8q-0.7 0-0.7-0.7 0-0.7 0.7-0.7 0.7 0 0.7 0.7 0 0.7-0.7 0.7zm0.3 2.6q-0.7 0-0.7-0.7 0-0.7 0.7-0.7 0.7 0 0.7 0.7 0 0.7-0.7 0.7zm-0.9-5q-0.7 0-0.7-0.7 0-0.7 0.7-0.7 0.7 0 0.7 0.7 0 0.7-0.7 0.7zm1.3 7.7q-0.7 0-0.7-0.7 0-0.7 0.7-0.7 0.7 0 0.7 0.7 0 0.7-0.7 0.7zm-15.1-13.4q-0.7 0-0.7-0.7 0-0.7 0.7-0.7 0.7 0 0.7 0.7 0 0.7-0.7 0.7zm15.1 15.8q-0.7 0-0.7-0.7 0-0.7 0.7-0.7 0.7 0 0.7 0.7 0 0.7-0.7 0.7zm-17.6-14.5q-0.7 0-0.7-0.7 0-0.7 0.7-0.7 0.7 0 0.7 0.7 0 0.7-0.7 0.7zm-2 1.6q-0.7 0-0.7-0.7 0-0.7 0.7-0.7 0.7 0 0.7 0.7 0 0.7-0.7 0.7zm-2.1 2.6q-0.7 0-0.7-0.7 0-0.7 0.7-0.7 0.7 0 0.7 0.7 0 0.7-0.7 0.7zm-1.5 2.7q-0.7 0-0.7-0.7 0-0.7 0.7-0.7 0.7 0 0.7 0.7 0 0.7-0.7 0.7zm54.5-7.9q-0.7 0-0.7-0.7 0-0.7 0.7-0.7 0.7 0 0.7 0.7 0 0.7-0.7 0.7zm-2.8-1q-0.7 0-0.7-0.7 0-0.7 0.7-0.7 0.7 0 0.7 0.7 0 0.7-0.7 0.7zm-2.8-0.3q-0.7 0-0.7-0.7 0-0.7 0.7-0.7 0.7 0 0.7 0.7 0 0.7-0.7 0.7zm-2.8 0.4q-0.7 0-0.7-0.7 0-0.7 0.7-0.7 0.7 0 0.7 0.7 0 0.7-0.7 0.7zm-2.8 0.9q-0.7 0-0.7-0.7 0-0.7 0.7-0.7 0.7 0 0.7 0.7 0 0.7-0.7 0.7zm13.7 1.4q-0.7 0-0.7-0.7 0-0.7 0.7-0.7 0.7 0 0.7 0.7 0 0.7-0.7 0.7zm-16.3 0.1q-0.7 0-0.7-0.7 0-0.7 0.7-0.7 0.7 0 0.7 0.7 0 0.7-0.7 0.7zm18.4 1.6q-0.7 0-0.7-0.7 0-0.7 0.7-0.7 0.7 0 0.7 0.7 0 0.7-0.7 0.7zm-20.8 0.5q-0.6 0-0.6-0.7 0-0.7 0.7-0.7 0.7 0 0.7 0.7 0 0.7-0.7 0.7zm-3.3 4.6q-0.7 0-0.7-0.7 0-0.7 0.7-0.7 0.7 0 0.7 0.7 0 0.7-0.7 0.7zm-0.9 2.6q-0.8 0-0.8-0.7 0-0.7 0.8-0.7 0.7 0 0.7 0.7 0 0.7-0.7 0.7zm-1 5.3q-0.7 0-0.7-0.7 0-0.7 0.7-0.7 0.7 0 0.7 0.7 0 0.7-0.7 0.7zm0.2 2.8q-0.7 0-0.7-0.7 0-0.7 0.7-0.7 0.7 0 0.7 0.7 0 0.7-0.7 0.7zm0.5 2.5q-0.7 0-0.7-0.7 0-0.7 0.7-0.7 0.7 0 0.7 0.7 0 0.7-0.7 0.7zm0.9 2.7q-0.7 0-0.7-0.7 0-0.7 0.7-0.7 0.7 0 0.7 0.7 0 0.7-0.7 0.7zm1.2 2.4q-0.7 0-0.7-0.7 0-0.7 0.7-0.7 0.7 0 0.7 0.7 0 0.7-0.7 0.7zm24.9 2.7q-0.7 0-0.7-0.7 0-0.7 0.7-0.7 0.7 0 0.7 0.7 0 0.7-0.7 0.7zm-23.3-0.5q-0.7 0-0.7-0.7 0-0.7 0.7-0.7 0.7 0 0.7 0.7 0 0.7-0.7 0.7zm19.2 3.7q-0.7 0-0.7-0.7 0-0.7 0.7-0.7 0.7 0 0.7 0.7 0 0.7-0.7 0.7zm-2.3 0.9q-0.7 0-0.7-0.7 0-0.7 0.7-0.7 0.7 0 0.7 0.7 0 0.7-0.7 0.7zm-10.6 0q-0.6 0-0.6-0.7 0-0.7 0.6-0.7 0.7 0 0.7 0.7 0 0.7-0.7 0.7zm-2.3-1.2q-0.7 0-0.7-0.7 0-0.7 0.7-0.7 0.7 0 0.7 0.7 0 0.7-0.7 0.7zm23-15q-0.7 0-0.7-0.7 0-0.7 0.7-0.7 0.7 0 0.7 0.7 0 0.7-0.7 0.7zm0 2.8q-0.7 0-0.7-0.7 0-0.7 0.7-0.7 0.7 0 0.7 0.7 0 0.7-0.7 0.7zm0 2.8q-0.7 0-0.7-0.7 0-0.7 0.7-0.7 0.7 0 0.7 0.7 0 0.7-0.7 0.7zm0 2.8q-0.7 0-0.7-0.7 0-0.7 0.7-0.7 0.7 0 0.7 0.7 0 0.7-0.7 0.7zm0 2.8q-0.7 0-0.7-0.7 0-0.7 0.7-0.7 0.7 0 0.7 0.7 0 0.7-0.7 0.7zm0 2.8q-0.7 0-0.7-0.7 0-0.7 0.7-0.7 0.7 0 0.7 0.7 0 0.7-0.7 0.7zm0 2.8q-0.7 0-0.7-0.7 0-0.7 0.7-0.7 0.7 0 0.7 0.7 0 0.7-0.7 0.7zm0-39q-0.7 0-0.7-0.7 0-0.7 0.7-0.7 0.7 0 0.7 0.7 0 0.7-0.7 0.7zm0 2.7q-0.7 0-0.7-0.7 0-0.7 0.7-0.7 0.7 0 0.7 0.7 0 0.7-0.7 0.7zm0 3q-0.7 0-0.7-0.7 0-0.7 0.7-0.7 0.7 0 0.7 0.7 0 0.7-0.7 0.7zm0 5.6q-0.7 0-0.7-0.7 0-0.7 0.7-0.7 0.7 0 0.7 0.7 0 0.7-0.7 0.7zm0 2.6q-0.7 0-0.7-0.7 0-0.7 0.7-0.7 0.7 0 0.7 0.7 0 0.7-0.7 0.7zm0 2.8q-0.7 0-0.7-0.7 0-0.7 0.7-0.7 0.7 0 0.7 0.7 0 0.7-0.7 0.7zm0 2.8q-0.7 0-0.7-0.7 0-0.7 0.7-0.7 0.7 0 0.7 0.7 0 0.7-0.7 0.7zm0-30.1q-0.7 0-0.7-0.7 0-0.7 0.7-0.7 0.7 0 0.7 0.7 0 0.7-0.7 0.7zm0 2.6q-0.7 0-0.7-0.7 0-0.7 0.7-0.7 0.7 0 0.7 0.7 0 0.7-0.7 0.7zm0 2.7q-0.7 0-0.7-0.7 0-0.7 0.7-0.7 0.7 0 0.7 0.7 0 0.7-0.7 0.7zm0 2.5q-0.7 0-0.7-0.7 0-0.7 0.7-0.7 0.7 0 0.7 0.7 0 0.7-0.7 0.7zm0 11.3q-0.7 0-0.7-0.7 0-0.7 0.7-0.7 0.7 0 0.7 0.7 0 0.7-0.7 0.7zm-28.2 2.5q-0.7 0-0.7-0.7 0-0.7 0.7-0.7 0.7 0 0.7 0.7 0 0.7-0.7 0.7zm-2.9 7.5q-0.7 0-0.7-0.7 0-0.7 0.7-0.7 0.7 0 0.7 0.7 0 0.7-0.7 0.7zm27.4-8.2q-0.7 0-0.7-0.7 0-0.7 0.7-0.7 0.7 0 0.7 0.7 0 0.7-0.7 0.7zm1.7 2.2q-0.7 0-0.7-0.7 0-0.7 0.7-0.7 0.7 0 0.7 0.7 0 0.7-0.7 0.7zm0 19.7q-0.7 0-0.7-0.7 0-0.7 0.7-0.7 0.7 0 0.7 0.7 0 0.7-0.7 0.7zm-13.1 7.3q-0.7 0-0.7-0.7 0-0.7 0.7-0.7 0.7 0 0.7 0.7 0 0.7-0.7 0.7zm2.6-0.3q-0.7 0-0.7-0.7 0-0.7 0.7-0.7 0.7 0 0.7 0.7 0 0.7-0.7 0.7zm6.8-3.2q-0.7 0-0.7-0.7 0-0.7 0.7-0.7 0.7 0 0.7 0.7 0 0.7-0.7 0.7zm-12.2 3.2q-0.7 0-0.7-0.7 0-0.7 0.7-0.7 0.7 0 0.7 0.7 0 0.7-0.7 0.7zm-7.3-3.5q-0.7 0-0.7-0.7 0-0.7 0.7-0.7 0.7 0 0.7 0.7 0 0.7-0.7 0.7zm46.5-31.3q-0.7 0-0.7-0.7 0-0.7 0.7-0.7 0.7 0 0.7 0.7 0 0.7-0.7 0.7zm2.8-0.5q-0.7 0-0.7-0.7 0-0.7 0.7-0.7 0.7 0 0.7 0.7 0 0.7-0.7 0.7zm2.9 0q-0.7 0-0.7-0.7 0-0.7 0.7-0.7 0.7 0 0.7 0.7 0 0.7-0.7 0.7zm2.7 0.6q-0.7 0-0.7-0.7 0-0.7 0.7-0.7 0.7 0 0.7 0.7 0 0.7-0.7 0.7zm-13.5 2q-0.7 0-0.7-0.7 0-0.7 0.7-0.7 0.7 0 0.7 0.7 0 0.7-0.7 0.7zm16-0.9q-0.7 0-0.7-0.7 0-0.7 0.7-0.7 0.7 0 0.7 0.7 0 0.7-0.7 0.7zm2.3 1.8q-0.7 0-0.7-0.7 0-0.7 0.7-0.7 0.7 0 0.7 0.7 0 0.7-0.7 0.7zm1.6 2.3q-0.7 0-0.7-0.7 0-0.7 0.7-0.7 0.7 0 0.7 0.7 0 0.7-0.7 0.7zm1.2 2.6q-0.7 0-0.7-0.7 0-0.7 0.7-0.7 0.7 0 0.7 0.7 0 0.7-0.7 0.7zm0.5 2.8q-0.7 0-0.7-0.7 0-0.7 0.7-0.7 0.7 0 0.7 0.7 0 0.7-0.7 0.7zm0.1 2.8q-0.7 0-0.7-0.7 0-0.7 0.7-0.7 0.7 0 0.7 0.7 0 0.7-0.7 0.7zm-19.7 2.8q-0.7 0-0.7-0.7 0-0.7 0.7-0.7 0.7 0 0.7 0.7 0 0.7-0.7 0.7zm2.8-0.8q-0.7 0-0.7-0.7 0-0.7 0.7-0.7 0.7 0 0.7 0.7 0 0.7-0.7 0.7zm11.6 1q-0.7 0-0.7-0.7 0-0.7 0.7-0.7 0.7 0 0.7 0.7 0 0.7-0.7 0.7zm2.7 1.1q-0.7 0-0.7-0.7 0-0.7 0.7-0.7 0.7 0 0.7 0.7 0 0.7-0.7 0.7zm2.5-1.2q-0.7 0-0.7-0.7 0-0.7 0.7-0.7 0.7 0 0.7 0.7 0 0.7-0.7 0.7zm-24.5 2.9q-0.7 0-0.7-0.7 0-0.7 0.7-0.7 0.7 0 0.7 0.7 0 0.7-0.7 0.7zm24.5 0q-0.7 0-0.7-0.7 0-0.7 0.7-0.7 0.7 0 0.7 0.7 0 0.7-0.7 0.7zm-26.3 2.8q-0.7 0-0.7-0.7 0-0.7 0.7-0.7 0.7 0 0.7 0.7 0 0.7-0.7 0.7zm26.3 0q-0.7 0-0.7-0.7 0-0.7 0.7-0.7 0.7 0 0.7 0.7 0 0.7-0.7 0.7zm0 2.8q-0.7 0-0.7-0.7 0-0.7 0.7-0.7 0.7 0 0.7 0.7 0 0.7-0.7 0.7zm-26.3 2.8q-0.7 0-0.7-0.7 0-0.7 0.7-0.7 0.7 0 0.7 0.7 0 0.7-0.7 0.7zm26.1 0q-0.7 0-0.7-0.7 0-0.7 0.7-0.7 0.7 0 0.7 0.7 0 0.7-0.7 0.7zm-24.9 2.7q-0.7 0-0.7-0.7 0-0.7 0.7-0.7 0.7 0 0.7 0.7 0 0.7-0.7 0.7zm22.7-0.8q-0.7 0-0.7-0.7 0-0.7 0.7-0.7 0.7 0 0.7 0.7 0 0.7-0.7 0.7zm2.8 0.9q-0.7 0-0.7-0.7 0-0.7 0.7-0.7 0.7 0 0.7 0.7 0 0.7-0.7 0.7zm-23.6 2q-0.7 0-0.7-0.7 0-0.7 0.7-0.7 0.7 0 0.7 0.7 0 0.7-0.7 0.7zm16.2 0.5q-0.7 0-0.7-0.7 0-0.7 0.7-0.7 0.7 0 0.7 0.7 0 0.7-0.7 0.7zm2.3-1.4q-0.7 0-0.7-0.7 0-0.7 0.7-0.7 0.7 0 0.7 0.7 0 0.7-0.7 0.7zm6 1.4q-0.7 0-0.7-0.7 0-0.7 0.7-0.7 0.7 0 0.7 0.7 0 0.7-0.7 0.7zm-20.4-32.1q-0.7 0-0.7-0.7 0-0.7 0.7-0.7 0.7 0 0.7 0.7 0 0.7-0.7 0.7zm-4.9 2.7q-0.7 0-0.7-0.7 0-0.7 0.7-0.7 0.7 0 0.7 0.7 0 0.7-0.7 0.7zm27 31.1q-0.7 0-0.7-0.7 0-0.7 0.7-0.7 0.7 0 0.7 0.7 0 0.7-0.7 0.7zm-29.9-9.8q-0.7 0-0.7-0.7 0-0.7 0.7-0.7 0.7 0 0.7 0.7 0 0.7-0.7 0.7zm18.7-9.2q-0.7 0-0.7-0.7 0-0.7 0.7-0.7 0.7 0 0.7 0.7 0 0.7-0.7 0.7zm-2.7-0.3q-0.7 0-0.7-0.7 0-0.7 0.7-0.7 0.7 0 0.7 0.7 0 0.7-0.7 0.7zm-3-0.1q-0.7 0-0.7-0.7 0-0.7 0.7-0.7 0.7 0 0.7 0.7 0 0.7-0.7 0.7zm-8.3 2.3q-0.7 0-0.7-0.7 0-0.7 0.7-0.7 0.7 0 0.7 0.7 0 0.7-0.7 0.7zm1.4 16.5q-0.7 0-0.7-0.7 0-0.7 0.7-0.7 0.7 0 0.7 0.7 0 0.7-0.7 0.7zm2.6 0.8q-0.7 0-0.7-0.7 0-0.7 0.7-0.7 0.7 0 0.7 0.7 0 0.7-0.7 0.7zm2.8 0.2q-0.7 0-0.7-0.7 0-0.7 0.7-0.7 0.7 0 0.7 0.7 0 0.7-0.7 0.7zm3.1-0.3q-0.7 0-0.7-0.7 0-0.7 0.7-0.7 0.7 0 0.7 0.7 0 0.7-0.7 0.7zm2.8-0.7q-0.7 0-0.7-0.7 0-0.7 0.7-0.7 0.7 0 0.7 0.7 0 0.7-0.7 0.7zm33.6-0.1q-0.7 0-0.7-0.7 0-0.7 0.7-0.7 0.7 0 0.7 0.7 0 0.7-0.7 0.7zm-9.3-16.2q-0.7 0-0.7-0.7 0-0.7 0.7-0.7 0.7 0 0.7 0.7 0 0.7-0.7 0.7zm0 2.8q-0.7 0-0.7-0.7 0-0.7 0.7-0.7 0.7 0 0.7 0.7 0 0.7-0.7 0.7zm0 2.8q-0.7 0-0.7-0.7 0-0.7 0.7-0.7 0.7 0 0.7 0.7 0 0.7-0.7 0.7zm0 2.8q-0.7 0-0.7-0.7 0-0.7 0.7-0.7 0.7 0 0.7 0.7 0 0.7-0.7 0.7zm0 2.8q-0.7 0-0.7-0.7 0-0.7 0.7-0.7 0.7 0 0.7 0.7 0 0.7-0.7 0.7zm0.4 2.7q-0.7 0-0.7-0.7 0-0.7 0.7-0.7 0.7 0 0.7 0.7 0 0.7-0.7 0.7zm1.5 2q-0.7 0-0.7-0.7 0-0.7 0.7-0.7 0.7 0 0.7 0.7 0 0.7-0.7 0.7zm-1.9-38q-0.7 0-0.7-0.7 0-0.7 0.7-0.7 0.7 0 0.7 0.7 0 0.7-0.7 0.7zm0 3q-0.7 0-0.7-0.7 0-0.7 0.7-0.7 0.7 0 0.7 0.7 0 0.7-0.7 0.7zm0 2.6q-0.7 0-0.7-0.7 0-0.7 0.7-0.7 0.7 0 0.7 0.7 0 0.7-0.7 0.7zm0 5.6q-0.7 0-0.7-0.7 0-0.7 0.7-0.7 0.7 0 0.7 0.7 0 0.7-0.7 0.7zm0 2.6q-0.7 0-0.7-0.7 0-0.7 0.7-0.7 0.7 0 0.7 0.7 0 0.7-0.7 0.7zm0 2.8q-0.7 0-0.7-0.7 0-0.7 0.7-0.7 0.7 0 0.7 0.7 0 0.7-0.7 0.7zm0 2.8q-0.7 0-0.7-0.7 0-0.7 0.7-0.7 0.7 0 0.7 0.7 0 0.7-0.7 0.7zm0-27.5q-0.7 0-0.7-0.7 0-0.7 0.7-0.7 0.7 0 0.7 0.7 0 0.7-0.7 0.7zm0 2.7q-0.7 0-0.7-0.7 0-0.7 0.7-0.7 0.7 0 0.7 0.7 0 0.7-0.7 0.7zm0 2.6q-0.7 0-0.7-0.7 0-0.7 0.7-0.7 0.7 0 0.7 0.7 0 0.7-0.7 0.7zm0 11.2q-0.7 0-0.7-0.7 0-0.7 0.7-0.7 0.7 0 0.7 0.7 0 0.7-0.7 0.7zm4.3 30.5q-0.7 0-0.7-0.7 0-0.7 0.7-0.7 0.7 0 0.7 0.7 0 0.7-0.7 0.7zm2.5 0q-0.7 0-0.7-0.7 0-0.7 0.7-0.7 0.7 0 0.7 0.7 0 0.7-0.7 0.7zm4.7-1.6q-0.7 0-0.7-0.7 0-0.7 0.7-0.7 0.7 0 0.7 0.7 0 0.7-0.7 0.7zm-14.5-33.1q-0.8 0-0.8-0.7 0-0.7 0.8-0.7 0.7 0 0.7 0.7 0 0.7-0.7 0.7zm-2.6 0q-0.7 0-0.7-0.7 0-0.7 0.7-0.7 0.7 0 0.7 0.7 0 0.7-0.7 0.7zm8.2 0q-0.7 0-0.7-0.7 0-0.7 0.7-0.7 0.7 0 0.7 0.7 0 0.7-0.7 0.7zm2.7 0q-0.7 0-0.7-0.7 0-0.7 0.7-0.7 0.7 0 0.7 0.7 0 0.7-0.7 0.7zm2.8 0q-0.7 0-0.7-0.7 0-0.7 0.7-0.7 0.7 0 0.7 0.7 0 0.7-0.7 0.7zm11.3 18.6q-0.7 0-0.7-0.7 0-0.7 0.7-0.7 0.7 0 0.7 0.7 0 0.7-0.7 0.7zm0 2.8q-0.7 0-0.7-0.7 0-0.7 0.7-0.7 0.7 0 0.7 0.7 0 0.7-0.7 0.7zm0 2.8q-0.7 0-0.7-0.7 0-0.7 0.7-0.7 0.7 0 0.7 0.7 0 0.7-0.7 0.7zm0 2.7q-0.7 0-0.7-0.7 0-0.7 0.7-0.7 0.7 0 0.7 0.7 0 0.7-0.7 0.7zm0 2.9q-0.7 0-0.7-0.7 0-0.7 0.7-0.7 0.7 0 0.7 0.7 0 0.7-0.7 0.7zm0 2.6q-0.7 0-0.7-0.7 0-0.7 0.7-0.7 0.7 0 0.7 0.7 0 0.7-0.7 0.7zm0 2.4q-0.7 0-0.7-0.7 0-0.7 0.7-0.7 0.7 0 0.7 0.7 0 0.7-0.7 0.7zm0-35q-0.7 0-0.7-0.7 0-0.7 0.7-0.7 0.7 0 0.7 0.7 0 0.7-0.7 0.7zm0 7.9q-0.7 0-0.7-0.7 0-0.7 0.7-0.7 0.7 0 0.7 0.7 0 0.7-0.7 0.7zm0 2.6q-0.7 0-0.7-0.7 0-0.7 0.7-0.7 0.7 0 0.7 0.7 0 0.7-0.7 0.7zm0 2.7q-0.7 0-0.7-0.7 0-0.7 0.7-0.7 0.7 0 0.7 0.7 0 0.7-0.7 0.7zm0 2.8q-0.7 0-0.7-0.7 0-0.7 0.7-0.7 0.7 0 0.7 0.7 0 0.7-0.7 0.7zm0-10.6q-0.7 0-0.7-0.7 0-0.7 0.7-0.7 0.7 0 0.7 0.7 0 0.7-0.7 0.7zm0-2.8q-0.7 0-0.7-0.7 0-0.7 0.7-0.7 0.7 0 0.7 0.7 0 0.7-0.7 0.7zm0-17.3q-0.7 0-0.7-0.7 0-0.7 0.7-0.7 0.7 0 0.7 0.7 0 0.7-0.7 0.7zm0 5q-0.7 0-0.7-0.7 0-0.7 0.7-0.7 0.7 0 0.7 0.7 0 0.7-0.7 0.7zm0-2.4q-0.7 0-0.7-0.7 0-0.7 0.7-0.7 0.7 0 0.7 0.7 0 0.7-0.7 0.7zm28 11.8q-0.7 0-0.7-0.7 0-0.7 0.7-0.7 0.7 0 0.7 0.7 0 0.7-0.7 0.7zm3.2 0.5q-0.7 0-0.7-0.7 0-0.7 0.7-0.7 0.7 0 0.7 0.7 0 0.7-0.7 0.7zm2.8 0.9q-0.7 0-0.7-0.7 0-0.7 0.7-0.7 0.7 0 0.7 0.7 0 0.7-0.7 0.7zm2.8 1.6q-0.7 0-0.7-0.7 0-0.7 0.7-0.7 0.7 0 0.7 0.7 0 0.7-0.7 0.7zm2.2 2q-0.7 0-0.7-0.7 0-0.7 0.7-0.7 0.7 0 0.7 0.7 0 0.7-0.7 0.7zm3.4 4.8q-0.7 0-0.7-0.7 0-0.7 0.7-0.7 0.7 0 0.7 0.7 0 0.7-0.7 0.7zm1.1 2.6q-0.7 0-0.7-0.7 0-0.7 0.7-0.7 0.7 0 0.7 0.7 0 0.7-0.7 0.7zm0.8 5.4q-0.7 0-0.7-0.7 0-0.7 0.7-0.7 0.7 0 0.7 0.7 0 0.7-0.7 0.7zm-3.3-10.4q-0.7 0-0.7-0.7 0-0.7 0.7-0.7 0.7 0 0.7 0.7 0 0.7-0.7 0.7zm3 7.7q-0.7 0-0.7-0.7 0-0.7 0.7-0.7 0.7 0 0.7 0.7 0 0.7-0.7 0.7zm-19.3-14.6q-0.7 0-0.7-0.7 0-0.7 0.7-0.7 0.7 0 0.7 0.7 0 0.7-0.7 0.7zm-2.8 0.9q-0.7 0-0.7-0.7 0-0.7 0.7-0.7 0.7 0 0.7 0.7 0 0.7-0.7 0.7zm-2.7 1.6q-0.7 0-0.7-0.7 0-0.7 0.7-0.7 0.7 0 0.7 0.7 0 0.7-0.7 0.7zm-2.2 2q-0.7 0-0.7-0.7 0-0.7 0.7-0.7 0.7 0 0.7 0.7 0 0.7-0.7 0.7zm-3.5 4.8q-0.7 0-0.7-0.7 0-0.7 0.7-0.7 0.7 0 0.7 0.7 0 0.7-0.7 0.7zm-1 2.6q-0.7 0-0.7-0.7 0-0.7 0.7-0.7 0.7 0 0.7 0.7 0 0.7-0.7 0.7zm-0.9 5.4q-0.7 0-0.7-0.7 0-0.7 0.7-0.7 0.7 0 0.7 0.7 0 0.7-0.7 0.7zm3.4-10.4q-0.7 0-0.7-0.7 0-0.7 0.7-0.7 0.7 0 0.7 0.7 0 0.7-0.7 0.7zm-3.1 7.6q-0.7 0-0.7-0.7 0-0.7 0.7-0.7 0.7 0 0.7 0.7 0 0.7-0.7 0.7zm16.1 19.1q0.7 0 0.7 0.7 0 0.7-0.7 0.7-0.7 0-0.7-0.7 0-0.7 0.7-0.7zm3.2-0.5q0.7 0 0.7 0.7 0 0.7-0.7 0.7-0.7 0-0.7-0.7 0-0.7 0.7-0.7zm2.8-0.9q0.7 0 0.7 0.7 0 0.7-0.7 0.7-0.7 0-0.7-0.7 0-0.7 0.7-0.7zm2.8-1.6q0.7 0 0.7 0.7 0 0.7-0.7 0.7-0.7 0-0.7-0.7 0-0.7 0.7-0.7zm2.2-2q0.7 0 0.7 0.7 0 0.7-0.7 0.7-0.7 0-0.7-0.7 0-0.7 0.7-0.7zm3.4-4.8q0.7 0 0.7 0.7 0 0.7-0.7 0.7-0.7 0-0.7-0.7 0-0.7 0.7-0.7zm1.1-2.6q0.7 0 0.7 0.7 0 0.7-0.7 0.7-0.7 0-0.7-0.7 0-0.7 0.7-0.7zm-2.5 5.1q0.7 0 0.7 0.7 0 0.7-0.7 0.7-0.7 0-0.7-0.7 0-0.7 0.7-0.7zm3.1-7.7q0.7 0 0.7 0.7 0 0.7-0.7 0.7-0.7 0-0.7-0.7 0-0.7 0.7-0.7zm-19.4 14.5q0.7 0 0.7 0.7 0 0.7-0.7 0.7-0.7 0-0.7-0.7 0-0.7 0.7-0.7zm-2.8-0.9q0.7 0 0.7 0.7 0 0.7-0.7 0.7-0.7 0-0.7-0.7 0-0.7 0.7-0.7zm-2.7-1.6q0.7 0 0.7 0.7 0 0.7-0.7 0.7-0.7 0-0.7-0.7 0-0.7 0.7-0.7zm-2.2-2q0.7 0 0.7 0.7 0 0.7-0.7 0.7-0.7 0-0.7-0.7 0-0.7 0.7-0.7zm-3.5-4.8q0.7 0 0.7 0.7 0 0.7-0.7 0.7-0.7 0-0.7-0.7 0-0.7 0.7-0.7zm-1-2.6q0.7 0 0.7 0.7 0 0.7-0.7 0.7-0.7 0-0.7-0.7 0-0.7 0.7-0.7zm2.5 5.1q0.7 0 0.7 0.7 0 0.7-0.7 0.7-0.7 0-0.7-0.7 0-0.7 0.7-0.7zm-3.1-7.7q0.7 0 0.7 0.7 0 0.7-0.7 0.7-0.7 0-0.7-0.7 0-0.7 0.7-0.7zm43.1 0q-0.7 0-0.7-0.7 0-0.7 0.7-0.7 0.7 0 0.7 0.7 0 0.7-0.7 0.7zm0 2.8q-0.7 0-0.7-0.7 0-0.7 0.7-0.7 0.7 0 0.7 0.7 0 0.7-0.7 0.7zm0 2.8q-0.7 0-0.7-0.7 0-0.7 0.7-0.7 0.7 0 0.7 0.7 0 0.7-0.7 0.7zm0 2.7q-0.7 0-0.7-0.7 0-0.7 0.7-0.7 0.7 0 0.7 0.7 0 0.7-0.7 0.7zm0 2.9q-0.7 0-0.7-0.7 0-0.7 0.7-0.7 0.7 0 0.7 0.7 0 0.7-0.7 0.7zm0 2.6q-0.7 0-0.7-0.7 0-0.7 0.7-0.7 0.7 0 0.7 0.7 0 0.7-0.7 0.7zm0 2.4q-0.7 0-0.7-0.7 0-0.7 0.7-0.7 0.7 0 0.7 0.7 0 0.7-0.7 0.7zm0-35q-0.7 0-0.7-0.7 0-0.7 0.7-0.7 0.7 0 0.7 0.7 0 0.7-0.7 0.7zm0 7.9q-0.7 0-0.7-0.7 0-0.7 0.7-0.7 0.7 0 0.7 0.7 0 0.7-0.7 0.7zm0 2.6q-0.7 0-0.7-0.7 0-0.7 0.7-0.7 0.7 0 0.7 0.7 0 0.7-0.7 0.7zm0 2.7q-0.7 0-0.7-0.7 0-0.7 0.7-0.7 0.7 0 0.7 0.7 0 0.7-0.7 0.7zm0 2.8q-0.7 0-0.7-0.7 0-0.7 0.7-0.7 0.7 0 0.7 0.7 0 0.7-0.7 0.7zm0-10.6q-0.7 0-0.7-0.7 0-0.7 0.7-0.7 0.7 0 0.7 0.7 0 0.7-0.7 0.7zm0-2.8q-0.7 0-0.7-0.7 0-0.7 0.7-0.7 0.7 0 0.7 0.7 0 0.7-0.7 0.7zm26.7 16.2q-0.7 0-0.7-0.7 0-0.7 0.7-0.7 0.7 0 0.7 0.7 0 0.7-0.7 0.7zm0 2.8q-0.7 0-0.7-0.7 0-0.7 0.7-0.7 0.7 0 0.7 0.7 0 0.7-0.7 0.7zm0 2.8q-0.7 0-0.7-0.7 0-0.7 0.7-0.7 0.7 0 0.7 0.7 0 0.7-0.7 0.7zm0 2.7q-0.7 0-0.7-0.7 0-0.7 0.7-0.7 0.7 0 0.7 0.7 0 0.7-0.7 0.7zm0 2.9q-0.7 0-0.7-0.7 0-0.7 0.7-0.7 0.7 0 0.7 0.7 0 0.7-0.7 0.7zm0 2.6q-0.7 0-0.7-0.7 0-0.7 0.7-0.7 0.7 0 0.7 0.7 0 0.7-0.7 0.7zm0 2.4q-0.7 0-0.7-0.7 0-0.7 0.7-0.7 0.7 0 0.7 0.7 0 0.7-0.7 0.7zm-12.7-34.9q-0.7 0-0.7-0.7 0-0.7 0.7-0.7 0.7 0 0.7 0.7 0 0.7-0.7 0.7zm3.2-0.3q-0.7 0-0.7-0.7 0-0.7 0.7-0.7 0.7 0 0.7 0.7 0 0.7-0.7 0.7zm3 0.6q-0.7 0-0.7-0.7 0-0.7 0.7-0.7 0.7 0 0.7 0.7 0 0.7-0.7 0.7zm2.7 1.6q-0.7 0-0.7-0.7 0-0.7 0.7-0.7 0.7 0 0.7 0.7 0 0.7-0.7 0.7zm1.5 2q-0.7 0-0.7-0.7 0-0.7 0.7-0.7 0.7 0 0.7 0.7 0 0.7-0.7 0.7zm1.6 4.8q-0.7 0-0.7-0.7 0-0.7 0.7-0.7 0.7 0 0.7 0.7 0 0.7-0.7 0.7zm0.3 2.6q-0.7 0-0.7-0.7 0-0.7 0.7-0.7 0.7 0 0.7 0.7 0 0.7-0.7 0.7zm-0.9-5q-0.7 0-0.7-0.7 0-0.7 0.7-0.7 0.7 0 0.7 0.7 0 0.7-0.7 0.7zm1.3 7.7q-0.7 0-0.7-0.7 0-0.7 0.7-0.7 0.7 0 0.7 0.7 0 0.7-0.7 0.7zm-15.7-13q-0.7 0-0.7-0.7 0-0.7 0.7-0.7 0.7 0 0.7 0.7 0 0.7-0.7 0.7zm15.7 15.1q-0.7 0-0.7-0.7 0-0.7 0.7-0.7 0.7 0 0.7 0.7 0 0.7-0.7 0.7zm-18.4-13.8q-0.7 0-0.7-0.7 0-0.7 0.7-0.7 0.7 0 0.7 0.7 0 0.7-0.7 0.7zm-2.4 1.8q-0.7 0-0.7-0.7 0-0.7 0.7-0.7 0.7 0 0.7 0.7 0 0.7-0.7 0.7zm-2 2.2q-0.7 0-0.7-0.7 0-0.7 0.7-0.7 0.7 0 0.7 0.7 0 0.7-0.7 0.7zm-1.7 2.5q-0.7 0-0.7-0.7 0-0.7 0.7-0.7 0.7 0 0.7 0.7 0 0.7-0.7 0.7zm37.1 26.2q-0.7 0-0.7-0.7 0-0.7 0.7-0.7 0.7 0 0.7 0.7 0 0.7-0.7 0.7zm0-2.3q-0.7 0-0.7-0.7 0-0.7 0.7-0.7 0.7 0 0.7 0.7 0 0.7-0.7 0.7zm0-2.3q-0.7 0-0.7-0.7 0-0.7 0.7-0.7 0.7 0 0.7 0.7 0 0.7-0.7 0.7zm26.7-30.8q-0.7 0-0.7-0.7 0-0.7 0.7-0.7 0.7 0 0.7 0.7 0 0.7-0.7 0.7zm3.2 0.5q-0.7 0-0.7-0.7 0-0.7 0.7-0.7 0.7 0 0.7 0.7 0 0.7-0.7 0.7zm2.8 0.9q-0.7 0-0.7-0.7 0-0.7 0.7-0.7 0.7 0 0.7 0.7 0 0.7-0.7 0.7zm2.8 1.6q-0.7 0-0.7-0.7 0-0.7 0.7-0.7 0.7 0 0.7 0.7 0 0.7-0.7 0.7zm2.2 2q-0.7 0-0.7-0.7 0-0.7 0.7-0.7 0.7 0 0.7 0.7 0 0.7-0.7 0.7zm1.6 2.3q-0.7 0-0.7-0.7 0-0.7 0.7-0.7 0.7 0 0.7 0.7 0 0.7-0.7 0.7zm-15.9-6.8q-0.7 0-0.7-0.7 0-0.7 0.7-0.7 0.7 0 0.7 0.7 0 0.7-0.7 0.7zm-2.8 0.9q-0.7 0-0.7-0.7 0-0.7 0.7-0.7 0.7 0 0.7 0.7 0 0.7-0.7 0.7zm-2.7 1.6q-0.7 0-0.7-0.7 0-0.7 0.7-0.7 0.7 0 0.7 0.7 0 0.7-0.7 0.7zm-2.2 2q-0.7 0-0.7-0.7 0-0.7 0.7-0.7 0.7 0 0.7 0.7 0 0.7-0.7 0.7zm-3.5 4.8q-0.7 0-0.7-0.7 0-0.7 0.7-0.7 0.7 0 0.7 0.7 0 0.7-0.7 0.7zm-1 2.6q-0.7 0-0.7-0.7 0-0.7 0.7-0.7 0.7 0 0.7 0.7 0 0.7-0.7 0.7zm-0.9 5.4q-0.7 0-0.7-0.7 0-0.7 0.7-0.7 0.7 0 0.7 0.7 0 0.7-0.7 0.7zm3.4-10.4q-0.7 0-0.7-0.7 0-0.7 0.7-0.7 0.7 0 0.7 0.7 0 0.7-0.7 0.7zm-3.1 7.6q-0.7 0-0.7-0.7 0-0.7 0.7-0.7 0.7 0 0.7 0.7 0 0.7-0.7 0.7zm16.1 19.1q0.7 0 0.7 0.7 0 0.7-0.7 0.7-0.7 0-0.7-0.7 0-0.7 0.7-0.7zm3.2-0.5q0.7 0 0.7 0.7 0 0.7-0.7 0.7-0.7 0-0.7-0.7 0-0.7 0.7-0.7zm2.8-0.9q0.7 0 0.7 0.7 0 0.7-0.7 0.7-0.7 0-0.7-0.7 0-0.7 0.7-0.7zm2.8-1.6q0.7 0 0.7 0.7 0 0.7-0.7 0.7-0.7 0-0.7-0.7 0-0.7 0.7-0.7zm2.2-2q0.7 0 0.7 0.7 0 0.7-0.7 0.7-0.7 0-0.7-0.7 0-0.7 0.7-0.7zm2-2.3q0.7 0 0.7 0.7 0 0.7-0.7 0.7-0.7 0-0.7-0.7 0-0.7 0.7-0.7zm-16.3 6.8q0.7 0 0.7 0.7 0 0.7-0.7 0.7-0.7 0-0.7-0.7 0-0.7 0.7-0.7zm-2.8-0.9q0.7 0 0.7 0.7 0 0.7-0.7 0.7-0.7 0-0.7-0.7 0-0.7 0.7-0.7zm-2.7-1.6q0.7 0 0.7 0.7 0 0.7-0.7 0.7-0.7 0-0.7-0.7 0-0.7 0.7-0.7zm-2.2-2q0.7 0 0.7 0.7 0 0.7-0.7 0.7-0.7 0-0.7-0.7 0-0.7 0.7-0.7zm-3.5-4.8q0.7 0 0.7 0.7 0 0.7-0.7 0.7-0.7 0-0.7-0.7 0-0.7 0.7-0.7zm-1-2.6q0.7 0 0.7 0.7 0 0.7-0.7 0.7-0.7 0-0.7-0.7 0-0.7 0.7-0.7zm2.5 5.1q0.7 0 0.7 0.7 0 0.7-0.7 0.7-0.7 0-0.7-0.7 0-0.7 0.7-0.7zm-3.1-7.7q0.7 0 0.7 0.7 0 0.7-0.7 0.7-0.7 0-0.7-0.7 0-0.7 0.7-0.7zm53.1-19.1q-0.7 0-0.7-0.7 0-0.7 0.7-0.7 0.7 0 0.7 0.7 0 0.7-0.7 0.7zm3.2 0.5q-0.7 0-0.7-0.7 0-0.7 0.7-0.7 0.7 0 0.7 0.7 0 0.7-0.7 0.7zm2.8 0.9q-0.7 0-0.7-0.7 0-0.7 0.7-0.7 0.7 0 0.7 0.7 0 0.7-0.7 0.7zm2.8 1.6q-0.7 0-0.7-0.7 0-0.7 0.7-0.7 0.7 0 0.7 0.7 0 0.7-0.7 0.7zm2.2 2q-0.7 0-0.7-0.7 0-0.7 0.7-0.7 0.7 0 0.7 0.7 0 0.7-0.7 0.7zm3.4 4.8q-0.7 0-0.7-0.7 0-0.7 0.7-0.7 0.7 0 0.7 0.7 0 0.7-0.7 0.7zm1.1 2.6q-0.7 0-0.7-0.7 0-0.7 0.7-0.7 0.7 0 0.7 0.7 0 0.7-0.7 0.7zm0.8 5.4q-0.7 0-0.7-0.7 0-0.7 0.7-0.7 0.7 0 0.7 0.7 0 0.7-0.7 0.7zm-3.3-10.4q-0.7 0-0.7-0.7 0-0.7 0.7-0.7 0.7 0 0.7 0.7 0 0.7-0.7 0.7zm3 7.7q-0.7 0-0.7-0.7 0-0.7 0.7-0.7 0.7 0 0.7 0.7 0 0.7-0.7 0.7zm-19.3-14.6q-0.7 0-0.7-0.7 0-0.7 0.7-0.7 0.7 0 0.7 0.7 0 0.7-0.7 0.7zm-2.8 0.9q-0.7 0-0.7-0.7 0-0.7 0.7-0.7 0.7 0 0.7 0.7 0 0.7-0.7 0.7zm-2.7 1.6q-0.7 0-0.7-0.7 0-0.7 0.7-0.7 0.7 0 0.7 0.7 0 0.7-0.7 0.7zm-2.2 2q-0.7 0-0.7-0.7 0-0.7 0.7-0.7 0.7 0 0.7 0.7 0 0.7-0.7 0.7zm-3.5 4.8q-0.7 0-0.7-0.7 0-0.7 0.7-0.7 0.7 0 0.7 0.7 0 0.7-0.7 0.7zm-1 2.6q-0.7 0-0.7-0.7 0-0.7 0.7-0.7 0.7 0 0.7 0.7 0 0.7-0.7 0.7zm-0.9 5.4q-0.7 0-0.7-0.7 0-0.7 0.7-0.7 0.7 0 0.7 0.7 0 0.7-0.7 0.7zm3.4-10.4q-0.7 0-0.7-0.7 0-0.7 0.7-0.7 0.7 0 0.7 0.7 0 0.7-0.7 0.7zm-3.1 7.6q-0.7 0-0.7-0.7 0-0.7 0.7-0.7 0.7 0 0.7 0.7 0 0.7-0.7 0.7zm16.1 19.1q0.7 0 0.7 0.7 0 0.7-0.7 0.7-0.7 0-0.7-0.7 0-0.7 0.7-0.7zm3.2-0.5q0.7 0 0.7 0.7 0 0.7-0.7 0.7-0.7 0-0.7-0.7 0-0.7 0.7-0.7zm2.8-0.9q0.7 0 0.7 0.7 0 0.7-0.7 0.7-0.7 0-0.7-0.7 0-0.7 0.7-0.7zm2.8-1.6q0.7 0 0.7 0.7 0 0.7-0.7 0.7-0.7 0-0.7-0.7 0-0.7 0.7-0.7zm2.2-2q0.7 0 0.7 0.7 0 0.7-0.7 0.7-0.7 0-0.7-0.7 0-0.7 0.7-0.7zm3.4-4.8q0.7 0 0.7 0.7 0 0.7-0.7 0.7-0.7 0-0.7-0.7 0-0.7 0.7-0.7zm1.1-2.6q0.7 0 0.7 0.7 0 0.7-0.7 0.7-0.7 0-0.7-0.7 0-0.7 0.7-0.7zm-2.5 5.1q0.7 0 0.7 0.7 0 0.7-0.7 0.7-0.7 0-0.7-0.7 0-0.7 0.7-0.7zm3.1-7.7q0.7 0 0.7 0.7 0 0.7-0.7 0.7-0.7 0-0.7-0.7 0-0.7 0.7-0.7zm-19.4 14.5q0.7 0 0.7 0.7 0 0.7-0.7 0.7-0.7 0-0.7-0.7 0-0.7 0.7-0.7zm-2.8-0.9q0.7 0 0.7 0.7 0 0.7-0.7 0.7-0.7 0-0.7-0.7 0-0.7 0.7-0.7zm-2.7-1.6q0.7 0 0.7 0.7 0 0.7-0.7 0.7-0.7 0-0.7-0.7 0-0.7 0.7-0.7zm-2.2-2q0.7 0 0.7 0.7 0 0.7-0.7 0.7-0.7 0-0.7-0.7 0-0.7 0.7-0.7zm-3.5-4.8q0.7 0 0.7 0.7 0 0.7-0.7 0.7-0.7 0-0.7-0.7 0-0.7 0.7-0.7zm-1-2.6q0.7 0 0.7 0.7 0 0.7-0.7 0.7-0.7 0-0.7-0.7 0-0.7 0.7-0.7zm2.5 5.1q0.7 0 0.7 0.7 0 0.7-0.7 0.7-0.7 0-0.7-0.7 0-0.7 0.7-0.7zm-3.1-7.7q0.7 0 0.7 0.7 0 0.7-0.7 0.7-0.7 0-0.7-0.7 0-0.7 0.7-0.7zm44.1 0q-0.7 0-0.7-0.7 0-0.7 0.7-0.7 0.7 0 0.7 0.7 0 0.7-0.7 0.7zm0 2.8q-0.7 0-0.7-0.7 0-0.7 0.7-0.7 0.7 0 0.7 0.7 0 0.7-0.7 0.7zm0 2.8q-0.7 0-0.7-0.7 0-0.7 0.7-0.7 0.7 0 0.7 0.7 0 0.7-0.7 0.7zm0 2.7q-0.7 0-0.7-0.7 0-0.7 0.7-0.7 0.7 0 0.7 0.7 0 0.7-0.7 0.7zm0 2.9q-0.7 0-0.7-0.7 0-0.7 0.7-0.7 0.7 0 0.7 0.7 0 0.7-0.7 0.7zm0 2.6q-0.7 0-0.7-0.7 0-0.7 0.7-0.7 0.7 0 0.7 0.7 0 0.7-0.7 0.7zm0 2.4q-0.7 0-0.7-0.7 0-0.7 0.7-0.7 0.7 0 0.7 0.7 0 0.7-0.7 0.7zm0-35q-0.7 0-0.7-0.7 0-0.7 0.7-0.7 0.7 0 0.7 0.7 0 0.7-0.7 0.7zm0 7.9q-0.7 0-0.7-0.7 0-0.7 0.7-0.7 0.7 0 0.7 0.7 0 0.7-0.7 0.7zm0 2.6q-0.7 0-0.7-0.7 0-0.7 0.7-0.7 0.7 0 0.7 0.7 0 0.7-0.7 0.7zm0 2.7q-0.7 0-0.7-0.7 0-0.7 0.7-0.7 0.7 0 0.7 0.7 0 0.7-0.7 0.7zm0 2.8q-0.7 0-0.7-0.7 0-0.7 0.7-0.7 0.7 0 0.7 0.7 0 0.7-0.7 0.7zm0-10.6q-0.7 0-0.7-0.7 0-0.7 0.7-0.7 0.7 0 0.7 0.7 0 0.7-0.7 0.7zm0-2.8q-0.7 0-0.7-0.7 0-0.7 0.7-0.7 0.7 0 0.7 0.7 0 0.7-0.7 0.7zm25.4 16.2q-0.7 0-0.7-0.7 0-0.7 0.7-0.7 0.7 0 0.7 0.7 0 0.7-0.7 0.7zm0 3q-0.7 0-0.7-0.7 0-0.7 0.7-0.7 0.7 0 0.7 0.7 0 0.7-0.7 0.7zm0 2.6q-0.7 0-0.7-0.7 0-0.7 0.7-0.7 0.7 0 0.7 0.7 0 0.7-0.7 0.7zm0 2.9q-0.7 0-0.7-0.7 0-0.7 0.7-0.7 0.7 0 0.7 0.7 0 0.7-0.7 0.7zm0 2.6q-0.7 0-0.7-0.7 0-0.7 0.7-0.7 0.7 0 0.7 0.7 0 0.7-0.7 0.7zm0 2.7q-0.7 0-0.7-0.7 0-0.7 0.7-0.7 0.7 0 0.7 0.7 0 0.7-0.7 0.7zm0 2.4q-0.7 0-0.7-0.7 0-0.7 0.7-0.7 0.7 0 0.7 0.7 0 0.7-0.7 0.7zm-12.3-35.1q-0.7 0-0.7-0.7 0-0.7 0.7-0.7 0.7 0 0.7 0.7 0 0.7-0.7 0.7zm2.7-0.1q-0.7 0-0.7-0.7 0-0.7 0.7-0.7 0.7 0 0.7 0.7 0 0.7-0.7 0.7zm2.8 0.6q-0.7 0-0.7-0.7 0-0.7 0.7-0.7 0.7 0 0.7 0.7 0 0.7-0.7 0.7zm2.8 1.5q-0.7 0-0.7-0.7 0-0.7 0.7-0.7 0.7 0 0.7 0.7 0 0.7-0.7 0.7zm1.7 2.1q-0.7 0-0.7-0.7 0-0.7 0.7-0.7 0.7 0 0.7 0.7 0 0.7-0.7 0.7zm1.6 4.8q-0.7 0-0.7-0.7 0-0.7 0.7-0.7 0.7 0 0.7 0.7 0 0.7-0.7 0.7zm1 2.3q-0.7 0-0.7-0.7 0-0.7 0.7-0.7 0.7 0 0.7 0.7 0 0.7-0.7 0.7zm-1.6-4.7q-0.7 0-0.7-0.7 0-0.7 0.7-0.7 0.7 0 0.7 0.7 0 0.7-0.7 0.7zm1.3 7.4q-0.7 0-0.7-0.7 0-0.7 0.7-0.7 0.7 0 0.7 0.7 0 0.7-0.7 0.7zm-15.1-13.1q-0.7 0-0.7-0.7 0-0.7 0.7-0.7 0.7 0 0.7 0.7 0 0.7-0.7 0.7zm15.1 15.5q-0.7 0-0.7-0.7 0-0.7 0.7-0.7 0.7 0 0.7 0.7 0 0.7-0.7 0.7zm-17.6-14.2q-0.7 0-0.7-0.7 0-0.7 0.7-0.7 0.7 0 0.7 0.7 0 0.7-0.7 0.7zm-2 1.6q-0.7 0-0.7-0.7 0-0.7 0.7-0.7 0.7 0 0.7 0.7 0 0.7-0.7 0.7zm-2.1 2.6q-0.7 0-0.7-0.7 0-0.7 0.7-0.7 0.7 0 0.7 0.7 0 0.7-0.7 0.7zm-1.5 2.7q-0.7 0-0.7-0.7 0-0.7 0.7-0.7 0.7 0 0.7 0.7 0 0.7-0.7 0.7zm48.4 9.9q-0.7 0-0.7-0.7 0-0.7 0.7-0.7 0.7 0 0.7 0.7 0 0.7-0.7 0.7zm0 2.8q-0.7 0-0.7-0.7 0-0.7 0.7-0.7 0.7 0 0.7 0.7 0 0.7-0.7 0.7zm0 2.8q-0.7 0-0.7-0.7 0-0.7 0.7-0.7 0.7 0 0.7 0.7 0 0.7-0.7 0.7zm0 2.7q-0.7 0-0.7-0.7 0-0.7 0.7-0.7 0.7 0 0.7 0.7 0 0.7-0.7 0.7zm0 2.9q-0.7 0-0.7-0.7 0-0.7 0.7-0.7 0.7 0 0.7 0.7 0 0.7-0.7 0.7zm0 2.6q-0.7 0-0.7-0.7 0-0.7 0.7-0.7 0.7 0 0.7 0.7 0 0.7-0.7 0.7zm0 2.4q-0.7 0-0.7-0.7 0-0.7 0.7-0.7 0.7 0 0.7 0.7 0 0.7-0.7 0.7zm-12.3-35.1q-0.7 0-0.7-0.7 0-0.7 0.7-0.7 0.7 0 0.7 0.7 0 0.7-0.7 0.7zm2.7-0.1q-0.7 0-0.7-0.7 0-0.7 0.7-0.7 0.7 0 0.7 0.7 0 0.7-0.7 0.7zm2.8 0.6q-0.7 0-0.7-0.7 0-0.7 0.7-0.7 0.7 0 0.7 0.7 0 0.7-0.7 0.7zm2.8 1.5q-0.7 0-0.7-0.7 0-0.7 0.7-0.7 0.7 0 0.7 0.7 0 0.7-0.7 0.7zm1.7 2.1q-0.7 0-0.7-0.7 0-0.7 0.7-0.7 0.7 0 0.7 0.7 0 0.7-0.7 0.7zm1.6 4.8q-0.7 0-0.7-0.7 0-0.7 0.7-0.7 0.7 0 0.7 0.7 0 0.7-0.7 0.7zm0.3 2.6q-0.7 0-0.7-0.7 0-0.7 0.7-0.7 0.7 0 0.7 0.7 0 0.7-0.7 0.7zm-0.9-5q-0.7 0-0.7-0.7 0-0.7 0.7-0.7 0.7 0 0.7 0.7 0 0.7-0.7 0.7zm1.3 7.7q-0.7 0-0.7-0.7 0-0.7 0.7-0.7 0.7 0 0.7 0.7 0 0.7-0.7 0.7zm-15.1-13.4q-0.7 0-0.7-0.7 0-0.7 0.7-0.7 0.7 0 0.7 0.7 0 0.7-0.7 0.7zm15.1 15.8q-0.7 0-0.7-0.7 0-0.7 0.7-0.7 0.7 0 0.7 0.7 0 0.7-0.7 0.7zm-17.6-14.5q-0.7 0-0.7-0.7 0-0.7 0.7-0.7 0.7 0 0.7 0.7 0 0.7-0.7 0.7zm-2 1.6q-0.7 0-0.7-0.7 0-0.7 0.7-0.7 0.7 0 0.7 0.7 0 0.7-0.7 0.7zm-2.1 2.6q-0.7 0-0.7-0.7 0-0.7 0.7-0.7 0.7 0 0.7 0.7 0 0.7-0.7 0.7zm-1.5 2.7q-0.7 0-0.7-0.7 0-0.7 0.7-0.7 0.7 0 0.7 0.7 0 0.7-0.7 0.7z"/>
</svg>