<svg version="1.2" xmlns="http://www.w3.org/2000/svg" viewBox="0 0 500 100" width="500" height="100">
	<style>
		.s0 { fill: #ffffff } 
	</style>
	<path id="Gemdation.com" class="s0" aria-label="Gemdation.com"  d="m23.9 62.8q-1.2 0-2.4 0-1.2-0.1-2.4-0.1-2.4-0.2-4.6-0.6-2.1-0.4-3.9-1.1-1.8-0.6-3.2-1.7-1.3-1-2-2.5-0.8-1.4-0.8-3.4 0-3.2 1.9-5.5 2-2.4 5.6-3.7 3.6-1.3 8.8-1.3 1.8 0 3.3 0.1 1.5 0.1 2.8 0.2 1.2 0.1 2.2 0.3 1.4 0.2 2.6 0.4 1.3 0.1 2.3 0.1 1.9 0 2.6-1.1h3.5q0.6 0.9 0.9 2.4 0.3 1.4 0.5 2.9 0.1 1.5 0.1 2.7h-2.1q-0.4-1.5-1.5-2.5-1-1.1-2.5-1.8-1.4-0.7-3-1.1-1.5-0.3-2.9-0.3-3.4 0-5.8 1.9-1.2 1-2 2.5-0.7 1.5-0.7 3.5 0 2.3 1 4.1 1 1.8 2.7 2.8 1.7 1.1 3.9 1.1 0.2 0 0.7 0 0.4-0.1 0.9-0.1 0.5 0 0.7-0.1 0-0.7 0-1.3 0-0.7 0-1.2-0.1-1-0.3-1.8-0.1-0.7-0.5-1.1-0.4-0.4-1.1-0.6-0.7-0.2-1.7-0.3-1.1-0.1-2.6-0.1v-1.3h20.6v1.3q-1.6 0-2.3 0.5-0.6 0.4-0.6 1.5 0 1.3 0.4 2.8 0.3 1.4 1 2.5-5.1 0.5-10.1 0.8-4.9 0.2-10 0.2zm41.5-0.2q-4.1 0-7.4-0.4-3.3-0.4-5.6-1.3-2.4-0.9-3.6-2.3-1.3-1.5-1.3-3.7 0-2.1 1.3-3.7 1.3-1.6 3.7-2.6 1.6-0.7 3.6-1.2 1.9-0.4 4.2-0.6 2.2-0.3 4.7-0.3 3.3 0 6 0.5 2.8 0.5 4.7 1.4 1.9 1 2.9 2.6 1.1 1.5 1.1 3.7h-18.5q0.2 3.2 1.9 4.6 1.7 1.3 5.2 1.3 1.7 0 3.4-0.2 1.6-0.3 3-0.8 1.4-0.4 2.3-1.2 0.8-0.7 0.8-1.7h1.9q0 1.6-1.2 2.7-1.3 1.2-3.3 1.8-2 0.7-4.5 1.1-2.6 0.3-5.3 0.3zm-4.2-9.5h5.7q0-1.3-0.2-2.2-0.2-0.9-0.5-1.5-0.4-0.6-0.8-0.9-0.5-0.2-1.1-0.2-0.6 0-1.1 0.2-0.6 0.3-1 0.9-0.4 0.6-0.7 1.5-0.2 0.9-0.3 2.2zm40.9 8.9h-20.1v-1.3q3.5-0.2 5-1.6 0.8-0.7 1.2-1.7 0.3-1 0.3-2.4 0-2.3-0.6-3.5-0.7-1.2-2.1-1.6-1.4-0.4-3.8-0.4v-1.3l18.5-1.3v2.3q2.5-1.1 5.2-1.9 2.8-0.8 5.8-0.8 1.1 0 2.2 0.2 1.1 0.1 2 0.7 1 0.6 1.5 1.9 2.6-1.2 5.2-2 2.6-0.8 5.6-0.8 1.2 0 2.4 0.2 1.2 0.1 2.3 0.8 0.6 0.5 1.1 1.2 0.5 0.8 0.8 1.9 0.3 1.1 0.3 2.7v1.1q0 0.6 0 1.3 0 1.2 0.2 2.2 0.2 0.9 0.8 1.5 0.6 0.6 1.6 1 1 0.3 2.6 0.3v1.3h-19.4v-1.1q1-0.6 1.3-2 0.4-1.4 0.4-3.8 0-2.1-0.4-3.1-0.4-1-1-1.3-0.7-0.3-1.5-0.3-0.4 0-0.9 0.1-0.5 0-1 0.1 0.2 0.6 0.2 1.3 0.1 0.6 0.1 1.4v1.3q-0.1 0.7-0.1 1.4 0 1.2 0.1 2.1 0 1 0.2 1.6 0.3 1.2 1.1 1.2v1.1h-15.5v-1.1q0.9-0.6 1.3-2 0.3-1.4 0.3-3.8 0-2.1-0.3-3.1-0.4-1-1.1-1.3-0.6-0.3-1.4-0.3-0.5 0-1 0.1-0.5 0.1-1 0.2v4.6q0 2.5 0.3 3.8 0.4 1.2 1.3 1.8zm49.2 0.7q-3.2 0-5.6-1.1-2.4-1.1-3.8-3-1.3-1.8-1.3-4 0-2 0.8-3.6 0.9-1.5 2.3-2.5 1.5-1 3.4-1.4 2-0.5 4.1-0.5 2.2 0 3.8 0.2 1.7 0.2 2.9 0.7 1.2 0.4 2.2 1v-0.3q0-2.8-1.5-3.8-0.8-0.5-2-0.7-1.3-0.2-3-0.2v-1.3l19.3-1.3v14.5q0 0.5 0 0.9 0 0.4 0 0.8 0.1 1.5 0.8 2.3 1.1 1.2 4.7 1.3v1.4q-1.5 0-3.6 0-2 0-4.7 0.1-2.7 0-4.6 0.1-1.9 0-3.1 0-0.6 0-1.2-0.6-0.5-0.6-0.8-1.3-0.5 0.4-1.3 0.9-0.7 0.4-1.7 0.7-1.1 0.3-2.6 0.5-1.4 0.2-3.5 0.2zm5.4-2.5q1.1 0 2-0.4 0.9-0.5 1.4-1.3v-8.1q-0.9-0.9-1.9-1.3-0.9-0.3-1.7-0.3-1.1 0-1.6 1.4-0.5 1.4-0.5 4.4 0 1.3 0.1 2.3 0.1 1.1 0.3 1.8 0.6 1.5 1.9 1.5zm31.1 2.5q-2.3 0-4.1-0.5-1.8-0.4-2.9-1.3-1-0.8-1-2 0-1.3 0.7-2.1 0.8-0.8 2.1-1.3 1.2-0.4 2.8-0.6 1.7-0.2 3.4-0.2 2 0 3.9 0 1.9 0.1 3.5 0.2 1.5 0 2.4 0.2v-3.1q0-2.3-1.2-3.2-0.7-0.5-1.7-0.7-1-0.2-2.4-0.2-2.1 0-3.9 0.1 2.7 0 4.3 0.8 1.7 0.7 1.7 2 0 0.9-0.9 1.5-0.9 0.7-2.4 1-1.5 0.3-3.3 0.3-1.2 0-2.4-0.2-1.1-0.3-2-0.7-0.9-0.4-1.4-1-0.5-0.6-0.5-1.2 0-1.1 1.2-1.8 1.1-0.8 3-1.2 1.7-0.5 3.8-0.7 2.1-0.2 4.3-0.2 3 0 5.9 0.1 2.9 0.1 5.5 0.6 2.4 0.5 3.9 1.7 1.6 1.2 1.6 3.3v3.4q0 1.3 0.1 2.1 0.2 0.8 0.5 1.3 0.3 0.4 0.8 0.5 0.4 0.2 0.9 0.2 0.9 0 1.5-0.7 0.7-0.7 0.7-2.1h1.6q0 2-0.9 3.1-0.9 1.1-2.1 1.6-1.5 0.6-3.3 0.8-1.8 0.2-3.8 0.2-3.2 0-5.4-0.4-2.1-0.4-3-1.9-0.6 0.4-1.6 0.8-0.9 0.4-2.2 0.8-1.4 0.3-3.3 0.5-1.9 0.2-4.4 0.2zm6.9-2.7q0.8 0 1.8-0.1 1.1-0.1 2.3-0.6-0.2-0.5-0.2-1.4v-1.5q-0.6 0-1.2 0-0.6 0-1.2 0-1 0-1.7 0-0.7 0.1-1.2 0.3-1 0.4-1 1.5 0 0.6 0.5 1.2 0.5 0.6 1.9 0.6zm37.6 2.7q-0.8 0-1.6-0.1-0.8 0-1.6-0.1-1.5-0.1-2.8-0.3-1.3-0.3-2.3-0.9-1-0.5-1.8-1.3-0.7-0.9-1.1-2-0.4-1.2-0.4-2.8v-6h-3.9v-1.4q2.6 0 5-0.4 2.4-0.4 4.3-1.3 2-0.8 3.3-2.2 1.3-1.3 1.5-3.1h3v6.4h8.9v2h-8.9v4.4q0 1.9 0.2 3.3 0.2 1.3 0.6 2.2 0.8 1.6 3.2 1.6 1.3 0 2.5-0.4 1.1-0.3 1.9-1.2 0.7-0.9 0.7-2.5h1.7q0 1.5-0.5 2.6-0.5 1.1-1.9 1.9-0.9 0.5-2.3 0.9-1.4 0.3-3.3 0.5-1.9 0.2-4.4 0.2zm26-17.8q-1.5 0-2.8-0.3-1.3-0.2-2.3-0.7-1-0.5-1.6-1.1-0.6-0.6-0.6-1.3 0-1 1-1.8 1-0.8 2.7-1.2 1.6-0.5 3.6-0.5 2 0 3.7 0.5 1.6 0.5 2.6 1.2 1 0.8 1 1.8 0 0.9-1 1.7-1 0.8-2.6 1.2-1.7 0.5-3.7 0.5zm12.8 17.1h-25.6v-1.3q3.9-0.1 5.4-1.7 1.6-1.5 1.6-4.3 0-2.8-1.5-4-1.5-1.3-5-1.3v-1.3l19-1.3v7.9q0 1.9 0.4 3.2 0.5 1.3 1.8 2 1.3 0.7 3.9 0.8zm17.4 0.6q-5.1 0-8.9-0.8-3.9-0.9-6-2.7-2.1-1.8-2.1-4.5 0-2.1 1.2-3.6 1.2-1.5 3.5-2.5 2.2-1 5.3-1.5 3.2-0.5 7-0.5 3.8 0 6.9 0.5 3.2 0.5 5.4 1.5 2.2 1 3.5 2.5 1.2 1.5 1.2 3.6 0 2-1.2 3.5-1.3 1.5-3.5 2.5-2.2 1-5.4 1.5-3.1 0.5-6.9 0.5zm0-1.5q0.7 0 1.2-0.5 0.5-0.5 0.9-1.4 0.8-1.9 0.8-4.6 0-2.8-0.8-4.6-0.4-0.9-0.9-1.5-0.5-0.5-1.2-0.5-0.7 0-1.2 0.5-0.5 0.6-0.9 1.5-0.4 0.9-0.6 2.1-0.2 1.2-0.2 2.5 0 1.3 0.2 2.5 0.2 1.2 0.6 2.1 0.4 0.9 0.9 1.4 0.5 0.5 1.2 0.5zm39.1 0.9h-20.6v-1.3q3.5-0.2 5-1.6 0.8-0.7 1.2-1.7 0.3-1.1 0.3-2.4 0-2.4-0.6-3.5-0.7-1.2-2.1-1.6-1.4-0.4-3.8-0.4v-1.3l19-1.3v2.3q2.5-1.1 5.3-1.9 2.9-0.8 5.8-0.8 1.2 0 2.4 0.2 1.2 0.1 2.3 0.8 0.6 0.4 1.1 1.2 0.5 0.8 0.8 1.9 0.3 1.1 0.3 2.7v1.1q0 0.6 0 1.2 0 1.3 0.1 2.2 0.1 1 0.6 1.6 0.6 0.6 1.6 1 1.1 0.3 2.9 0.3v1.3h-19.9v-1.1q1-0.6 1.3-2 0.4-1.4 0.4-3.8 0-2.1-0.4-3.1-0.4-1-1-1.3-0.7-0.3-1.5-0.3-0.5 0-1 0.1-0.6 0.1-1.1 0.3v4.5q0 2.5 0.3 3.8 0.4 1.2 1.3 1.8zm29.5 0.7q-1.8 0-3.3-0.5-1.5-0.5-2.3-1.4-0.8-1-0.8-2.2 0-0.9 0.4-1.6 0.5-0.8 1.4-1.3 0.9-0.5 2-0.8 1.2-0.3 2.6-0.3 1.4 0 2.6 0.3 1.2 0.3 2 0.8 0.9 0.5 1.4 1.3 0.5 0.7 0.5 1.6 0 1.2-0.9 2.2-0.8 0.9-2.3 1.4-1.4 0.5-3.3 0.5zm28.4 0q-1.3 0-2.6-0.1-1.2 0-2.4-0.1-2.4-0.2-4.4-0.5-2.1-0.4-3.8-1-2.6-0.9-4.1-2.4-1.5-1.6-1.5-3.9 0-2.2 1.6-3.8 1.5-1.5 4.1-2.5 2.6-1 6-1.4 3.3-0.4 6.9-0.4 2.7 0 5 0.3 2.3 0.2 4.1 0.8 1.8 0.5 2.9 1.3 1.1 0.8 1.1 1.8 0 1.4-1.7 2.5-0.8 0.5-2 0.8-1.2 0.3-2.7 0.3-1.9 0-3.4-0.4-1.6-0.4-2.5-1.1-0.9-0.6-0.9-1.5 0-1.1 1.4-2 1.5-1 4.3-1-0.8-0.2-1.7-0.3-0.9-0.1-1.8-0.1-1.7 0-3.2 0.6-1.6 0.5-2.5 1.8-1 1.3-1 3.5 0 1.7 0.7 2.9 0.7 1.2 1.9 2 1.1 0.8 2.5 1.1 1.5 0.4 3 0.4 1.7 0 3.2-0.3 1.5-0.2 2.7-0.7 1.1-0.5 1.8-1.2 0.7-0.6 0.7-1.3h1.7q0 1.4-1 2.5-1.1 1.1-3 1.9-3.8 1.5-9.4 1.5zm33 0q-5.1 0-8.9-0.9-3.9-0.9-6-2.7-2.1-1.8-2.1-4.5 0-2 1.2-3.6 1.2-1.5 3.5-2.5 2.2-1 5.3-1.5 3.2-0.5 7-0.5 3.8 0 6.9 0.5 3.2 0.5 5.4 1.5 2.2 1 3.5 2.5 1.2 1.6 1.2 3.6 0 2-1.2 3.6-1.3 1.5-3.5 2.5-2.2 1-5.4 1.5-3.1 0.5-6.9 0.5zm0-1.5q0.7 0 1.2-0.6 0.5-0.5 0.9-1.4 0.8-1.8 0.8-4.6 0-2.8-0.8-4.6-0.4-0.9-0.9-1.5-0.5-0.5-1.2-0.5-0.7 0-1.2 0.5-0.5 0.6-0.9 1.5-0.4 0.9-0.6 2.1-0.2 1.2-0.2 2.5 0 1.3 0.2 2.5 0.2 1.2 0.6 2.1 0.4 0.9 0.9 1.4 0.5 0.6 1.2 0.6zm38.6 0.8h-20.1v-1.3q3.5-0.2 5-1.6 0.8-0.7 1.2-1.7 0.3-1 0.3-2.4 0-2.3-0.6-3.5-0.7-1.2-2.1-1.5-1.4-0.5-3.8-0.5v-1.3l18.5-1.3v2.3q2.5-1.1 5.2-1.9 2.8-0.7 5.8-0.7 1.1 0 2.2 0.1 1.1 0.2 2 0.7 1 0.6 1.5 1.9 2.6-1.1 5.2-1.9 2.6-0.8 5.6-0.8 1.2 0 2.4 0.1 1.2 0.2 2.3 0.8 0.6 0.5 1.1 1.2 0.5 0.8 0.8 1.9 0.3 1.2 0.3 2.8v1q0 0.6 0 1.3 0 1.2 0.2 2.2 0.2 0.9 0.8 1.5 0.6 0.6 1.6 1 1 0.3 2.6 0.3v1.3h-19.4v-1.1q1-0.6 1.3-2 0.4-1.4 0.4-3.8 0-2.1-0.4-3.1-0.4-1-1-1.3-0.7-0.3-1.5-0.3-0.4 0-0.9 0.1-0.5 0-1 0.2 0.2 0.5 0.2 1.2 0.1 0.7 0.1 1.5v1.2q-0.1 0.7-0.1 1.4 0 1.2 0.1 2.2 0 0.9 0.2 1.5 0.3 1.2 1.1 1.2v1.1h-15.5v-1.1q0.9-0.6 1.3-2 0.3-1.4 0.3-3.8 0-2.1-0.3-3.1-0.4-1-1.1-1.3-0.6-0.3-1.4-0.3-0.5 0-1 0.1-0.5 0.1-1 0.3v4.6q0 2.4 0.3 3.7 0.4 1.2 1.3 1.8z"/>
</svg>