<svg version="1.2" xmlns="http://www.w3.org/2000/svg" viewBox="0 0 500 100" width="500" height="100">
	<style>
		.s0 { fill: #ffffff } 
	</style>
	<path id="Gemdation.com" class="s0" aria-label="Gemdation.com"  d="m6.2 61.8v-3q-2.5-2.3-3.5-4.6-0.2-0.8-0.2-1.2 0-1.1 0.5-2.4l-0.4-0.8v-0.7q0-3.1 2.2-3.1 0.1 0 0.3 0.1 0.2-1.2 0.7-1.7 0.6-0.6 1.6-0.6 0.4 0 1 0.2 0.3-0.9 0.8-1.4 0.5-0.4 1.3-0.4 0.6 0 1.1 0.2 0.4 0.3 0.7 0.8l0.2-0.7 0.1-7.4q0-2.4 0.5-3.6 0.6-1.2 1.7-1.2 1.2 0 1.7 1.1 0.5 1.2 0.5 4.1l0.2 8.4 0.8 0.8 0.5 5.7q-1.1 3.8-2.6 6.9v4.4q-2.3 1.1-5 1.1-2.3 0-4.7-1zm7.9-21.4l2.1 2.4-0.2-7.5q0-4-1.3-4-0.5 0-0.9 1.2-0.2 1.3-0.2 3.8l-0.1 4.6q0.2-0.2 0.6-0.5zm-6.8 17.9v2.8q1.9 0.6 3.7 0.6 2 0 3.9-0.7v-3.7q2.1-5.2 2.6-7l-0.5-5.2-2.9-3.2q-0.8 0.9-0.8 2 0 1.8 1.8 3.5-1.1 1.9-1.1 3.9l0.1 0.4-1.1-0.1v-0.4q0-1.9 0.9-3.6-1-1.2-1.3-2.2l-0.1 1.9q0.3 0.5 0.5 1 0.1 0.6 0.1 1.1 0 2.3-2.7 3.7l-0.6-1.4q-0.4 1.4-2.4 2.5l-0.5-1.3q-1 1.2-2.2 1.7l-1.1-2.6q-0.1 1.1-0.1 1.4 0 0.2 0.1 0.7 1.3 2.4 3.7 4.2zm1.9-10.5l1.6 3.9q1.3-0.8 1.3-2.3 0-0.5-0.1-0.9-0.2-0.5-0.5-1v-2.6q0-0.8-0.3-1.3-0.2-0.4-0.7-0.4-0.6 0-1 0.6-0.3 0.6-0.3 1.9zm-3.1 0.8l1.7 4q1.1-0.7 1.4-2.4l-1-2.1v-3q-0.5-0.3-0.8-0.3-0.7 0-1 0.5-0.3 0.5-0.3 1.5zm-2.5 1.1l1.5 3.3q0.6-0.4 1.2-1.3l-1.2-2.8v-1.9q-1.6 0-1.6 1.9zm27.6 12.2h-3.1v-21.7q0-5.4-2.5-8.7h3.2q1.7 2.7 2.4 6 1.4-3.6 3.5-6l3-0.6q2 2.4 2.6 6.9 1.1-3.2 3.6-6.3l3-0.6q2.5 3.4 2.5 7.9v18.9q0 3 0.2 4 0.2 1.1 0.9 1.8 1.3 1.4 4.4 1.4h1.8v-3l4.8 4.3-4.8 4.2v-3h-2.8q-4 0-5.8-2.1-1.8-2-1.8-6.6v-18.3q0-4.6-1.3-6.7-3.4 4-4.7 9.8v18.4h-3.1v-20.4q0-5.6-1.3-7.8-3.3 3.7-4.7 9.2zm57.1-29.3l4.4 1.8q4 1.7 6.4 5.3 2.4 3.6 2.4 7.9 0 5.9-4.2 10.1-4.2 4.2-10.1 4.2-2.8 0-5.4-1.1l-4.4-1.8q-4-1.7-6.4-5.3-2.4-3.6-2.4-7.9 0-5.9 4.1-10.1 4.2-4.2 10.1-4.2 2.6 0 5.5 1.1zm-17.8 13.4q0 5 3.6 8.6 3.7 3.6 8.7 3.6 5.1 0 8.8-3.7 3.6-3.6 3.6-8.7 0-5.1-3.6-8.8-3.7-3.6-8.8-3.6-5.1 0-8.7 3.7-3.6 3.6-3.6 8.9zm70.7 12.8h-32.6v-3h32.6zm-19.7-11.9v2.8h-12.9v-3h9q-2.5-2.6-2.5-5.7 0-3.9 2.9-6.7 2.9-2.8 6.9-2.8 4 0 6.8 2.8 2.9 2.8 2.9 6.7 0 3.1-2.4 5.7h9v3h-12.9v-2.8q3.3-2.2 3.3-5.8 0-2.7-2-4.6-2-2-4.7-2-2.8 0-4.7 2-2 1.9-2 4.6 0 3.6 3.3 5.8zm27.1 10.9v-3.3q9.5 4.3 18.4 4.3 5.8 0 9.5-1.5-2.3-1.2-3.5-3-1.2-1.8-1.2-4.2 0-3.2 2.3-5.5 2.3-2.2 5.5-2.2 3.2 0 5.4 2.2 2.3 2.3 2.3 5.4 0 5.1-6.2 8.5-6.2 3.3-15.5 3.3-8.1 0-17-4zm25.3-7.7q0 2.3 1.7 4 1.7 1.7 4 1.7 2.4 0 4-1.7 1.7-1.6 1.7-4 0-2.4-1.7-4-1.6-1.7-4-1.7-2.4 0-4.1 1.7-1.6 1.6-1.6 4zm13.4-14.5v3.3q-9.6-4.4-18.5-4.4-5.8 0-9.4 1.5 2.3 1.2 3.4 3 1.2 1.8 1.2 4.2 0 3.2-2.3 5.5-2.3 2.3-5.5 2.3-3.1 0-5.4-2.3-2.2-2.2-2.2-5.4 0-5.1 6.1-8.5 6.2-3.3 15.6-3.3 8 0 17 4.1zm-25.3 7.6q0-2.3-1.7-4-1.7-1.6-4.1-1.6-2.3 0-4 1.6-1.6 1.6-1.6 4 0 2.4 1.6 4.1 1.7 1.6 4.1 1.6 2.3 0 4-1.6 1.7-1.7 1.7-4.1zm44.7 20.6l-12.1-17.1 12.1-17.2 12.1 17.2zm34.9-16.7h-6.3q0 3.7-1.7 7.9-1.8 4.2-4.7 7.5h-3.3q6.7-7 6.7-15.4h-6.5v-2.3h6.5q-0.4-7.3-6.7-14.1h3.1q5.8 6.1 6.6 14.1h6.3q0.8-8 6.5-14.1h3.2q-6.3 6.8-6.7 14.1h6.5v2.3h-6.5q0 8.4 6.7 15.4h-3.3q-3-3.3-4.7-7.5-1.7-4.2-1.7-7.9zm21-11.6v22.2h22.3v-22.2zm26.3 26.3h-30.3v-30.4h30.3zm31-3h-24.3v-24.3h24.3zm61.1-3l-23.8 6h-18.3l-7.6-6.3q-3.7-3.2-3.7-5.8 0-1.9 1.5-3.1 1.5-1.1 3.9-1.1 2.9 0 5.9 1.7v-0.5q0-3.3 1.9-5.6 1.9-2.4 5.1-3.3l14.6-3.7v-3.2l9.1-2.3v3.2q1.2-0.3 2.5-0.3 3.5 0 6.2 2.8 2.7 2.7 2.7 6.3zm-41.6 5.1h15l-11.2-9.3q-6.1-5-10.1-5-2 0-3.2 0.8-1.3 0.8-1.3 2.2 0 2.5 4.6 6.3zm-2.2-9.3l2.3 1.9-0.7 0.8h-3.1l-2.3-2 0.5-0.9 1 0.8h1.6zm10.8-7l7.2-1.8q-2.6-3.9-7.2-3.9-3.5 0-5.7 2.3-2.3 2.2-2.3 5.7v0.9q2.4 1.5 4.1 3l0.8 0.7zm2.9 3.6l5.3-1.3q0-1.5-0.6-3.1l-6.9 1.7-3.1 6.7 3.7 3.1zm1.9 9.8l3.4-0.8v-9.2l-4.5 1.1-1.5 6.8zm0.9 0.8l2.5 2v-2.6zm3.4 2l22.9-5.8v-14.4q0-3.3-2.4-5.7-2.4-2.5-5.6-2.5-1 0-2.3 0.4v4.1l-5.9 1.6v12.3l-3.2 0.7v-16.3l-10.6 2.6q3.4 1.1 5.3 3.4 1.8 2.3 1.8 5.5zm36-18v19h-3v-22q0-4.6-2.5-8.3h3.2q1.7 2.3 2.3 6 1.6-3.8 3.6-6l3-0.6q2 2.6 2.6 7 1-3.3 3.7-6.4l2.9-0.6q2.5 3.4 2.5 7.6v5.8q1.2-3.5 2.6-5.5l2.5-0.9q3.2 5 3.2 10.6 0 4.3-1.9 8.2-2 3.9-5.8 7.2 0.3 2.6 3.1 6h-3.6q-1.3-1.6-2.3-4.3-2.8 1.6-6.9 2.3v-2.7q3.9-0.8 6.3-2.2-0.3-2-0.3-4v-18.4q0-4.6-1.3-6.9-3.2 3.5-4.7 9.8v18.3h-3.1v-20.2q0-5.7-1.3-7.9-3.2 3.7-4.8 9.1zm18.3 6.2v12q2.6-2.7 4-5.8 1.3-3.1 1.3-6.6 0-3.6-1.6-7.1-2.3 2.8-3.7 7.5zm19.2-13.5v22.3h22.3v-22.3zm26.3 26.3h-30.3v-30.3h30.3zm27.4-29.3l4.4 1.8q4 1.7 6.4 5.3 2.4 3.6 2.4 7.9 0 5.9-4.2 10.1-4.2 4.2-10.1 4.2-2.8 0-5.4-1.1l-4.4-1.8q-4-1.7-6.4-5.3-2.4-3.6-2.4-7.9 0-5.9 4.1-10.1 4.2-4.2 10.1-4.2 2.7 0 5.5 1.1zm-17.8 13.4q0 5 3.6 8.6 3.7 3.6 8.8 3.6 5.1 0 8.7-3.7 3.6-3.6 3.6-8.7 0-5.1-3.6-8.8-3.6-3.6-8.7-3.6-5.2 0-8.8 3.7-3.6 3.6-3.6 8.9z"/>
</svg>