<svg version="1.2" xmlns="http://www.w3.org/2000/svg" viewBox="0 0 500 100" width="500" height="100">
	<style>
		.s0 { fill: #ffffff } 
	</style>
	<path id="Gemdation.com" class="s0" aria-label="Gemdation.com"  d="m19.1 69.3q-4.3 0-7.7-2-3.8-1.9-6.3-6.2-2.7-4.8-2.7-11.4 0-4.7 1.6-8.4 1.7-3.8 4.7-6.4 3.1-2.5 7.1-3.8 4.1-1.3 8.9-1.3 7 0 14.5 3.6l-2.1 9.3q-0.4-0.1-1-0.3-0.5-0.1-1.1-0.3-3-0.8-4.5-1-1.3-0.2-2.1-0.2-3.5 0-5.3 1.9-2.1 2.1-2.1 7.2 0 4.6 1.3 6.6 1.2 1.8 3.4 1.8 1.5 0 3.3-0.7 0-0.9-0.1-2.7v-1.2q-0.1-1.3-0.1-3.7v-1.5q0-0.5 0.2-0.7 0.2-0.2 0.6-0.2 0.2 0.1 0.9 0.1h5.9q2.5 0 3.4-0.1 1.4 0 1.9 0.1 0.7 0.1 0.9 0.5 0.3 0.3 0.3 1.1 0 0.3 0.1 0.5v0.5 0.9 1.6 5.6 0.3q-0.1 0.2-0.2 0.5 0 0.2 0 0.6v0.2q0 3.5-0.1 4.9-0.1 2.2-0.4 2.8-1.4 0-2.1 0.1l-1.3 0.1h-0.1q-0.5 0-0.6-0.1 0 0-0.1 0 0-0.1 0-0.1h-0.1q-0.1 0.1-0.2 0.1 0 0.1 0 0.1h-5.5-0.2-0.6-0.6q-0.2 0.1-0.5 0.1-0.2 0-0.4-0.4-0.4-1-0.4-2.3-0.1-0.7-0.2-2-0.5 2.8-3.5 4.4-2.7 1.5-6.8 1.5zm32.2-1.5q-0.1 0-0.2-0.2-0.4-0.5-0.5-1.2-0.2-0.3-0.3-0.8-0.5-1-0.7-2.7-0.2-2.5-0.2-4-0.1-0.7-0.1-1.8v-1.4q0-1.6-0.1-2.5 0-1 0-4 0-7.8 0.3-12 0-0.7 1.9-1h1.6 1.4q3.1 0 4.7 0.1 2.3 0.2 4.7 0.2 0.5 0 0.8-0.1h0.8l0.3 0.3q1.8-0.4 3.7-0.5 2-0.2 4.7-0.2 0.1 0 0.3 0.2h1.7q0.5 0 0.7 0.5 0.3 0.5 0.4 1.4 0.3 0.8 0.4 1.8 0.2 1.4 0.4 1.8 0 1.6-0.6 1.6-0.1 0-0.2-0.2l-0.2-0.1q-0.3 0-0.6 0.1-0.3 0.2-0.7 0.2-0.3 0-0.6-0.2-0.1-0.1-0.4-0.1-0.5 0-1.2 0.2-0.2 0.1-0.9 0.2-0.6 0.1-1.4 0.1-2.4 0-3.4 0.1-0.6 0-1.2 0.3v-0.1q-0.2 0-0.4 0.6-0.3 0.9-0.5 2.5 0 0.5 0 1.1 0 0.6 0.2 0.9 0.2 0.2 0.6 0.2 0.3 0 0.6-0.2 0.1 0 0.2 0 0.2 0.1 0.3 0.2h4.7q0-0.1 0.2-0.2 0.1 0 0.2 0 0.5 0 0.8 0.1 0.3 0.2 1.3 0.4 0.6 0 0.8 0.3 0.3 0.4 0.3 0.7l1.1 3.6q0.2 0.9-1.6 1.2-1.1 0.2-4 0.2h-2.4-1.7q-0.7 0-1.1 0.1-0.4 0.1-0.5 0.4-0.2 0.3-0.2 0.9v0.2q0 0.3 0 0.4v1.2q-0.1 0.4-0.1 1.2v0.5 0.5 0.3q2.5 0 5.1-0.1 2.5-0.2 5-0.2 0.1 0 0.3 0.3 0.1 0.2 0.1 0.5 0.1 0.4 0.1 0.7 0.1 0.9 0.3 1.6l0.4 1.6v1.1 0.1 0.5l-0.5 0.4h-0.3-0.2q-0.6 0-0.8-0.1-0.1-0.1-0.4-0.1-0.1 0.1-0.3 0.2-0.2 0.1-0.4 0.2v-0.3l-0.6 0.1h-0.9q-0.2 0-0.3-0.1l-0.4-0.1q-2.1 0-2.9 0.4zm37.4 0.4q-0.5 0-0.7-0.1h-1-0.9-0.3l-2.1-0.5-0.2-0.4v-0.6l-0.1-1.5q-0.1-0.9-0.1-1.7v-4.1q-0.1-0.6-0.1-1.7 0-2.5 0.2-4.9 0.1-1.5 0.1-4.9 0-0.6-0.1-1v-0.5l-0.1-0.4q0-1.2 0.2-2.4l0.1-2.9-0.1-1.4v-1.2q-0.2-0.2-0.2-0.4 0-0.8 1.4-1.2 0.7-0.2 1.9-0.2h8 3.7q0 0 0.1 0.1 0.1 0 0.2 0.1 0.5 0.5 0.9 1.2 0.5 0.8 0.8 1.7 0.4 1.1 1.5 3.9 0.9 2.3 1.5 3.6 0.4 1.4 1 1.4 0.5 0 0.8-0.7 0.1-0.1 0.3-0.7l0.9-2.1q0.1-0.2 0.7-1.6 0.2-0.3 1-2l0.8-1.8q0.1-0.3 0.3-0.8 0.2-0.5 0.5-0.9 0.6-0.9 0.9-1.2 0.1-0.2 0.3-0.2h3.8 7.9 0.7 0.5 0.7q0.2 0 1 0 0 0 0.2 0.7 0.1 2.8 0.1 4.5 0.1 2.1 0.1 6.4v2.7q0 2.5-0.4 7.1v1.7q0.1 0.7 0.1 1.9v2.3q0.1 0.7 0.1 1.8 0 1 0 1.3v0.6l-0.1 0.4-2.1 0.5h-0.5-0.7-1q-0.3 0.1-0.8 0.1-2.1 0-4.4-0.2-2.3-0.2-2.8-0.3l-0.2 0.1h-0.3q-0.3 0-0.3-1.1-0.3-1.4-0.3-6.3-0.1-1.4-0.1-3.7 0-0.4-0.4-0.4-0.2 0-0.3 0.4-0.9 2-1 2.5l-0.4 1.2-0.4 0.8q-1 2.2-2.2 3.4-0.7 0.8-1.5 0.8h-0.7-1q-0.7 0-1-0.1-0.6 0-0.9 0-1.9-3-3.6-6.6-0.2-0.7-0.4-1.1-0.2-0.4-0.3-0.8-0.4-0.5-0.4-0.5-0.4 0-0.4 0.4v2.2q0 3.3 0 4.8 0 2.4-0.3 3.5-0.1 0.3-0.2 0.4-0.1 0.2-0.2 0.2h-0.2l-0.3-0.1q-0.5 0.1-2.7 0.3-2.2 0.2-4.5 0.2zm52.2-0.2q-2.1-0.1-7.2-0.1-0.8 0-1-0.9-0.2-0.6-0.2-2 0-2.4-0.1-4.3 0-1.7-0.1-6.2l-0.1-6.6v-10.4q0-0.4 0.4-0.8 0.4-0.5 0.8-0.5l3.2 0.1q0.8 0 2.3 0 1.6 0.1 3.9 0.1 3.6 0 5.5-0.1 2-0.1 6.5-0.1 3.1 0 5.6 1.1 3.3 1.4 5.2 4.3 2.2 3.4 2.2 8.9 0 4.9-1.1 8.2-1 3.3-3.4 5.3-2.4 2.1-6.4 3.1-3.9 0.9-9.8 0.9zm6.6-6.2q1.2 0 1.6-0.1 0.4-0.1 0.6-0.3 0.8-0.8 1.5-4.9 0.6-3.8 0.6-7.1v-0.9q0-1.9-0.3-3.7-0.2-2.1-0.8-3.5-0.4-0.6-1-0.6-0.5 0-1.2 0.3l-0.4 0.2q0 1.2-0.1 5.6l-0.1 3.4q0 1.1 0 1.7l-0.1 1.7zm27.3 6.3q-1.1 0-0.9-1.9 0-0.6 0.3-1.4 0-0.4 0.1-0.6 0-0.3 0-0.5 1.3-6 2.8-11.8l3.8-14.6q0-0.1 0.1-0.3 0.2-0.2 0.4-0.3h0.4q0.6 0 1-0.2 0.3 0 1.2 0 1.3 0 1.9 0 1 0.2 2.1 0.2h2.8q0.5-0.2 1.1-0.2l2.4-0.1h1.8q1.1 0 2 0.1h1.6q0.5 0 1.6 0h2.1q0.1 0 0.3 0.1 0.2 0.1 0.3 0.1 0.2 0.1 0.5 0.1h0.5q0.4 0.3 0.4 0.6l3.9 14.5q1.8 7 2.9 11.8 0 0.3 0.1 1.1 0.3 1.1 0.3 1.7 0 0.4-0.2 1.1-0.2 0.5-0.7 0.5h-0.6q-0.7 0-1.1 0h-1.2-1.2-0.9q-0.4 0-0.5-0.1h-3l-0.1-0.1q-0.1-0.1-0.3-0.1l-0.1 0.1q0 0.1-0.2 0.1h-0.1-0.4q-0.3-0.1-1-0.1-1.3-0.1-2.2-0.1-0.6-1.3-1.4-5.6-1.2 0.2-2.7 0.2h-1.4-1.4q-0.2 0.8-0.2 1.4-0.1 0.2-0.5 1.8-0.4 1.6-0.7 2.2l-0.3 0.1q-0.2 0.1-0.3 0.1-0.1 0-0.1 0h-0.1q-0.4 0-0.5-0.1-0.2-0.1-0.2-0.1l-2.1 0.1h-1.6q-0.2 0.1-0.4 0.1-0.2 0-0.2 0h-4.4-0.5q-0.5 0.1-2 0.1h-1.3q-0.4 0-1.1 0zm22.1-11.8q-0.3-1.8-0.3-2.2l-0.5-2.6q-0.1-0.8-0.2-1.4-0.1-0.6-0.2-1.2-0.1-0.6-0.2-1.2-0.1-0.6-0.2-1.1-0.1-0.3-0.1-0.8-0.1-0.6-0.2-0.8l-0.1-0.6q0-0.3-0.1-0.4l-0.1-0.4q-0.1 0.4-0.1 0.4v0.2 0.2q0 0 0 0.2-0.1 0.1-0.1 0.4-0.1 0.3-0.1 0.7-0.1 0.4-0.2 0.9l-0.4 2.3-0.4 2.5-0.2 1.2q-0.1 0.4-0.2 1.4-0.5 2.5-0.5 2.3h2.5q0-0.1 0.1-0.1 0.1-0.1 0.2-0.1h0.2q0.2 0 0.4 0 0.2 0.1 0.4 0.1 0.3 0.1 0.6 0.1zm40.1 11.9h-2.7-2.5-2.9-3.6q-0.5-0.7-0.7-2.8-0.2-1.8-0.2-5.3v-6q0.1-2.2 0.1-7l-0.2-0.2h-5.4q-1.2 0-1.6-2.7-0.2-1.5-0.2-4.4v-0.7q0.1-0.4 0.1-1.2v-1.1-0.4l0.3-0.2h0.9 1.1q2.5 0 3.7 0h3.6 1 1.9 2.3 2.4q0.7 0 2 0h1.4q0.2-0.1 0.7-0.1 0.4-0.1 0.7-0.1 1.1 0 1.6 0.1 1.1 0.1 1.7 0.1h1.4 2.2q1.6 0 2.2 0l0.8 0.1q0 0 0.1 0.1 0.2 0.1 0.2 0.1v9.4q0 0.3-0.4 0.7-0.4 0.4-0.7 0.5-1.8-0.4-4.7-0.4h-2.1q-0.8 0-1.1 2.1-0.1 0.6-0.1 1.8v1.6q0 1.1 0 1.7v1.5q0 2.3-0.2 4.2-0.1 1.4-0.1 2.1-0.1 0.6-0.1 1.8 0 1.6-0.1 2.7-0.1 1.8-1.3 1.9-1.3 0.1-1.5 0.1zm19.4 0.6q-1 0-1.3-2-0.2-0.8-0.2-1.5 0-0.9 0-1.1-0.1-1.6-0.3-5l-0.2-2.1q-0.3-4.9-0.3-7.2v-13.4q0-0.4 1-0.6 0.6-0.2 1.5-0.2 0.7 0 1.5 0.1 0.7 0.1 1.1 0.1 0.9 0.1 2.6 0.1l0.2-0.2h2.4q0.2 0.2 0.4 0.2h0.3q0-0.1 0.2-0.1 0.1 0 0.4 0 0-0.1 0.1-0.1 0 0 0 0 0.2 0 0.4 0.1 0.2 0.1 0.3 0.1h4.1l0.2 9.5q0 0-0.1 0.3-0.1 0.3-0.1 0.8-0.2 2-0.2 3.1v10.8l-0.2 2.1q-0.1 1.3-0.1 2.2 0 1.2-0.1 1.9-0.1 0.6-0.3 1-0.4 0.4-1.1 0.4l-0.2-0.1q-0.1 0-0.1 0.1h-0.3q-0.3 0.1-0.4 0.1-0.2 0-1.2-0.1l-0.8-0.1q-0.3 0-0.3 0.2h-4.1-0.8l-1.4 0.3-1.4 0.2zm37.2 0.6q-0.5 0-1.2-0.1-0.4-0.1-1.3-0.1-2 0-5.1-0.9h-0.4q-0.4 0-0.8-0.2-0.1-0.2-0.3-0.2-0.2-0.1-0.4-0.3l-1.1-0.6q-1.7-1-3-2.6-1.2-1.7-2-3.8-1.5-3.7-1.5-7.6 0-4.4 1.8-8.4 1.8-4.2 5-6.7 3.4-2.7 7.7-2.7 1.3 0 2 0.1 0-0.1 0.2-0.1h0.1q3.9 0 6.9 0.2 2.6 0.4 4.8 1.6 4.4 2.9 6.3 6.4 2.1 3.9 2.1 9.1 0 5.2-2.5 9.8l-0.6 0.9q-0.2 0.3-0.2 0.3l-0.2 0.3-0.4 0.2q-2.3 3.5-7.1 4.8-3.2 0.6-8.8 0.6zm0.9-4.1q0.5 0 0.8-0.6 0.6-1 1.1-3.9 0-0.4 0.2-2.2 0.3-1.7 0.3-3.1 0.2-3.8 0.2-4.7v-1.2-0.5q0-1.9-0.1-3.4-0.2-2.2-0.7-3.6-0.5-0.6-0.8-0.6-0.5 0-1 0.8-0.5 0.8-0.8 3l-1.1 8.8v1.1 0.8q0.1 2.3 0.1 3l0.2 1.3 0.1 1.8q0 0.4 0.1 0.7l0.6 2.1q0.1 0.2 0.3 0.3 0.3 0.1 0.5 0.1zm29.6 2.9h-0.8-0.8-0.9-0.4l-2.1-0.6-0.2-0.3q0 0 0-0.6 0-0.7-0.1-1.1v-2.1q-0.1-0.7-0.1-2.1 0-1.4 0-2v-1.7q-0.4-3.5-0.4-7.1v-0.5-0.8q0-0.7 0.1-0.9v-0.5-0.4q-0.1-0.1-0.1-0.5v-0.6-0.3-0.6-0.9q0-0.6 0.1-0.9v-0.6l0.1-0.2v-0.8q0-0.5 0-1.4 0-0.8 0-1.3l-0.1-1.3-0.1-0.2q-0.1-0.1 0-0.2 0.3-0.8 1.4-1.2 0.6-0.2 1.8-0.2 1 0 4.9-0.2 2-0.1 2.5-0.1 0.8-0.1 2-0.1 0.5 0.1 0.8 0.3 0.2 0.1 0.3 0.4 0.3 0.3 0.4 0.5l1.1 1.6q-0.1-0.1 1.3 2 1.4 2.1 3.2 4.8 0.3 0.4 0.7 1 0.4 0.5 0.8 1.3v-2q0.1-0.7 0.1-2.2 0-1.8 0.1-4.1 0-0.5 0-0.8 0.1-0.4 0.1-0.6 0-0.6 0-0.6 0.3-0.3 0.8-0.7 0.7-0.4 1.4-0.4h2.7 0.6q0.8 0 1.4 0.1h1.6q0.6 0 1.7 0h1.2 0.5q1.1 0 1.7 0.4 0.3 0.2 0.4 0.6 0.1 0.4 0.1 1.1 0 0.7 0 1.2-0.1 0.5-0.1 1.3v0.4q0.1 0.2 0.1 0.5v1.4l-0.1 6.3v6.3 1.4q0 6-0.1 7.6l-0.2 1.8q-0.2 1.3-0.7 1.3-0.1 0-0.4 0.1-0.1 0-0.3 0-2 0-3-0.1h-2.8-2.9-0.7q-0.2 0.1-0.4 0.1-0.7 0-1.4-0.3-0.4-0.1-0.9-0.6l-4.9-6.8q-0.3-0.4-1-1.3l-0.7-0.7q-0.3-0.2-0.5-0.2-0.1 0-0.3 0.1-0.1 0.1-0.1 0.2v1q0 0.4 0 1.4v1.6q-0.1 0.6-0.1 1.6v1.3 0.8q0 0.2 0 0.4 0 0-0.2 0.9-0.1 0.2-0.2 0.2 0 0.1-0.3 0.1-0.2-0.1-0.3-0.1 0 0-0.1 0-4.3 0.4-7.2 0.4zm38.7 1.2q-0.2 0-0.6 0-0.8 0-1.2-0.2-0.4-0.2-0.4-0.6-0.1-1.2-0.2-5.4 0-0.5-0.1-2.5 0-2.1-0.2-3l0.3-0.4 1.8-0.4h3.2q0.4 0 1-0.1 0.3-0.1 0.9-0.1h1.3l0.4 0.2q0.3-0.1 0.5-0.1 0.2 0 0.4 0 0.2 0 0.2 0 0.1 0 0.4 0 0.1 0.1 0.3 0.1l1.4 0.2 0.4 0.1h0.1 0.3q0.9 0.3 1.3 0.5 0.2 0.4 0.2 1.1 0.2 0.2 0.3 0.9 0.2 0.7 0.2 1.6 0.1 1.3 0.1 3.2 0.1 1.1 0.1 1.6 0 0.6 0 0.8v0.6q-0.1 0.1-0.1 0.4 0 0.4 0.1 0.7v0.1q0 0.7-1.1 0.7-0.4 0-0.7 0-0.3 0-0.5 0-0.5-0.1-1.3-0.1h-0.5-0.7q-0.3 0.1-0.8 0.1h-0.5q-3.3-0.1-4-0.1-1 0-1.4 0zm34.7 0q-4.8 0-7.9-0.9-4.2-1.1-6.5-4.4-2.6-3.7-2.6-10.7 0-4.3 1.2-7.7 1.1-3.5 3.3-5.9 2.2-2.3 5.1-3.5 2.9-1.2 6.3-1.2 5.8 0 11.9 3.6l-0.7 6.1-1.3-0.2q-0.2-0.1-1.7-0.4-1.4-0.4-2.7-0.4-2.5 0-3.8 1.8-1.7 2.2-1.7 7.1 0 4 1.2 6 1.1 1.8 3 1.8 1.3 0 3.1-0.9 1.7-0.9 3.3-2l0.5 7.9q-1.9 1.8-4.7 2.8-2.6 1.1-5.3 1.1zm33 0.1q-0.4 0-1.2-0.1-0.3-0.1-1.2-0.1-2.1 0-5.1-1h-0.4q-0.4 0-0.9-0.2-0.1-0.1-0.2-0.2-0.2-0.1-0.4-0.2l-1.2-0.7q-1.6-0.9-2.9-2.6-1.2-1.7-2-3.7-1.5-3.8-1.5-7.7 0-4.3 1.8-8.3 1.8-4.3 5-6.7 3.4-2.8 7.7-2.8 1.3 0 2 0.1 0-0.1 0.2-0.1h0.1q3.9 0 6.9 0.3 2.6 0.4 4.8 1.6 4.4 2.9 6.3 6.4 2 3.8 2 9 0 5.3-2.4 9.8l-0.6 0.9q-0.2 0.3-0.3 0.3l-0.1 0.3-0.4 0.2q-2.4 3.5-7.2 4.8-3.1 0.7-8.8 0.7zm1-4.2q0.5 0 0.8-0.6 0.6-0.9 1.1-3.8 0-0.5 0.2-2.2 0.2-1.7 0.3-3.2 0.2-3.7 0.2-4.6v-1.3-0.4q0-2-0.1-3.4-0.2-2.3-0.7-3.6-0.5-0.7-0.8-0.7-0.5 0-1 0.9-0.5 0.8-0.8 3l-1.1 8.8v1.1 0.7q0.1 2.3 0.1 3l0.1 1.3 0.2 1.8q0 0.4 0.1 0.8l0.6 2q0.1 0.2 0.3 0.3 0.3 0.1 0.5 0.1zm29.3 3q-0.5 0-0.7-0.1h-1-0.9-0.3l-2.1-0.5-0.2-0.4v-0.6l-0.1-1.5q-0.1-1-0.1-1.7v-4.1q-0.1-0.7-0.1-1.7 0-2.5 0.2-4.9 0.1-1.5 0.1-4.9 0-0.6-0.1-1v-0.5l-0.1-0.4q0-1.2 0.2-2.4l0.1-2.9-0.1-1.4v-1.2q-0.2-0.2-0.2-0.4 0-0.8 1.4-1.2 0.7-0.2 1.9-0.2h8 3.7q0 0 0.1 0.1 0.1 0 0.2 0.1 0.5 0.5 0.9 1.2 0.5 0.8 0.8 1.7 0.4 1.1 1.5 3.9 0.9 2.2 1.5 3.6 0.4 1.4 1 1.4 0.5 0 0.8-0.7 0.1-0.1 0.3-0.7l0.9-2.1q0.1-0.2 0.7-1.6 0.2-0.3 1-2l0.8-1.8q0.1-0.3 0.3-0.8 0.2-0.5 0.5-0.9 0.6-0.9 0.9-1.2 0.1-0.2 0.3-0.2h3.8 7.9 0.7 0.5 0.7q0.2 0 1 0 0 0 0.2 0.7 0.1 2.8 0.1 4.5 0.1 2.1 0.1 6.4v2.7q0 2.5-0.4 7.1v1.7q0.1 0.7 0.1 1.9v2.3q0.1 0.7 0.1 1.8 0 1 0 1.3v0.6l-0.1 0.4-2.1 0.5h-0.5-0.7-1q-0.3 0.1-0.8 0.1-2.1 0-4.4-0.2-2.3-0.2-2.8-0.3l-0.2 0.1h-0.3q-0.3 0-0.3-1.1-0.3-1.4-0.3-6.3-0.1-1.4-0.1-3.7 0-0.4-0.4-0.4-0.2 0-0.3 0.4-0.9 2-1 2.5l-0.4 1.2-0.4 0.8q-1 2.2-2.2 3.4-0.7 0.8-1.5 0.8h-0.7-1q-0.7 0-1-0.1-0.6 0-0.9-0.1-1.9-2.9-3.6-6.5-0.2-0.7-0.4-1.1-0.2-0.4-0.3-0.8-0.4-0.5-0.4-0.5-0.4 0-0.4 0.4v2.2q0 3.3 0 4.8 0 2.4-0.3 3.5-0.1 0.2-0.2 0.4-0.1 0.2-0.2 0.2h-0.3l-0.2-0.1q-0.5 0.1-2.7 0.3-2.2 0.2-4.5 0.2z"/>
</svg>