<svg version="1.2" xmlns="http://www.w3.org/2000/svg" viewBox="0 0 500 100" width="500" height="100">
	<style>
		.s0 { fill: #ffffff } 
	</style>
	<path id="Gemdation.com" class="s0" aria-label="Gemdation.com"  d="m42.9 37.6l-11.6 6.7q-1.2-2.1-3.3-3.3-2-1.2-4.4-1.2-3.7 0-6.3 2.6-2.7 2.6-2.7 6.3 0 3.7 2.7 6.3 2.6 2.6 6.3 2.6 0.3 0 0.6 0 0.4 0 0.8 0 0.4 0 0.7 0 0.4 0 0.8 0v-9.6h13.3v23q-4 0-8.1 0-4.1 0-8.1 0-9.2 0-15.8-6.6-6.5-6.5-6.5-15.7 0-9.2 6.5-15.8 6.6-6.5 15.8-6.5 5.9 0 11.1 3 5.2 3 8.2 8.2zm33.1 18.6h-18.4v1.4h13.3v13.4h-26.7v-43.1h26.7v13.4h-13.3v1.5h18.4zm47.7 14.8h-13.4v-12.2l-10 13.4-9.7-13.3v12.1h-13.3v-45.9l23.1 26.5 23.3-26.4zm42-21.6q0 8.9-6.4 15.3-6.3 6.3-15.2 6.3h-17.5v-43.1q4.4 0 8.7 0 4.4 0 8.8 0 8.9 0 15.2 6.4 6.4 6.3 6.4 15.1zm-15.8 5.8q1.3-1.2 1.9-2.7 0.5-1.5 0.5-3 0-3.2-2.2-5.7-2.2-2.5-6-2.5h-4.2v16.3q0.3 0 0.7 0 0.3 0 0.6 0 2.4 0.1 4.6-0.2 2.3-0.3 4.1-2.2zm71.9 15.8h-15.4l-2.2-3.7h-19.5l-2.1 3.7h-15.5l21.6-37.4 5.8-10.1 5.8 10.1 2.5 4.5q0.7-3.9 2.9-6.9 2.3-3 6.6-4.1 0.8-0.2 1.5-0.3 0.8-0.2 1.5-0.2 1.5 0 2.9 0.5 1.4 0.5 2.8 1.5 1.5 1.1 2.3 2.9 0.8 1.7 0.9 3.6 0 0.1 0 0.2 0 0.1 0 0.2 0 2.7-1.6 5-1.6 2.2-4.8 2.3-2.5 0.1-4-1.5-1.4-1.6-1.4-3.6 0-0.2 0-0.4 0-0.3 0-0.5 0.1-0.7 0.5-1.3 0.3-0.7 0.8-1.3 0.3-0.5 0.7-0.6 0.4-0.2 0.9-0.2 0.7 0 1.2 0.6 0.6 0.5 0.6 1.3 0 0.3-0.1 0.7-0.2 0.3-0.5 0.6-0.2 0.2-0.4 0.6 0 0.3 0 0.6 0 0.5 0.4 1 0.4 0.4 1.1 0.3 1.5-0.1 2.1-1.1 0.7-1 0.7-2.4 0 0 0-0.1 0-0.1 0-0.2 0-1.1-0.5-2.1-0.5-1-1.2-1.6-0.7-0.5-1.4-0.7-0.8-0.2-1.6-0.2-0.3 0-0.6 0.1-0.3 0-0.7 0-3.7 0.7-5.4 3.3-1.6 2.5-1.6 6.1 0 1.2 0.2 2.6 0.2 1.3 0.5 2.7 0.4 1.3 0.9 2.6 0.5 1.3 1.1 2.6zm-25.3-17.1l-2-3.6-2.1 3.6zm60.2-12.7h-9.3v29.8h-13.4v-29.8h-9.4v-13.4h32.1zm16.3 29.8h-13.3v-43.1h13.3zm43.9-24.1q0 8.4-5.9 14.3-6 5.9-14.3 5.9-8.4 0-14.3-5.9-6-5.9-6-14.3 0-8.4 6-14.3 5.9-5.9 14.3-5.9 8.3 0 14.3 5.9 5.9 5.9 5.9 14.3zm-13.4 0q0-2.8-2-4.8-2-2-4.8-2-2.9 0-4.9 2-2 2-2 4.8 0 2.9 2 4.9 2 2 4.9 2 2.8 0 4.8-2 2-2 2-4.9zm57.2 29.3l-30-23.7v18.5h-13.4v-46.1l30 23.7v-20.8h13.4zm17.7-11.3q0 2.8-2 4.8-2 2-4.9 2-2.8 0-4.8-2-2-2-2-4.8 0-2.8 2-4.9 2-2 4.8-2 2.9 0 4.9 2 2 2.1 2 4.9zm29.6 6.9q-1.3 0.3-2.7 0.5-1.3 0.1-2.7 0.1-9.5 0-16.3-6.7-6.7-6.8-6.7-16.3 0-9.5 6.7-16.3 6.8-6.8 16.3-6.8 1.4 0 2.7 0.2 1.4 0.2 2.7 0.5l-3.1 13q-0.6-0.1-1.2-0.2-0.5 0-1 0-3.9 0-6.8 2.7-3 2.8-3 6.9 0 4.1 3 7 2.9 2.8 6.8 2.7 0.3 0 0.5 0 0.3 0 0.6-0.1 0.3 0 0.5 0 0.3-0.1 0.6-0.2zm41.9-24.8q0 8.3-6 14.3-5.9 5.9-14.3 5.9-8.4 0-14.3-5.9-5.9-6-5.9-14.3 0-8.4 5.9-14.3 5.9-6 14.3-6 8.4 0 14.3 6 6 5.9 6 14.3zm-13.4 0q0-2.9-2-4.9-2.1-2-4.9-2-2.8 0-4.8 2-2 2-2 4.9 0 2.8 2 4.8 2 2 4.8 2 2.8 0 4.9-2 2-2 2-4.8zm61.1 24h-13.3v-12.2l-10.1 13.4-9.7-13.3v12.1h-13.3v-45.9l23.1 26.5 23.3-26.4z"/>
</svg>