<svg version="1.2" xmlns="http://www.w3.org/2000/svg" viewBox="0 0 500 100" width="500" height="100">
	<style>
		.s0 { fill: #ffffff } 
	</style>
	<path id="Gemdation.com" class="s0" aria-label="Gemdation.com"  d="m23.5 56.1v-8.2h18.4v24.1q-1.9 0.6-3.8 1.1-1.8 0.5-3.9 0.8-2 0.4-4.2 0.5-2.2 0.2-4.6 0.2-5.2 0-9.3-1.5-4-1.5-6.7-4.6-2.8-3-4.2-7.4-1.4-4.5-1.4-10.4 0-5.4 1.6-9.8 1.6-4.4 4.6-7.5 3.1-3.1 7.6-4.8 4.6-1.7 10.4-1.7 3.7 0 7.3 0.8 3.5 0.8 6.5 2.1l-3.3 7.9q-2.1-1.1-4.9-1.8-2.7-0.8-5.6-0.8-3.3 0-5.9 1.2-2.5 1.1-4.4 3.1-1.8 2.1-2.8 5-1 2.9-1 6.5 0 3.5 0.7 6.3 0.7 2.8 2.1 4.9 1.5 2.1 3.8 3.2 2.3 1.1 5.5 1.1 2.1 0 3.5-0.1 1.5-0.2 2.7-0.5v-9.7zm43-11.4q-2.6 0-4.3 1.8-1.7 1.9-1.9 5.7h12.3q0-1.6-0.4-3-0.4-1.3-1.1-2.3-0.8-1-1.9-1.6-1.2-0.6-2.7-0.6zm1.3 29.9q-3.9 0-7.1-1.1-3.2-1.1-5.5-3.3-2.3-2.3-3.6-5.7-1.3-3.4-1.3-8 0-4.7 1.2-8.1 1.2-3.5 3.3-5.9 2.1-2.3 5.1-3.5 2.9-1.1 6.6-1.1 3.5 0 6.3 1 2.9 1.1 4.8 3.1 2 2.1 3.1 5.1 1 3 1 6.9v4.7h-21.6q0.1 2 0.6 3.7 0.6 1.6 1.7 2.7 1.1 1.1 2.6 1.7 1.5 0.6 3.4 0.6 1.6 0 3.1-0.1 1.4-0.2 2.8-0.6 1.4-0.3 2.7-0.8 1.3-0.6 2.7-1.3v7.5q-1.3 0.7-2.6 1.2-1.2 0.4-2.7 0.7-1.4 0.3-3 0.5-1.7 0.1-3.6 0.1zm52.8-18.4v17.8h-9.6v-20.7q0-3.9-1.2-5.8-1.1-1.9-3.6-1.9-1.8 0-3 0.8-1.3 0.7-2 2.2-0.7 1.5-1 3.7-0.4 2.2-0.4 5v16.7h-9.6v-35.5h7.4l1.3 4.6h0.5q0.8-1.4 1.8-2.4 1.1-1 2.4-1.6 1.2-0.6 2.7-0.9 1.4-0.3 2.8-0.3 3.7 0 6.2 1.2 2.6 1.3 4 4h0.8q0.7-1.4 1.8-2.4 1.1-1 2.4-1.6 1.3-0.6 2.7-0.9 1.5-0.3 2.9-0.3 5.8 0 8.6 3.1 3 3 3 9.9v23.1h-9.8v-20.7q0-3.9-1.1-5.8-1.1-1.9-3.6-1.9-3.4 0-4.9 2.8-1.5 2.7-1.5 7.8zm41 18.4q-2.7 0-5-1.1-2.2-1.2-3.8-3.5-1.7-2.3-2.6-5.7-0.9-3.5-0.9-8 0-4.5 0.9-8 0.9-3.4 2.6-5.8 1.7-2.3 4-3.5 2.3-1.1 5.1-1.1 1.7 0 3.1 0.4 1.5 0.3 2.6 1.1 1.2 0.7 2 1.6 1 0.9 1.7 2.1h0.3q-0.2-1.3-0.4-2.6-0.1-1-0.3-2.2-0.1-1.3-0.1-2.3v-11.4h9.7v49.4h-7.4l-1.8-4.6h-0.5q-0.6 1.1-1.5 2.1-0.8 0.9-2 1.6-1.1 0.7-2.5 1.1-1.4 0.4-3.2 0.4zm3.5-7.7q1.7 0 3-0.5 1.2-0.7 1.9-1.8 0.8-1.2 1.1-3 0.4-1.8 0.4-4.2v-1q0-2.6-0.3-4.6-0.3-2-1.1-3.3-0.7-1.4-1.9-2.1-1.3-0.7-3.1-0.7-3.1 0-4.5 2.8-1.4 2.7-1.4 7.9 0 5.3 1.4 7.9 1.5 2.6 4.5 2.6zm53.4 7.1h-6.7l-1.9-4.8h-0.3q-1 1.4-2.1 2.5-1 1-2.3 1.6-1.2 0.7-2.8 1-1.5 0.3-3.5 0.3-2.2 0-4-0.6-1.9-0.7-3.2-2.1-1.4-1.4-2.1-3.5-0.8-2.1-0.8-5 0-5.6 3.6-8.3 3.7-2.7 10.9-3l5.6-0.2v-2.7q0-2.1-1.3-3.2-1.2-1-3.5-1-2.3 0-4.5 0.6-2.1 0.7-4.3 1.8l-3.2-6.4q2.7-1.5 5.9-2.4 3.3-0.8 6.8-0.8 6.7 0 10.2 3.1 3.5 3.1 3.5 9.5zm-9.6-13.6v-2.9l-3.2 0.1q-1.9 0.1-3.3 0.5-1.3 0.5-2.1 1.3-0.8 0.7-1.2 1.7-0.3 1-0.3 2.3 0 2.2 1 3.2 1.1 0.9 2.9 0.9 1.3 0 2.4-0.4 1.2-0.5 2-1.4 0.9-0.9 1.3-2.2 0.5-1.4 0.5-3.1zm33.7 6.5q1.4 0 2.7-0.3 1.3-0.4 2.6-0.8v7.2q-1.4 0.7-3.4 1.1-2 0.5-4.4 0.5-2.3 0-4.3-0.5-2-0.6-3.4-1.9-1.5-1.4-2.4-3.6-0.8-2.3-0.8-5.8v-17.1h-4.6v-4.1l5.3-3.2 2.8-7.5h6.2v7.6h8.6v7.2h-8.6v17.1q0 2.1 1 3.1 1 1 2.7 1zm12.2-37.6q0-1.4 0.4-2.3 0.4-0.9 1.1-1.4 0.7-0.6 1.7-0.8 0.9-0.2 2-0.2 1.1 0 2.1 0.2 0.9 0.2 1.6 0.8 0.7 0.5 1.1 1.4 0.5 0.9 0.5 2.3 0 1.3-0.5 2.3-0.4 0.9-1.1 1.4-0.7 0.6-1.6 0.8-1 0.3-2.1 0.3-1.1 0-2-0.3-1-0.2-1.7-0.8-0.7-0.5-1.1-1.4-0.4-1-0.4-2.3zm10 9.2v35.5h-9.6v-35.5zm18.4 17.6q0 5.4 1.4 8 1.5 2.7 4.9 2.7 3.3 0 4.8-2.7 1.5-2.7 1.5-8 0-5.3-1.5-7.9-1.5-2.6-4.9-2.6-3.3 0-4.8 2.6-1.4 2.6-1.4 7.9zm22.5 0q0 4.5-1.2 7.9-1.1 3.4-3.2 5.8-2.1 2.3-5.1 3.6-3.1 1.2-6.8 1.2-3.6 0-6.5-1.2-3-1.3-5.1-3.6-2.1-2.4-3.3-5.8-1.3-3.4-1.3-7.9 0-4.4 1.2-7.8 1.1-3.4 3.2-5.7 2.1-2.4 5.1-3.6 3.1-1.2 6.9-1.2 3.5 0 6.4 1.2 3 1.2 5.1 3.6 2.2 2.3 3.4 5.7 1.2 3.4 1.2 7.8zm39.2-5.3v23.2h-9.7v-20.8q0-3.8-1.2-5.7-1.1-2-3.7-2-1.9 0-3.1 0.8-1.3 0.8-2.1 2.3-0.7 1.5-1 3.6-0.3 2.2-0.3 5.1v16.7h-9.7v-35.5h7.4l1.3 4.5h0.5q0.8-1.4 1.9-2.3 1.1-1 2.4-1.7 1.3-0.6 2.7-0.9 1.5-0.3 3-0.3 2.6 0 4.8 0.8 2.1 0.7 3.6 2.3 1.5 1.6 2.4 4 0.8 2.5 0.8 5.9zm7.8 18.6q0-1.5 0.4-2.5 0.5-1 1.2-1.7 0.8-0.6 1.8-0.9 1-0.3 2.2-0.3 1.1 0 2.1 0.3 1 0.3 1.8 0.9 0.7 0.7 1.2 1.7 0.4 1 0.4 2.5 0 1.4-0.4 2.5-0.5 1-1.2 1.6-0.8 0.7-1.8 1-1 0.3-2.1 0.3-1.2 0-2.2-0.3-1-0.3-1.8-1-0.7-0.6-1.2-1.6-0.4-1.1-0.4-2.5zm35.1 5.2q-3.8 0-6.8-1.1-3.1-1-5.3-3.2-2.1-2.2-3.3-5.6-1.2-3.5-1.2-8.3 0-5.3 1.2-8.9 1.2-3.5 3.4-5.7 2.2-2.2 5.2-3.1 3.1-0.9 6.8-0.9 2.8 0 5.5 0.7 2.7 0.6 5.1 1.8l-2.8 7.4q-2.1-0.9-4.1-1.5-1.9-0.6-3.7-0.6-3.5 0-5.1 2.7-1.5 2.7-1.5 8 0 5.4 1.5 7.9 1.6 2.6 5 2.6 2.8 0 5-0.7 2.3-0.8 4.6-1.9v8.1q-1.1 0.5-2.2 1-1.2 0.4-2.3 0.7-1.1 0.3-2.3 0.5-1.3 0.1-2.7 0.1zm25.4-18.5q0 5.4 1.4 8 1.5 2.7 4.9 2.7 3.3 0 4.8-2.7 1.5-2.7 1.5-8 0-5.3-1.5-7.9-1.5-2.6-4.9-2.6-3.3 0-4.8 2.6-1.4 2.6-1.4 7.9zm22.5 0q0 4.5-1.2 7.9-1.1 3.4-3.2 5.8-2.1 2.3-5.1 3.6-3.1 1.2-6.8 1.2-3.6 0-6.5-1.2-3-1.3-5.1-3.6-2.1-2.4-3.3-5.8-1.3-3.4-1.3-7.9 0-4.4 1.2-7.8 1.1-3.4 3.2-5.7 2.1-2.4 5.1-3.6 3.1-1.2 6.9-1.2 3.5 0 6.4 1.2 3 1.2 5.1 3.6 2.2 2.3 3.4 5.7 1.2 3.4 1.2 7.8zm38.9 0v17.9h-9.7v-20.8q0-3.8-1.2-5.7-1.1-2-3.6-2-1.8 0-3 0.8-1.2 0.8-2 2.3-0.7 1.5-1 3.6-0.3 2.2-0.3 5.1v16.7h-9.7v-35.5h7.4l1.3 4.5h0.5q0.8-1.4 1.8-2.3 1.1-1 2.4-1.7 1.3-0.6 2.7-0.9 1.4-0.3 2.9-0.3 3.6 0 6.2 1.3 2.5 1.2 3.9 3.9h0.8q0.7-1.4 1.8-2.3 1.1-1 2.4-1.7 1.3-0.6 2.7-0.9 1.5-0.3 3-0.3 5.7 0 8.6 3.1 2.9 3.1 2.9 9.9v23.2h-9.7v-20.8q0-3.8-1.2-5.7-1.1-2-3.6-2-3.4 0-4.9 2.8-1.4 2.7-1.4 7.8z"/>
</svg>