<svg version="1.2" xmlns="http://www.w3.org/2000/svg" viewBox="0 0 500 100" width="500" height="100">
	<style>
		.s0 { fill: #ffffff } 
	</style>
	<path id="Gemdation.com" class="s0" aria-label="Gemdation.com"  d="m18 45.4q-0.5 3.3-0.5 6.4 0 3.2 0.5 5.9 0.4 2.8 1.3 5.1 0.9 2.1 2.4 3.7 1.8 1.9 4.6 2.7 3 0.8 6.6 0.3 0.9-3.7 2.2-7.1 1.3-3.4 2.4-6.7 1.3-3.2 2.1-6.3 0.9-3.2 0.9-6.2 0-0.3 0.1-0.3 0.1 0 0.2 0.3 0.2 0.3 0.2 0.4 1.1 3.5 0.6 7.1-0.4 3.5-1.6 7.2-1.1 3.7-2.7 7.6-1.5 3.8-2.4 7.9-0.5 1.8-0.6 4.3-0.1 2.3 0.3 4.9 0.5 2.5 1.5 4.9 1.2 2.5 3.1 4.4 0.1 0.2 0.3 0.4l0.1 0.1q0 0-0.3 0-0.1 0-0.1-0.1-2.6-1.7-4.3-3.9-1.6-2.2-2.5-4.5-0.8-2.3-0.9-4.6-0.1-2.4 0.2-4.3-2.8 0.7-5.7 0.2-2.7-0.5-5.1-1.7-0.5-0.2-1-0.8-0.5-0.5-0.4-0.6 0 0 1.4 0.2 1.5 0.2 3.3 0.5 1.9 0.2 3.7 0.4 1.9 0.1 2.8 0 0.3-0.1 0.6-0.1 0.3-0.1 0.8-0.3 0-0.5 0.1-0.8 0.1-0.5 0.3-1-3.3 0.8-6.5 0.2-3.1-0.6-5.6-2.7-2-1.7-3.2-4-1.1-2.5-1.8-5.4-0.6-2.8-0.7-5.9-0.1-3.1 0.2-6.1 0.4-4.9 1.9-9.8 1.5-4.9 4-9.1 2.6-4.3 6-7.3 3.5-3.2 7.9-4.4 2-0.6 4.3-0.5 2.2 0.1 4.2 0.9 2 0.7 3.5 2.2 1.5 1.3 1.9 3.4 0.4 2.3-0.4 4.4-0.9 2.1-2.4 3.7-1.5 1.6-3.4 2.2-1.9 0.7-3.6-0.1-0.7-0.2-0.3-0.3 0.2-0.1 0.3 0 0.1 0 0.3 0 1.1 0.2 2.5-0.4 1.4-0.7 2.6-1.9 1.2-1.3 1.9-2.9 0.7-1.7 0.5-3.4-0.3-1.4-1.3-2.5-0.8-1-2.3-1.7-1.4-0.6-3.2-0.8-1.7-0.2-3.7 0.2-3.5 0.6-6.5 3.2-3.1 2.5-5.5 6.2-2.3 3.6-3.9 8-1.7 4.5-2.2 9zm7.5 31.3q1.3 0.2 1.5 0.3 0.2 0.1-1.4 0.1-2.7 0-5.4-0.9-2.7-0.8-5.1-2.3-2.4-1.7-4.3-3.9-1.9-2.3-2.8-5.1-2.1-5.9-2.5-11.4-0.4-5.5 0.5-11 0.5-2.9 1.5-6.7 1.1-3.8 2.9-7.8 1.9-4 4.6-7.9 2.8-3.9 6.7-7.1 4.1-3.4 9.1-4.5 5-1.1 9.6-0.4 4.5 0.8 8.1 3.4 3.5 2.4 4.6 6.1 0.1 0.2 0.3 0.8 0.2 0.6 0 0.7-0.2 0-0.4-0.4-0.2-0.5-0.6-1.1-4-5.4-9.1-6.8-5-1.4-9.9-0.3-4.9 1.1-9.3 4.4-4.2 3.1-6.8 7-4.5 6.6-6.6 14.3-2.2 7.7-2.1 15.7 0.1 3.9 0.8 7.9 0.8 4 2.8 7.8 1.9 3.7 5.6 6.2 3.8 2.4 7.7 2.9zm-13.5-36q0.6-4.9 2.3-9.7 1.6-4.8 4.2-8.7 2.8-3.9 6.8-6.8 4-2.8 9.4-4 1.8-0.3 4.1-0.2 2.3 0 4.6 0.8 2.4 0.8 4.4 2.4 2.1 1.6 3.4 4.5 1.3 2.7 0.9 5.5-0.3 2.6-1.5 4.8-1.2 2.1-3 3.5-1.7 1.4-3.4 1.6-0.3 0.1-0.8 0.1-0.4-0.1-0.4-0.3 0-0.1 0.1 0 0.1 0 1.1-0.4 0.7-0.3 1.5-1 1-0.7 1.7-1.9 0.9-1.1 1.5-2.6 0.7-1.6 0.9-3.4 0.2-1.9-0.5-3.6-0.6-1.7-2-3-1.2-1.4-2.9-2.4-1.7-0.9-3.5-1.2-5.6-0.9-10.2 1.5-4.6 2.3-8.1 6.4-3.5 4-5.9 9-2.3 4.9-3.6 9.4 0 0.1-0.2 0.7-0.2 0.5-0.3 1.2-0.2 0.7-0.4 1.2-0.1 0.5-0.2 0.5-0.1 0-0.2-0.5 0-0.5 0-1.2 0.1-0.8 0.1-1.3 0.1-0.7 0.1-0.9zm32.6 33.5q-0.6 2.1-1.7 5.4-1.1 3.1-1.9 5.8-0.3 0.7-0.5 0.7-0.4 0-0.5-0.3 0-0.3 0-0.5-0.3-2.6-0.1-4.9 0.2-2.4 0.8-4.6 0.5-2.3 1.3-4.6 0.9-2.3 1.7-4.8 1.2-3.4 2.1-6.5 1-3.2 1.1-7.2 0-0.5 0-0.5 0.1-0.1 0.3-0.1l0.3 0.6q1 2 0.8 4.9-0.1 3-0.8 6.1-0.7 3.1-1.6 6-0.9 2.8-1.3 4.5zm0.3-15.1q-1.4 3.6-3 7.5-1.6 3.9-3.3 7.6-0.1 0-0.4 0.6-0.2 0.5-0.5 0.4-0.2-0.1-0.2-0.6 0-0.5 0-0.8 0-0.9 0.2-2.1 0.2-1.4 0.5-2.6 0.3-1.3 0.6-2.6 0.4-1.2 0.7-2 0.2-0.6 0.9-3.1 0.7-2.5 1.3-5.5 0.7-3 1.1-5.9 0.3-2.8 0-4.3-0.2-0.4 0-0.6 0.2 0 0.2 0.3 0.2 0.2 0.4 0.3 0.9 1.4 1.4 3.2 0.4 1.7 0.5 3.6 0.2 1.8 0 3.6-0.1 1.7-0.4 3zm-5.7 28.1q1.2 2.3 2.8 4.4 0.3 0.3 0.1 0.5-0.3 0.2-0.6 0-0.2-0.1-0.3-0.2-1.3-0.7-2.1-1.5-0.9-0.8-1.8-3-0.2-0.7-0.5-1.9-0.2-1.2-0.3-2.2-0.1-1.2-0.1-1.9 0.1-0.8 0.4-0.7 0.5 0 0.7 1.1 0.4 1.2 0.5 1.5 0.4 1 0.6 2 0.2 0.9 0.6 1.9zm39.9-49q0.7 1 1.1 2.4 0.5 1.4 0.4 3.1-0.1 1.7-0.8 3.5-0.6 1.8-2.1 3.5-2.7 3.2-6 5-3.3 1.7-5.9 1.7-1.6 0 0-0.5 0.8-0.3 2-0.9 1.2-0.7 2.5-1.5 1.4-1 2.7-2.2 1.4-1.2 2.6-2.9 1.9-2.6 2.1-5.1 0.4-2.5-0.9-3.9-1.1-1.1-2.7-1.2-1.5-0.2-4.5 1.6-2.8 1.6-5 4-2.2 2.4-4.1 5-1 1.4-1.4 1.4-0.3 0 0.3-1.8 1.1-3.3 3.1-6.1 2.1-2.9 5-4.9 2.1-1.4 3.8-2 1.8-0.5 3.2-0.4 1.5 0.1 2.7 0.7 1.1 0.6 1.9 1.5zm5.1 6.7q-0.4 2.3-1.2 3.9-0.8 1.5-1.8 2.6-1 1.1-2 1.8-1 0.6-1.7 1.2-0.4 0.3-0.6 0.1-0.2-0.2 0.3-0.7 1.7-1.4 3.4-3.8 1.8-2.4 1.9-5.4 0-5-2.5-7.7-2.4-2.7-6.2-2.3-3.7 0.3-7.6 2.9-2.6 1.6-4.6 3.8-1.9 2.1-3.3 4.5-1.5 2.4-2.4 5-0.9 2.5-1.2 5.1-0.4 2.5-0.8 5.3-0.3 2.9 0 5.6 0.4 2.8 1.8 5.4 1.4 2.4 4.5 4.2 0.4 0.3 0.9 0.4 0.6 0.1 0.6 0.2 0 0.2-0.5 0.3-0.5 0-1-0.2-2.4-0.5-4.1-1.9-1.6-1.5-2.7-3.4-1-1.9-1.6-4-0.6-2.1-0.7-3.8-0.5-7.5 2.1-14.8 0.6-1.6 1.5-3.5 0.9-1.9 2.2-3.8 1.4-1.9 3.2-3.8 1.8-1.9 4.1-3.3 2.1-1.3 4.5-2 2.4-0.6 4.8-0.5 2.3 0 4.4 0.8 2.1 0.8 3.7 2.4 1.5 1.5 2.2 3.9 0.9 2.4 0.4 5.5zm-8.6-3.4q1.1 1.3 0.2 4.1-0.8 2.8-3.9 5.7-1.8 1.6-3.4 2.6-1.6 1-4.1 1.7-1 3.6-1.3 7.2-0.3 3.5 0.2 5.7 0.1 0.8 0.6 1.7 0.5 0.7 1.5 1.2 1 0.4 2.7 0.3 1.6-0.1 3.9-1.1 0.7-0.2 0.8-0.1 0.2 0.1-0.6 0.6-1.7 1.3-3.6 1.9-1.9 0.5-3.6 0.3-1.6-0.2-2.8-1.1-1.2-1-1.6-2.6-0.7-3.3-0.6-6.9 0.1-3.7 1-7.2 1.1-3.5 2.9-6.5 1.9-3.2 4.6-5.3 5.2-4.1 7.1-2.2zm-1 30.3q-0.7 0.9-1.7 1.9-1 0.8-2.3 1.6-1.2 0.7-2.6 1.1-1.4 0.5-2.8 0.5-2.5 0-4.7-1-2-1.2-3.2-4.5-0.2-0.4-0.2-0.7 0-0.3 0.2-0.3 0.4-0.2 0.8 0.2 0.4 0.4 0.7 0.9 1.1 1.2 2.7 2.2 1.7 0.9 3.2 0.9 2.9 0 5-0.8 2.1-0.9 4-2.3 0.4-0.3 1-0.6 0.7-0.3-0.1 0.9zm-1.3-27.8q-0.4-0.7-2.8 1.3-2.2 1.7-3.5 4-1.2 2.1-2.2 4.8 1.8-0.8 3.3-1.9 1.6-1.1 2.9-2.2 1.4-1.2 2.1-3.2 0.7-2 0.2-2.8zm36.2 9q-1.3 5.7-1.8 11.8-0.5 6.2 0.8 12 0.1 0.2-0.1 0.5-0.1 0.2-0.3-0.3-1.6-3.1-2.3-6.4-0.6-3.2-0.6-6.3 0-3.3 0.5-6.5 0.5-3.2 1.2-6.4 0.1-0.3 0.4-1.5 0.3-1.2 0.4-2.3 0.2-1.3 0-1.9-0.2-0.7-1.1 0-2.2 1.6-4.1 4-1.8 2.4-3 4.7-0.1 0.2-0.4 1.1-0.3 0.9-0.7 1.9-0.3 1.1-0.6 2.1-0.3 1-0.4 1.3-0.7 2.9-1.9 5.6-1.1 2.6-1.9 4.9-0.2 1-0.3 0.9-0.5 0-0.5-0.9-0.5-4.7 0.7-8.9 1.4-4.4 2.9-9 0.9-2.9 1.7-5.8 0.9-2.9 0.8-6.4-0.1-2.5 1.8-4.9 2-2.3 5.9-3.9 2.2-1 4.2-0.9 2 0.1 3.7 0.9 1.8 0.7 3.1 2.1 1.3 1.5 2.2 3.2 0.5-1.1 1.7-2.2 1.1-1.2 2.6-2.1 1.7-0.9 3.6-1.2 1.9-0.5 4.3-0.1 1.7 0.3 3 1.1 1.3 0.9 2.2 2 1.1 1 1.7 2.2 0.5 1.1 0.8 1.9 1.1 3.1 1.1 7 0.1 3.9-0.8 7-1.4 5.2-3.4 9.2-1.9 4-2.6 7.1-0.3 1-0.4 1-0.3 0-0.4-0.3 0-0.4-0.1-0.8-0.2-2 0.4-5 0.8-3.2 1.7-6.7 1-3.6 1.8-7.3 0.7-3.7 0.6-6.8-0.1-3.3-1.4-5.6-1.3-2.4-4.6-3.3-2.5-0.6-4.5 0-1.9 0.6-3.2 1.4-2 1.3-2.6 2.8-0.6 1.4-0.6 2.8 1.6-3 4.3-4.7 2.7-1.8 6.3-0.7 2.3 0.8 3.3 2.9 1 2.1 1.1 4.6 0.1 2.6-0.5 5.2-0.6 2.5-1.5 4.2-0.1 0.2-0.4 1-0.4 0.7-0.9 0.6-0.1 0-0.1-0.8 0.1-0.8 0.1-1.1 0.3-1.2 0.4-2.7 0.1-1.5 0-3.1 0-1.6-0.2-3.2-0.2-1.5-0.6-2.5-0.5-1.4-1.5-1.7-0.9-0.5-2.1-0.3-1.1 0.2-2.3 0.7-1 0.6-1.8 1.3-2.1 1.8-2.5 3.3-0.5 1.4-0.8 3.3 1.1-1.9 2.8-3.5 1.7-1.7 3.3-2.7 0.8-0.4 1.4-0.3 0.7 0.1 1.1 0.5 0.4 0.4 0.6 1.1 0.2 0.6 0.3 1 0.3 3.2-0.3 5.5-0.5 2.4-1.2 5-0.7 2.4-1.2 5.6-0.3 3 0.2 7.6 0.5 3.3 2 6 1.5 2.6 3.8 3.3 0.7 0.2 0.3 0.3-0.3 0.1-0.5 0.1-1.7-0.2-3.2-1.4-1.5-1.1-2.7-2.8-1.2-1.7-1.9-3.8-0.8-2.1-0.9-4.2-0.3-4.3 0.5-8.1 0.8-3.9 1.6-6.6 0.2-0.8 0.4-1.9 0.3-1.2 0.2-2.1 0-0.9-0.6-1-0.6-0.1-1.9 1.1-1.9 1.7-3.3 3.7-1.5 2-2.1 4.5-2.2 7.8-6.3 15.1-0.2 0.3-0.5 0.7-0.3 0.3-0.4 0.2-0.1 0 0-0.5 0-0.4 0.1-0.9 0.6-3.3 1.5-6.5 0.8-3.1 1.6-6.3 0.8-3.4 1.4-6.8 0.7-3.5 0.8-7.5-0.2-1.3-0.6-2.7-0.3-1.5-1.9-3.4-1.9-2.1-4.5-2.1-2.5-0.1-4.2 0.4-1 0.3-2.2 1.1-1.2 0.7-2.2 1.8-1 1-1.6 2.4-0.6 1.4-0.3 3 1-1.9 2.4-3.7 1.4-1.8 3.6-2.8 0.6-0.3 1.7-0.4 1-0.3 2.2-0.3 1.1-0.1 2.2 0.3 1.2 0.3 2 1.4 1.6 1.9 1.7 3.4 0.1 1.5 0.1 3-0.2 2.8-0.9 5.3-0.7 2.3-1.7 4.5-0.1 0.3-0.5 1-0.4 0.5-0.6 0.5-0.1 0-0.2-0.7 0-0.8 0.1-1.1 0.1-1 0.3-3 0.2-2.1 0.2-4.3 0.1-2.3-0.2-4.1-0.3-1.9-1.2-2.6-0.9-0.7-2.6-0.4-1.7 0.3-3 1.3-1.3 1.1-2.3 2-0.8 1-1.4 2-0.6 1-1.1 2.2-0.3 1.1-0.6 2.8 1.1-2.2 2.6-4.1 1.6-1.9 3.7-3.3 1.6-1 2.4-0.8 0.9 0.2 1.2 1 0.3 0.9 0.2 2.2 0 1.4-0.1 2.5-0.1 1.5-0.4 3.1-0.3 1.6-0.7 3.1zm27.2 24.2q0 0-0.5 0-0.2 0-0.5-0.1-1.3-0.3-2.8-1.1-1.5-1-2.6-3.5-0.4-0.9-0.6-2.4-0.1-1.6-0.1-3 0-1.4 0.1-2.4 0.2-1.1 0.6-1 0.1 0 0.2 0.5 0.2 0.4 0.3 0.9 0.1 0.6 0.2 1.2 0.1 0.5 0.1 0.8 0.2 1.4 0.4 2.7 0.3 1.2 0.8 2.3 0.5 1.4 1.7 3 1.3 1.5 2.4 1.7 0.5 0.2 0.3 0.4zm-25.6-0.2q0.2 0.7 0 0.7-0.5 0-0.7-0.5-0.5-0.6-1-1.6-0.5-1.2-0.4-3.8 0-1.1 0.2-2.5 0.2-1.5 0.4-2.7 0.3-1.4 0.6-2.2 0.3-0.9 0.6-0.8 0.1 0 0.1 0.5 0.1 0.4 0.1 0.9 0.1 0.6 0.1 1.2 0 0.4 0 0.6 0 1.6-0.1 2.8-0.1 1.1-0.1 2.5 0 1.8 0 3 0 1.2 0.2 1.9zm-14-31.5q-1.1 3.6-2.9 7.1-1.7 3.5-2.8 6.7-0.1 0.2-0.4 0.8-0.2 0.5-0.6 0.4-0.2-0.1-0.3-0.6 0-0.6 0-0.9 0-1.5 0.5-3.9 0.6-2.6 1.1-4.2 0.2-0.6 0.7-2.9 0.6-2.3 1-5.1 0.4-2.8 0.5-5.3 0.2-2.6-0.4-3.7-0.4-0.7 0-0.7 0.2 0 0.7 0.5 1.2 1 1.8 2.5 0.8 1.6 1.1 3.3 0.3 1.6 0.2 3.2 0 1.6-0.2 2.8zm-6.3 31.6q-3-2-4.6-4.4-1.5-2.3-2.1-4.9-0.5-2.6-0.4-5.2 0.2-2.7 0.7-5.3 0.8-3.4 1.9-6.7 1.3-3.4 2.3-6.6 1.1-3.2 1.7-6.2 0.7-3.1 0.2-5.8 0-0.4 0.1-0.4 0.2 0 0.5 0.5 1.7 3 1.6 6.2-0.1 3.3-1.1 6.7-0.9 3.3-2.3 6.8-1.4 3.4-2.1 7-0.5 2.1-0.7 4.6-0.1 2.4 0.4 4.8 0.5 2.3 1.5 4.6 1.2 2.3 3.1 4.1 0.3 0.2 0.1 0.4-0.1 0.2-0.4 0.1-0.2-0.2-0.4-0.3zm3.6 0.4q-0.3 0.2-0.8-0.3-1-0.8-2.1-1.6-0.9-0.9-1.8-2.8-0.4-0.6-0.6-1.7-0.2-1-0.2-2 0-1 0.1-1.7 0.2-0.7 0.5-0.7 0.3 0.1 0.5 1.1 0.3 0.9 0.5 1.2 0.4 1.1 0.7 2 0.3 0.9 0.6 1.7 0.6 1.4 1.2 2.3 0.5 1 1.3 1.9 0.1 0.1 0.2 0.3 0.1 0.2-0.1 0.3zm89.2-50q-1.4 6-3.6 12-2 5.9-4.1 11.2-0.1 0.5-0.5 1.2-0.4 0.8-0.9 0.6-0.1 0-0.1-0.9 0-0.8 0.1-1.1 0.2-1.3 0.5-3.1 0.4-1.9 0.8-3.8 0.4-1.9 0.9-3.7 0.5-1.9 0.9-3.3 0.3-0.5 0.6-2.5 0.5-2 1-4.7 0.5-2.7 0.8-5.9 0.4-3.1 0.5-6 0.1-2.9-0.1-5.3-0.1-2.4-0.7-3.5-0.5-1-0.2-1 0.4 0 0.8 0.4 1.5 1.5 2.2 3.9 0.9 2.4 1.2 5.2 0.4 2.8 0.3 5.6-0.1 2.7-0.4 4.7zm2.4-10.5q1 1.9 1.2 4.6 0.2 2.8-0.1 6-0.3 3.1-1 6.6-0.5 3.3-1.3 6.4-0.8 3.1-1.5 5.7-0.7 2.7-1.2 4.4-1.3 4.9-2.4 9.9-1.1 4.8-1.1 8.2 0 1.3-0.1 1.3-0.2 0.2-0.4-0.3-0.2-0.5-0.4-1-1-3.4-0.9-7 0.2-3.7 1-7.5 0.7-3.9 1.9-7.8 1.2-4 2.3-7.9 1.4-4.9 2.7-10.2 1.3-5.5 0.9-11.4 0-0.5-0.1-0.5 0-0.1 0.1-0.1 0.1 0 0.4 0.6zm-13.6 19.4q-5.8 2.5-9.8 7-4 4.3-6.1 9.8-0.9 2.2-1.4 4.3-0.5 2-0.7 4.3-0.1 1.1 0.6 0.9 0.6-0.3 1.1-0.9 1.1-1.4 2.1-2.8 0.9-1.4 1.9-2.8 1-1.5 2.1-3.1 1.1-1.7 2.5-3.6 1.4-2 2.6-3.9 1.3-2 2.3-3.7 1-1.8 1.7-3.2 0.8-1.4 1.1-2.3zm-2.1 7.5q-3.5 6.7-7.1 12.6-3.6 5.8-8.2 10.6-3 3.2-3.6-0.9-0.1-3.3 0.5-6.8 0.7-3.5 2-6.6 1.3-3.1 3.1-5.9 1.8-2.9 4.1-5.2 2.4-2.4 5.3-4 2.9-1.6 6.2-2.2 1.2-4 2.2-7.8 1.1-3.9 1.7-7.6 0.7-3.7 0.7-7.1 0.1-3.5-0.6-6.7-0.2-0.5-0.1-0.5 0.2-0.1 0.3 0.1 0.2 0.3 0.2 0.4 2.3 4.6 2.2 9.8 0 5.2-1.2 10.8-1.3 5.6-3.2 11.4-1.8 5.8-3.1 11.6-0.9 3.7-1.1 8-0.1 4.2 0.9 8.3 0.9 4.2 3.5 7.3 2.6 2.9 5.9 3.2 0.8 0.1 0.8 0.3 0 0.2-0.3 0.3-0.2 0-0.4 0-2 0-4-0.8-1.9-0.7-3.6-2.2-1.7-1.4-3-3.3-1.3-2-1.8-4.4-0.2-0.8-0.2-1.3-2.7 5.1-6.5 8.2-3.7 3-9.4 3.5-4.3 0.3-6.6-2-2.1-2.3-3-5.5-0.9-3.2-0.6-6.7 0.3-3.7 1.1-5.9 2.2-6.6 5.5-11.5 3.3-5.1 6.6-7.1 0.2-0.2 0.6-0.2 0.4-0.2 0.5-0.1 0.2 0.1-0.1 0.3-0.3 0.3-0.4 0.4-5.1 5.1-8 11.8-2.7 6.6-2.9 13.4-0.1 1.7 0.1 3.7 0.2 2 0.8 3.8 0.8 1.7 2.1 2.9 1.4 1.2 3.6 1.2 3.3 0.1 6.1-1.9 3-2.1 5-5.1 2.2-3 3.6-6.4 1.3-3.4 1.5-6.3-0.7 0.8-1.2 1.6-0.4 0.8-1.2 1.7-0.1 0.2-0.6 0.7-0.4 0.4-0.7 0.3-0.2-0.1 0.2-1.1 0.3-1 0.9-2.1 0.6-1.3 1.2-2.3 0.5-1.2 0.7-1.5 1.1-2.2 1.6-4.4 0.6-2.2 1.4-4.8zm13.2 30.9q0 0.2-0.5 0.4-0.3 0.1-0.5 0.1-1.8 0.2-3.4-0.2-1.5-0.4-3.1-2-0.9-0.8-1.6-2.6-0.5-1.7-0.9-3.3-0.3-1.6-0.3-2.8 0.1-1.3 0.5-1.2 0.1-0.1 0.3 0.4 0.2 0.5 0.4 1.1 0.2 0.6 0.4 1.3 0.2 0.6 0.3 0.8 0.5 1.6 1.1 2.8 0.7 1.2 1.7 2.2 2.2 2.6 4.9 2.7 0.2 0 0.4 0.1 0.3 0 0.3 0.2zm-13.8-40.1q0 0.1-0.2 0.2-0.1 0.1-0.7 0.3-1.2 0.5-3 1.6-1.8 1.1-3.8 2.7-2 1.6-4 3.8-1.9 2.1-3.3 4.5-1.4 2.6-2.5 5.1-0.9 2.3-1.5 4.4-0.6 2-0.9 3.5-0.2 1.4-0.2 1.9-0.1 1.6-0.1 3.2 0 1.5 0.3 2.8 0.5 1.3 1.5 1.9 0.9 0.7 2.8 0.4 0.2 0 1.1-0.4 1.1-0.4 1.3-0.3 0.1 0.1-0.1 0.3-0.2 0.3-0.6 0.7-0.4 0.3-0.7 0.6-0.3 0.2-0.4 0.3-0.9 0.4-1.9 0.7-1.1 0.2-2.1 0-1-0.2-1.8-0.7-0.9-0.7-1.3-1.8-1-3.6-0.9-6.9 0.2-3.3 0.9-6.5 0.6-3.4 2.2-6.7 1-2.6 3-5.3 2.1-2.8 4.7-5 2.7-2.3 5.5-3.8 3-1.6 5.6-1.7 0.3 0 0.7 0 0.4 0 0.4 0.2zm54.6 8.9q-0.8 3.8-2.6 7.6-1.8 3.8-3.4 7.1-0.1 0.2-0.5 0.7-0.3 0.4-0.4 0.4-0.3-0.1-0.3-0.5 0-0.6 0-0.8 0.1-0.9 0.3-2 0.2-1.2 0.4-2.5 0.2-1.3 0.4-2.4 0.3-1.3 0.6-2.2 0.8-3.3 1.4-5.5 0.6-2.4 0.9-4.3 0.2-1.9 0.2-3.6 0.1-1.7-0.1-3.7-0.1-0.8 0-1 0.2-0.1 0.5 0.2 0.3 0.3 0.5 0.6 1.6 2.6 2.2 5.7 0.6 3-0.1 6.2zm1.9-7l0.4 0.6q1.2 1.8 1.2 4.7 0 3-0.6 6.1-0.5 3.1-1.4 5.9-0.8 2.9-1.2 4.6-0.8 3.3-2.1 6.6-1.3 3.4-2.3 5.9-0.1 0.3-0.3 0.7-0.2 0.3-0.4 0.3-0.2 0-0.2-0.4 0-0.4 0-0.7-0.2-5.2 1.2-10.1 1.4-5.1 3-10.2 1-3.1 1.8-6.4 0.9-3.3 0.8-7.2 0-0.4 0.1-0.4zm-8.6-1q-5.8 2.4-9.8 6.8-4 4.4-6.2 9.9-1 2.5-1.4 4.5-0.5 1.9-0.8 4.1-0.1 0.5 0.3 1 0.4 0.5 0.7 0 1.8-2.1 4.4-5.3 2.7-3.3 5.3-6.9 2.7-3.6 4.8-7.3 2.2-3.7 2.7-6.8zm-6.3 32.2q-1.5 2-2.8 3.7-1.3 1.7-2.9 3-1.6 1.3-3.6 2-2 0.8-4.6 0.9-4.3 0.2-6.6-2.2-2.1-2.4-3-5.8-0.9-3.4-0.7-7 0.3-3.7 1.1-6.1 1-3.3 2.5-6.3 1.5-3 3.1-5.4 1.7-2.5 3.4-4.2 1.8-1.8 3.5-2.7 0.1 0 0.4-0.2 0.4-0.2 0.4 0.1 0.1 0-0.1 0.3-0.2 0.2-0.4 0.4-4.9 5.2-7.9 11.6-2.8 6.5-3.2 13.3-0.1 1.7 0.1 3.7 0.3 2 0.9 3.8 0.8 1.7 2.1 3 1.4 1.1 3.6 1.1 1.8 0 3.4-0.6 1.5-0.6 2.8-1.6 1.3-1 2.4-2.2 1.1-1.2 2-2.2 1.9-2.4 3.5-5 0-1.9 0.2-3.7 0.3-1.8 0.8-3.6 0.2-1.3 0.4-2.1 0.3-0.8 0.5-1.5 0.3-0.8 0.5-1.5 0.3-0.9 0.7-2.2-1.5 2.7-3 5-1.4 2.3-3.1 4.5-1.7 2.1-3.5 4.2-1.7 2-3.8 4.1-1.6 1.6-2.6 1-1.1-0.6-1.3-2.7-0.1-3.2 0.3-6.2 0.6-3.1 1.9-6.4 1.3-3 3.1-5.9 1.9-2.8 4.2-5.1 2.5-2.4 5.5-4 2.9-1.7 6.2-2.3 0.2-1 0.3-1.8 0.2-0.7 0.3-1.5 0.2-1 0.2-1 0.2-0.1 0.4 0.1 0.3 0.3 0.4 0.8 1.2 3.1 0.8 6.3-0.4 3.1-1.4 6.3-1 3.3-2.3 6.7-1.3 3.3-2.2 6.7-1.1 4.9-0.6 10.1 0.5 5.1 4 9.3 0.3 0.4 0.3 0.4-0.1 0.1-0.5-0.2-2.8-1.7-4.2-4.1-1.4-2.5-1.9-5.1zm3.3-33.6q0.2 0.1-0.1 0.2-0.2 0.1-0.9 0.3-1.3 0.4-3.1 1.5-1.7 1-3.7 2.6-1.9 1.6-3.8 3.8-1.9 2.1-3.3 4.6-1.4 2.5-2.5 5-0.9 2.5-1.6 4.6-0.6 2-0.9 3.5-0.2 1.4-0.2 2 0 1.4 0 3 0 1.5 0.3 2.8 0.4 1.2 1.4 1.9 0.9 0.6 2.8 0.4 0.1 0 0.5-0.1 0.4-0.2 0.7-0.3 0.4-0.2 0.7-0.3 0.4-0.1 0.5-0.1 0.1 0.2-0.2 0.5-0.2 0.3-0.6 0.6-0.4 0.3-0.7 0.6-0.3 0.3-0.4 0.4-2.4 1.4-4 0.8-1.6-0.5-2.6-2.1-0.8-1.6-1.2-3.7-0.3-2.1-0.2-3.9 0.2-3.3 1.1-6.5 0.8-3.3 2.1-6.7 1.1-2.5 3.2-5.2 2.1-2.7 4.6-5 2.7-2.3 5.5-3.7 2.9-1.5 5.6-1.6 0.9 0 1 0.1zm5.6 42.6q0.2 0.3 0.1 0.4-0.3 0-0.8-0.2-0.3-0.2-1.5-1.1-1.2-1-1.8-3.1-0.2-0.7-0.4-1.9-0.1-1.2-0.1-2.3 0-1 0.1-1.8 0.2-0.7 0.5-0.7 0.3 0 0.6 1.1 0.4 1.2 0.5 1.4 0.2 1.4 0.4 2.4 0.3 1 0.6 1.8 0.4 1.1 0.9 2.4 0.7 1.3 0.9 1.6zm36.2-42q0.1 0.1 0.1 0.5 0 0.3-0.1 0.5-0.9 2.7-2.9 3.9-2.1 1.1-3.7 1.1-2 0-4.1-0.3-2.1-0.4-4-1.8-0.2-0.2-0.5-0.4-0.3-0.2-0.3-0.3 0-0.3 0.3-0.4 0.3-0.2 0.5-0.3 0.8-0.2 2.2-0.3 1.4-0.2 2.7 0 1 0.2 2.3 0.2 1.3 0 2.7-0.2 1.4-0.2 2.5-0.6 1.2-0.4 1.7-1.3 0.3-0.4 0.6-0.3zm0.7-2.9l-0.3 0.5q-1.6 2-3.4 2.7-1.8 0.6-3.8 0.5-2-0.1-4.1-0.5-2-0.5-4-0.6-2.7-0.1-5.3 1.7-2.7 1.7-4.6 5.9-0.3 0.6-0.4 0.3-0.1-0.4 0-0.6 0.8-2.9 1.8-4.8 1.1-1.9 2.2-3 1.3-1.3 2.6-1.8 1.3-0.6 2.7-0.8 1.7-5.4 2.5-10.5 1-5.3 0.2-9.9 0-0.4 0-0.4 0.2-0.1 0.4 0.1 0.2 0.2 0.2 0.3 2.1 4.5 1.7 9.8-0.4 5.1-1.9 10.8 0.5 0.1 0.7 0.1 0.3 0 0.7 0 0.5-2.5 0.9-5.2 0.4-2.9 0.6-5.5 0.3-2.5 0.2-4.6-0.1-2.1-0.6-3.1-0.3-0.9 0-0.9 0.1 0 0.2 0.2 0.1 0.2 0.3 0.4 1.3 1.3 2.1 3.6 0.8 2.3 1.1 4.8 0.2 2.6 0.1 5.2-0.1 2.4-0.5 4.3l-0.4 1.5q0.3 0.2 0.6 0.2 0.2 0 0.5 0.1 0.6-2.8 1-5.7 0.5-2.8 0.4-6 0-0.6 0.1-0.6 0.1 0 0.2 0.3 0.1 0.3 0.2 0.4 1.2 2.1 1.1 5.3 0 3.1-0.5 6.6 2.1 0 4-1.1 0.5-0.3 0.5 0zm-19.7 6.4q0 0.5-0.6 1-0.4 0.5-0.7 0.7-0.5 0.3-1.2 0.9-0.5 0.5-1 1-0.5 0.8-1 1.4-0.3 0.5-0.6 1.6-0.1 0.2-0.3 0.4-0.1 0.1-0.2 0-0.3-0.3 0-1.3 0.4-1.4 0.8-2.2 0.3-1 1.4-2 0.4-0.4 0.9-0.8 0.6-0.4 1.2-0.7 0.5-0.2 0.9-0.2 0.4 0 0.4 0.2zm7.4 38.2q0.5-0.2 0.4 0.1-0.1 0.3-0.3 0.4-1.7 0.6-3.6-0.2-1.9-0.7-3.5-2.4-1.6-1.6-2.8-3.7-1.1-2.2-1.4-4.2-0.5-4.5-0.1-8.7 0.4-4.2 1.4-8.3l1.7-5.9q-0.6 0-1.2-0.3-0.7-0.2-0.7-0.5 0-0.2 0.7-0.6 2.7-1.3 5.3-1.1 2.8 0.2 5.5 0.7 1.7 0.2 3.5 0.4 1.8 0.1 3.9-0.7 0.1-0.2 0.3-0.1 0.2 0.2-0.1 0.6-0.5 1.3-1.6 1.8-1 0.6-2.2 0.9-0.7 2.5-1.3 4.5-0.6 1.9-0.9 3.2-1.1 4.6-2.5 9.3-1.3 4.7-1.8 7.9-0.2 1-0.4 1.1-0.2 0.1-0.4-0.3-0.2-0.5-0.3-0.8-0.3-2.8-0.2-5.7 0.3-3 1-6.2 0.7-3.1 1.5-6.3 0.9-3.2 1.8-6.4-0.4 0-0.9 0-0.5 0-1-0.1-0.7 2-1.6 4-0.8 1.9-1.5 3.6-0.1 0.2-0.5 0.9-0.3 0.7-0.5 0.7-0.3-0.1-0.2-0.8 0.1-0.9 0.1-1.2 0.1-1.4 0.5-3.3 0.5-1.9 0.9-4.1-0.5-0.1-1.1-0.1-0.5-0.1-1.1-0.3-0.6 1.9-1.2 3.7-0.4 1.8-0.9 3.6-0.8 3.4-1.1 7.2-0.4 3.7 0 7.7 0.2 1.8 0.9 3.7 0.9 1.9 2 3.4 1.1 1.5 2.6 2.4 1.5 0.8 2.9 0.5zm0.9-2.1q0.4-0.3 0.5 0 0.1 0.3-0.3 0.6-0.4 0.3-1.1 0.5-0.6 0.1-1.3 0-0.8-0.1-1.6-0.6-0.9-0.5-1.6-1.5-0.7-0.9-1.2-2.5-0.4-1.6-0.6-3.1-0.1-1.6-0.1-2.8 0.1-1.1 0.5-1.1 0.5 0 0.7 1.3 0.3 1.4 0.5 2.2 0.3 1.5 1 3.1 0.7 1.7 1.4 2.6 1 1.2 1.7 1.5 0.8 0.2 1.5-0.2zm22-28.7q0.3-1.3 0.3-2.9 0.1-1.6-0.2-3.3-0.3-1.7-1.1-3.3-0.6-1.6-1.8-2.7-0.5-0.4-0.6-0.4-0.4 0 0 0.6 0.5 1.2 0.3 3.9-0.1 2.5-0.5 5.4-0.5 2.7-1.1 5-0.5 2.2-0.5 2.7-0.7 1.7-1.3 4.3-0.5 2.5-0.5 4.1-0.1 0.2-0.1 0.8 0 0.6 0.3 0.7 0.1 0 0.4-0.5 0.3-0.5 0.5-0.7 1.7-3 3.2-6.6 1.6-3.6 2.7-7.1zm0.4 14.3q0.3-1.7 1.2-4.4 0.8-2.7 1.4-5.6 0.6-2.9 0.6-5.7 0-2.8-1.2-4.6-0.3-0.4-0.5-0.4-0.2 0-0.1 0.4 0 3.6-0.9 6.7-0.7 3.1-1.7 6-1.6 4.8-2.9 9.5-1.4 4.6-1.2 9.4 0 0.3 0 0.7 0.1 0.3 0.4 0.3 0.2 0 0.3-0.2 0.1-0.2 0.3-0.6 0.9-2.3 2.2-5.3 1.2-3.2 2.1-6.2zm-6.8 17q-1.8-1.9-2.7-4.2-1-2.4-1.4-4.7-0.4-2.5-0.2-5 0.2-2.4 0.8-4.6 0.8-3.4 2.2-6.9 1.3-3.4 2.3-6.7 0.9-3.4 1-6.7 0.2-3.3-1.3-6.4-0.3-0.5-0.4-0.5-0.1 0-0.1 0.2 0 0.1 0.1 0.2 0.3 2.8-0.4 5.9-0.6 3-1.7 6.2-1 3.2-2.4 6.6-1.2 3.3-2.1 6.8-0.6 2.6-0.9 5.3-0.2 2.6 0.4 5.3 0.5 2.6 2.1 4.9 1.5 2.4 4.3 4.4 0.2 0.2 0.5 0.3 0.3 0-0.1-0.4zm0.8-3.6q-0.3-0.8-0.7-1.9-0.3-1.1-0.5-2.2-0.2-0.4-0.4-1.4-0.3-1.1-0.5-1.1-0.4 0-0.6 0.7-0.1 0.7-0.1 1.7 0 1 0.1 2.1 0.2 1 0.5 1.8 0.6 1.9 1.3 2.7 0.9 0.7 2.2 1.2 0.6 0.3 0.9 0.3 0.1 0 0-0.1 0-0.2-0.1-0.2-0.7-0.8-1.3-1.6-0.4-0.9-0.8-2zm7.4-49.1q-0.5 0-1.5-0.1-1-0.2-1-1 0-0.3 0.9-0.6 0.8-0.5 1.9-1.3 1-0.8 1.9-2.1 0.8-1.3 0.8-3.3 0-2.5-0.9-3.7-0.2-0.3-0.5-0.6-0.3-0.3-0.2-0.4 0.2 0 0.4 0.2 0.3 0.1 0.4 0.1 1.9 1.1 2.8 2.8 1.1 1.6 1.1 3.1 0 3.1-1.5 5-1.4 1.9-4.6 1.9zm-3.5-3.8q-1.2 0.5-1.2-0.6 0-0.8 0.6-1.4 0.6-0.8 1-1.6 0.6-0.9 0.8-1.9 0.2-1.2-0.6-2.8-0.2-0.5-0.6-1-0.5-0.6-0.3-0.7 0.2-0.1 0.7 0.2 0.7 0.2 0.9 0.3 1.6 0.7 2.4 2.3 0.8 1.5 0.8 2.6 0 1.8-1.5 3.1-1.4 1.1-3 1.5zm-2.8-5.2q0-0.4 0.3-1 0.3-0.7 0.9-0.7 0.5 0 0.8 0.7 0.3 0.6 0.3 1 0 0.4-0.3 1.1-0.3 0.6-0.8 0.6-0.6 0-0.9-0.6-0.3-0.6-0.3-1.1zm39.7 35.4q0.3-2.6 0.1-5.4-0.2-2.9-1.2-5.3-1-2.4-3.1-4-2-1.7-5.3-1.7-4.4 0-7.8 2.5-3.3 2.4-5.7 6-2.3 3.5-3.7 7.6-1.3 4-1.7 7.3-0.6 4.6-0.2 7.9 0.5 3.3 1.6 5.5 1.2 2.1 2.9 3.1 1.8 1.1 3.9 1.1 2.9 0.1 6.2-1.6 3.3-1.8 6.1-5 2.9-3.2 5-7.8 2.2-4.6 2.9-10.2zm-30.6 6.5q0.4-3.8 1.9-8.3 1.5-4.6 4.2-8.5 2.8-3.9 6.6-6.4 3.8-2.7 8.8-2.7 3.8 0 6.3 1.8 2.4 1.8 3.8 4.7 1.3 2.7 1.7 6 0.4 3.3 0 6.2-0.9 6.9-3.3 11.9-2.5 5-5.8 8.5-3.4 3.3-7.1 5-3.7 1.6-7.1 1.6-2.6 0-4.7-1.1-1.9-1.2-3.4-3.6-1.3-2.4-1.9-6.1-0.4-3.8 0-9zm10.7 13.4q-0.5 0-1-0.2-0.5-0.4-0.7-0.9-0.3-0.5-0.4-1-0.1-0.4 0.4-0.6 0.2-0.1 0.7 0.6 0.5 0.8 1.1 0.8 0.9 0 2.1-1.2 1.4-1.3 2.5-2.9 1.3-1.7 2.1-3.3 1-1.6 1.3-2.4 0.4-0.7 0.8-1.9 0.4-1.2 0.7-2.4 0.3-1.3 0.5-2.4 0.3-1.3 0.4-2.1 0.5-4.3-0.2-6.6-0.6-2.3-2.2-2.3-1.1 0-2.3 0.7-1.3 0.7-2.4 1.8-1.1 1.2-1.9 2.6-0.9 1.3-1.2 2.7-0.5 1.7-0.7 1.7-0.3 0-0.3-1.7 0.3-1.8 1.2-3.5 1-1.8 2.4-3.1 1.4-1.4 3.1-2.3 1.8-0.9 3.6-0.9 1.8 0 2.6 1.3 1 1.2 1.4 3.1 0.3 1.8 0.2 3.8 0 1.9-0.1 3.1-0.4 2.5-1.3 5-0.7 2.4-1.9 4.8-0.6 1.2-1.7 2.9-1.1 1.6-2.7 3.1-1.4 1.6-3.1 2.7-1.6 1-3 1zm3 1.8q0.1 0.6-0.9 1-1 0.4-2 0.4-3-0.1-4.6-1.9-1.5-1.8-2.2-4.3-0.6-2.5-0.6-5.1 0.1-2.7 0.3-4.5 0.4-3.1 1.6-7 1.1-3.9 3.2-7.3 2.1-3.5 5.1-5.7 3.1-2.4 7.2-2.4 2.8 0 4.4 1.4 1.7 1.4 2.5 3.5 0.8 2.1 0.9 4.6 0.2 2.4-0.1 4.4-0.2 2.1-0.6 3.9-0.5 1.8-1.4 4-0.3 0.7-0.7 1.6-0.5 0.8-1.1 0.7-0.3-0.1-0.2-0.7 0.2-0.7 0.4-1.7 0.3-1 0.6-2.1 0.3-1.1 0.4-2 0.2-1.7 0.2-4 0.1-2.5-0.4-4.8-0.4-2.3-1.5-3.9-1.2-1.6-3.5-1.6-3.3 0-6.1 2.2-2.8 2.1-4.9 5.2-2.1 3.1-3.4 6.5-1.2 3.3-1.5 5.9-0.2 1.5-0.1 3.8 0.1 2.2 0.6 4.5 0.7 2.2 2.1 3.8 1.5 1.6 3.9 1.7 0.8 0.1 1.5-0.1 0.7-0.2 0.9 0zm53.4-29.5q0.2 2.9-0.3 5.7-0.6 2.7-1.5 4.9-0.2 0.5-0.6 1.1-0.4 0.6-0.8 0.4-0.2 0-0.1-0.7 0.1-0.7 0.1-1 0.1-1 0.1-2.5 0.1-1.6 0.1-3.2 0-1.7-0.2-3.1-0.1-1.5-0.4-2.6-0.8-3-2.7-3.3-1.8-0.4-3.7 1-1.9 1.3-3.6 3.7-1.7 2.4-2.3 4.6 0.6-0.8 1.4-2 1-1.2 2.1-2.2 1.1-1.2 2.4-1.8 1.3-0.8 2.4-0.7 1.3 0.1 1.8 1.3 0.5 1.3 0.6 3.1 0.1 1.8-0.2 3.9-0.3 2-0.6 3.8-0.7 3-1.2 6.1-0.5 3.2-0.4 6.2 0.2 2.9 1.1 5.8 0.9 2.8 3.1 5.1 0.2 0.3 0.3 0.5 0.1 0.2-0.5-0.1-2.4-1.4-4-3.3-1.4-1.9-2.1-4.1-0.8-2.2-1-4.6-0.1-2.3 0.1-4.7 0.4-3.4 1.1-6 0.8-2.6 1.2-5.8 0.2-2-0.3-2.6-0.5-0.6-1.1-0.7-1-0.1-2.2 1-1.2 1.1-2.5 3.1-1.2 2-2.5 4.6-1.1 2.7-2 5.6-0.7 3-1.9 6.2-1 3.1-2 5.4-0.3 0.9-0.5 0.9-0.2 0-0.4-0.4-0.1-0.4-0.1-0.6-0.4-4.7 0.8-9.4 1.3-4.6 2.9-9.4 1-2.9 1.7-5.2 0.8-2.3 0.8-5.8 0-1.5 0.7-3.1 0.8-1.8 2.2-3.1 1.5-1.4 3.7-2.3 2.2-0.8 5-0.7 4.5 0.1 7 2.2 2.5 2 3.4 5.1 1.1 3.1 0.9 6.8-0.1 3.6-0.8 7.1-0.6 2.5-1.3 4.6-0.8 2.1-1.6 3.9-0.9 1.8-1.7 3.4-0.7 1.6-1.2 3.3-0.1 0.2-0.2 0.6-0.1 0.3-0.3 0.3-0.2 0-0.2-0.4-0.1-0.3-0.1-0.8-0.2-3.3 0.6-6.2 0.9-3 1.8-6.2 1-3.2 1.4-6.7 0.5-3.5-0.3-7.8-0.9-4.6-4.2-6.1-3.3-1.5-7.6 0.2-0.6 0.3-1.5 0.9-1 0.5-1.9 1.5-0.9 0.9-1.6 2.3-0.8 1.2-1 2.7 1.1-1.7 2.7-3.2 1.5-1.5 3.2-2.4 1.7-0.9 3.4-1.1 1.8-0.2 3.5 0.6 2 1.1 2.8 3 0.7 1.8 0.8 3.4zm-19.3 2.6q-1.1 3.6-2.9 7.1-1.7 3.5-2.8 6.7-0.1 0.2-0.4 0.8-0.2 0.5-0.6 0.4-0.2-0.1-0.3-0.6 0-0.6 0-0.9 0-1.5 0.5-3.9 0.6-2.6 1.1-4.2 0.2-0.6 0.7-2.9 0.6-2.3 1-5.1 0.4-2.8 0.5-5.3 0.2-2.6-0.5-3.7-0.3-0.7 0-0.7 0.3 0 0.8 0.5 1.2 1 1.8 2.5 0.8 1.6 1.1 3.3 0.3 1.6 0.2 3.2 0 1.6-0.2 2.8zm19.3 31.4q-0.2 0.1-0.7-0.1-0.3-0.1-0.5-0.2-1.3-0.8-2.3-1.9-0.9-1.1-1.9-3.8-0.3-0.9-0.5-2.4 0-1.5 0-2.9 0.1-1.4 0.3-2.4 0.3-1 0.8-1 0.2 0 0.4 1.1 0.3 1.1 0.4 2.5 0.3 1.4 0.6 2.8 0.3 1.5 0.5 2.1 0.5 1.5 0.9 2.9 0.5 1.4 1.6 2.5 0.2 0.1 0.3 0.5 0.2 0.3 0.1 0.3zm-25.6 0.2q-3-2-4.6-4.4-1.5-2.3-2.1-4.9-0.5-2.6-0.4-5.2 0.2-2.7 0.7-5.3 0.8-3.4 1.9-6.7 1.3-3.4 2.3-6.6 1.1-3.2 1.7-6.2 0.7-3.1 0.2-5.8 0-0.4 0.1-0.4 0.2 0 0.5 0.5 1.7 3 1.6 6.2-0.1 3.3-1.1 6.7-0.9 3.3-2.3 6.8-1.4 3.4-2.1 7-0.5 2.1-0.7 4.6-0.1 2.4 0.4 4.8 0.5 2.3 1.5 4.6 1.2 2.3 3.1 4.1 0.3 0.2 0.1 0.4-0.1 0.2-0.4 0.1-0.2-0.2-0.4-0.3zm3.6 0.4q-0.3 0.2-0.8-0.3-1-0.8-2-1.6-1-0.9-2-2.8-0.3-0.6-0.5-1.7-0.2-1-0.2-2 0-1 0.1-1.7 0.2-0.7 0.5-0.7 0.3 0.1 0.5 1.1 0.3 0.9 0.5 1.2 0.4 1.1 0.7 2 0.3 0.9 0.6 1.7 0.6 1.4 1.2 2.3 0.5 1 1.3 1.9 0.1 0.1 0.2 0.3 0.1 0.2-0.1 0.3zm40.2 1.4q-0.4 0-1.5-0.1-0.9-0.2-0.9-0.9 0-0.3 0.8-0.7 0.9-0.5 1.9-1.2 1.1-0.8 1.9-2 0.9-1.4 0.9-3.4 0-2.4-1-3.7-0.2-0.3-0.4-0.5-0.3-0.4-0.2-0.5 0.2 0 0.3 0.2 0.3 0.1 0.4 0.2 1.9 1 2.9 2.7 1 1.6 1 3.2 0 3-1.4 4.9-1.4 1.8-4.7 1.8zm-3.5-3.7q-1.1 0.5-1.1-0.6 0-0.7 0.6-1.4 0.5-0.8 1-1.6 0.6-0.9 0.8-1.9 0.1-1.2-0.6-2.8-0.2-0.4-0.7-1-0.5-0.6-0.3-0.7 0.2-0.1 0.8 0.2 0.7 0.2 0.9 0.3 1.6 0.8 2.3 2.3 0.9 1.5 0.9 2.6 0 1.8-1.5 3.1-1.5 1.1-3.1 1.5zm-2.7-5.1q0-0.5 0.3-1.1 0.2-0.6 0.9-0.6 0.5 0 0.8 0.6 0.2 0.6 0.2 1.1 0 0.3-0.2 1-0.3 0.6-0.8 0.6-0.7 0-0.9-0.6-0.3-0.6-0.3-1zm31.7-13q0.3-2.4 1.2-4.8 0.9-2.5 2.2-4.5 1.2-2.1 2.7-3.4 1.6-1.4 3.3-1.9 2.2-0.5 3.2-0.2 1.1 0.3 1.3 0.9 0.3 0.8 0 1.7-0.3 0.8-0.8 1.5-0.5 0.7-1.2 1.2-0.5 0.5-0.9 0.6-0.5 0.2-0.4 0.5 0.2 0.3 1 0.1 0.8-0.1 1.7-0.7 0.8-0.5 1.5-1.4 0.7-0.9 1.1-1.8 0.4-1.1 0.3-2.1-0.2-1-1-1.8-0.8-0.8-1.9-1.1-1.2-0.4-2.6-0.4-1.4 0-2.7 0.5-2.4 0.9-4.3 2.8-1.8 1.8-3.3 4.3-1.3 2.4-2.1 5.2-0.9 2.8-1.5 5.6-0.7 3.5-0.4 6.9 0.2 3.4 2.1 5.3 1 0.9 2.5 1.3 1.5 0.4 3.2 0.4 1.7-0.1 3.5-0.7 1.8-0.6 3.3-1.5 0.4-0.2 0.6-0.4 0.2-0.2 0-0.3 0-0.1-0.7 0.1-4.7 1.2-7.2 1-2.6-0.2-3.7-1.7-1.1-1.6-1-4.3 0.2-2.9 1-6.9zm1.1 19.5q-3-0.2-5.8-1.9-2.7-1.8-3.8-4.4-1-2.8-1.3-5.3-0.3-2.5-0.1-4.9 0.4-4.9 1.9-9.9 1.6-5 4.9-9 2.1-2.5 4.2-4.1 2.1-1.7 5.5-2.7 1.7-0.4 3.7-0.5 2-0.1 3.9 0.4 2 0.5 3.7 1.8 1.7 1.2 3.1 3.3 0.2 0.9 0.5 0.9 0.3-0.3 0-1-0.5-3.1-3.1-4.9-2.5-1.8-5.9-2.2-3.3-0.5-6.9 0.3-3.6 0.8-6.4 3.1-3.7 2.9-6.3 6.8-2.4 3.8-3.9 8.1-1.4 4.3-1.7 8.8-0.3 4.6 0.7 9 0.6 2.8 1.9 4.6 1.4 1.7 3.2 2.8 1.8 0.9 3.9 1.2 2.1 0.3 4.2 0.2 0.6 0 0.7-0.1 0.2-0.1 0.2-0.2 0-0.2-1-0.2zm-7.4-22.9q0 0.1-0.1 0.5 0 0.4-0.1 0.8 0 0.3 0 0.7 0 0.3 0.2 0.3 0.2 0 0.6-0.9 0.4-1 0.4-1.1 2.5-5.7 5.9-10.1 0.3-0.2 1.2-1.2 0.8-1 2.2-2.1 1.5-1 3.5-1.8 2-0.7 4.4-0.5 2.6 0.3 4.2 1.9 1.6 1.7 1.2 3.8-0.4 2.1-1.6 3.6-1 1.4-2.1 1.9-0.7 0.2-0.4 0.3 0.3 0.1 0.5 0.1 1.2-0.1 2.4-0.8 1.3-0.9 2.3-2.1 0.9-1.3 1.3-3 0.4-1.6-0.3-3.5-0.7-2-2.1-3.1-1.5-1.2-3.2-1.7-1.7-0.6-3.5-0.6-1.7 0-2.9 0.3-3.7 0.9-6.1 2.7-2.5 1.9-4.1 4.3-1.5 2.4-2.4 5.3-0.8 2.9-1.4 6zm19.2 17.2q0.4-0.5 0.3-0.7 0-0.2-0.2-0.1-0.2 0-0.6 0.3-0.3 0.1-0.5 0.2-1.9 1.4-4.2 2.2-2.3 0.8-5.2 0.8-1.4 0-3.4-1-1.9-1-2.9-2.1-0.4-0.4-0.9-0.8-0.4-0.5-0.7-0.4-0.3 0.4 0 1.1 1.5 3.3 3.7 4.2 2.1 1 4.6 1 1.4 0 2.9-0.4 1.5-0.4 2.8-1 1.4-0.6 2.5-1.5 1.1-0.8 1.8-1.8zm36.9-20.2q0.3-2.6 0.1-5.4-0.2-2.9-1.2-5.3-1-2.4-3.1-4-2-1.7-5.3-1.7-4.4 0-7.8 2.5-3.3 2.4-5.7 6-2.3 3.5-3.7 7.6-1.3 4-1.7 7.3-0.6 4.6-0.2 7.9 0.5 3.3 1.6 5.5 1.2 2.1 2.9 3.1 1.8 1.1 3.9 1.1 2.9 0.1 6.2-1.6 3.3-1.8 6.1-5 2.9-3.2 5-7.8 2.2-4.6 2.9-10.2zm-30.6 6.5q0.4-3.8 1.9-8.3 1.6-4.6 4.2-8.5 2.8-3.9 6.6-6.4 3.8-2.7 8.8-2.7 3.8 0 6.3 1.8 2.4 1.8 3.8 4.7 1.3 2.7 1.7 6 0.4 3.3 0 6.2-0.9 6.9-3.3 11.9-2.5 5-5.8 8.5-3.4 3.3-7.1 5-3.7 1.6-7.1 1.6-2.6 0-4.6-1.1-2-1.2-3.5-3.6-1.3-2.4-1.9-6.1-0.4-3.8 0-9zm10.7 13.4q-0.5 0-1-0.2-0.5-0.4-0.7-0.9-0.3-0.5-0.4-1-0.1-0.4 0.4-0.6 0.2-0.1 0.7 0.6 0.5 0.8 1.1 0.8 0.9 0 2.2-1.2 1.3-1.3 2.4-2.9 1.3-1.7 2.1-3.3 1-1.6 1.3-2.4 0.4-0.7 0.8-1.9 0.4-1.2 0.7-2.4 0.3-1.3 0.5-2.4 0.3-1.3 0.4-2.1 0.5-4.3-0.2-6.6-0.6-2.3-2.2-2.3-1.1 0-2.3 0.7-1.3 0.7-2.4 1.8-1.1 1.2-1.9 2.6-0.9 1.3-1.2 2.7-0.5 1.7-0.7 1.7-0.3 0-0.3-1.7 0.3-1.8 1.2-3.5 1-1.8 2.4-3.1 1.4-1.4 3.2-2.3 1.7-0.9 3.5-0.9 1.8 0 2.6 1.3 1 1.2 1.4 3.1 0.3 1.8 0.2 3.8 0 1.9-0.1 3.1-0.4 2.5-1.3 5-0.7 2.4-1.9 4.8-0.6 1.2-1.7 2.9-1.1 1.6-2.7 3.1-1.4 1.6-3.1 2.7-1.6 1-3 1zm3 1.8q0.1 0.6-0.9 1-1 0.4-2 0.4-3-0.1-4.6-1.9-1.5-1.8-2.2-4.3-0.5-2.5-0.5-5.1 0-2.7 0.2-4.5 0.4-3.1 1.6-7 1.1-3.9 3.2-7.3 2.1-3.5 5.1-5.7 3.1-2.4 7.2-2.4 2.8 0 4.4 1.4 1.7 1.4 2.5 3.5 0.8 2.1 0.9 4.6 0.2 2.4-0.1 4.4-0.2 2.1-0.6 3.9-0.5 1.8-1.4 4-0.2 0.7-0.7 1.6-0.5 0.8-1.1 0.7-0.3-0.1-0.2-0.7 0.2-0.7 0.4-1.7 0.3-1 0.6-2.1 0.3-1.1 0.4-2 0.2-1.7 0.2-4 0.1-2.5-0.4-4.8-0.4-2.3-1.5-3.9-1.2-1.6-3.5-1.6-3.3 0-6.1 2.2-2.8 2.1-4.9 5.2-2.1 3.1-3.4 6.5-1.2 3.3-1.5 5.9-0.2 1.5-0.1 3.8 0.1 2.2 0.7 4.5 0.6 2.2 2 3.8 1.5 1.6 3.9 1.7 0.8 0.1 1.5-0.1 0.7-0.2 0.9 0zm46.5-19.4q-1.3 5.7-1.8 11.8-0.5 6.2 0.8 12 0.1 0.2-0.1 0.5-0.1 0.2-0.3-0.3-1.6-3.1-2.3-6.4-0.6-3.2-0.6-6.3 0-3.3 0.5-6.5 0.5-3.2 1.2-6.4 0.1-0.3 0.4-1.5 0.3-1.2 0.4-2.3 0.2-1.3 0-1.9-0.2-0.7-1.1 0-2.2 1.6-4.1 4-1.8 2.4-3 4.7-0.1 0.2-0.4 1.1-0.3 0.9-0.7 1.9-0.3 1.1-0.6 2.1-0.3 1-0.4 1.3-0.7 2.9-1.9 5.6-1.1 2.6-1.9 4.9-0.2 1-0.3 0.9-0.5 0-0.5-0.9-0.5-4.7 0.7-8.9 1.4-4.4 2.9-9 0.9-2.9 1.7-5.8 0.9-2.9 0.8-6.4-0.1-2.5 1.8-4.9 2-2.3 5.9-3.9 2.2-1 4.2-0.9 2 0.1 3.7 0.9 1.7 0.7 3.1 2.1 1.3 1.5 2.2 3.2 0.5-1.1 1.7-2.2 1.1-1.2 2.6-2.1 1.6-0.9 3.5-1.2 2-0.5 4.4-0.1 1.7 0.3 3 1.1 1.3 0.9 2.2 2 1.1 1 1.7 2.2 0.5 1.1 0.8 1.9 1.1 3.1 1.1 7 0.1 3.9-0.8 7-1.4 5.2-3.4 9.2-1.9 4-2.6 7.1-0.3 1-0.4 1-0.3 0-0.4-0.3 0-0.4-0.1-0.8-0.2-2 0.4-5 0.8-3.2 1.7-6.7 1-3.6 1.8-7.3 0.7-3.7 0.6-6.8-0.1-3.3-1.4-5.6-1.3-2.4-4.6-3.3-2.5-0.6-4.5 0-1.9 0.6-3.3 1.4-1.9 1.3-2.5 2.8-0.6 1.4-0.6 2.8 1.6-3 4.3-4.7 2.6-1.8 6.3-0.7 2.3 0.8 3.3 2.9 1 2.1 1.1 4.6 0.1 2.6-0.5 5.2-0.6 2.5-1.5 4.2-0.1 0.2-0.4 1-0.4 0.7-0.9 0.6-0.1 0-0.1-0.8 0.1-0.8 0.1-1.1 0.3-1.2 0.4-2.7 0.1-1.5 0-3.1 0-1.6-0.2-3.2-0.2-1.5-0.6-2.5-0.5-1.4-1.5-1.7-1-0.5-2.1-0.3-1.1 0.2-2.3 0.7-1 0.6-1.8 1.3-2.1 1.8-2.5 3.3-0.5 1.4-0.8 3.3 1.1-1.9 2.8-3.5 1.7-1.7 3.3-2.7 0.8-0.4 1.4-0.3 0.7 0.1 1 0.5 0.5 0.4 0.7 1.1 0.2 0.6 0.3 1 0.3 3.2-0.3 5.5-0.5 2.4-1.2 5-0.7 2.4-1.2 5.6-0.3 3 0.2 7.6 0.5 3.3 2 6 1.5 2.6 3.8 3.3 0.7 0.2 0.3 0.3-0.3 0.1-0.5 0.1-1.7-0.2-3.2-1.4-1.5-1.1-2.8-2.8-1.1-1.7-1.9-3.8-0.7-2.1-0.8-4.2-0.3-4.3 0.5-8.1 0.8-3.9 1.6-6.6 0.2-0.8 0.4-1.9 0.2-1.2 0.2-2.1 0-0.9-0.6-1-0.6-0.1-1.9 1.1-1.9 1.7-3.3 3.7-1.5 2-2.1 4.5-2.2 7.8-6.3 15.1-0.2 0.3-0.5 0.7-0.3 0.3-0.4 0.2-0.1 0-0.1-0.5 0.1-0.4 0.2-0.9 0.6-3.3 1.5-6.5 0.8-3.1 1.6-6.3 0.8-3.4 1.4-6.8 0.7-3.5 0.8-7.5-0.2-1.3-0.6-2.7-0.3-1.5-1.9-3.4-1.9-2.1-4.5-2.1-2.5-0.1-4.2 0.4-1 0.3-2.2 1.1-1.2 0.7-2.2 1.8-1 1-1.6 2.4-0.6 1.4-0.3 3 1-1.9 2.4-3.7 1.4-1.8 3.6-2.8 0.6-0.3 1.7-0.4 1-0.3 2.2-0.3 1.1-0.1 2.2 0.3 1.2 0.3 2 1.4 1.6 1.9 1.7 3.4 0.1 1.5 0 3-0.1 2.8-0.8 5.3-0.7 2.3-1.7 4.5-0.1 0.3-0.5 1-0.4 0.5-0.6 0.5-0.2 0-0.2-0.7 0-0.8 0.1-1.1 0.1-1 0.3-3 0.2-2.1 0.2-4.3 0.1-2.3-0.2-4.1-0.3-1.9-1.2-2.6-0.9-0.7-2.6-0.4-1.7 0.3-3 1.3-1.3 1.1-2.3 2-0.8 1-1.4 2-0.6 1-1.1 2.2-0.3 1.1-0.6 2.8 1.1-2.2 2.6-4.1 1.6-1.9 3.7-3.3 1.6-1 2.4-0.8 0.9 0.2 1.2 1 0.3 0.9 0.2 2.2 0 1.4-0.1 2.5-0.1 1.5-0.4 3.1-0.3 1.6-0.7 3.1zm27.2 24.2q0 0-0.5 0-0.2 0-0.5-0.1-1.3-0.3-2.8-1.1-1.5-1-2.6-3.5-0.4-0.9-0.6-2.4-0.2-1.6-0.2-3 0-1.4 0.2-2.4 0.2-1.1 0.6-1 0.1 0 0.2 0.5 0.2 0.4 0.3 0.9 0.1 0.6 0.2 1.2 0.1 0.5 0.1 0.8 0.2 1.4 0.4 2.7 0.3 1.2 0.8 2.3 0.5 1.4 1.7 3 1.3 1.5 2.4 1.7 0.5 0.2 0.3 0.4zm-25.6-0.2q0.2 0.7 0 0.7-0.5 0-0.7-0.5-0.5-0.6-1-1.6-0.5-1.2-0.4-3.8 0-1.1 0.2-2.5 0.2-1.5 0.4-2.7 0.3-1.4 0.6-2.2 0.3-0.9 0.6-0.8 0.1 0 0.1 0.5 0.1 0.4 0.1 0.9 0.1 0.6 0.1 1.2 0 0.4 0 0.6 0 1.6-0.1 2.8-0.1 1.1-0.1 2.5 0 1.8 0 3 0 1.2 0.2 1.9zm-14-31.5q-1.1 3.6-2.9 7.1-1.7 3.5-2.8 6.7-0.1 0.2-0.4 0.8-0.2 0.5-0.6 0.4-0.2-0.1-0.3-0.6 0-0.6 0-0.9 0-1.5 0.5-3.9 0.6-2.6 1.1-4.2 0.2-0.6 0.7-2.9 0.6-2.3 1-5.1 0.4-2.8 0.5-5.3 0.2-2.6-0.5-3.7-0.3-0.7 0-0.7 0.3 0 0.8 0.5 1.1 1 1.8 2.5 0.8 1.6 1.1 3.3 0.3 1.6 0.2 3.2 0 1.6-0.2 2.8zm-6.3 31.6q-3-2-4.6-4.4-1.5-2.3-2.1-4.9-0.5-2.6-0.4-5.2 0.2-2.7 0.7-5.3 0.8-3.4 1.9-6.7 1.3-3.4 2.3-6.6 1.1-3.2 1.7-6.2 0.7-3.1 0.2-5.8 0-0.4 0.1-0.4 0.2 0 0.5 0.5 1.7 3 1.6 6.2-0.1 3.3-1.1 6.7-0.9 3.3-2.3 6.8-1.4 3.4-2.1 7-0.5 2.1-0.7 4.6-0.1 2.4 0.4 4.8 0.5 2.3 1.5 4.6 1.2 2.3 3.1 4.1 0.3 0.2 0.1 0.4-0.1 0.2-0.4 0.1-0.2-0.2-0.4-0.3zm3.6 0.4q-0.3 0.2-0.8-0.3-1-0.8-2.1-1.6-0.9-0.9-1.9-2.8-0.3-0.6-0.5-1.7-0.2-1-0.2-2 0-1 0.1-1.7 0.2-0.7 0.5-0.7 0.3 0.1 0.5 1.1 0.3 0.9 0.5 1.2 0.4 1.1 0.7 2 0.3 0.9 0.6 1.7 0.6 1.4 1.2 2.3 0.5 1 1.3 1.9 0.1 0.1 0.2 0.3 0.1 0.2-0.1 0.3z"/>
</svg>