<svg version="1.2" xmlns="http://www.w3.org/2000/svg" viewBox="0 0 500 100" width="500" height="100">
	<style>
		.s0 { fill: #ffffff } 
	</style>
	<path id="Gemdation.com" class="s0" aria-label="Gemdation.com"  d="m41.2 67.6h-7.4v-1.2h6.3v-5.7h1.1zm-5.7-25l-9.8 9.9-0.8-0.8 9.8-9.9zm7.1 26.3v-15.7h-15.7l11.1-11.1q-4.5-4.6-11.1-4.6-3.2 0-6.1 1.3-2.8 1.2-5 3.4-2.1 2.1-3.4 5-1.2 2.8-1.2 6 0 3.3 1.2 6.2 1.2 2.8 3.3 5 2.2 2.1 5.1 3.4 2.8 1.1 6.1 1.1zm2.4 2.4h-18.1q-4.6 0-8.5-2.1-3.8-2.1-6.4-5.7-3.8-2.6-5.8-6.5-2.1-3.8-2.1-8.5 0-3.7 1.5-6.9 1.4-3.3 3.8-5.8 2.5-2.5 5.8-3.9 3.3-1.4 7-1.4 7.6 0 14.5 6.9l-0.5 0.5q1.3 0.7 2.6 1.8 1.3 1.1 2.6 2.4l-4.1 4h3v4.8h4.7zm30.1-3.7h-7.4v-1.2h6.3v-5.8h1.1zm0-19.5h-7.4v-1.2h6.3v-5.7h1.1zm1.4 20.9v-11.8h-10.4v-1.5h4.9v-4.9h-4.9v-1.5h10.4v-11.7h-23.6v31.4zm2.4 2.3h-28.3v-4.6h-4.7v-36.2h28.3v4.7h4.7v16.5h-4.7v3.2h4.7zm41.2-3.8h-7.5v-1.1h6.3v-5.8h1.2zm1.3 1.4v-31.4l-15.7 15.6-15.8-15.6v31.4zm2.4 2.3h-36.2v-4.7h-4.7v-39.5l18.1 18.1 18.1-18.1v9.4l4.7-4.6zm39.4-18.1h1.1q0 2.9-1.1 5.5-1.2 2.6-3.1 4.6-1.9 2-4.6 3.2-2.6 1.2-5.5 1.2v-1.2q2.5 0 4.8-1.1 2.4-1.1 4.2-2.9 1.9-1.9 3-4.3 1.2-2.4 1.2-5zm-11.3 0q0 0.8-0.5 1.4-0.6 0.6-1.4 0.6-0.9 0-1.4-0.6-0.6-0.6-0.6-1.4 0-0.8 0.6-1.4 0.5-0.6 1.4-0.6 0.8 0 1.4 0.6 0.5 0.6 0.5 1.4zm13.8 0q0-3.3-1.3-6.1-1.2-2.9-3.3-5-2.1-2.1-5-3.3-2.8-1.3-6.1-1.3h-15.7v31.4h15.7q3.3 0 6.1-1.2 2.9-1.3 5-3.4 2.1-2.2 3.3-5 1.3-2.9 1.3-6.1zm2.4 0q0 3.7-1.5 7-1.4 3.3-3.8 5.8-2.5 2.4-5.8 3.8-3.3 1.5-7 1.5h-18.1v-4.7h-4.7v-36.2h18.1q4.6 0 8.5 2.1 3.8 2 6.4 5.8 3.8 2.5 5.8 6.4 2.1 3.9 2.1 8.5zm22 3.8q0 0.8-0.5 1.4-0.5 0.5-1.4 0.5-0.8 0-1.4-0.5-0.6-0.6-0.6-1.4 0-0.8 0.6-1.4 0.6-0.6 1.4-0.6 0.8 0 1.4 0.6 0.5 0.6 0.5 1.4zm11.2 10.2h-7.1v-1.2h5.2l-2.6-5.2 1.1-0.5zm3.2 1.7l-15.7-31.4-15.7 31.4zm3.7 2.4h-39l2.4-4.7h-7.1l19.6-39.1 3.5 7.1 1.1-2.4zm21.9-3.7h-7.5v-1.2h6.3v-5.7h1.2zm7.8-23.8h-6.4v-1.2h5.2v-2.9h1.2zm1.4 1.6v-7.9h-27.5v7.9h7.9v23.5h11.8v-23.5zm2.4 2.3h-7.9v23.6h-16.5v-4.7h-4.7v-18.9h-3.1v-4.7h-4.8v-12.6h32.3v4.7h4.7zm18.8 19.9h-7.5v-1.2h6.3v-5.8h1.2zm1.3 1.4v-31.4h-11.8v31.4zm2.4 2.3h-16.6v-4.7h-4.6v-36.1h16.4v4.7h4.8zm26.7-17.8q0 0.8-0.5 1.4-0.6 0.6-1.4 0.6-0.8 0-1.4-0.6-0.6-0.6-0.6-1.4 0-0.8 0.6-1.4 0.6-0.6 1.4-0.6 0.7 0 1.3 0.7 0.6 0.5 0.6 1.3zm11.2-0.3h1.2q0 2.9-1.1 5.5-1.2 2.6-3.1 4.6-1.9 2-4.6 3.2-2.6 1.2-5.5 1.2v-1.2q2.5 0 4.9-1.1 2.3-1.1 4.2-3 1.8-1.8 2.9-4.2 1.1-2.4 1.1-5zm2.6 0q0-3.3-1.3-6.1-1.2-2.9-3.3-5-2.1-2.1-5-3.3-2.8-1.3-6.1-1.3-3.2 0-6.1 1.3-2.8 1.2-5 3.4-2.1 2.1-3.4 5-1.2 2.8-1.2 6 0 3.3 1.2 6.2 1.2 2.8 3.3 5 2.2 2.1 5.1 3.3 2.8 1.2 6.1 1.2 3.3 0 6.1-1.2 2.9-1.3 5-3.4 2.1-2.2 3.3-5 1.3-2.9 1.3-6.1zm2.4 0q0 3.7-1.4 7-1.5 3.3-3.9 5.8-2.5 2.4-5.8 3.8-3.3 1.5-7 1.5-4.6 0-8.5-2-3.9-2.1-6.4-5.8-3.8-2.6-5.8-6.5-2.1-3.9-2.1-8.5 0-3.7 1.4-6.9 1.5-3.3 3.9-5.8 2.5-2.5 5.8-3.9 3.3-1.4 7-1.4 4.6 0 8.5 2 3.8 2 6.4 5.8 3.8 2.5 5.8 6.4 2.1 3.9 2.1 8.5zm36.8 14.4h-7.5v-1.2h6.3v-5.8h1.2zm1.2 1.4v-31.4h-7.9v19.6l-19.7-19.6v31.4zm2.4 2.3h-32.2v-4.7h-4.8v-39.5l19.7 19.7v-16.3h12.6v4.7h4.7zm19.1-7.8h1.1q0 3.2-2.9 4v-1.2q1.8-0.6 1.8-2.8zm2.8-0.4q0-1.2-0.5-2.3-0.4-1.1-1.2-1.9-0.8-0.8-1.9-1.3-1.1-0.5-2.3-0.5-1.2 0-2.3 0.5-1.1 0.5-1.9 1.3-0.8 0.8-1.2 1.9-0.5 1.1-0.5 2.3 0 1.2 0.5 2.2 0.4 1.1 1.2 1.9 0.8 0.8 1.9 1.3 1.1 0.4 2.3 0.4 1.2 0 2.3-0.4 1.1-0.5 1.9-1.3 0.8-0.8 1.2-1.9 0.5-1 0.5-2.2zm2.3 0q0 1.7-0.6 3.2-0.7 1.5-1.8 2.6-1.1 1.1-2.6 1.7-1.5 0.7-3.2 0.7-2.5 0-4.6-1.4-2.1-1.5-3.1-3.9-2.4-0.9-3.8-3-1.5-2.1-1.5-4.7 0-1.7 0.7-3.2 0.6-1.5 1.8-2.6 1.1-1.1 2.6-1.7 1.5-0.7 3.2-0.7 2.6 0 4.6 1.4 2.1 1.4 3.1 3.8 2.4 1 3.8 3.1 1.4 2.1 1.4 4.7zm20.3-8.8l12.9 6.7q-1 1.2-1.7 2-0.7 0.7-1.3 1.2-0.6 0.5-1.1 0.8-0.5 0.3-1.2 0.9l-0.6-1.1q1-0.6 1.9-1.4 1-0.9 2-2l-11.4-6zm1.1-1.1l14-7q-2-4.1-5.7-6.4-3.8-2.3-8.3-2.3-3.3 0-6.1 1.3-2.9 1.2-5.1 3.4-2.1 2.1-3.3 4.9-1.2 2.9-1.2 6.1 0 3.2 1.2 6.1 1.2 2.9 3.3 5.1 2.2 2.1 5 3.3 2.9 1.2 6.2 1.2 2.2 0 4.4-0.6 2.1-0.7 3.9-1.8 1.9-1.2 3.3-2.8 1.5-1.6 2.4-3.4zm17.3-6l-9.6 4.8 4.8 2.5q-0.2 0.4-0.5 0.9-0.2 0.4-0.4 0.9l5.7 2.8q-6.1 12.1-17.3 12.1-4.5 0-8.4-2-3.9-2.1-6.5-5.8-3.8-2.5-5.8-6.4-2.1-3.9-2.1-8.5 0-3.7 1.5-7 1.4-3.3 3.9-5.8 2.5-2.4 5.8-3.9 3.3-1.4 7-1.4 8.9 0 14.6 7.8 4.5 3.2 7.3 9zm25.7 6.3q0 0.8-0.6 1.4-0.6 0.5-1.4 0.5-0.8 0-1.4-0.5-0.6-0.6-0.6-1.4 0-0.9 0.6-1.4 0.6-0.6 1.4-0.6 0.8 0 1.4 0.6 0.6 0.6 0.6 1.4zm11.2-0.3h1.1q0 2.9-1.1 5.5-1.1 2.6-3.1 4.6-1.9 2-4.5 3.2-2.7 1.1-5.6 1.1v-1.2q2.5 0 4.9-1 2.4-1.2 4.2-3 1.8-1.8 2.9-4.2 1.2-2.5 1.2-5zm2.5 0q0-3.3-1.2-6.1-1.2-2.9-3.4-5-2.1-2.2-5-3.4-2.8-1.2-6.1-1.2-3.2 0-6.1 1.2-2.8 1.3-5 3.5-2.1 2.1-3.3 4.9-1.3 2.9-1.3 6.1 0 3.3 1.2 6.1 1.3 2.9 3.4 5 2.1 2.1 5 3.4 2.8 1.2 6.1 1.2 3.3 0 6.1-1.3 2.9-1.2 5-3.3 2.2-2.2 3.4-5 1.2-2.9 1.2-6.1zm2.4 0q0 3.7-1.4 7-1.4 3.3-3.9 5.7-2.4 2.5-5.7 3.9-3.4 1.4-7.1 1.4-4.6 0-8.5-2-3.8-2-6.4-5.8-3.8-2.5-5.8-6.4-2.1-3.9-2.1-8.5 0-3.7 1.5-7 1.4-3.3 3.8-5.7 2.6-2.5 5.8-4 3.3-1.4 7-1.4 4.6 0 8.5 2.1 3.9 2 6.4 5.7 3.8 2.6 5.9 6.5 2 3.8 2 8.5zm39 14.3h-7.5v-1.2h6.3v-5.7h1.2zm1.3 1.3v-31.4l-15.7 15.7-15.7-15.7v31.4zm2.4 2.4h-36.2v-4.7h-4.8v-39.5l18.1 18.1 18.1-18.1v9.4l4.8-4.7z"/>
</svg>