<svg version="1.2" xmlns="http://www.w3.org/2000/svg" viewBox="0 0 500 100" width="500" height="100">
	<style>
		.s0 { fill: #ffffff } 
	</style>
	<path id="Gemdation.com" class="s0" aria-label="Gemdation.com"  d="m40.5 52.7c0-6.1-2.6-9.2-8-9.2h-8.9c-2.6 0-3.9 1.7-3.9 5.3v2.6c0 3.5 1.3 5.2 3.9 5.2h4.7v3.2c0 2.8-0.9 4.4-2.9 4.4h-7.2c-2.4 0-3.6-2-3.6-6v-15.6c0-4 1.2-6 3.6-6h14.3c3.4 0 5-2.2 5-6.7v-3.4c0-4.4-1.6-6.7-5-6.7h-14.8c-12.4 0-15.4 6.8-15.4 22v17.1c0 15.3 3 22.1 15.4 22.1h9.3c10.4 0 13.5-6.8 13.5-19.9zm27.4-4.2c1 0 1.5 0.8 1.5 2.5 0 1.3-0.5 1.9-1.5 1.9h-10.6v-0.5c0-2.8 0.9-3.9 2.7-3.9zm-9.1-14.6c-10.5 0-13.5 5.4-13.5 17.9v12.2c0 11 3 17.1 15.1 17.1h13.2c3.3 0 4.9-2.1 4.9-6v-3c0-4-1.6-6-4.9-6h-12.7c-2.7 0-3.8-0.4-3.8-3.4 1.2 0.4 3 0.7 5.4 0.7h5.1c10.5 0 13.4-4.1 13.4-13.8 0-9.8-2.9-15.7-12.2-15.7zm32.8 0c-3.1 0-6 1.9-6 5.6v36.3c0 3.8 3 5.6 6 5.6 3.1 0 6-1.8 6-5.6v-26.9h9.7v26.9c0 3.8 3 5.6 6.1 5.6 3.1 0.1 6-1.8 6-5.6v-26.9h5.9c2.7 0 3.8 0.4 3.8 3.4v23.5c0 3.8 2.6 5.7 5.8 5.7 3.2 0 6.2-1.9 6.2-5.7v-24.9c0-10.9-3.2-17-15.3-17zm76.5 15v17.2h-7.2c-2.7 0-3.8-0.4-3.8-3.4v-10.4c0-3 1.1-3.4 3.8-3.4zm6-29.4c-3.1 0-6 1.9-6 5.6v8.8h-7.8c-12.1 0-15.1 6.1-15.1 17v13.2c0 10.9 3 17 15.1 17h13.8c3 0 6-2 6-6.1v-49.9c0-3.7-2.9-5.6-6-5.6zm23.7 47c-1 0-1.5-0.9-1.5-2.5 0-1.3 0.5-2 1.5-2h10.5v0.6c0 2.7-0.8 3.9-2.6 3.9zm9.1 14.6c10.5 0 13.5-5.4 13.5-17.9v-12.3c0-10.9-3-17-15.1-17h-13.2c-3.3 0-4.9 2-4.9 6v3c0 4 1.6 6 4.9 6h12.7c2.7 0 3.7 0.4 3.7 3.4-1.1-0.5-2.9-0.7-5.3-0.7h-5.1c-10.5 0-13.4 4.1-13.4 13.8 0 9.8 2.9 15.7 12.2 15.7zm26.7-57.4c-3 0-6 2-6 6.1v4.1h-2.2c-2.6 0-3.9 1.7-3.9 5.1v2.6c0 3.5 1.3 5.1 3.9 5.1h2.2v21.4c0 8.7 3 13.4 11.4 13.4h7.1c3.3 0 4.9-2.1 4.9-6v-1.2c0-3.9-1.6-6-4.9-6h-2.7c-2.5 0-3.7-0.3-3.7-3.1v-18.5h7.2c2.6 0 3.9-1.6 3.9-5.1v-2.6c0-3.4-1.3-5.1-3.9-5.1h-7.2v-4.1c0-4.1-3-6.1-6.1-6.1zm33 15.5c0-3.8-3-5.7-6-5.7-3.2 0-6.1 1.9-6.1 5.7v36.2c0 4 3 6.1 6 6.1 3.1 0 6.1-2.1 6.1-6.1zm-8.5-20.3c-2.4 0-3.6 2-3.6 6 0 3.9 1.2 6 3.6 6h5c2.4 0 3.6-2.1 3.6-6 0-4-1.2-6-3.6-6zm28.7 47.2c-2.7 0-3.7-0.4-3.7-3.4v-10.4c0-3 1-3.4 3.7-3.4h5.4c2.7 0 3.8 0.4 3.8 3.4v10.4c0 3-1.1 3.4-3.8 3.4zm5.9 15c12.1 0 15.1-6.1 15.1-17v-13.1c0-11-3-17.1-15.1-17.1h-6.3c-12.2 0-15.2 6.1-15.2 17.1v13.1c0 10.9 3 17 15.2 17zm25.8-47.2c-3.1 0-6 1.9-6 5.7v36.3c0 3.7 3 5.6 6.1 5.6 3.1 0 6-1.9 6-5.6v-27h7.3c2.7 0 3.7 0.4 3.7 3.4v23.6c0 3.7 2.6 5.6 5.9 5.6 3.1 0 6.2-1.9 6.2-5.6v-24.9c0-11-3.2-17.1-15.4-17.1zm33.4 41.2c0 4 1.2 6 3.6 6h5c2.4 0 3.6-2 3.6-6v-5.2c0-3.9-1.2-6-3.6-6h-5c-2.4 0-3.6 2.1-3.6 6zm31.4-41.1c-12.1 0-15.1 6-15.1 17v13.1c0 11 3 17 15.1 17h9.2c3.2 0 4.9-2 4.9-6v-3c0-3.9-1.7-6-4.9-6h-8.7c-2.7 0-3.8-0.3-3.8-3.3v-10.5c0-3 1.1-3.3 3.8-3.3h8.7c3.2 0 4.9-2.1 4.9-6v-3c0-4-1.7-6-4.9-6zm32.4 32.1c-2.7 0-3.7-0.3-3.7-3.3v-10.5c0-3 1-3.3 3.7-3.3h5.5c2.7 0 3.7 0.3 3.7 3.3v10.5c0 3-1 3.3-3.7 3.3zm5.8 15c12.2 0 15.2-6 15.2-17v-13.1c0-11-3-17-15.2-17h-6.3c-12.1 0-15.1 6-15.1 17v13.1c0 11 3 17 15.1 17zm25.8-47.1c-3 0-6 1.8-6 5.6v36.3c0 3.7 3 5.6 6.1 5.6 3.1 0 6-1.9 6-5.6v-26.9h9.7v26.9c0 3.7 3 5.6 6.1 5.6 3 0 6-1.9 6-5.6v-26.9h5.9c2.7 0 3.7 0.3 3.7 3.3v23.6c0 3.7 2.7 5.6 5.9 5.6 3.1 0 6.2-1.9 6.2-5.6v-24.9c0-11-3.2-17-15.4-17z"/>
</svg>