<svg version="1.2" xmlns="http://www.w3.org/2000/svg" viewBox="0 0 500 100" width="500" height="100">
	<style>
		.s0 { fill: #ffffff } 
	</style>
	<path id="Gemdation.com" class="s0" aria-label="Gemdation.com"  d="m36.2 77.1q0.7 0.4 1.4 0.3 0.8 0 1.5-0.2 0.8-0.2 1.5-0.3 0.8-0.1 1.5 0.2 0.7-0.7 0.9-2.1 0.3-1.3 1.1-2.8-1.2-0.8-2.3-0.4-1.1 0.4-2.1 1.3-1 0.9-1.9 2.1-0.9 1.2-1.6 1.9zm3.9-8.9l-2.9 4q-0.2 0.2-0.4 0.5-0.1 0.4 0 0.8 0 0.3 0.4 0.6 0.3-0.7 0.9-1.3 0.5-0.6 0.9-1.2 0.5-0.7 0.8-1.5 0.3-0.8 0.3-1.9zm-9.9-10l-2 3.1q1.5 0 2.5 0.1 1 0.2 2.5 0.8l2-2.8q-1.5 0-2.5-0.2-1-0.1-2.5-1zm2-6.8l-6 5q0.4 0.3 0.4 0.7 0.1 0.4 0 0.8-0.1 0.3-0.2 0.7-0.2 0.4-0.2 0.8 1.5-0.4 2.5-1.3 1-0.9 1.6-2 0.7-1.2 1.1-2.3 0.4-1.3 0.8-2.4zm-21.8-4l-3 4q-0.3 2.2-0.7 4.8-0.2 2.5 0 5 0.2 2.4 1 4.8 0.8 2.3 2.7 4.1 2.6 1.9 5.5 3.4 2.9 1.4 6 2 3.1 0.7 6.2 0.4 3.1-0.3 6.1-1.8l3.9-4.9q-0.7 1.5-1.8 2.2-1 0.6-2.3 1-1.1 0.3-2.4 0.7-1.3 0.3-2.4 1-2.3 0.4-4-0.3-1.7-0.8-3.3-1.9-1.5-1.1-3.1-2.2-1.6-1.1-3.5-1.5l-4.9-8.8q-1.4-6 0-12zm17.8-6.9q-0.7 0.4-1.6 1.1-0.9 0.7-1.7 1.6-0.7 0.7-1.2 1.7-0.5 0.8-0.5 1.5 0.8-0.7 1.7-1.1 0.9-0.4 1.9-0.7 0.9-0.3 1.8-0.5 0.9-0.2 1.6-0.5 1.1-0.4 2.3-0.4 1.3 0 2.4 0 1.1 0 2-0.2 0.9-0.4 1.2-1.5-0.7-0.7-1.9-0.9-1.3-0.3-2.7-0.3-1.4 0-2.8 0.1-1.3 0.1-2.5 0.1zm-10.9-4q-3.7 4.5-5.2 10.3-1.4 5.8-0.7 12.6l5 6.8q1.5 0.8 2.8 1.9 1.4 1.2 2.8 2.2 1.5 1 3.2 1.7 1.7 0.5 4 0.2 1.8 0.2 3-0.3 1.3-0.5 2.4-1.4 1-1 1.8-2.2 0.9-1.2 1.7-2.4 0.9-1.2 1.8-2.1 1-1.1 2.2-1.6 1.1 0.8 1 1.8-0.2 1.1-0.6 2.2-0.5 1.1-0.8 2.2-0.3 1 0.4 1.7 0.8 0.4 1.5 0.5 0.8 0.1 1.5 0 0.7-0.1 1.4-0.3 0.8-0.2 1.6-0.2l0.9-6.8q-1.1-1.5-1.1-3 0-1.5 0.4-2.9 0.4-1.5 0.7-3 0.4-1.5 0-3-1.8 0.4-3.5 0.3-1.7-0.1-3.4-0.4-1.6-0.3-3.4-0.6-1.7-0.3-3.5-0.3-0.8 0.4-1.2 1.1-0.4 0.7-0.7 1.5-0.2 0.8-0.5 1.7-0.2 0.9-0.6 1.7 0.7 0 0.9 0.1 0.1 0.1 0.1 0.8h4q1.1 0.8 0.9 1.6-0.2 0.7-0.9 1.4-0.8 0.7-1.7 1.5-0.9 0.7-1.3 1.5-0.8 0.7-1.7 1.4-0.9 0.7-1.9 1.1-1.1 0.4-2.2 0.3-1.1-0.1-2.2-0.8-1.1-0.4-2.3-0.8-1.2-0.5-2.3-1.2-1-0.8-1.7-1.9-0.6-1.3-0.6-3.2-0.3-1-0.3-2.1 0.1-1.1 0.3-2.1 0.2-1 0.3-1.9 0.1-0.9-0.3-1.7 1.1-1.1 1.6-2.4 0.5-1.2 0.9-2.4 0.4-1.2 0.9-2.2 0.5-1.1 1.6-1.9 1.5-1.1 3.4-2 2-0.9 4.1-1.2 2.2-0.4 4.3-0.1 2.2 0.2 4 1.4l4-5.1q-0.4-1.1-1.4-1.7-0.9-0.6-1.9-1.1-0.9-0.4-1.5-0.9-0.6-0.4-0.3-1.2-2.9-1.8-5.9-1.8-2.9 0-5.7 1.3-2.7 1.1-5.3 3.2-2.6 2-4.8 4.2zm21.7-7.8h2.1q0 0.7 0.5 1.3 0.5 0.6 1.2 1 0.8 0.5 1.6 0.9 0.9 0.3 1.7 0.7l0.9 0.9q-0.7 1.2-1.6 2.1-0.8 1-1.6 1.9-0.7 0.9-1.3 1.9-0.4 1-0.4 2.1-1.5-0.3-2.7 0.4-1.1 0.6-2.1 1.5-1.1 0.8-2 1.3-1 0.5-2.1-0.2-3 0-6 1.3-2.9 1.3-5.9 3.6 0 1.5-0.3 3-0.3 1.5-0.5 3-0.2 1.4-0.1 2.9 0.1 1.5 0.9 3 0.7 0.8 1.6 1.5 1 0.6 2.1 1.1 1.1 0.5 2.4 0.6 1.3 0.1 2.8-0.3l2-0.9q-1.5-0.8-3.5-0.8-1.9 0-3.4 0.8-0.8-0.8-0.8-1.7 0-0.9 0.2-1.8 0.2-1 0.3-1.8 0.1-0.9-0.7-1.6l9.9-8q0.7 0.7 1.5 0.9 0.7 0.1 1.5 0.1 3.7 0.7 7.2 0.7 3.6 0 6.6-0.7 0.4 1.9 0 3.6-0.4 1.7-0.8 3.4-0.3 1.6-0.3 3.3 0 1.7 1.1 3.6-0.7 1.1-0.9 2.6-0.1 1.5-0.5 2.9-0.2 1.4-1 2.4-0.7 1-2.5 1-0.8 0.7-1.1 1.6-0.2 0.9-0.6 1.8-0.2 0.9-0.7 1.8-0.5 0.9-1.6 1.7-1.2-0.8-2.7-0.6-1.5 0.2-2.9 0.3-1.4 0.1-2.3-0.3-1-0.5-1-2.3-1.5 1.1-3.1 1.4-1.7 0.2-3.3 0.1-1.7-0.1-3.3-0.3-1.6-0.3-3.1-0.3-2.3-1.1-4.6-2.3-2.3-1.1-4.4-2.6-2-1.5-3.6-3.4-1.6-2-2.3-4.6-1.5-4.8-0.7-8.9 0.9-4.1 2.9-7.8 2-3.8 4.7-7.2 2.7-3.4 4.9-6.8h1.1q2.2-1.8 4.7-3.3 2.6-1.6 5.3-2.4 2.6-0.8 5.4-0.7 2.7 0.1 5.2 1.6zm31.6 28.7q-1.1-0.3-1.4 0.1-0.3 0.4-0.2 1.2 0.1 0.8 0.4 1.8 0.2 0.9 0.2 1.5 1.4-0.3 3.1-0.4 1.7 0 3.4 0 1.7 0 3.4-0.1 1.7-0.1 3.1-0.4 0.7-1.4 1.3-2.3 0.8-0.9 1.5-2.3-3.5 0-7.4 0.4-3.9 0.5-7.4 0.5zm-12.1-5.6q-2.1 1.8-2.9 4.1-0.8 2.3-0.9 4.9-0.1 2.5 0.3 5 0.4 2.5 0.7 4.5 4.2 5.6 9.1 8.2 5 2.5 11.3 1.1 1.4-0.7 2.6-1.9 1.3-1.3 2.1-2.7-3.2 0.7-6.4 0.5-3.3-0.2-6.3-1.2-3-1-5.7-2.9-2.8-2-4.9-4.8-1-1.7-1.1-3.5-0.1-1.9 0.2-3.8 0.4-2 0.9-3.8 0.6-1.9 1-3.7zm11.1-2.7l1 1.8h1.8q-0.7-0.7-1.4-1.2-0.6-0.6-1.4-0.6zm1.9-1l1.8 1.9q0.7 0.3 1 0.3 0.2-0.2 0.3-0.5 0.1-0.4 0.2-0.8 0-0.5 0.4-0.9 0-0.6-0.6-1-0.6-0.4-1.3-0.4-0.7 0-1.3 0.4-0.5 0.4-0.5 1zm4.6-0.9v4.6q-1.1 0-2.1 0.3-1 0.2-2 0.4-0.9 0.2-1.8 0.2-0.8-0.2-1.5-0.9-0.4-1-0.2-2 0.1-1 0.5-1.9 0.4-0.9 1.1-1.5 0.6-0.7 1.4-1.1 0.7-0.3 1.5-0.3 0.8-0.1 1.5 0.2 0.7 0.2 1.1 0.8 0.5 0.5 0.5 1.2zm-8.3-5.6q-3.5 1.8-5.2 4.4-1.8 2.7-2.6 5.9-0.8 3.1-1 6.5-0.1 3.3-0.5 6.4 0.4 1.4 1.3 2.6 0.9 1.2 2.2 2.2 1.2 0.9 2.5 1.6 1.3 0.7 2.3 1 2.1 0.7 4.1 1.2 2.1 0.4 4.1 0.6 2.1 0 3.9-0.3 1.9-0.4 3.7-1.5 0.3-0.7 0.4-1.2 0-0.6-0.1-1.1-0.1-0.5-0.2-1.1-0.1-0.5-0.1-1.2-0.7 0.7-1.7 1-1 0.4-2.2 0.5-1.1 0.1-2.2-0.1-1.2-0.2-2.2-0.5-2.1-0.7-4-2.1-1.8-1.4-2.5-3.5 0-0.6-0.2-1.5-0.1-0.8-0.2-1.7-0.1-0.9 0-1.6 0-0.9 0.4-1.6 2.4 0 4.8-0.3 2.4-0.3 4.8-0.6 2.5-0.4 4.9-0.7 2.5-0.3 4.9-0.3-0.3-0.6-0.5-1.5-0.2-0.8-0.4-1.7-0.2-0.9-0.4-1.7-0.2-0.9-0.5-1.6-1.1-3.1-3.2-4.7-2.1-1.7-4.6-2.3-2.5-0.7-5.2-0.4-2.6 0.3-4.6 0.9zm14.8 0q1.7 1.4 2.6 3.1 1 1.7 1.6 3.5 0.7 1.9 1.1 3.7 0.5 1.9 1.2 3.6 0 0.4-0.2 0.6-0.1 0.1-0.3 0.3-0.2 0.1-0.4 0.1-1.4 0.7-2.2 1.9-0.9 1.2-1.7 2.3-0.7 1-1.8 1.5-1 0.5-2.7-0.2-2.1 0.7-4.8 0.9-2.6 0-5.4 0 0 1.1 0.5 1.7 0.5 0.6 1.1 1.1 0.7 0.3 1.5 0.8 0.8 0.4 1.6 1.1 1 0 2.2 0.1 1.1 0.1 2.2 0 1.2-0.1 2.2-0.5 1-0.4 1.7-1.5 0.7 0 0.9 0.2 0.2 0.1 0.3 0.4 0.1 0.3 0.2 0.6 0.1 0.3 0.5 0.7-0.4 1-0.2 2.2 0.2 1.1 0.2 2.2 0.2 1-0.2 1.8-0.4 0.8-1.7 1.2-1.4 2.1-2.8 3.6-1.4 1.5-2.7 2.9-3.2 0.7-6.2 0.3-2.9-0.5-5.6-1.7-2.7-1.2-5.1-3.1-2.4-1.8-4.5-3.9-1-1.7-1.5-3.6-0.4-1.9-0.5-3.8 0-2.1 0-4.1 0.1-2.1 0.1-4.2 1.5-3.5 4-7.4 2.5-3.9 5.3-7.4 0.7 0.3 1.2 0.2 0.6-0.2 1-0.5 0.4-0.3 0.8-0.8 0.4-0.5 0.7-0.8 1.8-0.7 3.8-1 2-0.4 4.1-0.2 2.1 0 4.1 0.5 2 0.6 3.8 1.6zm19.9 31.1q-1.3 0.7-2.2 1.1-0.8 0.4-2-0.2-0.6 0-1.1 0.2-0.5 0.2-1 0.4-0.5 0.2-1 0.1-0.5-0.1-1.1-0.7l-0.8 2.6q1.2-0.3 2.7-0.3 1.5 0 2.8-0.2 1.3-0.2 2.3-0.7 1.1-0.7 1.4-2.3zm28.3 1.7q0.6-0.3 1.4-0.1 1 0.2 1.9 0.3 0.9 0 1.8-0.2 0.9-0.4 1.5-1.7-0.9 0-2.1-0.2-1.1-0.2-2.1-0.2-1 0-1.7 0.5-0.7 0.4-0.7 1.6zm-10-13.4q-1.3 0-2 0.6-0.7 0.5-1.3 1.1 0.6 0 1.2 0.2 0.6 0.1 1.2 0.1 0.6 0 1.3-0.2 0.7-0.3 1.2-0.9-0.5-0.7-0.7-0.7-0.2-0.2-0.9-0.2zm10-7.4q-0.6-0.3-1.1-0.4-0.6 0-1 0-0.3 0-0.7-0.1-0.2-0.1-0.5-0.4-0.7 0.7-1.7 1.5-0.9 0.7-0.9 1.8 2.2 1 3.5 2.6 1.4 1.7 2.2 3.6 0.7 2 1.1 4 0.4 2.1 0.7 4 1.3-1.2 1.5-3 0.2-1.7 0.2-3.6-0.4-1.2-0.5-2.6-0.2-1.4-0.6-2.7-0.2-1.4-0.8-2.5-0.5-1.3-1.4-2.2zm-16.8-4.3q-1.2 0-2.2 0.5-0.9 0.4-1.6 1-0.6 0.7-1.2 1.5-0.4 0.7-0.7 1.3 1.9 0 3.2 0.9 1.4 0.9 2.5 1.5 0.4 0.7 0.8 1.3 0.5 0.7 0.9 1.4 0.4 0.7 0.6 1.5 0.3 0.8 0.3 1.7l0.9-0.9q0.6-1.5 0.5-3.1-0.1-1.7-0.7-3.3-0.5-1.6-1.4-2.9-0.9-1.4-1.9-2.4zm-18.2-4.9l-0.9-0.8-0.8 0.8q-0.3 3.8-0.9 7.7-0.5 3.8-0.9 7.6-0.3 3.7-0.4 7.3-0.1 3.5 0.5 6.6 0.7-0.7 0.8-1.2 0.2-0.5 0.9-0.5 0.6-3.4 0.8-6.8 0.3-3.5 0.4-6.9 0-3.5 0.1-6.9 0.1-3.5 0.4-6.9zm33.3-1.6q-1.6 0.3-2.8 1.1-1.1 0.9-2 2.1-1 1.1-1.8 2.5-0.8 1.4-1.7 2.6l-0.9-0.9q0.3-0.9 0.2-1.7-0.1-0.8-0.3-1.6-0.2-0.8-0.5-1.6-0.2-0.8-0.2-1.7-1.2-0.6-2.5-1.1-1.3-0.6-2.6-0.6-1.5 0-3 0.6-1.5 0.6-2.7 1.5-1.3 0.9-2.2 2.2-0.8 1.2-1.1 2.4-0.4 0.3-0.4 0.9-0.1 0.5-0.1 1.1 0 0.7-0.1 1.3 0 0.6-0.4 0.8-0.5 0-0.6-0.4-0.1-0.2-0.1-0.4-0.6-2.4-1.3-5-0.6-2.7-1.3-5.8-0.6 0.3-1.3 0.2-0.7 0-1.3 0-0.6 0-1.1 0.2-0.4 0.3-0.4 1.3 0 5.6-0.1 10.8-0.1 5.2-0.7 10.8 0 1.3 0.1 2.2 0.1 1 0.2 2 0.1 0.9 0 1.9 0 1-0.3 2.2 0.9 0.4 1.8 0.3 1-0.1 2-0.5 1-0.3 2.1-0.7 1.1-0.4 2.3-0.7 0.4-1.9 0.6-4 0.2-2.2 0.4-4.2 0.3-2.2 0.6-4.1 0.4-2 1-3.6 0.3-1.2 1-2.5 0.8-1.3 1.8-2.4 1-1.1 2.2-1.8 1.2-0.7 2.5-0.7 2.6 2.5 4 5.6 1.6 3.1 1 6.9h3.3q0-0.7 0.3-1.3 0.3-0.6 0.4-1.1 0.3-0.6 0.4-1 0.1-0.5-0.2-0.9 0.6-0.6 0.8-1.5 0.2-0.9 0.8-0.9 1.3-1.3 2.5-1.5 1.2-0.2 2.5-0.2 1.9 1.3 2.9 2.9 1.1 1.6 1.6 3.4 0.5 1.8 0.8 3.6 0.2 1.8 0.6 3.4 0 1-0.3 1.8-0.3 0.7-0.6 1.5-0.3 0.7-0.6 1.3-0.2 0.7-0.2 1.3 1.3 0 2 0.4 0.7 0.4 1.3 0.4 1-2.8 1.5-5.9 0.6-3.1 0.7-6.2 0.2-3.1 0-6.2-0.1-3-0.5-5.8-0.6-1.3-1.7-2.6-1-1.3-2.4-2.2-1.3-0.8-2.8-1-1.6-0.2-3.1 0.8zm11 3.2q1.1 6.4 0.7 13-0.4 6.7-1.7 12.9 0 0.6-0.3 1.2-0.2 0.4-0.6 0.9-0.4 0.5-0.9 1-0.4 0.5-0.7 1.2-1-0.7-2-0.7-1-0.2-2.2-0.1-1.1 0.1-2.2 0.1-1 0.1-2-0.2 0.7-0.7 1.7-1.7 1.1-1.1 1.7-1.7 0-3.7-1.2-7-1.1-3.2-2.9-6.3-0.7-0.6-1.4-1.1-0.7-0.6-2-0.6 0 0.7-0.4 1.7-0.4 1-0.4 1.7l0.8 0.7q-0.6 0.4-1.1 1.1-0.6 0.8-1.2 1.5-0.6 0.8-1.4 1.1-0.8 0.3-2.1-0.3-0.3-0.3-0.7-0.2-0.5 0.1-1 0.2-0.5 0.2-0.9 0.2-0.5 0.1-0.7-0.2 0-0.6 0.3-0.7 0.2-0.1 0.4-0.1-0.5-0.7-0.3-1.3 0.3-0.6 0.3-1.3-0.6-0.9-1.1-1.8-0.5-0.9-1.1-1.7-0.5-0.7-1.2-1.3-0.7-0.7-1.6-1-1.2-0.5-2.4-0.3-1.1 0.2-1.7 2-0.3 1.9-0.3 3.9-0.1 2-0.2 4 0 2-0.3 4-0.2 2.1-0.8 3.9 0 0.4-0.2 0.5-0.2 0.1-0.3 0.3-0.3 0.1-0.5 0.1-0.2 0-0.6 0.2-0.4 0.1-0.7 0.4-0.3 0.4-0.5 0.9 0 0.4 0.3 1.1-0.7 0.6-1.2 0.7-0.5 0.1-1 0-0.4-0.1-0.9-0.2-0.5-0.1-1.1 0.2-1 0-1.9-0.1-0.9-0.1-1.8 0-0.9 0-1.7 0.2-0.8 0.2-1.4 0.7-0.2 0-0.4-0.1-0.3-0.2-0.3-0.7l0.7-1.6q-0.6-3.8-0.5-7.6 0-3.7 0.4-7.4 0.3-3.8 0.6-7.6 0.4-3.7 0.4-7.5 0.7-0.3 1-0.7 0.4-0.4 0.6-0.9 0.2-0.5 0.4-0.9 0.2-0.4 0.5-0.8-0.2 0-0.3-0.1-0.1-0.1 0-0.3 0-0.1 0.3-0.4 1.3-0.7 3.1-0.8 1.8-0.1 3.6-0.1 0.7 1.9 0.9 4.2 0.2 2.3 0.8 4.2 0.6-1.9 1.8-3.4 1.2-1.6 2.8-2.7 1.5-1.1 3.4-1.7 1.8-0.6 3.7-0.6l4.9 2.6 1.8 5q0.5-1.3 1.6-2.5 1.1-1.2 2.4-2.1 1.4-0.9 2.8-1.5 1.5-0.6 3.1-0.6 2.5 0 4.8 1.2 2.4 1.3 3.7 3.7zm41 25.4q-1.4 0.8-2.8 1.3-1.5 0.4-3-0.3-1.4 0.7-2.2 2-0.9 1.1-1.6 1.9l6.8-1q0.4-0.4 0.8-0.7 0.5-0.4 0.9-0.9 0.5-0.4 0.8-1 0.3-0.5 0.3-1.3zm-9.6-0.9q0 0.7-0.6 1.3-0.6 0.6-1.1 1.2-0.5 0.7-0.7 1.4-0.2 0.7 0.5 1.9 1.5-1.5 2.3-2.5 0.8-0.9 1.6-2.4 0-0.7-0.7-0.8-0.6-0.1-1.3-0.1zm-12.5-16.3q-0.7 0.7-0.7 1.9 0 1.2 0.7 1.9 0.4 1.1 1.1 1.7 0.7 0.5 1.5 0.8 0.9 0.3 2 0.3 1 0 2.1 0 0-0.3 0.3-0.5 0.3-0.2 0.6-0.4 0.2-0.2 0.4-0.4 0.1-0.2-0.3-0.5-0.4-1.1-1.2-2-0.9-0.9-2-1.5-1-0.7-2.3-1-1.1-0.3-2.2-0.3zm5.8-3v-0.9q-1.5 0-2.8 0.3-1.3 0.2-2 1.6 1 0.4 2.3 0.9 1.2 0.5 2.4 1.3 1.2 0.7 2.2 1.6 1 0.9 1.7 2 0-0.7 0.2-1.4 0.1-0.8 0.8-1.5-0.7-1.5-2.1-2.3-1.3-0.9-2.7-1.6zm-16.4-1.9q-1.1 0.8-1.7 1.7-0.5 0.8-0.9 1.9-0.4 0.9-0.6 2-0.2 1.1-0.6 2.1 0 2.5-0.2 5.5-0.1 2.9 0.2 5.7 0.4 2.8 1.6 5.2 1.3 2.4 4.2 3.8 2.1 0.4 4.5 0.5 2.5 0 4.8-0.4 2.4-0.5 4.5-1.6 2-1.1 3.5-3.3l-3.9 0.9q-5 0-9.1-2.1-4.1-2.2-6.3-6.5-0.7-2.2-1.3-4.8-0.5-2.6-0.5-4.8 0-1.5 0.5-2.9 0.6-1.4 1.3-2.9zm19.3 0l2.8 5.8q0 2.2-1.1 3.7-1.2 1.5-2.7 3-0.7 0.4-1.6 0.5-0.9 0-1.8-0.1-0.8-0.1-1.7-0.2-0.9-0.2-1.6-0.2-1.4-0.7-1.9-1.7-0.6-1.1-0.8-2.2-0.2-1.2-0.3-2.4-0.1-1.2-0.8-2.3 1-1.1 2.4-1.9 1.4-0.9 2.9-1.4 1.6-0.6 3.1-0.8 1.6-0.1 3.1 0.2zm2.8-21.1q-2.1 0.7-2.8 2.4-0.7 1.6-0.7 3.7 0 2 0.3 4.3 0.4 2.2 0.4 4l2.8 1q0-2.2 0.2-4.2 0.1-2 0.2-3.9 0.1-1.9 0-3.7 0-1.8-0.4-3.6zm2-1.9q0 1.1-0.1 2-0.2 0.9-0.3 1.7-0.1 0.8-0.1 1.5 0.1 0.7 0.5 1.5 0 1.5 0 3.2 0 1.7-0.1 3.5-0.1 1.8-0.3 3.6-0.2 1.7-0.6 3.1-1.4-0.7-2.9-1.4-1.4-0.7-2.9-1.4-0.3 0-0.6-0.3-0.2-0.3-0.4-0.7-0.3-0.4-0.7-0.7-0.4-0.3-1.1-0.3-2.2-0.3-4.2 0.2-1.9 0.5-3.6 1.6-1.5 1-2.8 2.6-1.2 1.5-1.9 3.3-1.8 2.2-2.2 4.5-0.3 2.4 0.2 4.7 0.6 2.3 1.7 4.7 1.1 2.3 2.2 4.4 2.9 2.9 6.9 3.8 4.1 0.8 8.5 0 1-0.7 1.6-1.5 0.7-0.9 1.1-1.8 0.5-0.9 0.9-1.8 0.5-0.9 1.2-1.6 0.7 0.4 1 0.9 0.2 0.5 0.2 1.2 0 0.6-0.1 1.3-0.1 0.7-0.1 1.4 1 0.7 2.1 1 1.1 0.2 2.1 0.2 1.2 0 2.2-0.1 1.1-0.1 2.2-0.1 0.7-3.6 0.8-7.2 0.1-3.6-0.1-7.2-0.2-3.6-0.4-7.2-0.3-3.7-0.3-7.3 0-2.1-0.3-4.3-0.3-2.1-0.5-4.2-0.3-2.1-0.4-4-0.2-2 0.2-3.8-2.1 0-4.3 0.5-2.2 0.5-4.3 0.5zm9.6-2.9h1q0 8.7 0 17.3 0.2 8.6 0.9 17.3 0 2.5 0 5.3 0.1 2.7-0.4 5.3-0.4 2.6-1.6 4.9-1.2 2.3-3.7 3.7-1.1 0.4-2.5 0.3-1.4-0.1-2.7-0.1-1.4 0-2.6 0.3-1.1 0.4-1.9 1.4 0-0.7-0.1-1.9-0.1-1.2-0.8-1.9-1.5 1.4-3.4 2.3-1.9 0.9-4.1 1.3-2.1 0.3-4.4 0.1-2.3-0.1-4.4-0.9-1.1 0-2.1-0.4-0.9-0.5-1.7-1.3-0.8-0.7-1.6-1.5-0.7-0.9-1.4-1.6-0.4-2.8-1-5.8-0.5-3.1-0.7-6-0.2-3 0.3-5.8 0.6-2.8 2.4-5.4 1.4-1.1 2.6-2.6 1.1-1.5 2.3-2.8 1.2-1.4 2.5-2.3 1.4-1 3.2-1 2.1-1.4 4.7-1.4 2.7 0 4.8 1.4v-8.6q-0.7-0.4-0.6-0.7 0-0.4 0.4-0.7 0.4-0.4 0.7-0.7 0.5-0.4 0.5-0.8 1.1-1 1.8-1.6 0.8-0.7 1.5-1.1 0.6-0.5 1.2-0.9 0.6-0.5 1.3-1.2 2.1 0 4.8-0.6 2.7-0.6 4.8-1.3zm39.3 45.6q-1.3 0.8-2.7 0.9-1.4 0.2-2.7 1-0.3 0.7-0.9 1.3-0.5 0.7-1.1 1.4-0.6 0.6-1.1 1.3-0.4 0.6-0.4 1.3h0.9q1.3-0.7 2.7-1.1 1.4-0.5 2.6-1.1 1.2-0.7 1.9-1.8 0.8-1.1 0.8-3.2zm-8-0.7q-0.7 0.6-1.1 1.5-0.3 0.9-0.6 2-0.2 0.9-0.5 1.9-0.2 1-0.5 1.6 0.3-0.9 1.2-1.8 0.8-0.9 1.5-1.7 0.6-0.9 0.8-1.7 0.2-0.9-0.8-1.8zm-8-17.9q-1.3 0-2.5 1.2-1.3 1.1-1.9 2.5 1-0.3 2.1-0.2 1.1 0.1 2.2 0.6 1.1 0.5 2 1.3 0.9 0.8 1.6 1.8l-0.8 0.8-3.6-2.6q-0.7 0-1.3-0.2-0.7-0.1-1.3-0.1-0.7-0.2-1.4-0.1-0.6 0.1-1.3 0.4 0 0.7 0.1 1.8 0.1 1 0.8 1.8 0.7 0.3 1.6 0.5 0.9 0.2 1.9 0.2 1 0 1.9-0.2 1-0.2 1.7-0.5 0.7-0.4 1.4-1 0.8-0.7 1.3-1.5 0.6-0.8 0.9-1.8 0.2-0.9-0.1-1.9-0.7-0.7-1.2-1.2-0.5-0.5-1.1-0.8-0.6-0.4-1.3-0.6-0.7-0.2-1.7-0.2zm-14.2 0q-1.3 1.4-2.1 2.9-0.7 1.5-1.1 3.1-0.4 1.5-0.7 3.2-0.2 1.6-0.5 3.3-0.7 2-0.3 3.7 0.4 1.7 1.4 3.1 1 1.4 2.4 2.6 1.4 1.2 2.7 2.1 2 1.7 4.1 1.9 2.2 0.1 4.3-0.5 2.2-0.7 4.3-1.9 2.2-1.2 4.1-2.1l1.8-3.5q-1.7 0.9-3.4 2-1.6 1.1-3.3 1.9-1.8 0.7-3.7 0.9-1.8 0.2-3.8-0.4-2-1.4-3.9-3.2-1.8-1.9-3.2-3.9-1.3-4-1.2-7.9 0.1-3.9 2.1-7.3zm20.4 2.8q0.7 1.9 0 3.4-0.6 1.5-2.7 2.8-2 1.9-4.4 2-2.4 0.2-4.4-1.1-0.7-0.4-1-1-0.1-0.7-0.3-1.4-0.2-0.8-0.5-1.5-0.3-0.8-0.9-1.5 1-0.7 1.9-1.7 0.9-1.1 1.8-2 0.9-1.1 1.9-1.8 1-0.7 2.4-0.7 2.1 0.7 3.8 1.6 1.7 0.8 2.4 2.9zm7.1-12.5h-4.4q-0.7 0.3-0.9 1-0.2 0.6-0.2 1.4 0 0.7 0.1 1.6 0.1 0.7 0.1 1.4-0.7 1.3-1.2 1-0.5-0.2-1-1.1-0.6-0.8-1.1-1.7-0.6-0.9-1.2-0.9-0.3 0-0.8 0.1-0.4 0.1-1 0.3-0.4 0-0.9 0-0.5-0.1-0.8-0.4-2 0-3.9 0.2-1.8 0.2-3.2 1.6-1.6 0.7-3 1.9-1.3 1.3-2.3 2.9-1 1.6-1.7 3.3-0.7 1.8-1 3.4 0 1.9 0.3 3.9 0.4 1.9 1.3 3.7 0.8 1.7 2.2 3.2 1.3 1.5 3.3 2.4 2.7 1.4 5.3 1 2.7-0.5 5.4-1.9 1-0.2 1.7-0.9 0.7-0.8 1.4-1.6 0.6-0.8 1.3-1.6 0.8-0.8 1.8-1.1 0.6 0.7 0.7 1.3 0.1 0.7 0 1.3-0.1 0.7-0.1 1.3 0 0.7 0.3 1.3 0.7-0.2 1.2-0.3 0.7-0.1 1.3-0.1 0.6 0 1.1 0 0.5 0 0.8-0.3 1.6 0.3 2.3-0.4 0.6-0.7 0.8-1.8 0.2-1.1 0.1-2.3 0-1.1 0.3-1.8-0.6-2.7-1-5.4-0.4-2.6-0.9-5.2-0.3-2.7-0.9-5.4-0.6-2.6-1.6-5.3zm1.8 0q0 1.4 0.2 2.7 0.4 1.3 0.7 2.8 0.3 1.4 0.6 2.9 0.3 1.5 0.3 3.2 0.3 2 0.8 4 0.6 1.9 1 4 0.5 1.9 0.5 3.9 0 2-0.6 4.1-0.7 0.6-1.1 1.4-0.3 0.8-0.6 1.6-0.3 0.9-0.8 1.7-0.4 0.8-1 1.4-1 0.7-2.3 1.1-1.3 0.4-2.6 0.8-1.3 0.4-2.6 1-1.3 0.6-2.3 1.6-0.7-0.7-1-1.3-0.2-0.8-0.3-1.4 0-0.7-0.1-1.3-0.1-0.7-0.4-1.4-1.6 1-3.3 2-1.6 0.9-3.4 1.5-1.8 0.6-3.6 0.7-1.9 0-3.9-0.7-1.9-0.9-3.8-2.2-1.9-1.4-3.3-3-1.5-1.7-2.2-3.7-0.7-2-0.4-4.3 0.8-6.1 3.9-11.2 3.2-5.2 8.5-9.2 0.3 0.3 0.8 0.2 0.5 0 1.1-0.3 0.6-0.3 1.2-0.5 0.7-0.3 1.3-0.3 1.1-0.3 2.3-0.4 1.3-0.2 2.6 0 1.4 0.1 2.6 0.7 1.3 0.5 2.3 1.5 0.4-0.7 0.3-1.6 0-0.9 0.1-1.6 0-0.7 0.5-1.1 0.4-0.5 1.8-0.1 1.3 0 3 0.1 1.9 0 3.2 0.7zm28.5 32.5q-0.7 1.3-1.9 1.7-1.2 0.3-2.5 1h0.8q0.7 0.3 1.2 0.2 0.5-0.2 0.9-0.6 0.5-0.4 0.8-1 0.4-0.7 0.7-1.3zm-8.8-23.9q-0.4 0.4-0.6 0.8-0.1 0.5-0.3 0.9-0.2 0.4-0.4 0.7-0.2 0.3-0.5 0.3 0 5.3 0.1 10.6 0.3 5.3 1.7 10.6 0 0.6 0.2 0.9 0.4 0.2 0.7 0.3 0.4 0.1 0.9 0.2 0.4 0 0.8 0.4 0.3 0 0.6-0.2 0.3-0.1 0.6-0.2 0.3-0.2 0.6-0.5-3-2.3-4-5.3-0.9-3.1-0.9-6.4 0-3.3 0.4-6.7 0.4-3.4 0.1-6.4zm-2.7 1l2.7-2.7q-1 0-2 0.1-1 0.1-1.9 0.2-0.9 0.1-1.8 0.1-0.8-0.1-1.4-0.4-0.7 0.6-1.2 1.7-0.6 1.1-0.6 1.8l6.2-1.8zm13.3-1.8v-1.7h-2.7v1.7zm-21.3 0.9l3.6-4.4v-5.3q-0.3 1.3-1.4 2.5-1.1 1-2 2.1-0.9 1-1.2 2.3-0.3 1.2 1 2.8zm9.8-20.3q-1.3 2-1.6 4.4-0.2 2.4-0.2 4.4h2.7v-7.1q-0.3-0.2-0.5-0.5-0.4-0.6-0.4-1.2zm1.8-1.8h0.9v12.4q-1-0.3-1.9-0.3-0.8 0.1-1.6 0.2-0.7 0.1-1.4 0-0.7-0.1-1.3-0.8-0.3 0.7-0.7 1.7-0.3 0.9-0.5 1.8-0.1 1-0.1 2 0 1 0.4 1.6 0.9 0 1.9-0.1 1.1-0.1 2-0.1 1.1 0 2.1 0.2 0.9 0.2 1.9 0.9l-1.7 11.5q0.3 1.3 0.2 2.8 0 1.4 0 2.9 0 1.5 0.3 3 0.2 1.4 1.2 2.8 0 0.6 0.4 1 0.4 0.4 1 0.7 0.6 0.4 1.2 0.7 0.7 0.4 1 1.1l4.4-2.7q-1-2.3-2.1-4.6-1-2.3-1.8-4.6-0.7-2.3-1-4.6-0.2-2.4 0.5-4.7-0.7-0.7-0.7-1.4 0.1-0.9 0.3-1.8 0.3-0.9 0.4-1.9 0.3-1 0-2 0.6-0.3 1.4-0.2 0.9 0 1.6 0.2 0.9 0.2 1.7 0.3 0.8 0 1.5-0.3l0.9-7.1h-7.1q-0.3-1.6-0.3-3.2 0.1-1.5 0.2-3.1 0.2-1.5 0.3-3.2 0.1-1.7-0.2-3.7-0.7 0.3-1.6 0.4-0.9 0.1-1.7 0.3-0.9 0.1-1.5 0.6-0.5 0.4-0.5 1.3zm7-4.4v1.8l-0.9 11.5q1 0.3 1.8 0.4 1 0 1.7 0 0.9-0.2 1.7-0.3 0.9-0.1 1.9-0.1v0.9l-0.8 8.8q-0.5 0.2-0.8 0.9-0.3 0.6-0.7 1.4-0.3 0.8-0.7 1.6-0.4 0.7-0.9 1.2-0.5 0.4-1.3 0.3-0.8-0.1-1.9-1-0.6 2.4-0.4 4.7 0.2 2.3 0.9 4.6 0.7 2.3 1.5 4.6 0.9 2.3 1.6 4.7 0.3 0.3 0.8 0.6 0.4 0.1 0.8 0.4 0.5 0.2 0.7 0.6 0.4 0.4 0.4 1-1 0.4-1.7 1.1-0.7 0.8-1.3 1.7-0.6 0.9-1.2 1.8-0.5 1-1.2 1.6-0.9-0.6-2-0.4-1.1 0.3-2 0.7-0.8 0.3-1.2 0.2-0.4 0-0.1-1.3-1.7-0.2-2.7-1-0.9-0.8-1.4-1.8-0.4-1.1-0.5-2.4-0.1-1.3-0.1-2.6 0-1.3 0-2.5-0.1-1.2-0.6-2.2 0-3.3-0.4-6.6-0.5-3.3-0.5-6.6-0.9 0-1.9 0.2-0.8 0.3-1.6 0.6-0.8 0.2-1.7 0.4-0.9 0-1.9-0.3 0 0.6-0.1 0.8-0.1 0-0.7 0 0-1.3-0.3-3-0.2-1.8-1.5-3.1 1-1 1.9-2.3 0.8-1.3 1.7-2.6 0.8-1.3 1.6-2.5 0.9-1.3 1.9-2.3 0.7 0 1.2 0.1 0.6 0.1 0.6 0.7 0.3-0.6 0.3-1.4 0.1-0.8 0.1-1.6 0-0.9 0-1.7 0.1-0.8 0.4-1.4 0.4-1 1.1-1.9 0.7-0.9 1.3-1.7 0.7-0.8 1.1-1.6 0.4-1 0.1-1.9 2-0.7 3.9-0.9 2-0.2 4-0.9zm21.7 51.7h-7.3q-0.8 0.8-1 1.7-0.3 1-1.1 2.4 1.2-0.3 2.6-0.4 1.5-0.1 2.9-0.4 1.4-0.3 2.4-1 1.1-0.8 1.5-2.3zm-9.4-27.2l-2.1 3.1q0.8 3.2 0.9 6.3 0.1 3.2 0 6.3-0.1 3.1-0.2 6.3-0.1 3.1 0.3 6.2 0.4-0.4 0.9-0.9 0.6-0.6 1.1-1.2 0.5-0.5 0.8-1.1 0.4-0.5 0.4-0.9-0.8-6.3-1-12.4-0.3-6.2-1.1-11.7zm4.2 1.1q-0.4 0-0.7-0.2-0.2-0.2-0.3-0.4-0.2-0.2-0.5-0.3-0.2-0.2-0.6-0.2 0.4 2.7 0.5 5.5 0 2.7 0.1 5.5 0.1 2.7 0.4 5.5 0.3 2.8 1.1 5.5 0.4 0.4 0.4 0.8 0 0.4-0.1 0.7 0 0.4-0.2 0.8-0.1 0.4-0.1 0.8 0.8 0 1.7 0.2 1 0.1 1.9 0.3 1 0 2 0 1-0.1 1.7-0.5-1.1-2.7-1.5-6-0.4-3.3-0.6-6.7-0.2-3.4-0.6-6.9-0.3-3.4-1.5-6.5-0.8 0.4-1.4 0.5-0.5 0.1-0.9 0.2-0.4 0.1-0.6 0.3-0.2 0.3-0.2 1.1zm4.2-4.3l1 1.1q0.8 3.5 1 7.3 0.2 3.9 0.4 7.6 0.3 3.7 1.1 7.2 0.8 3.4 2.8 6.1 0 0.4-0.2 0.5-0.2 0.1-0.6 0.1-0.2 0-0.6 0-0.4 0.1-0.8 0.5-0.4 0.4-1.1 0.8-0.6 0.4-1.4 1.1-0.6 0.6-1.1 1.4-0.5 0.8-0.5 2 0 0.3-0.2 0.3-0.2-0.2-0.4-0.5-0.2-0.3-0.5-1l-8.4 1.2q-0.8-0.9-1-2.1-0.3-1.3-1-2.2 0-3.1 0.3-6.2 0.2-3.1 0.3-6.2 0.1-3-0.2-6-0.3-2.9-1.5-5.6 0.8-1.2 1.4-2.3 0.7-1.2 1.3-2.1 0.7-1.1 1.6-1.8 0.8-0.8 2-1.2 0.4 0.4 1.1 0.6 0.7 0.2 1.6 0.2 0.9 0 1.8-0.2 1-0.2 1.8-0.6zm-3.2-8.4l-4.1 1.2-2.2 3.1q1.6 0.4 2.5-0.1 0.9-0.4 1.5-1.2 0.6-0.8 1-1.7 0.6-0.9 1.3-1.3zm-7.3-6.2q-1.2 1.2-1.5 2.3-0.3 1.2-0.2 2.4 0.1 1.2 0.4 2.3 0.3 1.2 0.3 2.4 0.8-0.8 1.2-1.9 0.4-1.1 0.4-2.4 0.2-1.3 0-2.6-0.2-1.3-0.6-2.5zm7.3-3.1h-3.1q-0.8 0.4-1.2 1.2-0.4 0.7-0.5 1.6-0.1 0.8 0.1 1.7 0.2 0.9 0.6 1.7 0.8 0 0.9 0.7 0.1 0.6 0.1 1.4 2.4 0.4 3.1-0.5 0.8-1 0.8-2.4 0-1.5-0.4-3.1-0.4-1.5-0.4-2.3zm2.1-2.2v1.1q0.4 1.2 0.5 2.3 0 1.2 0 2.3 0 1 0.1 2 0.1 1 0.5 1.8-0.4 0.7-1.2 1.6-0.7 0.8-1.4 1.7-0.6 0.8-1.2 1.9-0.4 0.9-0.4 2.1-0.8 0.4-1.9 0.3-1.1 0-2.2 0-1 0-2 0.4-0.8 0.3-1.2 1.5-0.8-0.4-1.1-1.1-0.3-0.8-0.4-1.6-0.1-0.8-0.2-1.5 0-0.7-0.4-1.1v-6.3q0.4-0.4 0.9-0.9 0.5-0.6 0.9-1.3 0.4-0.7 0.5-1.5 0.2-0.7-0.2-1.5 1.2-0.8 2.5-1.1 1.3-0.3 2.7-0.3 1.4-0.2 2.7-0.2 1.3-0.2 2.5-0.6zm13.4 28.1q-1 1.6-1.4 3.3-0.4 1.8-0.6 3.7-0.1 1.8-0.3 3.7 0 1.9-0.3 3.8 0.3 1.3 0.5 2.7 0.2 1.5 0.7 2.9 0.5 1.4 1.3 2.4 0.9 1.1 2.6 1.3 1.5 0.3 3.4 0.5 1.8 0.1 3.7 0 1.8-0.2 3.5-0.7 1.7-0.6 3-1.5-1.6 0.3-3.6 0.6-2 0.2-3.9 0.1-1.9-0.2-3.5-0.9-1.7-0.8-2.6-2.4-1.7-1.9-2.4-4.2-0.6-2.3-0.8-4.9-0.1-2.5 0.1-5.2 0.3-2.7 0.6-5.2zm10.2 1.6q-1 1-1.6 2.3-0.7 1.2-0.9 2.5-0.2 1.2-0.1 2.5 0.2 1.1 0.9 2.1 0.9 0.7 2.1 1 1.2 0.3 2.4 0.4 1.2 0.1 2.3 0 1.1-0.2 1.7-0.5 0-1 0.2-2 0.2-1.1 0.4-2.1 0.1-1.1 0.1-2-0.1-1-0.7-1.6-0.6-0.9-1.5-1.9-0.9-1-1.9-1.6-1-0.5-1.9-0.4-0.9 0.1-1.5 1.3zm3.3-3.3q0 0.7 0.5 0.8 0.6 0.1 1.3 0.1 1 1.3 1.8 2.7 0.9 1.4 1.6 2.9 0.6 1.5 0.9 3.1 0.2 1.5 0 3.1 0.6-1.2 1.3-2.5 0.7-1.3 1.1-2.5 0.4-1.3 0.3-2.5-0.1-1.3-1-2.6-0.4-1.3-1.3-1.9-0.9-0.5-2-0.7-1.1-0.2-2.3-0.1-1.2 0.1-2.2 0.1zm10.3 3.3q0 3.2-1.1 5.8-1 2.6-2.3 4.5-1.4 0.7-2.8 1.3-1.3 0.5-2.8 0.7-1.5 0.2-3.2 0-1.5-0.2-3.1-1.2-0.7-0.6-1.3-1.3-0.5-0.8-0.5-2-0.3-2 0.1-3.8 0.5-1.9 1.5-3.6 1.1-1.7 2.6-3 1.6-1.4 3.5-2.4 3.2-0.7 5.6 0.6 2.5 1.3 3.8 4.4zm-6.8-11.8q-0.6-0.6-1.4-0.8-0.8-0.3-1.6-0.3-0.8 0-1.6 0.1-0.8 0.1-1.4 0.1-2.9 1.3-4.8 3.3-2 2-3.1 4.5-1.2 2.5-1.7 5.3-0.6 2.8-0.6 5.7 0 1.9 0.2 3.9 0.2 1.9 0.9 3.8 0.6 1.8 1.7 3.4 1.2 1.5 3.1 2.4 3.9 0.7 7.2 0.3 3.3-0.3 6.5-2.8 2.5-1.3 4.4-3.5 1.9-2.2 3.2-4.2 0.7-2.2 1.1-4.5 0.4-2.4 0.4-4.6 0-2.3-0.6-4.3-0.5-2-1.7-3.6-1-0.6-1.8-1.6-0.8-1-1.6-1.8-0.8-0.9-1.6-1.4-0.9-0.6-1.8-0.3v0.9h-0.8q-0.4 0-0.7-0.2-0.3-0.3-0.6-0.4-0.4-0.2-0.7-0.1-0.3 0.1-0.6 0.7zm1.7-2.6l5.1 1.7q2.2 2 3.8 4.4 1.6 2.5 2.4 5.3 0.7 2.8 0.7 5.8 0 3-0.9 5.8-2 3.3-4.5 6.1-2.5 2.8-5.7 4.1-0.7 1.6-1.8 2.7-1.1 1.1-2.5 1.8-1.3 0.6-2.9 0.8-1.5 0.1-3.1-0.2-1.6 0-3.2-0.1-1.5 0-3-0.4-1.4-0.3-2.7-0.9-1.2-0.7-2.2-2-1.3-2.3-1.6-5-0.4-2.8-0.3-5.7 0.2-3 0.7-5.9 0.6-3 1.2-5.5 1.3-1.9 3-4.3 1.7-2.3 3-4.3 1.7-0.6 3.1-1.5 1.5-0.8 3-1.5 1.5-0.7 3.1-1.1 1.6-0.3 3.6-0.1 0.3 0.3 0.5 0.4 0.2 0.1 0.3 0 0.1-0.1 0.3-0.3 0.2-0.1 0.6-0.1zm25.6 34.5h-2.6q-0.4-0.7-0.9-0.6-0.4 0.2-1 0.4-0.4 0.2-0.9 0.2-0.5 0-0.8-1l-1.8 3.6 3.5 0.9q1 0 1.6-0.4 0.6-0.5 1-1.1 0.4-0.5 0.8-1.1 0.4-0.6 1.1-0.9zm22.3-1q-1 0.4-2.4 0.4-1.3-0.1-2.7 0.1-1.2 0.1-2.1 0.8-0.8 0.6-0.8 2.3 0.6 0 1.1-0.2 0.6-0.1 1.1-0.2 0.5 0 1 0 0.5 0 1.2 0.4 1.3-0.7 2.1-1.8 0.8-1.1 1.5-1.8zm-11.6-22.2q-0.7 0-1.3 0.2-0.4 0.3-0.9 0.7-0.3 0.3-0.7 0.6-0.3 0.2-0.6 0.2 2 0.7 3.3 2.4 1.3 1.6 1.9 3 1 1.7 1.7 3.7 0.7 1.8 0.9 3.9 0.2 2 0 3.9-0.1 2-0.7 3.6 0.3 0 0.5-0.3 0.2-0.3 0.4-0.7 0.3-0.4 0.7-0.8 0.4-0.5 1.1-0.9v-10.7q-0.4-1.3-0.8-2.9-0.4-1.5-1.1-2.8-0.6-1.4-1.7-2.2-1.1-0.9-2.7-0.9zm-15.2-5.4h-0.8l-0.9 8.9q-2.1 5.4-3.2 11.2-1.1 5.7-0.4 11.1 0.7-0.7 1-1.5 0.5-0.8 0.8-1.5 0.4-0.8 0.7-1.4 0.4-0.6 1.1-0.9 0-3.4 0.2-6.7 0.3-3.3 0.6-6.6 0.4-3.3 0.6-6.4 0.3-3.2 0.3-6.2zm16.1-4.5q-1.4 0.7-2.4 1.7-1 0.9-1.9 2.1-0.8 1.2-1.5 2.5-0.7 1.3-1.4 2.6-1.1-0.4-1.4-1.3-0.4-0.9-0.6-2 0-1-0.1-2 0-1-0.3-1.7-0.3-0.8-1.2-1.1-0.8-0.2-2.6 0.2-0.6 0.6-0.8 1.7 0 1.1 0 1.8 0 3.3-0.4 6.8-0.2 3.4-0.6 6.8-0.3 3.4-0.7 6.5-0.2 3.1-0.2 5.8 0.4 0 0.6-0.1 0.2-0.2 0.2-0.2 0.2-0.2 0.2-0.1 0 0 0 0.4 0.5 0 0.3 0.4-0.2 0.2-0.3 0.4 0.6 0.3 1.1 0.4 0.5 0 1.1 0 0.5-0.2 1-0.3 0.5-0.1 1.2-0.1 0.6 0 1-0.3 0.4-0.2 0.6-0.4 0.3-0.3 0.5-0.4 0.2-0.1 0.6 0.3 0.3-2.3 0.1-4.7-0.2-2.3-0.4-4.6-0.2-2.3 0-4.4 0.2-2.2 1.1-4.2 1.1-0.6 1.9-1.7 0.9-1 1.9-1.8 0.9-0.9 1.8-1.2 1.1-0.4 2.4 0.3 2.4 2.3 3.6 5.1 1.3 2.8 1.9 5.8 0.6 3 0.7 6.1 0.1 3.1 0.1 6.1l4.5-0.8q-0.4-3.1-0.2-6.3 0.2-3.3 0.2-6.6 0.1-3.4-0.2-6.7-0.3-3.3-1.6-6.3-2.1-2-4.6-3.2-2.5-1.3-5.2-1.3zm10.7 2.7q1.3 2.7 1.8 5.8 0.4 3.1 0.4 6.4 0 3.2-0.2 6.5-0.2 3.3-0.2 6.3 0.2 0.3 0.3 0.8 0.1 0.5 0.1 1 0 0.4 0 1 0 0.4 0.4 0.7-1 0.7-2.1 1.9-0.9 1.1-2 2.1-1.1 1-2.2 1.5-1.2 0.5-2.6-0.1-0.7 0-1.8 0.4-1 0.5-1.8 0.5v-1.8q0.4 0 0.3-0.2-0.1-0.1-0.3-0.2-0.1-0.2-0.2-0.3-0.1-0.2 0.2-0.2 0-1.3 0.3-2.6 0.3-1.4 0.5-2.6 0.3-1.3 0.3-2.4 0.2-1.2-0.1-2.2 0-1.6-0.6-3.4-0.4-1.8-1.3-3.4-0.8-1.6-1.9-2.8-1.1-1.3-2.4-2-0.7 0-1.1 0.4-0.4 0.2-0.6 0.6-0.1 0.4-0.2 0.9 0 0.4 0 0.7-0.7 2.1-0.6 3.9 0.1 1.9 0.3 3.7 0.2 1.9 0.4 3.7 0.2 1.9-0.1 3.9-1 0-2 0.6-0.9 0.6-1.8 1.4-0.8 0.8-1.4 1.8-0.7 0.9-1 1.6-0.3 0.3-0.8 0.4-0.5 0-1 0-0.5 0-1 0.1-0.4 0.1-0.8 0.4-0.7 0.3-1.5 0.2-0.7-0.1-1.5-0.1-0.7-0.2-1.4 0-0.6 0-0.9 0.7 0 0.7-0.1 0.8-0.1 0.1-0.8 0.1-0.7-2-0.8-4-0.1-2-0.1-4-0.7-3.7 0.1-6.8 0.7-3.1 1.8-6.1 1.1-3 2-6.1 0.9-3.1 0.5-6.8 0.4-0.6 1-1.1 0.6-0.6 1.2-1.1 0.6-0.5 1-1 0.5-0.5 0.5-1.2 0.6-0.7 1.4-1 0.8-0.2 1.6-0.2 0.9 0 1.6 0.1 0.9 0.1 1.5 0.1 0.7 1.3 0.9 3.2 0.1 1.7 0.1 3h0.8q0.7-1 1.4-2.2 0.7-1.2 1.5-2.4 0.9-1.2 1.9-2.1 1-0.9 2.4-1.2 3.3 0.6 6 1.5 2.7 0.9 4.7 2.9zm11.3 29.8q-1.7 1.7-2.6 3.4-0.9 1.7-1.7 3.3 2 0.4 3.7-0.3 1.7-0.7 3.1-1.9 1.5-1.3 2.7-2.8 1.3-1.5 2.6-2.8-0.9 0.4-1.9 0.8-0.9 0.4-2 0.6-1 0.2-2.1 0.2-0.9-0.1-1.8-0.5zm-2.2-11.1q-1.7 1.7-2.3 3.5-0.5 1.9-0.6 3.7-0.1 1.9 0 3.8 0.1 1.8-0.4 3.5 2.5-1.3 3.3-3 0.9-1.8 0.9-3.8 0-2-0.5-4-0.4-2-0.4-3.7zm2.2-1v9.9q0.9 1.3 1.9 1.4 1.1 0.1 2.2-0.3 1.1-0.4 2.3-1.1 1.2-0.7 2.5-1.1 0.4-1.2 0.5-2.4 0.1-1.3-0.1-2.7 0-1.4-0.2-2.8-0.2-1.5-0.2-3.1-2.5 0-4.8 0.7-2.4 0.6-4.1 1.5zm11.1 0q0 1.6-0.2 3.1-0.1 1.4-0.2 2.8-0.1 1.4 0 2.6 0.1 1.2 0.4 2.5-0.8 0.8-2 1.7-1.1 0.9-2.1 1.9-1.1 0.9-1.8 2-0.7 1-0.7 2.2-1.3 0.8-2.7 1-1.4 0.1-2.9 0.1-1.4 0-2.8 0.2-1.5 0.1-2.7 0.9 0 0.8-0.1 0.8-0.2 0-1-0.8 0.4-1.6 0.8-3.5 0.4-1.9 0.6-3.9 0.2-1.9 0.1-3.9 0-2.1-0.4-4.2l4.4-7.7q3.4 0 6.6-0.7 3.4-0.7 6.7-1.6 0.4 0.9 0.3 1.5-0.1 0.7-0.3 1.2-0.2 0.5-0.3 0.9 0 0.5 0.3 0.9zm8.1-8.3q-0.4 0.8-1 1.5-0.7 0.8-1.3 1.7-0.5 0.9-0.9 1.8-0.2 1 0.2 2.2-0.8 3.1-1.3 6.4-0.6 3.1 0.2 7 2 2 4.4 3.2 2.4 1.1 5.2 1.7 2.7 0.6 5.6 0.7 2.8 0 5.5-0.4 0.8 0.4 1.5 0.2 0.8-0.1 1.5-0.5 0.6-0.4 1.1-0.8 0.6-0.5 1-0.9-2.3-0.4-4.6-0.7-2.3-0.3-4.5-0.7-2.3-0.4-4.4-1-2.1-0.7-4-1.9-2.4-1.8-3.6-4.3-1.2-2.4-1.6-5-0.4-2.6-0.1-5.2 0.3-2.7 1.1-5zm15.5-1.1q-0.7 0-1.3 0.4-0.5 0.3-0.9 0.8-0.2 0.5-0.2 1 0 0.5 0.4 0.9 0.4-0.4 1.4-0.5 1-0.1 2.1-0.3 1.1-0.2 1.9-0.6 0.8-0.6 0.8-1.7-0.8-0.8-2.1-0.8-1.2 0-2.1 0.8zm1.1-10.4q-2.3 0.4-4.6 1.5-2.2 1.1-4.2 2.8-1.9 1.6-3.4 3.7-1.5 2.1-2.2 4.4-0.8 2-1.1 4.1-0.2 2.1 0.1 4.1 0.3 2.1 1 3.9 0.8 1.9 2 3.5 1.9 2.3 4.3 3.3 2.5 0.9 5.1 1.2 2.7 0.3 5.3 0.3 2.6 0 5 0.4h0.9 1.1q0.4-0.8 0.4-1.9 0.1-1.2 0.1-2.4 0-1.3 0.1-2.6 0-1.3 0.4-2.5-0.8 0.8-1.7 1.1-0.9 0.2-2.1 0.2-1 0-2.2-0.1-1.1-0.1-2.2-0.1-3.2-1.5-5-3.9-1.8-2.3-3.4-5.4 0.4-0.4 0.5-0.8 0.1-0.4 0.1-0.8 0-0.4 0-0.8 0.2-0.4 0.5-0.8 0-0.7 0.4-1.4 0.4-0.8 1-1.3 0.5-0.6 1.3-1 0.7-0.3 1.4-0.3 0.8-0.4 1.5-0.5 0.8-0.1 1.5-0.1 0.7 0 1.3 0 0.6-0.2 0.9-0.6 1.2 0.4 1.7 0 0.5-0.5 0.7-1.3 0.2-0.9 0.2-2 0.2-1 0.6-1.8-0.4-0.8-1.2-1.2-0.7-0.4-1.7-0.6-1-0.2-2.1-0.2-1.1-0.1-2.3-0.1zm9.3 0q0 1.6-0.3 3-0.4 1.3-0.9 2.6-0.4 1.3-1 2.4-0.5 1.2-0.9 2.4-0.8-0.8-1.6-0.3-0.7 0.5-1.5 1.4 0.3 1.3-0.1 1.9-0.2 0.5-0.8 0.7-0.6 0.2-1.4 0.3-0.8 0-1.6 0.1-0.8 0.2-1.4 0.6-0.6 0.4-0.9 1.4 0 1.7 1.4 3.6 1.4 1.9 3.8 2.7 2.2 0.8 4.6 0.3 2.3-0.5 4.7-1.4 0.7 1.6 0.8 3.2 0.1 1.5 0 3.1-0.1 1.5-0.1 3.1-0.1 1.5 0.3 3.1-0.8 0.8-2.1 0.9-1.2 0.2-2.1 0.2l-5.1 3q-3.1 0.4-6.7 0.5-3.5 0.1-6.9-0.5-3.4-0.6-6.3-2-3-1.4-4.9-4.2l-1.1-7.2q0.8-1.6 0.9-3.3 0.2-1.7 0.2-3.3 0.2-1.7 0.5-3.2 0.4-1.5 1.6-2.7 1.5-1.5 2.7-3 1.2-1.6 2.4-3 1.2-1.5 2.3-2.8 1.3-1.4 2.8-2.5 1.2 0 2.4-0.5 1.1-0.5 2.3-1.1 1.2-0.6 2.4-1 1.2-0.5 2.3-0.5 1.6 0 2.8 0.3 1.2 0.3 2.3 0.7 1.1 0.4 2 0.7 1.1 0.3 2.2 0.3zm9 10.8q-1 1.6-1.4 3.3-0.4 1.8-0.6 3.7-0.1 1.8-0.3 3.7 0 1.9-0.3 3.8 0.3 1.3 0.5 2.7 0.2 1.5 0.7 2.9 0.5 1.4 1.3 2.4 0.9 1.1 2.6 1.3 1.5 0.3 3.4 0.5 1.8 0.1 3.7 0 1.8-0.2 3.5-0.7 1.7-0.6 3-1.5-1.6 0.3-3.6 0.6-2 0.2-3.9 0.1-1.9-0.2-3.5-0.9-1.7-0.8-2.6-2.4-1.7-1.9-2.4-4.2-0.6-2.3-0.8-4.9-0.1-2.5 0.1-5.2 0.3-2.7 0.6-5.2zm10.2 1.6q-1 1-1.6 2.3-0.7 1.2-0.9 2.5-0.2 1.2-0.1 2.5 0.2 1.1 0.9 2.1 0.9 0.7 2.1 1 1.2 0.3 2.4 0.4 1.2 0.1 2.3 0 1.1-0.2 1.7-0.5 0-1 0.2-2 0.2-1.1 0.4-2.1 0.1-1.1 0.1-2-0.1-1-0.7-1.6-0.6-0.9-1.5-1.9-0.9-1-1.9-1.6-1-0.5-1.9-0.4-0.9 0.1-1.5 1.3zm3.3-3.3q0 0.7 0.5 0.8 0.6 0.1 1.3 0.1 1 1.3 1.8 2.7 0.9 1.4 1.6 2.9 0.6 1.5 0.9 3.1 0.2 1.5 0 3.1 0.6-1.2 1.3-2.5 0.7-1.3 1.1-2.5 0.4-1.3 0.3-2.5-0.1-1.3-1-2.6-0.4-1.3-1.3-1.9-0.9-0.5-2-0.7-1.1-0.2-2.3-0.1-1.2 0.1-2.2 0.1zm10.3 3.3q0 3.2-1.1 5.8-1 2.6-2.3 4.5-1.4 0.7-2.8 1.3-1.3 0.5-2.8 0.7-1.5 0.2-3.2 0-1.5-0.2-3.1-1.2-0.7-0.6-1.3-1.3-0.5-0.8-0.5-2-0.3-2 0.1-3.8 0.5-1.9 1.5-3.6 1.1-1.7 2.6-3 1.6-1.4 3.5-2.4 3.2-0.7 5.6 0.6 2.5 1.3 3.8 4.4zm-6.8-11.8q-0.6-0.6-1.4-0.8-0.8-0.3-1.6-0.3-0.8 0-1.6 0.1-0.8 0.1-1.4 0.1-2.9 1.3-4.8 3.3-2 2-3.1 4.5-1.2 2.5-1.7 5.3-0.6 2.8-0.6 5.7 0 1.9 0.2 3.9 0.2 1.9 0.9 3.8 0.6 1.8 1.7 3.4 1.2 1.5 3.1 2.4 3.9 0.7 7.1 0.3 3.4-0.3 6.6-2.8 2.5-1.3 4.4-3.5 1.9-2.2 3.2-4.2 0.7-2.2 1.1-4.5 0.4-2.4 0.4-4.6 0-2.3-0.6-4.3-0.5-2-1.7-3.6-1-0.6-1.8-1.6-0.8-1-1.6-1.8-0.8-0.9-1.6-1.4-0.9-0.6-1.8-0.3v0.9h-0.8q-0.4 0-0.7-0.2-0.3-0.3-0.6-0.4-0.4-0.2-0.7-0.1-0.3 0.1-0.6 0.7zm1.7-2.6l5.1 1.7q2.2 2 3.8 4.4 1.6 2.5 2.4 5.3 0.7 2.8 0.7 5.8 0 3-0.9 5.8-2 3.3-4.5 6.1-2.5 2.8-5.7 4.1-0.7 1.6-1.8 2.7-1.1 1.1-2.5 1.8-1.3 0.6-2.9 0.8-1.5 0.1-3.1-0.2-1.6 0-3.2-0.1-1.5 0-3-0.4-1.4-0.3-2.7-0.9-1.2-0.7-2.2-2-1.3-2.3-1.6-5-0.4-2.8-0.3-5.7 0.2-3 0.7-5.9 0.6-3 1.2-5.5 1.3-1.9 3-4.3 1.7-2.3 3-4.3 1.7-0.6 3.1-1.5 1.5-0.8 3-1.5 1.5-0.7 3.1-1.1 1.6-0.3 3.6-0.1 0.3 0.3 0.5 0.4 0.2 0.1 0.3 0 0.1-0.1 0.3-0.3 0.2-0.1 0.6-0.1zm25.7 33.2q-1.3 0.7-2.1 1.1-0.9 0.4-2.1-0.2-0.6 0-1.1 0.2-0.5 0.2-1 0.4-0.4 0.2-1 0.1-0.4-0.1-1.1-0.7l-0.8 2.6q1.2-0.3 2.7-0.3 1.5 0 2.8-0.2 1.4-0.2 2.3-0.8 1.1-0.6 1.4-2.2zm28.4 1.7q0.5-0.3 1.4-0.1 0.9 0.2 1.8 0.3 1 0 1.8-0.2 0.9-0.4 1.6-1.7-1 0-2.2-0.2-1.1-0.2-2.1-0.2-1 0-1.7 0.5-0.6 0.4-0.6 1.6zm-10.1-13.4q-1.3 0-2 0.6-0.6 0.5-1.3 1.1 0.6 0 1.2 0.2 0.6 0.1 1.2 0.1 0.7 0 1.3-0.2 0.7-0.3 1.3-0.9-0.6-0.7-0.8-0.7-0.2-0.2-0.9-0.2zm10.1-7.4q-0.7-0.3-1.2-0.4-0.5 0-0.9 0-0.4 0-0.7-0.1-0.3-0.1-0.6-0.4-0.7 0.7-1.7 1.4-0.9 0.8-0.9 1.9 2.2 1 3.6 2.6 1.3 1.7 2.1 3.6 0.8 2 1.2 4 0.4 2.1 0.7 4 1.2-1.2 1.4-3 0.2-1.7 0.2-3.6-0.3-1.2-0.5-2.6-0.2-1.4-0.5-2.7-0.3-1.4-0.8-2.5-0.5-1.3-1.4-2.2zm-16.8-4.3q-1.3 0-2.2 0.5-0.9 0.4-1.6 1-0.7 0.7-1.2 1.5-0.5 0.7-0.8 1.3 1.9 0 3.3 0.9 1.3 0.9 2.5 1.5 0.3 0.7 0.8 1.3 0.4 0.7 0.8 1.4 0.4 0.7 0.7 1.5 0.2 0.8 0.2 1.7l0.9-0.9q0.6-1.5 0.5-3.2-0.1-1.6-0.7-3.2-0.5-1.6-1.4-2.9-0.8-1.4-1.8-2.4zm-18.3-4.9l-0.8-0.9-0.9 0.9q-0.3 3.8-0.8 7.7-0.5 3.8-0.9 7.6-0.4 3.7-0.5 7.2 0 3.6 0.5 6.7 0.7-0.7 0.9-1.2 0.2-0.5 0.8-0.5 0.7-3.5 0.9-6.8 0.2-3.5 0.3-6.9 0.1-3.5 0.1-6.9 0.1-3.5 0.4-6.9zm33.3-1.6q-1.6 0.3-2.7 1.1-1.1 0.9-2.1 2.1-0.9 1.1-1.8 2.5-0.7 1.4-1.7 2.6l-0.9-0.9q0.4-0.9 0.2-1.7 0-0.9-0.3-1.6-0.2-0.8-0.5-1.6-0.2-0.8-0.2-1.8-1.2-0.5-2.5-1.1-1.2-0.5-2.5-0.5-1.6 0-3.1 0.6-1.5 0.6-2.7 1.5-1.2 0.9-2.1 2.1-0.9 1.3-1.2 2.5-0.3 0.3-0.4 0.9-0.1 0.5-0.1 1.1 0 0.7 0 1.3-0.1 0.6-0.4 0.8-0.5 0-0.7-0.4 0-0.2 0-0.4-0.7-2.4-1.3-5-0.6-2.7-1.3-5.8-0.6 0.3-1.3 0.2-0.8 0-1.4 0-0.6 0-1 0.2-0.4 0.3-0.4 1.3 0 5.6-0.2 10.8 0 5.2-0.7 10.7 0 1.3 0.1 2.3 0.2 1 0.2 2 0.1 0.9 0 1.9 0 1-0.3 2.2 0.9 0.4 1.8 0.3 1-0.1 2-0.5 1-0.3 2.1-0.7 1.1-0.4 2.4-0.8 0.3-1.8 0.5-3.9 0.3-2.2 0.4-4.2 0.3-2.2 0.6-4.1 0.4-2.1 1.1-3.6 0.2-1.3 1-2.6 0.7-1.3 1.7-2.3 1-1.1 2.2-1.8 1.2-0.7 2.5-0.7 2.6 2.4 4.1 5.6 1.5 3.1 0.9 6.9h3.4q0-0.7 0.2-1.3 0.3-0.6 0.5-1.2 0.2-0.5 0.3-0.9 0.1-0.5-0.2-0.9 0.7-0.6 0.9-1.5 0.2-0.9 0.7-0.9 1.3-1.3 2.5-1.5 1.2-0.2 2.5-0.2 1.9 1.3 3 2.9 1 1.6 1.5 3.4 0.6 1.8 0.8 3.6 0.3 1.8 0.6 3.4 0 1-0.3 1.7-0.2 0.8-0.5 1.5-0.4 0.8-0.6 1.4-0.3 0.7-0.3 1.2 1.3 0 2 0.5 0.7 0.4 1.4 0.4 1-2.8 1.5-5.9 0.5-3.1 0.6-6.2 0.2-3.1 0-6.2-0.1-3-0.4-5.8-0.7-1.3-1.7-2.6-1.1-1.3-2.4-2.2-1.3-0.8-2.9-1-1.5-0.2-3.1 0.8zm11 3.2q1.2 6.4 0.7 13-0.4 6.6-1.6 12.9 0 0.6-0.3 1.2-0.3 0.4-0.7 0.9-0.4 0.5-0.8 1-0.4 0.5-0.8 1.2-0.9-0.7-2-0.7-1-0.2-2.1-0.1-1.1 0.1-2.2 0.1-1.1 0.1-2-0.2 0.6-0.7 1.6-1.7 1.1-1.1 1.7-1.7 0-3.7-1.1-7-1.1-3.2-3-6.3-0.7-0.6-1.4-1.1-0.7-0.6-1.9-0.6 0 0.7-0.5 1.7-0.4 1-0.4 1.7l0.9 0.7q-0.7 0.4-1.2 1.1-0.5 0.8-1.2 1.5-0.6 0.7-1.4 1.1-0.8 0.3-2-0.4-0.4-0.2-0.8-0.1-0.5 0.1-1 0.2-0.4 0.1-0.9 0.2-0.4 0.1-0.7-0.3 0-0.5 0.4-0.6 0.2-0.1 0.4-0.1-0.6-0.7-0.3-1.3 0.3-0.6 0.3-1.3-0.7-0.9-1.2-1.8-0.5-0.9-1-1.7-0.6-0.8-1.3-1.3-0.6-0.7-1.5-1-1.3-0.5-2.4-0.3-1.1 0.2-1.7 2-0.3 1.9-0.4 3.9-0.1 2-0.1 4-0.1 2-0.4 4-0.2 2-0.8 3.9 0 0.4-0.2 0.5-0.1 0.1-0.3 0.2-0.2 0.2-0.4 0.2-0.3 0-0.7 0.2-0.4 0.1-0.7 0.4-0.3 0.4-0.4 0.9-0.1 0.4 0.2 1.1-0.6 0.6-1.2 0.7-0.5 0.1-0.9 0-0.5-0.1-1-0.2-0.5-0.1-1.1 0.2-0.9 0-1.9-0.1-0.9-0.1-1.8 0-0.9 0-1.6 0.2-0.8 0.2-1.5 0.7-0.2 0-0.4-0.1-0.3-0.2-0.3-0.7l0.7-1.6q-0.6-3.8-0.5-7.6 0.1-3.7 0.4-7.4 0.3-3.8 0.6-7.6 0.4-3.8 0.4-7.5 0.7-0.3 1-0.7 0.4-0.4 0.6-0.9 0.3-0.5 0.5-0.9 0.2-0.5 0.5-0.8-0.2 0-0.3-0.1-0.2-0.1-0.1-0.3 0.1-0.1 0.4-0.4 1.3-0.7 3-0.8 1.8-0.1 3.7-0.1 0.6 1.9 0.8 4.2 0.2 2.3 0.9 4.2 0.5-1.9 1.7-3.4 1.3-1.6 2.8-2.7 1.6-1.1 3.4-1.7 1.8-0.6 3.7-0.6l4.9 2.6 1.8 5q0.6-1.3 1.6-2.5 1.1-1.2 2.4-2.1 1.4-1 2.9-1.5 1.5-0.6 3-0.6 2.5 0 4.8 1.2 2.4 1.2 3.7 3.7z"/>
</svg>