<svg version="1.2" xmlns="http://www.w3.org/2000/svg" viewBox="0 0 500 100" width="500" height="100">
	<style>
		.s0 { fill: #ffffff } 
	</style>
	<path id="Gemdation.com" class="s0" aria-label="Gemdation.com"  d="m5.3 55.2q0-3.1 1.3-7.6 1.4-4.5 3.9-8.7 2.5-4.1 6.2-7.1 3.7-3 8.4-3 2.5 0 4.8 0.7 2.4 0.7 4.1 2.1 1.8 1.4 2.9 3.4 1.1 1.9 1.1 4.4 0 4.8-1.9 4.8-0.3 0-0.6-0.5-0.3-0.4-0.6-0.9-0.4-0.6-0.8-1.2-0.3-0.6-0.6-0.8-4.1-4.4-8.9-4.4-2.5 0-5 1.9-2.5 1.9-4.5 4.9-2.1 2.9-3.4 6.4-1.2 3.5-1.2 6.7 0 3.8 1.1 6.6 1 2.7 2.9 4.6 1.9 1.8 4.5 2.7 2.5 0.8 5.5 0.8 2.7 0 4.5-0.3 1.7-0.4 2.6-1.1 0.9-0.8 1.3-2 0.3-1.2 0.3-2.7v-4.9q-1.5 0.2-3.1 0.3-1.5 0-2.5 0-1.4 0-2.8-1.2-1.3-1.1-1.3-3.2 0-2.5 1.1-3.2 1.2-0.8 2.7-0.8 0.7 0 1.8 0.1 1.2 0.1 1.9 0.2 1.5 0 3-0.4 1.6-0.3 3.3-0.3 1.2 0 2 1.3 0.9 1.3 0.9 2.6 0 2.9-1.5 3.8 0 2.1-0.2 4.1 0 2 0 4.1 0 2.9 0.2 5.9-0.1 3.4-0.7 4.3-0.5 0.8-1.5 0.8-1.2 0-1.9-0.9-0.6-1.1-1.1-1.8-0.5 0.3-1.6 0.7-1 0.5-2.4 1-1.3 0.4-2.9 0.8-1.5 0.3-2.9 0.3-9.4 0-14-6.1-4.4-6.1-4.4-17.2zm71.1 1.4l-24.2 8.6q0.7 2.3 2.3 3.6 1.7 1.3 3.7 1.9 2 0.6 4 0.8 2 0.1 3.5 0.1 1.4 0 2.9-0.5 1.5-0.4 2.8-0.9 1.4-0.6 2.5-1 1.2-0.4 2-0.4 3 0 3 3.8 0 2.3-2.1 3.5-2 1.2-4.8 1.8-2.7 0.6-5.4 0.8-2.6 0.1-3.8 0.1-3 0-5.8-1.3-2.9-1.3-5.2-3.7-2.1-2.3-3.5-5.5-1.3-3.1-1.3-6.7 0-5.1 1.2-9.3 1.3-4.1 3.6-7.2 2.4-3 5.9-4.7 3.4-1.7 7.9-1.7 2.2 0 4.5 0.8 2.3 0.8 4.2 2.5 1.9 1.5 3.1 4 1.2 2.3 1.2 5.5 0 2-0.6 3.4-0.6 1.4-1.6 1.7zm-24.6 2.6q2.5-0.7 5.5-1.8 3.1-1.2 6.3-2.5 3.1-1.3 5.8-2.4 2.8-1.2 4.5-1.9-1.1-2.4-3.8-3.4-2.6-1-5.7-1-1.2 0-3.1 0.7-1.9 0.7-3.9 2.3-1.9 1.6-3.5 4.1-1.5 2.4-2.1 5.9zm34.6 13.8v-0.4q0-0.4 0-0.9 0.1-0.5 0.1-0.9 0-3.3-0.1-5.8 0-2.5 0-4.4v-5q0-7 0.4-10.7 0.4-3.9 2.4-3.9 1 0 1.7 0.9 0.7 0.8 0.7 3.3v0.8q0.8-2.3 3.2-4.1 2.3-1.8 4.9-1.8 1.4 0 3.3 0.5 2 0.5 3.7 1.7 1.7 1.2 3 3.2 1.3 2 1.3 4.7 0.4-2.1 1.7-3.8 1.3-1.6 3-2.8 1.6-1.1 3.4-1.7 1.9-0.6 3.4-0.6 3.3 0 6 1.2 2.7 1.1 4.7 3.7 2 2.4 3 6.3 1 3.8 1 9.3 0 3.2-0.2 6.3-0.2 3-0.7 5.5-0.4 2.3-1.1 3.8-0.7 1.5-1.7 1.5-0.8 0-1.5-0.5-0.7-0.5-1.2-1.2-0.5-0.8-0.8-1.5-0.2-0.9-0.2-1.7 0-1.6 0.2-2.6 0.3-1.1 0.5-2 0.4-1 0.7-2.1 0.2-1.1 0.2-2.7 0-1.7 0-3.1 0.1-1.5 0.1-3.2 0-1.6-0.6-3.3-0.6-1.7-1.8-3.1-1.2-1.4-2.9-2.3-1.7-0.9-4-0.9-1.1 0-2.4 0.4-1.4 0.5-2.7 1.2-1.3 0.8-2.5 1.9-1 1.2-1.5 2.6l-0.5 16.2q0 0.1 0 0.5 0.1 0.3 0.2 0.8 0.1 0.3 0.1 0.7 0.1 0.4 0.1 0.5 0 2-0.8 3.5-0.7 1.3-1.9 1.3-1.4 0-2.7-0.7-1.2-0.9-1.2-3.7 0-0.1 0-0.6 0.1-0.5 0.1-1.1 0.1-0.7 0.2-1.3 0.1-0.7 0.1-1l0.2-12q0-1.6-0.6-3.5-0.4-1.8-1.3-3.3-1-1.5-2.4-2.4-1.4-1-3-1-4.5 0-6.1 1.9-1.7 1.7-1.7 5.7v1.6q0 2 0.1 4.2 0.1 2.1 0.3 4.1l0.7 9.2q-0.1 2-1.3 3.1-1.2 1-1.8 1-1.6 0-2.6-1-0.9-1.2-0.9-4.5zm58.6-12.1q0-4 1.2-7.9 1.2-3.9 3.5-6.8 2.3-3.1 5.7-4.8 3.4-1.9 7.7-1.9 3.7 0 6.5 2 2.8 2 3.1 5.4 0-1 0-2.7 0-1.9 0-4.1 0.1-2.3 0.1-4.6 0-2.5 0-4.7 0.1-2.3 0.1-4 0-1.9 0-2.8 0-4.2 3-4.2 1.2 0 1.7 1.2 0.5 1.2 0.5 2.6 0 0.7 0 2.5 0 1.6-0.1 3.5 0 1.9 0 3.5 0 1.7 0 2.4-0.2 6.2-0.2 10.6-0.1 4.2-0.2 7 0 2.8-0.1 4.4 0 1.5 0 2.3 0 0.7 0 0.9 0 0.2 0 0.2l-0.1 6.9q0 2.3-0.2 4.3-0.1 1.9-0.4 3.4-0.3 1.4-1 2.2-0.7 0.9-1.9 0.9-0.9 0-1.5-1.4-0.6-1.4-1.1-2.7-1 1.1-2.6 1.8-1.6 0.7-3.2 1.3-1.7 0.4-3.3 0.7-1.6 0.2-2.7 0.2-3.7 0-6.5-1.2-2.6-1.3-4.5-3.6-1.8-2.4-2.7-5.6-0.8-3.2-0.8-7.2zm5.5-0.2q0 5 2.9 7.9 2.9 2.8 7 2.8 2.6 0 4.6-0.5 2-0.6 3.4-1.4 1.4-0.8 2.1-1.7 0.9-0.8 1.1-1.5 0.4-1.5 0.4-3.2 0.1-1.6 0.1-3.2v-2.3q0-2.1-0.8-4-0.7-1.9-1.9-3.4-1.2-1.4-2.9-2.3-1.5-0.9-3.3-0.9-2.9 0-5.3 1.1-2.3 0.9-4 2.8-1.6 1.8-2.5 4.3-0.9 2.5-0.9 5.5zm34.3 2.3q0-4.2 1.5-8.4 1.5-4.3 4.1-7.6 2.6-3.4 6-5.4 3.5-2.1 7.4-2.1 3 0 5.6 1.4 2.7 1.4 4.6 3.7 1.9 2.2 3 5 1.1 2.8 1.1 5.6 0 1.5-0.1 2.9-0.2 1.3-0.5 2.7-0.1 1.3-0.3 2.8-0.2 1.4-0.2 3.3 0 2.4 0.7 3.4 0.7 0.9 2 0.9 0.8 0 1.5-0.9 0.8-0.8 1.4-1 2.2 0 2.2 3.3 0 1.1-0.4 2.1-0.4 1-1.2 1.9-0.8 0.8-1.8 1.4-1.1 0.5-2.3 0.5-1.2 0-2.4-0.7-1.2-0.7-2.1-1.7-1-1.1-1.6-2.5-0.6-1.5-0.6-3.1-2.6 3.3-5.9 5.8-3.2 2.6-7.1 2.6-2.6 0-5.2-1.2-2.5-1.3-4.6-3.4-2.1-2.1-3.5-5-1.3-3-1.3-6.3zm5.4-0.2q0 1.9 0.9 3.5 0.9 1.5 2.4 2.7 1.6 1 3.4 1.6 1.9 0.6 3.8 0.6 3.8 0 6.1-1.6 2.2-1.8 3.5-4.3 1.3-2.6 1.8-5.6 0.6-3 1-5.7 0-1-1-2.1-0.8-1.2-2.1-2.2-1.3-1-2.9-1.7-1.5-0.7-2.7-0.7-3.2 0-5.8 1.4-2.6 1.4-4.6 3.6-1.8 2.2-2.8 5-1 2.8-1 5.5zm52.6 15.6q-3.1 0-5-1.4-1.9-1.6-3-4.1-1-2.6-1.4-5.8-0.4-3.2-0.5-6.6-0.1-3.5-0.2-6.8 0-3.3-0.2-6-1 0-2 0.1-1.1 0.1-2.3 0.1-0.3 0-0.9-0.3-0.6-0.2-1.2-0.7-0.5-0.5-0.9-1.2-0.4-0.7-0.4-1.6 0-1.8 1.1-3 1-1.2 2.3-1.2 1.2 0 2.3 0.1 1.1 0 2.4 0.1 0-1.2 0.1-3.5 0.2-2.4 0.5-4.6 0.5-2.3 1.2-4 0.8-1.8 2.1-1.8 0.7 0 1.5 1.1 0.9 0.9 0.9 2.6 0 3.9-0.3 5.8-0.2 1.9-0.3 2.9l-0.3 1.6q3.1 0 6.3-0.1 3.2-0.1 6.4-0.1 0.6 0 1.1 0.4 0.4 0.5 0.7 1.1 0.2 0.7 0.3 1.4 0.2 0.7 0.2 1.3 0 1.9-1 2.8-0.9 0.9-1.7 0.9l-12.4-0.2q0 0.8-0.1 2.1 0 1.2 0 2.7 0 1.5 0 3.1 0 1.6 0 3.1 0 2.3 0.1 4.5 0.2 2.1 0.6 3.8 0.6 1.6 1.4 2.6 0.9 1 2.4 1 1 0 2.1-0.4 1.1-0.5 2-1 0.9-0.6 1.5-1 0.6-0.5 0.8-0.5 1.1 0 1.4 0.7 0.4 0.6 0.4 1.9 0 1.3-0.9 2.7-0.8 1.4-2 2.7-1.2 1.2-2.6 2-1.4 0.7-2.5 0.7zm22.5-47.3q-0.6 0-1.4-0.2-0.8-0.1-1.5-0.6-0.7-0.5-1.2-1.3-0.5-0.9-0.5-2.2 0-1 0.4-2 0.4-0.9 1-1.6 0.6-0.8 1.3-1.2 0.8-0.5 1.5-0.5 1.4 0 2.7 0.9 1.4 1 1.4 3.7 0 5-3.7 5zm-4.9 43.8q-0.1-0.5-0.3-2.1-0.1-1.8-0.1-6.2 0-1.7 0-4.4 0-2.8 0.1-5.8 0.2-3 0.5-6.1 0.3-3 0.8-5.4 0.5-2.5 1.3-4 0.7-1.5 1.9-1.5 1.4 0 1.6 1.2 0.4 1.2 0.4 2.9-0.2 3.6-0.6 8.2-0.3 4.6-0.3 8.9 0 3.2 0.5 7.1 0.5 3.9 0.5 6.9 0 2.1-0.8 3.2-0.9 1.1-1.9 1.1-1.4 0-2.3-0.9-0.9-0.9-1.3-3.1zm13.6-15.3q0-5.5 1.5-9.4 1.5-3.8 3.9-6.1 2.5-2.5 5.5-3.5 3.1-1.1 6.2-1.1 7.2 0 11.2 5.4 4 5.4 4 14.7 0 4.3-1.4 7.9-1.4 3.5-3.6 6.1-2.3 2.5-5.2 3.9-2.9 1.4-6 1.4-3.3 0-6.2-1.8-2.9-1.8-5.2-4.6-2.1-2.8-3.4-6.2-1.3-3.4-1.3-6.7zm15.7 11.9q2.2 0 4.2-0.8 2.1-0.9 3.6-2.4 1.7-1.6 2.6-3.9 1-2.2 1-5.2 0-2.7-0.7-5-0.7-2.2-1.9-3.8-1.2-1.6-2.9-2.5-1.6-0.9-3.5-0.9-2.3 0-4.7 0.8-2.2 0.7-4 2.2-1.9 1.4-3.1 3.6-1.1 2.2-1.1 5.1 0 2.3 0.8 4.7 0.9 2.2 2.4 4.1 1.5 1.8 3.4 2.9 1.9 1.1 3.9 1.1zm24.7 2.2l0.2-15.7q-0.2-2.1-0.3-3.4 0-1.4 0-2.3 0-0.8 0-1.3 0-0.4 0-0.8v-1.3q0-1.3 0-2.9 0.2-1.7 0.5-3.1 0.3-1.4 0.9-2.3 0.5-1 1.3-1 3.1 0 3.1 5.3 0 1-0.1 2-0.1 1.1-0.3 2.3 0.7-2.5 2.3-4.3 1.7-1.9 3.6-3.1 1.9-1.2 3.7-1.8 1.9-0.6 3.2-0.6 4.1 0 6.8 1.9 2.7 1.9 4.3 4.9 1.5 3.1 2.2 6.8 0.6 3.8 0.6 7.4 0 3.1-0.2 6.4-0.1 3.3-0.5 6.1-0.4 2.7-1.2 4.5-0.7 1.7-2 1.7-1.4 0-2.3-0.6-0.9-0.7-0.9-3.8 0-1.6 0.3-3 0.2-1.4 0.5-2.9 0.3-1.5 0.6-3 0.3-1.5 0.3-3.2 0-2.3-0.4-5-0.2-2.7-1.3-5.1-1-2.3-2.9-3.9-2-1.6-5.2-1.6-1.2 0-2.8 0.6-1.5 0.6-3.1 1.6-1.6 1-3 2.4-1.4 1.3-2.5 3 0 2-0.1 4.5 0 2.5 0 4.3 0 2.8 0.6 5.2 0.7 2.4 0.7 5.2 0 1.9-0.5 3.3-0.4 1.4-2.3 1.4-0.7 0-1.4-0.1-0.6-0.1-1.2-0.7-0.6-0.5-0.9-1.4-0.3-1-0.3-2.6zm38.8-0.3q0-2.3 0.9-3.8 0.9-1.7 2.9-1.7 0.7 0 1.4 0.5 0.6 0.6 1.2 1.4 0.5 0.8 0.8 1.8 0.3 0.9 0.3 1.8 0 2-1.2 3.6-1.2 1.7-2.6 1.7-2 0-2.9-1.3-0.8-1.3-0.8-4zm14.8-9.9q0-4.9 1.1-9.2 1.2-4.3 3.5-7.5 2.3-3.3 5.7-5.1 3.4-1.9 7.8-1.9 2.1 0 4 0.8 1.9 0.8 3.3 2.2 1.4 1.4 2.2 3.3 0.9 1.9 0.9 4.1 0 0.6-0.1 1.4-0.1 0.6-0.3 1.3-0.2 0.7-0.6 1.3-0.3 0.4-0.8 0.4-1.1 0-1.7-1-0.6-1.1-1.6-2.4-0.8-1.3-2.4-2.3-1.5-1.1-4.3-1.1-2.5 0-4.6 1.1-2.1 1.2-3.7 3.1-1.5 1.8-2.4 4.3-0.7 2.3-0.7 4.8 0 3 0.7 4.9 0.9 1.8 2.7 3 1.8 1 4.5 1.4 2.7 0.4 6.3 0.4 1.1 0 1.8-0.2 0.8-0.3 1.4-0.5 0.7-0.3 1.3-0.5 0.7-0.4 1.5-0.6 0.4 0 0.9 0.2 0.5 0.2 1 0.8 0.6 0.5 0.9 1.5 0.4 0.8 0.4 2.2 0 1.5-1.3 3-1.1 1.4-2 1.4h-2.4q-2.1 0-4 0.2-1.8 0.1-3.9 0.1-3.1 0-5.9-0.7-2.7-0.7-4.8-2.3-2-1.7-3.2-4.6-1.2-3-1.2-7.3zm35-3.9q0-5.5 1.5-9.4 1.5-3.8 3.9-6.1 2.5-2.5 5.5-3.5 3.1-1.1 6.2-1.1 7.2 0 11.2 5.4 4 5.4 4 14.7 0 4.3-1.4 7.9-1.4 3.5-3.6 6.1-2.3 2.5-5.2 3.9-2.9 1.4-6 1.4-3.3 0-6.2-1.8-2.9-1.8-5.2-4.6-2.1-2.8-3.4-6.2-1.3-3.4-1.3-6.7zm15.7 11.9q2.2 0 4.2-0.8 2.1-0.9 3.6-2.4 1.7-1.6 2.6-3.9 1-2.2 1-5.2 0-2.7-0.7-5-0.7-2.2-1.9-3.8-1.2-1.6-2.9-2.5-1.6-0.9-3.5-0.9-2.3 0-4.7 0.8-2.2 0.7-4 2.2-1.9 1.4-3.1 3.6-1.1 2.2-1.1 5.1 0 2.3 0.8 4.7 0.9 2.2 2.4 4.1 1.5 1.8 3.4 2.9 1.9 1.1 3.9 1.1zm23.7 1.5v-0.4q0-0.4 0-0.9 0.1-0.5 0.1-0.9 0-3.3-0.1-5.8 0-2.5 0-4.4v-5q0-7 0.4-10.7 0.4-3.9 2.4-3.9 1 0 1.7 0.9 0.7 0.8 0.7 3.3v0.8q0.8-2.3 3.2-4.1 2.3-1.8 4.9-1.8 1.4 0 3.3 0.5 2 0.5 3.7 1.7 1.7 1.2 3 3.2 1.3 2 1.3 4.7 0.4-2.1 1.7-3.8 1.3-1.6 3-2.8 1.6-1.1 3.4-1.7 1.9-0.6 3.4-0.6 3.3 0 6 1.2 2.7 1.1 4.7 3.7 2 2.4 3 6.3 1 3.8 1 9.3 0 3.2-0.2 6.3-0.2 3-0.7 5.5-0.4 2.3-1.1 3.8-0.7 1.5-1.7 1.5-0.8 0-1.5-0.5-0.7-0.5-1.2-1.2-0.5-0.8-0.8-1.5-0.2-0.9-0.2-1.7 0-1.6 0.2-2.6 0.3-1.1 0.5-2 0.4-1 0.7-2.1 0.2-1.1 0.2-2.7 0-1.7 0-3.1 0.1-1.5 0.1-3.2 0-1.6-0.6-3.3-0.6-1.7-1.8-3.1-1.2-1.4-2.9-2.3-1.7-0.9-4-0.9-1.1 0-2.4 0.4-1.4 0.5-2.7 1.2-1.3 0.8-2.5 1.9-1 1.2-1.5 2.6l-0.5 16.2q0 0.1 0 0.5 0.1 0.3 0.2 0.8 0.1 0.3 0.1 0.7 0.1 0.4 0.1 0.5 0 2-0.8 3.5-0.7 1.3-1.9 1.3-1.4 0-2.7-0.7-1.2-0.9-1.2-3.7 0-0.1 0-0.6 0.1-0.5 0.1-1.1 0.1-0.7 0.2-1.3 0.1-0.7 0.1-1l0.2-12q0-1.6-0.6-3.5-0.4-1.8-1.3-3.3-1-1.5-2.4-2.4-1.4-1-3-1-4.5 0-6.1 1.9-1.7 1.7-1.7 5.7v1.6q0 2 0.1 4.2 0.1 2.1 0.3 4.1l0.7 9.2q-0.1 2-1.3 3.1-1.2 1-1.8 1-1.6 0-2.6-1-0.9-1.2-0.9-4.5z"/>
</svg>