<svg version="1.2" xmlns="http://www.w3.org/2000/svg" viewBox="0 0 500 100" width="500" height="100">
	<style>
		.s0 { fill: #ffffff } 
	</style>
	<path id="Gemdation.com" class="s0" aria-label="Gemdation.com"  d="m21 73.6q-6.1 0-10.5-1.9-4.4-2.1-6.8-5.9-2.4-3.9-2.6-9.5-0.1-2.7-0.1-5.8 0-3.2 0.1-6 0.2-5.4 2.6-9.2 2.5-3.8 6.8-5.7 4.5-2 10.5-2 4.8 0 8.4 1.2 3.8 1.1 6.3 3.2 2.6 1.9 3.8 4.3 1.4 2.3 1.5 4.6 0 0.6-0.4 1-0.4 0.4-1 0.4h-9.4q-0.6 0-1-0.2-0.3-0.3-0.6-0.7-0.4-1-1.4-2-0.8-1.1-2.3-1.9-1.5-0.7-3.9-0.7-3.6 0-5.8 2-2 1.8-2.2 6-0.2 5.5 0 11.2 0.2 4.4 2.3 6.4 2.2 2 5.8 2 2.5 0 4.3-0.8 1.9-0.8 3-2.6 1.1-1.8 1.1-4.5v-1.2h-6.1q-0.6 0-1.1-0.5-0.5-0.5-0.5-1.2v-4.8q0-0.7 0.5-1.1 0.5-0.5 1.1-0.5h16.2q0.7 0 1.1 0.5 0.5 0.4 0.5 1.1v7.4q0 5.5-2.6 9.4-2.4 3.9-7 6-4.5 2-10.6 2zm42.1 0q-7.5 0-12.1-4.1-4.4-4.1-4.6-12.1 0-0.5 0-1.1 0-0.7 0-1.1 0.2-5.1 2.3-8.7 2.1-3.6 5.7-5.5 3.7-1.9 8.7-1.9 5.6 0 9.3 2.3 3.7 2.2 5.5 6.1 1.9 3.8 1.9 8.7v1.5q0 0.7-0.5 1.2-0.5 0.4-1.1 0.4h-20.5q0 0.1 0 0.2 0 0.1 0 0.3 0.1 1.8 0.6 3.4 0.6 1.5 1.8 2.4 1.2 0.8 3 0.8 1.2 0 2.1-0.3 0.9-0.4 1.4-1 0.6-0.5 1-0.9 0.5-0.7 0.8-0.8 0.4-0.2 1.2-0.2h7.9q0.7 0 1.1 0.4 0.4 0.3 0.3 0.9 0 1.1-1.1 2.7-1 1.5-3 3-1.9 1.5-4.9 2.5-2.9 0.9-6.8 0.9zm-5.4-20.8v0.2h10.8v-0.2q0-2-0.6-3.5-0.6-1.6-1.9-2.3-1.2-0.9-2.9-0.9-1.7 0-3 0.9-1.1 0.7-1.8 2.3-0.6 1.5-0.6 3.5zm37.3 20.2h-7.6q-0.7 0-1.2-0.4-0.5-0.5-0.5-1.2v-30.1q0-0.7 0.5-1.1 0.5-0.5 1.2-0.5h7q0.6 0 1 0.5 0.6 0.4 0.6 1.1v2.2q1.2-1.7 3.5-3 2.3-1.3 5.5-1.4 7.4-0.2 10.1 5.5 1.5-2.4 4.2-3.9 2.8-1.6 6-1.6 3.3 0 6 1.5 2.7 1.5 4.3 4.6 1.6 3.1 1.6 8v18.2q0 0.7-0.5 1.2-0.5 0.4-1.1 0.4h-7.5q-0.7 0-1.2-0.4-0.4-0.5-0.4-1.2v-17.8q0-2.2-0.7-3.4-0.6-1.4-1.8-2-1-0.6-2.4-0.6-1.2 0-2.3 0.6-1.1 0.6-1.8 2-0.6 1.2-0.6 3.4v17.8q0 0.7-0.5 1.2-0.4 0.4-1.1 0.4h-7.5q-0.6 0-1.2-0.4-0.4-0.5-0.4-1.2v-17.8q0-2.2-0.7-3.4-0.6-1.4-1.7-2-1.1-0.6-2.4-0.6-1.2 0-2.4 0.6-1 0.6-1.8 2-0.6 1.2-0.6 3.4v17.8q0 0.7-0.5 1.2-0.5 0.4-1.1 0.4zm62.2 0.6q-3.1 0-5.6-0.9-2.4-1.1-4.2-3-1.7-1.9-2.7-4.7-0.9-2.8-1.1-6.4-0.1-1.3-0.1-2.2 0-1.1 0.1-2.3 0.1-3.4 1-6.2 1-2.8 2.7-4.7 1.8-2 4.3-3 2.5-1.1 5.6-1.1 3.2 0 5.5 1.1 2.3 1 3.9 2.7v-13.7q0-0.7 0.4-1.1 0.5-0.5 1.2-0.5h7.8q0.7 0 1.1 0.5 0.5 0.4 0.5 1.1v42.2q0 0.7-0.5 1.2-0.4 0.4-1.1 0.4h-7.2q-0.7 0-1.2-0.4-0.4-0.5-0.4-1.2v-2.1q-1.6 1.9-4.1 3.2-2.3 1.1-5.9 1.1zm3.5-8.5q2.1 0 3.3-0.9 1.3-1 1.9-2.4 0.6-1.6 0.7-3.3 0.1-1.2 0.1-2.3 0-1.2-0.1-2.5-0.1-1.6-0.8-2.9-0.6-1.4-1.9-2.2-1.2-1-3.2-1-2.1 0-3.4 1-1.2 0.8-1.8 2.4-0.5 1.5-0.6 3.4-0.2 2 0 4 0.1 1.8 0.6 3.4 0.6 1.5 1.8 2.4 1.3 0.9 3.4 0.9zm34 8.5q-3.4 0-6.1-1.2-2.8-1.4-4.3-3.6-1.6-2.3-1.6-5.1 0-4.5 3.7-7.1 3.7-2.7 9.8-3.7l8-1.2v-0.9q0-2.3-0.9-3.5-1-1.2-3.5-1.2-1.8 0-3 0.7-1.1 0.7-1.7 1.9-0.6 0.8-1.6 0.8h-7.2q-0.7 0-1.1-0.4-0.4-0.4-0.3-1 0-1.1 0.8-2.6 0.9-1.6 2.7-3 1.8-1.5 4.6-2.4 2.8-1 6.8-1 4.2 0 7.1 1 3 0.9 4.8 2.6 1.8 1.7 2.7 4.1 0.9 2.4 0.9 5.1v19.5q0 0.7-0.5 1.2-0.4 0.4-1.1 0.4h-7.4q-0.7 0-1.2-0.4-0.4-0.5-0.4-1.2v-2.3q-0.9 1.3-2.3 2.3-1.4 1-3.3 1.7-1.9 0.5-4.4 0.5zm3-7.3q1.9 0 3.4-0.7 1.5-0.9 2.4-2.5 0.9-1.8 0.9-4.3v-0.9l-5.5 1q-3 0.5-4.4 1.6-1.3 1-1.3 2.4 0 1.1 0.5 1.8 0.7 0.8 1.8 1.3 1 0.3 2.2 0.3zm48.1 6.7h-6q-4.1 0-7.1-1.3-3-1.3-4.6-4.1-1.5-2.8-1.5-7.2v-12.3h-5.1q-0.7 0-1.2-0.4-0.4-0.5-0.4-1.2v-5.2q0-0.7 0.4-1.1 0.5-0.5 1.2-0.5h5.1v-10.5q0-0.7 0.4-1.1 0.5-0.5 1.2-0.5h7.4q0.7 0 1.1 0.5 0.5 0.4 0.5 1.1v10.5h8q0.7 0 1.1 0.5 0.5 0.4 0.5 1.1v5.2q0 0.7-0.5 1.2-0.4 0.4-1.1 0.4h-8v11.4q0 2.2 0.8 3.5 0.9 1.2 2.8 1.2h5q0.6 0 1 0.5 0.6 0.4 0.6 1.1v5.6q0 0.7-0.6 1.2-0.4 0.4-1 0.4zm15.1 0h-7.5q-0.7 0-1.2-0.4-0.5-0.5-0.5-1.2v-30.1q0-0.7 0.5-1.1 0.5-0.5 1.2-0.5h7.5q0.7 0 1.1 0.5 0.5 0.4 0.5 1.1v30.1q0 0.7-0.5 1.2-0.4 0.4-1.1 0.4zm0.1-38h-7.7q-0.7 0-1.2-0.5-0.4-0.5-0.4-1.2v-5.7q0-0.7 0.4-1.1 0.5-0.5 1.2-0.5h7.7q0.6 0 1.1 0.5 0.5 0.4 0.5 1.1v5.7q0 0.7-0.5 1.2-0.5 0.5-1.1 0.5zm25.5 38.6q-5.4 0-9.1-1.6-3.6-1.8-5.6-5-1.9-3.3-2.2-7.8-0.1-1.2-0.1-2.8 0-1.7 0.1-2.9 0.3-4.5 2.3-7.7 2.1-3.3 5.7-5 3.7-1.7 8.9-1.7 5.2 0 8.9 1.7 3.7 1.7 5.7 5 2.1 3.2 2.4 7.7 0.1 1.2 0 2.9 0.1 1.6 0 2.8-0.3 4.5-2.3 7.8-1.9 3.2-5.6 5-3.7 1.6-9.1 1.6zm0-7.8q2.9 0 4.2-1.6 1.3-1.8 1.5-5.3 0.1-0.9 0-2.5 0.1-1.6 0-2.6-0.2-3.4-1.5-5.1-1.3-1.8-4.2-1.8-2.8 0-4.1 1.8-1.4 1.7-1.5 5.1-0.1 1-0.1 2.6 0 1.6 0.1 2.5 0.1 3.5 1.5 5.3 1.3 1.6 4.1 1.6zm32.9 7.2h-8q-0.7 0-1.2-0.4-0.5-0.5-0.5-1.2v-30.1q0-0.7 0.5-1.1 0.5-0.5 1.2-0.5h7.4q0.6 0 1.1 0.5 0.5 0.4 0.5 1.1v2.5q1.6-2 4.3-3.3 2.7-1.4 6.3-1.4 3.7 0 6.6 1.7 2.8 1.6 4.4 4.9 1.7 3.1 1.7 7.8v17.9q0 0.7-0.5 1.2-0.4 0.4-1.1 0.4h-8.1q-0.6 0-1.1-0.4-0.5-0.5-0.5-1.2v-17.5q0-3-1.4-4.6-1.5-1.7-4.2-1.7-2.7 0-4.3 1.7-1.5 1.6-1.5 4.6v17.5q0 0.7-0.5 1.2-0.5 0.4-1.1 0.4zm40.8 0h-8.2q-0.6 0-1.2-0.4-0.4-0.5-0.4-1.2v-8.1q0-0.7 0.4-1.1 0.6-0.6 1.2-0.6h8.2q0.6 0 1.1 0.6 0.5 0.4 0.5 1.1v8.1q0 0.7-0.5 1.2-0.5 0.4-1.1 0.4zm23.9 0.6q-4.7 0-8.4-1.6-3.7-1.8-5.8-5.1-2.1-3.3-2.3-7.9-0.1-1-0.1-2.6 0-1.6 0.1-2.6 0.2-4.7 2.3-7.9 2.1-3.4 5.7-5.1 3.8-1.7 8.5-1.7 4.4 0 7.5 1.3 3.2 1.2 5.1 3.1 2.1 1.8 3 3.8 1 1.9 1.1 3.4 0 0.6-0.5 1.1-0.5 0.5-1.1 0.5h-8.2q-0.7 0-1-0.4-0.4-0.3-0.7-0.9-0.8-2-2-2.8-1.2-0.9-3-0.9-2.6 0-4 1.7-1.4 1.7-1.5 5.1-0.1 2.6 0 4.5 0.2 3.6 1.5 5.2 1.4 1.6 4 1.6 2 0 3.1-0.8 1.1-0.9 1.9-2.8 0.3-0.7 0.6-1 0.4-0.3 1.1-0.3h8.2q0.6 0 1.1 0.5 0.5 0.4 0.5 1.1-0.1 1-0.7 2.5-0.5 1.4-1.8 3.1-1.2 1.5-3.2 2.9-1.9 1.3-4.6 2.2-2.8 0.8-6.4 0.8zm38.4 0q-5.4 0-9.1-1.6-3.6-1.8-5.6-5-1.9-3.3-2.2-7.8-0.1-1.2-0.1-2.8 0-1.7 0.1-2.9 0.3-4.5 2.3-7.7 2.1-3.3 5.7-5 3.7-1.7 8.9-1.7 5.2 0 8.9 1.7 3.7 1.7 5.7 5 2.1 3.2 2.4 7.7 0.1 1.2 0 2.9 0.1 1.6 0 2.8-0.3 4.5-2.3 7.8-1.9 3.2-5.6 5-3.7 1.6-9.1 1.6zm0-7.8q2.9 0 4.2-1.6 1.3-1.8 1.5-5.3 0.1-0.9 0-2.5 0.1-1.6 0-2.6-0.2-3.4-1.5-5.1-1.3-1.8-4.2-1.8-2.8 0-4.1 1.8-1.4 1.7-1.5 5.1-0.1 1-0.1 2.6 0 1.6 0.1 2.5 0.1 3.5 1.5 5.3 1.3 1.6 4.1 1.6zm32.5 7.2h-7.6q-0.7 0-1.2-0.4-0.5-0.5-0.5-1.2v-30.1q0-0.7 0.5-1.1 0.5-0.5 1.2-0.5h7q0.6 0 1 0.5 0.6 0.4 0.6 1.1v2.2q1.2-1.7 3.5-3 2.3-1.3 5.5-1.4 7.4-0.2 10.1 5.5 1.5-2.4 4.2-3.9 2.8-1.6 6-1.6 3.3 0 6 1.5 2.7 1.5 4.3 4.6 1.6 3.1 1.6 8v18.2q0 0.7-0.5 1.2-0.5 0.4-1.1 0.4h-7.5q-0.7 0-1.2-0.4-0.4-0.5-0.4-1.2v-17.8q0-2.2-0.7-3.4-0.6-1.4-1.8-2-1-0.6-2.4-0.6-1.2 0-2.3 0.6-1.1 0.6-1.8 2-0.6 1.2-0.6 3.4v17.8q0 0.7-0.5 1.2-0.4 0.4-1.1 0.4h-7.5q-0.6 0-1.2-0.4-0.4-0.5-0.4-1.2v-17.8q0-2.2-0.7-3.4-0.6-1.4-1.7-2-1.1-0.6-2.4-0.6-1.2 0-2.4 0.6-1 0.6-1.8 2-0.6 1.2-0.6 3.4v17.8q0 0.7-0.5 1.2-0.5 0.4-1.1 0.4z"/>
</svg>