<svg version="1.2" xmlns="http://www.w3.org/2000/svg" viewBox="0 0 500 100" width="500" height="100">
	<style>
		.s0 { fill: #ffffff } 
	</style>
	<path id="Gemdation.com" class="s0" aria-label="Gemdation.com"  d="m7.5 68.6c0 1.4 1 2.4 2.4 2.4 1.4 0 2.5-1 2.5-2.4 0-1.4-1.1-2.5-2.5-2.5-1.4 0-2.4 1.1-2.4 2.5zm6.5 0c0 1.4 1 2.4 2.4 2.4 1.4 0 2.5-1 2.5-2.4 0-1.4-1.1-2.5-2.5-2.5-1.4 0-2.4 1.1-2.4 2.5zm6.5 0c0 1.4 1 2.4 2.4 2.4 1.4 0 2.5-1 2.5-2.4 0-1.4-1.1-2.5-2.5-2.5-1.4 0-2.4 1.1-2.4 2.5zm6.5 0c0 1.4 1 2.4 2.4 2.4 1.4 0 2.5-1 2.5-2.4 0-1.4-1.1-2.5-2.5-2.5-1.4 0-2.4 1.1-2.4 2.5zm-26-6.5c0 1.4 1 2.4 2.4 2.4 1.4 0 2.5-1 2.5-2.4 0-1.4-1.1-2.5-2.5-2.5-1.4 0-2.4 1.1-2.4 2.5zm26 0c0 1.4 1 2.4 2.4 2.4 1.4 0 2.5-1 2.5-2.4 0-1.4-1.1-2.5-2.5-2.5-1.4 0-2.4 1.1-2.4 2.5zm-26-6.5c0 1.4 1 2.4 2.4 2.4 1.4 0 2.5-1 2.5-2.4 0-1.4-1.1-2.5-2.5-2.5-1.4 0-2.4 1.1-2.4 2.5zm26 0c0 1.4 1 2.4 2.4 2.4 1.4 0 2.5-1 2.5-2.4 0-1.4-1.1-2.5-2.5-2.5-1.4 0-2.4 1.1-2.4 2.5zm-26-6.5c0 1.4 1 2.4 2.4 2.4 1.4 0 2.5-1 2.5-2.4 0-1.4-1.1-2.5-2.5-2.5-1.4 0-2.4 1.1-2.4 2.5zm0-6.5c0 1.4 1 2.4 2.4 2.4 1.4 0 2.5-1 2.5-2.4 0-1.4-1.1-2.5-2.5-2.5-1.4 0-2.4 1.1-2.4 2.5zm0-6.5c0 1.4 1 2.4 2.4 2.4 1.4 0 2.5-1 2.5-2.4 0-1.4-1.1-2.5-2.5-2.5-1.4 0-2.4 1.1-2.4 2.5zm26 0c0 1.4 1 2.4 2.4 2.4 1.4 0 2.5-1 2.5-2.4 0-1.4-1.1-2.5-2.5-2.5-1.4 0-2.4 1.1-2.4 2.5zm-19.5-6.5c0 1.4 1 2.4 2.4 2.4 1.4 0 2.5-1 2.5-2.4 0-1.4-1.1-2.5-2.5-2.5-1.4 0-2.4 1.1-2.4 2.5zm6.5 0c0 1.4 1 2.4 2.4 2.4 1.4 0 2.5-1 2.5-2.4 0-1.4-1.1-2.5-2.5-2.5-1.4 0-2.4 1.1-2.4 2.5zm6.5 0c0 1.4 1 2.4 2.4 2.4 1.4 0 2.5-1 2.5-2.4 0-1.4-1.1-2.5-2.5-2.5-1.4 0-2.4 1.1-2.4 2.5zm0 26c0 1.4 1 2.4 2.4 2.4 1.4 0 2.5-1 2.5-2.4 0-1.4-1.1-2.5-2.5-2.5-1.4 0-2.4 1.1-2.4 2.5zm26 13c0 1.4 1 2.4 2.4 2.4 1.4 0 2.5-1 2.5-2.4 0-1.4-1.1-2.5-2.5-2.5-1.4 0-2.4 1.1-2.4 2.5zm6.5 0c0 1.4 1 2.4 2.4 2.4 1.4 0 2.5-1 2.5-2.4 0-1.4-1.1-2.5-2.5-2.5-1.4 0-2.4 1.1-2.4 2.5zm6.5 0c0 1.4 1 2.4 2.4 2.4 1.4 0 2.5-1 2.5-2.4 0-1.4-1.1-2.5-2.5-2.5-1.4 0-2.4 1.1-2.4 2.5zm6.5 0c0 1.4 1 2.4 2.4 2.4 1.4 0 2.5-1 2.5-2.4 0-1.4-1.1-2.5-2.5-2.5-1.4 0-2.4 1.1-2.4 2.5zm-26-6.5c0 1.4 1 2.4 2.4 2.4 1.4 0 2.5-1 2.5-2.4 0-1.4-1.1-2.5-2.5-2.5-1.4 0-2.4 1.1-2.4 2.5zm0-6.5c0 1.4 1 2.4 2.4 2.4 1.4 0 2.5-1 2.5-2.4 0-1.4-1.1-2.5-2.5-2.5-1.4 0-2.4 1.1-2.4 2.5zm6.5 0c0 1.4 1 2.4 2.4 2.4 1.4 0 2.5-1 2.5-2.4 0-1.4-1.1-2.5-2.5-2.5-1.4 0-2.4 1.1-2.4 2.5zm6.5 0c0 1.4 1 2.4 2.4 2.4 1.4 0 2.5-1 2.5-2.4 0-1.4-1.1-2.5-2.5-2.5-1.4 0-2.4 1.1-2.4 2.5zm6.5 0c0 1.4 1 2.4 2.4 2.4 1.4 0 2.5-1 2.5-2.4 0-1.4-1.1-2.5-2.5-2.5-1.4 0-2.4 1.1-2.4 2.5zm6.5 0c0 1.4 1 2.4 2.4 2.4 1.4 0 2.5-1 2.5-2.4 0-1.4-1.1-2.5-2.5-2.5-1.4 0-2.4 1.1-2.4 2.5zm-26-6.5c0 1.4 1 2.4 2.4 2.4 1.4 0 2.5-1 2.5-2.4 0-1.4-1.1-2.5-2.5-2.5-1.4 0-2.4 1.1-2.4 2.5zm26 0c0 1.4 1 2.4 2.4 2.4 1.4 0 2.5-1 2.5-2.4 0-1.4-1.1-2.5-2.5-2.5-1.4 0-2.4 1.1-2.4 2.5zm-19.5-6.5c0 1.4 1 2.4 2.4 2.4 1.4 0 2.5-1 2.5-2.4 0-1.4-1.1-2.5-2.5-2.5-1.4 0-2.4 1.1-2.4 2.5zm6.5 0c0 1.4 1 2.4 2.4 2.4 1.4 0 2.5-1 2.5-2.4 0-1.4-1.1-2.5-2.5-2.5-1.4 0-2.4 1.1-2.4 2.5zm6.5 0c0 1.4 1 2.4 2.4 2.4 1.4 0 2.5-1 2.5-2.4 0-1.4-1.1-2.5-2.5-2.5-1.4 0-2.4 1.1-2.4 2.5zm19.5 26c0 1.4 1 2.4 2.4 2.4 1.4 0 2.5-1 2.5-2.4 0-1.4-1.1-2.5-2.5-2.5-1.4 0-2.4 1.1-2.4 2.5zm13 0c0 1.4 1 2.4 2.4 2.4 1.4 0 2.5-1 2.5-2.4 0-1.4-1.1-2.5-2.5-2.5-1.4 0-2.4 1.1-2.4 2.5zm13 0c0 1.4 1 2.4 2.4 2.4 1.4 0 2.5-1 2.5-2.4 0-1.4-1.1-2.5-2.5-2.5-1.4 0-2.4 1.1-2.4 2.5zm-26-6.5c0 1.4 1 2.4 2.4 2.4 1.4 0 2.5-1 2.5-2.4 0-1.4-1.1-2.5-2.5-2.5-1.4 0-2.4 1.1-2.4 2.5zm13 0c0 1.4 1 2.4 2.4 2.4 1.4 0 2.5-1 2.5-2.4 0-1.4-1.1-2.5-2.5-2.5-1.4 0-2.4 1.1-2.4 2.5zm13 0c0 1.4 1 2.4 2.4 2.4 1.4 0 2.5-1 2.5-2.4 0-1.4-1.1-2.5-2.5-2.5-1.4 0-2.4 1.1-2.4 2.5zm-26-6.5c0 1.4 1 2.4 2.4 2.4 1.4 0 2.5-1 2.5-2.4 0-1.4-1.1-2.5-2.5-2.5-1.4 0-2.4 1.1-2.4 2.5zm13 0c0 1.4 1 2.4 2.4 2.4 1.4 0 2.5-1 2.5-2.4 0-1.4-1.1-2.5-2.5-2.5-1.4 0-2.4 1.1-2.4 2.5zm13 0c0 1.4 1 2.4 2.4 2.4 1.4 0 2.5-1 2.5-2.4 0-1.4-1.1-2.5-2.5-2.5-1.4 0-2.4 1.1-2.4 2.5zm-26-6.5c0 1.4 1 2.4 2.4 2.4 1.4 0 2.5-1 2.5-2.4 0-1.4-1.1-2.5-2.5-2.5-1.4 0-2.4 1.1-2.4 2.5zm6.5 0c0 1.4 1 2.4 2.4 2.4 1.4 0 2.5-1 2.5-2.4 0-1.4-1.1-2.5-2.5-2.5-1.4 0-2.4 1.1-2.4 2.5zm6.5 0c0 1.4 1 2.4 2.4 2.4 1.4 0 2.5-1 2.5-2.4 0-1.4-1.1-2.5-2.5-2.5-1.4 0-2.4 1.1-2.4 2.5zm6.5 0c0 1.4 1 2.4 2.4 2.4 1.4 0 2.5-1 2.5-2.4 0-1.4-1.1-2.5-2.5-2.5-1.4 0-2.4 1.1-2.4 2.5zm6.5 0c0 1.4 1 2.4 2.4 2.4 1.4 0 2.5-1 2.5-2.4 0-1.4-1.1-2.5-2.5-2.5-1.4 0-2.4 1.1-2.4 2.5zm-26-6.5c0 1.4 1 2.4 2.4 2.4 1.4 0 2.5-1 2.5-2.4 0-1.4-1.1-2.5-2.5-2.5-1.4 0-2.4 1.1-2.4 2.5zm13 0c0 1.4 1 2.4 2.4 2.4 1.4 0 2.5-1 2.5-2.4 0-1.4-1.1-2.5-2.5-2.5-1.4 0-2.4 1.1-2.4 2.5zm13 0c0 1.4 1 2.4 2.4 2.4 1.4 0 2.5-1 2.5-2.4 0-1.4-1.1-2.5-2.5-2.5-1.4 0-2.4 1.1-2.4 2.5zm19.5 26c0 1.4 1 2.4 2.4 2.4 1.4 0 2.5-1 2.5-2.4 0-1.4-1.1-2.5-2.5-2.5-1.4 0-2.4 1.1-2.4 2.5zm6.5 0c0 1.4 1 2.4 2.4 2.4 1.4 0 2.5-1 2.5-2.4 0-1.4-1.1-2.5-2.5-2.5-1.4 0-2.4 1.1-2.4 2.5zm13 0c0 1.4 1 2.4 2.4 2.4 1.4 0 2.5-1 2.5-2.4 0-1.4-1.1-2.5-2.5-2.5-1.4 0-2.4 1.1-2.4 2.5zm-26-6.5c0 1.4 1 2.4 2.4 2.4 1.4 0 2.5-1 2.5-2.4 0-1.4-1.1-2.5-2.5-2.5-1.4 0-2.4 1.1-2.4 2.5zm19.5 0c0 1.4 1 2.4 2.4 2.4 1.4 0 2.5-1 2.5-2.4 0-1.4-1.1-2.5-2.5-2.5-1.4 0-2.4 1.1-2.4 2.5zm6.5 0c0 1.4 1 2.4 2.4 2.4 1.4 0 2.5-1 2.5-2.4 0-1.4-1.1-2.5-2.5-2.5-1.4 0-2.4 1.1-2.4 2.5zm-26-6.5c0 1.4 1 2.4 2.4 2.4 1.4 0 2.5-1 2.5-2.4 0-1.4-1.1-2.5-2.5-2.5-1.4 0-2.4 1.1-2.4 2.5zm26 0c0 1.4 1 2.4 2.4 2.4 1.4 0 2.5-1 2.5-2.4 0-1.4-1.1-2.5-2.5-2.5-1.4 0-2.4 1.1-2.4 2.5zm-26-6.5c0 1.4 1 2.4 2.4 2.4 1.4 0 2.5-1 2.5-2.4 0-1.4-1.1-2.5-2.5-2.5-1.4 0-2.4 1.1-2.4 2.5zm26 0c0 1.4 1 2.4 2.4 2.4 1.4 0 2.5-1 2.5-2.4 0-1.4-1.1-2.5-2.5-2.5-1.4 0-2.4 1.1-2.4 2.5zm-19.5-6.5c0 1.4 1 2.4 2.4 2.4 1.4 0 2.5-1 2.5-2.4 0-1.4-1.1-2.5-2.5-2.5-1.4 0-2.4 1.1-2.4 2.5zm6.5 0c0 1.4 1 2.4 2.4 2.4 1.4 0 2.5-1 2.5-2.4 0-1.4-1.1-2.5-2.5-2.5-1.4 0-2.4 1.1-2.4 2.5zm6.5 0c0 1.4 1 2.4 2.4 2.4 1.4 0 2.5-1 2.5-2.4 0-1.4-1.1-2.5-2.5-2.5-1.4 0-2.4 1.1-2.4 2.5zm6.5 0c0 1.4 1 2.4 2.4 2.4 1.4 0 2.5-1 2.5-2.4 0-1.4-1.1-2.5-2.5-2.5-1.4 0-2.4 1.1-2.4 2.5zm0-6.5c0 1.4 1 2.4 2.4 2.4 1.4 0 2.5-1 2.5-2.4 0-1.4-1.1-2.5-2.5-2.5-1.4 0-2.4 1.1-2.4 2.5zm0-6.5c0 1.4 1 2.4 2.4 2.4 1.4 0 2.5-1 2.5-2.4 0-1.4-1.1-2.5-2.5-2.5-1.4 0-2.4 1.1-2.4 2.5zm19.5 39c0 1.4 1 2.4 2.4 2.4 1.4 0 2.5-1 2.5-2.4 0-1.4-1.1-2.5-2.5-2.5-1.4 0-2.4 1.1-2.4 2.5zm6.5 0c0 1.4 1 2.4 2.4 2.4 1.4 0 2.5-1 2.5-2.4 0-1.4-1.1-2.5-2.5-2.5-1.4 0-2.4 1.1-2.4 2.5zm6.5 0c0 1.4 1 2.4 2.4 2.4 1.4 0 2.5-1 2.5-2.4 0-1.4-1.1-2.5-2.5-2.5-1.4 0-2.4 1.1-2.4 2.5zm6.5 0c0 1.4 1 2.4 2.4 2.4 1.4 0 2.5-1 2.5-2.4 0-1.4-1.1-2.5-2.5-2.5-1.4 0-2.4 1.1-2.4 2.5zm-26-6.5c0 1.4 1 2.4 2.4 2.4 1.4 0 2.5-1 2.5-2.4 0-1.4-1.1-2.5-2.5-2.5-1.4 0-2.4 1.1-2.4 2.5zm26 0c0 1.4 1 2.4 2.4 2.4 1.4 0 2.5-1 2.5-2.4 0-1.4-1.1-2.5-2.5-2.5-1.4 0-2.4 1.1-2.4 2.5zm-19.5-6.5c0 1.4 1 2.4 2.4 2.4 1.4 0 2.5-1 2.5-2.4 0-1.4-1.1-2.5-2.5-2.5-1.4 0-2.4 1.1-2.4 2.5zm6.5 0c0 1.4 1 2.4 2.4 2.4 1.4 0 2.5-1 2.5-2.4 0-1.4-1.1-2.5-2.5-2.5-1.4 0-2.4 1.1-2.4 2.5zm6.5 0c0 1.4 1 2.4 2.4 2.4 1.4 0 2.5-1 2.5-2.4 0-1.4-1.1-2.5-2.5-2.5-1.4 0-2.4 1.1-2.4 2.5zm6.5 0c0 1.4 1 2.4 2.4 2.4 1.4 0 2.5-1 2.5-2.4 0-1.4-1.1-2.5-2.5-2.5-1.4 0-2.4 1.1-2.4 2.5zm0-6.5c0 1.4 1 2.4 2.4 2.4 1.4 0 2.5-1 2.5-2.4 0-1.4-1.1-2.5-2.5-2.5-1.4 0-2.4 1.1-2.4 2.5zm-19.5-6.5c0 1.4 1 2.4 2.4 2.4 1.4 0 2.5-1 2.5-2.4 0-1.4-1.1-2.5-2.5-2.5-1.4 0-2.4 1.1-2.4 2.5zm6.5 0c0 1.4 1 2.4 2.4 2.4 1.4 0 2.5-1 2.5-2.4 0-1.4-1.1-2.5-2.5-2.5-1.4 0-2.4 1.1-2.4 2.5zm6.5 0c0 1.4 1 2.4 2.4 2.4 1.4 0 2.5-1 2.5-2.4 0-1.4-1.1-2.5-2.5-2.5-1.4 0-2.4 1.1-2.4 2.5zm39 26c0 1.4 1 2.4 2.4 2.4 1.4 0 2.5-1 2.5-2.4 0-1.4-1.1-2.5-2.5-2.5-1.4 0-2.4 1.1-2.4 2.5zm6.5 0c0 1.4 1 2.4 2.4 2.4 1.4 0 2.5-1 2.5-2.4 0-1.4-1.1-2.5-2.5-2.5-1.4 0-2.4 1.1-2.4 2.5zm-13-6.5c0 1.4 1 2.4 2.4 2.4 1.4 0 2.5-1 2.5-2.4 0-1.4-1.1-2.5-2.5-2.5-1.4 0-2.4 1.1-2.4 2.5zm0-6.5c0 1.4 1 2.4 2.4 2.4 1.4 0 2.5-1 2.5-2.4 0-1.4-1.1-2.5-2.5-2.5-1.4 0-2.4 1.1-2.4 2.5zm0-6.5c0 1.4 1 2.4 2.4 2.4 1.4 0 2.5-1 2.5-2.4 0-1.4-1.1-2.5-2.5-2.5-1.4 0-2.4 1.1-2.4 2.5zm-13-6.5c0 1.4 1 2.4 2.4 2.4 1.4 0 2.5-1 2.5-2.4 0-1.4-1.1-2.5-2.5-2.5-1.4 0-2.4 1.1-2.4 2.5zm6.5 0c0 1.4 1 2.4 2.4 2.4 1.4 0 2.5-1 2.5-2.4 0-1.4-1.1-2.5-2.5-2.5-1.4 0-2.4 1.1-2.4 2.5zm6.5 0c0 1.4 1 2.4 2.4 2.4 1.4 0 2.5-1 2.5-2.4 0-1.4-1.1-2.5-2.5-2.5-1.4 0-2.4 1.1-2.4 2.5zm6.5 0c0 1.4 1 2.4 2.4 2.4 1.4 0 2.5-1 2.5-2.4 0-1.4-1.1-2.5-2.5-2.5-1.4 0-2.4 1.1-2.4 2.5zm6.5 0c0 1.4 1 2.4 2.4 2.4 1.4 0 2.5-1 2.5-2.4 0-1.4-1.1-2.5-2.5-2.5-1.4 0-2.4 1.1-2.4 2.5zm-13-6.5c0 1.4 1 2.4 2.4 2.4 1.4 0 2.5-1 2.5-2.4 0-1.4-1.1-2.5-2.5-2.5-1.4 0-2.4 1.1-2.4 2.5zm26 32.5c0 1.4 1 2.4 2.4 2.4 1.4 0 2.5-1 2.5-2.4 0-1.4-1.1-2.5-2.5-2.5-1.4 0-2.4 1.1-2.4 2.5zm6.5 0c0 1.4 1 2.4 2.4 2.4 1.4 0 2.5-1 2.5-2.4 0-1.4-1.1-2.5-2.5-2.5-1.4 0-2.4 1.1-2.4 2.5zm6.5 0c0 1.4 1 2.4 2.4 2.4 1.4 0 2.5-1 2.5-2.4 0-1.4-1.1-2.5-2.5-2.5-1.4 0-2.4 1.1-2.4 2.5zm6.5 0c0 1.4 1 2.4 2.4 2.4 1.4 0 2.5-1 2.5-2.4 0-1.4-1.1-2.5-2.5-2.5-1.4 0-2.4 1.1-2.4 2.5zm6.5 0c0 1.4 1 2.4 2.4 2.4 1.4 0 2.5-1 2.5-2.4 0-1.4-1.1-2.5-2.5-2.5-1.4 0-2.4 1.1-2.4 2.5zm-13-6.5c0 1.4 1 2.4 2.4 2.4 1.4 0 2.5-1 2.5-2.4 0-1.4-1.1-2.5-2.5-2.5-1.4 0-2.4 1.1-2.4 2.5zm0-6.5c0 1.4 1 2.4 2.4 2.4 1.4 0 2.5-1 2.5-2.4 0-1.4-1.1-2.5-2.5-2.5-1.4 0-2.4 1.1-2.4 2.5zm0-6.5c0 1.4 1 2.4 2.4 2.4 1.4 0 2.5-1 2.5-2.4 0-1.4-1.1-2.5-2.5-2.5-1.4 0-2.4 1.1-2.4 2.5zm0-6.5c0 1.4 1 2.4 2.4 2.4 1.4 0 2.5-1 2.5-2.4 0-1.4-1.1-2.5-2.5-2.5-1.4 0-2.4 1.1-2.4 2.5zm-13 0c0 1.4 1 2.4 2.4 2.4 1.4 0 2.5-1 2.5-2.4 0-1.4-1.1-2.5-2.5-2.5-1.4 0-2.4 1.1-2.4 2.5zm6.5 0c0 1.4 1 2.4 2.4 2.4 1.4 0 2.5-1 2.5-2.4 0-1.4-1.1-2.5-2.5-2.5-1.4 0-2.4 1.1-2.4 2.5zm6.5-13c0 1.4 1 2.4 2.4 2.4 1.4 0 2.5-1 2.5-2.4 0-1.4-1.1-2.5-2.5-2.5-1.4 0-2.4 1.1-2.4 2.5zm32.5 39c0 1.4 1 2.4 2.4 2.4 1.4 0 2.5-1 2.5-2.4 0-1.4-1.1-2.5-2.5-2.5-1.4 0-2.4 1.1-2.4 2.5zm6.5 0c0 1.4 1 2.4 2.4 2.4 1.4 0 2.5-1 2.5-2.4 0-1.4-1.1-2.5-2.5-2.5-1.4 0-2.4 1.1-2.4 2.5zm6.5 0c0 1.4 1 2.4 2.4 2.4 1.4 0 2.5-1 2.5-2.4 0-1.4-1.1-2.5-2.5-2.5-1.4 0-2.4 1.1-2.4 2.5zm-19.5-6.5c0 1.4 1 2.4 2.4 2.4 1.4 0 2.5-1 2.5-2.4 0-1.4-1.1-2.5-2.5-2.5-1.4 0-2.4 1.1-2.4 2.5zm26 0c0 1.4 1 2.4 2.4 2.4 1.4 0 2.5-1 2.5-2.4 0-1.4-1.1-2.5-2.5-2.5-1.4 0-2.4 1.1-2.4 2.5zm-26-6.5c0 1.4 1 2.4 2.4 2.4 1.4 0 2.5-1 2.5-2.4 0-1.4-1.1-2.5-2.5-2.5-1.4 0-2.4 1.1-2.4 2.5zm26 0c0 1.4 1 2.4 2.4 2.4 1.4 0 2.5-1 2.5-2.4 0-1.4-1.1-2.5-2.5-2.5-1.4 0-2.4 1.1-2.4 2.5zm-26-6.5c0 1.4 1 2.4 2.4 2.4 1.4 0 2.5-1 2.5-2.4 0-1.4-1.1-2.5-2.5-2.5-1.4 0-2.4 1.1-2.4 2.5zm6.5-6.5c0 1.4 1 2.4 2.4 2.4 1.4 0 2.5-1 2.5-2.4 0-1.4-1.1-2.5-2.5-2.5-1.4 0-2.4 1.1-2.4 2.5zm6.5 0c0 1.4 1 2.4 2.4 2.4 1.4 0 2.5-1 2.5-2.4 0-1.4-1.1-2.5-2.5-2.5-1.4 0-2.4 1.1-2.4 2.5zm6.5 0c0 1.4 1 2.4 2.4 2.4 1.4 0 2.5-1 2.5-2.4 0-1.4-1.1-2.5-2.5-2.5-1.4 0-2.4 1.1-2.4 2.5zm6.5 6.5c0 1.4 1 2.4 2.4 2.4 1.4 0 2.5-1 2.5-2.4 0-1.4-1.1-2.5-2.5-2.5-1.4 0-2.4 1.1-2.4 2.5zm13 19.5c0 1.4 1 2.4 2.4 2.4 1.4 0 2.5-1 2.5-2.4 0-1.4-1.1-2.5-2.5-2.5-1.4 0-2.4 1.1-2.4 2.5zm26 0c0 1.4 1 2.4 2.4 2.4 1.4 0 2.5-1 2.5-2.4 0-1.4-1.1-2.5-2.5-2.5-1.4 0-2.4 1.1-2.4 2.5zm-26-6.5c0 1.4 1 2.4 2.4 2.4 1.4 0 2.5-1 2.5-2.4 0-1.4-1.1-2.5-2.5-2.5-1.4 0-2.4 1.1-2.4 2.5zm26 0c0 1.4 1 2.4 2.4 2.4 1.4 0 2.5-1 2.5-2.4 0-1.4-1.1-2.5-2.5-2.5-1.4 0-2.4 1.1-2.4 2.5zm-26-6.5c0 1.4 1 2.4 2.4 2.4 1.4 0 2.5-1 2.5-2.4 0-1.4-1.1-2.5-2.5-2.5-1.4 0-2.4 1.1-2.4 2.5zm26 0c0 1.4 1 2.4 2.4 2.4 1.4 0 2.5-1 2.5-2.4 0-1.4-1.1-2.5-2.5-2.5-1.4 0-2.4 1.1-2.4 2.5zm-26-6.5c0 1.4 1 2.4 2.4 2.4 1.4 0 2.5-1 2.5-2.4 0-1.4-1.1-2.5-2.5-2.5-1.4 0-2.4 1.1-2.4 2.5zm6.5 0c0 1.4 1 2.4 2.4 2.4 1.4 0 2.5-1 2.5-2.4 0-1.4-1.1-2.5-2.5-2.5-1.4 0-2.4 1.1-2.4 2.5zm19.5 0c0 1.4 1 2.4 2.4 2.4 1.4 0 2.5-1 2.5-2.4 0-1.4-1.1-2.5-2.5-2.5-1.4 0-2.4 1.1-2.4 2.5zm-26-6.5c0 1.4 1 2.4 2.4 2.4 1.4 0 2.5-1 2.5-2.4 0-1.4-1.1-2.5-2.5-2.5-1.4 0-2.4 1.1-2.4 2.5zm13 0c0 1.4 1 2.4 2.4 2.4 1.4 0 2.5-1 2.5-2.4 0-1.4-1.1-2.5-2.5-2.5-1.4 0-2.4 1.1-2.4 2.5zm6.5 0c0 1.4 1 2.4 2.4 2.4 1.4 0 2.5-1 2.5-2.4 0-1.4-1.1-2.5-2.5-2.5-1.4 0-2.4 1.1-2.4 2.5zm32.5 26c0 1.4 1 2.4 2.4 2.4 1.4 0 2.5-1 2.5-2.4 0-1.4-1.1-2.5-2.5-2.5-1.4 0-2.4 1.1-2.4 2.5zm0-6.5c0 1.4 1 2.4 2.4 2.4 1.4 0 2.5-1 2.5-2.4 0-1.4-1.1-2.5-2.5-2.5-1.4 0-2.4 1.1-2.4 2.5zm32.5 6.5c0 1.4 1 2.4 2.4 2.4 1.4 0 2.5-1 2.5-2.4 0-1.4-1.1-2.5-2.5-2.5-1.4 0-2.4 1.1-2.4 2.5zm6.5 0c0 1.4 1 2.4 2.4 2.4 1.4 0 2.5-1 2.5-2.4 0-1.4-1.1-2.5-2.5-2.5-1.4 0-2.4 1.1-2.4 2.5zm6.5 0c0 1.4 1 2.4 2.4 2.4 1.4 0 2.5-1 2.5-2.4 0-1.4-1.1-2.5-2.5-2.5-1.4 0-2.4 1.1-2.4 2.5zm-19.5-6.5c0 1.4 1 2.4 2.4 2.4 1.4 0 2.5-1 2.5-2.4 0-1.4-1.1-2.5-2.5-2.5-1.4 0-2.4 1.1-2.4 2.5zm26 0c0 1.4 1 2.4 2.4 2.4 1.4 0 2.5-1 2.5-2.4 0-1.4-1.1-2.5-2.5-2.5-1.4 0-2.4 1.1-2.4 2.5zm-26-6.5c0 1.4 1 2.4 2.4 2.4 1.4 0 2.5-1 2.5-2.4 0-1.4-1.1-2.5-2.5-2.5-1.4 0-2.4 1.1-2.4 2.5zm0-6.5c0 1.4 1 2.4 2.4 2.4 1.4 0 2.5-1 2.5-2.4 0-1.4-1.1-2.5-2.5-2.5-1.4 0-2.4 1.1-2.4 2.5zm26 0c0 1.4 1 2.4 2.4 2.4 1.4 0 2.5-1 2.5-2.4 0-1.4-1.1-2.5-2.5-2.5-1.4 0-2.4 1.1-2.4 2.5zm-19.5-6.5c0 1.4 1 2.4 2.4 2.4 1.4 0 2.5-1 2.5-2.4 0-1.4-1.1-2.5-2.5-2.5-1.4 0-2.4 1.1-2.4 2.5zm6.5 0c0 1.4 1 2.4 2.4 2.4 1.4 0 2.5-1 2.5-2.4 0-1.4-1.1-2.5-2.5-2.5-1.4 0-2.4 1.1-2.4 2.5zm6.5 0c0 1.4 1 2.4 2.4 2.4 1.4 0 2.5-1 2.5-2.4 0-1.4-1.1-2.5-2.5-2.5-1.4 0-2.4 1.1-2.4 2.5zm26 26c0 1.4 1 2.4 2.4 2.4 1.4 0 2.5-1 2.5-2.4 0-1.4-1.1-2.5-2.5-2.5-1.4 0-2.4 1.1-2.4 2.5zm6.5 0c0 1.4 1 2.4 2.4 2.4 1.4 0 2.5-1 2.5-2.4 0-1.4-1.1-2.5-2.5-2.5-1.4 0-2.4 1.1-2.4 2.5zm6.5 0c0 1.4 1 2.4 2.4 2.4 1.4 0 2.5-1 2.5-2.4 0-1.4-1.1-2.5-2.5-2.5-1.4 0-2.4 1.1-2.4 2.5zm-19.5-6.5c0 1.4 1 2.4 2.4 2.4 1.4 0 2.5-1 2.5-2.4 0-1.4-1.1-2.5-2.5-2.5-1.4 0-2.4 1.1-2.4 2.5zm26 0c0 1.4 1 2.4 2.4 2.4 1.4 0 2.5-1 2.5-2.4 0-1.4-1.1-2.5-2.5-2.5-1.4 0-2.4 1.1-2.4 2.5zm-26-6.5c0 1.4 1 2.4 2.4 2.4 1.4 0 2.5-1 2.5-2.4 0-1.4-1.1-2.5-2.5-2.5-1.4 0-2.4 1.1-2.4 2.5zm26 0c0 1.4 1 2.4 2.4 2.4 1.4 0 2.5-1 2.5-2.4 0-1.4-1.1-2.5-2.5-2.5-1.4 0-2.4 1.1-2.4 2.5zm-26-6.5c0 1.4 1 2.4 2.4 2.4 1.4 0 2.5-1 2.5-2.4 0-1.4-1.1-2.5-2.5-2.5-1.4 0-2.4 1.1-2.4 2.5zm6.5-6.5c0 1.4 1 2.4 2.4 2.4 1.4 0 2.5-1 2.5-2.4 0-1.4-1.1-2.5-2.5-2.5-1.4 0-2.4 1.1-2.4 2.5zm6.5 0c0 1.4 1 2.4 2.4 2.4 1.4 0 2.5-1 2.5-2.4 0-1.4-1.1-2.5-2.5-2.5-1.4 0-2.4 1.1-2.4 2.5zm6.5 0c0 1.4 1 2.4 2.4 2.4 1.4 0 2.5-1 2.5-2.4 0-1.4-1.1-2.5-2.5-2.5-1.4 0-2.4 1.1-2.4 2.5zm6.5 6.5c0 1.4 1 2.4 2.4 2.4 1.4 0 2.5-1 2.5-2.4 0-1.4-1.1-2.5-2.5-2.5-1.4 0-2.4 1.1-2.4 2.5zm13 19.5c0 1.4 1 2.4 2.4 2.4 1.4 0 2.5-1 2.5-2.4 0-1.4-1.1-2.5-2.5-2.5-1.4 0-2.4 1.1-2.4 2.5zm13 0c0 1.4 1 2.4 2.4 2.4 1.4 0 2.5-1 2.5-2.4 0-1.4-1.1-2.5-2.5-2.5-1.4 0-2.4 1.1-2.4 2.5zm13 0c0 1.4 1 2.4 2.4 2.4 1.4 0 2.5-1 2.5-2.4 0-1.4-1.1-2.5-2.5-2.5-1.4 0-2.4 1.1-2.4 2.5zm-26-6.5c0 1.4 1 2.4 2.4 2.4 1.4 0 2.5-1 2.5-2.4 0-1.4-1.1-2.5-2.5-2.5-1.4 0-2.4 1.1-2.4 2.5zm13 0c0 1.4 1 2.4 2.4 2.4 1.4 0 2.5-1 2.5-2.4 0-1.4-1.1-2.5-2.5-2.5-1.4 0-2.4 1.1-2.4 2.5zm13 0c0 1.4 1 2.4 2.4 2.4 1.4 0 2.5-1 2.5-2.4 0-1.4-1.1-2.5-2.5-2.5-1.4 0-2.4 1.1-2.4 2.5zm-26-6.5c0 1.4 1 2.4 2.4 2.4 1.4 0 2.5-1 2.5-2.4 0-1.4-1.1-2.5-2.5-2.5-1.4 0-2.4 1.1-2.4 2.5zm13 0c0 1.4 1 2.4 2.4 2.4 1.4 0 2.5-1 2.5-2.4 0-1.4-1.1-2.5-2.5-2.5-1.4 0-2.4 1.1-2.4 2.5zm13 0c0 1.4 1 2.4 2.4 2.4 1.4 0 2.5-1 2.5-2.4 0-1.4-1.1-2.5-2.5-2.5-1.4 0-2.4 1.1-2.4 2.5zm-26-6.5c0 1.4 1 2.4 2.4 2.4 1.4 0 2.5-1 2.5-2.4 0-1.4-1.1-2.5-2.5-2.5-1.4 0-2.4 1.1-2.4 2.5zm6.5 0c0 1.4 1 2.4 2.4 2.4 1.4 0 2.5-1 2.5-2.4 0-1.4-1.1-2.5-2.5-2.5-1.4 0-2.4 1.1-2.4 2.5zm6.5 0c0 1.4 1 2.4 2.4 2.4 1.4 0 2.5-1 2.5-2.4 0-1.4-1.1-2.5-2.5-2.5-1.4 0-2.4 1.1-2.4 2.5zm6.5 0c0 1.4 1 2.4 2.4 2.4 1.4 0 2.5-1 2.5-2.4 0-1.4-1.1-2.5-2.5-2.5-1.4 0-2.4 1.1-2.4 2.5zm6.5 0c0 1.4 1 2.4 2.4 2.4 1.4 0 2.5-1 2.5-2.4 0-1.4-1.1-2.5-2.5-2.5-1.4 0-2.4 1.1-2.4 2.5zm-26-6.5c0 1.4 1 2.4 2.4 2.4 1.4 0 2.5-1 2.5-2.4 0-1.4-1.1-2.5-2.5-2.5-1.4 0-2.4 1.1-2.4 2.5zm13 0c0 1.4 1 2.4 2.4 2.4 1.4 0 2.5-1 2.5-2.4 0-1.4-1.1-2.5-2.5-2.5-1.4 0-2.4 1.1-2.4 2.5zm13 0c0 1.4 1 2.4 2.4 2.4 1.4 0 2.5-1 2.5-2.4 0-1.4-1.1-2.5-2.5-2.5-1.4 0-2.4 1.1-2.4 2.5z"/>
</svg>