<svg version="1.2" xmlns="http://www.w3.org/2000/svg" viewBox="0 0 500 100" width="500" height="100">
	<style>
		.s0 { fill: #ffffff } 
	</style>
	<path id="Gemdation.com" class="s0" aria-label="Gemdation.com"  d="m36.5 46.7v30.3h-19.2q-7.7 0-11.8-4.1-4.1-4.1-4.1-13v-20.5q0-9 4-13 4-4 12-4h15.3v5.9h-15.2q-3.4 0-4.9 3-1.6 2.9-1.6 8.1v20.5q0 5.2 1.5 8.2 1.6 3.1 5 3.1h9.4v-18.5h-7.8v-6zm24.5-5.4q-4.9 0-6.7 3.9-1.4 2.9-1.4 9.2v3.6q0 7.4 2 10.4 1.9 2.7 6.1 2.7h12.7v5.9h-12.5q-10.3 0-14.7-6.3-3.2-4.5-3.2-11.6v-5.4q0-6.6 2.5-10.9 4.3-7.4 15.5-7.4 8.7 0 12.3 3.7 3.6 3.6 3.6 8.6 0 5.6-3.2 8.7-3.2 3.1-7 3.1h-9.8v-5.9h6.3q1.8 0 2.7-0.7 1.3-1.3 1.3-4.7v-1.5q0-2.7-1.3-4.1-1.3-1.3-5.2-1.3zm44.1 0h-10.7v35.7h-9.7v-41.6h33.7q16.8 0 16.8 18.9v22.7h-9.7v-22.6q0-6-1-8.9-1.6-4.2-5.6-4.2h-4.1v35.7h-9.7zm54.9 29.8h8v-48.7h9.6v54.6h-17.5q-10.2 0-14.7-6.3-3.2-4.5-3.2-11.7v-5.3q0-6.6 2.5-11 4.3-7.3 15.2-7.3h3.8v5.9h-3.8q-4.8 0-6.7 3.9-1.3 2.9-1.3 9.2v3.5q0 7.5 2 10.5 1.8 2.7 6.1 2.7zm24.3-6.8v-9.1q0-12.2 6.3-16.9 4-2.9 11.1-2.9h16.5v41.6h-9.6v-35.7h-7.8q-3 0-4.5 1.9-2.4 2.9-2.4 10.9v11.6q0 3.4 1.4 4.7 0.9 0.7 2.7 0.7h6.2v5.9h-9.6q-3.9 0-6.8-3-3.5-3.6-3.5-9.7zm50.9-35.9v7h10.4v5.9h-10.4v25.5q0 2.2 1 3.3 1 1 2.5 1h4.3v5.9h-6.4q-5.3 0-8.5-4.1-2.6-3.3-2.6-7.4v-37.1zm17.6 48.6v-41.6h9.6v41.6zm0-46.5v-8.1h9.5v8.1zm34.3 4.9q11.2 0 15.4 8.3 2.3 4.2 2.3 10v5q0 7.6-3.5 12.3-4.4 6-14 6-10.3 0-14.7-6.3-3.2-4.5-3.2-11.7v-5.3q0-6.6 2.5-11 4.3-7.3 15.2-7.3zm7.9 22.6v-3.6q0-6.4-1.3-9.3-1.8-3.8-6.6-3.8-4.9 0-6.7 3.9-1.3 2.9-1.3 9.2v3.5q0 7.5 1.9 10.5 1.9 2.7 6.1 2.7 4.6 0 6.4-3.4 1.5-3 1.5-9.7zm16.8-22.6h17.1q16.8 0 16.8 18.8v22.8h-9.7v-22.6q0-6-1-8.9-1.6-4.2-5.6-4.2h-7.9v35.7h-9.7zm41.9 41.6v-8.2h9.6v8.2zm44.5-35.7h-10.1q-4.9 0-6.7 3.9-1.3 2.9-1.3 9.2v3.5q0 7.5 1.9 10.5 1.9 2.7 6.1 2.7h10.1v5.9h-9.9q-10.3 0-14.7-6.3-3.2-4.5-3.2-11.7v-5.3q0-6.6 2.5-11 4.3-7.3 15.2-7.3h10.1zm23.9-5.9q11.2 0 15.4 8.2 2.3 4.3 2.3 10.1v5q0 7.6-3.5 12.3-4.5 6-14 6-10.3 0-14.7-6.3-3.2-4.5-3.2-11.7v-5.3q0-6.6 2.5-11 4.3-7.3 15.2-7.3zm7.9 22.6v-3.6q0-6.4-1.3-9.3-1.8-3.8-6.6-3.8-4.9 0-6.7 3.9-1.3 2.9-1.3 9.2v3.5q0 7.5 1.9 10.5 1.9 2.7 6.1 2.7 4.6 0 6.4-3.5 1.5-2.9 1.5-9.6zm37.2-16.7h-10.7v35.7h-9.7v-41.6h33.7q16.8 0 16.8 18.8v22.8h-9.7v-22.6q0-6-1-8.9-1.6-4.2-5.6-4.2h-4.1v35.7h-9.7z"/>
</svg>