<svg version="1.2" xmlns="http://www.w3.org/2000/svg" viewBox="0 0 500 100" width="500" height="100">
	<style>
		.s0 { fill: #ffffff } 
	</style>
	<path id="Gemdation.com" class="s0" aria-label="Gemdation.com"  d="m23.5 76.9q-6.1 0-10.6-2.9-4.5-2.8-7-7.9-2.5-5.2-2.5-12.1 0-7 2.5-12.2 2.5-5.1 7.2-7.9 4.7-2.8 11-2.8 4.3 0 8 1.3 3.8 1.3 6.2 3.8-0.5 2.4-3 4.4-4.9-4.1-11.1-4.1-7.2 0-11.1 4.6-3.9 4.5-3.9 12.7 0 5.4 1.7 9.3 1.7 4 4.9 6.2 3.2 2.1 7.6 2.1 3.8 0 6.6-1.6 2.9-1.5 4.5-4.4 1.6-2.9 1.6-6.7 0-0.8-0.1-1.4h-14.2q-0.3-0.6-0.4-1.6-0.2-1 0-2 0.1-1.1 0.4-1.7h19.3q0.2 0.5 0.4 2.5 0.2 1.9 0.2 3.6 0 5.7-2.3 9.9-2.3 4.2-6.3 6.5-4.1 2.4-9.6 2.4zm21 0q-0.8 0-1.3-0.8-0.5-0.7-0.5-1.9 0-2.6 2.2-2.6 1.8 0 3.6-0.5 1.9-0.7 4.3-2.1-2.4-4.1-2.4-9.7 0-3.8 1.4-6.7 1.4-2.9 3.9-4.5 2.5-1.7 5.7-1.7 2.7 0 4.8 1.2 2 1.3 3.2 3.5 1.2 2.1 1.2 5 0 3.9-2.4 7.2-2.2 3.2-7.6 7 1.9 1.4 5.2 1.4 0.9 0 1.3 0.7 0.5 0.7 0.5 2 0 1.1-0.5 1.8-0.6 0.7-1.6 0.7-2.9 0-5.5-1-2.6-1-4.3-2.7-5.8 3.7-11.2 3.7zm11.2-18.1q0 4.8 1.7 7.7 4-2.8 5.9-5.4 2-2.6 2-5 0-2.2-1.1-3.4-1.1-1.3-3-1.3-2.4 0-3.9 2.2-1.6 2.1-1.6 5.2zm15.8 18.1q-0.8 0-1.3-0.8-0.5-0.7-0.5-1.9 0-2.6 2.2-2.6 2 0 3.5-1.9 1.6-2.1 2.8-6.7l1.8-7.1q2.6-9.5 9.8-9.5 2.6 0 4.4 1.5 1.9 1.4 2.7 4.1 1.4-2.7 3.6-4.2 2.4-1.4 5.2-1.4 6 0 8.1 6.1 1.5-2.9 4-4.5 2.5-1.6 5.7-1.6 4.3 0 6.6 2.7 2.4 2.7 2.4 7.7v8.5q0 3.4 0.8 4.8 0.9 1.5 2.9 1.5 0.8 0 1.3 0.7 0.4 0.8 0.4 2 0 1-0.5 1.8-0.5 0.8-1.7 0.8-8.8 0-8.8-10.9v-7.8q0-3.2-1.2-4.9-1.1-1.7-3.3-1.7-3.2 0-5.1 3.7-1.8 3.7-1.8 10.2v10.5q-0.6 0.2-1.3 0.3-0.8 0.1-1.5 0.1-1.4 0-2.8-0.4v-17q0-3.6-1.2-5.4-1.3-2-3.7-2-2.3 0-3.9 1.8-1.6 1.7-2.6 4.8-0.9 3.2-0.9 7.3v10.5q-0.7 0.2-1.4 0.3-0.7 0.1-1.4 0.1-1.5 0-2.7-0.4v-19.5q0-4.9-2.8-4.9-1.3 0-2.2 1.2-0.9 1.1-1.6 3.7l-2.3 8.8q-1.6 6-4.4 8.8-2.8 2.8-7.3 2.8zm65.4-5.3q2.1 0 4.1-2 2-2.1 3.3-5.6 0-0.8 0-1.7 0-4.6 1.8-8.2 1.8-3.6 4.9-5.7 3.2-2 7.2-2 2.2 0 4.2 0.8 2.1 0.8 3.5 2.2v-25.4q1.2-0.5 2.8-0.5 1.6 0 2.8 0.5v41.3q0 3.4 0.8 4.8 0.9 1.5 2.9 1.5 0.8 0 1.3 0.7 0.5 0.8 0.5 2 0 1-0.6 1.8-0.5 0.8-1.6 0.8-5.8 0-7.8-4.8-1.8 2.3-4.3 3.5-2.5 1.3-5.6 1.3-3.5 0-6.3-1.6-2.6-1.6-4.3-4.3-3.8 5.9-10 5.9-0.8 0-1.3-0.8-0.5-0.7-0.5-1.9 0-2.6 2.2-2.6zm13-9.3q0 4.4 2 6.9 2 2.4 5.5 2.4 3.8 0 6.1-2.6 2.4-2.6 2.4-6.9v-6.8q-1.2-1.7-3.1-2.7-1.9-1-3.9-1-2.6 0-4.6 1.4-2.1 1.4-3.2 3.8-1.2 2.4-1.2 5.5zm25 9.3q2.1 0 4.1-2 2-2.1 3.3-5.6 0-0.8 0-1.7 0-4.6 1.8-8.2 1.8-3.6 4.9-5.7 3.2-2 7.2-2 2.2 0 4.2 0.8 2.1 0.8 3.5 2.2v-2.5q0.6-0.2 1.3-0.3 0.7-0.1 1.5-0.1 1.5 0 2.8 0.4v17.9q0 3.2 0.9 5 1.1 1.8 3.5 1.8 1 0 1.4 0.9 0.3 0.8 0.3 1.8 0 1-0.5 1.8-0.5 0.8-1.7 0.8-5.9 0-8-5.4-1.7 2.5-4.4 4-2.6 1.4-5.9 1.4-3.5 0-6.3-1.6-2.6-1.6-4.3-4.3-3.8 5.9-10 5.9-0.8 0-1.3-0.8-0.5-0.7-0.5-1.9 0-2.6 2.2-2.6zm13-9.3q0 4.4 2 6.9 2 2.4 5.5 2.4 3.8 0 6.1-2.6 2.4-2.6 2.4-6.9v-6.8q-1.2-1.7-3.1-2.7-1.9-1-3.9-1-2.6 0-4.6 1.4-2.1 1.4-3.2 3.8-1.2 2.4-1.2 5.5zm26 9.3q1.6 0 3.5-0.9 2-0.9 3.9-3.1 1.9-2.2 3.1-5.9 1.3-3.8 1.3-9.5v-5.8h-6.8q-0.4-1-0.4-2.5 0-1.4 0.4-2.4h6.8v-10.8q1.1-0.4 2.8-0.4 1.4 0 2.8 0.4v10.8h9.1q0.5 1 0.5 2.4 0 1.5-0.5 2.5h-9.1v12.6q0 6.1 1.8 9.4 1.9 3.2 5.3 3.2 1.8 0 1.8 2.7 0 1.2-0.6 1.9-0.6 0.7-1.6 0.7-3.9 0-6.7-2.3-2.7-2.3-4-6.3-2.6 4.4-6.3 6.5-3.6 2.1-7.5 2.1-0.8 0-1.3-0.8-0.5-0.8-0.5-1.9 0-1.1 0.6-1.9 0.5-0.7 1.6-0.7zm24 0q1.3 0 2.8-0.8 1.4-0.8 2.7-2.4 1.6-2.1 2.2-4.8 0.8-2.7 0.9-5.4v-11q0.6-0.2 1.3-0.3 0.8-0.1 1.5-0.1 1.4 0 2.8 0.4v17.6q0 3.2 1 5 1 1.8 3.4 1.8 1 0 1.4 0.9 0.4 0.8 0.4 1.8 0 1-0.6 1.8-0.5 0.8-1.6 0.8-6.4 0-8.3-6-0.8 1.4-1.8 2.4-1.7 1.6-3.9 2.6-2.1 1-4.6 1-0.8 0-1.3-0.8-0.5-0.9-0.5-1.9 0-1 0.5-1.8 0.6-0.8 1.7-0.8zm11.5-33.2q-1.7 0-2.9-1.2-1.2-1.2-1.2-2.9 0-1.9 1.1-3 1.2-1.2 3-1.2 1.8 0 3 1.2 1.2 1.1 1.2 3 0 1.7-1.3 3-1.1 1.1-2.9 1.1zm7.5 33.2q2.1 0 3.9-1.9 2-1.9 3.3-5.2-0.2-1.4-0.2-3 0-4.3 1.9-7.8 1.9-3.4 5.1-5.3 3.3-2 7.4-2 4.1 0 7.3 2 3.2 1.9 5.1 5.3 1.9 3.5 1.9 7.8 0 4.4-1.9 7.9-1.9 3.5-5.1 5.5-3.2 2-7.3 2-3.7 0-6.8-1.6-3-1.7-4.9-4.5-3.8 6.1-10.1 6.1-0.8 0-1.3-0.8-0.5-0.7-0.5-1.9 0-2.6 2.2-2.6zm21.3 0q3.9 0 6.3-2.7 2.3-2.8 2.3-7.4 0-2.2-0.6-4.1-3.7-0.1-6.7-1.5-2.9-1.3-4.6-3.6-2.5 1-3.9 3.5-1.4 2.4-1.4 5.9 0 4.4 2.3 7.2 2.4 2.7 6.3 2.7zm16.3 5.3q-0.8 0-1.3-0.8-0.5-0.7-0.5-1.9 0-2.6 2.2-2.6 2 0 3.5-1.9 1.6-2.1 2.8-6.7l1.8-7.1q2.6-9.5 9.8-9.5 2.7 0 4.6 1.6 1.9 1.6 2.6 4.3 1.7-2.8 4.4-4.4 2.7-1.5 6-1.5 4.7 0 7.3 3.1 2.6 3.1 2.6 8.7v7.1q0 3.4 0.9 4.8 0.9 1.5 2.8 1.5 0.9 0 1.3 0.7 0.5 0.8 0.5 2 0 1-0.5 1.8-0.5 0.8-1.7 0.8-8.8 0-8.8-10.9v-7.8q0-6.6-5.2-6.6-2.7 0-4.8 2.1-2 2.2-3.1 6-1.1 3.7-1.1 8.7v7.6q-0.7 0.2-1.4 0.3-0.7 0.1-1.4 0.1-1.5 0-2.7-0.4v-19.5q0-2.3-0.6-3.6-0.7-1.3-2.2-1.3-1.3 0-2.2 1.2-0.9 1.1-1.6 3.7l-2.3 8.8q-1.6 6-4.4 8.8-2.8 2.8-7.3 2.8zm58 0q-1.7 0-2.9-1.3-1.2-1.2-1.2-3 0-1.7 1.2-2.9 1.2-1.2 2.9-1.2 1.7 0 3 1.2 1.2 1.2 1.2 2.9 0 1.8-1.2 3-1.3 1.3-3 1.3zm9.4-5.3q2 0 3.9-1.9 1.9-1.9 3.3-5.1-0.2-1.4-0.2-2.9 0-4.5 1.7-7.9 1.7-3.5 4.7-5.4 3-2 7-2 2.9 0 5.3 1.1 2.4 1.1 3.9 3.2-0.7 2.5-3.5 3.6-2-2.7-5.6-2.7-3.5 0-5.7 2.7-2.1 2.6-2.1 7.1 0 4.7 2.6 7.5 2.8 2.8 7.8 2.8 0.8 0 1.3 0.8 0.5 0.7 0.5 1.9 0 1.1-0.6 1.8-0.5 0.7-1.6 0.7-4.3 0-7.7-1.6-3.3-1.6-5.3-4.5-3.8 6.1-10.1 6.1-0.8 0-1.3-0.8-0.5-0.7-0.5-1.9 0-2.6 2.2-2.6zm29 0q2.1 0 3.9-1.9 2-1.9 3.3-5.2-0.2-1.4-0.2-3 0-4.3 1.9-7.8 1.9-3.4 5.1-5.3 3.3-2 7.4-2 4.1 0 7.3 2 3.2 1.9 5.1 5.3 1.9 3.5 1.9 7.8 0 4.4-1.9 7.9-1.9 3.5-5.1 5.5-3.2 2-7.3 2-3.7 0-6.8-1.6-3-1.7-4.9-4.5-3.8 6.1-10.1 6.1-0.8 0-1.3-0.8-0.5-0.7-0.5-1.9 0-2.6 2.2-2.6zm21.3 0q3.9 0 6.2-2.7 2.4-2.8 2.4-7.4 0-2.2-0.6-4.1-3.7-0.1-6.7-1.5-2.9-1.3-4.6-3.6-2.5 1-3.9 3.5-1.4 2.4-1.4 5.9 0 4.4 2.3 7.2 2.4 2.7 6.3 2.7zm17.3 5.3q-0.8 0-1.3-0.8-0.5-0.7-0.5-1.9 0-2.6 2.2-2.6 2 0 3.5-1.9 1.6-2.1 2.8-6.7l1.8-7.1q2.6-9.5 9.8-9.5 2.6 0 4.4 1.5 1.9 1.4 2.7 4.1 1.4-2.7 3.6-4.2 2.4-1.4 5.2-1.4 6 0 8.1 6.1 1.5-2.9 4-4.5 2.5-1.6 5.7-1.6 4.3 0 6.6 2.7 2.4 2.7 2.4 7.7v8.5q0 3.4 0.8 4.8 0.9 1.5 2.9 1.5 0.8 0 1.3 0.7 0.4 0.8 0.4 2 0 1-0.5 1.8-0.5 0.8-1.7 0.8-8.8 0-8.8-10.9v-7.8q0-3.2-1.2-4.9-1.1-1.7-3.3-1.7-3.2 0-5.1 3.7-1.8 3.7-1.8 10.2v10.5q-0.6 0.2-1.3 0.3-0.8 0.1-1.5 0.1-1.4 0-2.8-0.4v-17q0-3.6-1.2-5.4-1.3-2-3.7-2-2.3 0-3.9 1.8-1.6 1.7-2.6 4.8-0.9 3.2-0.9 7.3v10.5q-0.7 0.2-1.4 0.3-0.7 0.1-1.4 0.1-1.5 0-2.7-0.4v-19.5q0-4.9-2.8-4.9-1.3 0-2.2 1.2-0.9 1.1-1.6 3.7l-2.3 8.8q-1.6 6-4.4 8.8-2.8 2.8-7.3 2.8z"/>
</svg>