<svg version="1.2" xmlns="http://www.w3.org/2000/svg" viewBox="0 0 500 100" width="500" height="100">
	<style>
		.s0 { fill: #ffffff } 
	</style>
	<path id="Gemdation.com" class="s0" aria-label="Gemdation.com"  d="m35.1 46.3v12.9q0 5.2-3.8 9-3.8 3.8-9.1 3.8h-6.4q-5.2 0-9-3.8-3.8-3.8-3.8-9v-19.3q0-5.2 3.8-9 3.8-3.8 9-3.8h6.4q5.3 0 9.1 3.8 3.8 3.8 3.8 9h-6.4q0-2.6-2-4.5-1.8-1.9-4.5-1.9h-6.4q-2.6 0-4.5 1.9-1.9 1.9-1.9 4.5v19.3q0 2.6 1.9 4.5 1.9 1.9 4.5 1.9h6.4q2.7 0 4.5-1.9 2-1.9 2-4.5v-6.4h-6.5v-6.5zm39 19.3v6.4h-19.2q-5.3 0-9-3.8-3.8-3.8-3.8-9v-6.4q0-5.3 3.8-9.1 3.7-3.8 9-3.8h6.4q5.3 0 9.1 3.8 3.7 3.8 3.7 9.1v6.4h-25.6q0 2.6 1.8 4.5 2 1.9 4.6 1.9zm-25.7-12.9l19.3 0.1q0-2.7-1.9-4.5-1.9-2-4.5-2h-6.5q-2.6 0-4.5 2-1.9 1.8-1.9 4.4zm63.7 0.1v19.2h-6.4v-19.2q0-2.7-1.9-4.5-1.9-2-4.5-2v25.7h-6.5v-25.7h-6.4v25.7h-6.4v-32.1h19.3q5.2 0 9 3.8 3.8 3.8 3.8 9.1zm39-25.7v44.9h-19.2q-5.3 0-9.1-3.8-3.8-3.8-3.8-9v-6.4q0-5.3 3.8-9.1 3.8-3.8 9.1-3.8h12.8v-12.8zm-19.3 38.5h12.9v-19.3h-12.9q-2.6 0-4.5 2-1.9 1.8-1.9 4.5v6.4q0 2.6 1.9 4.5 1.9 1.9 4.5 1.9zm38-25.7h19.3v32.1h-6.4v-8.9l-4 4.1q-4.8 4.8-8.9 4.8-5.3 0-9.1-3.7-3.7-3.8-3.7-9.1v-6.4q0-5.4 3.7-9.1 3.8-3.8 9.1-3.8zm12.9 6.4h-12.9q-2.6 0-4.5 2-1.9 1.8-1.9 4.5v6.4q0 2.6 1.9 4.5 1.9 1.9 4.5 1.9 3.2 0 6.5-3.2l6.4-6.4zm45.4 19.2v6.4h-6.4q-5.3 0-9.1-3.8-3.8-3.7-3.8-9v-12.8h-6.4v-6.5h6.4v-12.8h6.4v12.8h6.5v6.5h-6.5v12.8q0 2.6 1.9 4.5 1.9 1.9 4.6 1.9zm25.1-35.3q0 1.4-0.9 2.3-0.9 0.9-2.3 0.9-1.3 0-2.3-0.9-0.9-0.9-0.9-2.3 0-1.3 0.9-2.2 1-1 2.3-1 1.4 0 2.3 1 0.9 0.9 0.9 2.2zm6.5 35.3v6.4h-19.3v-6.4h6.4v-19.2h-6.4v-6.5h12.8v25.7zm44.5-12.8v6.4q0 5.3-3.8 9-3.8 3.8-9.1 3.8h-6.4q-5.3 0-9-3.8-3.8-3.7-3.8-9v-6.4q0-5.3 3.8-9.1 3.7-3.8 9-3.8h6.4q5.3 0 9.1 3.8 3.8 3.8 3.8 9.1zm-6.5 6.4v-6.4q0-2.7-1.9-4.5-1.9-1.9-4.5-1.9h-6.4q-2.6 0-4.6 1.9-1.8 1.8-1.8 4.5v6.4q0 2.6 1.8 4.5 2 1.9 4.6 1.9h6.4q2.6 0 4.5-1.9 1.9-1.9 1.9-4.5zm13.4-19.3h6.4v8.8l4-3.9q4.8-4.9 8.8-4.9 5.3 0 9.1 3.8 3.8 3.7 3.8 9.1v19.2h-6.5v-19.2q0-2.7-1.9-4.5-1.9-1.9-4.5-1.9-3.2 0-6.4 3.2l-6.4 6.4v16h-6.4zm60.2 24.1q0 2.7-1.8 4.5-1.8 1.9-4.4 1.9-2.6 0-4.5-1.9-1.9-1.9-1.9-4.5 0-2.6 1.9-4.5 1.9-1.9 4.5-1.9 2.6 0 4.4 1.8 1.8 1.9 1.8 4.6zm48.8 1.6v6.4h-19.2q-5.3 0-9-3.8-3.8-3.8-3.8-9v-6.4q0-5.3 3.8-9.1 3.7-3.8 9-3.8h6.4q5.3 0 9.1 3.8 3.7 3.8 3.7 9.1h-6.4q0-2.7-1.9-4.5-1.9-2-4.5-2h-6.4q-2.6 0-4.6 2-1.8 1.8-1.8 4.5v6.4q0 2.6 1.8 4.5 2 1.9 4.6 1.9zm38-12.8v6.4q0 5.2-3.8 9-3.8 3.8-9 3.8h-6.4q-5.3 0-9.1-3.8-3.8-3.8-3.8-9v-6.4q0-5.3 3.8-9.1 3.8-3.8 9.1-3.8h6.4q5.2 0 9 3.8 3.8 3.8 3.8 9.1zm-6.4 6.4v-6.4q0-2.7-1.9-4.5-1.9-2-4.5-2h-6.4q-2.7 0-4.6 2-1.9 1.8-1.9 4.5v6.4q0 2.6 1.9 4.5 1.9 1.9 4.6 1.9h6.4q2.6 0 4.5-1.9 1.9-1.9 1.9-4.5zm45.4-6.4v19.2h-6.4v-19.2q0-2.7-1.9-4.5-1.9-2-4.5-2v25.7h-6.5v-25.7h-6.4v25.7h-6.4v-32.1h19.3q5.2 0 9 3.8 3.8 3.8 3.8 9.1z"/>
</svg>