<svg version="1.2" xmlns="http://www.w3.org/2000/svg" viewBox="0 0 500 100" width="500" height="100">
	<style>
		.s0 { fill: #ffffff } 
	</style>
	<path id="Gemdatio n.com" class="s0" aria-label="Gemdatio n.com"  d="m29.9 61.3v-11.6h11.1v14l-1.5 2q-1.6 2.1-3.4 3.5-4.9 3.8-11.7 3.8-4.4 0-7.8-1.4-3.4-1.3-5.9-3.9-6.6-6.5-6.6-18.3 0-10.2 5-16.1 5.4-6.5 15.4-6.6 7.9 0.1 13.4 4.5l1.4 1.3v11.6q-4.4-4.2-8.2-5.3-2.2-0.6-4.5-0.6-5.6 0-8.6 3.6-2.7 3.4-2.7 9.1 0 5.3 2.1 8.3 2.7 3.7 7.4 3.7 2.4 0.1 5.1-1.6zm14-33.5h30.7v10.5h-19.6v6.1h19.6v10.5h-19.6v6.6h19.6v10.5h-30.7zm46.5 18v26.3h-11.9v-44.3h18.2l6.4 30.5 6.4-30.5h18.2v44.3h-11.8v-26.3l-6.6 26.3h-12.4zm46.7-18.1h17.8q2.9 0 5.6 0.5 9.3 1.5 12.2 9.9 1.6 4.5 1.6 9.6 0 5.4-1.4 10.4-1.9 6.8-6.5 10.6-4.1 3.3-12 3.3h-17.3zm17.4 10.5h-6.3v24.3h5.3q3 0.1 4.5-0.7 1.8-0.9 3.2-3.3 1.9-3.6 1.9-9 0.1-11.4-8.6-11.3zm15.4 33.7l13.3-44.2h18.5l13.3 44.2h-13.1l-2.6-8.9h-14.3l-2.6 8.9zm22.3-34.7l-4.5 14.3h8.8zm23.3 1.9v-11.4h34.7v11.4h-11.3v32.8h-12.1v-32.8zm36.2-11.4h11.1v44.2h-11.1zm13.3 21.4q0-11.5 4.8-16.8 2.9-3.2 7.3-4.5 3.7-1.1 8-1.1 4.1 0 7.9 1.1 4.4 1.4 7.3 4.5 4.8 5.3 4.8 16.7 0 6.2-1.6 11.5-1.7 6-6.6 9.5-4.3 3-11.3 3-5.4 0-9.2-1.4-3.5-1.1-6.1-4.2-2.6-3.1-3.7-6.9-1.6-5.3-1.6-11.4zm11.2 1.4q0 6.6 2.1 9.5 2.2 2.9 6.8 2.9 5.1 0 7.3-4 1.5-2.7 1.5-8.6 0.1-2.9-0.6-5.6-1.5-6.5-8.3-6.5-8.8 0.1-8.8 12.3zm29.8-22.8h16.3l10.6 26.9v-26.9h11.1v44.3h-14.1l-12.7-29.9v29.9h-11.2zm44.2 40.1q0-3.1 2-4.2 1.5-0.9 4.8-1 6.7 0 6.6 5.2-0.1 3.2-2.1 4.3-1.5 0.8-4.9 0.8-1.6 0.1-2.9-0.2-3.5-0.7-3.5-4.9zm48.9-35.8v12.3l-2.1-2.1q-4.3-4-9.5-4.1-6.9 0.1-9 5.7-1.2 3.1-1.2 6.6 0 3.5 1.2 6.6 2.2 5.9 8.7 5.9 6.4 0 11.9-7.4v11.3l-1.3 1.3q-5.2 4.8-12.9 4.8-6.7 0-11.3-3.9-4.4-3.7-6.2-10.4-1.3-4.4-1.2-9.5 0-7.5 2.4-12.7 3-6.5 9.2-8.6 3.2-1.1 7.1-1.1 7.4 0 12.3 3.6zm1.9 17.1q0-11.5 4.8-16.8 2.8-3.2 7.2-4.5 3.8-1.1 8-1.1 4.2 0 8 1.1 4.3 1.4 7.2 4.5 4.8 5.3 4.8 16.7 0 6.2-1.6 11.5-1.7 6-6.6 9.5-4.3 3-11.2 3-5.4 0-9.3-1.4-3.4-1.2-6.1-4.2-2.6-3.2-3.7-6.9-1.6-5.3-1.5-11.4zm11.1 1.4q0 6.5 2.2 9.5 2.1 2.9 6.7 2.9 5.1 0 7.3-4 1.6-2.7 1.6-8.6 0-2.9-0.6-5.6-1.5-6.5-8.3-6.5-8.9 0.1-8.9 12.3zm45.3-4.8v26.3h-11.8v-44.3h18.1l6.5 30.5 6.4-30.5h18.2v44.3h-11.9v-26.3l-6.6 26.3h-12.3z"/>
</svg>