<svg version="1.2" xmlns="http://www.w3.org/2000/svg" viewBox="0 0 500 100" width="500" height="100">
	<style>
		.s0 { fill: #ffffff } 
	</style>
	<path id="Gemdation.com" class="s0" aria-label="Gemdation.com"  d="m30.6 41.1l2.5-1.8c-3-2.5-6.8-2.8-10.5-2.8h-4.2c-7.4 0-12.9 3-12.9 11.2 0 8.2 5.5 11.2 12.9 11.2h4.2c7.3 0 13.6-2.8 13.6-11.2v-1.1h-13.1v2.2h10.4c-1.2 5.6-5.6 7.8-10.9 7.8h-4.2c-5.9 0-10.5-2.4-10.5-8.9 0-6.5 4.6-8.9 10.5-8.9h4.2c2.8 0 5.7 0.6 8 2.3zm5.7-1.2l-5.8 4.1c-2.1-2.2-5-3.1-7.9-3.1h-4.2c-4.5 0-8.4 1.7-8.4 6.8 0 5.1 3.9 6.8 8.4 6.8h4.2c2.9 0 6.6-0.8 8.2-3.6h-9.9v-6.4h17.4v3.2c0 9.8-7 13.3-15.7 13.3h-4.2c-8.8 0-15-3.7-15-13.3 0-9.6 6.2-13.3 15-13.3h4.2c5.4 0 10.1 0.8 13.7 5.5zm-26.8 21.7c2.8 2.8 7.6 4.1 12.7 4.1h4.2c9.2 0 16.5-3.8 16.5-14.2v-4.1l-2.7-2.7 1.1-0.8c-0.5-0.7-1.1-1.7-4.1-4.7-4.3-5.1-9.1-5.8-14.6-5.8h-4.2c-9.3 0-15.9 4-15.9 14.3 0 5.4 1.3 9 7 13.9zm10.5-9.7l1.8 1.6h-3.4c-1.3 0-2.5-0.1-3.6-0.5-0.1-0.4-0.1-0.9-0.1-1.5 0-3.6 2.2-5.2 5.3-5.7zm34.5-5.3v-7.8h23.2v-2.3h-25.6v22.4h25.7v-2.3h-23.3v-7.7h19.3v-2.3zm2.1-5.6v3.5h19.3v6.5h-19.3v3.5h23.3v6.6h-29.9v-26.7h29.9v6.6zm-3.6 24.7h31.6v-8.3l-4-3.9v-6l-1.9-1.9h5.8v-8.3l-3.7-3.9h-31.7v28.6zm40.5-6.8h2.4v-17.5l11.8 17.5h1.9l11.8-17.6v17.6h2.3v-22.4h-1.9c-4.5 6.4-8.9 12.9-13.2 19.5l-13.1-19.5h-2zm4.5 2.2h-6.6v-26.7h5.2l12 17.8 12-17.8h5.2v26.7h-6.5v-12.9l-8.6 12.9h-4.2l-8.5-12.9zm-0.9-27.6h-6.6v28.6l3.9 3.7h8.2v-8.9l3.5 5.2 3.8 3.7h5l3.4-5.1v1.4l3.9 3.7h8.3v-28.4l-3.7-3.9h-6.7l-11 16.3-8.2-12.4zm44.6 23.2v-17.8h13.5c5.9 0 10.6 2.3 10.6 8.9 0 6.6-4.7 8.9-10.6 8.9zm2.1-15.6v13.5h11.4c4.6 0 8.6-1.6 8.6-6.8 0-5.1-4-6.7-8.6-6.7zm-4.3-4.5v22.4h15.8c7.4 0 13-3 13-11.2 0-8.2-5.6-11.2-13-11.2zm-2.1 24.6v-26.7h18c8.7 0 15 3.7 15 13.3 0 9.7-6.3 13.4-15 13.4zm-1 0.9l3.9 3.7h18.8c9.3 0 15.9-3.9 15.9-14.2 0-4.5-1.3-8.7-3.6-11-5.5-6.4-10.3-7.1-16.1-7.1h-18.9zm12.1-16.4h10.6c1.3 0 2.5 0.2 3.6 0.5 0.1 0.5 0.2 1 0.2 1.6 0 4.5-3.6 5.9-7.6 5.9h-6.8zm39.8 5.1l8.2-11.4 8 11.4zm8.2-7.8l-4.1 5.7h8zm16.6 16l-15.6-22.4h-1.9c-5.3 7.5-10.7 14.9-16 22.4h3c1.4-1.9 2.8-4 4.2-5.9h19.4l4.1 5.9zm-14.6-24.5l18.7 26.6h-8.1l-4.1-5.9h-17.2l-4.2 5.9h-8l19-26.6zm0.4-1h-4.9l-20.4 28.6 4 3.7h10.2c1.2-1.7 2.9-4.1 4.2-5.9h15l1.5 2.2 3.9 3.7h10.1l-19.8-28.4zm29.1 25.5h2.3v-20.1h12.8v-2.3h-27.8v2.3h12.7zm4.4 2.1h-6.4v-20.1h-12.8v-6.5h32v6.5h-12.8zm-16.2-15.4h8.8v16.4l3.9 3.7h8.2v-20.1h12.7v-8.3l-3.7-3.9h-33.8v8.5zm39.6 13.3h2.3v-22.4h-2.3zm4.4 2.1h-6.5v-26.6h6.5zm-3.5 4.6h8.1v-28.4l-3.7-3.9h-8.3v28.6zm34.1-9.1h-4.2c-5.9 0-10.5-2.3-10.5-8.9 0-6.5 4.6-8.9 10.5-8.9h4.2c5.9 0 10.5 2.4 10.5 8.9 0 6.6-4.6 8.9-10.5 8.9zm0-2.1c4.5 0 8.3-1.7 8.3-6.8 0-5.1-3.9-6.7-8.3-6.7h-4.2c-4.5 0-8.4 1.6-8.4 6.7 0 5.2 3.9 6.8 8.4 6.8zm-17.1-6.8c0 8.2 5.5 11.2 12.9 11.2h4.2c7.4 0 12.9-3 12.9-11.2 0-8.1-5.5-11.2-12.9-11.2h-4.2c-7.4 0-12.9 3-12.9 11.2zm-2.1 0c0-9.6 6.2-13.3 15-13.3h4.2c8.8 0 15 3.7 15 13.3 0 9.6-6.2 13.4-15 13.4h-4.2c-8.8 0-15-3.8-15-13.4zm-1 0c0 5.3 1.3 9.1 7.1 14.1 2.8 2.8 7.6 3.9 12.7 3.9h4.2c9.3 0 15.8-3.9 15.8-14.2 0-4.5-1.6-8.5-3.9-10.8-5.4-6.3-9.9-7.3-15.7-7.3h-4.2c-9.3 0-16 4-16 14.3zm20.2 5.8h-4.2c-1.3 0-2.5-0.1-3.6-0.4-0.1-0.5-0.2-1-0.2-1.6 0-4.4 3.6-5.9 7.6-5.9h4.2c1.2 0 2.3 0.2 3.4 0.5 0.1 0.5 0.2 1 0.2 1.6 0 4.4-3.4 5.8-7.4 5.8zm49 5.4h1.9v-22.4h-2.3v18.8l-20.4-18.8h-2v22.4h2.3v-18.8zm4 2.2h-4.7l-17.7-16.2v16.2h-6.5v-26.7h4.8l17.6 16.1v-16.1h6.5zm-25.9 4.6h8.2v-15.1l16.4 15.1h5.9v-28.3l-3.6-3.9h-8.4v14.9l-16.3-14.9h-6.1v28.5zm38.9-5.9h2.4v-2.2h-2.4zm4.5 2.1h-6.6v-6.3h6.6zm-3.6 4.6h8.2v-8l-3.7-3.9h-8.4v8.2zm28.7-27.6h4.1c3.5 0 7.2 0.9 9.5 3.7l2.5-1.6c-2.8-3.9-7.5-4.4-12-4.4h-4.1c-7.4 0-13 3-13 11.2 0 8.2 5.6 11.2 13 11.2h4.1c4.5 0 9.2-0.6 12-4.5l-2.5-1.5c-2.3 2.7-6 3.7-9.5 3.7h-4.1c-6 0-10.6-2.4-10.6-8.9 0-6.6 4.6-8.9 10.6-8.9zm4.1 2.1h-4.1c-4.5 0-8.4 1.7-8.4 6.8 0 5.1 3.8 6.7 8.4 6.7h4.1c3.6 0 6.8-1.2 8.9-4.3l6 3.6c-3.4 5.9-8.5 7.3-14.9 7.3h-4.1c-8.8 0-15.1-3.7-15.1-13.3 0-9.7 6.3-13.4 15.1-13.4h4.1c6.4 0 11.5 1.4 14.9 7.3l-6 3.6c-2.1-3-5.3-4.3-8.9-4.3zm-13.5 20.6c2.9 2.8 8 4.1 13.2 4.1h4.1c6.7 0 12.1-1.6 16.1-8.4l-3.6-3.8-7.6-4.5c-2.3 3.2-5.4 4.6-8.7 4.6h-4.1c-1.3 0-2.6-0.2-3.6-0.5-0.2-0.5-0.2-1-0.2-1.5 0-4.5 3.5-6 7.6-6h4.1c2.1 0 4 0.6 5.8 1.7l2.9 2.9 7.4-4.4c-0.9-1.5-2.3-3.7-3.3-4.7-6.3-7.2-10.8-7.6-16.6-7.6h-4.1c-9.4 0-16 4-16 14.3 0 5.2 0.9 8.7 6.6 13.8zm56.8-4.9h-4.2c-5.9 0-10.5-2.4-10.5-8.9 0-6.6 4.6-8.9 10.5-8.9h4.2c5.9 0 10.5 2.3 10.5 8.9 0 6.5-4.6 8.9-10.5 8.9zm0-2.2c4.5 0 8.3-1.6 8.3-6.7 0-5.1-3.8-6.8-8.3-6.8h-4.2c-4.5 0-8.4 1.7-8.4 6.8 0 5.1 3.9 6.7 8.4 6.7zm-17.1-6.7c0 8.2 5.5 11.2 12.9 11.2h4.2c7.4 0 12.9-3.1 12.9-11.2 0-8.2-5.5-11.2-12.9-11.2h-4.2c-7.4 0-12.9 3-12.9 11.2zm-2.1 0c0-9.7 6.2-13.4 15-13.4h4.2c8.8 0 15 3.7 15 13.4 0 9.6-6.2 13.3-15 13.3h-4.2c-8.8 0-15-3.7-15-13.3zm-1 0c0 5.2 1.3 9 7.1 14.1 2.8 2.8 7.6 3.8 12.7 3.8h4.2c9.3 0 15.8-3.9 15.8-14.1 0-4.6-1.6-8.6-3.9-10.8-5.4-6.4-9.9-7.3-15.7-7.3h-4.2c-9.3 0-16 4-16 14.3zm20.2 5.8h-4.2c-1.3 0-2.5-0.2-3.6-0.5-0.1-0.5-0.1-1-0.1-1.5 0-4.5 3.5-6 7.5-6h4.2c1.2 0 2.4 0.2 3.4 0.5 0.1 0.5 0.2 1.1 0.2 1.7 0 4.3-3.4 5.8-7.4 5.8zm26.7 5.4h2.4v-17.6l11.8 17.6h1.8l11.9-17.7v17.7h2.3v-22.4h-2c-4.4 6.4-8.8 12.9-13.1 19.4l-13.1-19.4h-2zm4.5 2.1h-6.6v-26.7h5.2l12 17.8 12-17.8h5.2v26.7h-6.5v-12.9l-8.6 12.9h-4.2l-8.5-12.8zm-0.9-27.7h-6.6v28.6l3.9 3.7h8.2v-8.8l3.4 5.1 3.9 3.7h5l3.4-5.1v1.4l3.9 3.7h8.2v-28.3l-3.6-4h-6.7l-11 16.3-8.3-12.3z"/>
</svg>