<svg version="1.2" xmlns="http://www.w3.org/2000/svg" viewBox="0 0 500 100" width="500" height="100">
	<style>
		.s0 { fill: #ffffff } 
	</style>
	<path id="Gemdation.com" class="s0" aria-label="Gemdation.com"  d="m8 7.8h33.6v84h-33.6zm32 0h33.6v84h-33.6zm31 0h33.6v84h-33.6zm32 0h33.6v84h-33.6zm31 0h33.6v84h-33.6zm32 0h33.6v84h-33.6zm31 0h33.6v84h-33.6zm32 0h33.6v84h-33.6zm31 0h33.6v84h-33.6zm41 67.2v-10.4h8.6v10.4zm58-44.2v7.1q-3.2-1.8-6.4-2.6-3.2-0.9-6.5-0.9-7.3 0-11.4 4.6-4.1 4.7-4.1 13.1 0 8.4 4.1 13.1 4.1 4.6 11.4 4.6 3.3 0 6.5-0.9 3.2-0.9 6.4-2.6v6.9q-3.1 1.5-6.5 2.3-3.4 0.7-7.2 0.7-10.4 0-16.5-6.5-6.1-6.6-6.1-17.6 0-11.3 6.1-17.7 6.2-6.4 17-6.4 3.5 0 6.8 0.7 3.3 0.7 6.4 2.1zm31.8 3.6q-6.1 0-9.6 4.7-3.6 4.7-3.6 13 0 8.2 3.5 13 3.6 4.7 9.7 4.7 6 0 9.5-4.8 3.6-4.7 3.6-12.9 0-8.2-3.6-12.9-3.5-4.8-9.5-4.8zm0-6.4q9.8 0 15.4 6.4 5.7 6.4 5.7 17.7 0 11.3-5.7 17.7-5.6 6.4-15.4 6.4-9.9 0-15.5-6.4-5.6-6.4-5.6-17.7 0-11.3 5.6-17.7 5.6-6.4 15.5-6.4zm68.9 9.9q2.9-5.1 6.8-7.5 3.9-2.4 9.3-2.4 7.2 0 11 5 3.9 5 3.9 14.3v27.7h-7.5v-27.5q0-6.6-2.4-9.8-2.3-3.2-7.1-3.2-5.9 0-9.3 3.9-3.4 3.9-3.4 10.6v26h-7.6v-27.5q0-6.6-2.3-9.8-2.4-3.2-7.2-3.2-5.8 0-9.2 4-3.4 3.9-3.4 10.5v26h-7.6v-45.9h7.6v7.1q2.6-4.2 6.2-6.2 3.6-2 8.5-2 5 0 8.5 2.5 3.6 2.5 5.2 7.4z"/>
</svg>