<?xml version="1.0" encoding="utf-8"?>
<!-- Generator: Adobe Illustrator 23.1.0, SVG Export Plug-In . SVG Version: 6.00 Build 0)  -->
<svg version="1.1" id="Layer_1" xmlns="http://www.w3.org/2000/svg" xmlns:xlink="http://www.w3.org/1999/xlink" x="0px" y="0px"
	 viewBox="0 0 944.6 246" style="enable-background:new 0 0 944.6 246;" xml:space="preserve">
<style type="text/css">
	.st0{fill-rule:evenodd;clip-rule:evenodd;fill:#004685;}
	.st1{fill-rule:evenodd;clip-rule:evenodd;fill:#ED1B2E;}
</style>
<path class="st0" d="M116.2,198.1l-0.7,0.7C104.5,210,91.8,216,78.7,216c-27.4,0-47.3-20.6-47.3-48.9c0-28.3,19.9-48.9,47.3-48.9
	c13.1,0,25.9,6,36.9,17.2l0.7,0.7l17.6-21.3l-0.5-0.6c-14.6-17.3-32.2-25.7-53.8-25.7c-21.7,0-41.5,7.3-55.8,20.5
	C8.2,123.2,0,143.3,0,167.1c0,23.8,8.2,43.9,23.7,58.2c14.3,13.2,34.1,20.5,55.8,20.5c21.6,0,39.2-8.4,53.8-25.7l0.5-0.5
	L116.2,198.1L116.2,198.1z"/>
<polygon class="st0" points="151.6,242.8 182.7,242.8 182.7,90.9 151.6,90.9 151.6,242.8 "/>
<path class="st0" d="M304.6,209.8c-8.3,5.1-16,7.6-23,7.6c-10.1,0-14.6-5.3-14.6-17.1v-80.6h31.7V91.1h-31.7V43.8l-30.5,16.3v30.9
	h-26.3v28.6h26.3v85.8c0,23.3,13.8,39.3,34.5,39.7c14,0.3,22.5-3.9,27.6-7l0.3-0.2l7.5-29.3L304.6,209.8L304.6,209.8z"/>
<polygon class="st0" points="330.4,242.8 361.5,242.8 361.5,90.9 330.4,90.9 330.4,242.8 "/>
<path class="st1" d="M379.7,64.3C351.3,24,304,0,256,0c-48,0-95.2,24-123.6,64.3l-1.5,2.1h35.8l0.4-0.4
	c24.4-25.1,56.2-38.4,88.9-38.4c32.7,0,64.5,13.3,88.9,38.4l0.4,0.4h35.8L379.7,64.3L379.7,64.3z"/>
<path class="st0" d="M421,127l-0.4,0.6v78.6l0.3,0.5c9.8,15.2,25.8,24.2,42.8,24.2c26.2,0,39.5-22.1,39.5-65.7
	c0-39-14.7-61.3-40.4-61.3C447.1,103.9,433.1,111.7,421,127L421,127z M944.6,242.3v0.5c-4.7,0-16.9,0-18.8,0
	c-1.1-2.2-39.4-83.3-39.4-83.3l-28.6,40.1c0,0,0,39.6,0,43.2c-3,0-14.8,0-17.8,0c0-3.8,0-197.3,0-199.6c1.6-0.9,13.6-7.8,17.8-10.1
	c0,6.4,0,144.9,0,144.9l9.7-15.1c0,0.1,43.5-63,49.1-71.1c1.6,0,14.2,0,19.4,0c-4.1,5.5-38.4,52.7-38.4,52.7
	S940.2,233.2,944.6,242.3L944.6,242.3z M590.7,246h-7.5c-15.3-0.9-42.9-8-42.9-47.5c0-35.1,29-47.6,56.1-47.6
	c13.7,0,27.1,3.1,36.9,8.6l2.9,1.6v-21.7c0-24-11.7-36.2-34.9-36.2c-14.3,0-27.2,3.6-40.4,11.1c-1.2-2.7-5.3-11.8-6.4-14.3
	c13.8-7.3,30.9-11.4,48.3-11.4c34.5,0,51.2,15.7,51.2,48.2c0,0,0,102.2,0,106c-2.9,0-14.8,0-17.8,0c0-3.1,0-22,0-22l-3.4,3.8
	C620.7,238,606.9,245,590.7,246L590.7,246z M468.6,246h-7c-14.7-0.9-26.7-7.3-37.6-19.9l-3.5-4c0,0,0,17.7,0,20.7
	c-2.9,0-14.8,0-17.7,0c0-3.8,0-197.3,0-199.6c1.5-0.9,13.6-7.8,17.7-10.1c0,6.2,0,80.7,0,80.7l3.4-3.8
	c13.1-14.5,27.6-21.5,44.2-21.5c33.3,0,52.4,27.8,52.4,76.2C520.6,212.6,500.3,244,468.6,246L468.6,246z M557.7,197
	c0,22.6,11.7,35,32.9,35c18.1,0,34.1-8.5,45.3-24.1l0.3-0.5v-33.1l-1-0.6c-11.3-6.5-22.9-9.1-40-9.1
	C571.8,164.7,557.7,176.8,557.7,197L557.7,197z M712,109.9c9.2-13.7,23.5-21.2,40.3-21.2c33.5,0,51.2,21.4,51.2,61.8
	c0,0,0,88.6,0,92.4c-2.9,0-14.8,0-17.8,0c0-3.8,0-88.6,0-88.6c0-34.4-11.9-50.4-37.8-50.4c-24.8,0-39.5,18.8-39.5,50.4
	c0,0,0,84.8,0,88.6c-2.9,0-14.8,0-17.8,0c0-3.8,0-147.2,0-150.9c2.9,0,14.8,0,17.8,0c0,3.1,0,23.4,0,23.4L712,109.9L712,109.9z"/>
</svg>
