<?xml version="1.0" encoding="UTF-8" standalone="no"?>
<!-- Generator: Adobe Illustrator 14.0.0, SVG Export Plug-In . SVG Version: 6.00 Build 43363)  -->

<svg
   xmlns:dc="http://purl.org/dc/elements/1.1/"
   xmlns:cc="http://creativecommons.org/ns#"
   xmlns:rdf="http://www.w3.org/1999/02/22-rdf-syntax-ns#"
   xmlns:svg="http://www.w3.org/2000/svg"
   xmlns="http://www.w3.org/2000/svg"
   xmlns:sodipodi="http://sodipodi.sourceforge.net/DTD/sodipodi-0.dtd"
   xmlns:inkscape="http://www.inkscape.org/namespaces/inkscape"
   version="1.1"
   id="Layer_1"
   x="0px"
   y="0px"
   width="1000"
   height="276.70023"
   viewBox="208.5 290.5 999.99998 276.70023"
   enable-background="new 208.5 290.5 201 72"
   xml:space="preserve"
   inkscape:version="0.92.4 (5da689c313, 2019-01-14)"
   sodipodi:docname="Costcologo.svg"><metadata
     id="metadata51"><rdf:RDF><cc:Work
         rdf:about=""><dc:format>image/svg+xml</dc:format><dc:type
           rdf:resource="http://purl.org/dc/dcmitype/StillImage" /><dc:title></dc:title></cc:Work></rdf:RDF></metadata><defs
     id="defs49" /><sodipodi:namedview
     pagecolor="#ffffff"
     bordercolor="#666666"
     borderopacity="1"
     objecttolerance="10"
     gridtolerance="10"
     guidetolerance="10"
     inkscape:pageopacity="0"
     inkscape:pageshadow="2"
     inkscape:window-width="1920"
     inkscape:window-height="1017"
     id="namedview47"
     showgrid="false"
     inkscape:zoom="0.7711443"
     inkscape:cx="548.54225"
     inkscape:cy="1.7814066"
     inkscape:window-x="1912"
     inkscape:window-y="-8"
     inkscape:window-maximized="1"
     inkscape:current-layer="g23"
     fit-margin-top="0"
     fit-margin-left="0"
     fit-margin-right="0"
     fit-margin-bottom="0" /><g
     id="g5"
     transform="translate(-11.025098,215.65724)"><path
       d="m 559.92444,282.81315 2.55346,40.37872 h 0.64659 c 1.32057,-4.12609 2.78908,-8.43301 4.84939,-12.47143 l 13.91803,-27.90729 h 22.61405 l 3.41923,40.37872 h 0.64659 c 1.1781,-3.95075 2.50415,-8.08232 4.3124,-11.93443 l 13.58925,-28.44429 h 30.69089 l -41.50202,67.65586 h -25.73739 l -2.26853,-36.78962 h -0.96988 c -0.98631,3.50691 -1.85208,6.9097 -3.45211,10.2303 l -13.23308,26.55932 h -25.09629 l -15.56736,-67.65586 z"
       id="path7"
       inkscape:connector-curvature="0"
       style="fill:#005daa;stroke-width:5.47953796" /><path
       d="m 655.01087,282.81315 h 28.42784 l -4.32884,22.7894 h 18.08796 l 4.33431,-22.7894 h 28.42785 l -12.855,67.65586 h -28.42784 l 4.46582,-23.50722 h -18.09343 l -4.46583,23.50722 h -28.42784 z"
       id="path9"
       inkscape:connector-curvature="0"
       style="fill:#005daa;stroke-width:5.47953796" /><path
       d="m 813.22157,316.81917 c -4.12609,21.71541 -26.74015,34.72383 -51.4967,34.72383 -24.77299,0 -42.4445,-13.0139 -38.31293,-34.72383 4.03842,-21.26609 26.91549,-35.08549 51.57341,-35.08549 24.65793,0 42.26916,13.8194 38.23622,35.08549 z m -60.15437,0.35617 c -1.47399,7.71519 3.76992,13.0139 12.70705,13.0139 8.94261,0 16.19204,-5.29871 17.66603,-13.0139 1.35893,-7.18368 -3.30964,-13.18925 -12.67965,-13.18925 -9.38097,0.005 -16.3345,6.01105 -17.69343,13.18925 z"
       id="path11"
       inkscape:connector-curvature="0"
       style="fill:#005daa;stroke-width:5.47953796" /><path
       d="m 819.68743,282.81315 h 29.50731 l -8.73438,45.94045 h 24.77299 l -4.13157,21.70993 h -54.27483 z"
       id="path13"
       inkscape:connector-curvature="0"
       style="fill:#005daa;stroke-width:5.47953796" /><path
       d="m 935.03718,326.23849 1.31509,0.9918 c 4.62473,3.40827 10.44948,6.19188 17.23863,6.19188 2.90964,0 7.72615,-0.9918 8.30698,-4.03842 0.58083,-3.04663 -3.24389,-3.31512 -5.84119,-3.76992 l -5.75899,-0.89317 c -11.20566,-1.70962 -19.80853,-7.3645 -17.8085,-17.94549 3.06306,-16.06052 22.31268,-25.03601 39.97323,-25.03601 9.26042,0 17.41945,1.89044 24.61409,5.92338 l -11.26045,17.32082 c -4.51514,-2.87127 -9.79742,-5.11788 -16.15368,-5.11788 -2.58087,0 -6.50969,0.80001 -7.02477,3.58361 -0.4822,2.50963 3.1069,2.87128 5.28775,3.3206 l 6.44394,1.25482 c 12.03855,2.33976 20.03319,7.89601 17.85782,19.38112 -3.07951,16.15368 -22.25789,24.13737 -39.80885,24.13737 -10.22482,0 -21.63322,-2.33428 -30.04979,-6.19188 z"
       id="path15"
       inkscape:connector-curvature="0"
       style="fill:#005daa;stroke-width:5.47953796" /><path
       d="m 1036.4086,325.97 -1.1781,-11.93444 c -0.3178,-2.87128 -0.2959,-5.83023 -0.2794,-8.70699 h -1.0795 l -9.2988,20.64143 z m -25.688,24.49901 h -31.22792 l 41.07462,-67.65586 h 32.6252 l 16.1098,67.65586 h -31.2279 l -1.0849,-8.43301 h -22.2853 z"
       id="path17"
       inkscape:connector-curvature="0"
       style="fill:#005daa;stroke-width:5.47953796" /><path
       d="m 1079.697,282.81315 h 29.5073 l -8.7344,45.94045 h 24.773 l -4.1316,21.70993 h -54.2693 z"
       id="path19"
       inkscape:connector-curvature="0"
       style="fill:#005daa;stroke-width:5.47953796" /><path
       d="m 1139.4514,282.81315 h 54.6036 l -3.5179,18.48796 h -24.8826 l -1.2274,6.46038 h 22.7182 l -3.3371,17.58932 h -22.7236 l -1.2548,6.63572 h 25.7428 l -3.5233,18.48248 h -55.4584 z"
       id="path21"
       inkscape:connector-curvature="0"
       style="fill:#005daa;stroke-width:5.47953796" /><g
       id="g23"><path
         d="m 739.11082,161.2222 37.25538,-1.39728 -31.26077,103.00984 h 66.84489 l 31.2498,-103.00984 36.41702,1.39728 14.83859,-48.91036 H 753.93845 Z"
         id="path25"
         inkscape:connector-curvature="0"
         style="fill:#e31837;stroke-width:5.47953796" /><path
         d="m 600.70316,187.96783 c -9.34809,48.30213 -60.55985,77.256 -116.67033,77.256 -56.10499,0 -96.12205,-28.9484 -86.77396,-77.256 9.15083,-47.31582 60.95986,-78.05055 116.82375,-78.05055 55.85841,0 95.77137,30.74021 86.62054,78.05055 z m -136.27611,0.80001 c -3.31512,17.16739 8.55904,28.9484 28.79497,28.9484 20.24689,0 36.67455,-11.77553 39.99515,-28.9484 3.09046,-15.96738 -7.49601,-29.33745 -28.71826,-29.33745 -21.22225,-0.011 -36.9814,13.37007 -40.07186,29.33745 z"
         id="path27"
         inkscape:connector-curvature="0"
         style="fill:#e31837;stroke-width:5.47953796" /><path
         d="m 579.93023,251.44828 c 19.07428,8.57547 44.90482,13.77555 68.07779,13.77555 39.765,0 83.20678,-17.76466 90.15484,-53.69947 4.94254,-25.55109 -13.14541,-37.92936 -40.44447,-43.11849 l -14.58653,-2.79456 c -4.93159,-1.00276 -13.0687,-1.79729 -11.98923,-7.3919 1.19453,-6.1864 10.08235,-7.98916 15.93997,-7.98916 14.38379,0 26.35658,4.99186 36.5814,11.381 l 25.50177,-38.52664 c -16.31806,-8.98096 -34.77315,-13.16733 -55.7543,-13.16733 -40.00611,0 -83.63419,19.96196 -90.54389,55.69403 -4.55898,23.55653 14.96462,36.13207 40.3294,39.92939 l 13.03034,1.98908 c 5.90694,1.00823 14.57557,1.60002 13.26048,8.38369 -1.31508,6.78367 -12.22484,8.98096 -18.81673,8.98096 -15.3701,0 -28.56483,-6.18639 -39.04719,-13.77008 l -2.98635,-2.19729 z"
         id="path29"
         inkscape:connector-curvature="0"
         style="fill:#e31837;stroke-width:5.47953796" /><path
         d="m 1024.5674,116.10368 c -13.3701,-3.99458 -28.56487,-6.1864 -43.69388,-6.1864 -53.90769,0 -102.90573,35.1348 -111.40449,79.0533 -8.30698,42.92122 26.23055,76.25873 78.68069,76.25873 11.94539,0 37.17319,-1.79728 48.72953,-5.98913 l 12.84405,-56.2913 c -12.40568,8.58096 -25.63329,13.97283 -41.00339,13.97283 -19.99484,0 -34.84987,-12.77829 -31.63886,-29.33745 3.16718,-16.37286 22.02775,-29.34293 42.02806,-29.34293 15.12353,0 27.18399,6.98641 36.34579,15.17832 z"
         id="path31"
         inkscape:connector-curvature="0"
         style="fill:#e31837;stroke-width:5.47953796" /><path
         d="m 1131.5937,109.91728 c -55.8584,0 -107.6674,30.73473 -116.8238,78.05055 -9.3426,48.30213 30.6745,77.256 86.785,77.256 56.0995,0 107.3222,-28.9484 116.6648,-77.256 9.1399,-47.31034 -30.7731,-78.05055 -86.626,-78.05055 z m -9.5782,49.50215 c 21.2222,0 31.8142,13.37008 28.7127,29.33745 -3.3151,17.16739 -19.7482,28.9484 -39.9951,28.9484 -20.2469,0 -32.1156,-11.77553 -28.795,-28.9484 3.0905,-15.95642 18.8551,-29.33745 40.0774,-29.33745 z"
         id="path33"
         inkscape:connector-curvature="0"
         style="fill:#e31837;stroke-width:5.47953796" /><path
         d="m 414.49202,82.322329 c -16.6852,-4.827473 -35.62248,-7.479569 -54.48853,-7.479569 -67.23942,0 -128.3527,42.46642 -138.94465,95.55219 -10.35085,51.88026 32.71832,92.17131 98.12757,92.17131 14.90982,0 46.37881,-2.1699 60.77356,-7.23299 l 16.01669,-68.05039 c -15.45778,10.37825 -31.96763,16.89342 -51.14053,16.89342 -24.94834,0 -43.4637,-15.44682 -39.46912,-35.48001 3.95075,-19.78113 27.46893,-35.47453 52.41179,-35.47453 18.86057,0 33.90738,8.44945 45.32126,18.34001 z"
         id="path35"
         inkscape:connector-curvature="0"
         style="fill:#e31837;stroke-width:5.47953796" /></g><polygon
       points="277.7,351.347 276.978,348.207 220.658,348.207 220.658,351.367 277.751,351.367 277.747,351.347 "
       id="polygon39"
       style="fill:#005daa"
       transform="matrix(5.4795382,0,0,5.4795382,-983.37105,-1574.7503)" /><polygon
       points="220.658,343.72 220.658,346.879 276.672,346.879 275.944,343.72 "
       id="polygon41"
       style="fill:#005daa"
       transform="matrix(5.4795382,0,0,5.4795382,-983.37105,-1574.7503)" /><polygon
       points="220.658,342.372 275.616,342.372 275.369,341.221 274.864,339.024 220.658,339.024 "
       id="polygon43"
       style="fill:#005daa"
       transform="matrix(5.4795382,0,0,5.4795382,-983.37105,-1574.7503)" /><path
       d="m 879.44727,282.81315 h 54.59812 l -3.51239,18.48796 h -24.8771 l -1.23289,6.46038 h 22.71816 l -3.33704,17.58932 h -22.71816 l -1.2603,6.63572 h 25.73739 l -3.51238,18.48248 h -55.46937 z"
       id="path45"
       inkscape:connector-curvature="0"
       style="fill:#005daa;stroke-width:5.47953796" /></g></svg>