<?xml version="1.0" encoding="UTF-8"?>
<svg xmlns="http://www.w3.org/2000/svg" xmlns:xlink="http://www.w3.org/1999/xlink" width="1000px" height="250px" viewBox="0 0 1000 250" version="1.1">
<g id="surface1">
<path style=" stroke:none;fill-rule:nonzero;fill:rgb(80.000001%,0%,0%);fill-opacity:1;" d="M 858.304688 169.445312 C 862.191406 187.152344 872.441406 193.402344 893.640625 193.402344 C 912.371094 193.402344 922.617188 186.804688 922.617188 176.386719 C 922.617188 161.457031 908.835938 160.417969 880.214844 153.125 C 846.644531 144.445312 825.089844 137.152344 815.195312 130.207031 C 796.46875 117.363281 787.632812 98.957031 787.632812 75.695312 C 787.632812 29.859375 824.382812 0 888.339844 0 C 950.53125 0 986.925781 26.734375 991.167969 74.652344 L 918.023438 74.652344 C 915.550781 60.417969 905.65625 53.820312 886.925781 53.820312 C 870.671875 53.820312 862.546875 59.027344 862.546875 69.792969 C 862.546875 82.292969 874.914062 84.722656 898.234375 90.625 C 928.269531 98.265625 951.945312 102.777344 967.140625 113.195312 C 988.339844 127.082031 997.882812 144.097656 997.882812 168.402344 C 997.882812 219.792969 960.425781 250 890.460938 250 C 825.796875 250 787.988281 220.136719 783.039062 169.445312 Z M 574.207031 151.386719 C 569.964844 213.542969 528.269531 250 459.011719 250 C 381.980469 250 335.335938 202.082031 335.335938 125 C 335.335938 47.570312 382.6875 0 457.597656 0 C 527.5625 0 568.550781 34.722656 573.148438 96.179688 L 499.648438 96.179688 C 497.527344 72.222656 483.746094 59.375 458.660156 59.375 C 428.269531 59.375 413.429688 81.25 413.429688 125 C 413.429688 168.054688 429.683594 190.277344 461.132812 190.277344 C 484.453125 190.277344 499.292969 176.386719 501.769531 151.042969 L 574.207031 151.042969 Z M 557.597656 6.945312 L 636.398438 6.945312 L 677.03125 159.722656 L 720.496094 6.945312 L 796.46875 6.945312 L 715.550781 243.75 L 638.515625 243.75 Z M 87.632812 0.347656 C 78.445312 0.347656 69.257812 3.820312 62.546875 10.765625 L 12.015625 60.417969 C -1.765625 73.957031 -1.765625 96.179688 12.015625 110.070312 L 154.773438 250 L 297.175781 109.722656 C 310.957031 96.179688 310.957031 73.957031 297.175781 60.070312 L 246.644531 10.765625 C 239.578125 3.820312 230.390625 0.347656 221.554688 0.347656 C 212.371094 0.347656 203.183594 3.820312 196.113281 10.765625 L 154.773438 51.734375 L 113.074219 10.765625 C 106.007812 3.820312 96.820312 0.347656 87.632812 0.347656 Z M 87.632812 0.347656 "/>
</g>
</svg>
