<?xml version="1.0" encoding="utf-8"?>
<!-- Generator: Adobe Adobe Illustrator 24.2.0, SVG Export Plug-In . SVG Version: 6.00 Build 0)  -->
<svg version="1.1" id="Layer_1" xmlns="http://www.w3.org/2000/svg" xmlns:xlink="http://www.w3.org/1999/xlink" x="0px" y="0px"
	 width="1423.8px" height="252.3px" viewBox="0 0 1423.8 252.3" style="enable-background:new 0 0 1423.8 252.3;"
	 xml:space="preserve">
<style type="text/css">
	.st0{fill:#FEF200;}
	.st1{fill:#C7C8CA;}
</style>
<g>
	<path class="st0" d="M1394.8,247.2c-0.6,0-1.1,0-1.6-0.1c-225.8-13.6-455-20.4-681.3-20.4c-226.2,0-455.4,6.8-681.2,20.4
		c-0.6,0.1-1.1,0.1-1.7,0.1c-6.4,0-12.4-2.4-16.9-6.9c-4.5-4.5-6.9-10.6-6.9-17.1V29.1C5.2,15.7,15.6,5.2,29,5.2
		c0.6,0,1.1,0,1.6,0.1c225.9,13.5,455.1,20.4,681.3,20.4c226.2,0,455.4-6.9,681.2-20.4c0.6-0.1,1.1-0.1,1.7-0.1
		c13.3,0,23.8,10.5,23.8,23.9v194.1C1418.6,236.6,1408.1,247.2,1394.8,247.2L1394.8,247.2z"/>
	<path class="st1" d="M1394.8,0c16.2,0,29,12.7,29,29.1c0,64.7,0,129.4,0,194.1c0,16.5-12.8,29.1-29,29.1c-0.6,0-1.3,0-1.9,0
		c-226.8-13.7-453.9-20.6-681-20.6c-227.1,0-454.2,6.9-681,20.6c-0.7,0-1.2,0-1.9,0c-16.1,0-29-12.7-29-29.1C0,158.5,0,93.8,0,29.1
		C0,12.7,12.9,0,29,0c0.7,0,1.3,0.1,1.9,0.1c226.8,13.6,453.9,20.4,681,20.4c227.1,0,454.2-6.8,681-20.4
		C1393.5,0.1,1394.2,0,1394.8,0 M1394.8,10.3L1394.8,10.3L1394.8,10.3c-0.4,0-0.9,0-1.3,0.1c-226,13.6-455.3,20.4-681.6,20.4
		c-226.4,0-455.7-6.8-681.6-20.4c-0.5-0.1-0.9-0.1-1.4-0.1c-10.5,0-18.6,8.3-18.6,18.8v194.1c0,10.5,8.2,18.8,18.6,18.8
		c0.4,0,0.9,0,1.3-0.1c226-13.6,455.3-20.5,681.7-20.5c226.4,0,455.6,6.9,681.6,20.5c0.5,0.1,0.9,0.1,1.4,0.1
		c10.5,0,18.7-8.3,18.7-18.8V29.1c0-5.1-2-9.9-5.5-13.4C1404.6,12.3,1399.9,10.3,1394.8,10.3L1394.8,10.3z"/>
	<g>
		<g>
			<path d="M119.8,177.5H85.6V94.8H75.2v-20h41.5c38.9,0,60.5,9.8,60.5,52.3C177.2,166.1,152.9,177.5,119.8,177.5z M120.1,94.8H114
				v62.9h8.6c21.3,0,24.8-12.2,24.8-32.4C147.4,99.7,137.5,94.8,120.1,94.8z"/>
			<path d="M231.8,179.4c-31,0-47.9-21.7-47.9-53.2c0-31.4,16.9-53.3,47.9-53.3c31,0,47.9,21.9,47.9,53.3
				C279.7,157.7,262.8,179.4,231.8,179.4z M231.8,94.7c-11.3,0-17.7,9.4-17.7,31.5c0,22.3,6.3,31.5,17.7,31.5
				c11.4,0,17.7-9.2,17.7-31.5C249.5,104.1,243.2,94.7,231.8,94.7z"/>
			<path d="M362,157.5l-1.3,19.9h-70.2V74.8h28.3v82.7H362z"/>
			<path d="M442.4,157.5l-1.3,19.9h-70.2V74.8h28.4v82.7H442.4z"/>
			<path d="M549.7,177.5H520l-6.2-18.8h-34.2l-5.5,18.8h-27.7l27-82.7l5.6-20h33.8L549.7,177.5z M507.6,139.7l-8-24.6
				c-1.9-5.8-3.7-11.4-3.8-15.5h-0.3c-0.2,3.6-1.5,9.2-3.2,15.4l-7.2,24.8H507.6z"/>
			<path d="M642.2,159.3c-4.2,0-6.7-1.5-9.7-6.3l-8.3-13.1c11.5-4.7,19.3-15.3,19.3-31.6c0-12.4-5-22-15.1-27.7
				c-7.1-4.1-17.5-5.7-31.7-5.7h-38.5l0.1,102.6h28.3v-34.1h7.6l11.4,18.4c4.1,6.5,7.5,10.2,11.2,12.9c4.2,2.9,9.4,4.6,16.3,4.6
				c5.5,0,12-1.8,15.4-3.8l1.8-18.6C648.3,158.2,645.4,159.3,642.2,159.3z M598.6,125.7h-12V94.8h8.1c7.8,0,12.8,0.7,15.7,3.7
				c2.4,2.5,3.7,6.1,3.7,11.3C614.1,120.9,609.8,125.7,598.6,125.7z"/>
		</g>
		<path d="M1269.9,177.5h-29.6l-6.2-18.8h-34.3l-5.5,18.8h-27.7l26.9-82.7l5.5-20h33.9L1269.9,177.5z M1227.7,139.7l-8-24.6
			c-1.9-5.8-3.7-11.4-3.9-15.5h-0.3c-0.2,3.6-1.4,9.2-3.2,15.4l-7.1,24.8H1227.7z"/>
		<path d="M791,177.5h-16.7l-3.4-5.2c-6.4,4.2-16.6,7.2-26.8,7.2c-33.2,0-46.5-23.3-46.5-53.2c0-33.8,18-53.3,49.2-53.3
			c23.1,0,38,11,42.2,31.7l-29.5,5c-2.1-9.8-6.1-15.2-14.3-15.2c-10.5,0-17.5,11.2-17.5,30.6c0,21.4,7.5,32.7,23.1,32.7
			c4.3,0,9.1-1.1,12.3-2.6v-14.1h-11.1v-16.3h39V177.5z"/>
		<path d="M876.3,157.5l-1.3,19.9h-71.1V74.8h68.8v20h-40.4v20.7h33.1v19.8h-33.1v22.3H876.3z"/>
		<path d="M973.2,177.5h-17.9l-41.5-49.2c-1.8-2.1-3.6-4.7-4.4-6.8v55.9h-23.3V74.8h17.3l41.9,49.3c1.9,2.3,3.7,4.9,4.7,7.1V74.8
			h23.2V177.5z"/>
		<path d="M1060.6,157.5l-1.3,19.9h-71.2V74.8h68.7v20h-40.3v20.7h33v19.8h-33v22.3H1060.6z"/>
		<path d="M1348.5,157.5l-1.2,19.9h-70.2V74.8h28.4v82.7H1348.5z"/>
		<path d="M1154.3,159.3c-4.2,0-6.7-1.5-9.7-6.3l-8.3-13.1c11.5-4.7,19.3-15.3,19.3-31.6c0-12.4-5-22-15.1-27.7
			c-7.1-4.1-17.5-5.7-31.8-5.7h-38.4v102.6h28.4v-34.1h7.6l11.4,18.4c4.1,6.5,7.5,10.2,11.2,12.9c4.2,2.9,9.4,4.6,16.4,4.6
			c5.5,0,12-1.8,15.4-3.8l1.8-18.6C1160.5,158.2,1157.6,159.3,1154.3,159.3z M1110.7,125.7h-12V94.8h8.1c7.8,0,12.8,0.7,15.8,3.7
			c2.4,2.5,3.7,6.1,3.7,11.3C1126.3,120.9,1121.9,125.7,1110.7,125.7z"/>
	</g>
</g>
</svg>
