<?xml version="1.0" encoding="UTF-8" standalone="no"?>
<svg
   xmlns:dc="http://purl.org/dc/elements/1.1/"
   xmlns:cc="http://creativecommons.org/ns#"
   xmlns:rdf="http://www.w3.org/1999/02/22-rdf-syntax-ns#"
   xmlns:svg="http://www.w3.org/2000/svg"
   xmlns="http://www.w3.org/2000/svg"
   xmlns:sodipodi="http://sodipodi.sourceforge.net/DTD/sodipodi-0.dtd"
   xmlns:inkscape="http://www.inkscape.org/namespaces/inkscape"
   version="1.1"
   id="Layer_1"
   x="0px"
   y="0px"
   width="1000"
   height="1000"
   viewBox="0 0 1000 1000"
   enable-background="new 0 0 1000 588.334"
   xml:space="preserve"
   sodipodi:docname="DreamWorks Animation 2016 (Boy on the Moon) (Blue 2) .svg"
   inkscape:version="1.0.1 (3bc2e813f5, 2020-09-07)"><metadata
   id="metadata4052"><rdf:RDF><cc:Work
       rdf:about=""><dc:format>image/svg+xml</dc:format><dc:type
         rdf:resource="http://purl.org/dc/dcmitype/StillImage" /><dc:title></dc:title></cc:Work></rdf:RDF></metadata><defs
   id="defs4050" /><sodipodi:namedview
   pagecolor="#ffffff"
   bordercolor="#666666"
   borderopacity="1"
   objecttolerance="10"
   gridtolerance="10"
   guidetolerance="10"
   inkscape:pageopacity="0"
   inkscape:pageshadow="2"
   inkscape:window-width="1600"
   inkscape:window-height="837"
   id="namedview4048"
   showgrid="false"
   inkscape:zoom="0.48517716"
   inkscape:cx="500"
   inkscape:cy="541.49933"
   inkscape:window-x="-8"
   inkscape:window-y="-8"
   inkscape:window-maximized="1"
   inkscape:current-layer="Layer_1"
   inkscape:document-rotation="0" />
<path
   fill="#092e6d"
   d="m 481.58694,684.20358 v 0 c -1.3566,-3.86891 -5.97509,-14.53161 -10.04921,-23.96949 -1.62879,9.03392 -6.17815,33.95173 -6.17815,40.26381 0.0518,0.79279 0.0518,1.58558 0,2.38053 -0.6783,5.08725 -5.70291,5.56465 -9.6431,6.37905 -1.83184,0.40827 -5.83899,0.61133 -7.67084,0.81439 h -0.33915 c -1.08657,2.44749 -2.10402,4.95764 -2.98754,7.53907 -4.41327,12.82937 -10.93273,26.06918 -6.31424,39.03897 18.33138,-14.25726 37.79039,-26.99375 58.18907,-38.09065 -3.20572,-5.78931 -6.08525,-11.74712 -8.62348,-17.85614 -2.24012,-5.43504 -4.27718,-10.93273 -6.17815,-16.43258 M 311.29905,485.39469 c 15.92709,20.42245 30.33557,41.979 43.11526,64.50331 v -0.54221 c 0.17282,-1.71735 1.30476,-3.19276 2.91842,-3.80193 1.34796,-0.24842 2.6916,0.45148 3.25973,1.69791 1.01745,1.62878 1.76488,3.32669 2.91842,4.82154 1.18162,2.04139 2.95946,3.67665 5.09157,4.6833 2.17315,0.74743 5.0246,1.49485 7.26472,2.17099 l 5.90813,1.76704 c 3.87106,0.91592 7.38785,2.9465 10.11833,5.839 1.3674,1.93553 2.84065,3.79545 4.41327,5.56681 2.07595,1.83616 4.35279,3.43038 6.78948,4.75242 11.51814,6.23215 24.45553,9.36659 37.54845,9.09872 5.86708,-11.06233 17.64444,-17.69196 30.14547,-16.97478 9.30394,0.3802 18.02032,4.64009 24.03429,11.74712 19.54109,-4.51912 37.25466,-14.86643 50.79042,-29.67023 2.10402,-2.10402 4.95547,-5.16069 8.34914,-8.14824 l -7.46779,-9.91312 c -4.20805,0 -7.53474,0 -11.74712,0 -3.62048,-0.004 -7.19991,-0.74094 -10.52661,-2.17315 -2.9033,-1.20538 -5.05053,-3.73065 -5.77203,-6.79164 0,-1.69791 0,-3.46279 0,-5.09157 0,-1.62878 -2.78233,-2.17099 -3.59456,-3.32669 -0.63293,-1.0909 -0.63293,-2.4367 0,-3.52976 0,0 1.21835,-1.62878 1.42141,-1.49269 l -0.47524,-0.40828 c -1.42357,-1.08657 -2.98539,-2.10402 -2.44534,-4.21021 0.54437,-2.10402 3.12364,-2.30924 1.76488,-4.41327 -0.54437,-0.73446 -1.18379,-1.39548 -1.90097,-1.97009 -2.00034,-1.20755 -3.47791,-3.12148 -4.13893,-5.3616 0,-3.46495 5.83684,-7.40081 9.0296,-10.45748 2.0133,-1.65255 3.08259,-4.1951 2.85145,-6.78949 -0.70422,-3.13875 -1.24859,-6.30992 -1.63094,-9.50484 0,-1.62878 0,-3.32669 0,-5.0246 -1.79296,2.59655 -4.66169,4.24261 -7.80693,4.48239 3.37638,-3.98123 4.83667,-9.24129 4.00715,-14.39551 0.0734,-4.87771 2.22284,-9.4962 5.9038,-12.69545 -5.43504,-2.78448 -8.41826,3.32454 -8.62132,3.19061 0.14689,-8.21089 6.92125,-14.74763 15.13214,-14.60074 0.59189,0.0108 1.18595,0.0562 1.77136,0.13826 -4.34415,-2.73265 -7.06599,-7.43106 -7.26473,-12.56152 1.74976,2.27685 4.10221,4.01796 6.79381,5.02461 3.06963,1.04985 6.26455,1.68927 9.50484,1.90097 3.26621,0.0562 6.52378,-0.28731 9.71006,-1.01961 4.34414,-0.8144 8.62132,-1.76488 12.96763,-2.6484 12.68032,-4.52992 26.77557,-2.57711 37.7515,5.22767 -1.79296,-2.25524 -2.47126,-5.20391 -1.83184,-8.01215 0.94616,2.64839 2.91626,3.73497 5.09157,6.17814 5.09805,4.16053 10.42508,8.03807 15.95301,11.61103 3.91859,3.69609 6.75924,8.39234 8.21737,13.57896 5.35727,-1.06065 10.63678,2.15587 12.15324,7.40082 -6.78949,-4.27718 -5.70291,8.69261 -5.63162,11.68015 0.33915,5.75259 -0.0475,11.52246 -1.15571,17.17785 -3.4131,12.98923 -12.00202,24.00836 -23.76642,30.48678 -2.81041,1.23346 -5.17798,3.29213 -6.78948,5.90812 -0.20738,0.68694 -0.20738,1.41924 0,2.10618 1.22267,-0.65669 2.5231,-1.16002 3.87106,-1.49269 2.98755,-0.81439 10.65838,-2.64839 11.74712,1.83401 0.59189,3.27268 1.49917,6.47625 2.7132,9.57396 0.81655,1.01961 3.19492,2.92058 5.49985,5.70507 1.41276,1.47109 2.74992,3.0113 4.00499,4.61633 3.35262,4.23181 6.28616,8.77901 8.76174,13.57896 3.50383,6.9623 6.34448,14.2335 8.48523,21.72936 2.90546,10.12914 4.949,20.48726 6.11334,30.96203 0.94833,8.00999 1.56398,16.09126 1.69575,24.17038 0,3.66584 0,7.26472 0,10.93056 19.70095,-21.79633 36.35386,-46.16976 49.49863,-72.44849 C 727.59168,522.94097 739.9869,469.36175 740.0689,415.0567 741.6372,207.48608 582.41603,22.055253 329.29129,66.801456 c -46.14385,8.528435 -90.42993,25.099262 -130.84063,48.954254 -43.4112,25.02366 -80.83436,59.22597 -109.65563,100.21992 -14.67634,21.25412 -27.68285,43.61426 -38.90505,66.87736 45.82198,21.60191 89.49457,47.49829 130.43235,77.33701 49.25021,35.48762 93.33323,77.64808 130.97672,125.27166 m 74.28034,116.65249 h -5.43288 c 1.9917,4.75242 3.91643,9.5502 5.77203,14.39551 0.31323,-1.27451 1.08658,-2.38701 2.17099,-3.12364 3.71121,-1.66766 8.06184,-0.91592 10.9997,1.90097 8.27137,5.99237 18.53228,8.57164 28.65278,7.1956 1.08657,-3.93803 2.10618,-7.94302 3.1906,-11.88105 -4.6833,-1.35876 -9.36875,-2.78449 -14.05205,-4.34631 -5.35295,-1.99385 -10.8744,-3.49303 -16.49954,-4.48023 -4.92307,-0.45796 -9.87855,-0.45796 -14.80163,0 M 499.71526,999.04714 C 775.5242,999.20699 999.2379,775.75032 999.3999,499.94574 999.5598,224.13683 776.1031,0.42093704 500.29635,0.26108288 395.27649,0.20059752 292.91151,33.249364 207.75244,94.706807 c 0,0 0.88352,0.6783 3.12364,-0.747426 23.35599,-14.464641 47.93897,-26.846858 73.46595,-37.004077 7.60603,-3.169001 15.30063,-6.132784 23.08812,-8.895668 75.72119,-27.272416 157.20792,-34.524178 236.55823,-21.046744 30.91882,5.409119 61.15286,14.177335 90.16855,26.140475 84.6687,34.900051 159.62947,96.621043 203.69527,177.690863 48.0059,88.67585 63.825,197.51709 37.8206,295.4256 -15.7932,57.70951 -44.4351,111.09648 -83.7873,156.16455 -40.2855,46.49812 -89.85104,84.05736 -145.50405,110.27129 -57.00961,26.92246 -119.1972,41.09764 -182.24022,41.55344 -2.0025,5.44368 -3.70257,10.99969 -5.09157,16.63131 -0.47524,1.56182 -0.61133,3.19492 -1.15354,4.75458 -1.56182,4.21021 -6.31424,3.59456 -10.04705,3.53191 -1.76488,0 -4.75458,-0.34131 -6.79164,-0.54437 -4.504,5.17582 -8.33618,10.90249 -11.40797,17.04175 v 0.61566 c -4.75243,10.31491 -7.67084,16.49738 -4.21022,25.18783 1.15571,3.07179 1.55318,6.37904 1.15571,9.64093 -0.054,3.21869 -1.37173,6.2948 -3.66801,8.5522 -2.77369,1.73463 -6.05934,2.45182 -9.30178,2.03706 -6.57131,-0.2117 -13.11453,0.94616 -19.21491,3.3915 v 0 c -7.32952,4.00068 -14.87939,7.58227 -22.61072,10.73399 -7.50882,3.29429 -16.0783,3.169 -23.49208,-0.34131 -1.22267,-0.74742 -2.30708,-1.76271 -3.59888,-2.37621 -1.17514,-0.4342 -2.41509,-0.68262 -3.66584,-0.74743 -3.78682,-0.12313 -7.20208,-2.3114 -8.89567,-5.70506 -0.65886,-2.0457 -0.38667,-4.2815 0.74743,-6.10902 1.1557,-2.03706 3.19276,-2.10619 5.36375,-1.83184 1.5251,0.2873 3.06747,0.46876 4.61633,0.54004 2.78449,-0.0454 5.53225,-0.64589 8.08128,-1.76703 5.03324,-2.34165 9.62797,-5.53657 13.57896,-9.43356 3.66584,-3.39582 8.48739,-7.53907 12.76673,-11.13794 4.27718,-3.59888 6.78948,-5.77204 8.82654,-7.67084 6.59723,-6.15223 12.1878,-13.29814 16.56651,-21.18932 2.92922,-6.15223 5.35943,-12.53127 7.26472,-19.07449 l -2.44533,-1.6331 c -2.98755,-2.24012 -6.78949,-4.6833 -5.70291,-9.0296 0.88352,-2.65056 2.10619,-5.23199 3.25973,-7.8091 -102.38875,-13.5768 -162.95835,-58.86953 -162.48095,-58.79824 33.89772,7.90198 68.68976,11.2978 103.47748,10.11401 -0.73446,-0.69558 -1.33283,-1.52293 -1.76487,-2.43885 -0.57029,-1.25723 -0.82736,-2.63328 -0.74743,-4.00716 -0.0108,-1.47757 0.60485,-2.88169 1.69791,-3.87322 0.2441,-0.20306 0.51845,-0.36291 0.81439,-0.47308 0.66966,-0.16418 1.3674,-0.16418 2.03706,0 3.21005,0.49684 6.46546,0.65886 9.71006,0.47308 2.28549,-0.17714 4.55369,-0.51845 6.79165,-1.01745 l 3.52975,-0.88136 5.63594,-1.76272 c 1.8124,-0.71718 3.54271,-1.62878 5.16069,-2.71752 4.23398,-2.51878 8.17417,-5.50632 11.74712,-8.89782 6.23432,-5.33352 11.67368,-11.52678 16.1604,-18.39619 0,-0.40828 0.60917,-1.22267 0.88351,-1.90313 3.53624,-9.70358 6.30776,-19.66854 8.28218,-29.80848 l 1.15354,-6.04638 -0.60917,-0.33699 c -3.87107,-2.44317 -8.28434,-5.83899 -6.79165,-11.33668 1.15571,-3.53191 1.76488,-3.73497 3.05451,-7.19776 1.2918,-3.46063 2.98971,-10.25227 4.34631,-15.55122 l 4.75242,-18.6014 c -2.33733,0.21602 -4.62713,0.78415 -6.78948,1.69575 -5.43288,2.38053 -10.1853,5.77203 -15.54906,8.34914 1.2918,4.62065 2.57927,9.30394 3.73497,13.99156 0.50549,1.8448 0.20954,3.81489 -0.81439,5.43072 -1.01313,1.67414 -2.65055,2.86873 -4.54936,3.32885 h -1.69791 v 0 c -3.22733,-0.13825 -5.98373,-2.37189 -6.78948,-5.50201 -1.42573,-5.76771 -3.05451,-11.53974 -4.75242,-17.31177 -0.80792,-0.69558 -1.51646,-1.49269 -2.10403,-2.37621 -3.97475,0.39316 -7.60603,-2.27036 -8.42043,-6.18031 v 0 c -3.79761,-1.44733 -6.16086,-5.2579 -5.77203,-9.30394 -2.0349,-0.34131 -3.25757,-2.37621 -4.07412,-4.41111 -2.17099,-5.43504 2.71536,-9.507 6.79164,-11.13795 0.65886,-0.23114 1.34148,-0.39315 2.0349,-0.47524 -2.66999,-7.06167 -5.52145,-14.07797 -8.55435,-21.04674 -5.63594,-1.49486 -6.18031,-4.75242 -6.11119,-4.61849 -5.0246,0 -6.78948,-5.839 -6.45033,-6.10902 -6.78948,-0.54221 -6.78948,-9.0296 -6.78948,-9.0296 -2.86873,-0.72583 -4.77186,-3.44119 -4.4824,-6.38337 0,-1.69791 1.90097,-3.12148 4.21022,-4.27718 v 0 c 1.43004,-0.6891 2.90329,-1.27883 4.41327,-1.76487 C 335.3139,543.29862 318.90941,517.96389 300.37497,494.22123 263.73164,447.31052 221.03546,405.46113 173.4054,369.76181 133.5866,339.51697 90.5491,313.76317 45.07708,292.96917 16.23204,356.20013 1.01349,424.79052 0.4,494.2882 c 0,1.81024 0,3.62048 0,5.43288 0,275.80674 223.58412,499.39087 499.39303,499.39087 M 554.5798,615.96529 c -9.04472,3.41311 -18.29898,6.24728 -27.70445,8.48739 9.91311,13.58113 20.3706,27.16225 30.5559,40.33078 v 0 l 6.79164,7.46778 c 0.89216,-6.18895 1.43653,-12.4211 1.63095,-18.67486 0.25706,-13.24845 -3.55568,-26.26144 -10.93489,-37.27194 v -0.33915"
   id="path4043"
   style="opacity:0.999;stroke-width:2.16019;fill:#092e6d;fill-opacity:1" />

</svg>
