<?xml version="1.0" encoding="UTF-8" standalone="no"?>
<!-- Created with Inkscape (http://www.inkscape.org/) -->

<svg xmlns:dc="http://purl.org/dc/elements/1.1/" xmlns:cc="http://creativecommons.org/ns#" xmlns:rdf="http://www.w3.org/1999/02/22-rdf-syntax-ns#" xmlns:svg="http://www.w3.org/2000/svg" xmlns="http://www.w3.org/2000/svg" xmlns:sodipodi="http://sodipodi.sourceforge.net/DTD/sodipodi-0.dtd" xmlns:inkscape="http://www.inkscape.org/namespaces/inkscape" id="svg2985" version="1.1" inkscape:version="0.48.5 r10040" width="994.7149" height="529.21899" sodipodi:docname="Farmers_Insurance_New_Logo.svg">
  <metadata id="metadata2991">
    <rdf:RDF>
      <cc:Work rdf:about="">
        <dc:format>image/svg+xml</dc:format>
        <dc:type rdf:resource="http://purl.org/dc/dcmitype/StillImage" />
        <dc:title></dc:title>
      </cc:Work>
    </rdf:RDF>
  </metadata>
  <defs id="defs2989" />
  <sodipodi:namedview pagecolor="#ffffff" bordercolor="#666666" borderopacity="1" objecttolerance="10" gridtolerance="10" guidetolerance="10" inkscape:pageopacity="0" inkscape:pageshadow="2" inkscape:window-width="1366" inkscape:window-height="706" id="namedview2987" showgrid="false" fit-margin-top="0" fit-margin-left="0" fit-margin-right="0" fit-margin-bottom="0" inkscape:zoom="0.42600397" inkscape:cx="484.0916" inkscape:cy="450.09209" inkscape:window-x="-8" inkscape:window-y="-8" inkscape:window-maximized="1" inkscape:current-layer="svg2985" />
  <g id="g3099" transform="translate(-3.96875,6.768639)">
    <path sodipodi:nodetypes="ccsccsc" inkscape:connector-curvature="0" id="path3010" d="m 277.70883,226.48788 182.4736,0 c 0,0 24.31147,27.62548 40.71124,27.62548 16.39977,0 40.71124,-27.62548 40.71124,-27.62548 l 183.20059,0 c 0,0 10.59139,-233.256519 -223.91184,-233.256519 -231.95877,0 -223.18483,233.256519 -223.18483,233.256519 z" style="fill:white;stroke:none" />
    <path sodipodi:nodetypes="ccsc" inkscape:connector-curvature="0" id="path2995" d="m 287.33781,215.80317 426.90189,0 c 0,0 -0.75543,-211.8090135 -212.90363,-211.8090135 -215.13896,0 -213.99826,211.8090135 -213.99826,211.8090135 z" style="fill:#013088;fill-opacity:1;stroke:none" />
    <path sodipodi:nodetypes="cccccccccccccc" inkscape:connector-curvature="0" id="path2997" d="m 435.40625,13.4375 c -3.58624,36.677083 -3.07589,73.354167 -2.3125,110.03125 -34.54167,-14.3265 -69.08333,-24.339607 -103.625,-32.03125 19.46539,31.13766 40.15405,61.4598 64.03125,89.65625 -36.03019,9.50941 -71.5164,20.28813 -105.34375,34.9375 l 211.9375,0 0.53125,0 213.03125,0 C 681.86457,201.61633 644.19295,192.10136 608.3125,181.09375 629.65625,154.0034 651,129.72679 672.34375,91.4375 636.65971,99.068244 602.18696,109.9291 568.71875,123.46875 569.77373,87.313326 570.4342,51.045188 566.40625,13.4375 540.88466,41.067332 521.92531,71.978279 500.375,101.59375 482.03071,72.208333 459.64128,42.822917 435.40625,13.4375 z" style="fill:#b5c4eb;fill-opacity:1;stroke:none" />
    <path sodipodi:nodetypes="cccccccccccc" inkscape:connector-curvature="0" id="path3002" d="m 400.4061,216.03339 c -26.77881,-19.16658 -49.21774,-37.35216 -66.38081,-54.11481 29.70148,-4.38661 57.32343,-4.55043 87.02491,-4.70144 -13.19394,-26.8803 -16.0412,-54.30664 -22.99482,-82.226992 26.43681,16.310821 54.4454,30.416342 73.60768,50.884042 4.57059,-28.290304 16.02855,-57.539276 29.45637,-84.722424 11.56718,27.872854 23.82234,55.791054 29.2634,82.642884 24.06175,-21.40734 48.1235,-34.035986 72.18525,-48.020929 -5.09307,30.402839 -12.09751,58.512039 -22.72363,82.275229 28.88219,-0.66017 57.79282,-1.14972 87.76024,4.70144 -22.27012,22.3737 -44.54025,37.25621 -66.81037,53.26286 z" style="fill:white;stroke:none" />
    <path sodipodi:nodetypes="cccc" inkscape:connector-curvature="0" id="path3004" d="m 500.91683,241.75816 0,-118.98702 -67.50817,0 c 0.43107,69.43341 33.82099,103.88778 67.50817,118.98702 z" style="fill:#e01a33;fill-opacity:1;stroke:none" />
    <path style="fill:#b20032;fill-opacity:1;stroke:none" d="m 500.60858,241.75816 0,-118.98702 67.50817,0 c -0.43107,69.43341 -33.82099,103.88778 -67.50817,118.98702 z" id="path3006" inkscape:connector-curvature="0" sodipodi:nodetypes="cccc" />
    <path id="rect3012" d="m 3.96875,273.625 0,19.875 0,29.65625 0,19.875 0,48.28125 23.25,0 0,-48.28125 48.28125,0 0,-19.875 -48.28125,0 0,-29.65625 52.25,0 7.03125,-19.875 -59.28125,0 -23.25,0 z" style="fill:#013088;fill-opacity:1;fill-rule:evenodd;stroke:none" inkscape:connector-curvature="0" />
    <path id="path3019" d="m 628.15625,273.625 0,19.875 0,26.46875 0,19.84375 0,31.59375 0,19.84375 0,0.0625 23.21875,0 0,-0.0625 53.375,0 0,-19.84375 -53.375,0 0,-31.59375 48.3125,0 0,-19.84375 -48.3125,0 0,-26.46875 52.28125,0 7.03125,-19.875 -59.3125,0 -23.21875,0 z" style="fill:#013186;fill-opacity:1;fill-rule:evenodd;stroke:none" inkscape:connector-curvature="0" />
    <path id="path3029" d="m 160.4375,274.125 -47.34375,118.78125 25.53125,0 9.0625,-25.25 47.0625,0 8.78125,24.6875 26.65625,0 -47.0625,-118.21875 -22.6875,0 z m 10.5,31.1875 17.84375,44.21875 -35.4375,0 17.59375,-44.21875 z" style="fill:#013088;fill-opacity:1;stroke:none" inkscape:connector-curvature="0" />
    <path id="path3034" d="m 282.0625,273.5625 0,118.78125 24.9375,0 0,-45.9375 11.0625,0 31.15625,46.21875 29.21875,0 L 343,342.71875 c 0,0 24.375,-7.01563 24.375,-30.90625 0,-37.31178 -37.125,-38.25 -37.125,-38.25 l -48.1875,0 z m 24.84375,18.78125 20,0 c 0,0 17.3125,1.35572 17.3125,18.4375 0,17.25125 -17.65625,18.09375 -17.65625,18.09375 l -19.75,0 0.0937,-36.53125 z" style="fill:#013088;fill-opacity:1;stroke:none" inkscape:connector-curvature="0" />
    <path inkscape:connector-curvature="0" style="fill:#013088;fill-opacity:1;stroke:none" d="m 768.00081,273.5625 0,118.78125 24.9375,0 0,-45.9375 11.0625,0 31.15625,46.21875 29.21875,0 -35.4375,-49.90625 c 0,0 24.375,-7.01563 24.375,-30.90625 0,-37.31178 -37.125,-38.25 -37.125,-38.25 l -48.1875,0 z m 24.84375,18.78125 20,0 c 0,0 17.3125,1.35572 17.3125,18.4375 0,17.25125 -17.65625,18.09375 -17.65625,18.09375 l -19.75,0 0.0937,-36.53125 z" id="path3039" />
    <path inkscape:connector-curvature="0" id="path3041" d="m 458.74949,318.55736 -5.43777,74.15132 -22.73973,0 9.88684,-118.64211 23.72842,0 35.59263,77.61171 33.12093,-77.61171 21.75105,0 10.87553,118.14777 -24.71711,0 -3.95474,-74.15132 -34.60395,74.15132 -10.38118,0 z" style="fill:#013088;fill-opacity:1;stroke:none" />
    <path sodipodi:nodetypes="ccccccccccccc" inkscape:connector-curvature="0" id="path3043" d="m 910.57819,379.36144 11.36986,-17.30197 c 21.55986,14.25667 37.45734,14.59608 51.13251,5.19869 2.90629,-9.64736 0.70545,-14.72483 -3.8033,-18.24304 l -38.92539,-15.62749 c -16.82097,-13.3992 -23.08381,-29.14465 -4.44908,-50.4229 16.87442,-14.28635 38.65755,-14.54781 64.75882,-2.47171 l -0.98868,22.24539 c -14.98674,-5.32282 -29.03037,-16.30427 -46.46816,-6.92079 -8.68149,11.37152 -0.8841,16.73078 4.49588,20.43242 24.89455,8.86637 43.81523,16.25795 48.39872,26.53009 6.62953,20.17435 -1.04305,29.75384 -7.03837,38.06434 -28.10792,22.16472 -59.85856,11.64699 -78.48281,-1.48303 z" style="fill:#013088;fill-opacity:1;stroke:none" />
    <path id="rect3045" d="m 169.51532,456.50317 13.30498,0 0,64.80019 -13.30498,0 z" style="fill:#e21931;fill-opacity:1;fill-rule:evenodd;stroke:none" inkscape:connector-curvature="0" />
    <path inkscape:connector-curvature="0" id="path3054" d="m 227.17025,477.4462 0,43.36438 -11.33388,0 0,-63.32185 10.8411,0 31.78412,43.11799 0,-43.61077 10.34832,0 0,64.30741 -9.60915,0 z" style="fill:#e21931;fill-opacity:1;stroke:none" />
    <path style="fill:#e21931;fill-opacity:1;stroke:none" d="m 632.23303,477.4462 0,43.36438 -11.33388,0 0,-63.32185 10.8411,0 31.78412,43.11799 0,-43.61077 10.34832,0 0,64.30741 -9.60915,0 z" id="path3056" inkscape:connector-curvature="0" />
    <path style="fill:#e21931;fill-opacity:1;stroke:none" d="m 298.63058,514.52517 6.33664,-9.64272 c 12.01573,7.94552 18.71991,8.87731 26.34135,3.63997 3.10557,-2.62448 4.03535,-7.24059 0.63024,-10.09222 l -22.23847,-9.94833 c -10.24248,-5.2113 -12.91456,-15.82165 -2.52906,-27.68042 9.40444,-7.96206 21.54459,-8.10778 36.09132,-1.37754 l -0.55101,12.39779 c -8.35239,-2.96652 -19.71406,-8.71459 -25.33945,-3.485 -4.28021,4.4771 -1.90347,7.75865 1.0949,9.82164 13.87421,4.9414 25.27167,10.25451 27.82613,15.97937 3.69476,11.24355 -1.42848,16.87944 -4.76979,21.51103 -13.58571,11.31314 -32.51314,6.19404 -42.8928,-1.12357 z" id="path3058" inkscape:connector-curvature="0" sodipodi:nodetypes="ccccccccccccc" />
    <path sodipodi:nodetypes="sccccsccccs" inkscape:connector-curvature="0" id="path3060" d="m 402.00277,522.27669 c -24.94907,0 -27.09951,-21.96824 -27.09951,-21.96824 l 0,-43.93648 13.62993,0 0,43.77613 c 0,0 0.51665,11.22465 13.14888,11.22465 11.06083,0 13.30922,-10.10219 13.30922,-10.10219 l 0,-45.37965 12.18677,0 0,43.93648 c 0,0 0.34608,22.4493 -25.17529,22.4493 z" style="fill:#e21931;fill-opacity:1;stroke:none" />
    <path id="path3062" d="m 460.09055,456.03238 0,65.24471 13.69779,0 0,-25.23276 6.07646,0 17.11365,25.38725 16.04941,0 -19.46528,-27.41274 c 0,0 13.38882,-3.85358 13.38882,-16.97633 0,-20.49479 -20.39219,-21.01013 -20.39219,-21.01013 l -26.46866,0 z m 13.6463,10.31624 10.98569,0 c 0,0 9.50948,0.74468 9.50948,10.12744 0,9.47584 -9.6983,9.93862 -9.6983,9.93862 l -10.84837,0 0.0515,-20.06606 z" style="fill:#e21931;fill-opacity:1;stroke:none" inkscape:connector-curvature="0" />
    <path inkscape:connector-curvature="0" style="fill:#e21931;fill-opacity:1;stroke:none" d="m 558.29419,457.01083 -26.08285,65.43955 14.0658,0 4.99276,-13.91085 25.9279,0 4.83781,13.60095 14.68559,0 -25.9279,-65.12965 -12.49911,0 z m 5.78471,17.18197 9.83057,24.36121 -19.5234,0 9.69283,-24.36121 z" id="path3064" />
    <path sodipodi:nodetypes="ssccsssccss" inkscape:connector-curvature="0" id="path3066" d="m 704.51277,490.08251 c -0.15041,-18.12123 8.98512,-34.29109 32.83018,-35.12066 7.68699,-0.26743 18.32383,4.58095 18.32383,4.58095 l 0.76349,12.59763 c 0,0 -11.80197,-6.46701 -19.08731,-5.7262 -11.88246,1.20828 -20.99605,6.74033 -20.99605,24.05002 0,11.4283 8.99205,20.18361 20.23256,20.23256 7.62319,0.0332 16.79683,-5.34445 16.79683,-5.34445 l 4.39008,10.30715 c 0,0 -11.64024,6.29881 -20.80517,6.29881 -17.15257,0 -32.27498,-10.97906 -32.44844,-31.87581 z" style="fill:#e21931;fill-opacity:1;stroke:none" />
    <path inkscape:connector-curvature="0" style="fill:#e21931;fill-opacity:1;fill-rule:evenodd;stroke:none" d="m 789.19125,456.97355 0,10.83069 0,14.42389 0,10.81368 0,17.21671 0,10.81366 0,0.034 12.65285,0 0,-0.034 29.0862,0 0,-10.81366 -29.0862,0 0,-17.21671 26.32743,0 0,-10.81368 -26.32743,0 0,-14.42389 28.49017,0 3.83161,-10.83069 -32.32178,0 -12.65285,0 z" id="path3068" />
    <path inkscape:connector-curvature="0" id="path3088" style="font-size:13.80000019px;font-style:normal;font-weight:normal;text-align:start;text-anchor:start;fill:#013088;fill-opacity:1;font-family:Arial" d="m 968.76459,247.91427 1.93675,-0.16933 c 0.0917,0.77612 0.30515,1.41288 0.64029,1.91029 0.33514,0.49742 0.85548,0.89959 1.56104,1.2065 0.70555,0.30692 1.4993,0.46038 2.38125,0.46038 0.78316,0 1.47461,-0.11642 2.07434,-0.34925 0.59971,-0.23283 1.04597,-0.5521 1.33879,-0.95779 0.29279,-0.40569 0.4392,-0.84843 0.43921,-1.32821 -10e-6,-0.48683 -0.14112,-0.91193 -0.42334,-1.27529 -0.28223,-0.36336 -0.74789,-0.66851 -1.397,-0.91546 -0.41628,-0.16227 -1.33703,-0.41451 -2.76225,-0.75671 -1.42523,-0.34219 -2.42359,-0.66498 -2.99508,-0.96838 -0.74084,-0.38804 -1.29294,-0.86959 -1.65629,-1.44462 -0.36337,-0.57502 -0.54505,-1.21884 -0.54505,-1.93146 0,-0.78316 0.22225,-1.51517 0.66675,-2.19604 0.4445,-0.68085 1.09361,-1.19767 1.94734,-1.55046 0.85372,-0.35277 1.80269,-0.52915 2.84692,-0.52917 1.15004,2e-5 2.16428,0.18522 3.04271,0.55562 0.8784,0.37044 1.55397,0.91548 2.02671,1.63513 0.47271,0.71968 0.72671,1.5346 0.762,2.44475 l -1.96851,0.14817 c -0.10584,-0.98071 -0.46391,-1.72155 -1.0742,-2.2225 -0.61032,-0.50093 -1.51167,-0.75141 -2.70405,-0.75142 -1.24178,1e-5 -2.14666,0.22756 -2.71462,0.68263 -0.56798,0.45509 -0.85197,1.00366 -0.85196,1.6457 -10e-6,0.55741 0.20108,1.01602 0.60325,1.37584 0.39511,0.35984 1.42698,0.72849 3.09562,1.10596 1.66864,0.37748 2.8134,0.70733 3.4343,0.98954 0.9031,0.41629 1.56985,0.94369 2.00025,1.58221 0.43037,0.63853 0.64557,1.37407 0.64558,2.20662 -10e-6,0.82551 -0.23637,1.60338 -0.70908,2.33363 -0.47274,0.73025 -1.15183,1.29822 -2.03729,1.70392 -0.88549,0.40569 -1.88208,0.60854 -2.9898,0.60854 -1.40406,0 -2.58057,-0.20461 -3.52954,-0.61383 -0.94898,-0.40923 -1.69334,-1.02482 -2.23308,-1.8468 -0.53976,-0.82197 -0.82374,-1.75153 -0.85196,-2.78871 z" />
    <path inkscape:connector-curvature="0" id="path3090" style="font-size:13.80000019px;font-style:normal;font-weight:normal;text-align:start;text-anchor:start;fill:#013088;fill-opacity:1;font-family:Arial" d="m 983.87759,252.89903 0,-15.51518 3.09034,0 3.67242,10.98551 c 0.33866,1.02306 0.5856,1.78858 0.74083,2.29658 0.17638,-0.56444 0.45155,-1.39347 0.8255,-2.48708 l 3.71475,-10.79501 2.76225,0 0,15.51518 -1.97908,0 0,-12.98576 -4.5085,12.98576 -1.85209,0 -4.48733,-13.20801 0,13.20801 z" />
  </g>
</svg>
