<svg xmlns="http://www.w3.org/2000/svg" viewBox="0 0 812.003 145.229"><g fill="#104293" stroke-miterlimit="10" data-paper-data="{&quot;isPaintingLayer&quot;:true}" style="mix-blend-mode:normal"><path d="M0 51.415C0 9.815 23.359.003 62.61.003h65.557c49.458 0 56.326 17.847 56.326 45.522v4.52h-42.795c0-14.13-8.049-15.893-21.974-15.893h-47.3c-21.988 0-27.675 5.292-27.675 29.628v17.658c0 24.35 5.687 29.643 27.675 29.643h46.513c11.388 0 22.76-1.765 22.76-15.5v-4.126H87.53v-29.44h97.75v40.434c0 40.812-21.2 42.78-70.265 42.78H62.61C23.359 145.23 0 135.416 0 93.817zM196.07 1.566h155.434v32.968H239.638v22.775h105.99v29.44h-105.99v22.76h114.417v34.149H196.07zM367.242 1.565h43.583v142.091h-43.583zM423.98 51.415c0-41.6 23.358-51.412 62.61-51.412h51.223c62.013 0 70.077 13.342 69.668 53.57h-43.568v-3.922c0-10.207-7.45-13.152-20.413-13.152h-47.49c-22.965 0-27.281 10.805-27.281 28.462v15.31c0 20.603 4.316 28.462 24.933 28.462h46.514c19.626 0 25.502-1.968 25.502-19.64h43.568v13.356c0 23.942-8.632 42.78-52.404 42.78H486.59c-39.252 0-62.61-9.813-62.61-51.412zM661.658 80.268c0 20.603 4.316 28.462 24.934 28.462h55.728c20.603 0 24.92-7.859 24.92-28.462v-15.31c0-17.657-4.317-28.462-27.267-28.462h-51.034c-22.965 0-27.28 10.805-27.28 28.462zM616.91 51.413C616.91 9.813 640.27 0 679.52 0h69.857c39.267 0 62.626 9.813 62.626 51.413v42.401c0 41.6-23.359 51.413-62.626 51.413H679.52c-39.252 0-62.61-9.814-62.61-51.413z"/></g></svg>