<?xml version="1.0" encoding="UTF-8" standalone="no"?>
<svg
   width="1000"
   height="419.18378"
   viewBox="0 0 1000 419.18378"
   fill="none"
   version="1.1"
   id="svg1"
   sodipodi:docname="goldman sachs 2024.svg"
   inkscape:version="1.3.2 (091e20e, 2023-11-25, custom)"
   inkscape:export-filename="goldman sachs 2024.png"
   inkscape:export-xdpi="96"
   inkscape:export-ydpi="96"
   xmlns:inkscape="http://www.inkscape.org/namespaces/inkscape"
   xmlns:sodipodi="http://sodipodi.sourceforge.net/DTD/sodipodi-0.dtd"
   xmlns="http://www.w3.org/2000/svg"
   xmlns:svg="http://www.w3.org/2000/svg">
  <defs
     id="defs1" />
  <sodipodi:namedview
     id="namedview1"
     pagecolor="#505050"
     bordercolor="#eeeeee"
     borderopacity="1"
     inkscape:showpageshadow="0"
     inkscape:pageopacity="0"
     inkscape:pagecheckerboard="0"
     inkscape:deskcolor="#d1d1d1"
     inkscape:zoom="1.75"
     inkscape:cx="500"
     inkscape:cy="209.42857"
     inkscape:window-width="1920"
     inkscape:window-height="991"
     inkscape:window-x="-9"
     inkscape:window-y="-9"
     inkscape:window-maximized="1"
     inkscape:current-layer="svg1" />
  <title
     id="title1">GoldmanSachs Logo</title>
  <path
     d="m 225.71434,41.224467 c -38.3666,0 -62.04081,28.979626 -62.04081,78.367373 0,48.97969 23.67421,78.3677 62.04081,78.3677 38.3666,0 62.04081,-28.98011 62.04081,-78.3677 0,-49.387747 -23.2647,-78.367373 -62.04081,-78.367373 z m 0,147.754863 c -14.694,0 -19.1841,-15.9177 -19.1841,-69.79555 0,-53.877688 4.4901,-69.796031 19.1841,-69.796031 14.69401,0 19.18411,16.326563 19.18411,70.204091 0,53.46979 -4.4901,69.38749 -19.18411,69.38749 z m 282.85715,73.87792 c -16.3272,0 -28.1627,6.12169 -35.1018,16.73511 v -53.87802 h -41.22511 v 99.99952 c 0,54.28591 -31.0196,80.00122 -59.18392,80.00122 -20.81569,0 -29.38639,-14.2861 -29.38639,-63.26612 0,-48.98001 5.3059,-71.02101 22.03939,-71.02101 11.02131,0 20.40942,10.61341 29.79591,35.10341 h 10.20551 v -36.32711 c -12.245,-4.898 -27.3469,-7.347 -39.18401,-7.347 -42.04091,0 -65.71512,30.2038 -65.71512,79.59171 0,48.98002 23.67421,76.73482 63.67402,76.73482 33.0607,0 56.73491,-17.5509 67.75461,-47.34681 v 43.67411 h 41.22511 V 304.49026 c 0,-17.143 9.3881,-25.71531 19.18411,-25.71531 9.38649,0 12.6529,7.75651 12.6529,19.592 v 117.55203 h 41.2235 V 306.12185 c 0,-30.6117 -15.1019,-43.2646 -37.95871,-43.2646 z M 313.06096,4.0816408 V 194.28523 h 41.22511 V 4.0816408 Z m 148.57162,0 V 55.91831 c -3.67269,-8.979562 -12.6529,-14.693843 -26.939,-14.693843 -32.24491,0 -53.8764,28.979626 -53.8764,77.551093 0,49.79597 19.18249,78.77608 52.24481,78.77608 15.5098,0 26.12159,-7.347 31.0196,-22.4489 v 18.77459 H 502.4498 V 4.0816408 Z M 441.22478,185.71454 c -13.0608,0 -17.5509,-13.0608 -17.5509,-67.3472 0,-51.020307 4.4901,-66.12237 18.3667,-66.12237 15.1019,0 20.4078,17.959123 20.4078,66.12237 0,48.57099 -6.93749,67.3472 -21.2236,67.3472 z M 680.40782,41.224467 c -18.3667,0 -31.83701,9.796003 -37.5508,23.265345 -5.7138,-15.510283 -17.14301,-23.265345 -33.4686,-23.265345 -17.55091,0 -30.20542,7.755062 -36.32711,20.408124 V 44.897968 H 534.6947 V 194.28523 h 40.81561 V 82.857155 c 0,-17.142843 8.16279,-25.714345 18.3667,-25.714345 8.5723,0 12.245,6.938781 12.245,18.775564 V 194.28523 h 41.22511 V 82.857155 c 0,-17.142843 8.1628,-25.714345 18.3667,-25.714345 8.57231,0 12.245,6.938781 12.245,18.775564 V 194.28523 h 41.22511 V 84.489876 c 0,-30.612346 -15.5098,-43.265409 -38.77611,-43.265409 z m -33.8765,286.938393 -23.67421,-14.2845 c -15.91769,-9.3881 -21.6331,-15.10351 -21.6331,-24.8979 0,-11.02131 7.75651,-17.96041 20.81731,-17.96041 15.5098,0 26.93901,10.2039 33.8765,35.1018 h 10.20551 v -38.3666 c -13.06241,-2.8569 -27.75642,-5.3059 -40.81721,-5.3059 -33.06071,0 -53.06061,16.3256 -53.06061,42.85671 0,18.36831 10.2039,31.02121 31.0196,43.67411 l 19.592,11.83549 c 16.32721,9.796 22.04101,16.73511 22.04101,27.75642 0,14.28449 -8.98021,21.63149 -24.49001,21.63149 -19.1841,0 -30.2038,-12.245 -37.5508,-39.1824 h -10.2039 v 42.04091 c 15.1019,4.0806 31.0196,5.7138 44.08201,5.7138 37.5508,0 59.18391,-17.5509 59.18391,-46.93891 -0.40951,-19.9999 -10.20551,-32.24491 -29.38801,-43.67411 z M 803.67365,41.224467 c -15.5098,0 -33.87811,2.857222 -51.02112,8.163282 v 35.102127 h 10.20552 c 8.57069,-22.040844 19.9999,-34.285847 36.3255,-34.285847 10.2039,0 14.2861,4.898001 14.2861,16.326563 v 19.183784 c 0,9.387621 -2.449,12.244842 -13.0608,15.918344 l -11.02131,3.6735 c -32.6528,11.02034 -47.3468,25.30612 -47.3468,51.02031 0,27.3469 16.3272,41.63301 39.9998,41.63301 16.73511,0 31.02121,-7.347 35.51132,-21.63311 v 17.9588 h 37.5508 V 85.714376 C 854.69476,56.32653 837.14225,41.224467 803.67365,41.224467 Z m 9.796,113.061283 c 0,19.59168 -6.5312,28.57189 -16.7351,28.57189 -9.79601,0 -13.0608,-7.7549 -13.0608,-27.75561 v -4.08156 c 0,-23.26535 4.898,-32.65313 18.36669,-39.59191 l 11.42921,-5.71428 z M 962.04128,41.224467 c -17.9588,0 -31.02121,7.755062 -37.5508,20.408124 V 44.897968 H 885.71436 V 194.28523 h 41.22512 V 82.448935 c 0,-17.142843 9.3881,-25.714184 19.18249,-25.714184 9.38811,0 12.65451,7.755061 12.65451,19.591844 V 193.87733 h 41.2235 V 84.489876 c 0,-30.612346 -15.1019,-43.265409 -37.9587,-43.265409 z M 146.12247,351.83707 c 0,38.3666 -27.75513,64.08191 -72.244876,64.08191 H 8.5714376 v -68.16412 h 9.7959054 c 8.979562,40.40771 25.714346,58.36812 53.87753,58.36812 22.857124,0 35.102127,-12.245 35.102127,-32.24491 0,-21.22521 -13.061283,-31.02121 -32.244906,-42.04091 l -28.979625,-17.143 C 21.632624,300.40805 7.7551095,282.85715 7.7551095,258.36715 c 0,-27.34691 15.9182945,-44.89781 41.6326395,-52.24481 C 13.061234,196.32633 0,163.26563 0,104.48978 0,37.550967 27.755125,0 84.489876,0 H 137.14291 V 56.32653 H 126.93884 C 114.69384,20.408123 104.08172,9.3877497 84.897935,9.3877497 c -28.163184,0 -35.918406,30.2041583 -35.918406,96.7347503 0,76.73514 6.938781,93.87814 27.755125,93.87814 15.918504,0 23.673566,-10.2039 23.673566,-34.28601 v -29.388 c 0,-17.95929 -5.714282,-24.48985 -24.489846,-27.34707 V 99.591939 H 138.77563 V 260.00035 h -9.38779 c -14.28578,-40.4077 -32.653122,-49.38791 -53.061245,-49.38791 -20.000065,0 -32.244906,9.3881 -32.244906,27.7548 0,17.14301 10.204061,25.30581 29.387684,36.73501 l 31.428627,18.7746 c 24.8979,15.51141 41.22447,29.7959 41.22447,57.96022 z m 79.18397,-88.97982 c -15.5098,0 -33.87811,2.8569 -51.02111,8.1628 v 35.1018 h 10.2039 c 8.57231,-22.03939 19.9999,-34.28439 36.32711,-34.28439 10.2039,0 14.28611,4.898 14.28611,16.32559 v 18.77621 c 0,9.3881 -2.449,12.245 -13.0608,15.9177 l -11.02131,3.67431 c -32.65281,11.01969 -47.34681,25.3058 -47.34681,51.0195 0,27.3469 16.32721,41.63301 39.99981,41.63301 16.7351,0 31.02121,-7.347 35.5097,-21.63311 v 17.96041 h 37.14291 V 307.75506 c 0,-29.79591 -17.9588,-44.89781 -51.01951,-44.89781 z m 9.79601,113.06193 c 0,19.59039 -6.53121,28.57059 -16.73511,28.57059 -9.796,0 -13.0608,-7.7549 -13.0608,-27.7548 v -4.0822 c 0,-23.2647 4.898,-32.65281 18.3667,-39.59191 l 11.42921,-5.7138 z"
     fill="#000000"
     fill-opacity="0.95"
     id="path1"
     style="stroke-width:1" />
</svg>
