<?xml version="1.0" encoding="UTF-8" standalone="no"?>
<!-- Created with Inkscape (http://www.inkscape.org/) -->

<svg
   xmlns:dc="http://purl.org/dc/elements/1.1/"
   xmlns:cc="http://creativecommons.org/ns#"
   xmlns:rdf="http://www.w3.org/1999/02/22-rdf-syntax-ns#"
   xmlns:svg="http://www.w3.org/2000/svg"
   xmlns="http://www.w3.org/2000/svg"
   xmlns:sodipodi="http://sodipodi.sourceforge.net/DTD/sodipodi-0.dtd"
   xmlns:inkscape="http://www.inkscape.org/namespaces/inkscape"
   width="537.52179"
   height="110.72035"
   viewBox="0 0 142.2193 29.29476"
   version="1.1"
   id="svg9768"
   inkscape:version="0.92.2 (5c3e80d, 2017-08-06)"
   sodipodi:docname="Humana_logo.svg">
  <defs
     id="defs9762" />
  <sodipodi:namedview
     id="base"
     pagecolor="#ffffff"
     bordercolor="#666666"
     borderopacity="1.0"
     inkscape:pageopacity="0.0"
     inkscape:pageshadow="2"
     inkscape:zoom="0.95833334"
     inkscape:cx="268.26087"
     inkscape:cy="54.860204"
     inkscape:document-units="mm"
     inkscape:current-layer="layer1"
     showgrid="false"
     fit-margin-top="0"
     fit-margin-left="0"
     fit-margin-right="0"
     fit-margin-bottom="0"
     units="px"
     inkscape:window-width="1366"
     inkscape:window-height="705"
     inkscape:window-x="-8"
     inkscape:window-y="-8"
     inkscape:window-maximized="1" />
  <metadata
     id="metadata9765">
    <rdf:RDF>
      <cc:Work
         rdf:about="">
        <dc:format>image/svg+xml</dc:format>
        <dc:type
           rdf:resource="http://purl.org/dc/dcmitype/StillImage" />
        <dc:title></dc:title>
      </cc:Work>
    </rdf:RDF>
  </metadata>
  <g
     inkscape:label="Layer 1"
     inkscape:groupmode="layer"
     id="layer1"
     transform="translate(2.9416409,-181.67867)">
    <path
       style="fill:#4e8416;stroke-width:0.26458332"
       inkscape:connector-curvature="0"
       class="st0"
       d="m 36.806806,188.60729 c -0.486204,0 -0.850847,0.36477 -0.850847,0.85089 v 16.65302 c -1.21558,0.24304 -2.552677,0.48625 -3.889774,0.48625 -2.917319,0 -3.889774,-1.09402 -3.889774,-4.25442 v -12.88485 c 0,-0.48621 -0.364779,-0.85089 -0.729329,-0.85089 h -4.375978 v 13.73574 c 0,6.44241 3.403568,8.50884 8.873518,8.50884 4.37598,0 8.751958,-1.21554 9.116645,-1.33711 v -20.90747 z m 66.976814,22.00145 c 0.36478,0 0.85085,-0.36478 0.85085,-0.85089 v -16.77458 c 1.21558,-0.24304 2.55268,-0.48622 3.88977,-0.48622 2.91732,0 3.88978,1.09402 3.88978,4.25442 v 13.00638 c 0,0.48624 0.36478,0.85089 0.72933,0.85089 h 4.37598 v -13.85727 c 0,-6.4424 -3.40357,-8.50883 -8.87352,-8.50883 -4.37598,0 -8.751961,1.21554 -9.116649,1.33711 v 21.02899 z m -17.503911,-22.3661 c -5.713121,0 -9.238207,3.03889 -9.238207,9.72441 v 3.28196 c 0,7.2933 3.889774,9.72442 8.022627,9.72442 2.066427,0 4.254415,-1.45867 4.86223,-2.30956 v 1.33711 c 0,0.36478 0.364778,0.72932 0.729328,0.72932 0,0 4.254417,0 4.37598,0 v -21.27212 c 0.121741,0 -4.1329,-1.21554 -8.751958,-1.21554 z m 3.768165,17.01771 c -0.972408,0.85085 -1.701738,1.3371 -3.768165,1.3371 -2.917319,0.12173 -4.132898,-1.70179 -4.132898,-5.46999 v -3.03889 c 0,-4.25441 1.580221,-5.46995 4.132898,-5.46995 2.066427,0 3.281961,0.12173 3.768165,0.24304 z m 40.356256,-17.01771 c -5.71307,0 -9.23815,3.03889 -9.23815,9.72441 v 3.28196 c 0,7.2933 3.88972,9.72442 8.14417,9.72442 2.06645,0 4.25443,-1.45867 4.86219,-2.30956 v 1.33711 c 0,0.36478 0.36478,0.72932 0.72933,0.72932 0,0 4.25441,0 4.37599,0 v -21.27212 c 0,0 -4.25441,-1.21554 -8.87353,-1.21554 z m 3.76821,17.01771 c -0.97244,0.85085 -1.70178,1.3371 -3.76821,1.3371 -2.91732,0 -4.13285,-1.70179 -4.13285,-5.46999 v -3.03889 c 0,-4.37598 1.58022,-5.46995 4.13285,-5.46995 2.06643,0 3.28201,0.12173 3.76821,0.24304 z m -137.1139809,5.34839 c 0.7293299,0 4.6191039,0 4.6191039,0 0.3647786,0 0.7293285,-0.36478 0.7293285,-0.72933 v -12.15549 h 8.5088325 c 1.45866,0 2.431114,1.09398 2.431114,2.30956 v 9.84593 c 0,0.36478 0.36478,0.72933 0.72933,0.72933 0,0 4.375978,0 4.619056,0 0,0 0,-28.68694 0,-28.93007 h -4.619056 c -0.36478,0 -0.72933,0.36478 -0.72933,0.72934 v 10.93994 H 4.5947813 c -1.2155799,0 -2.0664727,-0.97246 -2.0664727,-2.06642 v -8.87352 C 2.4065672,182.16497 2.1635285,181.67867 1.677463,181.67867 h -4.6191039 c 0,0.24304 0,28.93007 0,28.93007 z m 68.4354299,-22.3661 c -2.431114,0 -4.740619,0.97246 -5.834637,1.70178 -1.580222,-1.21558 -3.768212,-1.70178 -6.442405,-1.70178 -4.011337,0 -7.414859,1.21554 -7.901065,1.45866 v 21.029 h 4.375978 c 0.486206,0 0.72933,-0.36478 0.72933,-0.85089 v -16.89614 c 1.093972,-0.24304 1.944864,-0.36478 2.674194,-0.36478 3.038882,0 3.768212,1.21552 3.768212,4.25441 v 13.00636 c 0,0.36479 0.243032,0.85091 0.729329,0.85091 h 3.646649 c 0.486204,0 0.72933,-0.36478 0.72933,-0.85091 v -16.28832 c 0.850892,-0.60782 1.944864,-0.97245 3.038881,-0.97245 2.309551,0 3.281961,1.09397 3.281961,3.88977 v 13.371 c 0,0.36479 0.243033,0.85091 0.72933,0.85091 0,0 4.011335,0 4.375978,0 v -14.95125 c 0.121742,-5.59156 -3.403524,-7.53641 -7.901065,-7.53641 z"
       id="path9738" />
  </g>
</svg>
