<?xml version="1.0" encoding="UTF-8" standalone="no"?>
<svg id="Layer_1" height="207.03914" viewBox="0 0 480.00001 207.03914" width="480" xmlns="http://www.w3.org/2000/svg" xmlns:xlink="http://www.w3.org/1999/xlink">
   <defs id="defs23">
      <clipPath id="SVGID_2_">
         <use id="use13" height="100%" overflow="visible" width="100%" xlink:href="#SVGID_1_"/>
      </clipPath>
      <polygon id="SVGID_1_" points="375.5 433.1 375.5 183.4 486.3 351.4 597 183.4 597 433.1 706.7 433.1 706.7 0 580.4 0 486.3 161.8 392.1 0 265.9 0 265.9 433.1"/>
   </defs>
   <path id="path6" d="m55.97849 157.46639v-157.46639h-55.97849v174.48461c0 17.97431 14.58022 32.55453 32.55453 32.55453h23.42396 67.83388v-49.57275z" stroke-width=".47804004"/>
   <polygon id="polygon8" points="716.3 433.1 730.2 433.1 730.2 204.9 907 433.1 1004.1 433.1 1004.1 0 889.9 0 889.9 226 716.3 0" transform="scale(.47804004)"/>
   <path id="path16" clip-path="url(#SVGID_2_)" d="m279.7 440h-13.9v-447h13.9zm22.5-447h-13.9v447h13.9zm22.5 0h-13.9v447h13.9zm22.5 0h-13.9v447h13.9zm22.4 0h-13.9v447h13.9zm22.5 0h-13.9v447h13.9zm22.5 0h-13.9v447h13.9zm22.4 0h-13.9v447h13.9zm22.5 0h-13.9v447h13.9zm22.5 0h-13.9v447h13.9zm22.4 0h-13.9v447h13.9zm22.5 0h-13.9v447h13.9zm22.5 0h-13.9v447h13.9zm22.4 0h-13.8v447h13.9v-447zm22.5 0h-13.9v447h13.9zm22.5 0h-13.9v447h13.9zm22.5 0h-13.9v447h13.9zm22.4 0h-13.9v447h13.9zm22.5 0h-13.9v447h13.9zm22.5 0h-13.9v447h13.9z" transform="scale(.47804004)"/>
</svg>
