<svg id="Group_3" data-name="Group 3" xmlns="http://www.w3.org/2000/svg" xmlns:xlink="http://www.w3.org/1999/xlink" width="999.908" height="384.11" viewBox="0 0 999.908 384.11">
  <defs>
    <clipPath id="clip-path">
      <rect id="Rectangle_1" data-name="Rectangle 1" width="999.908" height="384.11" fill="none"/>
    </clipPath>
  </defs>
  <g id="Group_2" data-name="Group 2" clip-path="url(#clip-path)">
    <path id="Path_19" data-name="Path 19" d="M999.908,105.636c-66.716,44.686-374.154,198.589-425.1,99.9-7.247-14.621-9-15.369-24.151-8.608-78.465,36.915-151.591,75.717-130.245-52.453,3.458-33.724,10.458-53.553-32.493-34.823-46.3,26.511-91.544,54.853-137.513,81.912-14.829,8.11-36,9.887-44.883-7.356-10.021-14.868-11.071-44.918-35.1-41.559-36.942,6.751-65.25,34.643-97.814,51.58-20.94,12.251-42.326,23.747-63.672,35.288-2.2,1.192-5.456.445-8.625.558a6.188,6.188,0,0,1-.065-3.69c26.871-21.575,53.369-43.132,76.847-68.408,34.416-35.9,64.447-77.5,108.467-102.521,27.31-16.181,83.83-24.8,81.686,25.245a203.505,203.505,0,0,0-.4,23.971c.539,14.313,7.687,21.34,21.746,19.314a81.1,81.1,0,0,0,27.69-9.076c46.891-26.264,90.284-58.2,135.331-87.381,28.037-17.379,62.165-31.7,95.5-26.422,50.194,9.754,24.974,69.224-.983,91.325-23.966,23.04-50.022,44.04-71.6,69.48-9.88,10.526-14.95,37.207,4.969,38.953,58.116,8.161,93.611-43.183,122.064-85.5C642.445,59.919,705.06,6.426,778.027,10.993c26.151.6,56.957,31.9,28.449,52.726-41.745,24.538-104.337,19.936-131.535,66.256C646.122,202.3,827.128,158.168,859.133,149.5c48.759-10.339,93.756-33.775,140.775-47.464Z" fill="#010101"/>
    <path id="Path_20" data-name="Path 20" d="M521.358,384.036c-12.458-3.7-21.1-11.357-14.552-24.705,9.544-23.364,44.551-54.492,70.545-40.673,12.069,11.086-9.807,15.511-17.527,18.406a153.931,153.931,0,0,0-18.608,9.153,9.009,9.009,0,0,0-4.442,10.287c2.544,9.371,21.948,5.662,29.178,4.823,13-2.584,24.922-9.687,37.972-11.605-23.824,17.4-52.284,33.1-82.566,34.314" fill="#040404"/>
    <path id="Path_21" data-name="Path 21" d="M636.346,384.036c-6.03-3.305-7.492-8.279-6.269-14.359,1.415-6.584-1.164-13.676-8.3-7.962-7.364,5.347-16.107,25.411-26.018,18.656-.755-.506-.127-4.259.854-5.973,9.5-17.957,22.407-33.931,28.547-53.524l-4.3-1.751c2.662-4.135,7.663-5.96,11.616-4.372,8.007,3.435.044,16.964-.593,23.54,21.832-9.37,26.354,5.142,16.485,22.5-3.213,7.134-14.048,16.213.491,15.6.112,6.727-6.923,8.084-12.518,7.648" fill="#050505"/>
    <path id="Path_22" data-name="Path 22" d="M384.346,384.036c-33.589-10.317,18.671-58.732,38.52-46.913,10.931,7.545-5.367,12.025-11.468,13.92-4.639,2.07-9.56,4.02-13.436,7.161-11.044,12.555,13.624,11.053,20.4,9.045,8.118-1.872,15.937-5.045,24.1-7.19-17.609,11.08-35.983,23.8-58.116,23.977" fill="#050505"/>
    <path id="Path_23" data-name="Path 23" d="M759.346,384.036c-9.37-3.456-15.139-8.638-9.741-18.555,8.588-17,27.163-34.613,47.545-28.485,11.685,7.53-5.14,12.176-11.4,14.1-4.641,2.082-9.549,4.081-13.413,7.25-4.51,3.7-3.018,8.314,2.618,9.957,11.759,3.387,22.569-2.962,33.807-5.371-13.847,11.847-30.627,20.694-49.413,21.1" fill="#050505"/>
    <path id="Path_24" data-name="Path 24" d="M541.441.036c-4.688.217-9.844.433-15.266.325,4.755-.325,9.777-.325,15.266-.325" fill="#1d1d1d"/>
    <path id="Path_25" data-name="Path 25" d="M154.924,355.006c-7.472,4.73-14.511,9.481-21.806,13.8-21.362,13.678-13.195-19.17-29.8-11.546-15.229,7.035-28.7,17.74-44.071,24.451l-1.943-2.374c1.267-.422,2.864-.492,3.749-1.322C77.251,363,92.706,347.105,109.4,332.649a21.546,21.546,0,0,1,17.31-4.808c9.706.691,8.435,10,8.285,17.225.72,10.505,12.587,4.141,17.845,1.026,18.659-11.769,37.029-27.691,59.4-30.826,9.667.288,14.149,6.656,10.15,15.459-4.621,10.271-13.966,17.2-22.045,24.654-19.414,20.248-1.183,19.625,15.69,13.863q.57.858,1.139,1.718c-28.634,14.785-44.885,20.4-37.431-19.973,1.516-15.258-18.552,1.889-24.818,4.019" fill="#040404"/>
    <path id="Path_26" data-name="Path 26" d="M849.171,335.149c15.076-4.747,25.284,9.284,12.953,20.449-7.594,6.356-17.672,4.3-26.514,7.234l-.171,2.434c15.828,7.936,32.28-1.5,47.251-7.4-13.967,13.592-37.822,25.171-58.252,24.294-31.06-5.454,8.228-45.081,24.733-47.008m4.712,13.06c-3.5-11.682-13.3,3.2-17.8,6.868l1.176,1.458c6.07-1.138,12.938-.4,16.624-8.326" fill="#060606"/>
    <path id="Path_27" data-name="Path 27" d="M700.905,367.974c-8.7,15.263-37.607,24.16-39.121-.221-.676-14.873,5.558-25.486,17.788-30.282,20.145-7.133,35.889,12.333,21.333,30.5m-28.543-8.833c1.432,8.785,10.091-.9,12.708-4.254,1.483-4.309-3.124-9.11-7.534-6.133-2.277,2.789-3.58,6.373-5.174,10.387" fill="#040404"/>
    <path id="Path_28" data-name="Path 28" d="M234.958,338.107c22.782-15.325,5.242,40.147,26.387,23.567,9.355-8.573,17.62-18.339,27.518-26.37l1.485,1.1c-4.5,12.83-17.659,22.757-16.411,37.16h6.444c-3.178,7.257-12.083,11.44-18.518,4.847-32.19,15.739-30.564-13.58-23.589-36.05l-5.8,1.893-1.088-.687c1.089-1.746,2.177-3.492,3.571-5.464" fill="#050505"/>
    <path id="Path_29" data-name="Path 29" d="M327.043,365.914c-7.431,7.768-17.99,17.7-29.094,14.286.8-4.936,4.169-7.974,7.6-11.31-10.762-3.522-15.682-7.827-7.014-17.652,7.39-8.187,16.187-14.244,27.586-15.463,3.057-.446,7.694,1.69,9.265,3.66,2.681,7.077-8.487,9.465-12.921,12.928,6.016,4.344,7.48,6.355,4.583,13.551" fill="#050505"/>
    <path id="Path_30" data-name="Path 30" d="M747.729,344.52c-9.478,12.816-18.795,25.281-28.036,37.643-17.385-7.252,9.263-37.772,18.158-44.216,2.8-2.117,6.817-.723,10.131-1.192-.03,2.471-.061,4.942-.253,7.765" fill="#050505"/>
    <path id="Path_31" data-name="Path 31" d="M367.611,335.847c13.813-.363,2.668,12.408-1.259,17.56-7.112,9.572-14.279,19.106-21.533,28.8-18.092-5.851,11.539-42.852,22.792-46.361" fill="#040404"/>
    <path id="Path_32" data-name="Path 32" d="M366.852,326.878c1.131-8.123,11.889-13.763,16.834-6.74,1.057,8.629-12.057,13.558-16.834,6.74" fill="#070707"/>
    <path id="Path_33" data-name="Path 33" d="M747.622,318.413c3.875-2.6,8.189-.461,10.964,2.1,1.019,4.948-6.372,9.263-11.035,9.473-8.511-.429-5.876-8.427.071-11.575" fill="#050505"/>
  </g>
</svg>
