<?xml version="1.0" encoding="UTF-8" standalone="no"?>
<!-- Created with Inkscape (http://www.inkscape.org/) -->

<svg
   xmlns:dc="http://purl.org/dc/elements/1.1/"
   xmlns:cc="http://creativecommons.org/ns#"
   xmlns:rdf="http://www.w3.org/1999/02/22-rdf-syntax-ns#"
   xmlns:svg="http://www.w3.org/2000/svg"
   xmlns="http://www.w3.org/2000/svg"
   xmlns:sodipodi="http://sodipodi.sourceforge.net/DTD/sodipodi-0.dtd"
   xmlns:inkscape="http://www.inkscape.org/namespaces/inkscape"
   width="923.38599"
   height="1000"
   id="svg2"
   version="1.1"
   inkscape:version="0.92.2 (5c3e80d, 2017-08-06)"
   sodipodi:docname="Nationwide_Insurance_2014.svg">
  <defs
     id="defs4">
    <clipPath
       id="clipPath18">
      <path
         id="path20"
         inkscape:connector-curvature="0"
         d="M 0,1800 V 0 h 4592.97 v 1800 z" />
    </clipPath>
  </defs>
  <sodipodi:namedview
     id="base"
     pagecolor="#ffffff"
     bordercolor="#666666"
     borderopacity="1.0"
     inkscape:pageopacity="0.0"
     inkscape:pageshadow="2"
     inkscape:zoom="0.4920745"
     inkscape:cx="352.60333"
     inkscape:cy="459.46856"
     inkscape:document-units="px"
     inkscape:current-layer="layer1"
     showgrid="false"
     inkscape:window-width="1366"
     inkscape:window-height="705"
     inkscape:window-x="-8"
     inkscape:window-y="-8"
     inkscape:window-maximized="1"
     fit-margin-top="0"
     fit-margin-left="0"
     fit-margin-right="0"
     fit-margin-bottom="0" />
  <metadata
     id="metadata7">
    <rdf:RDF>
      <cc:Work
         rdf:about="">
        <dc:format>image/svg+xml</dc:format>
        <dc:type
           rdf:resource="http://purl.org/dc/dcmitype/StillImage" />
        <dc:title></dc:title>
      </cc:Work>
    </rdf:RDF>
  </metadata>
  <g
     inkscape:label="Layer 1"
     inkscape:groupmode="layer"
     id="layer1"
     transform="translate(-2.34588,-32.361581)">
    <g
       id="g10"
       transform="matrix(3.2785562,0,0,-3.2785562,-540.94695,1292.2606)">
      <g
         id="g12"
         transform="scale(0.1)">
        <g
           id="g14">
          <g
             id="g16"
             clip-path="url(#clipPath18)">
            <path
               style="fill:#000000;fill-opacity:1;fill-rule:nonzero;stroke:none"
               id="path24"
               inkscape:connector-curvature="0"
               d="m 2616.51,1186.11 c 24.98,0 45.68,-19.31 45.68,-43.14 0,-23.83 -20.7,-43.13 -45.68,-43.13 -24.94,0 -45.61,19.3 -45.61,43.13 0,23.83 20.67,43.14 45.61,43.14" />
            <path
               style="fill:#000000;fill-opacity:1;fill-rule:nonzero;stroke:none"
               id="path26"
               inkscape:connector-curvature="0"
               d="m 3783.24,1186.11 c 24.97,0 45.67,-19.31 45.67,-43.14 0,-23.83 -20.7,-43.13 -45.67,-43.13 -24.85,0 -45.61,19.3 -45.61,43.13 0,23.83 20.76,43.14 45.61,43.14" />
            <path
               style="fill:#000000;fill-opacity:1;fill-rule:nonzero;stroke:none"
               id="path28"
               inkscape:connector-curvature="0"
               d="M 2302.22,960.598 V 799.07 h -70.72 v 27.153 c -18.49,-19.891 -41.24,-32.485 -76.66,-33.442 -55.72,-1.64 -99.6,32.336 -99.6,83.121 0,78.164 83.29,95.336 164.84,95.336 h 9.17 c 0,21.606 -9.59,41.592 -52.64,41.592 -29.23,0 -54.03,-9.35 -71.69,-25.662 l -42.78,42.732 c 29.45,28.97 70.83,43.79 116.55,43.79 45.26,0 70.1,-6.38 95.39,-29.11 23.91,-21.4 28.14,-61.646 28.14,-83.982 m -72.97,-44.961 h -6.85 c -11.91,0 -40.7,-1.422 -62.44,-7.414 -15,-4.114 -27.52,-13.946 -27.52,-27.649 0,-19.347 19.37,-27.836 36.81,-27.836 37.57,0 60,23.805 60,54.68 v 8.219" />
            <path
               style="fill:#000000;fill-opacity:1;fill-rule:nonzero;stroke:none"
               id="path30"
               inkscape:connector-curvature="0"
               d="m 2458.02,1067.31 v 84.58 h -76.2 v -84.58 h -52.54 v -63.77 h 52.54 V 889.664 c 0,-38.117 6.45,-60.769 21.65,-75.965 14.3,-14.258 36.1,-20.937 68.39,-20.937 20.47,0 41.12,4.066 57.13,10.961 v 60.347 c -9.63,-3.226 -23.67,-5.402 -41.21,-5.402 -23.68,0 -29.76,12.937 -29.76,34.734 v 110.138 h 70.97 v 63.77 h -70.97" />
            <path
               style="fill:#000000;fill-opacity:1;fill-rule:nonzero;stroke:none"
               id="path32"
               inkscape:connector-curvature="0"
               d="m 4473.55,928.422 v -20.234 h -196.53 c 1.29,-27.395 32.24,-50.958 68.7,-52.325 34.08,-1.371 52.75,12.086 70.31,31.145 l 48.45,-35.449 c -29.42,-37.207 -65.82,-58.809 -117.38,-58.809 -81.7,0 -148.43,50.785 -148.43,140.441 0,71.699 44.64,140.489 138.92,140.489 97,0 135.96,-75.297 135.96,-145.258 m -81.06,34.859 c -3.37,29.207 -19.41,50.639 -57.53,49.859 -32.3,-0.74 -54.34,-22.581 -57.79,-49.859 h 115.32" />
            <path
               style="fill:#000000;fill-opacity:1;fill-rule:nonzero;stroke:none"
               id="path34"
               inkscape:connector-curvature="0"
               d="M 1925.35,1188.34 V 924.059 L 1760.29,1188.34 H 1657.11 V 799.07 h 83.93 v 273.19 l 169.63,-273.19 h 98.53 v 389.27 h -83.85" />
            <path
               style="fill:#000000;fill-opacity:1;fill-rule:nonzero;stroke:none"
               id="path36"
               inkscape:connector-curvature="0"
               d="m 3637.29,1067.31 -43.25,-166.619 -43.24,166.619 h -79.94 l -41.78,-166.224 -43.27,166.224 h -84.29 l 85.88,-268.24 h 76.54 l 46.01,168.629 51.73,-168.629 h 70.87 l 85.6,268.24 h -80.86" />
            <path
               style="fill:#000000;fill-opacity:1;fill-rule:nonzero;stroke:none"
               id="path38"
               inkscape:connector-curvature="0"
               d="m 2578.01,799.059 h 77.0977 v 268.215 H 2578.01 Z" />
            <path
               style="fill:#000000;fill-opacity:1;fill-rule:nonzero;stroke:none"
               id="path40"
               inkscape:connector-curvature="0"
               d="m 3744.77,799.059 h 77.1406 v 268.215 H 3744.77 Z" />
            <path
               style="fill:#000000;fill-opacity:1;fill-rule:nonzero;stroke:none"
               id="path42"
               inkscape:connector-curvature="0"
               d="m 3253.98,1049.09 c -16.19,16.85 -36.34,24.75 -66.24,24.53 -29.5,-0.19 -63.62,-14.53 -79.81,-35.49 v 29.1 h -73.92 V 799.051 h 77.15 v 145.773 c 0,18.938 5.16,32.953 14.13,42.864 7.84,8.753 19.18,14.312 33.62,15.192 17.44,1 26.75,-6.564 33.38,-14.997 8.27,-10.426 10.52,-28.649 10.52,-53.188 V 799.051 h 77.07 v 167.496 c 0,32.754 -4.23,59.983 -25.9,82.543" />
            <path
               style="fill:#000000;fill-opacity:1;fill-rule:nonzero;stroke:none"
               id="path44"
               inkscape:connector-curvature="0"
               d="M 4154.64,1188.34 V 799.07 h -72.68 v 29.825 c -16.97,-19.571 -44.75,-36.157 -83.28,-36.157 -37.06,0 -69.2,12.477 -92.96,36.231 -25.46,25.441 -39.55,62.531 -39.55,104.191 0,81.46 54.6,140.51 129.99,140.51 32.94,0 60.3,-10.12 81.28,-29.94 v 144.61 z m -75.02,-255.18 c 0,36.11 -23.36,72.58 -68.2,72.58 -44.69,0 -68.05,-36.47 -68.05,-72.58 0,-35.937 23.36,-72.484 68.05,-72.484 44.84,0 68.2,36.547 68.2,72.484" />
            <path
               style="fill:#000000;fill-opacity:1;fill-rule:nonzero;stroke:none"
               id="path46"
               inkscape:connector-curvature="0"
               d="m 2989.79,933.23 c 0,-81.437 -60.93,-140.492 -145.12,-140.492 -84.17,0 -145.13,59.055 -145.13,140.492 0,81.44 60.96,140.5 145.13,140.5 84.19,0 145.12,-59.06 145.12,-140.5 m -145.12,72.48 c -44.77,0 -68.05,-36.468 -68.05,-72.48 0,-36.035 23.28,-72.484 68.05,-72.484 44.64,0 68.04,36.449 68.04,72.484 0,36.012 -23.4,72.48 -68.04,72.48" />
          </g>
        </g>
      </g>
    </g>
    <path
       style="fill:#2c52a9;fill-opacity:1;fill-rule:nonzero;stroke:none;stroke-width:2.62284493"
       id="path22-4"
       inkscape:connector-curvature="0"
       d="m 557.5452,675.18726 c -15.51757,17.98687 -35.6479,43.57506 -31.29013,62.24531 0,0 0,0.005 0.003,0.0131 3.23751,15.46044 25.04392,24.96429 25.04392,24.96429 l 46.88361,25.41354 -30.42867,26.5578 36.50924,11.50369 c 0,0 -33.46506,34.3231 -37.30923,37.75738 -9.55356,1.61121 -19.68519,2.57453 -30.5727,2.57453 -77.46058,0 -185.17608,-45.71921 -211.81994,-46.05719 -32.1337,-0.39088 -72.49082,18.14214 -72.49082,18.14214 l 21.0722,-22.82127 c 0,0 -27.58044,5.58934 -54.32203,3.31612 l 37.70169,-25.60655 c -33.1195,-1.07565 -62.12662,-10.9412 -75.78879,-20.60486 0,0 60.97247,-4.82438 143.6574,-3.94727 33.4557,0.36027 90.17976,3.71161 90.17976,3.71161 -28.04141,-11.91795 -54.25552,-27.60432 -65.50369,-55.18922 l 53.46937,8.05544 c -22.44683,-13.74434 -55.03642,-48.1557 -61.04071,-74.79738 l 59.61433,20.90512 C 390.5319,659.83754 353.6597,625.32158 347.0312,585.30612 l 47.1838,29.67615 c -12.36496,-12.45408 -45.88059,-78.58859 -40.18091,-97.93008 l 43.98338,29.57769 c -21.05995,-26.03635 -45.6977,-95.02237 -28.92668,-121.89368 13.36649,51.99069 43.1356,70.92265 43.1356,70.92265 -19.53988,-28.30818 -61.69065,-128.58432 -21.43984,-172.73435 10.57418,100.00087 53.08158,133.7663 53.08158,133.7663 -35.18358,-56.07845 -75.2724,-228.22508 -0.49692,-263.04043 -14.64217,110.60057 20.6922,170.7231 20.6922,170.7231 C 441.75978,262.47316 442.4919,118.0909 518.21495,104.89948 481.03093,213.75219 507.44692,297.69745 507.44692,297.69745 502.02216,43.080889 584.05049,47.374617 584.05049,47.374617 c 0,0 -13.4862,72.299223 -13.4862,201.146063 v 372.1181 c 0,25.69625 -2.20201,41.01618 -13.01983,54.54245 z m 48.69188,90.06855 c 32.99707,2.53795 56.44376,4.74591 79.98901,7.69645 8.90256,1.12334 12.43533,11.4104 13.60978,16.24074 -11.27028,-2.79713 -29.09821,-3.53819 -29.09821,-3.53819 l -0.97716,10.67802 c 0,0 15.24909,-4.3544 31.93568,-4.54665 0,0 34.23762,-0.15527 32.60742,22.97054 -9.33927,-6.46262 -28.45454,-3.89005 -33.85702,-3.00106 -17.1895,2.82708 -33.54711,10.79177 -52.47928,20.79672 -17.33013,9.15142 -36.01748,18.99847 -57.96849,25.6595 9.61228,-9.34761 34.73793,-37.07001 34.73793,-37.07001 l -33.48369,-11.66392 27.41298,-23.91678 -42.12813,-22.80249 c 10.51713,0.8972 20.4633,1.79261 29.69918,2.49713 z m 3.57399,-37.57671 H 762.16144 V 224.80253 H 622.74007 v 313.31994 l -40.46735,-39.62179 v -249.7723 c -0.72123,-146.77349 16.78959,-216.366796 16.78959,-216.366796 -47.19859,0 -71.68023,44.718667 -77.14736,57.933347 -26.49976,2.926649 -48.22541,18.194519 -62.76489,47.875259 -8.23039,16.79028 -12.33099,33.06794 -13.79816,41.02602 -55.8523,12.88139 -60.68917,112.36213 -57.01963,130.22716 l -86.74456,-84.62084 h -151.957 V 727.6791 H 289.05638 V 423.76022 c 0,0 67.41386,63.86842 67.40969,63.85922 6.12975,18.32912 12.08429,25.66181 12.08429,25.66181 l -26.46947,-22.698 c -4.77837,49.34332 9.097,74.64523 21.97653,93.33772 l -32.17381,-27.2842 c -2.50127,48.98013 21.15131,79.04051 35.64045,91.95372 l -42.54228,-20.88168 c -2.91398,29.3253 26.49475,72.26772 43.56858,80.55515 l -35.89025,-5.35679 c 7.80629,40.42486 35.89025,54.96101 35.89025,54.96101 0,0 -61.29744,-1.28916 -89.5059,-1.28916 -78.45716,0 -129.96058,7.42895 -129.96058,7.42895 0,0 34.72155,34.52343 79.08845,36.11644 l -39.51312,24.3565 c 28.68938,9.36283 55.95891,6.11897 55.95891,6.11897 l -22.82113,27.29818 c 0,0 71.82897,-27.614 102.14829,-25.52409 24.13991,1.66837 136.79388,45.59284 212.43956,45.59284 50.75098,0 87.52507,-19.41517 117.06951,-35.03174 18.02555,-9.51862 33.5753,-17.22614 48.89953,-19.58064 27.42082,-4.20949 39.76223,5.76992 39.76223,5.76992 2.79989,-11.53376 11.27873,-40.65633 -33.1759,-47.77833 -1.75699,-7.92017 -9.45199,-18.26475 -20.95223,-20.00803 -23.89304,-3.62031 -124.41108,-11.36248 -127.35404,-11.54243 -8.62484,-0.52105 -37.62319,-6.11986 -10.95416,-44.31352 2.01351,-2.88494 15.49947,-19.86647 15.49947,-19.86647 l 44.63182,42.06353" />
    <path
       style="fill:#ffffff;fill-opacity:1;fill-rule:nonzero;stroke:none;stroke-width:2.62284493"
       id="path50-0"
       inkscape:connector-curvature="0"
       d="m 557.5452,675.18726 c -15.51757,17.98687 -35.6479,43.57506 -31.29013,62.24531 0,0 0,0.005 0.003,0.0131 3.23751,15.46044 25.04392,24.96429 25.04392,24.96429 l 46.88361,25.41354 -30.42867,26.5578 36.50924,11.50369 c 0,0 -33.46506,34.3231 -37.30923,37.75738 -9.55356,1.61121 -19.68519,2.57453 -30.5727,2.57453 -77.46058,0 -185.17608,-45.71921 -211.81994,-46.05719 -32.1337,-0.39088 -72.49082,18.14214 -72.49082,18.14214 l 21.0722,-22.82127 c 0,0 -27.58044,5.58934 -54.32203,3.31612 l 37.70169,-25.60655 c -33.1195,-1.07565 -62.12662,-10.9412 -75.78879,-20.60486 0,0 60.97247,-4.82438 143.6574,-3.94727 33.4557,0.36027 90.17976,3.71161 90.17976,3.71161 -28.04141,-11.91795 -54.25552,-27.60432 -65.50369,-55.18922 l 53.46937,8.05544 c -22.44683,-13.74434 -55.03642,-48.1557 -61.04071,-74.79738 l 59.61433,20.90512 C 390.5319,659.83754 353.6597,625.32158 347.0312,585.30612 l 47.1838,29.67615 c -12.36496,-12.45408 -45.88059,-78.58859 -40.18091,-97.93008 l 43.98338,29.57769 c -21.05995,-26.03635 -45.6977,-95.02237 -28.92668,-121.89368 13.36649,51.99069 43.1356,70.92265 43.1356,70.92265 -19.53988,-28.30818 -61.69065,-128.58432 -21.43984,-172.73435 10.57418,100.00087 53.08158,133.7663 53.08158,133.7663 -35.18358,-56.07845 -75.2724,-228.22508 -0.49692,-263.04043 -14.64217,110.60057 20.6922,170.7231 20.6922,170.7231 C 441.75978,262.47316 442.4919,118.0909 518.21495,104.89948 481.03093,213.75219 507.44692,297.69745 507.44692,297.69745 502.02216,43.080889 584.05049,47.374617 584.05049,47.374617 c 0,0 -13.4862,72.299223 -13.4862,201.146063 v 372.1181 c 0,25.69625 -2.20201,41.01618 -13.01983,54.54245 z m 48.69188,90.06855 c 32.99707,2.53795 56.44376,4.74591 79.98901,7.69645 8.90256,1.12334 12.43533,11.4104 13.60978,16.24074 -11.27028,-2.79713 -29.09821,-3.53819 -29.09821,-3.53819 l -0.97716,10.67802 c 0,0 15.24909,-4.3544 31.93568,-4.54665 0,0 34.23762,-0.15527 32.60742,22.97054 -9.33927,-6.46262 -28.45454,-3.89005 -33.85702,-3.00106 -17.1895,2.82708 -33.54711,10.79177 -52.47928,20.79672 -17.33013,9.15142 -36.01748,18.99847 -57.96849,25.6595 9.61228,-9.34761 34.73793,-37.07001 34.73793,-37.07001 l -33.48369,-11.66392 27.41298,-23.91678 -42.12813,-22.80249 c 10.51713,0.8972 20.4633,1.79261 29.69918,2.49713" />
  </g>
</svg>
