<?xml version="1.0" encoding="UTF-8" standalone="no"?>
<!-- Created with Inkscape (http://www.inkscape.org/) -->

<svg
   width="814.6676"
   height="429.74869"
   viewBox="0 0 215.54747 113.70434"
   version="1.1"
   id="svg8"
   xmlns="http://www.w3.org/2000/svg"
   xmlns:svg="http://www.w3.org/2000/svg"
   xmlns:rdf="http://www.w3.org/1999/02/22-rdf-syntax-ns#"
   xmlns:cc="http://creativecommons.org/ns#"
   xmlns:dc="http://purl.org/dc/elements/1.1/">
  <defs
     id="defs2" />
  <metadata
     id="metadata5">
    <rdf:RDF>
      <cc:Work
         rdf:about="">
        <dc:format>image/svg+xml</dc:format>
        <dc:type
           rdf:resource="http://purl.org/dc/dcmitype/StillImage" />
      </cc:Work>
    </rdf:RDF>
  </metadata>
  <g
     id="layer1"
     transform="translate(-3.1212598,-120.33673)">
    <g
       id="g6922"
       transform="matrix(0.12051875,0,0,0.12051875,-23.435761,88.744368)">
      <path
         d="m 484.10658,1105.1006 29.12,100.4933 h 9.56 l 28.16,-86.8933 28.16,86.8933 h 9.56 l 29.13333,-100.4933 h -14.8 l -19.34666,77.7467 -25.46667,-77.7467 h -2.82667 -8.81333 -2.84 l -25.46667,77.7467 -19.34666,-77.7467 z"
         style="fill:#000000;fill-opacity:1;fill-rule:evenodd;stroke:none;stroke-width:1.33333"
         id="path6801" />
      <path
         d="m 220.35592,1105.1006 h 8.50133 l 61.50267,75 v -75 h 12.74667 v 98.4933 h -8.50667 l -61.49333,-75 v 75 h -12.75067 z"
         style="fill:#000000;fill-opacity:1;fill-rule:evenodd;stroke:none;stroke-width:1.33333"
         id="path6803" />
      <path
         d="m 363.59992,1105.1006 h 12.76 59 v 11.7467 h -59 v 30.2533 h 52.12 v 11.7467 h -52.12 v 33 h 59 v 11.7466 h -59 -12.76 z"
         style="fill:#000000;fill-opacity:1;fill-rule:evenodd;stroke:none;stroke-width:1.33333"
         id="path6805" />
      <path
         d="m 733.61324,1105.1006 h 12.74667 v 86.7467 h 59 v 11.7466 h -59 -12.74667 z"
         style="fill:#000000;fill-opacity:1;fill-rule:evenodd;stroke:none;stroke-width:1.33333"
         id="path6807" />
      <path
         d="m 863.35991,1203.5939 h 12.75 v -98.5 h -12.75 z"
         style="fill:#000000;fill-opacity:1;fill-rule:evenodd;stroke:none;stroke-width:1.33333"
         id="path6809" />
      <path
         d="m 1762.6399,1105.1006 h 6.3733 6.3733 4.1334 l 34.2533,71 34.2533,-71 h 4.12 6.3734 6.3733 v 98.4933 h -12.7467 v -79.3333 l -32.8133,66.3333 h -11.1333 l -32.8134,-66.3333 v 79.3333 h -12.7466 z"
         style="fill:#000000;fill-opacity:1;fill-rule:evenodd;stroke:none;stroke-width:1.33333"
         id="path6811" />
      <path
         d="m 940.89324,1105.1006 h 8.50666 l 61.4933,75 v -75 h 12.76 v 98.4933 h -8.5066 l -61.49336,-75 v 75 h -12.76 z"
         style="fill:#000000;fill-opacity:1;fill-rule:evenodd;stroke:none;stroke-width:1.33333"
         id="path6813" />
      <path
         d="m 1084.1466,1105.1006 h 12.7466 59 v 11.7467 h -59 v 30.2533 h 52.1334 v 11.7467 h -52.1334 v 33 h 59 v 11.7466 h -59 -12.7466 z"
         style="fill:#000000;fill-opacity:1;fill-rule:evenodd;stroke:none;stroke-width:1.33333"
         id="path6815" />
      <path
         d="m 1412.7066,1203.5939 h 12.75 v -98.5 h -12.75 z"
         style="fill:#000000;fill-opacity:1;fill-rule:evenodd;stroke:none;stroke-width:1.33333"
         id="path6817" />
      <path
         d="m 1489.9999,1105.1006 h 8.5067 l 61.4933,75 v -75 h 12.76 v 98.4933 h -8.5067 l -61.4933,-75 v 75 h -12.76 z"
         style="fill:#000000;fill-opacity:1;fill-rule:evenodd;stroke:none;stroke-width:1.33333"
         id="path6819" />
      <path
         d="m 1632.9999,1105.1006 h 12.76 59 v 11.7467 h -59 v 30.2533 h 52.12 v 11.7467 h -52.12 v 33 h 59 v 11.7466 h -59 -12.76 z"
         style="fill:#000000;fill-opacity:1;fill-rule:evenodd;stroke:none;stroke-width:1.33333"
         id="path6821" />
      <path
         d="m 1962.7332,1119.4739 -19.9333,50.12 h 39.8666 z m -5.56,-16.12 h 11.12 l 40.56,100.24 h -12.6667 l -9.7333,-24.4933 h -47.44 l -9.7467,24.4933 h -12.6666 z"
         style="fill:#000000;fill-opacity:1;fill-rule:evenodd;stroke:none;stroke-width:1.33333"
         id="path6823" />
      <path
         d="m 1323.1466,1103.1006 c 6.5066,-0.013 16.5466,1.84 27.52,5.2667 v 11.4 c -10.88,-2.92 -20.7467,-4.52 -26.6934,-4.5467 -19.96,-0.08 -35.88,9.16 -35.88,38.88 0,29.72 15.92,38.8 35.88,38.88 5.9467,0.027 15.8134,-1.4667 26.6934,-4.2533 v 11.48 c -10.9734,3.48 -21.0134,5.3866 -27.52,5.3866 -22.8134,0.053 -48.0534,-9.6933 -48.0534,-51.24 0,-41.56 25.24,-51.2133 48.0534,-51.2533 z"
         style="fill:#000000;fill-opacity:1;fill-rule:evenodd;stroke:none;stroke-width:1.33333"
         id="path6825" />
    </g>
    <path
       d="m 144.84743,164.40945 -3.17529,3.16404 c -0.40467,0.40606 -1.06479,0.40606 -1.46996,0 l -3.63072,-3.61949 c -0.40916,-0.40608 -0.40916,-1.06347 0,-1.46953 l 3.17556,-3.16788 c 0.40469,-0.40251 1.06252,-0.40251 1.46745,0 l 3.63296,3.62333 c 0.40694,0.40607 0.40694,1.06319 0,1.46953 m -12.49192,-12.49099 -3.17304,3.16541 c -0.40693,0.40607 -1.06704,0.40607 -1.47422,0 l -3.63045,-3.62086 c -0.40468,-0.40607 -0.40468,-1.06346 0,-1.46842 l 3.17302,-3.16789 c 0.40919,-0.40388 1.06706,-0.40388 1.47424,0 l 3.63045,3.62197 c 0.40518,0.40634 0.40518,1.06372 0,1.46979 z m -12.51981,-12.49318 -3.17529,3.16541 c -0.40718,0.40608 -1.06705,0.40608 -1.47197,0 l -3.6297,-3.62059 c -0.40818,-0.40278 -0.40818,-1.06236 0,-1.4687 l 3.17202,-3.16541 c 0.40919,-0.40606 1.06932,-0.40606 1.47425,0 l 3.63069,3.62086 c 0.40467,0.40634 0.40467,1.06346 0,1.46843 z M 81.331814,156.5704 c 0,0.57345 -0.466462,1.03823 -1.040932,1.03823 h -4.488763 c -0.574218,0 -1.040928,-0.46478 -1.040928,-1.03823 v -5.12165 c 0,-0.57344 0.466459,-1.03822 1.040928,-1.03822 h 4.488763 c 0.574221,0 1.040932,0.46478 1.040932,1.03822 z m 0,17.66563 c 0,0.57426 -0.466462,1.03795 -1.040932,1.03795 h -4.488763 c -0.574218,0 -1.040928,-0.46369 -1.040928,-1.03795 v -5.12196 c 0,-0.57315 0.466459,-1.03821 1.040928,-1.03821 h 4.488763 c 0.574221,0 1.040932,0.46506 1.040932,1.03821 z m 0,17.66506 c 0,0.57454 -0.466462,1.03877 -1.040932,1.03877 h -4.488763 c -0.574218,0 -1.040928,-0.46423 -1.040928,-1.03877 v -5.11921 c 0,-0.57426 0.466459,-1.03684 1.040928,-1.03684 h 4.488763 c 0.574221,0 1.040932,0.46286 1.040932,1.03684 z m 63.161426,-33.33929 0.0373,-24.03348 -24.09892,0.0169 -14.22439,-14.15394 -1.98918,2.01278 3.05298,3.04525 c 0.40693,0.40605 0.40693,1.06371 0,1.46951 l -3.17304,3.16405 c -0.40717,0.40606 -1.06505,0.40606 -1.47323,0 l -3.022062,-3.07375 c -0.108005,0.10564 -1.110255,1.1079 -2.075077,2.06821 1.386317,1.38173 5.482229,5.46792 5.482229,5.46792 -6.198622,0.012 -15.568003,-0.0192 -21.624442,0 l -0.054,3.39588 c 0,0.57454 -0.466461,1.0396 -1.040931,1.0396 h -4.488762 c -0.57422,0 -1.040933,-0.46506 -1.040933,-1.0396 v -3.39588 l -2.89672,0.005 0.02638,74.32447 2.870346,0.005 v -3.47078 c 0,-0.57152 0.466459,-1.03795 1.040932,-1.03795 h 4.488761 c 0.574222,0 1.040933,0.46643 1.040933,1.03795 v 3.47078 l 63.187816,-0.0239 -0.0133,-32.89398 5.56486,5.53267 2.02233,-2.00071 -2.99267,-3.04167 c -0.40919,-0.40608 -0.40919,-1.06347 0,-1.46734 l 3.17101,-3.16786 c 0.4067,-0.40608 1.06706,-0.46507 1.4147,-0.0616 l 2.41846,2.47564 0.6335,0.58881 2.04845,-2.00675 c -4.28178,-4.31666 -9.94108,-9.90587 -14.29345,-14.25134 z"
       id="path1532"
       style="fill:#000000;stroke-width:0.262526" />
  </g>
</svg>
