<?xml version="1.0" encoding="utf-8"?>
<svg id="Layer_1" data-name="Layer 1" xmlns="http://www.w3.org/2000/svg" width="1432.75" height="1371.37" viewBox="0 0 1432.75 1371.37">
  <defs>
    <style>
      .cls-1 {
        fill: #ff6700;
      }

      .cls-2 {
        fill: #fff;
      }
    </style>
    <rect x="-2.2321429" y="0" width="1627.2321" height="676.33929" id="rect13139"/>
    <rect x="-2.2321429" y="-2.2321429" width="1629.4643" height="683.03571" id="rect5454"/>
    <rect x="-2.2321429" y="2.2321429" width="1616.0714" height="808.03571" id="rect2148"/>
    <rect x="0" y="0" width="1625" height="679" id="rect2698"/>
  </defs>
  <g>
    <path class="cls-1" d="M1244.81,766.77c-104.46,12.17-311.75,149.21-154.85,307.22h.03c31.68,31.92,59.12,86.47,57,134.62-4.17,93.94-83.83,166.73-177.94,162.59-88.39-3.87-158.09-74.17-162.85-160.49-25.76-227.44-368.04-276.16-510.5-134.36-32.83,36.22-80.4,57.5-133.08,55.16C68.76,1127.41-3.98,1048,.17,954.18c2.88-65.59,52.06-123.65,116.98-134.79,167.31-19.23,302.22-203.41,212.22-360.33-17.88-31.2-31.99-65.81-30.27-104.57,3.72-84.29,68.26-151.54,149.39-161.34,76.66-11.79,120.87-67.88,162.22-120.73C644.08,24.84,699.43-2.41,757.5.17c93.87,4.11,166.61,83.53,162.47,177.34-1.71,38.64-17.71,72.49-39.17,101.28-18.29,24.51-37.94,58.87-37.8,99.61.26,74.67,76.3,144.51,152.36,152.6,46.92,4.99,114.25-5.86,155.17-39.46,51.7-42.51,79.49-54.43,135.87-52.63,94.32,3.03,151.09,88.03,146.03,170.72-5.76,93.84-83.17,143.99-187.62,157.16v-.02Z"/>
    <path class="cls-1" d="M225.59,369.89c-.05,47.9-38.91,86.68-86.81,86.64h0c-47.9.05-86.76-38.74-86.81-86.64h0c.05-47.9,38.91-86.68,86.81-86.64h0c47.9-.05,86.76,38.74,86.81,86.64,0,0,0,0,0,0Z"/>
  </g>
  <g>
    <path class="cls-2" d="M1255.99,838.43c0-3.83-1.17-7.33-3-10.49l-62.62-94.75,43.3-78.77c15.99-27.15,6.99-62.28-20.15-78.26-27.14-15.99-62.28-6.99-78.26,20.15l-51.79,92.58v-61.61c0-31.64-25.65-57.12-57.12-57.12s-57.12,25.65-57.12,57.12v230.97h114.41v-90.43l60.28,90.43h92.26c10.99,0,19.98-8.99,19.98-19.98l-.16.16h-.02Z"/>
    <path class="cls-2" d="M829.18,768.82c-6.83,12.49-15.49,19.82-25.65,19.82s-18.82-7.33-25.65-19.82c-6.66-12.65-10.66-28.81-10.66-47.96s4-35.3,10.66-47.96c6.83-12.49,15.49-19.82,25.65-19.82s18.82,7.49,25.65,19.82c5,9.32,8.33,20.65,9.82,33.8h114.41c-3.33-35.8-19.32-68.44-43.46-92.26-27.15-27.15-65.11-44.13-106.58-44.13s-79.43,16.99-106.58,44.13c-27.15,27.15-44.13,65.11-44.13,106.58s16.99,79.43,44.13,106.58c20.82,20.82,57.12,44.13,106.58,44.13,37.13,0,71.44-13.66,97.58-35.97,19.15-16.15,47.46-48.8,52.29-100.58h-114.41c-1.5,12.99-4.82,24.48-9.82,33.8l.16-.16h0Z"/>
    <path d="M 609.911 546.767 C 597.354 558.894 591.081 567.987 591.081 574.05 C 591.081 580.113 596.445 588.399 607.17 598.908 L 619.915 611.64 C 631.254 623.159 636.925 636.801 636.925 652.564 L 636.925 858.4 L 521.262 858.4 L 521.262 652.564 C 521.262 636.398 526.932 622.755 538.262 611.64 L 551.323 598.908 C 561.842 588.399 567.106 580.012 567.106 573.747 C 567.106 567.483 560.823 558.388 548.286 546.465 L 534.63 532.823 C 522.073 520.495 515.8 505.539 515.8 487.957 C 515.8 470.374 522.073 455.521 534.63 443.395 C 546.771 430.866 561.644 424.6 579.237 424.6 C 597.048 424.6 612.029 430.764 624.17 443.092 C 636.717 455.42 643 470.374 643 487.957 C 643 505.944 636.717 520.9 624.17 532.823 L 609.911 546.767 Z" style="font-family: &quot;Nickelodeon Sans&quot;; fill-opacity: 1; stroke-width: 1.688; fill: rgb(255, 255, 255);" id="path20197"/>
    <path class="cls-2" d="M355.41,570.16c-41.47,0-79.43,16.99-106.58,44.13-27.15,27.15-44.13,65.11-44.13,106.58v137.55h114.41v-135.22c0-16.49,4-30.64,10.66-41.47,6.66-10.82,15.49-17.15,25.65-17.15s18.98,6.33,25.65,17.15c6.66,10.82,10.66,24.98,10.66,41.47v135.22h114.41v-137.55c0-41.47-16.99-79.43-44.13-106.58-27.15-27.15-65.11-44.13-106.58-44.13"/>
  </g>
</svg>