<?xml version="1.0" encoding="UTF-8" standalone="no"?>
<svg
   version="1.1"
   width="1000"
   height="263.63693"
   viewBox="0 0 1000 263.63693"
   id="svg985"
   xmlns="http://www.w3.org/2000/svg"
   xmlns:svg="http://www.w3.org/2000/svg">
  <defs
     id="defs836" />
  <path
     fill="#0070e0"
     d="m 963.73537,56.19067 -23.86586,149.94688 a 3.824963,3.824963 0 0 0 3.81901,4.43767 h 28.24405 a 4.169983,4.169983 0 0 0 4.15214,-3.50374 L 999.95057,57.124604 a 3.824963,3.824963 0 0 0 -3.81901,-4.437671 h -28.24405 a 4.1164455,4.1164455 0 0 0 -4.15214,3.503737 z m -30.1595,43.758054 h -26.79854 a 4.1580858,4.1580858 0 0 0 -4.14619,3.497786 l -0.88634,5.52032 c 0,0 -20.81423,-22.569064 -57.66593,-7.3168 -21.1414,8.73257 -31.28975,26.77474 -35.60844,39.99258 0,0 -13.70563,40.17103 17.29264,62.28205 0,0 28.74373,21.26632 61.11018,-1.30869 l -0.55917,3.52158 a 3.8309117,3.8309117 0 0 0 2.20099,4.08075 c 0.50563,0.23795 1.05885,0.35692 1.61802,0.35692 h 26.81638 a 4.1164455,4.1164455 0 0 0 4.15214,-3.50374 l 16.31112,-102.68509 a 3.7595282,3.7595282 0 0 0 -0.88635,-3.09923 3.824963,3.824963 0 0 0 -2.95051,-1.344385 z m -39.43341,56.749836 a 29.772846,29.772846 0 0 1 -10.20188,18.41098 30.177352,30.177352 0 0 1 -19.89814,7.1562 27.375552,27.375552 0 0 1 -8.42325,-1.22542 c -11.57006,-3.68815 -18.17303,-14.71689 -16.27542,-26.67362 a 29.802589,29.802589 0 0 1 10.21378,-18.39908 30.218993,30.218993 0 0 1 19.88624,-7.17998 27.363655,27.363655 0 0 1 8.42324,1.23731 c 11.64145,3.66435 18.21468,14.71094 16.30517,26.67956 h -0.0297 z m -143.10002,2.8375 c 14.53248,0 28.58907,-5.16341 39.62971,-14.55033 a 60.360653,60.360653 0 0 0 20.55844,-36.63161 C 815.92405,78.652662 792.55192,52.728573 759.4181,52.728573 h -53.37697 a 4.1580858,4.1580858 0 0 0 -4.14619,3.503738 L 678.02313,206.17919 a 3.8309117,3.8309117 0 0 0 2.20098,4.08075 c 0.51159,0.23795 1.05886,0.35692 1.61803,0.35692 h 28.2619 a 4.1580858,4.1580858 0 0 0 4.14618,-3.50374 l 7.00748,-44.03169 a 4.1164455,4.1164455 0 0 1 4.15214,-3.50968 z m 23.63982,-52.53227 c -1.74294,10.98115 -10.29706,19.06533 -26.66172,19.06533 h -20.92129 l 6.35312,-39.933094 h 20.54654 c 16.91787,0.02974 22.4263,9.934197 20.68335,20.897504 z"
     id="path822" />
  <path
     fill="#003087"
     d="m 645.82324,102.49473 -32.3248,54.16219 -16.4063,-53.76363 a 4.1283427,4.1283427 0 0 0 -3.99747,-2.944566 h -29.17204 a 3.1289744,3.1289744 0 0 0 -3.13492,2.653086 3.0635396,3.0635396 0 0 0 0.14872,1.46931 l 29.39808,90.5618 -26.59034,42.6754 a 3.0694882,3.0694882 0 0 0 1.07076,4.3306 3.1349231,3.1349231 0 0 0 1.60018,0.4164 h 31.42061 a 5.2109916,5.2109916 0 0 0 4.46741,-2.49842 l 82.11476,-134.83738 a 3.0456937,3.0456937 0 0 0 0.0654,-3.15277 3.1170772,3.1170772 0 0 0 -2.75421,-1.56449 H 650.3204 a 5.2169403,5.2169403 0 0 0 -4.49716,2.49247 z m -98.43777,-2.546006 h -26.82233 a 4.1640344,4.1640344 0 0 0 -4.15214,3.509686 l -0.8685,5.51437 c 0,0 -20.83207,-22.569066 -57.68377,-7.3168 -21.13545,8.73257 -31.28975,26.77474 -35.5906,39.99257 0,0 -13.71752,40.17104 17.2748,62.28206 0,0 28.74968,21.26632 61.11612,-1.30869 l -0.55917,3.52158 a 3.8190144,3.8190144 0 0 0 2.20099,4.08075 c 0.50564,0.23795 1.05886,0.35692 1.61803,0.35692 h 26.81638 a 4.169983,4.169983 0 0 0 4.14619,-3.50374 l 16.31706,-102.68509 a 3.8190144,3.8190144 0 0 0 -2.20099,-4.0867 3.8963465,3.8963465 0 0 0 -1.61802,-0.356916 z m -39.43936,56.761736 a 29.808538,29.808538 0 0 1 -10.20783,18.38719 30.23089,30.23089 0 0 1 -19.88624,7.17403 27.393398,27.393398 0 0 1 -8.41135,-1.22541 c -11.56412,-3.68815 -18.16114,-14.71689 -16.26353,-26.67957 a 29.808538,29.808538 0 0 1 10.24948,-18.42882 30.23089,30.23089 0 0 1 19.94572,-7.1443 c 2.85534,-0.0297 5.70473,0.38667 8.4292,1.23732 11.52248,3.66435 18.0838,14.70499 16.18025,26.67956 h -0.0297 z M 364.85205,159.542 a 61.175614,61.175614 0 0 0 39.59401,-14.56817 60.342807,60.342807 0 0 0 20.53464,-36.61971 C 429.68011,78.65861 406.30203,52.734522 373.18011,52.734522 h -53.38292 a 4.1640344,4.1640344 0 0 0 -4.15213,3.497789 L 291.85057,206.13755 a 3.8190144,3.8190144 0 0 0 2.20099,4.0867 c 0.50564,0.232 1.05886,0.35692 1.61803,0.35692 h 28.24405 a 4.1640344,4.1640344 0 0 0 4.15214,-3.50969 l 6.99557,-44.03169 a 4.1164455,4.1164455 0 0 1 4.15214,-3.50373 h 25.63856 z m 23.63981,-52.53821 c -1.74294,10.98115 -10.29111,19.06533 -26.65577,19.06533 H 340.9148 l 6.34123,-39.933094 h 20.54653 c 16.92383,0.02974 22.4263,9.940146 20.6893,20.897504 z"
     id="path824" />
  <path
     fill="#001c64"
     d="M 182.25914,60.437985 C 182.89564,27.327963 155.58552,1.9273533 118.03188,1.9273533 H 40.354791 a 7.5963885,7.5963885 0 0 0 -7.507159,6.412613 L 1.7244492,202.81822 a 6.1746682,6.1746682 0 0 0 6.0973361,7.13834 H 53.840314 l -7.191882,45.03106 a 6.1746682,6.1746682 0 0 0 6.097336,7.13835 h 37.488207 c 1.808381,0 3.420457,-0.6484 4.800537,-1.82028 1.368183,-1.17783 1.59423,-2.8018 1.879764,-4.59234 l 11.004944,-64.74478 c 0.27959,-1.78459 1.18973,-4.10455 2.56386,-5.28238 1.37413,-1.17782 2.57575,-1.82028 4.39008,-1.82028 h 22.93788 c 36.78032,0 67.98084,-26.14418 73.68557,-62.50215 4.03911,-25.805118 -7.02532,-49.290273 -29.23747,-60.931723 z"
     id="path826" />
  <path
     fill="#0070e0"
     d="m 63.798305,138.23405 -11.462992,72.68024 -7.197831,45.59023 a 6.1746682,6.1746682 0 0 0 6.103285,7.1324 h 39.677299 a 7.5904399,7.5904399 0 0 0 7.495262,-6.41262 L 108.871,190.96262 a 7.5963885,7.5963885 0 0 1 7.50121,-6.41261 h 23.35429 c 36.78032,0 67.98083,-26.82828 73.69151,-63.18625 4.04506,-25.805118 -8.94672,-49.290273 -31.15887,-60.931723 -0.0595,2.748263 -0.29744,5.490577 -0.71979,8.209096 -5.70472,36.346077 -36.91714,63.180297 -73.68556,63.180297 H 71.299516 a 7.6023371,7.6023371 0 0 0 -7.501211,6.41856"
     id="path828" />
  <path
     fill="#003087"
     d="M 52.329365,210.91429 H 6.1680688 A 6.1687196,6.1687196 0 0 1 0.07668127,203.77595 L 31.199864,6.4126132 A 7.5963885,7.5963885 0 0 1 38.701075,2e-7 h 79.330805 c 37.55364,0 64.86376,27.3279628 64.22726,60.4320368 -9.34529,-4.901663 -20.32644,-7.703464 -32.35455,-7.703464 H 83.767824 a 7.5963885,7.5963885 0 0 0 -7.507159,6.412613 L 63.804254,138.23405 52.323416,210.91429 Z"
     id="path830" />
</svg>
