<?xml version="1.0" encoding="utf-8"?>
<!-- Generator: Adobe Illustrator 17.1.0, SVG Export Plug-In . SVG Version: 6.00 Build 0)  -->
<!DOCTYPE svg PUBLIC "-//W3C//DTD SVG 1.1//EN" "http://www.w3.org/Graphics/SVG/1.1/DTD/svg11.dtd">
<svg version="1.1" id="smart_logo" xmlns="http://www.w3.org/2000/svg" xmlns:xlink="http://www.w3.org/1999/xlink" x="0px" y="0px"
	 viewBox="0 0 538.5 140.1" enable-background="new 0 0 538.5 140.1" xml:space="preserve">
<g>
	<path fill="#FFFFFF" d="M34.2,75.6c1.4,0.8,1.6,2,1.6,2.9c0,0.2,0,0.4,0,0.5c-0.1,1.3-0.4,2.3-0.8,2.6c-0.2,0.1-0.6,0.3-1.1,0.3
		C34,79.5,34.1,78.4,34.2,75.6z"/>
	<path fill="#FFFFFF" d="M444.5,71.4c1.6,0.7,1.8,2.1,1.8,3c0,0.1,0,0.2,0,0.2c0,1.3-0.3,2.2-0.7,2.6c-0.2,0.2-0.7,0.3-1.2,0.4
		C444.4,75.1,444.4,74,444.5,71.4z"/>
	<path d="M371.8,92.9c1.6-6.2,3.3-12.7,5-18.9c1.9,6.2,3.8,12.4,5.7,18.6C371.6,93,371.6,92.9,371.8,92.9z"/>
	<path fill="#FFFFFF" d="M221.1,20.3c-19.8,7.5-30.5,25.3-34.5,36.2c-4.1-10.2-16.3-32.5-41-44C117-0.9,72.8,12.5,55.9,30.4
		c38-10.6,70.7-7.2,96.1,8.2c11.1,6.7,19,14.4,23.8,19.8c-17.9,0.7-34,0.5-50.4-0.6l-4.3-0.3l0,0.1l-2.1-0.1
		c-21-1.1-44.5-4.3-47.1-4.7l-4.5-0.6l-0.2,4.6L66.9,63C60.5,50.4,46,47.6,40.2,46.5c-0.1,0-36.1-8.3-36.1-8.3l-0.2,4.9L0,124
		l3.3,0.8c7.3,1.8,15.2,3.6,23.6,4.9l4.6,0.7c0,0,0.7-16.5,0.9-22.4c1.8,0.3,4,0.6,4,0.6c9.6,1.3,17.8-0.5,23.6-5.3
		c2.3-1.9,4.2-4.2,5.7-6.8l-1.4,37.9l3.8,0.4c15.7,1.6,33.8,3.4,49.3,3.6l4.1,0.1l0.1-4.1c0.1-6.1,0.4-16.3,0.4-17.4l0.1-4.6
		c-4.4,0-13.2-0.3-17.7-0.6c0,0-2.4-0.1-4.8-0.3c0-1.2,0-1.7,0-2.3c2,0.1,4.1,0.2,4.1,0.2c4.1,0.3,8.4,0.6,12.6,0.6l4.1,0
		c0,0,0.5-23.8,0.5-23.8c-1.2,0.1-20.7-1.4-20.7-1.4l0.1-2.3c0,0,32.2,2.6,33.1,2.6c-0.2,7-1.2,54-1.2,54l3.9,0.3
		c7.4,0.6,18.1,1.1,27.4,0.2l3.7-0.3c0,0,0.7-46,0.8-52.8c0.7,0,1.4,0,2.2-0.1l11.6-0.4l-0.1-3.9l0.2-17.7c0,0,5.5,13,5.1,15.4
		c-0.2,1.4-0.3,2.9-0.3,4.4c0,0.1,0,0.1,0,0.2c0,6.8,2.7,12.6,7.5,16.8c-0.3,0.8-6,14.1-6,14.1l-6,13.9l3.4,1.8
		c9,4.7,20.5,7.4,30.7,7.3c13.7-0.1,28.1-6.6,34.2-18.8l-1.7,15.4l5.4-0.9c6-1,20.8-3.4,25.2-4l3.3-0.4c0,0,0.7-9,1-13.1
		c0,0.1,4.9,12.1,4.9,12.1l16.6-2.6l0.9-2.2c0,0,2.1-5.5,3.7-9.5c0.2,3.4,0.6,11.2,0.6,11.2l4.3-0.5c8.7-1,15.6-1.5,24.6-2l4.3-0.3
		l0,0l9.2-0.3c4.1-0.2,8.3-0.3,12.4-0.3l3.2,0c0,0,1.9-7.3,2.1-8.1c3.2-0.1,11.4-0.3,11.4-0.3s0-0.1,0-0.1c0.9,0,2-0.1,3.2-0.1
		c0.5,1.7,2.4,7.6,2.4,7.6l3,0.1l9.2,0c4,0,8.2-0.1,12.3,0.2l5.9,0.3l-0.1-0.5c7.9,0.3,16.1,0.9,21.8,1.3l4.4,0.4
		c0,0,0.1-6.9,0.1-9.5c2.6,4.2,6.4,10.5,6.4,10.5l2.1,0.2c9,0.8,18.8,2,29.3,3.5l8.3,1.2l0,0l3.6,0.5c11.2,1.5,20.3,3.1,24.7,3.9
		l4.9,1l0.1-4.9c0.1-9.1,0.4-17.4,0.7-25.4c0.2-6.6,0.5-13.5,0.6-20.8c3.4,0.6,13.6,2.3,13.6,2.3l0.1-4.7l0.4-26l-3.4-0.7
		c-17-3.4-35-5.8-53.4-7.1l-4.4-0.3l-0.1,4.4l-0.1,8.1c-5.5-11.2-17.1-16.3-28.1-17.2c-10.3-0.8-21.1-1.4-32.1-1.7l-4.2-0.1l0,4.2
		l-0.7,59.3c-3-9.8-6-19.4-9-28.8l-10.9-35.1l-3,0c-9.1,0-17,0.2-25.4,0.5l-3,0.1l-0.8,2.9c-3.2,11.7-6.7,24.1-10,36.1
		c-2.6,9.3-5.3,18.8-7.9,28.1c-0.8-8.4-1.5-16.9-2.3-25.3c-1-12-2.1-24.3-3.3-36.1l-0.4-4.1l-4.1,0.4l-25.4,2.3l-0.9,2.4
		c-2.2,5.6-4.3,11.9-6.5,18c-0.8,2.5-1.7,4.9-2.6,7.4c-0.7-2-1.5-4-2.2-5.9c-2-5.5-4.1-11.3-6.2-16.5l-1.2-3.1l-15.9,2.5
		c-4.1,0.7-8.8,1.4-9.7,1.5l-3.5,0.1l-0.5,3.5l-4.9,44.7c-1.6-9.1-10.2-13.5-10.2-13.5l10-26.3l-3.6-1.6c-9.6-4.1-16.9-5.8-25.4-5.7
		c-8.2,0.1-16.4,2.4-23,6.7C206,52.9,215,43.8,230.2,41C219.7,34.8,221.1,20.3,221.1,20.3z M490.6,100c-0.2,7.9-0.4,16.1-0.6,25.3
		l0,2.4l-4.3-6.4c-4.1-6.1-7.8-11.5-11.8-17.2c0,0-1.8-2.6-3.5-5.1c6.1-4.5,9.5-11.8,10-21.8l0.4,0c2.4,0.2,5.1,0.6,7.8,0.9
		c0,0,1.3,0.2,2.5,0.3C491,86.1,490.8,93.2,490.6,100z"/>
	<path fill="#006BB6" d="M64.7,26c79.5-24.3,119.7,36.6,119.7,36.6S159.2-22.4,64.7,26z"/>
	<path fill="#006BB6" d="M218.5,29.1c-0.1-0.3,0-2.5,0-2.9c-29.1,14.8-31.4,45.6-31.4,45.6s10.8-25.2,36.3-32.8
		C220.5,36.1,219.4,34.6,218.5,29.1z"/>
	<g>
		<circle fill="#FFFFFF" cx="247.6" cy="22.7" r="22.7"/>
		<path fill="#E03A3E" d="M266.2,23.2c-0.1,10.3-8.6,18.5-18.9,18.4c-10.3-0.1-18.5-8.6-18.4-18.9c0.1-10.3,8.6-18.5,18.9-18.4
			C258.1,4.4,266.4,12.9,266.2,23.2z"/>
		<path fill="#FFFFFF" d="M234.6,22.9c4.3-7.4,11.5-11.8,20-11.7c0.1,0,0.2,0.1,0.3,0.1c-1.3-1.1-2.7-1.9-4.4-2.4
			C243.9,7,236.9,11.1,235,18c-0.5,1.7-0.6,3.5-0.5,5.2C234.5,23.1,234.5,23,234.6,22.9z"/>
	</g>
	<path fill="#E03A3E" d="M118.7,61.5c0,0-0.5,12-0.5,18.1c-3,0.1-16.2-1.2-22-1.5c0,3.2-0.3,6.6-0.4,9.8c6.9,0.3,14.1,1.3,21.1,1.3
		c-0.1,5.8-0.4,10.9-0.5,16.7c-6.9-0.1-13.9-0.8-20.8-1.1c0,3.5-0.1,7.1-0.1,10.6c7.5,0.3,15,1.1,22.4,1.2
		c-0.1-0.3-0.5,17.7-0.5,17.7c-14.8-0.2-32.3-1.9-48.9-3.6l2.7-73.9C78.2,57.8,99.9,60.6,118.7,61.5z"/>
	<path fill="#E03A3E" d="M125,61.8l-0.7,19.3c7,0.5,13.2,0.7,13.2,0.7l-1.2,53.6c8.1,0.6,18.2,1,26.7,0.2l0.8-53.1
		c0,0,11.8-0.3,13.7-0.4c0.1-7.1,0.1-12.6,0.2-19.7C160,63.1,142.9,63.1,125,61.8z"/>
	<path fill="#006BB6" d="M481.4,51.1c-0.1,7.5-0.2,14.4-0.3,22c4.5,0.3,9.6,1.3,14.2,1.8c-0.2,18.3-0.9,32.2-1.1,50.5
		c12.5,1.7,21.5,3.3,24.9,4c0.2-18.3,1.1-32.7,1.4-51c0-0.1,13.3,2.3,13.5,2.5c0.1-7.5,0.2-15.1,0.3-22.6
		C516.7,54.6,499.1,52.3,481.4,51.1z"/>
	<path fill="#E03A3E" d="M39.3,50.5L8,43.3l-3.7,77.5c8,2,15.4,3.6,23.2,4.8l0.9-22.4c2.8,0.4,5.7,0.9,8.5,1.3
		c13.7,1.9,27.7-2.6,28.9-25.1C66.9,59.7,53.9,53.3,39.3,50.5z M31.9,85.9c-0.8-0.1-1.5-0.2-2.3-0.4c0.3-5.1,0.5-10.1,0.8-15.2
		c0.7,0.1,1.5,0.2,2.2,0.3c3.9,0.6,7.6,2.9,7.3,8.5C39.6,85.5,35.7,86.5,31.9,85.9z"/>
	<path fill="#006BB6" d="M187.4,127.4c8.4,4.4,19.3,6.9,28.7,6.9c16.2-0.1,33-9.8,33.2-27.6c0.1-12.7-8.2-18.7-19.7-21.1
		c-2.1-0.4-4.1-0.9-6.1-1.3c-2.1-0.5-5.5-0.8-5.4-3.6c0-3.1,3.5-4,5.9-4c5.9-0.1,11,1.2,16.6,3.3c2.2-6,4.4-12,6.7-18
		c-8.1-3.5-15.1-5.4-23.7-5.3c-16.3,0.2-32.5,10-32.7,27.7c-0.1,11.7,8.8,18,19.4,19.9c1.8,0.3,3.6,0.6,5.5,1c2.5,0.5,6.1,0.7,6,4.1
		c0,3.4-4.2,3.8-6.9,3.8c-6.3,0.1-13.4-2-18.7-5.9C193.3,113.4,190.1,121.1,187.4,127.4z"/>
	<path fill="#006BB6" d="M302,122.4c3.5-9.2,7.1-17.9,10.6-27.1c0.6,8.8,0.9,16.8,1.5,25.7c8.8-1,15.9-1.5,24.8-2
		c-2.3-23.6-4.3-48.8-6.6-72.4c-7.6,0.7-15.2,1.4-22.8,2.1c-4.3,11.1-8.5,24.6-12.8,35.8c-4.1-10.3-8.2-22.4-12.4-32.7
		c-7.7,1.1-21.4,3.5-22.8,3.5c-2.6,24-5.6,50.7-8.3,74.7c6.1-1.1,20.9-3.4,25.3-4c0.7-9,1.4-18.5,2-27.5c3.4,8.5,6.8,17.1,10.3,25.7
		C292.9,123.8,299.7,122.8,302,122.4z"/>
	<path fill="#006BB6" d="M464.5,97.7c6.8-3,11.6-9.6,11.8-22.6c0.3-19.6-13.6-28-27.6-29.1c-10.6-0.8-21.2-1.4-31.9-1.7
		c-0.3,24.9-0.5,47.7-0.8,72.6c7.9,0.2,16.6,0.8,23.6,1.4c0.1-7,0.2-12.2,0.3-19.2c4.5,7.3,8.2,13.4,12.8,20.8
		c9.8,0.9,19.8,2.1,29.5,3.6C476.2,114.4,470.6,106.6,464.5,97.7z M442.5,81.8c-0.8-0.1-1.6-0.1-2.3-0.2c0.1-5,0.1-10,0.2-15
		c0.8,0.1,1.5,0.1,2.2,0.2c3.9,0.3,7.8,2.4,7.7,7.9C450.3,80.8,446.4,82,442.5,81.8z"/>
	<path fill="#006BB6" d="M389.1,43.8c-9.4,0-17.1,0.2-25.2,0.5c-6.5,24.2-14.1,50-20.6,74.3c7.2-0.1,14.5-0.6,21.7-0.6
		c0.7-2.6,1.4-5.5,2.1-8.1l11-0.3c-0.2-0.1,9.7-0.3,9.7-0.3c0.3,0.9,1.2,3.5,2.4,7.7c7.2,0.2,14.4-0.2,21.7,0.2
		C404.1,91.7,396.3,67.1,389.1,43.8z M371.8,92.9c1.6-6.2,3.3-12.7,5-18.9c1.9,6.2,3.8,12.4,5.7,18.6
		C371.6,93,371.6,92.9,371.8,92.9z"/>
</g>
</svg>
