<?xml version="1.0" encoding="UTF-8" standalone="no"?>
<!-- Created with Inkscape (http://www.inkscape.org/) -->

<svg
   xmlns:dc="http://purl.org/dc/elements/1.1/"
   xmlns:cc="http://creativecommons.org/ns#"
   xmlns:rdf="http://www.w3.org/1999/02/22-rdf-syntax-ns#"
   xmlns:svg="http://www.w3.org/2000/svg"
   xmlns="http://www.w3.org/2000/svg"
   xmlns:sodipodi="http://sodipodi.sourceforge.net/DTD/sodipodi-0.dtd"
   xmlns:inkscape="http://www.inkscape.org/namespaces/inkscape"
   width="360.32587mm"
   height="42.902855mm"
   viewBox="0 0 360.32587 42.902855"
   version="1.1"
   id="svg3827"
   inkscape:version="0.92.1 r15371"
   sodipodi:docname="progressivelogo.svg">
  <defs
     id="defs3821" />
  <sodipodi:namedview
     id="base"
     pagecolor="#ffffff"
     bordercolor="#666666"
     borderopacity="1.0"
     inkscape:pageopacity="0.0"
     inkscape:pageshadow="2"
     inkscape:zoom="0.38554688"
     inkscape:cx="825.68515"
     inkscape:cy="283.89823"
     inkscape:document-units="mm"
     inkscape:current-layer="layer1"
     showgrid="false"
     inkscape:window-width="1366"
     inkscape:window-height="705"
     inkscape:window-x="-8"
     inkscape:window-y="-8"
     inkscape:window-maximized="1" />
  <metadata
     id="metadata3824">
    <rdf:RDF>
      <cc:Work
         rdf:about="">
        <dc:format>image/svg+xml</dc:format>
        <dc:type
           rdf:resource="http://purl.org/dc/dcmitype/StillImage" />
        <dc:title></dc:title>
      </cc:Work>
    </rdf:RDF>
  </metadata>
  <g
     inkscape:label="Layer 1"
     inkscape:groupmode="layer"
     id="layer1"
     transform="translate(72.420964,-126.11662)">
    <g
       id="g3855"
       transform="matrix(1.5013578,0,0,1.5013578,-79.927753,119.04222)"
       style="stroke-width:0.17622936">
	<path
   id="path3829"
   d="m 129.316,6.715 c -0.854,-1.36 -2.513,-1.844 -3.783,-1.844 H 112.64 l -13.345,28.37 h 6.699 l 5.111,-11.137 3.596,0.009 c 0.003,0 1.04,0.049 1.521,0.838 0.432,0.714 0.314,1.806 -0.36,3.247 -1.619,3.471 -2.904,7.072 -2.904,7.072 l 6.797,0.004 c 0,0 0.253,-1.378 0.824,-2.742 0.516,-1.242 2.077,-5.156 2.088,-5.193 1.308,-3.226 -0.302,-4.496 -1.322,-5.128 2.576,-0.27 4.417,-1.482 5.46,-3.636 0.85,-1.754 2.164,-4.597 2.175,-4.625 1.301,-2.692 0.904,-4.334 0.336,-5.235 m -6.808,4.9 -1.17,2.458 -0.7,1.458 c -0.567,1.2 -1.44,1.808 -2.599,1.808 h -4.67 l 3.544,-7.72 h 5.114 c 0,0 0.475,0.018 0.691,0.368 0.205,0.333 0.133,0.896 -0.21,1.628"
   style="fill:#0056b7;stroke-width:0.17622936"
   inkscape:connector-curvature="0" />

	<g
   id="g3837"
   style="stroke-width:0.17622936">
		<path
   id="path3831"
   d="M 57.789,6.715 C 56.936,5.355 55.276,4.871 54.006,4.871 H 41.109 l -13.342,28.37 h 6.696 l 5.114,-11.137 3.596,0.009 c 0.003,0 1.037,0.049 1.519,0.838 0.435,0.714 0.317,1.806 -0.36,3.247 -1.619,3.471 -2.901,7.072 -2.901,7.072 l 6.797,0.004 c 0,0 0.25,-1.378 0.821,-2.742 0.519,-1.242 2.078,-5.156 2.092,-5.193 1.308,-3.226 -0.302,-4.496 -1.322,-5.128 2.576,-0.27 4.417,-1.482 5.459,-3.636 0.85,-1.754 2.164,-4.597 2.175,-4.625 1.3,-2.692 0.9,-4.334 0.336,-5.235 m -6.809,4.9 -1.173,2.458 -0.697,1.457 c -0.567,1.2 -1.44,1.808 -2.599,1.808 h -4.673 l 3.647,-7.72 h 5.013 c 0,0 0.476,0.018 0.691,0.368 0.206,0.334 0.134,0.897 -0.209,1.629"
   style="fill:#0056b7;stroke-width:0.17622936"
   inkscape:connector-curvature="0" />

		<path
   id="path3833"
   d="M 73.851,27.734 C 75.182,24.96 77.035,21 78.997,16.808 l 2.288,-4.882 C 83.645,6.898 80.98,4.712 77.595,4.712 h -8.116 c -3.423,0 -5.84,1.616 -7.393,4.939 -0.833,1.785 -2.228,4.702 -3.841,8.08 l -3.426,7.178 c -3.417,7.195 1.697,8.377 4.215,8.377 h 5.14 c 5.151,0.051 7.686,-1.403 9.677,-5.552 m -9.11,0.283 h -2.95 c -0.542,0.027 -1.59,-0.139 -0.79,-1.858 1.146,-2.471 5.947,-12.814 6.926,-14.894 0.668,-1.419 1.36,-1.704 2.265,-1.704 h 3.647 c 0.706,-0.029 1.331,0.357 0.761,1.57 l -6.808,14.54 c -0.951,2.009 -1.593,2.346 -3.051,2.346"
   style="fill:#0056b7;stroke-width:0.17622936"
   inkscape:connector-curvature="0" />

		<path
   id="path3835"
   d="m 100.959,4.712 h -6.94 c -3.541,0 -6.414,1.8 -7.883,4.939 -1.256,2.692 -7.235,15.258 -7.235,15.258 -2.184,4.596 -0.919,8.377 5.06,8.377 H 89.3 c 4.264,0.045 6.361,-0.627 8.309,-4.89 l 4.97,-10.896 -10.127,-0.014 -2.227,4.74 3.529,0.006 -1.982,4.292 c -0.579,1.243 -0.971,1.492 -2.331,1.492 h -3.506 c -1.043,0.012 -1.42,-0.519 -0.79,-1.858 0.798,-1.692 7.099,-14.852 7.099,-14.852 0.712,-1.498 1.141,-1.725 2.245,-1.725 h 3.625 c 0.875,-0.005 1.348,0.405 0.763,1.566 -0.132,0.258 -1.59,3.416 -1.59,3.416 l 6.391,0.047 1.452,-3.123 c 2.122,-4.575 0.235,-6.715 -4.171,-6.775"
   style="fill:#0056b7;stroke-width:0.17622936"
   inkscape:connector-curvature="0" />

	</g>

	<polygon
   id="polygon3839"
   points="195.758,4.785 188.795,4.785 175.429,33.184 182.314,33.184 "
   style="fill:#0056b7;stroke-width:0.17622936" />

	<polygon
   id="polygon3841"
   points="205.122,4.792 197.904,4.792 191.284,33.184 200.604,33.184 220.072,4.792 212.826,4.792 197.233,29.811 "
   style="fill:#0056b7;stroke-width:0.17622936" />

	<path
   id="path3843"
   d="m 159.493,23.335 -0.579,-10.497 c -0.069,-1.263 0.239,-2.982 2.556,-2.982 h 4.653 l 2.385,-5.063 h -7.929 c -6.28,0.007 -8.421,3.842 -8.177,8.351 0.145,2.757 0.533,11.726 0.533,11.726 0.095,2.161 -0.734,3.174 -2.757,3.175 h -5.305 l -2.374,5.151 h 8.453 c 5.606,-10e-4 8.91,-3.663 8.541,-9.861"
   style="fill:#0056b7;stroke-width:0.17622936"
   inkscape:connector-curvature="0" />

	<path
   id="path3845"
   d="m 175.348,23.335 -0.579,-10.497 c -0.068,-1.263 0.242,-2.982 2.559,-2.982 h 4.65 l 2.389,-5.063 h -7.932 c -5.209,0.005 -8.474,2.846 -8.177,8.351 0.146,2.757 0.536,11.726 0.536,11.726 0.098,2.161 -0.735,3.174 -2.761,3.175 h -5.166 l -2.38,5.151 h 8.321 c 6.166,-10e-4 8.863,-4.413 8.54,-9.861"
   style="fill:#0056b7;stroke-width:0.17622936"
   inkscape:connector-curvature="0" />

	<path
   id="path3847"
   d="m 136.499,4.83 -13.274,28.362 h 16.789 l 2.443,-5.138 h -10.199 l 3.593,-7.562 h 8.62 l 2.21,-4.75 h -8.649 l 2.752,-5.895 8.948,0.015 c 0.018,0 2.34,-5.036 2.34,-5.036 z"
   style="fill:#0056b7;stroke-width:0.17622936"
   inkscape:connector-curvature="0" />

	<path
   id="path3849"
   d="m 222.357,4.83 -13.271,28.362 h 16.786 l 2.443,-5.138 h -10.196 l 3.59,-7.562 h 8.62 l 2.213,-4.75 h -8.652 l 2.755,-5.895 8.942,0.015 c 0.018,0 2.343,-5.036 2.343,-5.036 z"
   style="fill:#0056b7;stroke-width:0.17622936"
   inkscape:connector-curvature="0" />

	<path
   id="path3851"
   d="M 11.883,33.276 H 5 L 18.236,4.877 h 12.747 c 2.93,0.01 5.661,2.288 3.44,7.201 -1.262,2.789 -2.377,5.199 -2.939,6.359 -1.749,3.595 -3.993,4.923 -8.28,4.893 -2.812,-0.02 -6.699,0 -6.699,0 z M 23.088,18.37 c 1.21,0.012 2,-0.517 2.559,-1.711 0.101,-0.216 1.046,-2.178 2.288,-4.809 0.87,-1.839 0.193,-2.318 -0.755,-2.318 l -4.328,-0.006 -4.08,8.838 z"
   style="fill:#0056b7;stroke-width:0.17622936"
   inkscape:connector-curvature="0" />

	<path
   id="path3853"
   d="m 240.104,7.347 c 0,-1.346 1.099,-2.442 2.458,-2.442 1.352,0 2.438,1.096 2.438,2.442 0,1.358 -1.086,2.453 -2.438,2.453 -1.359,0 -2.458,-1.095 -2.458,-2.453 m 4.605,0 c 0,-1.186 -0.962,-2.146 -2.146,-2.146 -1.192,0 -2.155,0.961 -2.155,2.146 0,1.198 0.963,2.158 2.155,2.158 1.184,-0.001 2.146,-0.96 2.146,-2.158 m -0.931,1.369 h -0.397 L 242.6,7.456 h -0.613 v 1.26 h -0.334 V 5.981 h 1.189 c 0.23,0 0.461,0.013 0.669,0.135 0.204,0.115 0.305,0.36 0.305,0.591 0,0.536 -0.377,0.737 -0.864,0.749 l 0.826,1.26 m -1.282,-1.524 c 0.387,0 0.982,0.065 0.982,-0.493 0,-0.423 -0.374,-0.476 -0.711,-0.476 h -0.781 v 0.968 h 0.51 z"
   style="fill:#0056b7;stroke-width:0.17622936"
   inkscape:connector-curvature="0" />

</g>
  </g>
</svg>
