<?xml version="1.0" encoding="utf-8"?>
<!-- Generator: Adobe Illustrator 21.1.0, SVG Export Plug-In . SVG Version: 6.00 Build 0)  -->
<svg version="1.1" id="Capa_1" xmlns="http://www.w3.org/2000/svg" xmlns:xlink="http://www.w3.org/1999/xlink" x="0px" y="0px"
	 viewBox="0 0 2500 693" style="enable-background:new 0 0 2500 693;" xml:space="preserve">
<style type="text/css">
	.st0{fill:#B92B27;}
</style>
<path class="st0" d="M356.4,539.3c-24-47.2-52.1-94.8-106.9-94.8c-10.5,0-21,1.7-30.6,6.1l-18.6-37.3
	c22.7-19.5,59.4-34.9,106.5-34.9c73.4,0,111,35.3,140.9,80.4c17.7-38.5,26.2-90.5,26.2-155c0-161-50.3-243.6-167.9-243.6
	c-115.9,0-165.9,82.6-165.9,243.6c0,160.1,50.1,241.9,165.9,241.9C324.4,545.8,341.1,543.7,356.4,539.3L356.4,539.3z M385.1,595.4
	c-25.4,6.8-52.4,10.6-79.1,10.6C151.7,606,0.6,482.9,0.6,303.9C0.6,123.1,151.7,0,306,0c156.9,0,306.5,122.3,306.5,303.9
	c0,101-47.1,183.1-115.7,236.2c22.1,33.2,44.9,55.2,76.7,55.2c34.6,0,48.6-26.8,50.9-47.8h45.1c2.6,27.9-11.3,144.1-137.4,144.1
	C455.8,691.6,415.4,647.3,385.1,595.4L385.1,595.4z M711.7,441.9v-207c0-23.6-8.7-34-35.8-34h-28.8v-55h188.3v293.4
	c0,49.5,26.8,71.3,67.5,71.3c33.5,0,66.9-14.8,85-48.6v-227c0-23.6-8.7-34-35.8-34h-30.6v-55h190.1v307.3
	c0,30.6,11.3,44.6,46.3,44.6h6.1v56.8l-170,27.1v-58.5h-3.5c-32.9,40.1-79.2,67.2-145.2,67.2C771,590.3,711.7,552.8,711.7,441.9
	L711.7,441.9z M1411.2,535.3c67,0,92.4-58.2,93.7-175.5c1.3-114.7-26.8-170.2-93.7-170.2c-58.5,0-95.2,55.6-95.2,170.2
	C1316.1,477.1,1352.1,535.3,1411.2,535.3z M1411.2,590.3c-121.1,0-230.3-92.6-230.3-230.5c0-135.4,106.5-225.3,230.3-225.3
	c129,0,232.3,91.7,232.3,225.3C1643.5,497.7,1540.2,590.3,1411.2,590.3z M1647.4,581.6v-55h18.3c45.4,0,49.8-13.1,49.8-52.4V234.9
	c0-23.6-12.2-34-40.2-34h-24.5v-55h172.6l8.7,89.9h3.5c19.2-64.6,70.7-98.7,119-98.7c39.9,0,71,22.7,71,68.7
	c0,32-15.4,66.1-58.5,66.1c-38.7,0-46.3-26.2-78.3-26.2c-28.5,0-50.6,27.1-50.6,66.9v161.6c0,39.3,9.6,52.4,54.2,52.4h25.3v55
	H1647.4L1647.4,581.6z M2222,517.5c55,0,77.7-52.1,77.7-104.5v-69.9c-40.2,41.6-133.6,43.1-133.6,117.3
	C2166.1,496.9,2187.6,517.5,2222,517.5L2222,517.5z M2302.3,517.2c-22.7,43.7-69.3,73.1-134.5,73.1c-75.7,0-124.6-40.2-124.6-110.9
	c0-142.3,198.2-104.5,256.4-198.8v-10.2c0-72.5-28.5-83.8-60-83.8c-88.2,0-48,94.8-129.2,94.8c-39,0-54.1-23.5-54.1-50
	c0-53.6,64-96.9,184.3-96.9c113.8,0,183.7,31.4,183.7,144.7v180.7c0,27.9,10.2,43.1,34.6,43.1c10.5,0,19.2-2.9,25.9-7.6l14.6,35.5
	c-11.9,18.4-43.7,50.7-103.9,50.7c-52.4,0-85.3-24.5-89.6-64.3L2302.3,517.2L2302.3,517.2z"/>
</svg>
