<?xml version="1.0" encoding="UTF-8"?>
<svg width="693.07" height="100.09" enable-background="new 0 0 200 27.769" version="1.1" viewBox="0 0 693.07 100.09" xml:space="preserve" xmlns="http://www.w3.org/2000/svg">


<g transform="translate(110.35 15.325)"><g fill="#eb1d27"><path d="m2.7526 41.376c-7.6502 0-14.472 1.8625-19.318 4.8071-4.8686 2.958-7.7259 6.9223-7.7259 11.196-3e-6 4.2629 2.8389 8.2878 7.7043 11.279 4.8352 2.9726 11.636 4.8845 19.286 4.8827 7.6503-0.0018 14.522-1.9165 19.437-4.8972 4.9191-2.9832 7.8304-7.0016 7.8304-11.265 3e-6 -4.2449-2.8974-8.2193-7.8052-11.182-4.9009-2.9582-11.755-4.8215-19.408-4.8215zm-74.87 0c-7.6574 0-14.471 1.8588-19.326 4.8071-4.8709 2.9579-7.7367 6.9223-7.7367 11.185 0 4.2774 2.8497 8.3022 7.7115 11.293 4.8316 2.9726 11.636 4.8846 19.293 4.8827 7.6575-0.0018 14.521-1.9181 19.43-4.8972 4.9181-2.9848 7.8394-7.0016 7.8376-11.265-0.0018-4.2486-2.9092-8.2213-7.816-11.185-4.8947-2.9566-11.744-4.8215-19.394-4.8215zm37.466-13.34c7.643 0 14.504-1.9044 19.419-4.8864 4.9264-2.989 7.8448-7.0124 7.8448-11.265 0-4.263-2.8983-8.2502-7.8052-11.21-4.8947-2.953-11.74-4.8287-19.405-4.8287-7.6503 0-14.462 1.872-19.322 4.8287-4.8658 2.9602-7.7331 6.9367-7.7331 11.2 0 4.2738 2.863 8.2887 7.7079 11.275 4.8413 2.9844 11.639 4.8864 19.293 4.8864zm0.01985-43.361c-21.329 0.0018-38.332 12.03-38.332 27.161 0 7.5313 4.2125 14.373 11.081 19.324-3.2359-0.60899-6.6323-0.94592-10.135-0.94592-21.329 0-38.332 12.045-38.332 27.161 0 15.106 16.906 27.387 38.242 27.387 18.158 0 33.377-8.8917 37.521-20.855 4.0395 11.964 18.999 20.855 37.161 20.855 21.333 0 38.603-12.277 38.603-27.387 0-15.117-17.191-27.161-38.512-27.161-3.4594 0-6.78 0.3063-9.9547 0.90088 6.9367-4.9512 11.171-11.758 11.171-19.279 0-15.131-17.18-27.163-38.512-27.161zm0.04504 6.9818c8.8862 0 17.129 2.3162 23.243 6.6214 3.0612 2.1559 8.3164 6.7656 8.2881 13.558-0.047356 11.359-14.682 20.388-31.666 20.405-8.8214 0.0086-16.971-2.3253-23.017-6.6665-5.2614-3.7775-8.2538-8.6538-8.243-13.738 0.01444-6.8143 5.2128-11.409 8.243-13.558 6.0723-4.3078 14.295-6.6214 23.153-6.6214zm-37.431 45.494c8.8899-2e-6 17.127 2.3612 23.243 6.6665 3.0623 2.1558 8.3615 6.7584 8.3331 13.558-0.04731 11.344-14.686 20.388-31.666 20.405-8.8322 0.0086-17-2.3601-23.062-6.7115-5.2383-3.76-8.2553-8.6196-8.243-13.693 0.0165-6.8143 5.2148-11.462 8.243-13.603 6.0706-4.2915 14.291-6.6214 23.153-6.6214zm74.683 0c8.8899-2e-6 17.157 2.3572 23.288 6.6665 3.0615 2.1518 8.3137 6.7692 8.2881 13.558-0.04283 11.344-14.682 20.388-31.666 20.405-8.8214 0.0086-17.004-2.3644-23.062-6.7115-5.2461-3.7644-8.2522-8.6196-8.243-13.693 0.01239-6.8142 5.2046-11.451 8.243-13.603 6.0568-4.2906 14.295-6.6214 23.153-6.6214zm-27.387 1.1261c-4.7242 3.4089-8.225 7.7241-9.8646 12.567-1.672-4.8179-5.126-9.1169-9.8646-12.522 3.1098 0.58016 6.3674 0.90088 9.7295 0.90088 3.4594 0 6.8142-0.34774 9.9997-0.94592z"/><path d="m414.41 72.916-1.4864 7.3872c-0.0585 0.29079 0.23001 0.50833 0.63062 0.49548l15.45-0.49548c0.30238-0.0097 0.57015-0.28055 0.63061-0.58557l9.0538-45.674c0.44853-2.2628 0.65309-4.2508 0.67565-6.5314 0.0578-5.8446-2.6506-9.8962-6.5764-12.657-3.9082-2.7487-10.135-4.1891-18.693-4.1891-4.2413 0-8.5258 0.40575-12.792 1.2162-3.8341 0.72827-6.2149 1.3543-8.243 1.9369-0.3093 0.08884-0.47502 0.25172-0.54052 0.58557l-2.7927 14.234c-0.12736 0.6491 0.53901 0.6911 0.90088 0.54053 1.8131-0.75448 4.4361-1.8459 7.8827-3.063 3.5334-1.2477 6.7512-1.8918 9.6844-1.8918 4.2954 0 7.5711 0.58718 9.8196 1.8018 2.2811 1.2322 3.9199 3.9603 3.9188 6.9367-4.4e-4 1.2118-0.4504 3.4233-0.4504 3.4233-4.5331 0.368-9.3901 0.87462-13.874 1.6216-5.6607 0.94309-21.093 3.6353-26.351 14.054-4.5306 8.9777-4.1379 20.306 0.76575 25.945 1.7268 1.9858 4.3745 4.0039 8.3781 4.662 14.139 2.3242 24.008-9.752 24.008-9.752zm4.8196-24.774-2.3423 12.387s-3.6799 5.8109-9.0088 7.8827c-5.3303 2.0723-9.1906 0.39405-10.72-1.6666-1.2016-1.6185-3.7307-6.6968 1.081-12.432 4.8565-5.7887 20.99-6.171 20.99-6.171zm-157.49-22.783c-0.0927 0.47339-0.38958 0.73699-0.74232 0.72791l-10.641-0.27387-4.9296 23.228c-0.62129 2.9275-2.2038 10.18-2.2053 12.522-1e-3 2.1873 0.81633 3.6767 1.9639 4.5656 1.1551 0.89477 2.5729 1.1953 3.8449 1.1964 2.7005 0.0023 4.3306-0.69934 5.971-1.5783 0.16865-0.09037 0.42572-0.04687 0.35314 0.32431l-2.6161 13.38c-0.13443 0.68753-0.51509 0.79398-0.90087 0.87565-3.6328 0.76906-6.3602 1.4215-10.205 1.4054-9.8881-0.04152-17.068-3.3837-17.095-14.933-0.0126-5.4052 2.248-15.234 3.8089-22.562l3.9278-18.439-8.3673 0.28468c-0.29236 0.0099-0.57171-0.37196-0.50449-0.72791l2.454-12.994c0.0708-0.37469 0.41429-0.41801 0.75674-0.41801h8.4934l3.4017-17.113c0.0791-0.39791 0.35604-0.66532 0.66665-0.74953 8.4624-2.2941 10.944-3.258 18.72-5.7764 0.28216-0.09138 0.49345 0.02454 0.39639 0.46125l-5.2106 23.444 10.89-0.33513c0.30449-0.0094 0.344 0.34005 0.29909 0.56935zm-142.95-31.559-3.236 16.663c-0.13973 0.7195-0.45008 0.58368-0.71349 0.22702-1.3187-1.7856-2.0632-2.5209-3.8558-3.9026-3.9766-3.0651-8.6989-4.7963-13.517-4.7963-3.7765 0-6.9093 1.1848-9.0916 3.1423-2.1887 1.9632-3.4453 4.7422-3.4413 7.852 0.0075 5.8809 3.9368 8.9193 11.189 13.034l2.7819 1.5783c6.232 3.5358 15.311 9.9529 15.3 23.628-0.0115 15.542-9.9781 31.141-33.866 31.17-5.8557 0.0071-11.596-1.0284-17.106-3.1062-3.7301-1.4068-5.5043-2.6802-7.7692-4.3314-0.25838-0.18838-0.29066-0.5408-0.18738-1.0702l3.1711-16.255c0.08207-0.42069 0.54224-0.41999 0.70989-0.23783 1.5918 1.7294 3.2439 3.3736 5.935 5.1638 5.7591 3.8312 11.275 4.2501 13.628 4.2485 8.4322-0.0056 15.066-4.8215 15.063-12.299-0.0034-6.6953-5.3666-9.941-10.829-13.308l-3.8233-2.3567c-6.1208-3.7729-14.367-9.2862-14.385-22.702-7e-3 -5.1602 1.48-12.569 6.0539-18.63 6.0204-7.9781 15.499-10.839 25.041-10.839 12.284 0 19.315 4.3439 22.605 6.4575 0.24227 0.15564 0.39693 0.38913 0.34233 0.67025zm40.006 31.559c-0.0927 0.47339-0.38958 0.73699-0.74232 0.72791l-10.641-0.27387-4.9296 23.228c-0.62129 2.9275-2.2038 10.18-2.2053 12.522-1e-3 2.1873 0.81633 3.6767 1.9639 4.5656 1.1551 0.89477 2.5729 1.1953 3.8449 1.1964 2.7005 0.0023 4.3306-0.69934 5.971-1.5783 0.16865-0.09037 0.42572-0.04687 0.35314 0.32431l-2.6161 13.38c-0.13443 0.68753-0.51509 0.79398-0.90087 0.87565-3.6328 0.76906-6.3602 1.4215-10.205 1.4054-9.8881-0.04152-17.068-3.3837-17.095-14.933-0.0126-5.4052 2.248-15.234 3.8089-22.562l3.9278-18.439-8.3673 0.28468c-0.29236 0.0099-0.57171-0.37196-0.50449-0.72791l2.454-12.994c0.0708-0.37469 0.41429-0.41801 0.75674-0.41801h8.4934l3.4017-17.113c0.0791-0.39791 0.35604-0.66532 0.66665-0.74953 8.4624-2.2941 10.944-3.258 18.72-5.7764 0.28216-0.09138 0.49345 0.02454 0.39639 0.46125l-5.2106 23.444 10.89-0.33513c0.30449-0.0094 0.344 0.34005 0.29909 0.56935zm34.761 47.557-1.4864 7.3872c-0.0585 0.29079 0.23001 0.50833 0.63062 0.49548l15.45-0.49548c0.30238-0.0097 0.57015-0.28055 0.63061-0.58557l9.0538-45.674c0.44853-2.2628 0.65309-4.2508 0.67565-6.5314 0.0578-5.8446-2.6506-9.8962-6.5764-12.657-3.9082-2.7487-10.135-4.1891-18.693-4.1891-4.2413 0-8.5258 0.40575-12.792 1.2162-3.8341 0.72827-6.2149 1.3543-8.243 1.9369-0.3093 0.08884-0.47502 0.25172-0.54052 0.58557l-2.7927 14.234c-0.12736 0.6491 0.53901 0.6911 0.90088 0.54053 1.8131-0.75448 4.4361-1.8459 7.8827-3.063 3.5334-1.2477 6.7512-1.8918 9.6844-1.8918 4.2954 0 7.5711 0.58718 9.8196 1.8018 2.2811 1.2322 3.9199 3.9603 3.9188 6.9367-4.4e-4 1.2118-0.4504 3.4233-0.4504 3.4233-4.5331 0.368-9.3901 0.87462-13.874 1.6216-5.6607 0.94309-21.093 3.6353-26.351 14.054-4.5306 8.9777-4.1379 20.306 0.76575 25.945 1.7268 1.9858 4.3745 4.0039 8.3781 4.662 14.139 2.3242 24.008-9.752 24.008-9.752zm4.8196-24.774-2.3423 12.387s-3.6799 5.8109-9.0088 7.8827c-5.3303 2.0723-9.1906 0.39405-10.72-1.6666-1.2016-1.6185-3.7307-6.6968 1.081-12.432 4.8565-5.7887 20.99-6.171 20.99-6.171zm329.74-14.506c0.38441-1.9773-1.0594-7.4124-6.7169-7.4124-4.4359 0-9.0376 4.4936-9.0376 4.4936l-9.5925 49.091c-0.0488 0.24981-0.31462 0.47667-0.60539 0.48647l-17.855 0.60178c-0.27944 0.0094-0.43176-0.36466-0.38558-0.60178l13.311-68.344c0.0628-0.32231 0.34951-0.64364 0.67025-0.67385l17.711-1.6684c0.49645-0.046766 0.78399 0.37432 0.7171 0.7171l-1.8774 9.6214s8.5474-9.3747 19.445-9.5853c10.169-0.19656 12.295 9.5853 12.295 9.5853s10.016-9.5853 20.911-9.5853c5.4595 0 15.588 2.4504 15.61 16.605 7e-3 4.1332-1.0268 8.4056-1.8486 12.601l-7.8809 40.237c-0.0596 0.30411-0.34428 0.47725-0.60538 0.48647l-17.758 0.62701c-0.27424 0.0097-0.49932-0.32093-0.43963-0.62701l9.0988-46.655c0.52006-2.6666-1.063-7.4124-6.7133-7.4124-4.4503 0-9.052 4.4936-9.052 4.4936l-9.5889 49.091c-0.0503 0.2573-0.2652 0.47537-0.59096 0.48647l-17.866 0.60899c-0.35183 0.01199-0.4829-0.31586-0.42521-0.6126zm-70.784 46.172c-0.0469 0.24408-0.24299 0.47711-0.55133 0.48647l-16.965 0.5153c-0.23238 0.0071-0.48238-0.22768-0.43963-0.44684l13.344-68.413c0.0731-0.37472 0.34129-0.68003 0.7243-0.7171l16.792-1.6252c0.37825-0.036607 0.73242 0.36187 0.66305 0.7171l-1.9351 9.9096 0.82521-0.74953c3.5068-3.1852 6.6272-5.373 10.101-7.362 3.449-1.9749 6.901-3.0139 10.374-2.9657l1.0378 0.014414c0.29612 0.00411 0.64157 0.29907 0.58741 0.58016l-3.7837 19.639c-0.11079 0.57504-0.43473 0.86183-0.79277 0.80358-1.0506-0.17093-2.4576-0.35314-4.0864-0.35314-5.099 0-12.349 1.636-18.052 9.1835zm-64.236-76.369c-0.0614 0.3144-0.23175 0.6531-0.58737 0.65223l-28.111-0.068467-4.5728 23.455 24.601-0.74232c0.31778-0.0096 0.43352 0.34251 0.36395 0.58377-1.9505 6.7641-2.4823 8.651-3.8557 14.529-0.10349 0.44295-0.35621 0.59515-0.62341 0.59458l-23.394-0.05045-6.9656 37.408c-0.0568 0.30504-0.23324 0.47912-0.51891 0.48647l-20.147 0.5189c-0.18018 0.0046-0.29414-0.27778-0.24504-0.5189l8.8358-43.393c4.0191-19.738 5.1061-26.052 8.9908-47.541 0.0505-0.27925 0.28674-0.59098 0.60538-0.59098h29.437c7.309 0 12.675-0.32313 18.695-0.49008 0.25321-7e-3 0.39854 0.29468 0.36035 0.49008zm-75.852 46.595c0.36437-0.0016 0.65047-0.21162 0.7207-0.49548 1.0524-4.2537 1.9369-9.1511 1.9369-15.18 0-5.3512-0.65218-14.827-8.8736-20.27-3.7646-2.4924-9.097-3.7419-14.369-3.7386-11.949 0.0075-20.525 5.9199-26.125 14.234-5.6024 8.3163-8.198 19.054-8.198 28.603 0 6.9007 1.0114 13.341 5.2251 19.144 2.0637 2.842 7.0953 9.6759 23.333 9.6844 11.275 0.0059 16.568-3.0239 19.504-4.6395 0.24164-0.13298 0.43224-0.30828 0.49548-0.63061l3.2432-16.531c0.11476-0.58498-0.23434-0.71685-0.58556-0.45044-5.7958 4.3963-11.904 7.8376-18.963 7.8376-4.735 0-8.3338-1.1221-10.765-3.2882-2.4187-2.1545-3.6035-5.3368-3.6035-9.279 0-1.4522 0.0252-3.2018 0.31699-4.8341zm-14.119-23.141c1.7029 3.2858 1.2405 7.1024 0.56066 10.979l-21.531 0.27026c0.42261-3.4192 2.2038-7.8719 5.1038-11.22 2.8999-3.3481 6.1273-4.2984 8.5445-4.3652 3.269-0.0904 5.7174 1.24 7.322 4.3361z"/></g></g></svg>
