<?xml version="1.0" encoding="utf-8"?>
<!-- Generator: Adobe Adobe Illustrator 24.2.0, SVG Export Plug-In . SVG Version: 6.00 Build 0)  -->
<svg version="1.1"
	 id="svg2" xmlns:cc="http://creativecommons.org/ns#" xmlns:dc="http://purl.org/dc/elements/1.1/" xmlns:rdf="http://www.w3.org/1999/02/22-rdf-syntax-ns#" xmlns:svg="http://www.w3.org/2000/svg"
	 xmlns="http://www.w3.org/2000/svg" xmlns:xlink="http://www.w3.org/1999/xlink" x="0px" y="0px" width="7874.73px" height="970px"
	 viewBox="0 0 7874.73 970" style="enable-background:new 0 0 7874.73 970;" xml:space="preserve">
<style type="text/css">
	.st0{fill:#CC0000;}
</style>
<g id="g10" transform="matrix(1.3333333,0,0,-1.3333333,-0.73489494,2527.6953)">
	<g id="g12" transform="scale(0.1)">
		<g id="g14" transform="scale(1.12054)">
			<path id="path16" class="st0" d="M3222.09,15176.23c-810.78,0-1568.95-513.21-1568.95-1678.73
				c0-1061.58,476-1741.78,1545.36-1741.78c729.17,0,1595.61,450.9,1595.61,1718.18
				C4794.1,14587.86,4252.02,15176.23,3222.09,15176.23 M3103.69,10582.05c-2083.47,0-3098.77,1073.47-3098.77,2815.13
				c0,1802.66,1505.8,2944.51,3335.97,2944.51c1776.24,0,3101.12-846.51,3101.12-2794.19
				C6442,11725.39,4968,10582.05,3103.69,10582.05L3103.69,10582.05z"/>
		</g>
		<g id="g18" transform="scale(1.12054)">
			<path id="path20" d="M3222.09,15176.23c-810.78,0-1568.95-513.21-1568.95-1678.73c0-1061.58,476-1741.78,1545.36-1741.78
				c729.17,0,1595.61,450.9,1595.61,1718.18C4794.1,14587.86,4252.02,15176.23,3222.09,15176.23
				c1029.93,0,1572.01-588.37,1572.01-1702.33c0-1267.28-866.44-1718.18-1595.61-1718.18c-1069.36,0-1545.36,680.2-1545.36,1741.78
				C1653.13,14663.02,2411.3,15176.23,3222.09,15176.23z M3103.69,10582.05c-2083.47,0-3098.77,1073.47-3098.77,2815.13
				c0,1802.66,1505.8,2944.51,3335.97,2944.51c1776.24,0,3101.12-846.51,3101.12-2794.19
				C6442,11725.37,4968,10582.05,3103.69,10582.05 M3103.69,10582.05C4968,10582.05,6442,11725.37,6442,13547.5
				c0,1947.68-1324.88,2794.19-3101.12,2794.19c-1830.16,0-3335.97-1141.85-3335.97-2944.51
				C4.92,11655.51,1020.22,10582.05,3103.69,10582.05L3103.69,10582.05z"/>
		</g>
		<g id="g22" transform="scale(1.16305)">
			<path id="path24" class="st0" d="M10005.05,15107.91c-214.67,44.35-409,72.3-576.6,72.3c-437.09,0-687.48-175.29-687.48-595.85
				v-349.35l1010.16,0.07v-929.83l-1010.16,0.07v-2122.95c282.01-25.45,585.72-60.88,836.17-100.24v-782.82l-3132.76,0.03v782.79
				c250,39.36,552.5,74.79,839.54,100.24v2122.88l-899.39,0.07v929.69l899.39,0.07v333.91c0,1050.91,612.45,1580.64,1995.91,1580.64
				c252.69,0,525.93-16.67,813.04-62.38L10005.05,15107.91"/>
		</g>
		<g id="g26" transform="scale(1.16305)">
			<path id="path28" d="M10005.05,15107.91c-214.67,44.35-409,72.3-576.6,72.3c-437.09,0-687.48-175.29-687.48-595.85v-349.35
				l1010.16,0.07v-929.83l-1010.16,0.07v-2122.95c282.01-25.45,585.72-60.88,836.17-100.24v-782.82l-3132.76,0.03v782.79
				c249.98,39.36,552.5,74.79,839.54,100.24v2122.88l-899.39,0.07v929.69l899.39,0.07v333.91
				c0,1050.91,612.45,1580.64,1995.91,1580.64c252.69,0,525.93-16.67,813.04-62.38L10005.05,15107.91l87.81,979.35
				c-287.11,45.71-560.35,62.38-813.04,62.38c-1383.46,0-1995.91-529.74-1995.91-1580.64v-333.91l-899.39-0.07v-929.69l899.39-0.07
				v-2122.88c-287.04-25.45-589.56-60.88-839.54-100.24v-782.79l3132.76-0.03v782.82c-250.45,39.36-554.16,74.79-836.17,100.24
				v2122.95l1010.16-0.07v929.83l-1010.16-0.07v349.35c0,420.57,250.38,595.85,687.48,595.85
				C9596.05,15180.22,9790.38,15152.26,10005.05,15107.91L10005.05,15107.91z"/>
		</g>
		<g id="g30" transform="scale(1.44596)">
			<path id="path32" class="st0" d="M11022.06,12151.99c-178.76,35.64-337.24,58.09-467.02,58.09
				c-354.66,0-553.68-140.94-553.68-479.2v-280.99h804.06v-747.87l-804.06,0.03V8994.48c226.71-20.47,469-48.97,671.22-80.63
				v-629.66l-2514.69,0.02v629.64c204.33,31.66,437.44,60.16,671.22,80.63v1707.54l-725.36,0.03v747.84h724.34v268.61
				c0,845.28,496.75,1271.36,1606.42,1271.36c204.26,0,425.06-13.4,653.94-50.2L11022.06,12151.99"/>
		</g>
		<g id="g34" transform="scale(1.44596)">
			<path id="path36" d="M11022.06,12151.99c-178.76,35.64-337.24,58.09-467.02,58.09c-354.66,0-553.68-140.94-553.68-479.2v-280.99
				h804.06v-747.87l-804.06,0.03V8994.48c226.71-20.47,469-48.97,671.22-80.63v-629.66l-2514.69,0.02v629.64
				c204.33,31.66,437.44,60.16,671.22,80.63v1707.54l-725.36,0.03v747.84h724.34v268.61c0,845.28,496.75,1271.36,1606.42,1271.36
				c204.26,0,425.06-13.4,653.94-50.2L11022.06,12151.99l66.39,787.67c-228.89,36.8-449.68,50.2-653.94,50.2
				c-1109.67,0-1606.42-426.08-1606.42-1271.36v-268.61h-724.34v-747.84l725.36-0.03V8994.48
				c-233.78-20.47-466.89-48.97-671.22-80.63v-629.64l2514.69-0.02v629.66c-202.22,31.66-444.51,60.16-671.22,80.63v1707.58
				l804.06-0.03v747.87h-804.06v280.99c0,338.26,199.03,479.2,553.68,479.2C10684.82,12210.08,10843.31,12187.63,11022.06,12151.99z
				"/>
		</g>
		<g id="g38" transform="scale(1.76634)">
			<path id="path40" class="st0" d="M10101.06,9642.55c-321.26,0-586.33,208.96-586.33,469.18c0,263.57,265.07,469.33,586.33,469.33
				c325.54,0,588.85-205.76,588.85-469.33C10689.9,9855.86,10426.6,9642.55,10101.06,9642.55 M9071.44,6781.61v515.45
				c165.56,25.92,359.55,49.25,546.06,66v1406.21c-146.24,19.88-363.84,41.72-546.06,48.42v510.24
				c455.94,45.17,977.79,64.48,1510.58,46.93V7363.06c174.95-16.75,361.39-40.08,506.2-66v-515.45H9071.44z"/>
		</g>
		<g id="g42" transform="scale(1.76634)">
			<path id="path44" d="M10101.06,9642.55c-321.26,0-586.33,208.96-586.33,469.18c0,263.57,265.07,469.33,586.33,469.33
				c325.54,0,588.85-205.76,588.85-469.33C10689.9,9855.86,10426.6,9642.55,10101.06,9642.55c325.54,0,588.85,213.3,588.85,469.18
				c0,263.57-263.3,469.33-588.85,469.33c-321.26,0-586.33-205.76-586.33-469.33C9514.73,9851.51,9779.8,9642.55,10101.06,9642.55
				L10101.06,9642.55z M9071.44,6781.61v515.45c165.56,25.92,359.55,49.25,546.06,66v1406.21
				c-146.24,19.88-363.84,41.72-546.06,48.42v510.24c455.94,45.17,977.79,64.48,1510.58,46.93V7363.06
				c174.95-16.75,361.39-40.08,506.2-66v-515.45H9071.44 M9071.44,6781.61h2016.79v515.45c-144.81,25.92-331.26,49.25-506.2,66
				v2011.81c-532.8,17.56-1054.65-1.75-1510.58-46.93V8817.7c182.23-6.7,399.82-28.54,546.06-48.42V7363.06
				c-186.51-16.75-380.5-40.08-546.06-66V6781.61z"/>
		</g>
		<g id="g46" transform="scale(2.15105)">
			<path id="path48" class="st0" d="M10364.12,5526.21c-829.77,0-1283.13,350.23-1283.13,1039.18
				c0,641.68,410.77,1172.5,1395.63,1172.5c193.79,0,407.44-25.3,591.57-68.56v-729.52l-507.63,0.02
				c-19.86,86.66-33.06,167.02-48.02,239.77c-38.5,13.73-90.74,14.41-141.62,14.41c-274.12,0-470.49-200.62-470.49-550.18
				c0-364.18,178.69-553.69,640.27-553.69c161.41,0,343.36,29.52,493.69,85.22l53.67-564.6
				C10853.11,5555.75,10639.53,5526.21,10364.12,5526.21"/>
		</g>
		<g id="g50" transform="scale(2.15105)">
			<path id="path52" d="M10364.12,5526.21c-829.77,0-1283.13,350.23-1283.13,1039.18c0,641.68,410.77,1172.5,1395.63,1172.5
				c193.79,0,407.44-25.3,591.57-68.56v-729.52l-507.63,0.02c-12.52,54.51-22.31,106.34-31.63,155.55
				c-5.51,28.93-10.88,57.33-16.39,84.22c-38.5,13.73-90.74,14.41-141.62,14.41c-274.12,0-470.49-200.62-470.49-550.18
				c0-364.18,178.69-553.69,640.27-553.69c161.41,0,343.36,29.52,493.69,85.22l53.67-564.6
				C10853.11,5555.75,10639.53,5526.21,10364.12,5526.21c275.41,0,489,29.53,723.93,84.56l-53.67,564.6
				c-150.32-55.7-332.28-85.22-493.69-85.22c-461.58,0-640.27,189.51-640.27,553.69c0,349.55,196.37,550.18,470.49,550.18
				c50.88,0,103.12-0.68,141.62-14.41c5.51-26.89,10.88-55.29,16.39-84.22c9.32-49.21,19.11-101.04,31.63-155.55l507.63-0.02v729.52
				c-184.13,43.27-397.78,68.56-591.57,68.56c-984.86,0-1395.63-530.83-1395.63-1172.51
				C9080.99,5876.45,9534.34,5526.21,10364.12,5526.21L10364.12,5526.21z"/>
		</g>
		<g id="g54" transform="scale(2.6392)">
			<path id="path56" class="st0" d="M10157.93,5926.61c-185.35,0-319.62-119.8-335.41-298.38l633.74,0.01
				C10463.07,5821.41,10344.92,5926.61,10157.93,5926.61 M11068.85,5274.96l-1252.45,0.02c6.12-232.35,173.11-362.72,520.08-362.72
				c207.8,0,422.81,36.38,618.71,108.6l58.16-402.58c-236.17-79.56-518.92-120.35-776.99-120.35
				c-691.97,0-1071.52,281.59-1071.52,889.57c0,532.4,360.44,927.63,1009.82,927.63c634.35,0,912.69-352.69,912.69-808.45
				C11087.9,5433.46,11081.16,5358.95,11068.85,5274.96L11068.85,5274.96z"/>
		</g>
		<g id="g58" transform="scale(2.6392)">
			<path id="path60" d="M10157.93,5926.61c-185.35,0-319.62-119.8-335.41-298.38l633.74,0.01c6.6,187.28-104.21,291.86-281.4,298.08
				C10169.29,5926.51,10163.64,5926.61,10157.93,5926.61c5.71,0,11.36-0.1,16.94-0.29c177.19-6.22,288-110.8,281.4-298.08
				l-633.74-0.01C9838.31,5806.81,9972.58,5926.61,10157.93,5926.61z M11068.85,5274.96l-1252.45,0.02
				c6.12-232.35,173.11-362.72,520.08-362.72c207.8,0,422.81,36.38,618.71,108.6l58.16-402.58
				c-236.17-79.56-518.92-120.35-776.99-120.35c-691.97,0-1071.52,281.59-1071.52,889.57c0,532.4,360.44,927.63,1009.82,927.63
				c634.35,0,912.69-352.69,912.69-808.45C11087.9,5433.45,11081.16,5358.95,11068.85,5274.96 M11068.85,5274.96
				c12.31,83.99,19.05,158.49,18.5,231.72c0,455.76-278.34,808.45-912.69,808.45c-649.38,0-1009.82-395.23-1009.82-927.63
				c0-607.98,379.55-889.57,1071.52-889.57c258.07,0,540.83,40.8,776.99,120.35l-58.16,402.58
				c-195.9-72.22-410.91-108.6-618.71-108.6c-346.97,0-513.96,130.37-520.08,362.72L11068.85,5274.96z"/>
		</g>
		<g id="g62" transform="scale(3.42665)">
			<path id="path64" class="st0" d="M10205.87,4507.41c-55.57,0-84,0-118.97-5.22v-704.12c19.45-3.41,53.12-4.32,109.1-4.32
				c211.34,0,379.48,111.59,379.48,358.31C10575.9,4356.41,10522.02,4507.41,10205.87,4507.41 M10156.76,3478.96
				c-183.25,0-480.7,11.68-544.16,11.68l-224.6,0.01v230.29c65.5,13.32,145.7,23.15,224.6,26.25v802.82
				c-78.9,2.2-159.1,10.81-224.6,20.31v237.53l212.15,0.01c141.34-0.01,380.64,6.07,630.34,6.07
				c504.43,0,857.25-158.29,857.25-634.7C11087.75,3731.19,10716.83,3478.96,10156.76,3478.96L10156.76,3478.96z"/>
		</g>
		<g id="g66" transform="scale(3.42665)">
			<path id="path68" d="M10205.87,4507.41c-55.57,0-84,0-118.97-5.22v-704.12c19.45-3.41,53.12-4.32,109.1-4.32
				c211.34,0,379.48,111.59,379.48,358.31c0.41,203.89-53.19,354.68-367.51,355.34
				C10207.02,4507.41,10206.82,4507.41,10205.87,4507.41c0.95,0,1.16,0,2.11,0c314.32-0.67,367.92-151.45,367.51-355.34
				c0-246.72-168.14-358.31-379.48-358.31c-55.98,0-89.65,0.91-109.1,4.32v704.12
				C10121.86,4507.41,10150.29,4507.41,10205.87,4507.41z M10156.76,3478.96c-115.36,0-275.96,4.62-394.99,8.05
				c-70.06,2.02-125.63,3.63-149.17,3.63l-224.6,0.01v230.29c65.5,13.32,145.7,23.15,224.6,26.25v802.82
				c-78.9,2.2-159.1,10.81-224.6,20.31v237.53l212.15,0.01c60.81,0,139.64,1.12,229.77,2.4c119.38,1.69,258.27,3.67,400.57,3.67
				c504.43,0,857.25-158.29,857.25-634.7C11087.75,3731.19,10716.83,3478.96,10156.76,3478.96 M10156.76,3478.96
				c560.08,0,930.99,252.23,930.99,700.28c0,476.41-352.82,634.7-857.25,634.7c-142.3,0-281.19-1.98-400.57-3.67
				c-90.13-1.29-168.96-2.4-229.77-2.4l-212.15-0.01v-237.53c65.5-9.5,145.7-18.11,224.6-20.31v-802.82
				c-78.9-3.1-159.1-12.93-224.6-26.25v-230.29l224.6-0.01c23.54,0,79.11-1.61,149.17-3.63
				C9880.8,3483.58,10041.4,3478.96,10156.76,3478.96z"/>
		</g>
		<g id="g70" transform="scale(3.81576)">
			<path id="path72" class="st0" d="M9945.37,3134.68v206.81c58.9,11.96,130.12,20.79,199.43,23.58v720.96
				c-69.31,1.97-140.53,9.71-199.43,18.24v213.32l1135.39,0.01v-323.65l-331.05,0.01c-7.75,29.74-10.14,41.01-15.17,65.78
				l-163.38,0.02v-209.15l138.15,0.01c5.51,22.89,6.26,26.36,15.58,48.48l281.13,0.01V3578l-281.13,0.01
				c-9.32,19.43-10.07,25.15-15.58,45.68l-138.15,0.01v-229.98l164.54,0.01c6.26,32.47,8.5,40.61,15.1,72.37l336.9,0.01v-331.43
				L9945.37,3134.68"/>
		</g>
		<g id="g74" transform="scale(3.81576)">
			<path id="path76" d="M9945.37,3134.68v206.81c58.9,11.96,130.19,20.79,199.43,23.58v720.96c-69.31,1.97-140.53,9.71-199.43,18.24
				v213.32l1135.39,0.01v-323.65l-331.05,0.01c-7.75,29.77-10.14,40.98-15.17,65.78l-163.38,0.02v-209.15l138.15,0.01
				c-0.07-0.33,0.27,0.94,0.2,0.61c-0.2-0.79,0.27,1.39,0.14,0.59c5.17,21.84,6.12,25.54,15.24,47.29l281.13,0.01V3578l-281.13,0.01
				c-8.03,16.72-9.73,23.27-13.47,37.83c-0.61,2.22-1.36,5.11-2.11,7.85l-138.15,0.01v-229.98l164.54,0.01
				c3.81,19.63,6.12,30.4,8.84,42.83c1.7,8.14,3.67,16.99,6.26,29.53l336.9,0.01v-331.43H9945.37h1142.33v331.43l-336.9-0.01
				c-2.58-12.54-4.56-21.4-6.26-29.53c-2.72-12.43-5.03-23.2-8.84-42.83l-164.54-0.01v229.98l138.15-0.01
				c0.75-2.74,1.5-5.63,2.11-7.85c3.74-14.56,5.44-21.11,13.47-37.83L11006,3578v321.09l-281.13-0.01
				c-9.12-21.75-10.07-25.45-15.24-47.29c0.14,0.8-0.34-1.37-0.14-0.59c0.07,0.33-0.27-0.93-0.2-0.61l-138.15-0.01v209.15
				l163.38-0.02c5.03-24.81,7.41-36.02,15.17-65.78l331.05-0.01v323.65l-1135.39-0.01v-213.32c58.9-8.52,130.12-16.26,199.43-18.24
				v-720.96c-69.24-2.79-140.53-11.61-199.43-23.58V3134.68z"/>
		</g>
		<g id="g78" transform="scale(4.30562)">
			<path id="path80" class="st0" d="M10523.82,3597.84c-5.1,0-21.29,0-39.11-2.44v-284.48c16.46-3.39,24.69-3.39,31.56-3.39
				c102.98,0,195.62,52.5,195.62,151.32C10711.9,3532.95,10662.11,3597.84,10523.82,3597.84 M10542.73,3099.59
				c-8.3,0-31.56,0-58.02,0.95v-117.97c61.76-2.82,123.86-10.64,178.08-21.24v-183.29l-731.55,0.01v183.28
				c53.53,10.6,115.7,18.42,175.7,21.24v638.92c-59.99,1.41-122.16,8.27-175.7,15.82v189.05l173.31,0.01
				c65.16-0.01,267.32,6.86,416.55,6.86c367.92,0,566.54-121.42,566.54-350.7C11087.64,3280.02,10911.26,3099.59,10542.73,3099.59
				L10542.73,3099.59z"/>
		</g>
		<g id="g82" transform="scale(4.30562)">
			<path id="path84" d="M10523.82,3597.84c-5.1,0-21.29,0-39.11-2.44v-284.48c16.46-3.39,24.69-3.39,31.56-3.39
				c102.98,0,195.62,52.5,195.62,151.32C10711.9,3532.96,10662.11,3597.84,10523.82,3597.84c138.28,0,188.08-64.88,188.08-138.99
				c0-98.83-92.64-151.32-195.62-151.32c-6.87,0-15.1,0-31.56,3.39v284.48C10502.53,3597.84,10518.72,3597.84,10523.82,3597.84z
				 M10542.73,3099.59c-8.3,0-31.56,0-58.02,0.95v-117.97c61.76-2.82,123.86-10.64,178.08-21.24v-183.29l-731.55,0.01v183.28
				c53.53,10.6,115.7,18.42,175.7,21.24v638.92c-59.99,1.41-122.16,8.27-175.7,15.82v189.05l173.31,0.01
				c25.98,0,73.67,1.08,131.21,2.39c86.72,1.98,195.56,4.46,285.34,4.46c367.92,0,566.54-121.42,566.54-350.7
				C11087.64,3280.02,10911.26,3099.59,10542.73,3099.59 M10542.73,3099.59c368.53,0,544.91,180.43,544.91,382.93
				c0,229.29-198.62,350.7-566.54,350.7c-89.79,0-198.62-2.48-285.34-4.46c-57.54-1.31-105.23-2.39-131.21-2.39l-173.31-0.01
				v-189.05c53.53-7.55,115.7-14.41,175.7-15.82v-638.92c-59.99-2.82-122.16-10.64-175.7-21.24v-183.28l731.55-0.01v183.29
				c-54.21,10.6-116.31,18.42-178.08,21.24v117.97C10511.17,3099.59,10534.43,3099.59,10542.73,3099.59L10542.73,3099.59z"/>
		</g>
		<g id="g86" transform="scale(4.846)">
			<path id="path88" class="st0" d="M10491.2,3182.93c-115.84,0-235.35-67.69-235.35-244.22c0-159.16,67.41-255.47,228.61-255.47
				c105.57,0,245.48,54.54,245.48,252.72C10729.95,3099.42,10652.2,3182.93,10491.2,3182.93 M10468.07,2449.3
				c-382,0-570.14,175.95-570.14,470.51c0,299.7,277.45,498.22,620.14,498.22c316.77,0,569.53-131.14,569.53-468.31
				C11087.59,2646.02,10815.04,2449.3,10468.07,2449.3z"/>
		</g>
		<g id="g90" transform="scale(4.846)">
			<path id="path92" d="M10491.2,3182.93c-115.84,0-235.35-67.69-235.35-244.22c0-159.16,67.41-255.47,228.61-255.47
				c105.57,0,245.48,54.54,245.48,252.72C10729.95,3099.42,10652.2,3182.93,10491.2,3182.93c161,0,238.75-83.51,238.75-246.97
				c0-198.18-139.92-252.72-245.48-252.72c-161.21,0-228.61,96.31-228.61,255.47C10255.85,3115.24,10375.36,3182.93,10491.2,3182.93
				z M10468.07,2449.3c-382,0-570.14,175.95-570.14,470.51c0,299.7,277.45,498.22,620.14,498.22
				c316.77,0,569.53-131.14,569.53-468.31C11087.59,2646.02,10815.04,2449.3,10468.07,2449.3 M10468.07,2449.3
				c346.97,0,619.52,196.71,619.52,500.41c0,337.17-252.76,468.31-569.53,468.31c-342.68,0-620.14-198.52-620.14-498.22
				C9897.93,2625.25,10086.07,2449.3,10468.07,2449.3z"/>
		</g>
		<g id="g94" transform="scale(5.32723)">
			<path id="path96" class="st0" d="M10853.78,2811.89c-5.65,27.21-12.24,56.03-15.3,86.56l-85.98,0.01v-488.14
				c49.38-2,99.85-8.32,142.3-16.88v-148.42l-590.21,0.01v148.41c42.72,8.56,94,14.88,143.66,16.88v488.13l-87.13,0.01
				c-2.18-30.54-9.66-59.36-15.51-86.57l-233.51,0.01v280.67l975.47,0.01v-280.68H10853.78"/>
		</g>
		<g id="g98" transform="scale(5.32723)">
			<path id="path100" d="M10853.78,2811.89l-0.07,0.05c-0.75,3.8-1.63,7.92-2.45,11.79c-0.75,3.69-1.77,8.43-2.52,12.19
				c-4.15,20.01-8.09,40.83-10.27,62.52l-85.98,0.01v-488.14c49.38-2,99.85-8.32,142.3-16.88v-148.42l-590.21,0.01v148.41
				c42.72,8.56,94,14.88,143.66,16.88v488.13l-87.13,0.01c-1.77-24.72-7.01-48.31-12.04-70.83c-1.16-5.27-2.38-10.58-3.47-15.74
				l-233.51,0.01v280.67l975.47,0.01v-280.68H10853.78h233.79v280.68l-975.47-0.01V2811.9l233.51-0.01
				c1.09,5.16,2.31,10.47,3.47,15.74c5.03,22.52,10.27,46.11,12.04,70.83l87.13-0.01v-488.13c-49.65-2-100.94-8.32-143.66-16.88
				v-148.41l590.21-0.01v148.42c-42.44,8.56-92.92,14.88-142.3,16.88v488.14l85.98-0.01c2.18-21.7,6.12-42.51,10.27-62.52
				c0.75-3.76,1.77-8.5,2.52-12.19c0.82-3.86,1.7-7.99,2.45-11.79L10853.78,2811.89z"/>
		</g>
	</g>
</g>
</svg>
