<?xml version="1.0" encoding="UTF-8"?>
<svg id="Layer_2" data-name="Layer 2" xmlns="http://www.w3.org/2000/svg" width="1991" height="1990.92" viewBox="0 0 1991 1990.92">
  <defs>
    <style>
      .cls-1 {
        fill: none;
      }

      .cls-1, .cls-2, .cls-3 {
        stroke-width: 0px;
      }

      .cls-2 {
        fill: #fff;
      }

      .cls-3 {
        fill: #f96302;
      }
    </style>
  </defs>
  <g id="Layer_1-2" data-name="Layer 1">
    <rect class="cls-2" width="1991" height="1990.92"/>
    <rect class="cls-3" x="38.26" y="38.34" width="1914.44" height="1914.33"/>
    <path class="cls-2" d="m462.92,1553.75l-49.58,49.58-32.76-32.72,49.65-49.63-128.41-128.31c-20.84-20.88-23.67-24.86-49.67-11.32-9.55,5.04-19.8,5.04-27.6-2.93-16.44-16.36,1.1-35.99,3.33-38.3l159.62-159.62c2.25-2.23,22.02-19.69,38.32-3.39,7.97,7.97,7.97,18.11,2.89,27.66-13.55,26.02-9.55,28.77,11.39,49.69l296.15,296.13c20.84,21,23.69,25.02,49.69,11.36,9.62-5.02,19.69-5,27.66,2.89,16.26,16.4-1.08,36.07-3.33,38.43l-159.6,159.51c-2.35,2.27-22.04,19.73-38.41,3.44-7.91-8.01-7.99-18.13-2.89-27.67,13.61-26.04,9.62-28.81-11.22-49.69l-135.22-135.12Zm-424.67-24.04l136.14-136.03c2.23-2.19,21.9-19.73,38.3-3.41,7.85,7.95,7.97,18.07,2.87,27.69-13.63,26.02-9.62,28.83,11.3,49.79l296.15,296.03c20.94,21.07,23.75,24.98,49.69,11.41,9.62-5.08,19.75-5.08,27.75,2.83,16.28,16.4-1.17,36.18-3.39,38.41l-136.37,136.26h-64.99c.19-.31.33-.69.5-.98,13.47-25.94,9.58-28.85-11.28-49.69l-296.21-296.15c-20.96-20.96-23.77-24.94-49.6-11.39-.44.15-.52.19-.85.35v-65.11Z"/>
    <path class="cls-2" d="m614.84,1001.76c-16.94,36.07-2.27,55.31,11.97,69.44l292.72,292.78c14.11,14.11,33.33,28.77,69.48,11.91l32.72,32.79c-130.29,108.79-282.68,68.01-395.28-44.46-112.39-112.49-153.23-264.95-44.34-395.22l32.72,32.77Zm399.57,348.77c16.88-36.07,2.16-55.39-12.05-69.44l-292.74-292.78c-14.11-14.11-33.37-28.83-69.34-11.89l-32.83-32.79c130.27-108.78,282.72-68.05,395.26,44.42,112.45,112.51,153.29,264.91,44.44,395.28l-32.74-32.81Z"/>
    <path class="cls-2" d="m1637.51,740.95c-7.89-7.89-18.01-7.97-27.66-2.81-25.96,13.47-28.73,9.53-49.69-11.41l-296.13-296.13c-21-20.86-24.94-23.69-11.41-49.73,4.98-9.55,4.98-19.71-2.91-27.62-16.28-16.36-36.05,1.08-38.2,3.31l-149,148.9,121.57,225.4-1.14,1.08-233.74-113.14-143.19,143.22c-6.79,6.72-23.73,23.63-6.18,41.15,13.55,13.64,29.98-.48,37.2-6.72,10.24-8.97,19.3-4.47,32.74-1.04,11.91,2.79,23.17,8.47,34.45,14.2l467.66,231.93,16.3-16.32-228.67-422.78,262.43,262.49c20.9,20.92,24.92,23.75,11.37,49.69-5.16,9.64-5.08,19.78,2.89,27.64,16.3,16.38,36.07-1.06,38.32-3.35l159.66-159.58c2.37-2.33,19.71-22.04,3.35-38.39"/>
    <path class="cls-2" d="m1195.71,1039.08l-97.15-97.21-124.79-61.7-1.06,1.17,190.32,190.45c61.6,79.64,3.52,93.76,27.85,118.01,17.55,17.57,39.49-6.7,45.71-12.99l64.26-64.18c6.2-6.24,30.37-28.16,12.84-45.69-24.25-24.31-38.3,33.76-117.99-27.85"/>
    <path class="cls-2" d="m1273.98,294.09l148.73-148.86,422.84,422.63-148.88,148.92c-2.25,2.27-22.02,19.76-38.41,3.39-7.89-7.91-7.89-18.11-2.81-27.67,13.49-26.02,9.55-28.83-11.37-49.77l-296.17-296.13c-20.92-20.86-23.75-24.85-49.69-11.3-9.62,5.08-19.86,5.08-27.62-2.83-16.36-16.36,1.12-36.14,3.37-38.38m344.28-255.79l70.4,70.44c2.87,2.81,13.09,14.2-3.89,31.06-9.62,9.6-18.07,6.81-29.37,1.17-60.41-31.24-116.9-30.06-174.44,11.64l-32.81-32.74,81.62-81.56h88.49Zm334.43,422.17l-81.79,82.06-32.7-32.74c40.03-51.33,43.84-117.4,13.97-177.81-4.6-12.47-10.32-24.92-.12-34.97,18.03-18.07,33.33.58,35.49,2.89l65.15,65.15v95.42Zm-315.68-151.92c17.44-29.83,6.08-62.61-10.39-89.26-6.64-12.26-12.32-24.83-.48-36.62,17.46-17.42,35.05,5.68,39.53,10.2l122,122.06c4.62,4.48,27.75,22.07,10.26,39.51-11.87,11.89-24.23,6.1-36.72-.62-26.58-16.36-59.31-27.62-89.24-10.26l-34.97-35.01Z"/>
    <path class="cls-2" d="m888.95,1630.82c53.33-54.6,135.91-62.18,221.75,15.99,78.1,71.13,68.67,169.05,15.88,221.75l-18.36-18.42c16.78-22-.31-41.05-12.45-53.1l-135.35-135.39c-12.07-12.03-31.1-29.16-53.06-12.34l-18.42-18.48Z"/>
    <path class="cls-2" d="m1005.28,1952.67c1-2.21,2.31-4.58,3.41-6.93,4.14-7.93-5.08-15.9-9.83-20.65l-166.51-166.51c-4.81-4.73-12.7-13.93-20.65-9.82-8.51,4.16-15.49,9.2-23.48,1.31-8.31-8.29-1.33-17.17,5.08-23.52l81.37-81.33,237.6,237.64-69.71,69.82h-37.28Z"/>
    <path class="cls-2" d="m1007.42,1512.43l83.85-83.91,237.72,237.72-83.89,83.89c-1.29,1.17-12.41,10.99-21.63,1.83-4.43-4.39-4.5-10.12-1.54-15.51,7.54-14.68,5.37-16.2-6.43-28.02l-166.45-166.49c-11.72-11.7-13.41-13.95-28-6.39-5.39,2.98-11.14,2.93-15.61-1.5-9.14-9.2.67-20.36,1.98-21.63m98.21-98.21l70.82-70.84,64.49,64.47c1.67,1.67,7.39,7.99-2.19,17.55-5.47,5.39-10.12,3.77-16.53.63-34.06-17.44-65.82-16.84-98.19,6.62l-18.4-18.42Zm219.24,219.26c22.48-28.91,24.73-66.09,7.93-100.19-2.52-6.91-5.79-13.86-.06-19.59,10.24-10.2,18.8.29,20,1.58l63.59,63.55-73.02,73.02-18.44-18.38Zm-113.2-113.14c9.91-16.84,3.56-35.22-5.66-50.17-3.89-6.99-7.01-14.07-.29-20.69,9.78-9.87,19.61,3.23,22.25,5.7l68.61,68.69c2.52,2.5,15.53,12.34,5.66,22.23-6.64,6.7-13.61,3.48-20.61-.4-14.95-9.1-33.39-15.47-50.19-5.68l-19.78-19.69Z"/>
    <path class="cls-2" d="m1299.08,1220.77c30.18-30.2,51.21-44.86,74.67-51.15,37.59-9.55,67.76,2.19,94.4,28.85,26.73,26.67,38.51,56.91,28.85,94.38-6.33,23.52-20.92,44.53-51.08,74.73l-18.46-18.4c15.3-22.32,3.27-36.32-12.36-51.9l-47.94-47.98c-14.3-14.26-30.27-24.42-49.69-10.14l-18.38-18.4Zm-56.58,127.75c-11.78-11.7-13.36-13.97-28-6.33-5.31,2.87-11.14,2.79-15.53-1.65-9.26-9.18.56-20.38,1.89-21.61l83.91-83.85,202.08,202.08c11.72,11.72,13.32,14.01,27.94,6.39,5.37-2.91,11.1-2.91,15.63,1.5,9.2,9.24-.67,20.38-1.96,21.63l-89.86,89.97c-1.29,1.29-9.91,8.62-19.11-.56-4.48-4.54-5.27-9.51-2.46-14.9,7.7-14.59,3.64-14.43-8.08-26.21l-166.47-166.47Z"/>
    <path class="cls-2" d="m1500.49,1046.73c-9.55,20.32-1.33,31.06,6.68,39.05l164.59,164.55c7.97,7.99,18.78,16.26,39.11,6.7l18.38,18.44c-73.36,61.32-159.22,38.47-222.38-24.77-63.32-63.24-86.18-149.06-24.83-222.48l18.44,18.51Zm224.69,196c9.47-20.32,1.14-31.12-6.74-39.09l-164.59-164.57c-7.97-7.95-18.67-16.19-39.05-6.68l-18.44-18.4c73.44-61.37,159.18-38.47,222.36,24.75,63.3,63.24,86.26,148.98,24.83,222.44l-18.36-18.44Z"/>
    <path class="cls-2" d="m1952.68,1042.41l-76.19,76.29c-1.25,1.27-12.41,11.12-21.63,1.89-4.45-4.41-4.45-10.14-1.64-15.53,7.72-14.63,5.39-16.2-6.24-27.94l-202.17-202.1,77.87-77.87,202.06,202.1c11.74,11.74,13.32,13.88,27.94,6.26v36.89Zm-95.9-231.33c1.35,1.33,8.22,10.22-1.29,19.69-8.95,8.89-18.8,2.29-26.64-3.83-19.75-13.91-45.17-30.39-73.46-25.63l-18.42-18.42,45.73-45.79,74.08,73.98Zm-271.96,123.98l45.8-45.73,18.4,18.38c-4.75,28.29,11.64,53.68,25.71,73.42,6.1,7.95,12.66,17.78,3.75,26.67-9.47,9.53-18.36,2.58-19.61,1.29l-74.04-74.02Z"/>
    <path class="cls-2" d="m267.69,763.18l73.21-73.17,189.93,189.95c10.95,11.05,12.53,13.14,26.27,6,5.06-2.75,10.45-2.75,14.63,1.46,8.64,8.66-.6,19.13-1.77,20.3l-84.6,84.54c-1.14,1.23-11.62,10.45-20.25,1.81-4.18-4.14-4.18-9.58-1.5-14.68,7.22-13.7,5.08-15.22-5.93-26.29l-189.99-189.91Zm199.23-60.03c1.17,1.14,7.72,9.55-1.23,18.53-8.33,8.35-17.63,2.1-25.08-3.56-18.55-13.18-42.38-28.73-68.98-24.23l-17.28-17.32,42.94-42.96,69.63,69.55Zm-255.66,116.49l42.94-43.05,17.38,17.34c-4.48,26.58,10.95,50.46,24.19,69.01,5.72,7.47,11.95,16.72,3.58,25.08-8.99,8.97-17.32,2.41-18.57,1.19l-69.53-69.57Z"/>
    <path class="cls-2" d="m686.13,724.67c11.03,11.03,12.53,13.13,26.27,5.97,5.06-2.71,10.45-2.71,14.61,1.46,8.72,8.68-.58,19.15-1.85,20.32l-84.47,84.49c-1.19,1.25-11.66,10.47-20.3,1.83-4.14-4.18-4.14-9.55-1.48-14.67,7.12-13.7,5.06-15.2-6-26.29l-156.45-156.46c-11.07-11.05-12.53-13.13-26.33-5.97-4.98,2.69-10.47,2.69-14.65-1.52-8.64-8.64.69-19.11,1.83-20.25l84.53-84.55c1.23-1.21,11.62-10.47,20.34-1.79,4.18,4.16,4.18,9.55,1.39,14.63-7.14,13.76-5.06,15.2,6.12,26.31l156.43,156.5Zm-31.66-111.1l-26.35,26.25-17.28-17.32,26.27-26.29-67.82-67.82c-10.95-11.01-12.53-13.11-26.27-5.93-5.06,2.71-10.45,2.71-14.59-1.52-8.66-8.66.56-19.09,1.75-20.3l84.56-84.49c1.19-1.21,11.66-10.47,20.3-1.79,4.16,4.18,4.16,9.51,1.52,14.57-7.16,13.8-5.1,15.28,5.95,26.35l156.52,156.45c11.01,11.05,12.47,13.13,26.27,5.97,5.06-2.64,10.39-2.64,14.63,1.5,8.64,8.66-.67,19.11-1.81,20.25l-84.51,84.58c-1.17,1.19-11.72,10.41-20.27,1.77-4.23-4.14-4.23-9.53-1.5-14.61,7.16-13.72,5.08-15.2-5.95-26.27l-71.4-71.36Z"/>
    <path class="cls-2" d="m658.62,372.24l78.85-78.83,223.44,223.38-78.85,78.83c-1.25,1.23-11.72,10.47-20.36,1.83-4.14-4.23-4.14-9.55-1.5-14.65,7.12-13.76,5.14-15.26-5.97-26.31l-156.47-156.45c-11.05-11.05-12.55-13.18-26.31-5.97-5.1,2.64-10.41,2.64-14.57-1.5-8.74-8.64.6-19.11,1.75-20.32m92.32-92.28l66.57-66.61,60.66,60.64c1.48,1.5,6.79,7.47-2.1,16.45-5.08,5.08-9.58,3.58-15.55.58-31.97-16.46-61.8-15.88-92.22,6.29l-17.36-17.34Zm206.08,206.08c21.19-27.19,23.25-62.14,7.45-94.07-2.41-6.56-5.39-13.18,0-18.53,9.55-9.55,17.55.25,18.8,1.48l59.76,59.74-68.67,68.69-17.34-17.32Zm-106.37-106.33c9.22-15.82,3.31-33.2-5.39-47.19-3.58-6.56-6.49-13.13-.25-19.4,9.22-9.26,18.53,3,20.86,5.39l64.53,64.49c2.41,2.42,14.63,11.64,5.39,20.9-6.29,6.26-12.86,3.27-19.42-.29-14.05-8.66-31.41-14.63-47.21-5.41l-18.51-18.48Z"/>
    <rect class="cls-1" width="1991" height="1990.92"/>
  </g>
</svg>