<svg width="1087.83" height="291.38" viewBox="0 0 1087.83 291.38" xml:space="preserve" xmlns="http://www.w3.org/2000/svg" xmlns:svg="http://www.w3.org/2000/svg">
  <path d="M765.478 202.704c0-40.9 30.13-72.983 70.74-76.008a87 87 0 0 0-6.312-.239c-43.755 0-77.039 33.261-77.039 76.236s33.284 76.266 77.04 76.266c2.122 0 4.226-.087 6.31-.24-40.6-3.025-70.739-35.126-70.739-76.026ZM249.802 77.738V69.2c-13.023-.919-26.658-5.015-38.649-12.912 11.035 11.371 24.784 18.291 38.649 21.45M131.465 0v190.863c0 25.01-17.985 41.09-39.854 41.09-7.257 0-14.141-1.693-20.127-4.824 7.602 9.696 19.592 15.267 32.749 15.267 21.868 0 39.854-16.08 39.854-41.11V10.423h34.661A92 92 0 0 1 176.434 0h-44.96Zm-28.437 110.961v-9.456c-4.379-.728-8.758-.967-12.382-.967C41.307 100.538 0 140.107 0 189.169c0 32.208 15.69 59.744 39.528 76.045-16.608-16.472-26.906-39.52-26.906-65.621 0-48.987 41.182-88.527 90.416-88.632Z" fill="#2dccd3"/>
  <path d="M855.133 126.466c-2.123 0-4.227.086-6.31.24 40.58 3.023 70.709 35.126 70.709 76.006 0 40.878-30.13 73-70.71 76.025 2.084.153 4.188.239 6.311.239 43.736 0 77.02-33.28 77.02-76.264 0-42.986-33.284-76.237-77.02-76.237ZM211.146 56.298c-10.66-10.96-18.798-26.054-22.107-45.876h-10.298c5.881 21.42 17.987 36.371 32.405 45.876m38.649 57.581c-20.022 0-38.974-3.819-55.67-15.056 19.44 19.43 43.03 25.499 68.291 25.499v-44.69a78.4 78.4 0 0 1-12.621-1.885ZM71.477 227.13c-5.364-6.778-8.567-15.545-8.567-25.844 0-28.886 22.595-44.152 52.724-40.985v-48.383c-4.38-.727-8.76-.967-12.402-.967h-.21v38.899c-30.13-3.15-52.724 12.097-52.724 41.004 0 16.902 8.644 29.719 21.18 36.265Zm110.027-39.416c0 60.95-46.651 93.244-90.626 93.244-19.037 0-36.717-5.743-51.356-15.745 16.437 16.3 39.06 26.168 63.978 26.168 43.974 0 90.626-32.294 90.626-93.244V98.823c-4.379-2.957-8.586-6.412-12.622-10.442Z" fill="#f1204a"/>
  <path d="M662.713 142.852h-53.947l-40.84 44.067V81.528H522.49v194.26h45.438v-35.94l17.985-18.942 27.462 54.634h52.973l-46.901-86.21 43.277-46.498Zm-366.188-18.53h47.149v151.477h48.355V124.322h31.764l16.647-42.785H296.534v42.785Zm154.853 151.477h45.438V142.852h-45.438Zm22.595-196.693c-14.821 0-25.272 10.203-25.272 24.283s10.45 24.283 25.272 24.283c14.82 0 25.271-10.443 25.271-24.283s-10.45-24.283-25.271-24.283M1040.92 189.35l43.276-46.499h-53.947L989.41 186.92V81.528h-45.437v194.26h45.438v-35.94l17.984-18.942 27.462 54.634h52.973l-46.901-86.21ZM791.711 81.537H641.782v42.785h47.14v151.477h48.353V124.322h37.78Zm57.113 45.158a86 86 0 0 0-6.31-.239c-2.124 0-4.227.086-6.312.24-40.599 3.024-70.739 35.107-70.739 76.005 0 40.9 30.13 73.002 70.74 76.026 2.084.153 4.187.24 6.31.24a86 86 0 0 0 6.31-.24c40.58-3.024 70.71-35.146 70.71-76.026s-30.13-72.981-70.71-76.006m0 110.196c-2.018.364-4.122.535-6.31.535-2.191 0-4.294-.171-6.312-.535-15.969-2.767-26.505-16.08-26.505-34.19 0-18.108 10.536-31.412 26.505-34.188 2.018-.364 4.12-.537 6.311-.537s4.293.173 6.31.537c15.95 2.765 26.487 16.08 26.487 34.188 0 18.11-10.538 31.414-26.486 34.19M178.744 10.42H144.08v190.864c0 25.03-17.985 41.11-39.853 41.11-13.157 0-25.148-5.58-32.75-15.267-12.535-6.537-21.179-19.363-21.179-36.266 0-28.905 22.595-44.153 52.724-41.004V110.96c-49.233.105-90.416 39.654-90.416 88.631 0 26.101 10.298 49.15 26.907 65.622 14.639 9.992 32.319 15.744 51.356 15.744 43.975 0 90.627-32.294 90.627-93.244V88.381c4.035 4.03 8.242 7.485 12.62 10.442 16.696 11.237 35.648 15.056 55.67 15.056V77.747c-13.865-3.149-27.624-10.079-38.649-21.45-14.42-9.504-26.524-24.445-32.405-45.875Z"/>
</svg>
