<?xml version="1.0" encoding="UTF-8" standalone="no"?>
<!-- Generator: Adobe Illustrator 13.0.0, SVG Export Plug-In . SVG Version: 6.00 Build 14948)  -->

<svg
   xmlns:dc="http://purl.org/dc/elements/1.1/"
   xmlns:cc="http://creativecommons.org/ns#"
   xmlns:rdf="http://www.w3.org/1999/02/22-rdf-syntax-ns#"
   xmlns:svg="http://www.w3.org/2000/svg"
   xmlns="http://www.w3.org/2000/svg"
   xmlns:sodipodi="http://sodipodi.sourceforge.net/DTD/sodipodi-0.dtd"
   xmlns:inkscape="http://www.inkscape.org/namespaces/inkscape"
   version="1.1"
   id="Layer_1"
   x="0px"
   y="0px"
   width="971.841"
   height="244.588"
   viewBox="0 0 971.841 244.58799"
   enable-background="new 0 0 296.5 82"
   xml:space="preserve"
   sodipodi:docname="Toys R Us.svg"
   inkscape:version="0.91 r13725"><metadata
     id="metadata45117"><rdf:RDF><cc:Work
         rdf:about=""><dc:format>image/svg+xml</dc:format><dc:type
           rdf:resource="http://purl.org/dc/dcmitype/StillImage" /><dc:title></dc:title></cc:Work></rdf:RDF></metadata><defs
     id="defs45115" /><sodipodi:namedview
     pagecolor="#ffffff"
     bordercolor="#666666"
     borderopacity="1"
     objecttolerance="10"
     gridtolerance="10"
     guidetolerance="10"
     inkscape:pageopacity="0"
     inkscape:pageshadow="2"
     inkscape:window-width="1680"
     inkscape:window-height="931"
     id="namedview45113"
     showgrid="false"
     inkscape:zoom="0.67729621"
     inkscape:cx="337.45038"
     inkscape:cy="10.485181"
     inkscape:window-x="0"
     inkscape:window-y="1"
     inkscape:window-maximized="1"
     inkscape:current-layer="Layer_1" /><polyline
     points="171.095,22.611 171.095,22.611 171.09,22.611 171.095,22.611 "
     id="polyline45088"
     transform="matrix(3.4460656,0,0,3.4460656,-29.396508,-19.909323)"
     style="fill:#ffffff" /><path
     d="M 684.76612,25.340968 C 630.36653,-1.7382222 576.63547,-4.6156822 543.20519,5.0608678 481.41723,22.990748 462.26055,98.811096 519.5066,135.95968 c 3.46329,2.24684 1.28883,6.97829 -3.05666,14.54585 -5.36208,9.39052 -15.32121,27.88901 -32.88925,41.22183 -10.59666,8.0569 -17.46466,11.38236 -8.75646,21.31392 0,0 19.36,20.91073 33.65083,27.00682 17.24067,7.27809 21.55515,6.06852 34.38829,-5.54128 8.06035,-7.29187 24.05354,-27.24459 43.34806,-58.98286 10.00393,-16.50665 23.39534,-16.82369 21.56893,10.33475 0,0 -2.63624,26.13841 -3.35647,31.54184 -2.15724,15.57967 -0.479,20.98654 13.96001,21.12094 0,0 31.0525,-1.67479 41.82145,-3.12903 15.15925,-1.99182 14.33564,-4.35927 18.30551,-15.90704 21.21053,-61.62254 23.00938,-167.416772 23.00938,-167.416772 0.89597,-14.15988 -3.74588,-20.24219 -16.7341,-26.72768 m -39.7228,57.053058 c 0,0 -19.26006,12.76079 -19.74251,13.09161 -1.63343,1.24403 -3.88027,2.69483 -4.18008,8.597944 -0.11716,2.45704 -0.8684,19.8769 -0.9132,22.03414 -0.0448,2.4088 -1.12342,8.97355 -8.97356,2.2744 0,0 -13.12262,-11.09977 -15.06964,-12.76078 -0.43421,-0.35839 -4.94511,-5.27248 -11.9544,-2.35366 l -20.54889,7.9225 c 0,0 -12.37483,4.86929 -7.76054,-5.85486 4.4661,-10.42435 7.46073,-19.111884 8.4463,-21.899754 1.02004,-2.90503 0.6582,-7.0093 -1.8402,-9.88677 -1.15443,-1.28883 -11.00673,-13.870408 -13.27424,-16.985658 0,0 -8.1017,-9.31816 5.40688,-8.68753 0,0 23.06796,0.49279 23.42635,0.53759 0.38941,0.031 4.70388,0.31359 7.79155,-4.37306 3.80446,-5.76527 14.94904,-19.27729 12.62639,-16.41706 1.94703,-2.35021 6.47171,-8.25332 9.46634,1.51283 0,0 4.23866,12.88139 6.24772,18.27448 1.37843,3.65628 2.24683,6.15467 9.10795,8.26711 l 21.1933,7.398708 c 0.007,0.007 9.90744,2.95672 0.54448,9.30782"
     id="path45090"
     inkscape:connector-curvature="0"
     style="fill:#0862ad;stroke-width:3.44606566" /><path
     d="m 238.17326,107.37801 c -9.87987,-15.831224 -25.7111,-26.017804 -44.57831,-28.592014 -24.09144,-3.28066 -47.40752,6.24772 -60.84373,24.773774 -9.86264,13.66021 -13.03991,30.07726 -8.91153,46.28411 9.92467,39.04737 49.65092,49.93694 74.51428,42.8346 28.05442,-8.02589 43.74436,-23.89158 48.00714,-48.41033 2.04352,-11.83035 -0.93733,-25.25277 -8.18785,-36.89014 m -68.31825,52.75582 c -7.85703,-2.53285 -13.69811,-14.61821 -10.85856,-27.74082 2.82233,-13.13985 12.37827,-22.24436 21.25534,-19.5323 7.88459,2.43981 13.68088,15.27985 10.94126,28.43004 -2.93605,13.99102 -12.33347,21.76535 -21.33804,18.84308"
     id="path45092"
     inkscape:connector-curvature="0"
     style="fill:#f48120;stroke-width:3.44606566" /><path
     d="m 740.17196,77.497166 c -2.2744,3.37025 -20.22151,29.656854 -22.46834,70.086094 -0.97524,17.97468 7.20572,33.81969 21.91008,42.43141 16.31023,9.55594 37.4932,8.77713 56.63609,-2.17102 41.11846,-23.50217 45.73274,-82.68145 44.57831,-109.388474 -0.25501,-6.185688 -4.01467,-9.886768 -10.32097,-10.155558 -2.4088,-0.12061 -7.6227,0.062 -13.50858,0.55482 -5.97548,0.49278 -9.55594,4.524678 -9.83852,11.054978 l -0.062,1.73681 c -0.2688,24.804794 -2.00906,46.838944 -13.18121,60.378534 -7.3091,8.94598 -16.04143,12.50922 -21.79291,10.18657 -5.13809,-2.03663 -8.43253,-8.68753 -7.62615,-15.50385 1.96081,-16.95464 9.38019,-30.28747 13.96346,-38.809594 l 1.96081,-3.69763 c 2.80165,-5.7377 1.39221,-11.84758 -3.31167,-14.20125 -2.72584,-1.37842 -8.67375,-3.50464 -13.929,-5.3793 l -6.33731,-2.277848 c -4.50745,-1.70581 -11.15836,-3.03943 -16.67207,5.155308"
     id="path45094"
     inkscape:connector-curvature="0"
     style="fill:#73bd45;stroke-width:3.44606566" /><path
     d="m 884.2692,60.211698 c -17.85751,9.22857 -27.02405,21.823938 -28.90905,39.646998 -2.56387,24.043204 31.30406,40.801424 39.36097,45.026294 9.70756,5.10363 10.06595,11.00674 7.55033,14.51483 -3.96987,5.48269 -14.96627,3.93886 -23.06797,0.77881 -8.89429,-3.39782 -13.42242,-7.51931 -20.74531,-15.74162 -4.30069,-4.82105 -17.36128,8.98733 -19.39791,18.61909 -0.94077,4.40062 0.8374,6.48549 3.61148,10.4209 7.11268,10.06596 30.00145,27.96482 63.17672,30.37707 9.15275,0.67198 32.96851,1.19923 49.04096,-13.25702 6.49928,-5.81351 13.58439,-15.48661 16.04144,-27.00681 1.67479,-7.98454 1.55762,-18.40888 -4.88308,-27.92347 -9.03214,-13.37418 -24.08455,-22.22713 -40.80486,-29.83604 -24.38436,-11.099784 -19.68048,-17.661084 -14.22881,-20.683294 5.12086,-2.87402 22.46835,-0.85463 36.06997,11.62359 6.88869,6.320084 21.17952,-13.30183 15.24884,-19.9803 C 940.61582,52.451158 903.73947,50.159528 884.2692,60.211698"
     id="path45096"
     inkscape:connector-curvature="0"
     style="fill:#ea1a5b;stroke-width:3.44606566" /><path
     d="m 382.99415,61.903718 c -13.59128,42.524462 -71.58166,139.751762 -94.22231,149.066472 -3.20484,1.31985 -3.84926,1.69202 -7.17471,1.24059 -12.02677,-1.67479 -27.01371,-16.71687 -31.82786,-22.27192 -2.15035,-2.45705 -6.77841,-8.11549 -3.05666,-11.11701 14.1461,-11.27553 31.71069,-28.48863 32.54809,-38.58215 0.18609,-2.20204 -0.50313,-4.52469 -1.31984,-5.61709 -1.3164,-1.75405 -38.06869,-50.181624 -41.76632,-55.333484 -6.25461,-8.852948 -6.22359,-10.934368 0.70989,-14.304618 6.92659,-3.40127 17.96089,-8.01211 25.69042,-11.01018 7.74331,-2.94984 8.92531,-0.86841 11.10667,1.57485 l 32.94439,41.428608 c 2.37434,1.61965 4.52468,1.16821 6.2546,-0.86841 4.20765,-4.95889 21.99623,-37.072778 24.78754,-42.135048 3.28066,-5.61709 8.69442,-4.07325 14.13921,-4.10427 5.7825,-0.0448 14.72504,0.031 24.088,0.479 9.00112,0.46867 9.82473,3.00153 7.09889,11.55466"
     id="path45098"
     inkscape:connector-curvature="0"
     style="fill:#73bd45;stroke-width:3.44606566" /><path
     d="m 399.47668,72.014478 c -14.82842,9.228558 -21.88251,20.821138 -22.22023,36.428372 -0.479,21.07614 28.72641,35.03615 36.05963,38.19274 8.79781,3.79068 10.04184,8.31536 8.46354,11.71318 -2.29852,5.06227 -7.53999,5.98926 -13.69811,4.74868 -11.16525,-2.29163 -19.87691,-12.05778 -28.66093,-16.97187 -4.97267,-2.72584 -12.3059,6.7405 -13.37418,15.26607 -0.49623,3.86304 0.703,6.03406 3.90784,8.7599 8.22231,7.14369 25.17006,23.81576 58.78988,25.30101 7.99143,0.34461 28.76086,-1.24403 41.66983,-14.87322 5.23457,-5.52749 10.71726,-12.83659 12.00609,-23.02316 0.86841,-7.0093 -0.7478,-15.56244 -6.28218,-23.91915 -4.62807,-6.97828 -13.08471,-13.96001 -27.89935,-20.11468 -24.03286,-9.88676 -16.44118,-19.863124 -10.73794,-21.734344 4.88308,-1.6162 13.43277,-0.35839 27.65813,8.19475 7.71229,4.641854 17.92298,-13.5844 11.56155,-18.15388 -31.90368,-22.981818 -61.02638,-19.880358 -77.24357,-9.814398"
     id="path45100"
     inkscape:connector-curvature="0"
     style="fill:#ea1a5b;stroke-width:3.44606566" /><path
     d="m 11.628904,48.991308 c 52.163096,-0.40318 69.80006,-1.40944 116.856086,-9.13552 10.60699,-1.75404 11.4754,3.51844 13.20877,6.90592 1.43701,2.81544 4.20075,17.52324 4.01466,21.30013 -0.19642,3.74243 1.67824,9.225118 -4.67286,11.010178 -19.81488,5.52749 -25.0081,7.25053 -38.16518,11.14459 -6.075408,1.82641 -5.692898,4.37306 -5.520588,9.01835 0.93388,25.762794 9.511138,59.823704 15.583098,78.859774 2.56043,8.02933 3.70797,13.7498 -1.90222,15.87602 -7.795,2.86024 -29.529338,8.76335 -35.356635,9.97981 -10.090081,2.10899 -11.547766,-5.28971 -12.498881,-9.08038 -8.560027,-34.26768 -12.805579,-69.16943 -13.639527,-82.21624 -0.427312,-6.6509 -2.605226,-12.881394 -8.859835,-12.715984 -6.433805,0.120614 -13.622298,0.913214 -27.613325,1.168224 -7.481409,0.16541 -11.444384,-0.29981 -12.44029697,-6.695714 -1.006251,-6.44414 -0.72712,-35.563408 0.372175,-40.084648 C 2.103978,49.739108 7.404027,49.036108 11.628904,48.991308"
     id="path45102"
     inkscape:connector-curvature="0"
     style="fill:#ea1a5b;stroke-width:3.44606566" /></svg>