<?xml version="1.0" encoding="UTF-8" standalone="no"?>
<svg xmlns="http://www.w3.org/2000/svg" width="100" height="50" viewBox="0 0 220.81081 110.40541">
  <path fill="#e6be29" fill-rule="evenodd" d="M1.85745 2.36224v14.78813H25.5194v65.24531h17.39825V17.15037H66.5796V2.36224zm153.28096 0v80.03344h15.832556V2.36224zM82.58685 24.28381c-15.1378 0-28.53373 12.49245-28.53373 28.70749v29.40438h15.6588V52.9913c0-7.16906 6.1416-12.87493 12.87493-12.87493zm4.52332.17469 16.00725 48.3674c2.318112 6.22507 8.347739 11.01216 15.815741 11.01217 9.23565-.00001 14.192048-6.40874 15.849372-11.01217l16.006316-48.3674h-16.52853l-14.0931 42.79966s-.316716.87626-1.213512.87626c-.91241 0-1.221908-.87626-1.221908-.87626L103.523791 24.4585zM59.62086 93.53023c-3.7147 0-5.7415 2.38698-5.7415 4.698v5.04554c0 2.81771 2.07213 4.69521 5.64155 4.69521 2.88047 0 4.48566-1.76186 5.41173-3.25938l-2.17291-1.17426c-.48391.83259-1.43442 2.00009-3.13887 2.00009-2.21067 0-3.30608-1.04825-3.30608-2.43636v-4.87084c0-1.55154 1.13402-2.43635 3.13139-2.43635 1.96632 0 2.77078 1.16938 3.32009 1.9786l2.14489-1.1397c-1.14466-1.82268-2.8762-3.10055-5.29029-3.10055zm48.367389.17376v13.91934h2.436365V97.37066l6.033886 10.25267h2.665236V93.70399h-2.436355v10.47874l-6.201119-10.47874zm17.918597 0v13.91934h2.436355V97.37066l6.033896 10.25267h2.665226V93.70399h-2.43542v10.47874l-6.202055-10.47874zm36.191229 0v13.91934h9.047586v-2.26166h-6.612166V93.70399Zm-67.718085.003-5.18192 13.91841h2.61011l1.21724-3.65359h5.22022l1.391941 3.65359h2.435421L96.88641 93.70699zm-22.40641.17189v13.91841H74.409v-5.91526h6.43746v5.91526h2.43636V93.87888h-2.43636v5.91525H74.409v-5.91525zm72.030278 0v13.91841h9.568855v-2.26166h-7.133435v-3.6536h6.611231v-2.26166h-6.611231v-3.65358h7.133435v-2.08791zM95.63927 95.96865l1.87117 5.7415h-3.69657z"/>
  <path fill="#852980" d="M182.106341 79.95947V4.97176c0-1.54348.885827-2.617 2.450751-2.617.914159 0 1.492205.51557 2.072865 1.22511l31.143397 37.23289s.695933.70661.695933 1.56587c0 .83961-.695933 1.56586-.695933 1.56586l-31.317381 37.58085c-.394131.46463-.840495.93026-1.834774.93026-1.247872 0-2.514858-1.01379-2.514858-2.49613z"/>
</svg>