<svg version="1.2" xmlns="http://www.w3.org/2000/svg" viewBox="0 0 495 401" width="495" height="401"><style>.a{fill:#fff}.b{fill:#e61a2f}.c{fill:#f39800}</style><path class="a" d="m27.8 277.8c0 58 75.6 105.1 168.9 105.1 93.2 0 168.8-47.1 168.8-105.1 0-58.1-75.6-105.2-168.8-105.2-93.3 0-168.9 47.1-168.9 105.2z"/><path class="b" d="m371.7 192.7c-6.9-2.1-11.7-3.5-8-12.7 7.9-19.8 8.7-36.9 0.1-49.2-16-22.9-59.9-21.6-110.2-0.6 0 0-15.8 6.9-11.7-5.6 7.7-24.9 6.5-45.7-5.5-57.7-27.3-27.3-99.9 1-162.1 63.2-46.6 46.6-73.6 96-73.6 138.7 0 81.7 104.7 131.4 207.2 131.4 134.4 0 223.7-78.1 223.7-140.1 0-37.4-31.5-58.6-59.9-67.4zm-163.5 178.2c-81.8 8.1-152.4-28.9-157.7-82.6-5.3-53.7 56.7-103.7 138.5-111.8 81.8-8.1 152.3 28.9 157.7 82.5 5.3 53.7-56.7 103.8-138.5 111.9z"/><path class="c" d="m461 43.2c-32.5-36-80.3-49.7-124.5-40.3-10.2 2.2-16.8 12.2-14.6 22.4 2.2 10.2 12.3 16.8 22.5 14.6 31.4-6.7 65.4 3.1 88.5 28.6 23 25.6 29.3 60.4 19.4 91-3.2 9.9 2.2 20.6 12.2 23.8 9.9 3.2 20.6-2.2 23.8-12.2 13.9-43 5.1-92-27.3-127.9z"/><path class="c" d="m411.1 88.1c-15.8-17.5-39.1-24.1-60.6-19.6-8.8 1.9-14.4 10.6-12.5 19.4 1.9 8.7 10.5 14.4 19.3 12.5 10.5-2.2 21.9 1 29.6 9.5 7.8 8.6 9.9 20.3 6.5 30.5-2.7 8.6 2 17.8 10.5 20.5 8.6 2.8 17.8-1.9 20.5-10.5 6.8-20.9 2.6-44.8-13.3-62.3z"/><path  d="m216.3 217.8c-38.9-10.1-82.9 9.2-99.7 43.6-17.3 34.9-0.6 73.7 38.7 86.5 40.7 13.1 88.7-7 105.4-44.8 16.5-36.9-4.1-74.9-44.4-85.3zm-29.7 89.3c-7.9 12.6-24.8 18.2-37.6 12.3-12.5-5.7-16.3-20.3-8.3-32.7 7.8-12.2 24.1-17.7 36.8-12.4 12.8 5.5 16.9 20.1 9.1 32.8zm26.1-33.5c-2.9 5-9.2 7.3-14.1 5.2-4.9-2-6.4-7.4-3.7-12.2 2.9-4.8 9-7.1 13.8-5.2 4.9 1.8 6.7 7.3 4 12.2z"/></svg>