<?xml version="1.0" encoding="UTF-8" standalone="no"?>
<!-- Created with Inkscape (http://www.inkscape.org/) -->

<svg
   xmlns:dc="http://purl.org/dc/elements/1.1/"
   xmlns:cc="http://creativecommons.org/ns#"
   xmlns:rdf="http://www.w3.org/1999/02/22-rdf-syntax-ns#"
   xmlns:svg="http://www.w3.org/2000/svg"
   xmlns="http://www.w3.org/2000/svg"
   xmlns:sodipodi="http://sodipodi.sourceforge.net/DTD/sodipodi-0.dtd"
   xmlns:inkscape="http://www.inkscape.org/namespaces/inkscape"
   width="1000"
   height="1000"
   viewBox="0 0 100 100"
   version="1.1"
   id="svg8"
   inkscape:version="0.92.3 (2405546, 2018-03-11)"
   sodipodi:docname="A.svg">
  <defs
     id="defs2" />
  <sodipodi:namedview
     id="base"
     pagecolor="#ffffff"
     bordercolor="#666666"
     borderopacity="1.0"
     inkscape:pageopacity="0.0"
     inkscape:pageshadow="2"
     inkscape:zoom="2.4525547"
     inkscape:cx="729.94185"
     inkscape:cy="515.11657"
     inkscape:document-units="px"
     inkscape:current-layer="layer1"
     showgrid="false"
     units="px"
     fit-margin-top="0"
     fit-margin-left="0"
     fit-margin-right="0"
     fit-margin-bottom="0">
    <inkscape:grid
       type="xygrid"
       id="grid18"
       originx="0"
       originy="5.9999965" />
  </sodipodi:namedview>
  <metadata
     id="metadata5">
    <rdf:RDF>
      <cc:Work
         rdf:about="">
        <dc:format>image/svg+xml</dc:format>
        <dc:type
           rdf:resource="http://purl.org/dc/dcmitype/StillImage" />
        <dc:title></dc:title>
      </cc:Work>
    </rdf:RDF>
  </metadata>
  <g
     inkscape:label="Layer 1"
     inkscape:groupmode="layer"
     id="layer1"
     transform="translate(0,-18.251965)">
    <rect
       style="opacity:1;fill:#ca1932;fill-opacity:1;fill-rule:evenodd;stroke:none;stroke-width:0.02777778"
       id="rect42"
       width="100"
       height="100"
       x="0"
       y="18.251965" />
    <path
       style="opacity:1;fill:#ffffff;fill-opacity:1;fill-rule:evenodd;stroke:none;stroke-width:0.02777778"
       d="m 8.5000004,49.751965 v -2.022222 h 7.3888886 v 2.022222 H 13.80043 l 2.622164,9.360116 3.176116,-11.360116 h 3.324157 l 3.210897,11.497848 2.564938,-9.497848 h -2.1987 v -2 h 19.277777 v 5.200001 h -1.666667 c -0.429104,-1.551565 -0.58824,-3.200001 -2.777778,-3.200001 h -3.666666 v 4.766667 h 4.555555 c 0.404318,0.627455 0.372279,1.707667 0,2.255556 h -4.555555 v 4.877778 h 4.152116 c 1.745634,0 2.112544,-1.667703 2.51455,-3.433334 h 1.666667 v 5.477776 H 32.333334 V 61.651966 H 34.27778 V 49.751965 h -3.0956 L 27.188245,63.696408 H 24.000001 L 20.789104,52.217986 17.510252,63.696408 H 14.299356 L 10.310681,49.751965 Z"
       id="path20"
       inkscape:connector-curvature="0"
       sodipodi:nodetypes="cccccccccccccccccccccccccccccccccccccc" />
    <path
       sodipodi:nodetypes="ccccccccccccccc"
       inkscape:connector-curvature="0"
       id="path22"
       d="m 47.639797,49.751965 v -2 h 7.507235 v 2 h -2.170925 v 11.900001 h 3.36835 c 1.745633,0 2.112543,-1.667703 2.51455,-3.433334 h 1.666667 v 5.477776 H 47.642773 v -2.044442 h 1.944446 V 49.751965 Z"
       style="opacity:1;fill:#ffffff;fill-opacity:1;fill-rule:evenodd;stroke:none;stroke-width:0.02777778" />
    <path
       style="opacity:1;fill:#ffffff;fill-opacity:1;fill-rule:evenodd;stroke:none;stroke-width:0.02777778"
       d="m 61.947399,49.751965 v -2 h 7.507236 v 2 h -2.170926 v 11.900001 h 3.36835 c 1.745634,0 2.112544,-1.667703 2.51455,-3.433334 h 1.666667 v 5.477776 h -12.8829 v -2.044442 h 1.944446 V 49.751965 Z"
       id="path24"
       inkscape:connector-curvature="0"
       sodipodi:nodetypes="ccccccccccccccc" />
    <path
       style="opacity:1;fill:#ffffff;fill-opacity:1;fill-rule:evenodd;stroke:none;stroke-width:0.02777778"
       d="m 11.003038,71.807506 v 2 h 1.929471 v 11.933377 h -1.944445 v 2.011068 h 7.678603 V 85.740883 H 16.321398 V 81.14084 h 4.696831 c 0.372279,-0.547889 0.404318,-1.628188 0,-2.255643 h -4.696831 v -5.077691 h 3.946831 c 2.189538,0 2.348674,1.648522 2.777778,3.200087 h 1.666667 v -5.200087 z m 18.597874,0 -5.563151,13.933377 h -1.593316 v 2.011068 h 6.088976 v -2.011068 h -1.923395 l 1.056641,-2.80013 h 5.825304 l 1.041016,2.80013 h -1.8329 v 2.011068 H 47.000001 V 85.740883 H 44.85547 v -4.777778 h 1.366753 c 2.494555,0 3.212895,1.151146 3.385852,3.496311 0.203886,2.313954 1.01087,3.499784 3.703558,3.499784 0.778427,0 1.664063,-0.09701 1.664063,-0.09701 0.211085,-0.5038 0.358001,-1.167451 -0.01042,-1.896484 -1.78933,0.192251 -1.840226,-1.085497 -1.925347,-2.468967 -0.08562,-2.223685 -1.373782,-3.247795 -3.248264,-3.420574 2.459315,-0.04956 4.278863,-1.772965 4.278863,-3.952691 0,-2.84204 -2.449662,-4.315972 -5.292752,-4.315972 h -9.299914 v 2.055556 h 1.96658 V 85.740883 H 38.348309 L 32.632596,71.807506 Z m 15.254558,2.055556 h 2.366753 c 2.261997,0 3.348525,0.760721 3.348525,2.554904 0,1.80762 -1.578719,2.500651 -3.006077,2.500651 H 44.85547 Z m -14.288629,1.200737 2.210938,5.943794 h -4.421876 z"
       id="path26"
       inkscape:connector-curvature="0" />
    <path
       style="opacity:1;fill:#ffffff;fill-opacity:1;fill-rule:evenodd;stroke:none;stroke-width:0.02777778"
       d="m 76.333335,62.651104 v -4.476916 h 1.706308 c 0.555979,2.524258 1.669197,3.865084 4.638511,3.865084 1.999707,0 3.279576,-0.649015 3.279576,-2.286493 0,-4.081318 -9.634506,-0.8989 -9.634506,-7.576261 0,-3.001308 2.544782,-4.901345 6.398978,-4.901345 3.310929,0 5.800025,1.421235 5.800025,1.421235 v 3.966669 h -1.697406 c -0.424492,-2.408408 -1.717888,-3.301628 -3.958462,-3.301628 -1.952992,0 -3.130906,0.861079 -3.130906,2.167423 0,3.876755 9.666031,0.766047 9.666031,7.703339 0,2.222068 -1.49258,4.891239 -6.489072,4.891239 -4.264693,0 -6.579077,-1.472346 -6.579077,-1.472346 z"
       id="path28"
       inkscape:connector-curvature="0"
       sodipodi:nodetypes="ccccccccccccccc" />
    <path
       style="opacity:1;fill:#ffffff;fill-opacity:1;fill-rule:evenodd;stroke:none;stroke-width:0.02777778"
       d="m 64.310125,88.243846 c -5.354643,0 -8.404699,-3.631731 -8.404699,-8.382838 0,-4.594104 2.851433,-8.545511 8.466228,-8.545511 3.304998,0 5.995015,1.444983 5.995015,1.444983 v 4.069265 l -1.700001,-2e-6 c -0.644814,-1.807479 -1.587913,-3.383689 -4.201462,-3.383689 -3.536408,0 -4.748089,2.98924 -4.748089,6.388623 0,3.585118 1.476964,6.312294 4.97733,6.312294 1.430833,0 2.638888,-0.561674 2.638888,-0.561674 V 81.651966 H 64.6157 c -0.379563,-0.875605 -0.270711,-1.710238 0,-2.244444 h 6.106525 v 7.068814 c 0,0 -2.903543,1.76751 -6.4121,1.76751 z"
       id="path34"
       inkscape:connector-curvature="0"
       sodipodi:nodetypes="cccccccccccccccc" />
    <path
       style="opacity:1;fill:#ffffff;fill-opacity:1;fill-rule:evenodd;stroke:none;stroke-width:0.02777778"
       d="m 81.472875,71.321395 c -4.779732,0 -8.476346,3.237825 -8.476346,8.528212 0,5.046569 3.653384,8.398438 8.454862,8.398438 5.109351,0 8.483073,-3.65864 8.483073,-8.443577 0,-5.134873 -3.729333,-8.483073 -8.461589,-8.483073 z m -0.05621,2.142361 c 2.973779,0 4.735025,2.209085 4.735025,6.300999 0,4.041609 -1.636028,6.353949 -4.677734,6.353949 -3.128686,0 -4.705946,-2.433468 -4.705946,-6.263455 0,-3.742404 1.403753,-6.391493 4.648655,-6.391493 z"
       id="path36"
       inkscape:connector-curvature="0" />
  </g>
</svg>
