<?xml version="1.0" encoding="UTF-8" standalone="no"?>
<svg
   xmlns:dc="http://purl.org/dc/elements/1.1/"
   xmlns:cc="http://creativecommons.org/ns#"
   xmlns:rdf="http://www.w3.org/1999/02/22-rdf-syntax-ns#"
   xmlns:svg="http://www.w3.org/2000/svg"
   xmlns="http://www.w3.org/2000/svg"
   xmlns:sodipodi="http://sodipodi.sourceforge.net/DTD/sodipodi-0.dtd"
   xmlns:inkscape="http://www.inkscape.org/namespaces/inkscape"
   inkscape:version="1.0beta1 (32d4812, 2019-09-19)"
   height="256.711"
   width="1000"
   sodipodi:docname="kingorange.com-20.svg"
   viewBox="0 0 1000 256.71099"
   version="1.1"
   id="Layer_1">
  <metadata
     id="metadata839">
    <rdf:RDF>
      <cc:Work
         rdf:about="">
        <dc:format>image/svg+xml</dc:format>
        <dc:type
           rdf:resource="http://purl.org/dc/dcmitype/StillImage" />
        <dc:title></dc:title>
      </cc:Work>
    </rdf:RDF>
  </metadata>
  <defs
     id="defs837" />
  <sodipodi:namedview
     inkscape:current-layer="Layer_1"
     inkscape:window-maximized="0"
     inkscape:window-y="25"
     inkscape:window-x="0"
     inkscape:cy="115.14719"
     inkscape:cx="143.49242"
     inkscape:zoom="1.4"
     showgrid="false"
     id="namedview835"
     inkscape:window-height="907"
     inkscape:window-width="1600"
     inkscape:pageshadow="2"
     inkscape:pageopacity="0"
     guidetolerance="10"
     gridtolerance="10"
     objecttolerance="10"
     borderopacity="1"
     inkscape:document-rotation="0"
     bordercolor="#666666"
     pagecolor="#ffffff" />
  <path
     style="stroke-width:4.43047"
     inkscape:connector-curvature="0"
     fill-rule="evenodd"
     fill="#046f46"
     d="m 904.70293,115.79411 c 0,-27.0259 -10.63314,-42.975609 -29.24113,-42.975609 0,0 -3.54438,0.443047 -5.31657,0.443047 -6.64572,0.886095 -8.41791,2.658285 -8.41791,11.076187 v 64.684935 c 0,8.86094 5.31657,9.30399 13.29143,9.74704 19.05104,0.88609 29.68418,-15.50666 29.68418,-42.9756 z m 9.304,-39.431229 c 8.86094,9.303996 13.73447,23.038468 13.73447,39.874269 0,18.608 -6.20267,34.11466 -17.7219,43.41865 -8.86095,7.08876 -19.93714,10.63314 -36.77294,10.63314 -19.05104,0 -31.89942,-1.77219 -36.32989,-2.21523 -4.43048,-0.8861 -6.64572,-1.32915 -6.64572,-4.43048 0,-2.21524 1.32915,-4.43047 3.54438,-4.43047 h 3.10134 c 0.88609,0 2.21523,-0.8861 2.65828,-2.21524 0.44305,-1.32914 0.44305,-2.21524 0.44305,-6.20266 V 81.67945 c 0,-3.987427 0,-4.873522 -0.44305,-6.202664 -0.44305,-1.329143 -1.77219,-2.215238 -2.65828,-2.215238 h -3.10134 c -2.21523,0 -3.54438,-1.77219 -3.54438,-4.430474 0,-3.54438 2.21524,-3.987428 6.64572,-4.430475 4.43047,-0.443048 16.8358,-2.215237 36.32989,-2.215237 19.49409,0.443047 31.45637,4.430474 40.76037,14.177519 z M 806.78944,116.23715 c 0,-26.139798 -10.63314,-42.532554 -27.91199,-42.532554 -16.83581,0 -27.46895,16.392756 -27.46895,42.975604 0,26.1398 10.1901,42.08951 27.46895,42.08951 17.27885,0 27.91199,-16.39276 27.91199,-42.53256 z m -101.01482,0 c 0,-26.139798 -10.63314,-42.532554 -27.91199,-42.532554 -16.83581,0 -27.46895,16.392756 -27.46895,42.975604 0,26.1398 10.19009,42.08951 27.46895,42.08951 17.27885,0 27.91199,-16.39276 27.91199,-42.53256 z m 73.10283,-53.608741 c 30.57027,0 50.50741,20.823231 50.50741,53.165701 0,33.22856 -19.93714,54.05179 -50.95046,54.05179 -24.81066,0 -42.53256,-14.17752 -48.29217,-36.77294 v -0.44305 c -0.44305,-2.65829 -2.65829,-2.65829 -3.54438,0 v 0.44305 c -5.75962,23.03846 -23.48152,36.77294 -48.73522,36.77294 -30.57028,0 -50.06437,-21.26628 -50.06437,-53.1657 0,-33.22856 19.49409,-54.051791 50.50741,-54.051791 25.25371,0 43.41865,14.177519 48.73522,37.215987 0.44305,2.658284 2.65829,2.658284 3.10134,0 v 0 c 5.75961,-23.481515 23.48151,-37.215987 48.73522,-37.215987 z M 629.1274,79.021165 626.91217,68.388026 c -0.44305,-2.658285 -2.21524,-3.987427 -5.31657,-3.987427 h -66.45712 c -5.31657,0 -7.08876,1.329142 -7.08876,4.430475 0,2.215237 1.77219,4.430474 3.98742,4.430474 h 3.10134 c 0.88609,0 2.21523,0.886095 2.65828,2.215238 0.44305,1.329142 0.44305,2.215237 0.44305,6.202664 v 69.11541 c 0,3.98742 0,4.87352 -0.44305,6.20266 -0.44305,1.32914 -1.77219,2.21524 -2.65828,2.21524 h -3.10134 c -2.21523,0 -3.98742,1.77219 -3.98742,4.43047 0,3.54438 1.77219,4.43048 7.08876,4.43048 h 28.35503 c 5.75962,0 7.53181,-0.8861 7.53181,-4.43048 0,-2.21524 -1.77219,-4.43047 -3.98743,-4.43047 h -3.54438 c -1.32914,0 -2.65828,-0.8861 -3.10133,-2.21524 -0.44305,-0.8861 -0.44305,-1.77219 -0.44305,-6.20266 v -25.25371 c 0,-3.54438 0.44305,-4.87352 1.32915,-5.75962 0.88609,-0.44305 1.77219,-0.44305 6.20266,-0.44305 h 12.84838 c 6.64571,0 7.53181,0.44305 7.97485,3.54438 v 0.8861 c 0.44305,2.65828 1.77219,3.98743 3.98743,3.98743 3.10133,0 4.43047,-1.77219 4.43047,-7.08876 v -12.84838 c 0,-5.31657 -0.88609,-7.08876 -4.43047,-7.08876 -2.21524,0 -3.54438,1.32914 -3.98743,3.98743 v 0.88609 c -0.44304,3.10134 -1.32914,3.54438 -7.97485,3.54438 h -12.84838 c -4.43047,0 -5.31657,0 -6.20266,-0.44304 -0.8861,-0.44305 -1.32915,-2.21524 -1.32915,-5.75962 V 84.780782 c 0,-8.417901 0.8861,-9.303996 9.304,-9.303996 h 19.93714 c 7.08876,0 10.19009,0.443047 11.96228,4.430474 0.88609,1.77219 1.32914,3.101333 1.32914,3.101333 0.8861,2.215237 2.65829,2.215237 3.98743,2.215237 2.21524,0 3.54438,-2.215237 2.65828,-6.202665 z m 362.85588,40.317315 c -4.87352,-4.87352 -8.86095,-7.97485 -21.26628,-16.8358 -3.10133,-2.21524 -5.75962,-3.987426 -7.53181,-5.316568 -3.10133,-2.215238 -5.31657,-4.873523 -7.08876,-7.08876 -1.32914,-1.77219 -1.77219,-3.987427 -1.77219,-6.202664 0,-6.202665 4.43048,-10.190092 11.51924,-10.190092 4.87352,0 10.19009,1.77219 14.62057,4.873522 3.10133,2.658285 3.98742,3.101332 7.5318,8.417902 1.32914,1.77219 2.21524,2.658285 3.98743,2.658285 2.65828,0 4.43047,-1.77219 4.43047,-3.54438 0,-0.443048 0,-1.329143 -0.44304,-2.215237 l -3.54438,-16.835804 c -0.44305,-2.658285 -2.21524,-4.430475 -4.43048,-4.430475 -1.32914,0 -1.77219,0 -3.10133,1.329142 -1.32914,0.886095 -2.65828,1.329143 -3.54438,1.329143 -0.44305,0 -1.32914,0 -2.21524,-0.443048 -2.21523,-0.443047 -3.54438,-0.886095 -3.98742,-0.886095 -4.43048,-0.886094 -8.86095,-1.329142 -13.29143,-1.329142 -16.8358,0 -28.35504,9.747044 -28.35504,24.810658 0,6.202665 1.77219,11.519234 5.75962,16.392753 4.87352,5.31657 6.20267,6.64572 20.82323,16.83581 8.86095,6.20266 12.84838,9.74704 16.39276,13.29142 3.10133,3.54438 4.87352,7.53181 4.87352,11.51924 0,7.97485 -6.64571,13.73447 -16.8358,13.73447 -8.86095,0 -17.27885,-4.87353 -22.59542,-12.40533 l -2.21524,-3.10133 c -0.8861,-1.32915 -2.21524,-2.21524 -3.98743,-2.21524 -2.65828,0 -4.87352,2.21524 -4.87352,4.87352 0,0.8861 0,2.21524 0.44305,3.10133 l 3.98742,15.50666 c 0.8861,3.54438 2.21524,5.31657 4.87353,5.31657 1.32914,0 2.21523,-0.44304 3.54438,-1.32914 1.32914,-1.32914 1.77219,-1.32914 3.10133,-1.32914 0.88609,0 1.32914,0 3.54438,0.88609 4.43047,1.32915 10.63314,2.21524 15.94971,2.21524 20.38018,0 33.6716,-11.96228 33.6716,-29.68418 0.44307,-8.86095 -2.65828,-16.39276 -7.97485,-21.70933 z M 294.62657,71.932406 c 13.29142,4.873522 18.60799,19.494088 18.60799,42.089514 0,27.02589 -11.07619,44.30474 -28.79809,44.30474 -18.16494,0 -28.79808,-16.39275 -28.79808,-43.8617 0,-17.721896 2.65828,-31.456367 15.06361,-43.861696 12.40533,-12.40533 23.92457,-10.63314 35.4438,-25.253706 4.87352,-6.202665 4.87352,-11.519234 0.88609,-12.405329 -3.54437,-0.886095 -5.75961,3.54438 -8.86094,5.759617 -12.40533,7.974854 -26.13981,0.443047 -33.67161,-7.974855 -7.53181,-8.860949 -17.27885,-8.417901 -23.03847,-7.088759 -2.65829,0.443047 -3.98743,-1.329142 -1.32914,-3.54438 6.20266,-4.873522 19.05104,-5.316569 27.02589,2.215238 6.64571,6.202664 15.94971,11.076186 22.59542,9.747044 3.98743,-0.886095 4.43048,-5.31657 0,-7.08876 C 276.90467,20.5389 278.23381,5.9183333 260.95496,1.0448111 240.57477,-4.714806 221.96678,14.336235 216.65021,33.830324 c -1.32914,5.316569 1.77219,8.860949 7.08876,6.645712 16.8358,-7.531807 21.26628,3.101332 35.88685,8.860949 6.64571,2.658285 14.17751,1.77219 18.60799,1.329142 3.54438,-0.886094 3.54438,3.101333 1.77219,3.54438 -9.74704,3.101332 -19.49409,8.417902 -25.69675,12.848377 -14.17752,9.303997 -22.15238,26.1398 -22.15238,47.849126 0,33.67161 20.82323,55.82398 52.2796,55.82398 32.78552,0 53.1657,-22.15237 53.1657,-56.71007 0,-19.937141 -6.20266,-34.557707 -19.05104,-43.861704 -7.08876,-5.31657 -13.73447,-7.531807 -20.82323,-7.088759 -8.4179,0 -9.304,6.202664 -3.10133,8.860949 z m -157.7249,0.886095 c 2.65828,-0.443048 6.20266,0 6.20266,7.974854 v 69.558455 c 0,3.98742 0,4.87352 -0.44305,6.20266 -0.44304,0.8861 -1.77219,1.77219 -2.65828,1.77219 h -3.10133 c -2.21524,0 -3.98743,2.21524 -3.98743,4.43048 0,3.54438 1.77219,4.43047 7.08876,4.43047 h 27.91199 c 4.87352,0 6.64571,-0.88609 6.64571,-4.43047 0,-2.65829 -1.77219,-4.43048 -3.54438,-4.43048 h -3.10133 c -1.32914,0 -2.65828,-0.88609 -3.10133,-1.77219 -0.44305,-1.32914 -0.44305,-2.21524 -0.44305,-6.20266 v -23.48152 c 0,-7.08876 0.44305,-7.53181 6.20266,-7.53181 h 20.82324 c 3.10133,0 4.43047,0.44305 5.31657,1.32915 0.88609,0.88609 0.88609,1.32914 0.88609,7.08876 v 22.59542 c 0,3.98742 0,4.87352 -0.44305,6.20266 -0.44304,0.8861 -1.77219,1.77219 -2.65828,1.77219 h -3.10133 c -2.21524,0 -3.98743,2.21524 -3.98743,4.43048 0,3.54438 1.77219,4.43047 7.08876,4.43047 h 27.91199 c 5.31657,0 7.08876,-0.88609 7.08876,-4.43047 0,-2.21524 -1.77219,-4.43048 -3.98743,-4.43048 h -3.10133 c -0.8861,0 -2.21524,-0.88609 -2.65829,-1.77219 -0.44304,-1.32914 -0.44304,-2.21524 -0.44304,-6.20266 V 80.793355 c 0,-3.987427 0,-4.873522 0.44304,-6.202664 0.44305,-0.886095 1.77219,-1.77219 2.65829,-1.77219 h 3.54438 c 2.21524,0 3.98743,-1.77219 3.98743,-4.430475 0,-3.54438 -1.77219,-4.430475 -7.08876,-4.430475 h -27.91199 c -5.31657,0 -7.08876,0.886095 -7.08876,4.430475 0,2.658285 1.77219,4.430475 3.98742,4.430475 h 3.10134 c 0.88609,0 2.21523,0.886095 2.65828,1.77219 0.44305,1.329142 0.44305,2.215237 0.44305,6.202664 v 19.051041 c 0,5.759614 0,6.202664 -0.8861,7.088764 -0.88609,0.88609 -2.21523,1.32914 -5.31657,1.32914 h -20.82323 c -5.75961,0 -6.20266,-0.44305 -6.20266,-7.53181 V 80.793355 c 0,-3.987427 0,-4.873522 0.44305,-6.202664 0.44304,-0.886095 1.77219,-1.77219 3.10133,-1.77219 h 3.10133 c 2.21524,0 3.98743,-1.77219 3.98743,-4.430475 0,-3.54438 -1.77219,-4.430475 -6.64571,-4.430475 h -53.1657 c -3.98743,0 -5.75962,1.329143 -5.75962,4.430475 0,2.658285 1.77219,3.987427 4.87352,4.430475 3.54438,0.443047 5.31657,1.77219 5.31657,3.987427 0,0.886095 0,2.215237 -0.44304,3.54438 0,0 -14.62057,49.621312 -16.83581,57.153122 -0.44305,1.32914 -1.77219,1.32914 -2.21523,0 -2.215242,-7.53181 -17.278856,-54.937885 -17.278856,-54.937885 -1.329143,-3.54438 -1.77219,-4.873522 -1.77219,-6.645712 0,-2.658285 0.886095,-3.54438 5.31657,-3.987427 3.544379,-0.443048 4.873522,-1.77219 4.873522,-3.987427 0,-2.658285 -1.77219,-3.987428 -5.31657,-3.987428 H 56.267028 c -3.544379,0 -5.316569,1.77219 -5.316569,4.873523 0,2.215237 1.329142,3.544379 4.430474,3.987427 3.54438,0.886095 4.873523,1.77219 5.759618,3.987427 0.443047,0.443048 0.886094,1.77219 1.329142,3.54438 0,0 5.31657,15.506661 5.31657,16.392756 0.886094,3.101332 0.443047,6.202666 0,8.860946 -0.443048,0.8861 -8.417902,24.81066 -11.519235,33.22856 -0.443047,1.32915 -1.77219,1.32915 -2.215237,0 C 51.393506,130.85772 34.557702,82.565545 34.557702,82.565545 l -2.215237,-3.101332 c -0.443047,-1.329143 -0.443047,-2.215237 -0.443047,-3.54438 0,-2.658285 1.329142,-3.54438 4.873522,-3.987427 3.987427,-0.443048 5.316569,-1.329142 5.316569,-3.987427 0,-2.658285 -1.329142,-3.987428 -4.873522,-3.987428 H 5.3165696 C 1.7721899,63.957551 0,65.286694 0,67.944979 c 0,2.658285 0.88609493,3.544379 4.4304747,3.987427 4.8735221,0.886095 5.7596173,1.77219 7.9748543,7.974854 l 30.127228,81.07769 c 2.215237,5.75961 4.430475,7.5318 8.860949,7.5318 2.215238,0 3.987427,-0.88609 5.31657,-1.77219 1.329142,-1.32914 1.77219,-2.21523 3.101332,-6.20266 0,0 13.734472,-38.10208 14.177519,-39.43123 0.443048,-1.32914 1.77219,-1.32914 2.215237,0 0.443048,1.32915 13.291424,39.43123 13.291424,39.43123 1.77219,5.75962 3.987428,7.53181 8.86095,7.53181 4.430472,0 6.645712,-2.21524 8.860952,-9.74705 L 131.5851,79.021165 c 0.88609,-4.430474 2.65828,-6.202664 5.31657,-6.202664 z m 245.89134,83.735969 c -6.20266,0 -8.4179,-0.44305 -10.19009,-1.32914 -1.77219,-0.8861 -2.21524,-2.65829 -2.21524,-9.304 V 80.793355 c 0,-3.987427 0,-4.873522 0.44305,-6.202664 0.44305,-1.329143 1.77219,-2.215238 3.10133,-2.215238 h 3.54438 c 2.21524,0 3.98743,-1.772189 3.98743,-4.430474 0,-3.54438 -1.77219,-4.430475 -7.53181,-4.430475 h -28.35504 c -5.31657,0 -7.08875,0.886095 -7.08875,4.430475 0,2.658285 1.77218,4.430474 3.98742,4.430474 h 3.10133 c 0.8861,0 2.21524,0.886095 2.65829,2.215238 0.44305,1.329142 0.44305,1.77219 0.44305,6.202664 v 70.001505 c 0,3.98742 0,4.43047 -0.44305,5.75961 -0.44305,0.8861 -1.32914,1.77219 -2.65829,1.77219 h -3.10133 c -2.21524,0 -3.98742,1.77219 -3.98742,3.98743 0,3.54438 1.77218,4.43047 6.64571,4.43047 h 57.59617 c 3.10133,0 4.87352,-0.88609 5.31657,-3.98742 l 2.21523,-11.96228 c 0.8861,-3.98743 -0.44304,-6.20267 -3.54437,-6.20267 -1.32915,0 -3.10134,0.8861 -3.98743,3.10133 0,0.44305 -0.44305,0.8861 -1.32914,2.65829 -1.77219,3.98742 -5.75962,5.75961 -11.07619,5.75961 1.32914,0.44305 -7.53181,0.44305 -7.53181,0.44305 z m 110.31882,-11.51923 c -1.32914,0 -3.10133,0.88609 -3.98743,3.10133 0,0.44305 -0.44304,0.8861 -1.32914,2.65829 -1.77219,3.98742 -5.75962,5.75961 -11.07619,5.75961 h -15.50666 c -4.87352,0 -7.08876,-0.44305 -9.30399,-0.88609 -2.21524,-0.8861 -3.10134,-2.65829 -3.10134,-10.63314 v -19.49409 c 0,-3.54438 0.44305,-4.87352 1.32915,-5.75962 0.88609,-0.44305 1.77219,-0.44305 6.20266,-0.44305 h 7.08876 c 6.64571,0 7.53181,0.44305 7.97486,3.54438 v 0.8861 c 0.44304,2.65828 1.77219,3.98743 3.98742,3.98743 3.10133,0 4.43048,-1.77219 4.43048,-7.08876 v -12.84838 c 0,-5.31657 -0.8861,-7.08876 -4.43048,-7.08876 -2.21523,0 -3.54438,1.32914 -3.98742,3.98743 v 0.88609 c -0.44305,3.10134 -1.32915,3.54438 -7.97486,3.54438 h -7.08876 c -4.43047,0 -5.75962,0 -6.20266,-0.44304 -0.8861,-0.44305 -1.32915,-2.21524 -1.32915,-5.75962 V 83.894688 c 0,-8.417902 0.8861,-9.303997 9.304,-9.303997 h 14.62057 c 7.08876,0 10.19009,0.443047 11.96228,4.430474 0.88609,1.77219 1.32914,3.101333 1.32914,3.54438 0.8861,2.215237 2.65829,2.215237 3.98743,2.215237 2.65828,0 3.98743,-2.215237 3.54438,-6.202664 l -2.21524,-10.633139 c -0.44305,-2.658285 -2.21524,-3.987428 -5.31657,-3.987428 h -61.5836 c -5.31657,0 -7.08876,1.329143 -7.08876,4.430475 0,2.215238 1.77219,4.430475 3.98743,4.430475 h 3.10133 c 0.8861,0 2.21524,0.886095 2.65829,2.215237 0.44305,1.329143 0.44305,2.215238 0.44305,6.202665 v 69.115407 c 0,3.98742 0,4.87352 -0.44305,6.20266 -0.44305,0.8861 -1.32914,2.21524 -2.65829,2.21524 h -3.10133 c -2.21524,0 -3.98743,1.77219 -3.98743,3.98743 0,3.54438 1.77219,4.43047 7.08876,4.43047 h 64.24189 c 3.10133,0 4.87352,-0.88609 5.31657,-3.98743 l 2.21523,-11.96228 c 1.32915,-3.98742 -0.44304,-6.20266 -3.10133,-6.20266 z M 690.711,204.4036 c -2.65828,0 -2.65828,3.54438 -2.65828,5.31657 0,1.77219 0.44304,3.54438 2.65828,3.54438 h 12.84838 c 2.21524,0 3.10133,0.88609 3.10133,2.65828 v 37.65904 c 0,2.65828 1.77219,2.65828 4.87352,2.65828 3.10133,0 4.87352,-0.44305 4.87352,-3.10133 v -37.65903 c 0,-2.21524 1.32915,-2.65829 3.10134,-2.65829 h 12.40533 c 2.21523,0 2.65828,-1.77219 2.65828,-4.43047 0,-3.54438 -1.32914,-4.43048 -3.10133,-4.43048 H 690.711 Z m -72.21674,0 c -2.21523,0 -3.10133,1.32914 -3.10133,3.54438 v 44.74779 c 0,2.65829 0.8861,3.98743 3.10133,3.98743 h 39.43123 c 2.21524,0 2.65828,-1.77219 2.65828,-4.43047 0,-3.54438 -0.88609,-4.87353 -2.65828,-4.87353 h -30.57028 c -1.32914,0 -2.65828,-0.88609 -2.65828,-2.65828 v -7.53181 c 0,-1.77219 1.32914,-2.65828 2.65828,-2.65828 h 17.7219 c 1.77219,0 2.65829,-2.21524 2.65829,-4.43048 0,-2.65828 -0.44305,-4.43047 -2.65829,-4.43047 h -17.7219 c -1.32914,0 -2.65828,-0.8861 -2.65828,-2.21524 v -7.08876 c 0,-1.32914 0.88609,-2.21524 2.21524,-2.21524 h 31.01332 c 2.65828,0 3.10133,-2.21523 3.10133,-4.87352 0,-2.65828 -0.44305,-4.43047 -2.65828,-4.43047 h -39.87428 z m -74.87502,0 c -3.54438,0 -4.87352,0.44305 -4.87352,3.10133 v 46.07694 c 0,2.21523 1.32914,3.10133 4.43048,3.10133 2.65828,0 5.31656,0 5.31656,-3.10133 v -15.06362 c 0,-2.21523 1.32915,-3.98742 3.10134,-3.98742 3.10133,0 5.31657,0.44304 7.5318,2.21523 l 16.39276,17.7219 c 1.32914,1.32914 2.21524,2.21524 6.64571,2.21524 3.98743,0 6.64571,-1.32914 3.98743,-4.43047 -1.77219,-2.21524 -19.93714,-21.70933 -19.93714,-21.70933 -1.32914,-1.32914 -1.77219,-3.10133 0,-4.43048 0,0 15.06362,-13.73447 16.39276,-15.06361 1.77219,-1.77219 1.32914,-3.54438 -0.44305,-5.31657 -2.21524,-1.77219 -4.43047,-2.21524 -6.20266,0 0,0 -16.83581,15.50666 -18.608,17.27885 -1.32914,1.32914 -2.21523,2.21524 -6.20266,2.21524 -1.32914,0 -2.21524,-0.8861 -2.21524,-3.54438 v -14.17752 c -0.88609,-2.65828 -2.65828,-3.10133 -5.31657,-3.10133 z m -77.5333,8.86095 h 15.9497 c 5.31657,0 9.74705,2.65828 9.74705,8.4179 0,5.75962 -4.43048,8.4179 -9.74705,8.4179 h -15.9497 c -1.77219,0 -3.54438,-0.88609 -3.54438,-3.10133 v -11.51923 c 0,-1.32915 1.77219,-2.21524 3.54438,-2.21524 z m 35.00075,8.86095 c 0,-11.07619 -7.97486,-17.7219 -18.608,-17.7219 H 455.4528 c -1.32915,0 -2.21524,0.88609 -2.21524,1.77219 v 47.40608 c 0,2.21523 1.32914,3.10133 3.10133,3.10133 1.77219,0 6.20267,0.44305 6.20267,-2.21524 v -12.40533 c 0,-1.32914 1.32914,-2.65828 2.65828,-2.65828 h 11.51923 c 1.77219,0 3.10134,0.88609 3.98743,2.21524 l 7.97486,12.40533 c 1.32914,1.77218 3.10133,2.21523 5.75961,2.21523 4.87353,0 6.20267,-1.77219 4.87353,-3.98742 -0.8861,-1.77219 -8.41791,-11.96229 -8.86095,-12.84838 -0.8861,-1.32914 -0.44305,-1.77219 0.88609,-3.10133 3.10133,-1.77219 9.74705,-4.87353 9.74705,-14.17752 z M 385.4513,235.41692 c 0.44304,-0.88609 5.75961,-11.51923 6.20266,-12.84838 0.44305,-1.32914 1.77219,-1.32914 2.65829,0 0.44304,1.32915 5.75961,12.40533 6.20266,12.84838 0.44305,0.8861 -0.44305,1.77219 -1.32914,1.77219 h -12.40533 c -1.32914,0.44305 -1.77219,-0.44305 -1.32914,-1.77219 z m -19.05104,18.16495 c -1.32915,3.10133 3.10133,3.10133 4.43047,3.10133 1.32914,0 4.87352,-0.44305 5.31657,-1.77219 l 3.10133,-5.75962 c 0.8861,-1.77219 1.77219,-3.10133 3.10133,-3.10133 h 21.26628 c 0.8861,0 1.77219,0.8861 2.21524,1.77219 l 3.54438,7.08876 c 0.88609,1.77219 3.10133,1.77219 4.87352,1.77219 1.77219,0 6.20267,-0.44305 5.31657,-2.65828 -0.44305,-1.32915 -22.15237,-47.84913 -22.15237,-47.84913 -0.8861,-1.32914 -1.77219,-2.21524 -3.98743,-2.21524 -2.21524,0 -3.54438,0.8861 -3.98743,2.21524 z m -56.71008,-27.0259 15.06361,-20.38018 c 0.8861,-1.32914 2.21524,-2.21524 3.98743,-2.21524 1.77219,0 3.10133,0.44305 3.98743,3.54438 l 5.31657,46.51999 c 0,2.65828 -3.98743,2.65828 -5.75962,2.65828 -1.32914,0 -3.98743,-0.8861 -3.98743,-2.65828 l -3.54438,-27.912 c -0.44304,-1.32914 -0.88609,-1.77219 -1.77219,-1.77219 -0.88609,0 -0.88609,0.44305 -1.77219,0.8861 l -12.40533,15.94971 c -0.44304,0.88609 -1.32914,1.32914 -2.65828,1.32914 -1.32914,0 -2.21524,-0.44305 -2.65828,-1.77219 l -11.07619,-14.62057 c -0.44305,-0.44304 -0.8861,-0.88609 -1.77219,-0.88609 -0.8861,0 -1.32914,0.88609 -1.32914,1.77219 l -3.54438,27.0259 c -0.44305,2.21523 -3.10134,2.65828 -5.31657,2.65828 -1.77219,0 -3.98743,-0.8861 -3.98743,-2.65828 l 5.31657,-45.19085 c 0.44305,-2.65828 1.32914,-4.43047 4.87352,-4.43047 0.8861,0 2.65829,0.44305 3.98743,2.21524 l 14.17752,19.93713 c 0.88609,0.8861 1.77219,2.21524 2.65828,1.77219 0.44305,0.44305 1.77219,-0.44305 2.21524,-1.77219 z"
     id="pfwe25ovla" />
</svg>
