<?xml version="1.0" encoding="UTF-8" ?>
<!DOCTYPE svg PUBLIC "-//W3C//DTD SVG 1.1//EN" "http://www.w3.org/Graphics/SVG/1.1/DTD/svg11.dtd">
<svg width="310pt" height="183pt" viewBox="0 0 310 183" version="1.1" xmlns="http://www.w3.org/2000/svg">
<g id="#f9fcfdfe">
<path fill="#f9fcfd" opacity="1.00" d=" M 173.55 0.00 L 177.56 0.00 C 183.23 0.35 188.98 3.52 191.10 9.01 C 193.55 13.91 192.23 19.64 193.13 24.72 C 197.84 26.57 203.53 25.67 208.30 27.70 C 212.23 30.39 211.60 35.82 212.24 39.97 C 212.83 57.24 213.06 74.60 211.37 91.81 C 211.27 94.50 208.68 95.61 206.46 96.24 C 206.19 99.40 206.27 102.66 205.22 105.70 C 203.47 108.94 199.54 107.56 196.71 107.12 C 196.60 110.54 196.43 114.01 195.23 117.25 C 191.01 119.76 186.62 116.82 182.49 115.65 C 182.15 119.45 182.77 123.54 181.12 127.10 C 179.41 129.77 176.01 129.49 173.46 128.35 C 153.28 121.17 133.38 113.15 113.88 104.28 C 110.46 102.74 106.47 100.81 105.53 96.82 C 104.12 89.98 104.47 82.93 103.82 76.00 C 103.44 60.67 102.90 45.32 103.49 29.99 C 103.35 27.29 105.66 25.68 107.82 24.67 C 112.46 25.70 117.10 26.72 121.71 27.85 C 121.71 22.57 121.52 16.94 124.19 12.19 C 127.00 6.88 133.13 3.64 139.10 4.26 C 145.07 4.84 151.03 7.50 154.98 12.10 C 157.53 15.03 158.80 18.76 160.15 22.33 C 160.34 17.88 159.81 13.17 161.88 9.06 C 164.02 4.37 168.53 1.01 173.55 0.00 M 164.65 7.68 C 161.31 12.18 162.24 17.98 161.62 23.18 C 161.11 23.53 160.09 24.23 159.58 24.58 C 170.87 26.86 182.37 28.01 193.68 30.19 C 197.64 31.05 203.10 30.67 204.94 35.15 C 206.94 40.87 206.45 47.10 206.85 53.08 C 207.64 66.90 206.68 80.73 206.67 94.56 C 210.30 93.32 209.90 89.15 210.20 86.06 C 211.00 69.67 211.30 53.22 210.21 36.84 C 209.73 34.16 210.04 30.27 207.08 28.97 C 201.89 27.71 196.51 27.51 191.25 26.60 C 191.18 20.23 191.89 13.28 188.38 7.62 C 183.15 -0.13 169.76 -0.37 164.65 7.68 M 126.33 13.39 C 123.39 18.72 124.46 25.04 124.27 30.87 C 118.75 29.87 113.40 27.94 107.80 27.40 C 105.93 28.02 105.94 30.35 105.79 31.96 C 105.28 49.34 105.91 66.72 106.68 84.08 C 107.01 88.09 107.07 92.16 107.92 96.10 C 108.72 99.41 112.13 100.76 114.89 102.08 C 133.75 110.68 153.00 118.40 172.47 125.49 C 174.41 126.09 176.44 127.12 178.52 126.55 C 179.54 125.26 179.59 123.57 179.71 122.01 C 180.05 115.34 180.42 108.67 180.39 101.99 C 180.37 85.68 180.85 69.33 179.69 53.04 C 179.57 50.36 178.91 47.01 176.06 45.96 C 170.25 43.75 164.23 42.13 158.27 40.35 C 158.03 32.46 159.22 23.99 155.36 16.74 C 152.32 10.65 145.61 7.27 139.05 6.66 C 134.00 6.24 128.71 8.85 126.33 13.39 M 160.33 27.14 C 160.45 27.87 160.69 29.33 160.81 30.06 C 171.03 32.61 181.52 34.21 191.54 37.54 C 195.36 38.94 196.31 43.45 196.52 47.06 C 197.79 66.35 197.62 85.72 196.78 105.03 C 198.44 105.36 200.09 105.80 201.79 105.91 C 203.83 105.36 203.79 102.83 204.10 101.15 C 205.43 81.11 205.79 60.97 204.25 40.93 C 203.87 38.43 203.73 35.26 201.36 33.75 C 198.36 32.65 195.14 32.41 192.03 31.83 C 181.47 30.17 170.97 28.12 160.33 27.14 M 160.67 32.42 C 160.63 34.40 160.60 36.37 160.56 38.35 C 166.02 40.38 171.77 41.57 177.14 43.84 C 181.74 45.93 182.25 51.54 182.37 55.95 C 182.99 75.07 182.88 94.21 182.52 113.33 C 185.64 114.41 188.71 115.70 191.98 116.28 C 194.31 115.13 194.18 112.18 194.42 109.98 C 195.41 89.04 195.78 68.02 194.39 47.09 C 194.08 44.29 193.89 40.36 190.61 39.42 C 180.80 36.44 170.71 34.45 160.67 32.42 Z" />
<path fill="#f9fcfd" opacity="1.00" d=" M 169.56 10.57 C 173.06 5.92 181.13 7.51 183.49 12.54 C 185.48 16.64 184.58 21.36 184.74 25.75 C 179.07 25.11 173.39 24.48 167.69 24.08 C 167.80 19.58 166.67 14.46 169.56 10.57 M 171.29 11.25 C 168.50 14.31 169.63 18.72 169.43 22.46 C 173.93 22.76 178.40 23.43 182.90 23.75 C 182.79 20.65 183.18 17.47 182.44 14.42 C 181.21 9.94 174.61 7.79 171.29 11.25 Z" />
<path fill="#f9fcfd" opacity="1.00" d=" M 132.66 16.61 C 136.02 11.82 143.06 13.83 146.64 17.29 C 152.30 22.60 151.11 31.13 150.96 38.13 C 144.40 36.23 137.71 34.73 131.22 32.62 C 130.35 27.51 129.97 21.35 132.66 16.61 M 136.44 16.55 C 133.17 18.12 133.24 22.23 133.16 25.33 C 134.27 25.46 135.38 25.59 136.50 25.71 C 139.25 21.95 144.12 23.96 148.01 23.74 C 146.44 19.09 141.48 15.19 136.44 16.55 M 138.54 25.85 C 142.07 26.90 145.76 27.75 149.47 27.39 C 146.65 24.50 142.14 25.36 138.54 25.85 M 133.23 27.48 C 133.27 28.35 133.34 30.07 133.38 30.94 C 138.51 32.10 143.53 33.67 148.63 34.96 C 148.59 33.30 148.53 31.64 148.48 29.98 C 143.39 29.19 138.32 28.27 133.23 27.48 Z" />
<path fill="#f9fcfd" opacity="1.00" d=" M 122.44 58.21 C 123.79 59.30 126.00 59.88 126.19 61.89 C 127.05 65.94 127.51 70.08 128.75 74.05 C 129.47 69.84 130.21 65.61 131.72 61.59 C 132.39 61.88 133.72 62.46 134.39 62.75 C 135.74 67.49 136.21 72.44 137.72 77.15 C 138.61 72.88 139.35 68.56 140.60 64.37 C 141.42 64.71 143.06 65.40 143.88 65.75 C 142.38 71.34 141.64 77.18 139.54 82.58 C 138.53 84.54 136.14 82.71 135.76 81.23 C 134.42 77.06 134.04 72.66 132.92 68.43 C 131.91 72.01 131.45 75.75 130.15 79.24 C 128.77 80.72 126.79 79.09 126.47 77.51 C 124.67 71.19 124.01 64.59 122.44 58.21 Z" />
<path fill="#f9fcfd" opacity="1.00" d=" M 145.54 66.56 C 145.47 65.21 147.39 65.37 148.14 65.88 C 149.69 66.95 149.27 69.01 149.48 70.62 C 147.29 70.70 144.64 69.07 145.54 66.56 Z" />
<path fill="#f9fcfd" opacity="1.00" d=" M 152.53 68.64 C 154.94 65.75 157.79 70.39 156.70 72.86 C 154.16 73.13 151.96 71.30 152.53 68.64 Z" />
<path fill="#f9fcfd" opacity="1.00" d=" M 145.78 72.14 C 146.95 72.94 149.59 72.93 149.24 74.97 C 149.39 79.10 149.21 83.24 149.24 87.37 C 148.07 86.94 146.89 86.50 145.72 86.07 C 145.76 81.43 145.70 76.79 145.78 72.14 Z" />
<path fill="#f9fcfd" opacity="1.00" d=" M 152.75 74.65 C 153.97 75.03 155.20 75.41 156.42 75.79 C 156.41 80.50 156.43 85.22 156.47 89.94 C 155.31 89.57 154.13 89.23 153.01 88.77 C 152.35 84.10 152.90 79.35 152.75 74.65 Z" />
</g>
<g id="#14b1e7ff">
<path fill="#14b1e7" opacity="1.00" d=" M 164.65 7.68 C 169.76 -0.37 183.15 -0.13 188.38 7.62 C 191.89 13.28 191.18 20.23 191.25 26.60 C 196.51 27.51 201.89 27.71 207.08 28.97 C 210.04 30.27 209.73 34.16 210.21 36.84 C 211.30 53.22 211.00 69.67 210.20 86.06 C 209.90 89.15 210.30 93.32 206.67 94.56 C 206.68 80.73 207.64 66.90 206.85 53.08 C 206.45 47.10 206.94 40.87 204.94 35.15 C 203.10 30.67 197.64 31.05 193.68 30.19 C 182.37 28.01 170.87 26.86 159.58 24.58 C 160.09 24.23 161.11 23.53 161.62 23.18 C 162.24 17.98 161.31 12.18 164.65 7.68 M 169.56 10.57 C 166.67 14.46 167.80 19.58 167.69 24.08 C 173.39 24.48 179.07 25.11 184.74 25.75 C 184.58 21.36 185.48 16.64 183.49 12.54 C 181.13 7.51 173.06 5.92 169.56 10.57 Z" />
<path fill="#14b1e7" opacity="1.00" d=" M 126.33 13.39 C 128.71 8.85 134.00 6.24 139.05 6.66 C 145.61 7.27 152.32 10.65 155.36 16.74 C 159.22 23.99 158.03 32.46 158.27 40.35 C 164.23 42.13 170.25 43.75 176.06 45.96 C 178.91 47.01 179.57 50.36 179.69 53.04 C 180.85 69.33 180.37 85.68 180.39 101.99 C 180.42 108.67 180.05 115.34 179.71 122.01 C 179.59 123.57 179.54 125.26 178.52 126.55 C 176.44 127.12 174.41 126.09 172.47 125.49 C 153.00 118.40 133.75 110.68 114.89 102.08 C 112.13 100.76 108.72 99.41 107.92 96.10 C 107.07 92.16 107.01 88.09 106.68 84.08 C 105.91 66.72 105.28 49.34 105.79 31.96 C 105.94 30.35 105.93 28.02 107.80 27.40 C 113.40 27.94 118.75 29.87 124.27 30.87 C 124.46 25.04 123.39 18.72 126.33 13.39 M 132.66 16.61 C 129.97 21.35 130.35 27.51 131.22 32.62 C 137.71 34.73 144.40 36.23 150.96 38.13 C 151.11 31.13 152.30 22.60 146.64 17.29 C 143.06 13.83 136.02 11.82 132.66 16.61 M 122.44 58.21 C 124.01 64.59 124.67 71.19 126.47 77.51 C 126.79 79.09 128.77 80.72 130.15 79.24 C 131.45 75.75 131.91 72.01 132.92 68.43 C 134.04 72.66 134.42 77.06 135.76 81.23 C 136.14 82.71 138.53 84.54 139.54 82.58 C 141.64 77.18 142.38 71.34 143.88 65.75 C 143.06 65.40 141.42 64.71 140.60 64.37 C 139.35 68.56 138.61 72.88 137.72 77.15 C 136.21 72.44 135.74 67.49 134.39 62.75 C 133.72 62.46 132.39 61.88 131.72 61.59 C 130.21 65.61 129.47 69.84 128.75 74.05 C 127.51 70.08 127.05 65.94 126.19 61.89 C 126.00 59.88 123.79 59.30 122.44 58.21 M 145.54 66.56 C 144.64 69.07 147.29 70.70 149.48 70.62 C 149.27 69.01 149.69 66.95 148.14 65.88 C 147.39 65.37 145.47 65.21 145.54 66.56 M 152.53 68.64 C 151.96 71.30 154.16 73.13 156.70 72.86 C 157.79 70.39 154.94 65.75 152.53 68.64 M 145.78 72.14 C 145.70 76.79 145.76 81.43 145.72 86.07 C 146.89 86.50 148.07 86.94 149.24 87.37 C 149.21 83.24 149.39 79.10 149.24 74.97 C 149.59 72.93 146.95 72.94 145.78 72.14 M 152.75 74.65 C 152.90 79.35 152.35 84.10 153.01 88.77 C 154.13 89.23 155.31 89.57 156.47 89.94 C 156.43 85.22 156.41 80.50 156.42 75.79 C 155.20 75.41 153.97 75.03 152.75 74.65 Z" />
<path fill="#14b1e7" opacity="1.00" d=" M 138.54 25.85 C 142.14 25.36 146.65 24.50 149.47 27.39 C 145.76 27.75 142.07 26.90 138.54 25.85 Z" />
<path fill="#14b1e7" opacity="1.00" d=" M 133.23 27.48 C 138.32 28.27 143.39 29.19 148.48 29.98 C 148.53 31.64 148.59 33.30 148.63 34.96 C 143.53 33.67 138.51 32.10 133.38 30.94 C 133.34 30.07 133.27 28.35 133.23 27.48 Z" />
<path fill="#14b1e7" opacity="1.00" d=" M 160.33 27.14 C 170.97 28.12 181.47 30.17 192.03 31.83 C 195.14 32.41 198.36 32.65 201.36 33.75 C 203.73 35.26 203.87 38.43 204.25 40.93 C 205.79 60.97 205.43 81.11 204.10 101.15 C 203.79 102.83 203.83 105.36 201.79 105.91 C 200.09 105.80 198.44 105.36 196.78 105.03 C 197.62 85.72 197.79 66.35 196.52 47.06 C 196.31 43.45 195.36 38.94 191.54 37.54 C 181.52 34.21 171.03 32.61 160.81 30.06 C 160.69 29.33 160.45 27.87 160.33 27.14 Z" />
<path fill="#14b1e7" opacity="1.00" d=" M 160.67 32.42 C 170.71 34.45 180.80 36.44 190.61 39.42 C 193.89 40.36 194.08 44.29 194.39 47.09 C 195.78 68.02 195.41 89.04 194.42 109.98 C 194.18 112.18 194.31 115.13 191.98 116.28 C 188.71 115.70 185.64 114.41 182.52 113.33 C 182.88 94.21 182.99 75.07 182.37 55.95 C 182.25 51.54 181.74 45.93 177.14 43.84 C 171.77 41.57 166.02 40.38 160.56 38.35 C 160.60 36.37 160.63 34.40 160.67 32.42 Z" />
<path fill="#14b1e7" opacity="1.00" d=" M 92.12 145.37 C 93.61 145.37 95.10 145.37 96.59 145.37 C 96.58 149.50 96.63 153.62 96.53 157.75 C 99.62 154.17 106.45 154.31 108.10 159.21 C 109.38 163.96 108.51 168.98 108.74 173.84 C 107.24 173.84 105.74 173.84 104.24 173.84 C 104.15 169.07 104.74 164.18 103.30 159.54 C 100.83 159.02 97.53 159.01 96.79 162.06 C 96.33 165.96 96.68 169.91 96.59 173.84 C 95.10 173.84 93.61 173.83 92.12 173.84 C 92.11 164.35 92.11 154.86 92.12 145.37 Z" />
<path fill="#14b1e7" opacity="1.00" d=" M 305.41 145.37 C 306.94 145.37 308.47 145.37 310.00 145.38 L 310.00 173.84 C 308.46 173.83 306.93 173.84 305.41 173.84 C 305.41 164.35 305.40 154.86 305.41 145.37 Z" />
<path fill="#14b1e7" opacity="1.00" d=" M 40.24 147.75 C 41.13 147.39 42.03 147.04 42.92 146.68 C 43.78 147.06 44.63 147.45 45.49 147.83 C 45.53 149.04 45.56 150.25 45.57 151.47 C 44.19 151.74 42.49 152.95 41.19 151.85 C 39.57 151.08 40.39 149.14 40.24 147.75 Z" />
<path fill="#14b1e7" opacity="1.00" d=" M 50.31 147.78 C 51.26 147.37 52.21 146.96 53.16 146.54 C 54.30 147.41 56.20 148.06 55.77 149.86 C 55.88 152.05 52.70 153.07 51.15 151.74 C 49.67 151.08 50.51 149.04 50.31 147.78 Z" />
<path fill="#14b1e7" opacity="1.00" d=" M 196.75 145.40 C 198.30 145.38 199.85 145.37 201.41 145.36 C 201.40 149.52 201.45 153.68 201.36 157.85 C 203.03 156.60 204.75 155.00 207.01 155.24 C 210.25 155.04 213.16 157.79 213.44 160.96 C 213.79 165.24 213.51 169.55 213.59 173.84 C 212.09 173.84 210.60 173.83 209.11 173.83 C 208.84 169.23 209.92 164.29 208.05 159.94 C 205.88 158.37 202.43 159.28 201.69 161.98 C 201.10 165.90 201.52 169.89 201.42 173.84 C 199.86 173.83 198.31 173.82 196.76 173.82 C 196.75 164.34 196.76 154.87 196.75 145.40 Z" />
<path fill="#14b1e7" opacity="1.00" d=" M 16.36 147.26 C 18.02 147.25 19.67 147.24 21.33 147.24 C 23.26 153.79 25.21 160.32 27.08 166.89 C 28.97 160.36 30.61 153.75 32.48 147.21 C 34.16 147.23 35.84 147.25 37.52 147.27 C 34.87 156.10 32.34 164.96 29.75 173.81 C 28.16 173.82 26.58 173.81 25.00 173.80 C 23.02 167.15 20.90 160.54 18.82 153.92 C 16.52 160.51 14.62 167.24 12.46 173.87 C 10.89 173.84 9.33 173.81 7.76 173.77 C 5.26 164.91 2.62 156.08 0.01 147.25 C 1.77 147.24 3.53 147.25 5.29 147.26 C 6.88 153.80 8.91 160.24 10.20 166.85 C 12.67 160.46 14.27 153.78 16.36 147.26 Z" />
<path fill="#14b1e7" opacity="1.00" d=" M 72.49 148.48 C 76.64 145.52 82.54 145.86 86.64 148.75 C 87.07 150.42 85.07 151.36 84.32 152.61 C 81.72 150.19 76.24 149.14 74.57 153.06 C 73.45 157.08 78.53 157.72 81.18 158.78 C 84.83 159.67 88.00 163.05 87.40 166.99 C 87.13 171.28 83.13 174.34 79.02 174.56 C 75.07 175.11 71.32 173.36 68.23 171.05 C 69.26 170.00 70.29 168.95 71.32 167.90 C 74.07 169.58 77.54 171.80 80.72 169.76 C 83.00 168.71 83.15 165.22 81.09 163.85 C 78.10 162.01 74.25 161.85 71.56 159.49 C 68.54 156.49 69.02 150.93 72.49 148.48 Z" />
<path fill="#14b1e7" opacity="1.00" d=" M 173.97 149.89 C 179.46 145.17 188.61 145.14 193.74 150.45 C 192.59 151.36 191.44 152.26 190.29 153.16 C 187.42 151.06 183.63 149.65 180.23 151.38 C 173.08 154.27 172.66 165.88 179.48 169.36 C 183.09 171.35 187.54 170.20 190.34 167.38 C 191.63 168.24 192.91 169.12 194.19 170.00 C 189.32 175.63 180.13 176.10 174.40 171.54 C 167.89 166.43 167.62 155.24 173.97 149.89 Z" />
<path fill="#14b1e7" opacity="1.00" d=" M 119.53 155.69 C 122.86 154.77 126.76 155.19 129.44 157.52 C 134.08 161.26 133.64 169.45 128.62 172.68 C 123.55 176.42 115.01 174.06 113.38 167.74 C 111.69 162.89 114.54 157.09 119.53 155.69 M 117.56 164.99 C 117.14 169.23 122.31 172.33 125.74 169.75 C 129.91 166.70 128.18 159.41 123.03 158.54 C 120.00 159.19 117.08 161.57 117.56 164.99 Z" />
<path fill="#14b1e7" opacity="1.00" d=" M 141.37 157.91 C 144.21 155.45 148.36 154.25 151.81 156.17 C 158.63 159.64 158.12 171.37 150.81 173.93 C 147.57 175.34 144.22 173.86 141.54 171.99 C 141.61 175.66 141.59 179.33 141.59 183.00 L 137.11 183.00 C 137.12 173.92 137.09 164.83 137.13 155.75 C 138.54 155.75 139.96 155.74 141.37 155.74 C 141.37 156.28 141.37 157.37 141.37 157.91 M 142.48 161.37 C 139.85 164.78 142.37 171.04 146.98 170.62 C 150.17 170.81 151.53 167.48 152.39 165.01 C 151.85 161.99 150.12 159.35 147.02 158.53 C 145.40 159.25 143.45 159.72 142.48 161.37 Z" />
<path fill="#14b1e7" opacity="1.00" d=" M 218.52 157.89 C 221.31 156.05 224.60 154.75 228.01 155.33 C 231.29 155.47 234.10 158.24 234.31 161.52 C 234.58 165.61 234.34 169.71 234.42 173.81 C 233.04 173.82 231.66 173.84 230.28 173.86 L 230.30 172.08 C 227.68 173.90 224.31 175.31 221.21 173.78 C 217.56 172.80 216.20 167.62 219.06 165.10 C 222.21 162.55 226.51 162.74 230.34 162.39 C 230.06 161.69 229.52 160.29 229.24 159.59 C 226.34 158.18 223.28 158.93 220.73 160.70 C 219.98 159.76 219.25 158.83 218.52 157.89 M 222.84 166.86 C 222.03 167.90 222.43 169.30 222.34 170.51 C 224.27 170.58 226.43 171.23 228.22 170.20 C 229.77 169.18 229.80 167.14 230.45 165.58 C 227.88 165.64 225.14 165.52 222.84 166.86 Z" />
<path fill="#14b1e7" opacity="1.00" d=" M 244.41 157.81 C 247.33 153.98 254.18 154.46 255.79 159.27 C 257.09 163.99 256.11 169.02 256.42 173.87 C 254.85 173.84 253.28 173.82 251.72 173.79 C 251.64 169.64 252.06 165.45 251.51 161.32 C 251.27 159.62 249.28 159.32 248.11 158.49 C 246.79 159.51 244.85 160.21 244.49 162.05 C 243.97 165.93 244.34 169.87 244.26 173.78 C 242.71 173.81 241.15 173.83 239.61 173.86 C 239.57 167.84 239.58 161.81 239.60 155.79 C 240.56 155.76 242.50 155.70 243.46 155.67 C 243.78 156.38 244.09 157.09 244.41 157.81 Z" />
<path fill="#14b1e7" opacity="1.00" d=" M 266.20 157.84 C 267.90 156.50 269.73 154.91 272.08 155.24 C 275.63 155.12 278.35 158.53 278.36 161.90 C 278.52 165.89 278.36 169.88 278.42 173.86 C 276.85 173.84 275.28 173.82 273.72 173.80 C 273.64 169.63 274.06 165.42 273.51 161.28 C 272.71 157.76 266.89 158.72 266.49 162.08 C 265.97 165.96 266.34 169.88 266.26 173.78 C 264.71 173.81 263.15 173.83 261.61 173.86 C 261.57 167.84 261.59 161.81 261.60 155.79 C 262.59 155.76 264.57 155.70 265.56 155.67 C 265.72 156.22 266.04 157.30 266.20 157.84 Z" />
<path fill="#14b1e7" opacity="1.00" d=" M 283.03 168.06 C 280.66 161.75 286.18 154.18 293.03 155.26 C 298.69 155.21 301.61 161.27 300.91 166.28 C 296.22 166.26 291.53 166.15 286.85 166.35 C 288.11 171.24 294.30 171.92 297.53 168.51 C 298.36 169.34 299.25 170.12 299.99 171.04 C 295.67 176.72 284.99 175.14 283.03 168.06 M 286.94 163.05 C 290.15 163.13 293.36 163.12 296.57 163.11 C 296.21 161.90 295.83 160.70 295.47 159.51 C 292.10 157.51 287.78 159.12 286.94 163.05 Z" />
<path fill="#14b1e7" opacity="1.00" d=" M 40.60 155.65 C 42.05 156.00 43.99 155.16 45.12 156.40 C 45.35 162.19 45.11 168.00 45.21 173.80 C 43.66 173.81 42.11 173.80 40.56 173.79 C 40.62 167.74 40.56 161.70 40.60 155.65 Z" />
<path fill="#14b1e7" opacity="1.00" d=" M 50.60 155.75 C 52.15 155.75 53.69 155.75 55.24 155.76 C 55.26 161.77 55.22 167.77 55.27 173.78 C 53.71 173.81 52.14 173.83 50.58 173.85 C 50.60 167.81 50.57 161.78 50.60 155.75 Z" />
</g>
</svg>
